<svg xmlns="http://www.w3.org/2000/svg" viewBox="-61.214 -167.143 1375.716 1165.286"><rect width="1000%" height="1000%" x="-500%" y="-500%" fill="#EEEEEE"/><path fill="none" stroke="#EEEEEE" stroke-width="8" d="M665.105 278.671l-.01-.01V-94.143h98.192"/><defs><linearGradient id="a" x1="0%" x2="50%" y1="0%" y2="50%"><stop offset="0%" stop-color="#FF3986"/><stop offset="100%" stop-color="#3397DA"/></linearGradient></defs><path fill="none" stroke="url(#a)" stroke-width="3" d="M665.105 278.671l-.01-.01V-94.143h98.192"/><path fill="none" stroke="#EEEEEE" stroke-width="8" d="M716.804 249.782l-.01-.01h220.431v-157.2"/><defs><linearGradient id="b" x1="0%" x2="50%" y1="0%" y2="50%"><stop offset="0%" stop-color="#FF3986"/><stop offset="100%" stop-color="#2ECB70"/></linearGradient></defs><path fill="none" stroke="url(#b)" stroke-width="3" d="M716.804 249.782l-.01-.01h220.431v-157.2"/><path fill="none" stroke="#EEEEEE" stroke-width="8" d="M768.503 220.893l-.01-.01h203.06V101.714"/><defs><linearGradient id="c" x1="0%" x2="50%" y1="0%" y2="50%"><stop offset="0%" stop-color="#FF3986"/><stop offset="100%" stop-color="#2ECB70"/></linearGradient></defs><path fill="none" stroke="url(#c)" stroke-width="3" d="M768.503 220.893l-.01-.01h203.06V101.714"/><path fill="none" stroke="#EEEEEE" stroke-width="8" d="M613.406 307.56l-.01-.01v233.774h-50.432"/><defs><linearGradient id="d" x1="0%" x2="50%" y1="0%" y2="50%"><stop offset="0%" stop-color="#FF3986"/><stop offset="100%" stop-color="#2ECB70"/></linearGradient></defs><path fill="none" stroke="url(#d)" stroke-width="3" d="M613.406 307.56l-.01-.01v233.774h-50.432"/><path fill="none" stroke="url(#d)" stroke-width="1.5" d="M633.406 446.834l-2.01-.01v8h2M637.406 446.834l1.99-.01v8h-2"/><path fill="none" stroke="#EEEEEE" stroke-width="8" d="M458.309 220.893l-.01-.01H190.073v-17.74"/><defs><linearGradient id="e" x1="100%" x2="50%" y1="100%" y2="50%"><stop offset="0%" stop-color="#FF3986"/><stop offset="100%" stop-color="#3397DA"/></linearGradient></defs><path fill="none" stroke="url(#e)" stroke-width="3" d="M458.309 220.893l-.01-.01H190.073v-17.74"/><path fill="none" stroke="#EEEEEE" stroke-width="8" d="M510.008 249.782l-.01-.01V30.667h-72.95"/><defs><linearGradient id="f" x1="100%" x2="50%" y1="100%" y2="50%"><stop offset="0%" stop-color="#FF3986"/><stop offset="100%" stop-color="#2ECB70"/></linearGradient></defs><path fill="none" stroke="url(#f)" stroke-width="3" d="M510.008 249.782l-.01-.01V30.667h-72.95"/><path fill="none" stroke="#EEEEEE" stroke-width="8" d="M561.707 278.671l-.01-.01V61.333h-37.6"/><defs><linearGradient id="g" x1="100%" x2="50%" y1="100%" y2="50%"><stop offset="0%" stop-color="#FF3986"/><stop offset="100%" stop-color="#2ECB70"/></linearGradient></defs><path fill="none" stroke="url(#g)" stroke-width="3" d="M561.707 278.671l-.01-.01V61.333h-37.6"/><path fill="none" stroke="#EEEEEE" stroke-width="8" d="M813.373-76.466l-.01-.01h192.516v187.333"/><defs><linearGradient id="h" x1="0%" x2="50%" y1="0%" y2="50%"><stop offset="0%" stop-color="#3397DA"/><stop offset="100%" stop-color="#2ECB70"/></linearGradient></defs><path fill="none" stroke="url(#h)" stroke-width="3" d="M813.373-76.466l-.01-.01h192.516v187.333"/><path fill="none" stroke="#EEEEEE" stroke-width="8" d="M651.537 530.763l-.01-.01h391.66v-160.61"/><defs><linearGradient id="i" x1="0%" x2="50%" y1="0%" y2="50%"><stop offset="0%" stop-color="#2ECB70"/><stop offset="100%" stop-color="#3397DA"/></linearGradient></defs><path fill="none" stroke="url(#i)" stroke-width="3" d="M651.537 530.763l-.01-.01h391.66v-160.61"/><path fill="none" stroke="#EEEEEE" stroke-width="8" d="M710.578 509.62l-.01-.01h465.933v1.819"/><defs><linearGradient id="j" x1="0%" x2="50%" y1="0%" y2="50%"><stop offset="0%" stop-color="#2ECB70"/><stop offset="100%" stop-color="#3397DA"/></linearGradient></defs><path fill="none" stroke="url(#j)" stroke-width="3" d="M710.578 509.62l-.01-.01h465.933v1.819"/><path fill="none" stroke="#EEEEEE" stroke-width="8" d="M592.495 551.906l-.01-.01h373.254V616"/><defs><linearGradient id="k" x1="0%" x2="50%" y1="0%" y2="50%"><stop offset="0%" stop-color="#2ECB70"/><stop offset="100%" stop-color="#3397DA"/></linearGradient></defs><path fill="none" stroke="url(#k)" stroke-width="3" d="M592.495 551.906l-.01-.01h373.254V616"/><path fill="none" stroke="#EEEEEE" stroke-width="8" d="M415.37 488.477l-.01-.01H114.645v254.39"/><defs><linearGradient id="l" x1="0%" x2="50%" y1="0%" y2="50%"><stop offset="0%" stop-color="#2ECB70"/><stop offset="100%" stop-color="#2ECB70"/></linearGradient></defs><path fill="none" stroke="url(#l)" stroke-width="3" d="M415.37 488.477l-.01-.01H114.645v254.39"/><path fill="none" stroke="url(#l)" stroke-width="1.5" d="M134.655 662.367l-2.01-.01v8h2M138.655 662.367l1.99-.01v8h-2"/><path fill="none" stroke="#EEEEEE" stroke-width="8" d="M474.412 509.62l-.01-.01v235.741h-1.541"/><defs><linearGradient id="m" x1="0%" x2="50%" y1="0%" y2="50%"><stop offset="0%" stop-color="#2ECB70"/><stop offset="100%" stop-color="#2ECB70"/></linearGradient></defs><path fill="none" stroke="url(#m)" stroke-width="3" d="M474.412 509.62l-.01-.01v235.741h-1.541"/><path fill="none" stroke="url(#m)" stroke-width="1.5" d="M494.412 671.861l-2.01-.01v8h2M498.412 671.861l1.99-.01v8h-2"/><path fill="none" stroke="#EEEEEE" stroke-width="8" d="M533.453 530.763l-.01-.01h221.142v202.5"/><defs><linearGradient id="n" x1="0%" x2="50%" y1="0%" y2="50%"><stop offset="0%" stop-color="#2ECB70"/><stop offset="100%" stop-color="#2ECB70"/></linearGradient></defs><path fill="none" stroke="url(#n)" stroke-width="3" d="M533.453 530.763l-.01-.01h221.142v202.5"/><path fill="none" stroke="url(#n)" stroke-width="1.5" d="M665.237 510.763l-2.01-.01v8h2M669.237 510.763l1.99-.01v8h-2"/><path fill="none" stroke="#EEEEEE" stroke-width="8" d="M545.87 46.01l-.01-.01h357.038v37.429"/><defs><linearGradient id="o" x1="0%" x2="50%" y1="0%" y2="50%"><stop offset="0%" stop-color="#2ECB70"/><stop offset="100%" stop-color="#2ECB70"/></linearGradient></defs><path fill="none" stroke="url(#o)" stroke-width="3" d="M545.87 46.01l-.01-.01h357.038v37.429"/><path fill="none" stroke="#EEEEEE" stroke-width="8" d="M1043.197 370.153l-.01-.01V101.714h-2.98"/><defs><linearGradient id="p" x1="100%" x2="50%" y1="100%" y2="50%"><stop offset="0%" stop-color="#3397DA"/><stop offset="100%" stop-color="#2ECB70"/></linearGradient></defs><path fill="none" stroke="url(#p)" stroke-width="3" d="M1043.197 370.153l-.01-.01V101.714h-2.98"/><path fill="none" stroke="#EEEEEE" stroke-width="8" d="M1176.511 511.439l-.01-.01V92.57h-101.968"/><defs><linearGradient id="q" x1="100%" x2="50%" y1="100%" y2="50%"><stop offset="0%" stop-color="#3397DA"/><stop offset="100%" stop-color="#2ECB70"/></linearGradient></defs><path fill="none" stroke="url(#q)" stroke-width="3" d="M1176.511 511.439l-.01-.01V92.57h-101.968"/><path fill="none" stroke="#EEEEEE" stroke-width="8" d="M965.75 616.01l-.01-.01v147.92H823.442"/><defs><linearGradient id="r" x1="0%" x2="50%" y1="0%" y2="50%"><stop offset="0%" stop-color="#3397DA"/><stop offset="100%" stop-color="#2ECB70"/></linearGradient></defs><path fill="none" stroke="url(#r)" stroke-width="3" d="M965.75 616.01l-.01-.01v147.92H823.442"/><path fill="none" stroke="url(#r)" stroke-width="1.5" d="M912.811 743.93l-2.01-.01v8h2M916.811 743.93l1.99-.01v8h-2"/><path fill="#FFFFFF" stroke="#FF3986" stroke-width="3" d="M354.9 163.106h465.292v260H354.9z"/><path fill="#ff3986" stroke="#ff3986" d="M355.9 188.106h465.292"/><path fill="none" stroke="#FF3986" stroke-width="3" d="M354.9 163.106h465.292v260H354.9z"/><text x="364.9" y="181.106" style="font:700 16px 'Lucida Console',monospace" fill="#000000">ConformityAttestation</text><text x="364.9" y="205.106" style="font:500 14px 'Lucida Console',monospace" fill="#000000">id:</text><text x="394.186" y="205.106" style="font:500 14px 'Lucida Console',monospace" fill="#C9A30B">URI</text><text x="364.9" y="219.106" style="font:500 14px 'Lucida Console',monospace" fill="#000000">assessorLevel:</text><text x="486.902" y="219.106" style="font:500 14px 'Lucida Console',monospace" fill="#530abb">Code(assessorAssuranceCode)</text><text x="364.9" y="233.106" style="font:500 14px 'Lucida Console',monospace" fill="#000000">assessmentLevel:</text><text x="503.76" y="233.106" style="font:500 14px 'Lucida Console',monospace" fill="#530abb">Code(assessmentAssuranceCode)</text><text x="364.9" y="247.106" style="font:500 14px 'Lucida Console',monospace" fill="#000000">type:</text><text x="411.044" y="247.106" style="font:500 14px 'Lucida Console',monospace" fill="#530abb">Code(attestationType)</text><text x="364.9" y="261.106" style="font:500 14px 'Lucida Console',monospace" fill="#000000">description:</text><text x="470.045" y="261.106" style="font:500 14px 'Lucida Console',monospace" fill="#02b57b">Text</text><text x="364.9" y="275.106" style="font:500 14px 'Lucida Console',monospace" fill="#000000">scope:</text><text x="419.473" y="275.106" style="font:500 14px 'Lucida Console',monospace" fill="#3397DA">ConformityAssessmentScheme</text><text x="364.9" y="289.106" style="font:500 14px 'Lucida Console',monospace" fill="#000000">issuedBy:</text><text x="444.759" y="289.106" style="font:500 14px 'Lucida Console',monospace" fill="#2ECB70">Party</text><text x="364.9" y="303.106" style="font:500 14px 'Lucida Console',monospace" fill="#000000">issuedTo:</text><text x="444.759" y="303.106" style="font:500 14px 'Lucida Console',monospace" fill="#2ECB70">Party</text><text x="364.9" y="317.106" style="font:500 14px 'Lucida Console',monospace" fill="#000000">validFrom:</text><text x="453.187" y="317.106" style="font:500 14px 'Lucida Console',monospace" fill="#02b57b">Date</text><text x="364.9" y="331.106" style="font:500 14px 'Lucida Console',monospace" fill="#000000">validTo:</text><text x="436.33" y="331.106" style="font:500 14px 'Lucida Console',monospace" fill="#02b57b">Date</text><text x="364.9" y="345.106" style="font:500 14px 'Lucida Console',monospace" fill="#000000">status:</text><text x="427.901" y="345.106" style="font:500 14px 'Lucida Console',monospace" fill="#530abb">Code(status)</text><text x="364.9" y="359.106" style="font:500 14px 'Lucida Console',monospace" fill="#000000">assessments:</text><text x="470.045" y="359.106" style="font:500 14px 'Lucida Console',monospace" fill="#2ECB70">ConformityAssessment[]</text><text x="364.9" y="373.106" style="font:500 14px 'Lucida Console',monospace" fill="#000000">evidence:</text><text x="444.759" y="373.106" style="font:500 14px 'Lucida Console',monospace" fill="#3397DA">ConformityEvidence</text><text x="364.9" y="387.106" style="font:500 14px 'Lucida Console',monospace" fill="#000000">accreditation:</text><text x="486.902" y="387.106" style="font:500 14px 'Lucida Console',monospace" fill="#2ECB70">Authority</text><text x="364.9" y="401.106" style="font:500 14px 'Lucida Console',monospace" fill="#000000">regulatoryApproval:</text><text x="529.046" y="401.106" style="font:500 14px 'Lucida Console',monospace" fill="#2ECB70">Authority</text><text x="364.9" y="415.106" style="font:500 14px 'Lucida Console',monospace" fill="#000000">certificate:</text><text x="470.045" y="415.106" style="font:500 14px 'Lucida Console',monospace" fill="#3397DA">BinaryFile</text><path fill="#FFFFFF" stroke="#3397DA" stroke-width="3" d="M613.061-147.143h300.453v106H613.061z"/><path fill="#3397da" stroke="#3397da" d="M614.06-122.143h300.454"/><path fill="none" stroke="#3397DA" stroke-width="3" d="M613.061-147.143h300.453v106H613.061z"/><text x="623.061" y="-129.143" style="font:700 16px 'Lucida Console',monospace" fill="#000000">ConformityAssessmentScheme</text><text x="623.061" y="-105.143" style="font:500 14px 'Lucida Console',monospace" fill="#000000">id:</text><text x="652.347" y="-105.143" style="font:500 14px 'Lucida Console',monospace" fill="#C9A30B">URI</text><text x="623.061" y="-91.143" style="font:500 14px 'Lucida Console',monospace" fill="#000000">name:</text><text x="669.204" y="-91.143" style="font:500 14px 'Lucida Console',monospace" fill="#02b57b">Text</text><text x="623.061" y="-77.143" style="font:500 14px 'Lucida Console',monospace" fill="#000000">trustmark:</text><text x="711.348" y="-77.143" style="font:500 14px 'Lucida Console',monospace" fill="#3397DA">BinaryFile</text><text x="623.061" y="-63.143" style="font:500 14px 'Lucida Console',monospace" fill="#000000">issuingBody:</text><text x="728.205" y="-63.143" style="font:500 14px 'Lucida Console',monospace" fill="#2ECB70">Party</text><text x="623.061" y="-49.143" style="font:500 14px 'Lucida Console',monospace" fill="#000000">dateOfIssue:</text><text x="728.205" y="-49.143" style="font:500 14px 'Lucida Console',monospace" fill="#02b57b">Date</text><path fill="#FFFFFF" stroke="#2ECB70" stroke-width="3" d="M317.002 692.351h311.719v106H317.002z"/><path fill="#2ecb70" stroke="#2ecb70" d="M318.002 717.351H629.72"/><path fill="none" stroke="#2ECB70" stroke-width="3" d="M317.002 692.351h311.719v106H317.002z"/><text x="327.002" y="710.351" style="font:700 16px 'Lucida Console',monospace" fill="#000000">Facility</text><text x="327.002" y="734.351" style="font:500 14px 'Lucida Console',monospace" fill="#000000">identifiers:</text><text x="432.146" y="734.351" style="font:500 14px 'Lucida Console',monospace" fill="#2ECB70">Identifier[]</text><text x="327.002" y="748.351" style="font:500 14px 'Lucida Console',monospace" fill="#000000">name:</text><text x="373.145" y="748.351" style="font:500 14px 'Lucida Console',monospace" fill="#02b57b">Text</text><text x="327.002" y="762.351" style="font:500 14px 'Lucida Console',monospace" fill="#000000">classifications:</text><text x="465.861" y="762.351" style="font:500 14px 'Lucida Console',monospace" fill="#2ECB70">Classification[]</text><text x="327.002" y="776.351" style="font:500 14px 'Lucida Console',monospace" fill="#000000">geolocation:</text><text x="432.146" y="776.351" style="font:500 14px 'Lucida Console',monospace" fill="#02b57b">URI</text><text x="327.002" y="790.351" style="font:500 14px 'Lucida Console',monospace" fill="#000000">verfifiedByCAB:</text><text x="457.432" y="790.351" style="font:500 14px 'Lucida Console',monospace" fill="#02b57b">Indicator</text><path fill="#FFFFFF" stroke="#2ECB70" stroke-width="3" d="M-41.214 682.857h311.719v120H-41.214z"/><path fill="#2ecb70" stroke="#2ecb70" d="M-40.214 707.857h311.718"/><path fill="none" stroke="#2ECB70" stroke-width="3" d="M-41.214 682.857h311.719v120H-41.214z"/><text x="-31.214" y="700.857" style="font:700 16px 'Lucida Console',monospace" fill="#000000">Product</text><text x="-31.214" y="724.857" style="font:500 14px 'Lucida Console',monospace" fill="#000000">identifiers:</text><text x="73.93" y="724.857" style="font:500 14px 'Lucida Console',monospace" fill="#2ECB70">Identifier[]</text><text x="-31.214" y="738.857" style="font:500 14px 'Lucida Console',monospace" fill="#000000">marking:</text><text x="40.215" y="738.857" style="font:500 14px 'Lucida Console',monospace" fill="#02b57b">Text</text><text x="-31.214" y="752.857" style="font:500 14px 'Lucida Console',monospace" fill="#000000">name:</text><text x="14.929" y="752.857" style="font:500 14px 'Lucida Console',monospace" fill="#02b57b">Text</text><text x="-31.214" y="766.857" style="font:500 14px 'Lucida Console',monospace" fill="#000000">classifications:</text><text x="107.645" y="766.857" style="font:500 14px 'Lucida Console',monospace" fill="#2ECB70">Classification[]</text><text x="-31.214" y="780.857" style="font:500 14px 'Lucida Console',monospace" fill="#000000">testedBatchId:</text><text x="90.787" y="780.857" style="font:500 14px 'Lucida Console',monospace" fill="#02b57b">URI</text><text x="-31.214" y="794.857" style="font:500 14px 'Lucida Console',monospace" fill="#000000">verfifiedByCAB:</text><text x="99.216" y="794.857" style="font:500 14px 'Lucida Console',monospace" fill="#02b57b">Indicator</text><path fill="#FFFFFF" stroke="#2ECB70" stroke-width="3" d="M356.318 467.324H769.61v148H356.318z"/><path fill="#2ecb70" stroke="#2ecb70" d="M357.318 492.324H770.61"/><path fill="none" stroke="#2ECB70" stroke-width="3" d="M356.318 467.324H769.61v148H356.318z"/><text x="366.318" y="485.324" style="font:700 16px 'Lucida Console',monospace" fill="#000000">ConformityAssessment</text><text x="366.318" y="509.324" style="font:500 14px 'Lucida Console',monospace" fill="#000000">referenceStandard:</text><text x="522.035" y="509.324" style="font:500 14px 'Lucida Console',monospace" fill="#3397DA">Standard</text><text x="366.318" y="523.324" style="font:500 14px 'Lucida Console',monospace" fill="#000000">referenceRegulation:</text><text x="538.892" y="523.324" style="font:500 14px 'Lucida Console',monospace" fill="#3397DA">Regulation</text><text x="366.318" y="537.324" style="font:500 14px 'Lucida Console',monospace" fill="#000000">assessmentCriterion:</text><text x="538.892" y="537.324" style="font:500 14px 'Lucida Console',monospace" fill="#3397DA">Criteria</text><text x="366.318" y="551.324" style="font:500 14px 'Lucida Console',monospace" fill="#000000">subjectProducts:</text><text x="505.178" y="551.324" style="font:500 14px 'Lucida Console',monospace" fill="#2ECB70">Product[]</text><text x="366.318" y="565.324" style="font:500 14px 'Lucida Console',monospace" fill="#000000">subjectFacilities:</text><text x="522.035" y="565.324" style="font:500 14px 'Lucida Console',monospace" fill="#2ECB70">Facility[]</text><text x="366.318" y="579.324" style="font:500 14px 'Lucida Console',monospace" fill="#000000">measuredResults:</text><text x="505.178" y="579.324" style="font:500 14px 'Lucida Console',monospace" fill="#2ECB70">Metric[]</text><text x="366.318" y="593.324" style="font:500 14px 'Lucida Console',monospace" fill="#000000">compliance:</text><text x="463.034" y="593.324" style="font:500 14px 'Lucida Console',monospace" fill="#02b57b">Indicator</text><text x="366.318" y="607.324" style="font:500 14px 'Lucida Console',monospace" fill="#000000">sustainabilityTopic:</text><text x="538.892" y="607.324" style="font:500 14px 'Lucida Console',monospace" fill="#530abb">Code(sustainabilityTopic)</text><path fill="#FFFFFF" stroke="#2ECB70" stroke-width="3" d="M685.727 702.586h206.574v92H685.727z"/><path fill="#2ecb70" stroke="#2ecb70" d="M686.727 727.586h206.574"/><path fill="none" stroke="#2ECB70" stroke-width="3" d="M685.727 702.586h206.574v92H685.727z"/><text x="695.727" y="720.586" style="font:700 16px 'Lucida Console',monospace" fill="#000000">Metric</text><text x="695.727" y="744.586" style="font:500 14px 'Lucida Console',monospace" fill="#000000">name:</text><text x="741.871" y="744.586" style="font:500 14px 'Lucida Console',monospace" fill="#02b57b">Text</text><text x="695.727" y="758.586" style="font:500 14px 'Lucida Console',monospace" fill="#000000">value:</text><text x="750.299" y="758.586" style="font:500 14px 'Lucida Console',monospace" fill="#2ECB70">Measure</text><text x="695.727" y="772.586" style="font:500 14px 'Lucida Console',monospace" fill="#000000">minimumValue:</text><text x="809.3" y="772.586" style="font:500 14px 'Lucida Console',monospace" fill="#2ECB70">Measure</text><text x="695.727" y="786.586" style="font:500 14px 'Lucida Console',monospace" fill="#000000">maximumValue:</text><text x="809.3" y="786.586" style="font:500 14px 'Lucida Console',monospace" fill="#2ECB70">Measure</text><path fill="#FFFFFF" stroke="#3397DA" stroke-width="3" d="M65.714 157.143h248.718v92H65.714z"/><path fill="#3397da" stroke="#3397da" d="M66.714 182.143h248.718"/><path fill="none" stroke="#3397DA" stroke-width="3" d="M65.714 157.143h248.718v92H65.714z"/><text x="75.714" y="175.143" style="font:700 16px 'Lucida Console',monospace" fill="#000000">ConformityEvidence</text><text x="75.714" y="199.143" style="font:500 14px 'Lucida Console',monospace" fill="#000000">evidenceRootHash:</text><text x="223.002" y="199.143" style="font:500 14px 'Lucida Console',monospace" fill="#C9A30B">Text</text><text x="75.714" y="213.143" style="font:500 14px 'Lucida Console',monospace" fill="#000000">description:</text><text x="180.859" y="213.143" style="font:500 14px 'Lucida Console',monospace" fill="#02b57b">Text</text><text x="75.714" y="227.143" style="font:500 14px 'Lucida Console',monospace" fill="#000000">evidenceData:</text><text x="189.288" y="227.143" style="font:500 14px 'Lucida Console',monospace" fill="#3397DA">BinaryFile[]</text><text x="75.714" y="241.143" style="font:500 14px 'Lucida Console',monospace" fill="#000000">decryptionKeyRequest:</text><text x="256.717" y="241.143" style="font:500 14px 'Lucida Console',monospace" fill="#02b57b">URI</text><path fill="#FFFFFF" stroke="#3397DA" stroke-width="3" d="M-50 300h362.72v92H-50z"/><path fill="#3397da" stroke="#3397da" d="M-49 325h362.72"/><path fill="none" stroke="#3397DA" stroke-width="3" d="M-50 300h362.72v92H-50z"/><text x="-40" y="318" style="font:700 16px 'Lucida Console',monospace" fill="#000000">BinaryFile</text><text x="-40" y="342" style="font:500 14px 'Lucida Console',monospace" fill="#000000">fileHash:</text><text x="39.858" y="342" style="font:500 14px 'Lucida Console',monospace" fill="#C9A30B">Text</text><text x="-40" y="356" style="font:500 14px 'Lucida Console',monospace" fill="#000000">fileLocation:</text><text x="73.573" y="356" style="font:500 14px 'Lucida Console',monospace" fill="#02b57b">URI</text><text x="-40" y="370" style="font:500 14px 'Lucida Console',monospace" fill="#000000">fileType:</text><text x="39.858" y="370" style="font:500 14px 'Lucida Console',monospace" fill="#530abb">Code(mimeType)</text><text x="-40" y="384" style="font:500 14px 'Lucida Console',monospace" fill="#000000">EncryptionMethod:</text><text x="107.288" y="384" style="font:500 14px 'Lucida Console',monospace" fill="#530abb">Code(encryptionMethod)</text><path fill="#FFFFFF" stroke="#2ECB70" stroke-width="3" d="M350 0h261.146v92H350z"/><path fill="#2ecb70" stroke="#2ecb70" d="M351 25h261.146"/><path fill="none" stroke="#2ECB70" stroke-width="3" d="M350 0h261.146v92H350z"/><text x="360" y="18" style="font:700 16px 'Lucida Console',monospace" fill="#000000">Authority</text><text x="360" y="42" style="font:500 14px 'Lucida Console',monospace" fill="#000000">number:</text><text x="423.001" y="42" style="font:500 14px 'Lucida Console',monospace" fill="#02b57b">Text</text><text x="360" y="56" style="font:500 14px 'Lucida Console',monospace" fill="#000000">authorityEvidence:</text><text x="515.717" y="56" style="font:500 14px 'Lucida Console',monospace" fill="#2ECB70">Evidence</text><text x="360" y="70" style="font:500 14px 'Lucida Console',monospace" fill="#000000">trustmark:</text><text x="448.287" y="70" style="font:500 14px 'Lucida Console',monospace" fill="#3397DA">BinaryFile</text><text x="360" y="84" style="font:500 14px 'Lucida Console',monospace" fill="#000000">authority:</text><text x="448.287" y="84" style="font:500 14px 'Lucida Console',monospace" fill="#2ECB70">Party</text><path fill="#FFFFFF" stroke="#3397DA" stroke-width="3" d="M945.187 324.143h196v92h-196z"/><path fill="#3397da" stroke="#3397da" d="M946.187 349.143h196"/><path fill="none" stroke="#3397DA" stroke-width="3" d="M945.187 324.143h196v92h-196z"/><text x="955.187" y="342.143" style="font:700 16px 'Lucida Console',monospace" fill="#000000">Standard</text><text x="955.187" y="366.143" style="font:500 14px 'Lucida Console',monospace" fill="#000000">id:</text><text x="984.473" y="366.143" style="font:500 14px 'Lucida Console',monospace" fill="#C9A30B">URI</text><text x="955.187" y="380.143" style="font:500 14px 'Lucida Console',monospace" fill="#000000">name:</text><text x="1001.33" y="380.143" style="font:500 14px 'Lucida Console',monospace" fill="#02b57b">Text</text><text x="955.187" y="394.143" style="font:500 14px 'Lucida Console',monospace" fill="#000000">issuingBody:</text><text x="1060.331" y="394.143" style="font:500 14px 'Lucida Console',monospace" fill="#2ECB70">Party</text><text x="955.187" y="408.143" style="font:500 14px 'Lucida Console',monospace" fill="#000000">issueDate:</text><text x="1043.474" y="408.143" style="font:500 14px 'Lucida Console',monospace" fill="#02b57b">Date</text><path fill="#FFFFFF" stroke="#3397DA" stroke-width="3" d="M1078.501 465.429h196v92h-196z"/><path fill="#3397da" stroke="#3397da" d="M1079.501 490.429h196"/><path fill="none" stroke="#3397DA" stroke-width="3" d="M1078.501 465.429h196v92h-196z"/><text x="1088.501" y="483.429" style="font:700 16px 'Lucida Console',monospace" fill="#000000">Regulation</text><text x="1088.501" y="507.429" style="font:500 14px 'Lucida Console',monospace" fill="#000000">id:</text><text x="1117.787" y="507.429" style="font:500 14px 'Lucida Console',monospace" fill="#C9A30B">URI</text><text x="1088.501" y="521.429" style="font:500 14px 'Lucida Console',monospace" fill="#000000">name:</text><text x="1134.645" y="521.429" style="font:500 14px 'Lucida Console',monospace" fill="#02b57b">Text</text><text x="1088.501" y="535.429" style="font:500 14px 'Lucida Console',monospace" fill="#000000">issuingBody:</text><text x="1193.646" y="535.429" style="font:500 14px 'Lucida Console',monospace" fill="#2ECB70">Party</text><text x="1088.501" y="549.429" style="font:500 14px 'Lucida Console',monospace" fill="#000000">effectiveDate:</text><text x="1210.503" y="549.429" style="font:500 14px 'Lucida Console',monospace" fill="#02b57b">Date</text><path fill="#FFFFFF" stroke="#3397DA" stroke-width="3" d="M869.739 577h192v78h-192z"/><path fill="#3397da" stroke="#3397da" d="M870.74 602h192"/><path fill="none" stroke="#3397DA" stroke-width="3" d="M869.739 577h192v78h-192z"/><text x="879.739" y="595" style="font:700 16px 'Lucida Console',monospace" fill="#000000">Criteria</text><text x="879.739" y="619" style="font:500 14px 'Lucida Console',monospace" fill="#000000">id:</text><text x="909.026" y="619" style="font:500 14px 'Lucida Console',monospace" fill="#C9A30B">URI</text><text x="879.739" y="633" style="font:500 14px 'Lucida Console',monospace" fill="#000000">threshold:</text><text x="968.027" y="633" style="font:500 14px 'Lucida Console',monospace" fill="#2ECB70">Metric[]</text><text x="879.739" y="647" style="font:500 14px 'Lucida Console',monospace" fill="#000000">name:</text><text x="925.883" y="647" style="font:500 14px 'Lucida Console',monospace" fill="#02b57b">Text</text><path fill="#FFFFFF" stroke="#2ECB70" stroke-width="3" d="M868.571 74.286h240.289v64H868.571z"/><path fill="#2ecb70" stroke="#2ecb70" d="M869.571 99.286h240.29"/><path fill="none" stroke="#2ECB70" stroke-width="3" d="M868.571 74.286h240.289v64H868.571z"/><text x="878.571" y="92.286" style="font:700 16px 'Lucida Console',monospace" fill="#000000">Party</text><text x="878.571" y="116.286" style="font:500 14px 'Lucida Console',monospace" fill="#000000">identifiers:</text><text x="983.716" y="116.286" style="font:500 14px 'Lucida Console',monospace" fill="#2ECB70">Identifier[]</text><text x="878.571" y="130.286" style="font:500 14px 'Lucida Console',monospace" fill="#000000">name:</text><text x="924.715" y="130.286" style="font:500 14px 'Lucida Console',monospace" fill="#02b57b">Text</text><path fill="#FFFFFF" stroke="#2ECB70" stroke-width="3" d="M816.287 894.143h265.575v64H816.287z"/><path fill="#2ecb70" stroke="#2ecb70" d="M817.287 919.143h265.575"/><path fill="none" stroke="#2ECB70" stroke-width="3" d="M816.287 894.143h265.575v64H816.287z"/><text x="826.287" y="912.143" style="font:700 16px 'Lucida Console',monospace" fill="#000000">Evidence</text><text x="826.287" y="936.143" style="font:500 14px 'Lucida Console',monospace" fill="#000000">format:</text><text x="889.288" y="936.143" style="font:500 14px 'Lucida Console',monospace" fill="#530abb">Code(evidenceFormat)</text><text x="826.287" y="950.143" style="font:500 14px 'Lucida Console',monospace" fill="#000000">credentialReference:</text><text x="998.861" y="950.143" style="font:500 14px 'Lucida Console',monospace" fill="#02b57b">URI</text><path fill="#FFFFFF" stroke="#2ECB70" stroke-width="3" d="M-58.571 868.571h210.574v92H-58.571z"/><path fill="#2ecb70" stroke="#2ecb70" d="M-57.571 893.571h210.574"/><path fill="none" stroke="#2ECB70" stroke-width="3" d="M-58.571 868.571h210.574v92H-58.571z"/><text x="-48.571" y="886.571" style="font:700 16px 'Lucida Console',monospace" fill="#000000">Classification</text><text x="-48.571" y="910.571" style="font:500 14px 'Lucida Console',monospace" fill="#000000">scheme:</text><text x="14.43" y="910.571" style="font:500 14px 'Lucida Console',monospace" fill="#02b57b">URI</text><text x="-48.571" y="924.571" style="font:500 14px 'Lucida Console',monospace" fill="#000000">classifierValue:</text><text x="90.288" y="924.571" style="font:500 14px 'Lucida Console',monospace" fill="#02b57b">Text</text><text x="-48.571" y="938.571" style="font:500 14px 'Lucida Console',monospace" fill="#000000">classifierName:</text><text x="81.859" y="938.571" style="font:500 14px 'Lucida Console',monospace" fill="#02b57b">Text</text><text x="-48.571" y="952.571" style="font:500 14px 'Lucida Console',monospace" fill="#000000">classifierURL:</text><text x="73.431" y="952.571" style="font:500 14px 'Lucida Console',monospace" fill="#02b57b">URI</text><path fill="#FFFFFF" stroke="#2ECB70" stroke-width="3" d="M484.286 885.714h278.433v92H484.286z"/><path fill="#2ecb70" stroke="#2ecb70" d="M485.286 910.714h278.432"/><path fill="none" stroke="#2ECB70" stroke-width="3" d="M484.286 885.714h278.433v92H484.286z"/><text x="494.286" y="903.714" style="font:700 16px 'Lucida Console',monospace" fill="#000000">Identifier</text><text x="494.286" y="927.714" style="font:500 14px 'Lucida Console',monospace" fill="#000000">scheme:</text><text x="557.287" y="927.714" style="font:500 14px 'Lucida Console',monospace" fill="#02b57b">URI</text><text x="494.286" y="941.714" style="font:500 14px 'Lucida Console',monospace" fill="#000000">identiferValue:</text><text x="624.716" y="941.714" style="font:500 14px 'Lucida Console',monospace" fill="#02b57b">Text</text><text x="494.286" y="955.714" style="font:500 14px 'Lucida Console',monospace" fill="#000000">identifierURI:</text><text x="616.288" y="955.714" style="font:500 14px 'Lucida Console',monospace" fill="#02b57b">URI</text><text x="494.286" y="969.714" style="font:500 14px 'Lucida Console',monospace" fill="#000000">verificationEvidence:</text><text x="675.289" y="969.714" style="font:500 14px 'Lucida Console',monospace" fill="#2ECB70">Evidence</text><path fill="#FFFFFF" stroke="#2ECB70" stroke-width="3" d="M200 900h236.289v64H200z"/><path fill="#2ecb70" stroke="#2ecb70" d="M201 925h236.29"/><path fill="none" stroke="#2ECB70" stroke-width="3" d="M200 900h236.289v64H200z"/><text x="210" y="918" style="font:700 16px 'Lucida Console',monospace" fill="#000000">Measure</text><text x="210" y="942" style="font:500 14px 'Lucida Console',monospace" fill="#000000">value:</text><text x="264.572" y="942" style="font:500 14px 'Lucida Console',monospace" fill="#02b57b">Numeric</text><text x="210" y="956" style="font:500 14px 'Lucida Console',monospace" fill="#000000">unit:</text><text x="256.144" y="956" style="font:500 14px 'Lucida Console',monospace" fill="#530abb">Code(unitOfMeasure)</text></svg>