<svg xmlns="http://www.w3.org/2000/svg" viewBox="145.806 -88 1200.012 1086.571"><rect width="1000%" height="1000%" x="-500%" y="-500%" fill="#EEEEEE"/><path fill="none" stroke="#EEEEEE" stroke-width="8" d="M1147.161 291.389l-.01-.01V33.286h-7.865"/><defs><linearGradient id="a" x1="100%" x2="50%" y1="100%" y2="50%"><stop offset="0%" stop-color="#3397DA"/><stop offset="100%" stop-color="#aabbccdd"/></linearGradient></defs><path fill="none" stroke="url(#a)" stroke-width="3" d="M1147.161 291.389l-.01-.01V33.286h-7.865"/><path fill="none" stroke="#EEEEEE" stroke-width="8" d="M850.092 494.96l-.01-.01h341.83v-40.379"/><defs><linearGradient id="b" x1="0%" x2="50%" y1="0%" y2="50%"><stop offset="0%" stop-color="#3397DA"/><stop offset="100%" stop-color="#aabbccdd"/></linearGradient></defs><path fill="none" stroke="url(#b)" stroke-width="3" d="M850.092 494.96l-.01-.01h341.83v-40.379"/><path fill="none" stroke="#EEEEEE" stroke-width="8" d="M791.145 530.389l-.01-.01h344.315V711.57"/><defs><linearGradient id="c" x1="0%" x2="50%" y1="0%" y2="50%"><stop offset="0%" stop-color="#3397DA"/><stop offset="100%" stop-color="#aabbccdd"/></linearGradient></defs><path fill="none" stroke="url(#c)" stroke-width="3" d="M791.145 530.389l-.01-.01h344.315V711.57"/><path fill="none" stroke="#EEEEEE" stroke-width="8" d="M732.197 565.817l-.01-.01v311.764h195.027"/><defs><linearGradient id="d" x1="0%" x2="50%" y1="0%" y2="50%"><stop offset="0%" stop-color="#3397DA"/><stop offset="100%" stop-color="#aabbccdd"/></linearGradient></defs><path fill="none" stroke="url(#d)" stroke-width="3" d="M732.197 565.817l-.01-.01v311.764h195.027"/><path fill="none" stroke="url(#d)" stroke-width="1.5" d="M752.197 776.081l-2.01-.01v8h2M756.197 776.081l1.99-.01v8h-2"/><path fill="none" stroke="#EEEEEE" stroke-width="8" d="M673.25 530.389l-.01-.01V860.79h-186"/><defs><linearGradient id="e" x1="0%" x2="50%" y1="0%" y2="50%"><stop offset="0%" stop-color="#3397DA"/><stop offset="100%" stop-color="#aabbccdd"/></linearGradient></defs><path fill="none" stroke="url(#e)" stroke-width="3" d="M673.25 530.389l-.01-.01V860.79h-186"/><path fill="none" stroke="url(#e)" stroke-width="1.5" d="M617.3 840.8l-2.01-.01v8h2M621.3 840.8l1.99-.01v8h-2"/><path fill="none" stroke="#EEEEEE" stroke-width="8" d="M690.725.01l-.01-.01v268.571h23.602"/><defs><linearGradient id="f" x1="0%" x2="50%" y1="0%" y2="50%"><stop offset="0%" stop-color="#3397DA"/><stop offset="100%" stop-color="#3397DA"/></linearGradient></defs><path fill="none" stroke="url(#f)" stroke-width="3" d="M690.725.01l-.01-.01v268.571h23.602"/><path fill="none" stroke="#EEEEEE" stroke-width="8" d="M785.766 305.248l-.01-.01h361.395v-13.86"/><defs><linearGradient id="g" x1="0%" x2="50%" y1="0%" y2="50%"><stop offset="0%" stop-color="#3397DA"/><stop offset="100%" stop-color="#3397DA"/></linearGradient></defs><path fill="none" stroke="url(#g)" stroke-width="3" d="M785.766 305.248l-.01-.01h361.395v-13.86"/><path fill="none" stroke="#EEEEEE" stroke-width="8" d="M642.888 231.915l-.01-.01v316.188h59.835"/><defs><linearGradient id="h" x1="0%" x2="50%" y1="0%" y2="50%"><stop offset="0%" stop-color="#3397DA"/><stop offset="100%" stop-color="#3397DA"/></linearGradient></defs><path fill="none" stroke="url(#h)" stroke-width="3" d="M642.888 231.915l-.01-.01v316.188h59.835"/><path fill="none" stroke="url(#h)" stroke-width="1.5" d="M662.888 403.603l-2.01-.01v8h2M666.888 403.603l1.99-.01v8h-2"/><path fill="none" stroke="#EEEEEE" stroke-width="8" d="M614.302 494.96l-.01-.01h-326.07v172.252"/><defs><linearGradient id="i" x1="0%" x2="50%" y1="0%" y2="50%"><stop offset="0%" stop-color="#3397DA"/><stop offset="100%" stop-color="#2ECB70"/></linearGradient></defs><path fill="none" stroke="url(#i)" stroke-width="3" d="M614.302 494.96l-.01-.01h-326.07v172.252"/><path fill="none" stroke="url(#i)" stroke-width="1.5" d="M308.233 614.712l-2.01-.01v8h2M312.233 614.712l1.99-.01v8h-2"/><path fill="none" stroke="#EEEEEE" stroke-width="8" d="M555.354 459.532l-.01-.01H287.421V387.15"/><defs><linearGradient id="j" x1="100%" x2="50%" y1="100%" y2="50%"><stop offset="0%" stop-color="#3397DA"/><stop offset="100%" stop-color="#2ECB70"/></linearGradient></defs><path fill="none" stroke="url(#j)" stroke-width="3" d="M555.354 459.532l-.01-.01H287.421V387.15"/><path fill="none" stroke="url(#j)" stroke-width="1.5" d="M307.431 439.661l-2.01-.01v8h2M311.431 439.661l1.99-.01v8h-2"/><path fill="none" stroke="#EEEEEE" stroke-width="8" d="M1156.443 530.581l-.01-.01V307.38h-9.282"/><defs><linearGradient id="k" x1="100%" x2="50%" y1="100%" y2="50%"><stop offset="0%" stop-color="#aabbccdd"/><stop offset="100%" stop-color="#3397DA"/></linearGradient></defs><path fill="none" stroke="url(#k)" stroke-width="3" d="M1156.443 530.581l-.01-.01V307.38h-9.282"/><path fill="#FFFFFF" stroke="#3397DA" stroke-width="3" d="M500.832-68h379.767V68H500.832z"/><path fill="#3397da" stroke="#3397da" d="M501.832-27h379.766"/><path fill="none" stroke="#3397DA" stroke-width="3" d="M500.832-68h379.767V68H500.832z"/><text style="font:700 16px 'Lucida Console',monospace" x="510.832" y="-50" fill="#000000">DigitalConformityCredential</text><text style="font:300 14px 'Lucida Console',monospace" x="510.832" y="-34" fill="#999">＜＜untp.VerifiableCredential＞＞</text><text style="font:700 14px 'Lucida Console',monospace" x="510.832" y="-10" fill="#666">* @context:</text><text style="font:300 14px 'Lucida Console',monospace" x="607.598" y="-10" fill="#02b57b">Text[]</text><text style="font:700 14px 'Lucida Console',monospace" x="510.832" y="4" fill="#666">* id:</text><text style="font:300 14px 'Lucida Console',monospace" x="556.998" y="4" fill="#C9A30B">URI</text><text style="font:700 14px 'Lucida Console',monospace" x="510.832" y="18" fill="#666">* issuer:</text><text style="font:300 14px 'Lucida Console',monospace" x="590.732" y="18" fill="#02b57b">CredentialIssuer</text><text style="font:300 14px 'Lucida Console',monospace" x="527.698" y="32" fill="#666">validFrom:</text><text style="font:300 14px 'Lucida Console',monospace" x="616.032" y="32" fill="#02b57b">DateTime</text><text style="font:300 14px 'Lucida Console',monospace" x="527.698" y="46" fill="#666">validUntil:</text><text style="font:300 14px 'Lucida Console',monospace" x="624.465" y="46" fill="#02b57b">DateTime</text><text style="font:300 14px 'Lucida Console',monospace" x="527.698" y="60" fill="#000000">credentialSubject:</text><text style="font:300 14px 'Lucida Console',monospace" x="683.498" y="60" fill="#3397DA">ConformityAttestation</text><path fill="#FFFFFF" stroke="#3397DA" stroke-width="3" d="M500 158.571h428.633v220H500z"/><path fill="#3397da" stroke="#3397da" d="M501 199.571h428.633"/><path fill="none" stroke="#3397DA" stroke-width="3" d="M500 158.571h428.633v220H500z"/><text style="font:700 16px 'Lucida Console',monospace" x="510" y="176.571" fill="#000000">ConformityAttestation</text><text style="font:300 14px 'Lucida Console',monospace" x="510" y="192.571" fill="#999">＜＜untp.Attestation＞＞</text><text style="font:700 14px 'Lucida Console',monospace" x="510" y="216.571" fill="#666">* id:</text><text style="font:300 14px 'Lucida Console',monospace" x="556.167" y="216.571" fill="#C9A30B">URI</text><text style="font:300 14px 'Lucida Console',monospace" x="526.867" y="230.571" fill="#666">name:</text><text style="font:300 14px 'Lucida Console',monospace" x="573.033" y="230.571" fill="#02b57b">Text</text><text style="font:700 14px 'Lucida Console',monospace" x="510" y="244.571" fill="#666">* assessorLevel:</text><text style="font:300 14px 'Lucida Console',monospace" x="648.933" y="244.571" fill="#530abb">Code(assessorLevelCode)</text><text style="font:700 14px 'Lucida Console',monospace" x="510" y="258.571" fill="#666">* assessmentLevel:</text><text style="font:300 14px 'Lucida Console',monospace" x="665.8" y="258.571" fill="#530abb">Code(assessmentLevelCode)</text><text style="font:700 14px 'Lucida Console',monospace" x="510" y="272.571" fill="#666">* attestationType:</text><text style="font:300 14px 'Lucida Console',monospace" x="665.8" y="272.571" fill="#530abb">Code(attestationTypeCode)</text><text style="font:300 14px 'Lucida Console',monospace" x="526.867" y="286.571" fill="#666">description:</text><text style="font:300 14px 'Lucida Console',monospace" x="632.067" y="286.571" fill="#02b57b">Text</text><text style="font:700 14px 'Lucida Console',monospace" x="510" y="300.571" fill="#666">* issuedToParty:</text><text style="font:300 14px 'Lucida Console',monospace" x="648.933" y="300.571" fill="#02b57b">Party</text><text style="font:300 14px 'Lucida Console',monospace" x="526.867" y="314.571" fill="#666">authorisation:</text><text style="font:300 14px 'Lucida Console',monospace" x="648.933" y="314.571" fill="#02b57b">Endorsement[]</text><text style="font:300 14px 'Lucida Console',monospace" x="526.867" y="328.571" fill="#666">conformityCertificate:</text><text style="font:300 14px 'Lucida Console',monospace" x="716.4" y="328.571" fill="#02b57b">SecureLink</text><text style="font:300 14px 'Lucida Console',monospace" x="526.867" y="342.571" fill="#666">auditableEvidence:</text><text style="font:300 14px 'Lucida Console',monospace" x="682.667" y="342.571" fill="#02b57b">SecureLink</text><text style="font:300 14px 'Lucida Console',monospace" x="526.867" y="356.571" fill="#000000">scope:</text><text style="font:300 14px 'Lucida Console',monospace" x="581.467" y="356.571" fill="#3397DA">ConformityAssessmentScheme</text><text style="font:300 14px 'Lucida Console',monospace" x="526.867" y="370.571" fill="#000000">assessment:</text><text style="font:300 14px 'Lucida Console',monospace" x="623.633" y="370.571" fill="#3397DA">ConformityAssessment[]</text><path fill="#FFFFFF" stroke="#3397DA" stroke-width="3" d="M988.484 230.379h317.333v122H988.484z"/><path fill="#3397da" stroke="#3397da" d="M989.484 271.379h317.334"/><path fill="none" stroke="#3397DA" stroke-width="3" d="M988.484 230.379h317.333v122H988.484z"/><text style="font:700 16px 'Lucida Console',monospace" x="998.484" y="248.379" fill="#000000">ConformityAssessmentScheme</text><text style="font:300 14px 'Lucida Console',monospace" x="998.484" y="264.379" fill="#999">＜＜untp.Standard＞＞</text><text style="font:300 14px 'Lucida Console',monospace" x="1015.351" y="288.379" fill="#666">id:</text><text style="font:300 14px 'Lucida Console',monospace" x="1044.651" y="288.379" fill="#C9A30B">URI</text><text style="font:300 14px 'Lucida Console',monospace" x="1015.351" y="302.379" fill="#666">name:</text><text style="font:300 14px 'Lucida Console',monospace" x="1061.518" y="302.379" fill="#02b57b">Text</text><text style="font:700 14px 'Lucida Console',monospace" x="998.484" y="316.379" fill="#666">* issuingParty:</text><text style="font:300 14px 'Lucida Console',monospace" x="1128.984" y="316.379" fill="#02b57b">Party</text><text style="font:300 14px 'Lucida Console',monospace" x="1015.351" y="330.379" fill="#666">issueDate:</text><text style="font:300 14px 'Lucida Console',monospace" x="1103.684" y="330.379" fill="#02b57b">Date</text><text style="font:300 14px 'Lucida Console',monospace" x="1015.351" y="344.379" fill="#000000">trustmark:</text><text style="font:300 14px 'Lucida Console',monospace" x="1103.684" y="344.379" fill="#547000">untp.BinaryFile</text><path fill="#FFFFFF" stroke="#3397DA" stroke-width="3" d="M496.397 424.093H909.03v248H496.397z"/><path fill="#3397da" stroke="#3397da" d="M497.397 465.093H910.03"/><path fill="none" stroke="#3397DA" stroke-width="3" d="M496.397 424.093H909.03v248H496.397z"/><text style="font:700 16px 'Lucida Console',monospace" x="506.397" y="442.093" fill="#000000">ConformityAssessment</text><text style="font:300 14px 'Lucida Console',monospace" x="506.397" y="458.093" fill="#999">＜＜untp.Declaration＞＞</text><text style="font:300 14px 'Lucida Console',monospace" x="523.263" y="482.093" fill="#666">description:</text><text style="font:300 14px 'Lucida Console',monospace" x="628.463" y="482.093" fill="#02b57b">Text</text><text style="font:300 14px 'Lucida Console',monospace" x="523.263" y="496.093" fill="#666">assessmentDate:</text><text style="font:300 14px 'Lucida Console',monospace" x="653.763" y="496.093" fill="#02b57b">Date</text><text style="font:700 14px 'Lucida Console',monospace" x="506.397" y="510.093" fill="#000000">* id:</text><text style="font:300 14px 'Lucida Console',monospace" x="552.563" y="510.093" fill="#C9A30B">URI</text><text style="font:300 14px 'Lucida Console',monospace" x="523.263" y="524.093" fill="#000000">name:</text><text style="font:300 14px 'Lucida Console',monospace" x="569.43" y="524.093" fill="#02b57b">Text</text><text style="font:300 14px 'Lucida Console',monospace" x="523.263" y="538.093" fill="#000000">referenceStandard:</text><text style="font:300 14px 'Lucida Console',monospace" x="679.063" y="538.093" fill="#547000">untp.Standard</text><text style="font:300 14px 'Lucida Console',monospace" x="523.263" y="552.093" fill="#000000">referenceRegulation:</text><text style="font:300 14px 'Lucida Console',monospace" x="695.93" y="552.093" fill="#547000">untp.Regulation</text><text style="font:300 14px 'Lucida Console',monospace" x="523.263" y="566.093" fill="#000000">assessmentCriteria:</text><text style="font:300 14px 'Lucida Console',monospace" x="687.497" y="566.093" fill="#547000">untp.Criterion[]</text><text style="font:300 14px 'Lucida Console',monospace" x="523.263" y="580.093" fill="#000000">declaredValue:</text><text style="font:300 14px 'Lucida Console',monospace" x="645.33" y="580.093" fill="#547000">untp.Metric[]</text><text style="font:700 14px 'Lucida Console',monospace" x="506.397" y="594.093" fill="#000000">* conformance:</text><text style="font:300 14px 'Lucida Console',monospace" x="628.463" y="594.093" fill="#547000">Indicator</text><text style="font:700 14px 'Lucida Console',monospace" x="506.397" y="608.093" fill="#000000">* conformityTopic:</text><text style="font:300 14px 'Lucida Console',monospace" x="662.197" y="608.093" fill="#547000">Code(conformityTopicCode)</text><text style="font:300 14px 'Lucida Console',monospace" x="523.263" y="622.093" fill="#000000">assessedProduct:</text><text style="font:300 14px 'Lucida Console',monospace" x="662.197" y="622.093" fill="#2ECB70">ProductVerification[]</text><text style="font:300 14px 'Lucida Console',monospace" x="523.263" y="636.093" fill="#000000">assessedFacility:</text><text style="font:300 14px 'Lucida Console',monospace" x="670.63" y="636.093" fill="#2ECB70">FacilityVerification[]</text><text style="font:300 14px 'Lucida Console',monospace" x="523.263" y="650.093" fill="#000000">assessedOrganisation:</text><text style="font:300 14px 'Lucida Console',monospace" x="704.363" y="650.093" fill="#547000">untp.Party</text><text style="font:300 14px 'Lucida Console',monospace" x="523.263" y="664.093" fill="#000000">auditor:</text><text style="font:300 14px 'Lucida Console',monospace" x="594.73" y="664.093" fill="#547000">untp.Party</text><path fill="#FFFFFF" stroke="#2ECB70" stroke-width="3" d="M165.806 635.202h244.833v64H165.806z"/><path fill="#2ecb70" stroke="#2ecb70" d="M166.806 660.202H411.64"/><path fill="none" stroke="#2ECB70" stroke-width="3" d="M165.806 635.202h244.833v64H165.806z"/><text style="font:700 16px 'Lucida Console',monospace" x="175.806" y="653.202" fill="#000000">ProductVerification</text><text style="font:300 14px 'Lucida Console',monospace" x="175.806" y="677.202" fill="#000000">product:</text><text style="font:300 14px 'Lucida Console',monospace" x="247.273" y="677.202" fill="#547000">untp.Product</text><text style="font:300 14px 'Lucida Console',monospace" x="175.806" y="691.202" fill="#000000">IDverifiedByCAB:</text><text style="font:300 14px 'Lucida Console',monospace" x="314.739" y="691.202" fill="#02b57b">Indicator</text><path fill="#FFFFFF" stroke="#2ECB70" stroke-width="3" d="M165.004 355.151h244.833v64H165.004z"/><path fill="#2ecb70" stroke="#2ecb70" d="M166.004 380.151h244.834"/><path fill="none" stroke="#2ECB70" stroke-width="3" d="M165.004 355.151h244.833v64H165.004z"/><text style="font:700 16px 'Lucida Console',monospace" x="175.004" y="373.151" fill="#000000">FacilityVerification</text><text style="font:300 14px 'Lucida Console',monospace" x="175.004" y="397.151" fill="#000000">facility:</text><text style="font:300 14px 'Lucida Console',monospace" x="254.904" y="397.151" fill="#547000">untp.Facility</text><text style="font:300 14px 'Lucida Console',monospace" x="175.004" y="411.151" fill="#000000">IDverifiedByCAB:</text><text style="font:300 14px 'Lucida Console',monospace" x="313.938" y="411.151" fill="#02b57b">Indicator</text><path fill="#FFFFFF" stroke="#aabbccdd" stroke-width="3" d="M1023.302-5.714h231.967v78h-231.967z"/><path fill="#aabbccdd" stroke="#aabbccdd" d="M1024.302 19.286h231.967"/><path fill="none" stroke="#aabbccdd" stroke-width="3" d="M1023.302-5.714h231.967v78h-231.967z"/><text style="font:700 16px 'Lucida Console',monospace" x="1033.302" y="12.286" fill="#000000">untp.BinaryFile</text><text style="font:300 14px 'Lucida Console',monospace" x="1033.302" y="36.286" fill="#000000">fileName:</text><text style="font:300 14px 'Lucida Console',monospace" x="1113.202" y="36.286" fill="#02b57b">Text</text><text style="font:300 14px 'Lucida Console',monospace" x="1033.302" y="50.286" fill="#000000">fileType:</text><text style="font:300 14px 'Lucida Console',monospace" x="1113.202" y="50.286" fill="#530abb">Code(mimeType)</text><text style="font:300 14px 'Lucida Console',monospace" x="1033.302" y="64.286" fill="#000000">file:</text><text style="font:300 14px 'Lucida Console',monospace" x="1079.469" y="64.286" fill="#02b57b">Base64</text><path fill="#FFFFFF" stroke="#aabbccdd" stroke-width="3" d="M1050 408.571h212.867v92H1050z"/><path fill="#aabbccdd" stroke="#aabbccdd" d="M1051 433.571h212.867"/><path fill="none" stroke="#aabbccdd" stroke-width="3" d="M1050 408.571h212.867v92H1050z"/><text style="font:700 16px 'Lucida Console',monospace" x="1060" y="426.571" fill="#000000">untp.Standard</text><text style="font:300 14px 'Lucida Console',monospace" x="1076.867" y="450.571" fill="#000000">id:</text><text style="font:300 14px 'Lucida Console',monospace" x="1106.167" y="450.571" fill="#C9A30B">URI</text><text style="font:300 14px 'Lucida Console',monospace" x="1076.867" y="464.571" fill="#000000">name:</text><text style="font:300 14px 'Lucida Console',monospace" x="1123.033" y="464.571" fill="#02b57b">Text</text><text style="font:700 14px 'Lucida Console',monospace" x="1060" y="478.571" fill="#000000">* issuingParty:</text><text style="font:300 14px 'Lucida Console',monospace" x="1190.5" y="478.571" fill="#02b57b">Party</text><text style="font:300 14px 'Lucida Console',monospace" x="1076.867" y="492.571" fill="#000000">issueDate:</text><text style="font:300 14px 'Lucida Console',monospace" x="1165.2" y="492.571" fill="#02b57b">Date</text><path fill="#aabbccdd" stroke="#EEEEEE" stroke-width="3" d="M1156.433 494.571l-12 22 12-2h0l12 2-12-22"/><path fill="#aabbccdd" stroke="#EEEEEE" stroke-width="3" d="M1156.433 494.571l-12 22 12-2h0l12 2-12-22"/><path fill="#aabbccdd" stroke="#aabbccdd" stroke-width="3" d="M1156.433 506.571v25.5"/><path fill="#FFFFFF" stroke="#aabbccdd" stroke-width="3" d="M950 658.571h370.9v106H950z"/><path fill="#aabbccdd" stroke="#aabbccdd" d="M951 683.571h370.9"/><path fill="none" stroke="#aabbccdd" stroke-width="3" d="M950 658.571h370.9v106H950z"/><text style="font:700 16px 'Lucida Console',monospace" x="960" y="676.571" fill="#000000">untp.Regulation</text><text style="font:300 14px 'Lucida Console',monospace" x="976.867" y="700.571" fill="#000000">id:</text><text style="font:300 14px 'Lucida Console',monospace" x="1006.167" y="700.571" fill="#C9A30B">URI</text><text style="font:300 14px 'Lucida Console',monospace" x="976.867" y="714.571" fill="#000000">name:</text><text style="font:300 14px 'Lucida Console',monospace" x="1023.033" y="714.571" fill="#02b57b">Text</text><text style="font:300 14px 'Lucida Console',monospace" x="976.867" y="728.571" fill="#000000">jurisdictionCountry:</text><text style="font:300 14px 'Lucida Console',monospace" x="1149.533" y="728.571" fill="#530abb">Code(countryCode)</text><text style="font:700 14px 'Lucida Console',monospace" x="960" y="742.571" fill="#000000">* administeredBy:</text><text style="font:300 14px 'Lucida Console',monospace" x="1107.367" y="742.571" fill="#02b57b">Party</text><text style="font:300 14px 'Lucida Console',monospace" x="976.867" y="756.571" fill="#000000">effectiveDate:</text><text style="font:300 14px 'Lucida Console',monospace" x="1098.933" y="756.571" fill="#02b57b">Date</text><path fill="#FFFFFF" stroke="#aabbccdd" stroke-width="3" d="M718.898 796.571h416.633v162H718.898z"/><path fill="#aabbccdd" stroke="#aabbccdd" d="M719.898 821.571h416.633"/><path fill="none" stroke="#aabbccdd" stroke-width="3" d="M718.898 796.571h416.633v162H718.898z"/><text style="font:700 16px 'Lucida Console',monospace" x="728.898" y="814.571" fill="#000000">untp.Criterion</text><text style="font:700 14px 'Lucida Console',monospace" x="728.898" y="838.571" fill="#000000">* id:</text><text style="font:300 14px 'Lucida Console',monospace" x="775.064" y="838.571" fill="#C9A30B">URI</text><text style="font:700 14px 'Lucida Console',monospace" x="728.898" y="852.571" fill="#000000">* name:</text><text style="font:300 14px 'Lucida Console',monospace" x="791.931" y="852.571" fill="#02b57b">Text</text><text style="font:700 14px 'Lucida Console',monospace" x="728.898" y="866.571" fill="#000000">* description:</text><text style="font:300 14px 'Lucida Console',monospace" x="850.964" y="866.571" fill="#02b57b">Text</text><text style="font:700 14px 'Lucida Console',monospace" x="728.898" y="880.571" fill="#000000">* conformityTopic:</text><text style="font:300 14px 'Lucida Console',monospace" x="884.698" y="880.571" fill="#530abb">Code(conformityTopicCode)</text><text style="font:700 14px 'Lucida Console',monospace" x="728.898" y="894.571" fill="#000000">* status:</text><text style="font:300 14px 'Lucida Console',monospace" x="808.798" y="894.571" fill="#530abb">Code(statusCode)</text><text style="font:300 14px 'Lucida Console',monospace" x="745.764" y="908.571" fill="#000000">subCriterion:</text><text style="font:300 14px 'Lucida Console',monospace" x="859.398" y="908.571" fill="#02b57b">Criterion[]</text><text style="font:300 14px 'Lucida Console',monospace" x="745.764" y="922.571" fill="#000000">thresholdValue:</text><text style="font:300 14px 'Lucida Console',monospace" x="876.264" y="922.571" fill="#02b57b">Metric</text><text style="font:300 14px 'Lucida Console',monospace" x="745.764" y="936.571" fill="#000000">performanceLevel:</text><text style="font:300 14px 'Lucida Console',monospace" x="893.131" y="936.571" fill="#02b57b">Text</text><text style="font:300 14px 'Lucida Console',monospace" x="745.764" y="950.571" fill="#000000">tags:</text><text style="font:300 14px 'Lucida Console',monospace" x="791.931" y="950.571" fill="#02b57b">Text</text><path fill="#FFFFFF" stroke="#aabbccdd" stroke-width="3" d="M377.69 814.79h219.1v92h-219.1z"/><path fill="#aabbccdd" stroke="#aabbccdd" d="M378.69 839.79h219.1"/><path fill="none" stroke="#aabbccdd" stroke-width="3" d="M377.69 814.79h219.1v92h-219.1z"/><text style="font:700 16px 'Lucida Console',monospace" x="387.69" y="832.79" fill="#000000">untp.Metric</text><text style="font:700 14px 'Lucida Console',monospace" x="387.69" y="856.79" fill="#000000">* metricName:</text><text style="font:300 14px 'Lucida Console',monospace" x="501.323" y="856.79" fill="#02b57b">Text</text><text style="font:700 14px 'Lucida Console',monospace" x="387.69" y="870.79" fill="#000000">* metricValue:</text><text style="font:300 14px 'Lucida Console',monospace" x="509.756" y="870.79" fill="#02b57b">Measure</text><text style="font:300 14px 'Lucida Console',monospace" x="404.556" y="884.79" fill="#000000">score:</text><text style="font:300 14px 'Lucida Console',monospace" x="459.156" y="884.79" fill="#02b57b">Text</text><text style="font:300 14px 'Lucida Console',monospace" x="404.556" y="898.79" fill="#000000">accuracy:</text><text style="font:300 14px 'Lucida Console',monospace" x="484.456" y="898.79" fill="#02b57b">Numeric</text></svg>