<svg xmlns="http://www.w3.org/2000/svg" viewBox="-35.714 -88 1193.862 998"><rect width="1000%" height="1000%" x="-500%" y="-500%" fill="#EEEEEE"/><path fill="none" stroke="#EEEEEE" stroke-width="8" d="M425.115 212.867l-.01-.01h-318.46V226"/><defs><linearGradient id="a" x1="100%" x2="50%" y1="100%" y2="50%"><stop offset="0%" stop-color="#3397DA"/><stop offset="100%" stop-color="#aabbccdd"/></linearGradient></defs><path fill="none" stroke="url(#a)" stroke-width="3" d="M425.115 212.867l-.01-.01h-318.46V226"/><path fill="none" stroke="#EEEEEE" stroke-width="8" d="M616.475 267.867l-.01-.01H939.36v-13.143"/><defs><linearGradient id="b" x1="0%" x2="50%" y1="0%" y2="50%"><stop offset="0%" stop-color="#3397DA"/><stop offset="100%" stop-color="#aabbccdd"/></linearGradient></defs><path fill="none" stroke="url(#b)" stroke-width="3" d="M616.475 267.867l-.01-.01H939.36v-13.143"/><path fill="none" stroke="#EEEEEE" stroke-width="8" d="M642.155 563.534l-.01-.01h305.5v-93.238"/><defs><linearGradient id="c" x1="0%" x2="50%" y1="0%" y2="50%"><stop offset="0%" stop-color="#3397DA"/><stop offset="100%" stop-color="#aabbccdd"/></linearGradient></defs><path fill="none" stroke="url(#c)" stroke-width="3" d="M642.155 563.534l-.01-.01h305.5v-93.238"/><path fill="none" stroke="#EEEEEE" stroke-width="8" d="M578.225 590.867l-.01-.01h363.002v105"/><defs><linearGradient id="d" x1="0%" x2="50%" y1="0%" y2="50%"><stop offset="0%" stop-color="#3397DA"/><stop offset="100%" stop-color="#aabbccdd"/></linearGradient></defs><path fill="none" stroke="url(#d)" stroke-width="3" d="M578.225 590.867l-.01-.01h363.002v105"/><path fill="none" stroke="#EEEEEE" stroke-width="8" d="M386.437 536.2l-.01-.01H133.859v-74.333"/><defs><linearGradient id="e" x1="100%" x2="50%" y1="100%" y2="50%"><stop offset="0%" stop-color="#3397DA"/><stop offset="100%" stop-color="#aabbccdd"/></linearGradient></defs><path fill="none" stroke="url(#e)" stroke-width="3" d="M386.437 536.2l-.01-.01H133.859v-74.333"/><path fill="none" stroke="url(#e)" stroke-width="1.5" d="M153.869 521.367l-2.01-.01v8h2M157.869 521.367l1.99-.01v8h-2"/><path fill="none" stroke="#EEEEEE" stroke-width="8" d="M450.366 563.534l-.01-.01H141.93v101.19"/><defs><linearGradient id="f" x1="0%" x2="50%" y1="0%" y2="50%"><stop offset="0%" stop-color="#3397DA"/><stop offset="100%" stop-color="#aabbccdd"/></linearGradient></defs><path fill="none" stroke="url(#f)" stroke-width="3" d="M450.366 563.534l-.01-.01H141.93v101.19"/><path fill="none" stroke="url(#f)" stroke-width="1.5" d="M161.94 605.224l-2.01-.01v8h2M165.94 605.224l1.99-.01v8h-2"/><path fill="none" stroke="#EEEEEE" stroke-width="8" d="M514.296 618.2l-.01-.01V810h-16.069"/><defs><linearGradient id="g" x1="0%" x2="50%" y1="0%" y2="50%"><stop offset="0%" stop-color="#3397DA"/><stop offset="100%" stop-color="#aabbccdd"/></linearGradient></defs><path fill="none" stroke="url(#g)" stroke-width="3" d="M514.296 618.2l-.01-.01V810h-16.069"/><path fill="none" stroke="#EEEEEE" stroke-width="8" d="M507.793.01l-.01-.01v267.857h13.002"/><defs><linearGradient id="h" x1="0%" x2="50%" y1="0%" y2="50%"><stop offset="0%" stop-color="#3397DA"/><stop offset="100%" stop-color="#3397DA"/></linearGradient></defs><path fill="none" stroke="url(#h)" stroke-width="3" d="M507.793.01l-.01-.01v267.857h13.002"/><path fill="none" stroke="#EEEEEE" stroke-width="8" d="M520.795 322.867l-.01-.01v268h-6.5"/><defs><linearGradient id="i" x1="0%" x2="50%" y1="0%" y2="50%"><stop offset="0%" stop-color="#3397DA"/><stop offset="100%" stop-color="#3397DA"/></linearGradient></defs><path fill="none" stroke="url(#i)" stroke-width="3" d="M520.795 322.867l-.01-.01v268h-6.5"/><path fill="none" stroke="url(#i)" stroke-width="1.5" d="M540.795 488.367l-2.01-.01v8h2M544.795 488.367l1.99-.01v8h-2"/><path fill="#FFFFFF" stroke="#3397DA" stroke-width="3" d="M357.424-68h300.718V68H357.424z"/><path fill="#3397da" stroke="#3397da" d="M358.424-27h300.718"/><path fill="none" stroke="#3397DA" stroke-width="3" d="M357.424-68h300.718V68H357.424z"/><text x="367.424" y="-50" style="font:700 16px 'Lucida Console',monospace" fill="#000000">DigitalFacilityRecord</text><text x="367.424" y="-34" style="font:500 14px 'Lucida Console',monospace" fill="#999">＜＜untp.VerifiableCredential＞＞</text><text x="367.424" y="-10" style="font:500 14px 'Lucida Console',monospace" fill="#666">@context:</text><text x="447.282" y="-10" style="font:500 14px 'Lucida Console',monospace" fill="#02b57b">Text[]</text><text x="367.424" y="4" style="font:500 14px 'Lucida Console',monospace" fill="#666">id:</text><text x="396.71" y="4" style="font:500 14px 'Lucida Console',monospace" fill="#C9A30B">URI</text><text x="367.424" y="18" style="font:500 14px 'Lucida Console',monospace" fill="#666">issuer:</text><text x="430.425" y="18" style="font:500 14px 'Lucida Console',monospace" fill="#02b57b">CredentialIssuer</text><text x="367.424" y="32" style="font:500 14px 'Lucida Console',monospace" fill="#666">validFrom:</text><text x="455.711" y="32" style="font:500 14px 'Lucida Console',monospace" fill="#02b57b">DateTime</text><text x="367.424" y="46" style="font:500 14px 'Lucida Console',monospace" fill="#666">validUntil:</text><text x="464.14" y="46" style="font:500 14px 'Lucida Console',monospace" fill="#02b57b">DateTime</text><text x="367.424" y="60" style="font:500 14px 'Lucida Console',monospace" fill="#000000">credentialSubject:</text><text x="523.141" y="60" style="font:500 14px 'Lucida Console',monospace" fill="#3397DA">Facility</text><path fill="#FFFFFF" stroke="#3397DA" stroke-width="3" d="M329.425 157.857h382.72v220h-382.72z"/><path fill="#3397da" stroke="#3397da" d="M330.425 198.857h382.72"/><path fill="none" stroke="#3397DA" stroke-width="3" d="M329.425 157.857h382.72v220h-382.72z"/><text x="339.425" y="175.857" style="font:700 16px 'Lucida Console',monospace" fill="#000000">Facility</text><text x="339.425" y="191.857" style="font:500 14px 'Lucida Console',monospace" fill="#999">＜＜untp.Facility＞＞</text><text x="339.425" y="215.857" style="font:500 14px 'Lucida Console',monospace" fill="#000000">id:</text><text x="368.711" y="215.857" style="font:500 14px 'Lucida Console',monospace" fill="#C9A30B">URI</text><text x="339.425" y="229.857" style="font:500 14px 'Lucida Console',monospace" fill="#000000">registeredId:</text><text x="452.999" y="229.857" style="font:500 14px 'Lucida Console',monospace" fill="#547000">Text</text><text x="339.425" y="243.857" style="font:500 14px 'Lucida Console',monospace" fill="#000000">description:</text><text x="444.57" y="243.857" style="font:500 14px 'Lucida Console',monospace" fill="#547000">Text</text><text x="339.425" y="257.857" style="font:500 14px 'Lucida Console',monospace" fill="#000000">name:</text><text x="385.569" y="257.857" style="font:500 14px 'Lucida Console',monospace" fill="#547000">Text</text><text x="339.425" y="271.857" style="font:500 14px 'Lucida Console',monospace" fill="#000000">idScheme:</text><text x="419.284" y="271.857" style="font:500 14px 'Lucida Console',monospace" fill="#547000">untp.IdentifierScheme</text><text x="339.425" y="285.857" style="font:500 14px 'Lucida Console',monospace" fill="#000000">countryOfOperation:</text><text x="503.571" y="285.857" style="font:500 14px 'Lucida Console',monospace" fill="#547000">Code(countryCode)</text><text x="339.425" y="299.857" style="font:500 14px 'Lucida Console',monospace" fill="#000000">processCategories:</text><text x="495.142" y="299.857" style="font:500 14px 'Lucida Console',monospace" fill="#547000">untp.Classification[]</text><text x="339.425" y="313.857" style="font:500 14px 'Lucida Console',monospace" fill="#000000">operatedByParty:</text><text x="478.285" y="313.857" style="font:500 14px 'Lucida Console',monospace" fill="#547000">untp.Entity</text><text x="339.425" y="327.857" style="font:500 14px 'Lucida Console',monospace" fill="#000000">otherIdentifiers:</text><text x="486.713" y="327.857" style="font:500 14px 'Lucida Console',monospace" fill="#547000">untp.Entity[]</text><text x="339.425" y="341.857" style="font:500 14px 'Lucida Console',monospace" fill="#000000">address:</text><text x="410.855" y="341.857" style="font:500 14px 'Lucida Console',monospace" fill="#547000">untp.Address</text><text x="339.425" y="355.857" style="font:500 14px 'Lucida Console',monospace" fill="#000000">locationInformation:</text><text x="512" y="355.857" style="font:500 14px 'Lucida Console',monospace" fill="#547000">untp.Location</text><text x="339.425" y="369.857" style="font:500 14px 'Lucida Console',monospace" fill="#000000">conformityDeclarations:</text><text x="537.286" y="369.857" style="font:500 14px 'Lucida Console',monospace" fill="#3397DA">Declaration[]</text><path fill="#FFFFFF" stroke="#3397DA" stroke-width="3" d="M322.497 508.857h383.577v164H322.497z"/><path fill="#3397da" stroke="#3397da" d="M323.497 549.857h383.577"/><path fill="none" stroke="#3397DA" stroke-width="3" d="M322.497 508.857h383.577v164H322.497z"/><text x="332.497" y="526.857" style="font:700 16px 'Lucida Console',monospace" fill="#000000">Declaration</text><text x="332.497" y="542.857" style="font:500 14px 'Lucida Console',monospace" fill="#999">＜＜untp.Declaration＞＞</text><text x="332.497" y="566.857" style="font:500 14px 'Lucida Console',monospace" fill="#000000">id:</text><text x="361.783" y="566.857" style="font:500 14px 'Lucida Console',monospace" fill="#C9A30B">URI</text><text x="332.497" y="580.857" style="font:500 14px 'Lucida Console',monospace" fill="#000000">referenceStandard:</text><text x="488.214" y="580.857" style="font:500 14px 'Lucida Console',monospace" fill="#547000">untp.Standard</text><text x="332.497" y="594.857" style="font:500 14px 'Lucida Console',monospace" fill="#000000">referenceRegulation:</text><text x="505.071" y="594.857" style="font:500 14px 'Lucida Console',monospace" fill="#547000">untp.Regulation</text><text x="332.497" y="608.857" style="font:500 14px 'Lucida Console',monospace" fill="#000000">assessmentCriteria:</text><text x="496.643" y="608.857" style="font:500 14px 'Lucida Console',monospace" fill="#547000">untp.Criterion[]</text><text x="332.497" y="622.857" style="font:500 14px 'Lucida Console',monospace" fill="#000000">declaredValues:</text><text x="462.928" y="622.857" style="font:500 14px 'Lucida Console',monospace" fill="#547000">untp.Metric[]</text><text x="332.497" y="636.857" style="font:500 14px 'Lucida Console',monospace" fill="#000000">compliance:</text><text x="429.213" y="636.857" style="font:500 14px 'Lucida Console',monospace" fill="#547000">Indicator</text><text x="332.497" y="650.857" style="font:500 14px 'Lucida Console',monospace" fill="#000000">conformityTopic:</text><text x="471.357" y="650.857" style="font:500 14px 'Lucida Console',monospace" fill="#547000">Code(conformityTopicCode)</text><text x="332.497" y="664.857" style="font:500 14px 'Lucida Console',monospace" fill="#000000">conformityEvidence:</text><text x="496.643" y="664.857" style="font:500 14px 'Lucida Console',monospace" fill="#547000">untp.SecureLink</text><path fill="#FFFFFF" stroke="#aabbccdd" stroke-width="3" d="M-15.714 180h244.718v92H-15.714z"/><path fill="#aabbccdd" stroke="#aabbccdd" d="M-14.714 205h244.717"/><path fill="none" stroke="#aabbccdd" stroke-width="3" d="M-15.714 180h244.718v92H-15.714z"/><text x="-5.714" y="198" style="font:700 16px 'Lucida Console',monospace" fill="#000000">untp.Entity</text><text x="-5.714" y="222" style="font:500 14px 'Lucida Console',monospace" fill="#000000">id:</text><text x="23.572" y="222" style="font:500 14px 'Lucida Console',monospace" fill="#C9A30B">URI</text><text x="-5.714" y="236" style="font:500 14px 'Lucida Console',monospace" fill="#000000">name:</text><text x="40.429" y="236" style="font:500 14px 'Lucida Console',monospace" fill="#02b57b">Text</text><text x="-5.714" y="250" style="font:500 14px 'Lucida Console',monospace" fill="#000000">registeredId:</text><text x="107.859" y="250" style="font:500 14px 'Lucida Console',monospace" fill="#02b57b">Text</text><text x="-5.714" y="264" style="font:500 14px 'Lucida Console',monospace" fill="#000000">idScheme:</text><text x="74.144" y="264" style="font:500 14px 'Lucida Console',monospace" fill="#02b57b">IdentifierScheme</text><path fill="#FFFFFF" stroke="#aabbccdd" stroke-width="3" d="M808.571 222.714h261.575v64H808.571z"/><path fill="#aabbccdd" stroke="#aabbccdd" d="M809.571 247.714h261.576"/><path fill="none" stroke="#aabbccdd" stroke-width="3" d="M808.571 222.714h261.575v64H808.571z"/><text x="818.571" y="240.714" style="font:700 16px 'Lucida Console',monospace" fill="#000000">untp.Location</text><text x="818.571" y="264.714" style="font:500 14px 'Lucida Console',monospace" fill="#000000">geoLocation:</text><text x="923.716" y="264.714" style="font:500 14px 'Lucida Console',monospace" fill="#547000">geojson.Point</text><text x="818.571" y="278.714" style="font:500 14px 'Lucida Console',monospace" fill="#000000">geoBoundary:</text><text x="923.716" y="278.714" style="font:500 14px 'Lucida Console',monospace" fill="#547000">geojson.Polygon</text><path fill="#FFFFFF" stroke="#aabbccdd" stroke-width="3" d="M848.571 424.286h198.146v92H848.571z"/><path fill="#aabbccdd" stroke="#aabbccdd" d="M849.571 449.286h198.146"/><path fill="none" stroke="#aabbccdd" stroke-width="3" d="M848.571 424.286h198.146v92H848.571z"/><text x="858.571" y="442.286" style="font:700 16px 'Lucida Console',monospace" fill="#000000">untp.Standard</text><text x="858.571" y="466.286" style="font:500 14px 'Lucida Console',monospace" fill="#000000">id:</text><text x="887.858" y="466.286" style="font:500 14px 'Lucida Console',monospace" fill="#C9A30B">URI</text><text x="858.571" y="480.286" style="font:500 14px 'Lucida Console',monospace" fill="#000000">name:</text><text x="904.715" y="480.286" style="font:500 14px 'Lucida Console',monospace" fill="#02b57b">Text</text><text x="858.571" y="494.286" style="font:500 14px 'Lucida Console',monospace" fill="#000000">issuingParty:</text><text x="972.145" y="494.286" style="font:500 14px 'Lucida Console',monospace" fill="#02b57b">Entity</text><text x="858.571" y="508.286" style="font:500 14px 'Lucida Console',monospace" fill="#000000">issueDate:</text><text x="946.859" y="508.286" style="font:500 14px 'Lucida Console',monospace" fill="#02b57b">Date</text><path fill="#FFFFFF" stroke="#aabbccdd" stroke-width="3" d="M764.286 642.857h353.862v106H764.286z"/><path fill="#aabbccdd" stroke="#aabbccdd" d="M765.286 667.857h353.862"/><path fill="none" stroke="#aabbccdd" stroke-width="3" d="M764.286 642.857h353.862v106H764.286z"/><text x="774.286" y="660.857" style="font:700 16px 'Lucida Console',monospace" fill="#000000">untp.Regulation</text><text x="774.286" y="684.857" style="font:500 14px 'Lucida Console',monospace" fill="#000000">id:</text><text x="803.572" y="684.857" style="font:500 14px 'Lucida Console',monospace" fill="#C9A30B">URI</text><text x="774.286" y="698.857" style="font:500 14px 'Lucida Console',monospace" fill="#000000">name:</text><text x="820.429" y="698.857" style="font:500 14px 'Lucida Console',monospace" fill="#02b57b">Text</text><text x="774.286" y="712.857" style="font:500 14px 'Lucida Console',monospace" fill="#000000">jurisdictionCountry:</text><text x="946.86" y="712.857" style="font:500 14px 'Lucida Console',monospace" fill="#530abb">Code(countryCode)</text><text x="774.286" y="726.857" style="font:500 14px 'Lucida Console',monospace" fill="#000000">administeredBy:</text><text x="904.716" y="726.857" style="font:500 14px 'Lucida Console',monospace" fill="#02b57b">Entity</text><text x="774.286" y="740.857" style="font:500 14px 'Lucida Console',monospace" fill="#000000">effectiveDate:</text><text x="896.288" y="740.857" style="font:500 14px 'Lucida Console',monospace" fill="#02b57b">Date</text><path fill="#FFFFFF" stroke="#aabbccdd" stroke-width="3" d="M15.714 422.857h236.289v78H15.714z"/><path fill="#aabbccdd" stroke="#aabbccdd" d="M16.714 447.857h236.29"/><path fill="none" stroke="#aabbccdd" stroke-width="3" d="M15.714 422.857h236.289v78H15.714z"/><text x="25.714" y="440.857" style="font:700 16px 'Lucida Console',monospace" fill="#000000">untp.Criterion</text><text x="25.714" y="464.857" style="font:500 14px 'Lucida Console',monospace" fill="#000000">id:</text><text x="55" y="464.857" style="font:500 14px 'Lucida Console',monospace" fill="#C9A30B">URI</text><text x="25.714" y="478.857" style="font:500 14px 'Lucida Console',monospace" fill="#000000">name:</text><text x="71.858" y="478.857" style="font:500 14px 'Lucida Console',monospace" fill="#02b57b">Text</text><text x="25.714" y="492.857" style="font:500 14px 'Lucida Console',monospace" fill="#000000">thresholdValues:</text><text x="164.574" y="492.857" style="font:500 14px 'Lucida Console',monospace" fill="#02b57b">Metric[]</text><path fill="#FFFFFF" stroke="#aabbccdd" stroke-width="3" d="M42.857 625.714h198.146v78H42.857z"/><path fill="#aabbccdd" stroke="#aabbccdd" d="M43.857 650.714h198.146"/><path fill="none" stroke="#aabbccdd" stroke-width="3" d="M42.857 625.714h198.146v78H42.857z"/><text x="52.857" y="643.714" style="font:700 16px 'Lucida Console',monospace" fill="#000000">untp.Metric</text><text x="52.857" y="667.714" style="font:500 14px 'Lucida Console',monospace" fill="#000000">metricName:</text><text x="149.573" y="667.714" style="font:500 14px 'Lucida Console',monospace" fill="#02b57b">Text</text><text x="52.857" y="681.714" style="font:500 14px 'Lucida Console',monospace" fill="#000000">metricValue:</text><text x="158.002" y="681.714" style="font:500 14px 'Lucida Console',monospace" fill="#02b57b">Measure</text><text x="52.857" y="695.714" style="font:500 14px 'Lucida Console',monospace" fill="#000000">accuracy:</text><text x="132.716" y="695.714" style="font:500 14px 'Lucida Console',monospace" fill="#02b57b">Numeric</text><path fill="#FFFFFF" stroke="#aabbccdd" stroke-width="3" d="M300 750h396.435v120H300z"/><path fill="#aabbccdd" stroke="#aabbccdd" d="M301 775h396.435"/><path fill="none" stroke="#aabbccdd" stroke-width="3" d="M300 750h396.435v120H300z"/><text x="310" y="768" style="font:700 16px 'Lucida Console',monospace" fill="#000000">untp.SecureLink</text><text x="310" y="792" style="font:500 14px 'Lucida Console',monospace" fill="#666">linkURL:</text><text x="381.43" y="792" style="font:500 14px 'Lucida Console',monospace" fill="#02b57b">URI</text><text x="310" y="806" style="font:500 14px 'Lucida Console',monospace" fill="#666">linkName:</text><text x="389.858" y="806" style="font:500 14px 'Lucida Console',monospace" fill="#02b57b">Text</text><text x="310" y="820" style="font:500 14px 'Lucida Console',monospace" fill="#666">linkType:</text><text x="389.858" y="820" style="font:500 14px 'Lucida Console',monospace" fill="#02b57b">Text</text><text x="310" y="834" style="font:500 14px 'Lucida Console',monospace" fill="#000000">hashDigest:</text><text x="406.716" y="834" style="font:500 14px 'Lucida Console',monospace" fill="#02b57b">Text</text><text x="310" y="848" style="font:500 14px 'Lucida Console',monospace" fill="#000000">hashMethod:</text><text x="406.716" y="848" style="font:500 14px 'Lucida Console',monospace" fill="#530abb">Code(hashMethodCode)</text><text x="310" y="862" style="font:500 14px 'Lucida Console',monospace" fill="#000000">encryptionMethod:</text><text x="457.288" y="862" style="font:500 14px 'Lucida Console',monospace" fill="#530abb">Code(encryptionMethodCode)</text></svg>