<svg xmlns="http://www.w3.org/2000/svg" viewBox="-211.883 -88 449.973 445.857"><rect width="1000%" height="1000%" x="-500%" y="-500%" fill="#EEEEEE"/><path fill="none" stroke="#EEEEEE" stroke-width="8" d="M20.867.01l-.01-.01v257.857H0"/><defs><linearGradient id="a" x1="0%" x2="50%" y1="0%" y2="50%"><stop offset="0%" stop-color="#3397DA"/><stop offset="100%" stop-color="#3397DA"/></linearGradient></defs><path fill="none" stroke="url(#a)" stroke-width="3" d="M20.867.01l-.01-.01v257.857H0"/><path fill="#FFFFFF" stroke="#3397DA" stroke-width="3" d="M-156.377-68H198.09V68h-354.467z"/><path fill="#3397da" stroke="#3397da" d="M-155.377-27H199.09"/><path fill="none" stroke="#3397DA" stroke-width="3" d="M-156.377-68H198.09V68h-354.467z"/><text style="font:700 16px 'Lucida Console',monospace" x="-146.377" y="-50" fill="#000000">DigitalIdentityAnchor</text><text style="font:300 14px 'Lucida Console',monospace" x="-146.377" y="-34" fill="#999">＜＜untp.VerifiableCredential＞＞</text><text style="font:700 14px 'Lucida Console',monospace" x="-146.377" y="-10" fill="#666">* @context:</text><text style="font:300 14px 'Lucida Console',monospace" x="-49.61" y="-10" fill="#02b57b">Text[]</text><text style="font:700 14px 'Lucida Console',monospace" x="-146.377" y="4" fill="#666">* id:</text><text style="font:300 14px 'Lucida Console',monospace" x="-100.21" y="4" fill="#C9A30B">URI</text><text style="font:700 14px 'Lucida Console',monospace" x="-146.377" y="18" fill="#666">* issuer:</text><text style="font:300 14px 'Lucida Console',monospace" x="-66.477" y="18" fill="#02b57b">CredentialIssuer</text><text style="font:300 14px 'Lucida Console',monospace" x="-129.51" y="32" fill="#666">validFrom:</text><text style="font:300 14px 'Lucida Console',monospace" x="-41.177" y="32" fill="#02b57b">DateTime</text><text style="font:300 14px 'Lucida Console',monospace" x="-129.51" y="46" fill="#666">validUntil:</text><text style="font:300 14px 'Lucida Console',monospace" x="-32.743" y="46" fill="#02b57b">DateTime</text><text style="font:300 14px 'Lucida Console',monospace" x="-129.51" y="60" fill="#000000">credentialSubject:</text><text style="font:300 14px 'Lucida Console',monospace" x="26.29" y="60" fill="#3397DA">RegisteredIdentity</text><path fill="#FFFFFF" stroke="#3397DA" stroke-width="3" d="M-191.883 197.857h383.767v120h-383.767z"/><path fill="#3397da" stroke="#3397da" d="M-190.883 222.857h383.766"/><path fill="none" stroke="#3397DA" stroke-width="3" d="M-191.883 197.857h383.767v120h-383.767z"/><text style="font:700 16px 'Lucida Console',monospace" x="-181.883" y="215.857" fill="#000000">RegisteredIdentity</text><text style="font:700 14px 'Lucida Console',monospace" x="-181.883" y="239.857" fill="#000000">* id:</text><text style="font:300 14px 'Lucida Console',monospace" x="-135.717" y="239.857" fill="#C9A30B">URI</text><text style="font:700 14px 'Lucida Console',monospace" x="-181.883" y="253.857" fill="#000000">* name:</text><text style="font:300 14px 'Lucida Console',monospace" x="-118.85" y="253.857" fill="#02b57b">Text</text><text style="font:300 14px 'Lucida Console',monospace" x="-165.017" y="267.857" fill="#000000">registeredId:</text><text style="font:300 14px 'Lucida Console',monospace" x="-51.383" y="267.857" fill="#02b57b">Text</text><text style="font:300 14px 'Lucida Console',monospace" x="-165.017" y="281.857" fill="#000000">idScheme:</text><text style="font:300 14px 'Lucida Console',monospace" x="-85.117" y="281.857" fill="#547000">untp.IdentifierScheme</text><text style="font:300 14px 'Lucida Console',monospace" x="-165.017" y="295.857" fill="#000000">registerType:</text><text style="font:300 14px 'Lucida Console',monospace" x="-51.383" y="295.857" fill="#530abb">Code(RegistryTypeCodeList)</text><text style="font:300 14px 'Lucida Console',monospace" x="-165.017" y="309.857" fill="#000000">registrationScopeList:</text><text style="font:300 14px 'Lucida Console',monospace" x="24.517" y="309.857" fill="#02b57b">URI[]</text></svg>