<svg xmlns="http://www.w3.org/2000/svg" viewBox="-203.36 -88 770.861 453.857"><rect width="1000%" height="1000%" x="-500%" y="-500%" fill="#EEEEEE"/><path fill="none" stroke="#EEEEEE" stroke-width="8" d="M77.106 22.677l-.01-.01h315.403V137.57"/><defs><linearGradient id="a" x1="0%" x2="50%" y1="0%" y2="50%"><stop offset="0%" stop-color="#3397DA"/><stop offset="100%" stop-color="#aabbccdd"/></linearGradient></defs><path fill="none" stroke="url(#a)" stroke-width="3" d="M77.106 22.677l-.01-.01h315.403V137.57"/><path fill="none" stroke="#EEEEEE" stroke-width="8" d="M-35.372-22.657l-.01-.01v280.524H0"/><defs><linearGradient id="b" x1="0%" x2="50%" y1="0%" y2="50%"><stop offset="0%" stop-color="#3397DA"/><stop offset="100%" stop-color="#3397DA"/></linearGradient></defs><path fill="none" stroke="url(#b)" stroke-width="3" d="M-35.372-22.657l-.01-.01v280.524H0"/><path fill="#FFFFFF" stroke="#3397DA" stroke-width="3" d="M-147.86-68h337.434V68H-147.86z"/><path fill="#3397da" stroke="#3397da" d="M-146.86-27h337.433"/><path fill="none" stroke="#3397DA" stroke-width="3" d="M-147.86-68h337.434V68H-147.86z"/><text x="-137.86" y="-50" style="font:700 16px 'Lucida Console',monospace" fill="#000000">DigitalIdentityAnchor</text><text x="-137.86" y="-34" style="font:500 14px 'Lucida Console',monospace" fill="#999">＜＜untp.VerifiableCredential＞＞</text><text x="-137.86" y="-10" style="font:500 14px 'Lucida Console',monospace" fill="#000000">@context:</text><text x="-58.002" y="-10" style="font:500 14px 'Lucida Console',monospace" fill="#547000">Text[]</text><text x="-137.86" y="4" style="font:500 14px 'Lucida Console',monospace" fill="#000000">id:</text><text x="-108.574" y="4" style="font:500 14px 'Lucida Console',monospace" fill="#C9A30B">URI</text><text x="-137.86" y="18" style="font:500 14px 'Lucida Console',monospace" fill="#000000">issuer:</text><text x="-74.859" y="18" style="font:500 14px 'Lucida Console',monospace" fill="#547000">untp.CredentialIssuer</text><text x="-137.86" y="32" style="font:500 14px 'Lucida Console',monospace" fill="#000000">validFrom:</text><text x="-49.573" y="32" style="font:500 14px 'Lucida Console',monospace" fill="#547000">DateTime</text><text x="-137.86" y="46" style="font:500 14px 'Lucida Console',monospace" fill="#000000">validUntil:</text><text x="-41.144" y="46" style="font:500 14px 'Lucida Console',monospace" fill="#547000">DateTime</text><text x="-137.86" y="60" style="font:500 14px 'Lucida Console',monospace" fill="#000000">credentialSubject:</text><text x="17.857" y="60" style="font:500 14px 'Lucida Console',monospace" fill="#3397DA">RegisteredIdentity</text><path fill="#FFFFFF" stroke="#3397DA" stroke-width="3" d="M-183.36 189.857h366.72v136h-366.72z"/><path fill="#3397da" stroke="#3397da" d="M-182.36 230.857h366.72"/><path fill="none" stroke="#3397DA" stroke-width="3" d="M-183.36 189.857h366.72v136h-366.72z"/><text x="-173.36" y="207.857" style="font:700 16px 'Lucida Console',monospace" fill="#000000">RegisteredIdentity</text><text x="-173.36" y="223.857" style="font:500 14px 'Lucida Console',monospace" fill="#999">＜＜untp.Identifier＞＞</text><text x="-173.36" y="247.857" style="font:500 14px 'Lucida Console',monospace" fill="#000000">id:</text><text x="-144.074" y="247.857" style="font:500 14px 'Lucida Console',monospace" fill="#C9A30B">URI</text><text x="-173.36" y="261.857" style="font:500 14px 'Lucida Console',monospace" fill="#000000">name:</text><text x="-127.216" y="261.857" style="font:500 14px 'Lucida Console',monospace" fill="#547000">Text</text><text x="-173.36" y="275.857" style="font:500 14px 'Lucida Console',monospace" fill="#000000">registeredId:</text><text x="-59.787" y="275.857" style="font:500 14px 'Lucida Console',monospace" fill="#547000">Text</text><text x="-173.36" y="289.857" style="font:500 14px 'Lucida Console',monospace" fill="#000000">idScheme:</text><text x="-93.501" y="289.857" style="font:500 14px 'Lucida Console',monospace" fill="#547000">untp.IdentifierScheme</text><text x="-173.36" y="303.857" style="font:500 14px 'Lucida Console',monospace" fill="#000000">registerType:</text><text x="-59.787" y="303.857" style="font:500 14px 'Lucida Console',monospace" fill="#530abb">Code(RegistryTypeCodeList)</text><text x="-173.36" y="317.857" style="font:500 14px 'Lucida Console',monospace" fill="#000000">registrationScopeList:</text><text x="16.072" y="317.857" style="font:500 14px 'Lucida Console',monospace" fill="#02b57b">URI[]</text><path fill="#FFFFFF" stroke="#aabbccdd" stroke-width="3" d="M257.497 98.571h270.004v78H257.497z"/><path fill="#aabbccdd" stroke="#aabbccdd" d="M258.497 123.571h270.004"/><path fill="none" stroke="#aabbccdd" stroke-width="3" d="M257.497 98.571h270.004v78H257.497z"/><text x="267.497" y="116.571" style="font:700 16px 'Lucida Console',monospace" fill="#000000">untp.CredentialIssuer</text><text x="267.497" y="140.571" style="font:500 14px 'Lucida Console',monospace" fill="#000000">id:</text><text x="296.783" y="140.571" style="font:500 14px 'Lucida Console',monospace" fill="#C9A30B">URI</text><text x="267.497" y="154.571" style="font:500 14px 'Lucida Console',monospace" fill="#000000">name:</text><text x="313.641" y="154.571" style="font:500 14px 'Lucida Console',monospace" fill="#02b57b">Text</text><text x="267.497" y="168.571" style="font:500 14px 'Lucida Console',monospace" fill="#000000">otherIdentifier:</text><text x="406.357" y="168.571" style="font:500 14px 'Lucida Console',monospace" fill="#02b57b">Identifier[]</text></svg>