<svg xmlns="http://www.w3.org/2000/svg" viewBox="-151.289 -80 1338.72 1007.091"><rect width="1000%" height="1000%" x="-500%" y="-500%" fill="#EEEEEE"/><path fill="none" stroke="#EEEEEE" stroke-width="8" d="M399.167.01l-.01-.01v238.857h-.73"/><defs><linearGradient id="a" x1="0%" x2="50%" y1="0%" y2="50%"><stop offset="0%" stop-color="#3397DA"/><stop offset="100%" stop-color="#FF3986"/></linearGradient></defs><path fill="none" stroke="url(#a)" stroke-width="3" d="M399.167.01l-.01-.01v238.857h-.73"/><path fill="none" stroke="#EEEEEE" stroke-width="8" d="M475.152 215.117l-.01-.01h172.821v150.107"/><defs><linearGradient id="b" x1="0%" x2="50%" y1="0%" y2="50%"><stop offset="0%" stop-color="#FF3986"/><stop offset="100%" stop-color="#3397DA"/></linearGradient></defs><path fill="none" stroke="url(#b)" stroke-width="3" d="M475.152 215.117l-.01-.01h172.821v150.107"/><path fill="none" stroke="#EEEEEE" stroke-width="8" d="M513.51 191.367l-.01-.01h503.786v46.929"/><defs><linearGradient id="c" x1="0%" x2="50%" y1="0%" y2="50%"><stop offset="0%" stop-color="#FF3986"/><stop offset="100%" stop-color="#3397DA"/></linearGradient></defs><path fill="none" stroke="url(#c)" stroke-width="3" d="M513.51 191.367l-.01-.01h503.786v46.929"/><path fill="none" stroke="#EEEEEE" stroke-width="8" d="M436.794 238.867l-.01-.01V536.43h246.422"/><defs><linearGradient id="d" x1="0%" x2="50%" y1="0%" y2="50%"><stop offset="0%" stop-color="#FF3986"/><stop offset="100%" stop-color="#3397DA"/></linearGradient></defs><path fill="none" stroke="url(#d)" stroke-width="3" d="M436.794 238.867l-.01-.01V536.43h246.422"/><path fill="none" stroke="#EEEEEE" stroke-width="8" d="M360.08 215.117l-.01-.01v255.036H121.214"/><defs><linearGradient id="e" x1="0%" x2="50%" y1="0%" y2="50%"><stop offset="0%" stop-color="#FF3986"/><stop offset="100%" stop-color="#3397DA"/></linearGradient></defs><path fill="none" stroke="url(#e)" stroke-width="3" d="M360.08 215.117l-.01-.01v255.036H121.214"/><path fill="none" stroke="#EEEEEE" stroke-width="8" d="M283.364 167.617l-.01-.01H0V70.143"/><defs><linearGradient id="f" x1="100%" x2="50%" y1="100%" y2="50%"><stop offset="0%" stop-color="#FF3986"/><stop offset="100%" stop-color="#2ECB70"/></linearGradient></defs><path fill="none" stroke="url(#f)" stroke-width="3" d="M283.364 167.617l-.01-.01H0V70.143"/><path fill="none" stroke="url(#f)" stroke-width="1.5" d="M20.01 136.653l-2.01-.01v8h2M24.01 136.653l1.99-.01v8h-2"/><path fill="none" stroke="#EEEEEE" stroke-width="8" d="M321.721 191.367l-.01-.01H1.07v121.929"/><defs><linearGradient id="g" x1="0%" x2="50%" y1="0%" y2="50%"><stop offset="0%" stop-color="#FF3986"/><stop offset="100%" stop-color="#2ECB70"/></linearGradient></defs><path fill="none" stroke="url(#g)" stroke-width="3" d="M321.721 191.367l-.01-.01H1.07v121.929"/><path fill="none" stroke="url(#g)" stroke-width="1.5" d="M21.08 232.796l-2.01-.01v8h2M25.08 232.796l1.99-.01v8h-2"/><path fill="none" stroke="#EEEEEE" stroke-width="8" d="M398.437 262.617l-.01-.01V667h-5.64"/><defs><linearGradient id="h" x1="0%" x2="50%" y1="0%" y2="50%"><stop offset="0%" stop-color="#FF3986"/><stop offset="100%" stop-color="#2ECB70"/></linearGradient></defs><path fill="none" stroke="url(#h)" stroke-width="3" d="M398.437 262.617l-.01-.01V667h-5.64"/><path fill="none" stroke="url(#h)" stroke-width="1.5" d="M418.437 558.51l-2.01-.01v8h2M422.437 558.51l1.99-.01v8h-2"/><path fill="none" stroke="#EEEEEE" stroke-width="8" d="M709.153 384.724l-.01-.01H1017v198.857"/><defs><linearGradient id="i" x1="0%" x2="50%" y1="0%" y2="50%"><stop offset="0%" stop-color="#3397DA"/><stop offset="100%" stop-color="#2ECB70"/></linearGradient></defs><path fill="none" stroke="url(#i)" stroke-width="3" d="M709.153 384.724l-.01-.01H1017v198.857"/><path fill="none" stroke="#EEEEEE" stroke-width="8" d="M642.43 518.772l-.01-.01V404.214h66.723"/><defs><linearGradient id="j" x1="0%" x2="50%" y1="0%" y2="50%"><stop offset="0%" stop-color="#3397DA"/><stop offset="100%" stop-color="#3397DA"/></linearGradient></defs><path fill="none" stroke="url(#j)" stroke-width="3" d="M642.43 518.772l-.01-.01V404.214h66.723"/><path fill="none" stroke="#EEEEEE" stroke-width="8" d="M724.002 554.105l-.01-.01h348.509v16.476"/><defs><linearGradient id="k" x1="0%" x2="50%" y1="0%" y2="50%"><stop offset="0%" stop-color="#3397DA"/><stop offset="100%" stop-color="#2ECB70"/></linearGradient></defs><path fill="none" stroke="url(#k)" stroke-width="3" d="M724.002 554.105l-.01-.01h348.509v16.476"/><path fill="none" stroke="#EEEEEE" stroke-width="8" d="M973.915 211.296l-.01-.01H770.322v173.428"/><defs><linearGradient id="l" x1="0%" x2="50%" y1="0%" y2="50%"><stop offset="0%" stop-color="#3397DA"/><stop offset="100%" stop-color="#3397DA"/></linearGradient></defs><path fill="none" stroke="url(#l)" stroke-width="3" d="M973.915 211.296l-.01-.01H770.322v173.428"/><path fill="none" stroke="#EEEEEE" stroke-width="8" d="M1060.678 265.296l-.01-.01V557.57H1128"/><defs><linearGradient id="m" x1="0%" x2="50%" y1="0%" y2="50%"><stop offset="0%" stop-color="#3397DA"/><stop offset="100%" stop-color="#2ECB70"/></linearGradient></defs><path fill="none" stroke="url(#m)" stroke-width="3" d="M1060.678 265.296l-.01-.01V557.57H1128"/><path fill="none" stroke="#EEEEEE" stroke-width="8" d="M121.225 470.153l-.01-.01v160.571H70.998"/><defs><linearGradient id="n" x1="0%" x2="50%" y1="0%" y2="50%"><stop offset="0%" stop-color="#3397DA"/><stop offset="100%" stop-color="#2ECB70"/></linearGradient></defs><path fill="none" stroke="url(#n)" stroke-width="3" d="M121.225 470.153l-.01-.01v160.571H70.998"/><path fill="none" stroke="url(#n)" stroke-width="1.5" d="M141.225 578.224l-2.01-.01v8h2M145.225 578.224l1.99-.01v8h-2"/><path fill="none" stroke="#EEEEEE" stroke-width="8" d="M422.555 684.61l-.01-.01h483.453V544.571"/><defs><linearGradient id="o" x1="0%" x2="50%" y1="0%" y2="50%"><stop offset="0%" stop-color="#2ECB70"/><stop offset="100%" stop-color="#2ECB70"/></linearGradient></defs><path fill="none" stroke="url(#o)" stroke-width="3" d="M422.555 684.61l-.01-.01h483.453V544.571"/><path fill="none" stroke="#EEEEEE" stroke-width="8" d="M482.07 649.41l-.01-.01H961.5v-91.829"/><defs><linearGradient id="p" x1="0%" x2="50%" y1="0%" y2="50%"><stop offset="0%" stop-color="#2ECB70"/><stop offset="100%" stop-color="#2ECB70"/></linearGradient></defs><path fill="none" stroke="url(#p)" stroke-width="3" d="M482.07 649.41l-.01-.01H961.5v-91.829"/><path fill="none" stroke="#EEEEEE" stroke-width="8" d="M303.525 614.21l-.01-.01v220.89h43.59"/><defs><linearGradient id="q" x1="0%" x2="50%" y1="0%" y2="50%"><stop offset="0%" stop-color="#2ECB70"/><stop offset="100%" stop-color="#2ECB70"/></linearGradient></defs><path fill="none" stroke="url(#q)" stroke-width="3" d="M303.525 614.21l-.01-.01v220.89h43.59"/><path fill="none" stroke="#EEEEEE" stroke-width="8" d="M363.04 649.41l-.01-.01v211.69h62.838"/><defs><linearGradient id="r" x1="0%" x2="50%" y1="0%" y2="50%"><stop offset="0%" stop-color="#2ECB70"/><stop offset="100%" stop-color="#2ECB70"/></linearGradient></defs><path fill="none" stroke="url(#r)" stroke-width="3" d="M363.04 649.41l-.01-.01v211.69h62.838"/><path fill="#FFFFFF" stroke="#3397DA" stroke-width="3" d="M241.083-60H557.23V60H241.083z"/><path fill="#3397da" stroke="#3397da" d="M242.083-35H558.23"/><path fill="none" stroke="#3397DA" stroke-width="3" d="M241.083-60H557.23V60H241.083z"/><text x="251.083" y="-42" style="font:700 16px 'Lucida Console',monospace" fill="#000000">VerifiableCredential</text><text x="251.083" y="-18" style="font:500 14px 'Lucida Console',monospace" fill="#000000">id:</text><text x="280.369" y="-18" style="font:500 14px 'Lucida Console',monospace" fill="#C9A30B">URI</text><text x="251.083" y="-4" style="font:500 14px 'Lucida Console',monospace" fill="#000000">type:</text><text x="297.226" y="-4" style="font:500 14px 'Lucida Console',monospace" fill="#02b57b">Text[]</text><text x="251.083" y="10" style="font:500 14px 'Lucida Console',monospace" fill="#000000">issuer:</text><text x="314.084" y="10" style="font:500 14px 'Lucida Console',monospace" fill="#02b57b">URI</text><text x="251.083" y="24" style="font:500 14px 'Lucida Console',monospace" fill="#000000">validFrom:</text><text x="339.37" y="24" style="font:500 14px 'Lucida Console',monospace" fill="#02b57b">DateTime</text><text x="251.083" y="38" style="font:500 14px 'Lucida Console',monospace" fill="#000000">credentialSubject:</text><text x="406.8" y="38" style="font:500 14px 'Lucida Console',monospace" fill="#3397DA">ProductPassport</text><text x="251.083" y="52" style="font:500 14px 'Lucida Console',monospace" fill="#000000">credentialStatus:</text><text x="398.371" y="52" style="font:500 14px 'Lucida Console',monospace" fill="#02b57b">Text</text><path fill="#FFFFFF" stroke="#FF3986" stroke-width="3" d="M244.996 143.857h306.861v190H244.996z"/><path fill="#ff3986" stroke="#ff3986" d="M245.996 168.857h306.861"/><path fill="none" stroke="#FF3986" stroke-width="3" d="M244.996 143.857h306.861v190H244.996z"/><text x="254.996" y="161.857" style="font:700 16px 'Lucida Console',monospace" fill="#000000">ProductPassport</text><text x="254.996" y="185.857" style="font:500 14px 'Lucida Console',monospace" fill="#000000">id:</text><text x="284.282" y="185.857" style="font:500 14px 'Lucida Console',monospace" fill="#C9A30B">URI</text><text x="254.996" y="199.857" style="font:500 14px 'Lucida Console',monospace" fill="#000000">issuedBy:</text><text x="334.854" y="199.857" style="font:500 14px 'Lucida Console',monospace" fill="#3397DA">Party</text><text x="254.996" y="213.857" style="font:500 14px 'Lucida Console',monospace" fill="#000000">product:</text><text x="326.426" y="213.857" style="font:500 14px 'Lucida Console',monospace" fill="#3397DA">ProductInformation</text><text x="254.996" y="227.857" style="font:500 14px 'Lucida Console',monospace" fill="#000000">manufacturedAt:</text><text x="385.427" y="227.857" style="font:500 14px 'Lucida Console',monospace" fill="#3397DA">Facility</text><text x="254.996" y="241.857" style="font:500 14px 'Lucida Console',monospace" fill="#000000">batch:</text><text x="309.568" y="241.857" style="font:500 14px 'Lucida Console',monospace" fill="#3397DA">ProductBatch</text><text x="254.996" y="255.857" style="font:500 14px 'Lucida Console',monospace" fill="#000000">processingProvenance:</text><text x="435.999" y="255.857" style="font:500 14px 'Lucida Console',monospace" fill="#2ECB70">Process[]</text><text x="254.996" y="269.857" style="font:500 14px 'Lucida Console',monospace" fill="#000000">materialsProvenance:</text><text x="427.57" y="269.857" style="font:500 14px 'Lucida Console',monospace" fill="#2ECB70">Material[]</text><text x="254.996" y="283.857" style="font:500 14px 'Lucida Console',monospace" fill="#000000">conformityInformation:</text><text x="444.428" y="283.857" style="font:500 14px 'Lucida Console',monospace" fill="#2ECB70">Claim[]</text><text x="254.996" y="297.857" style="font:500 14px 'Lucida Console',monospace" fill="#000000">guaranteeOfOriginCredential:</text><text x="495" y="297.857" style="font:500 14px 'Lucida Console',monospace" fill="#02b57b">URI</text><text x="254.996" y="311.857" style="font:500 14px 'Lucida Console',monospace" fill="#000000">trustScore:</text><text x="351.712" y="311.857" style="font:500 14px 'Lucida Console',monospace" fill="#02b57b">Numeric</text><text x="254.996" y="325.857" style="font:500 14px 'Lucida Console',monospace" fill="#000000">sustainabilityScore:</text><text x="427.57" y="325.857" style="font:500 14px 'Lucida Console',monospace" fill="#02b57b">Numeric</text><path fill="#FFFFFF" stroke="#3397DA" stroke-width="3" d="M586.784 345.714h244.718v78H586.784z"/><path fill="#3397da" stroke="#3397da" d="M587.784 370.714h244.718"/><path fill="none" stroke="#3397DA" stroke-width="3" d="M586.784 345.714h244.718v78H586.784z"/><text x="596.784" y="363.714" style="font:700 16px 'Lucida Console',monospace" fill="#000000">Party</text><text x="596.784" y="387.714" style="font:500 14px 'Lucida Console',monospace" fill="#000000">id:</text><text x="626.07" y="387.714" style="font:500 14px 'Lucida Console',monospace" fill="#C9A30B">URI</text><text x="596.784" y="401.714" style="font:500 14px 'Lucida Console',monospace" fill="#000000">name:</text><text x="642.928" y="401.714" style="font:500 14px 'Lucida Console',monospace" fill="#02b57b">Text</text><text x="596.784" y="415.714" style="font:500 14px 'Lucida Console',monospace" fill="#000000">identityEvidence:</text><text x="744.072" y="415.714" style="font:500 14px 'Lucida Console',monospace" fill="#2ECB70">Evidence</text><path fill="#FFFFFF" stroke="#3397DA" stroke-width="3" d="M560.847 483.429h244.718v106H560.847z"/><path fill="#3397da" stroke="#3397da" d="M561.847 508.429h244.718"/><path fill="none" stroke="#3397DA" stroke-width="3" d="M560.847 483.429h244.718v106H560.847z"/><text x="570.847" y="501.429" style="font:700 16px 'Lucida Console',monospace" fill="#000000">Facility</text><text x="570.847" y="525.429" style="font:500 14px 'Lucida Console',monospace" fill="#000000">id:</text><text x="600.133" y="525.429" style="font:500 14px 'Lucida Console',monospace" fill="#C9A30B">URI</text><text x="570.847" y="539.429" style="font:500 14px 'Lucida Console',monospace" fill="#000000">name:</text><text x="616.991" y="539.429" style="font:500 14px 'Lucida Console',monospace" fill="#02b57b">Text</text><text x="570.847" y="553.429" style="font:500 14px 'Lucida Console',monospace" fill="#000000">location:</text><text x="650.705" y="553.429" style="font:500 14px 'Lucida Console',monospace" fill="#02b57b">URI</text><text x="570.847" y="567.429" style="font:500 14px 'Lucida Console',monospace" fill="#000000">operatedBy:</text><text x="667.563" y="567.429" style="font:500 14px 'Lucida Console',monospace" fill="#3397DA">Party</text><text x="570.847" y="581.429" style="font:500 14px 'Lucida Console',monospace" fill="#000000">locationEvidence:</text><text x="718.135" y="581.429" style="font:500 14px 'Lucida Console',monospace" fill="#2ECB70">Evidence</text><path fill="#FFFFFF" stroke="#3397DA" stroke-width="3" d="M887.142 157.286h260.289v162H887.142z"/><path fill="#3397da" stroke="#3397da" d="M888.142 182.286h260.289"/><path fill="none" stroke="#3397DA" stroke-width="3" d="M887.142 157.286h260.289v162H887.142z"/><text x="897.142" y="175.286" style="font:700 16px 'Lucida Console',monospace" fill="#000000">ProductInformation</text><text x="897.142" y="199.286" style="font:500 14px 'Lucida Console',monospace" fill="#000000">id:</text><text x="926.428" y="199.286" style="font:500 14px 'Lucida Console',monospace" fill="#C9A30B">URI</text><text x="897.142" y="213.286" style="font:500 14px 'Lucida Console',monospace" fill="#000000">model:</text><text x="951.714" y="213.286" style="font:500 14px 'Lucida Console',monospace" fill="#02b57b">Text</text><text x="897.142" y="227.286" style="font:500 14px 'Lucida Console',monospace" fill="#000000">productClass:</text><text x="1010.715" y="227.286" style="font:500 14px 'Lucida Console',monospace" fill="#530abb">Code(uncpc)</text><text x="897.142" y="241.286" style="font:500 14px 'Lucida Console',monospace" fill="#000000">image:</text><text x="951.714" y="241.286" style="font:500 14px 'Lucida Console',monospace" fill="#02b57b">URI</text><text x="897.142" y="255.286" style="font:500 14px 'Lucida Console',monospace" fill="#000000">description:</text><text x="1002.286" y="255.286" style="font:500 14px 'Lucida Console',monospace" fill="#02b57b">Text</text><text x="897.142" y="269.286" style="font:500 14px 'Lucida Console',monospace" fill="#000000">furtherInformation:</text><text x="1061.287" y="269.286" style="font:500 14px 'Lucida Console',monospace" fill="#02b57b">URI</text><text x="897.142" y="283.286" style="font:500 14px 'Lucida Console',monospace" fill="#000000">recyclingInstructions:</text><text x="1086.573" y="283.286" style="font:500 14px 'Lucida Console',monospace" fill="#02b57b">URI</text><text x="897.142" y="297.286" style="font:500 14px 'Lucida Console',monospace" fill="#000000">manufacturer:</text><text x="1010.715" y="297.286" style="font:500 14px 'Lucida Console',monospace" fill="#3397DA">Party</text><text x="897.142" y="311.286" style="font:500 14px 'Lucida Console',monospace" fill="#000000">ownershipEvidence:</text><text x="1052.858" y="311.286" style="font:500 14px 'Lucida Console',monospace" fill="#2ECB70">Evidence</text><path fill="#FFFFFF" stroke="#3397DA" stroke-width="3" d="M-47.502 424.143h337.434v92H-47.502z"/><path fill="#3397da" stroke="#3397da" d="M-46.502 449.143h337.434"/><path fill="none" stroke="#3397DA" stroke-width="3" d="M-47.502 424.143h337.434v92H-47.502z"/><text x="-37.502" y="442.143" style="font:700 16px 'Lucida Console',monospace" fill="#000000">ProductBatch</text><text x="-37.502" y="466.143" style="font:500 14px 'Lucida Console',monospace" fill="#000000">id:</text><text x="-8.216" y="466.143" style="font:500 14px 'Lucida Console',monospace" fill="#C9A30B">URI</text><text x="-37.502" y="480.143" style="font:500 14px 'Lucida Console',monospace" fill="#000000">serialNumber:</text><text x="76.071" y="480.143" style="font:500 14px 'Lucida Console',monospace" fill="#02b57b">Text[]</text><text x="-37.502" y="494.143" style="font:500 14px 'Lucida Console',monospace" fill="#000000">manufacturedDate:</text><text x="109.786" y="494.143" style="font:500 14px 'Lucida Console',monospace" fill="#02b57b">Date</text><text x="-37.502" y="508.143" style="font:500 14px 'Lucida Console',monospace" fill="#000000">traceabilityInfo:</text><text x="109.786" y="508.143" style="font:500 14px 'Lucida Console',monospace" fill="#2ECB70">TraceabilityEvent[]</text><path fill="#FFFFFF" stroke="#2ECB70" stroke-width="3" d="M244 579h297.575v176H244z"/><path fill="#2ecb70" stroke="#2ecb70" d="M245 604h297.575"/><path fill="none" stroke="#2ECB70" stroke-width="3" d="M244 579h297.575v176H244z"/><text x="254" y="597" style="font:700 16px 'Lucida Console',monospace" fill="#000000">Claim</text><text x="254" y="621" style="font:500 14px 'Lucida Console',monospace" fill="#000000">topic:</text><text x="308.572" y="621" style="font:500 14px 'Lucida Console',monospace" fill="#530abb">Code(conformityTopic)</text><text x="254" y="635" style="font:500 14px 'Lucida Console',monospace" fill="#000000">standardOrRegulation:</text><text x="435.003" y="635" style="font:500 14px 'Lucida Console',monospace" fill="#02b57b">URI</text><text x="254" y="649" style="font:500 14px 'Lucida Console',monospace" fill="#000000">criteriaReference:</text><text x="409.717" y="649" style="font:500 14px 'Lucida Console',monospace" fill="#02b57b">URI</text><text x="254" y="663" style="font:500 14px 'Lucida Console',monospace" fill="#000000">conformityEvidence:</text><text x="418.146" y="663" style="font:500 14px 'Lucida Console',monospace" fill="#2ECB70">Evidence</text><text x="254" y="677" style="font:500 14px 'Lucida Console',monospace" fill="#000000">massBalanceEvidence:</text><text x="426.574" y="677" style="font:500 14px 'Lucida Console',monospace" fill="#2ECB70">Evidence</text><text x="254" y="691" style="font:500 14px 'Lucida Console',monospace" fill="#000000">claimedValue:</text><text x="367.573" y="691" style="font:500 14px 'Lucida Console',monospace" fill="#2ECB70">Metric</text><text x="254" y="705" style="font:500 14px 'Lucida Console',monospace" fill="#000000">accuracy:</text><text x="333.858" y="705" style="font:500 14px 'Lucida Console',monospace" fill="#02b57b">Numeric</text><text x="254" y="719" style="font:500 14px 'Lucida Console',monospace" fill="#000000">benchmarkValue:</text><text x="384.431" y="719" style="font:500 14px 'Lucida Console',monospace" fill="#2ECB70">Metric</text><text x="254" y="733" style="font:500 14px 'Lucida Console',monospace" fill="#000000">benchmarkReference:</text><text x="418.146" y="733" style="font:500 14px 'Lucida Console',monospace" fill="#02b57b">URI</text><text x="254" y="747" style="font:500 14px 'Lucida Console',monospace" fill="#000000">conformance:</text><text x="359.145" y="747" style="font:500 14px 'Lucida Console',monospace" fill="#02b57b">Indicator</text><path fill="#FFFFFF" stroke="#2ECB70" stroke-width="3" d="M268.342 809.091h236.289v78H268.342z"/><path fill="#2ecb70" stroke="#2ecb70" d="M269.342 834.09h236.29"/><path fill="none" stroke="#2ECB70" stroke-width="3" d="M268.342 809.091h236.289v78H268.342z"/><text x="278.342" y="827.091" style="font:700 16px 'Lucida Console',monospace" fill="#000000">Metric</text><text x="278.342" y="851.091" style="font:500 14px 'Lucida Console',monospace" fill="#000000">name:</text><text x="324.486" y="851.091" style="font:500 14px 'Lucida Console',monospace" fill="#02b57b">Text</text><text x="278.342" y="865.091" style="font:500 14px 'Lucida Console',monospace" fill="#000000">value:</text><text x="332.915" y="865.091" style="font:500 14px 'Lucida Console',monospace" fill="#02b57b">Numeric</text><text x="278.342" y="879.091" style="font:500 14px 'Lucida Console',monospace" fill="#000000">unit:</text><text x="324.486" y="879.091" style="font:500 14px 'Lucida Console',monospace" fill="#530abb">Code(unitOfMeasure)</text><path fill="#FFFFFF" stroke="#2ECB70" stroke-width="3" d="M-51.361 598.714h244.718v64H-51.361z"/><path fill="#2ecb70" stroke="#2ecb70" d="M-50.36 623.714h244.717"/><path fill="none" stroke="#2ECB70" stroke-width="3" d="M-51.361 598.714h244.718v64H-51.361z"/><text x="-41.361" y="616.714" style="font:700 16px 'Lucida Console',monospace" fill="#000000">TraceabilityEvent</text><text x="-41.361" y="640.714" style="font:500 14px 'Lucida Console',monospace" fill="#000000">eventReference:</text><text x="89.07" y="640.714" style="font:500 14px 'Lucida Console',monospace" fill="#02b57b">URI</text><text x="-41.361" y="654.714" style="font:500 14px 'Lucida Console',monospace" fill="#000000">eventType:</text><text x="46.926" y="654.714" style="font:500 14px 'Lucida Console',monospace" fill="#530abb">Code(eventType)</text><path fill="#FFFFFF" stroke="#2ECB70" stroke-width="3" d="M-131.289 253.286h264.718v120h-264.718z"/><path fill="#2ecb70" stroke="#2ecb70" d="M-130.29 278.286H134.43"/><path fill="none" stroke="#2ECB70" stroke-width="3" d="M-131.289 253.286h264.718v120h-264.718z"/><text x="-121.289" y="271.286" style="font:700 16px 'Lucida Console',monospace" fill="#000000">Material</text><text x="-121.289" y="295.286" style="font:500 14px 'Lucida Console',monospace" fill="#000000">country:</text><text x="-49.86" y="295.286" style="font:500 14px 'Lucida Console',monospace" fill="#530abb">Code(countryCode)</text><text x="-121.289" y="309.286" style="font:500 14px 'Lucida Console',monospace" fill="#000000">materialType:</text><text x="-7.716" y="309.286" style="font:500 14px 'Lucida Console',monospace" fill="#02b57b">URI</text><text x="-121.289" y="323.286" style="font:500 14px 'Lucida Console',monospace" fill="#000000">materialName:</text><text x="-7.716" y="323.286" style="font:500 14px 'Lucida Console',monospace" fill="#02b57b">Text</text><text x="-121.289" y="337.286" style="font:500 14px 'Lucida Console',monospace" fill="#000000">massFraction:</text><text x="-7.716" y="337.286" style="font:500 14px 'Lucida Console',monospace" fill="#02b57b">Numeric</text><text x="-121.289" y="351.286" style="font:500 14px 'Lucida Console',monospace" fill="#000000">recycled:</text><text x="-41.431" y="351.286" style="font:500 14px 'Lucida Console',monospace" fill="#02b57b">Indicator</text><text x="-121.289" y="365.286" style="font:500 14px 'Lucida Console',monospace" fill="#000000">hazardous:</text><text x="-33.002" y="365.286" style="font:500 14px 'Lucida Console',monospace" fill="#02b57b">Indicator</text><path fill="#FFFFFF" stroke="#2ECB70" stroke-width="3" d="M-128.359 24.143h256.718v92h-256.718z"/><path fill="#2ecb70" stroke="#2ecb70" d="M-127.359 49.143H129.36"/><path fill="none" stroke="#2ECB70" stroke-width="3" d="M-128.359 24.143h256.718v92h-256.718z"/><text x="-118.359" y="42.143" style="font:700 16px 'Lucida Console',monospace" fill="#000000">Process</text><text x="-118.359" y="66.143" style="font:500 14px 'Lucida Console',monospace" fill="#000000">country:</text><text x="-46.929" y="66.143" style="font:500 14px 'Lucida Console',monospace" fill="#530abb">Code(countryCode)</text><text x="-118.359" y="80.143" style="font:500 14px 'Lucida Console',monospace" fill="#000000">processType:</text><text x="-13.214" y="80.143" style="font:500 14px 'Lucida Console',monospace" fill="#02b57b">URI</text><text x="-118.359" y="94.143" style="font:500 14px 'Lucida Console',monospace" fill="#000000">processName:</text><text x="-13.214" y="94.143" style="font:500 14px 'Lucida Console',monospace" fill="#02b57b">Text</text><text x="-118.359" y="108.143" style="font:500 14px 'Lucida Console',monospace" fill="#000000">valueFraction:</text><text x="3.643" y="108.143" style="font:500 14px 'Lucida Console',monospace" fill="#02b57b">Numeric</text><path fill="#FFFFFF" stroke="#2ECB70" stroke-width="3" d="M850.497 531.571h333.005v78H850.497z"/><path fill="#2ecb70" stroke="#2ecb70" d="M851.497 556.571h333.005"/><path fill="none" stroke="#2ECB70" stroke-width="3" d="M850.497 531.571h333.005v78H850.497z"/><text x="860.497" y="549.571" style="font:700 16px 'Lucida Console',monospace" fill="#000000">Evidence</text><text x="860.497" y="573.571" style="font:500 14px 'Lucida Console',monospace" fill="#000000">format:</text><text x="923.498" y="573.571" style="font:500 14px 'Lucida Console',monospace" fill="#530abb">Code(evidenceFormat)</text><text x="860.497" y="587.571" style="font:500 14px 'Lucida Console',monospace" fill="#000000">assuranceLevel:</text><text x="990.928" y="587.571" style="font:500 14px 'Lucida Console',monospace" fill="#530abb">Code(assuranceLevel)</text><text x="860.497" y="601.571" style="font:500 14px 'Lucida Console',monospace" fill="#000000">credential:</text><text x="957.213" y="601.571" style="font:500 14px 'Lucida Console',monospace" fill="#02b57b">URI</text></svg>