<svg xmlns="http://www.w3.org/2000/svg" viewBox="-210 -88 1440.003 1061.429"><rect width="1000%" height="1000%" x="-500%" y="-500%" fill="#EEEEEE"/><path fill="none" stroke="#EEEEEE" stroke-width="8" d="M544.651 324.581l-.01-.01h402.573V478.43"/><defs><linearGradient id="a" x1="0%" x2="50%" y1="0%" y2="50%"><stop offset="0%" stop-color="#3397DA"/><stop offset="100%" stop-color="#aabbccdd"/></linearGradient></defs><path fill="none" stroke="url(#a)" stroke-width="3" d="M544.651 324.581l-.01-.01h402.573V478.43"/><path fill="none" stroke="url(#a)" stroke-width="1.5" d="M967.224 390.939l-2.01-.01v8h2M971.224 390.939l1.99-.01v8h-2"/><path fill="none" stroke="#EEEEEE" stroke-width="8" d="M321.362 213.915l-.01-.01H0v-86.762"/><defs><linearGradient id="b" x1="100%" x2="50%" y1="100%" y2="50%"><stop offset="0%" stop-color="#3397DA"/><stop offset="100%" stop-color="#aabbccdd"/></linearGradient></defs><path fill="none" stroke="url(#b)" stroke-width="3" d="M321.362 213.915l-.01-.01H0v-86.762"/><path fill="none" stroke="#EEEEEE" stroke-width="8" d="M619.081 269.248l-.01-.01h368.715V160.143"/><defs><linearGradient id="c" x1="0%" x2="50%" y1="0%" y2="50%"><stop offset="0%" stop-color="#3397DA"/><stop offset="100%" stop-color="#aabbccdd"/></linearGradient></defs><path fill="none" stroke="url(#c)" stroke-width="3" d="M619.081 269.248l-.01-.01h368.715V160.143"/><path fill="none" stroke="#EEEEEE" stroke-width="8" d="M395.792 269.248l-.01-.01H8.217V440"/><defs><linearGradient id="d" x1="0%" x2="50%" y1="0%" y2="50%"><stop offset="0%" stop-color="#3397DA"/><stop offset="100%" stop-color="#aabbccdd"/></linearGradient></defs><path fill="none" stroke="url(#d)" stroke-width="3" d="M395.792 269.248l-.01-.01H8.217V440"/><path fill="none" stroke="url(#d)" stroke-width="1.5" d="M28.227 359.51l-2.01-.01v8h2M32.227 359.51l1.99-.01v8h-2"/><path fill="none" stroke="#EEEEEE" stroke-width="8" d="M502.868 712.696l-.01-.01v174.743h110.5"/><defs><linearGradient id="e" x1="0%" x2="50%" y1="0%" y2="50%"><stop offset="0%" stop-color="#3397DA"/><stop offset="100%" stop-color="#aabbccdd"/></linearGradient></defs><path fill="none" stroke="url(#e)" stroke-width="3" d="M502.868 712.696l-.01-.01v174.743h110.5"/><path fill="none" stroke="#EEEEEE" stroke-width="8" d="M579.583 679.896l-.01-.01h327.358v85.971"/><defs><linearGradient id="f" x1="0%" x2="50%" y1="0%" y2="50%"><stop offset="0%" stop-color="#3397DA"/><stop offset="100%" stop-color="#aabbccdd"/></linearGradient></defs><path fill="none" stroke="url(#f)" stroke-width="3" d="M579.583 679.896l-.01-.01h327.358v85.971"/><path fill="none" stroke="#EEEEEE" stroke-width="8" d="M349.437 647.096l-.01-.01H91.002v84.771"/><defs><linearGradient id="g" x1="0%" x2="50%" y1="0%" y2="50%"><stop offset="0%" stop-color="#3397DA"/><stop offset="100%" stop-color="#aabbccdd"/></linearGradient></defs><path fill="none" stroke="url(#g)" stroke-width="3" d="M349.437 647.096l-.01-.01H91.002v84.771"/><path fill="none" stroke="url(#g)" stroke-width="1.5" d="M111.012 672.367l-2.01-.01v8h2M115.012 672.367l1.99-.01v8h-2"/><path fill="none" stroke="#EEEEEE" stroke-width="8" d="M426.153 679.896l-.01-.01v201.4h-97.717"/><defs><linearGradient id="h" x1="0%" x2="50%" y1="0%" y2="50%"><stop offset="0%" stop-color="#3397DA"/><stop offset="100%" stop-color="#aabbccdd"/></linearGradient></defs><path fill="none" stroke="url(#h)" stroke-width="3" d="M426.153 679.896l-.01-.01v201.4h-97.717"/><path fill="none" stroke="url(#h)" stroke-width="1.5" d="M446.153 821.796l-2.01-.01v8h2M450.153 821.796l1.99-.01v8h-2"/><path fill="none" stroke="#EEEEEE" stroke-width="8" d="M472.795.01l-.01-.01v324.571h-2.573"/><defs><linearGradient id="i" x1="0%" x2="50%" y1="0%" y2="50%"><stop offset="0%" stop-color="#FF3986"/><stop offset="100%" stop-color="#3397DA"/></linearGradient></defs><path fill="none" stroke="url(#i)" stroke-width="3" d="M472.795.01l-.01-.01v324.571h-2.573"/><path fill="none" stroke="#EEEEEE" stroke-width="8" d="M470.222 379.915l-.01-.01v316.38H464.5"/><defs><linearGradient id="j" x1="0%" x2="50%" y1="0%" y2="50%"><stop offset="0%" stop-color="#3397DA"/><stop offset="100%" stop-color="#3397DA"/></linearGradient></defs><path fill="none" stroke="url(#j)" stroke-width="3" d="M470.222 379.915l-.01-.01v316.38H464.5"/><path fill="none" stroke="url(#j)" stroke-width="1.5" d="M490.222 593.796l-2.01-.01v8h2M494.222 593.796l1.99-.01v8h-2"/><path fill="#FFFFFF" stroke="#FF3986" stroke-width="3" d="M322.426-68h300.718V68H322.426z"/><path fill="#ff3986" stroke="#ff3986" d="M323.426-27h300.718"/><path fill="none" stroke="#FF3986" stroke-width="3" d="M322.426-68h300.718V68H322.426z"/><text x="332.426" y="-50" style="font:700 16px 'Lucida Console',monospace" fill="#000000">DigitalProductPassport</text><text x="332.426" y="-34" style="font:500 14px 'Lucida Console',monospace" fill="#999">＜＜untp.VerifiableCredential＞＞</text><text x="332.426" y="-10" style="font:500 14px 'Lucida Console',monospace" fill="#666">@context:</text><text x="412.284" y="-10" style="font:500 14px 'Lucida Console',monospace" fill="#02b57b">Text[]</text><text x="332.426" y="4" style="font:500 14px 'Lucida Console',monospace" fill="#666">id:</text><text x="361.712" y="4" style="font:500 14px 'Lucida Console',monospace" fill="#C9A30B">URI</text><text x="332.426" y="18" style="font:500 14px 'Lucida Console',monospace" fill="#666">issuer:</text><text x="395.427" y="18" style="font:500 14px 'Lucida Console',monospace" fill="#02b57b">CredentialIssuer</text><text x="332.426" y="32" style="font:500 14px 'Lucida Console',monospace" fill="#666">validFrom:</text><text x="420.713" y="32" style="font:500 14px 'Lucida Console',monospace" fill="#02b57b">DateTime</text><text x="332.426" y="46" style="font:500 14px 'Lucida Console',monospace" fill="#666">validUntil:</text><text x="429.142" y="46" style="font:500 14px 'Lucida Console',monospace" fill="#02b57b">DateTime</text><text x="332.426" y="60" style="font:500 14px 'Lucida Console',monospace" fill="#000000">credentialSubject:</text><text x="488.143" y="60" style="font:500 14px 'Lucida Console',monospace" fill="#3397DA">Product</text><path fill="#FFFFFF" stroke="#3397DA" stroke-width="3" d="M246.923 158.571h446.578v332H246.923z"/><path fill="#3397da" stroke="#3397da" d="M247.923 199.571H694.5"/><path fill="none" stroke="#3397DA" stroke-width="3" d="M246.923 158.571h446.578v332H246.923z"/><text x="256.923" y="176.571" style="font:700 16px 'Lucida Console',monospace" fill="#000000">Product</text><text x="256.923" y="192.571" style="font:500 14px 'Lucida Console',monospace" fill="#999">＜＜untp.Product＞＞</text><text x="256.923" y="216.571" style="font:500 14px 'Lucida Console',monospace" fill="#666">id:</text><text x="286.209" y="216.571" style="font:500 14px 'Lucida Console',monospace" fill="#C9A30B">URI</text><text x="256.923" y="230.571" style="font:500 14px 'Lucida Console',monospace" fill="#666">name:</text><text x="303.066" y="230.571" style="font:500 14px 'Lucida Console',monospace" fill="#02b57b">Text</text><text x="256.923" y="244.571" style="font:500 14px 'Lucida Console',monospace" fill="#666">registeredId:</text><text x="370.496" y="244.571" style="font:500 14px 'Lucida Console',monospace" fill="#02b57b">Text</text><text x="256.923" y="258.571" style="font:500 14px 'Lucida Console',monospace" fill="#666">idScheme:</text><text x="336.781" y="258.571" style="font:500 14px 'Lucida Console',monospace" fill="#02b57b">IdentifierScheme</text><text x="256.923" y="272.571" style="font:500 14px 'Lucida Console',monospace" fill="#666">serialNumber:</text><text x="370.496" y="272.571" style="font:500 14px 'Lucida Console',monospace" fill="#02b57b">Text</text><text x="256.923" y="286.571" style="font:500 14px 'Lucida Console',monospace" fill="#666">batchNumber:</text><text x="362.067" y="286.571" style="font:500 14px 'Lucida Console',monospace" fill="#02b57b">Text</text><text x="256.923" y="300.571" style="font:500 14px 'Lucida Console',monospace" fill="#666">productImage:</text><text x="370.496" y="300.571" style="font:500 14px 'Lucida Console',monospace" fill="#02b57b">Link</text><text x="256.923" y="314.571" style="font:500 14px 'Lucida Console',monospace" fill="#666">description:</text><text x="362.067" y="314.571" style="font:500 14px 'Lucida Console',monospace" fill="#02b57b">Text</text><text x="256.923" y="328.571" style="font:500 14px 'Lucida Console',monospace" fill="#666">productCategory:</text><text x="395.782" y="328.571" style="font:500 14px 'Lucida Console',monospace" fill="#02b57b">Classification[]</text><text x="256.923" y="342.571" style="font:500 14px 'Lucida Console',monospace" fill="#666">furtherInformation:</text><text x="421.068" y="342.571" style="font:500 14px 'Lucida Console',monospace" fill="#02b57b">Link[]</text><text x="256.923" y="356.571" style="font:500 14px 'Lucida Console',monospace" fill="#666">producedByParty:</text><text x="395.782" y="356.571" style="font:500 14px 'Lucida Console',monospace" fill="#02b57b">Entity</text><text x="256.923" y="370.571" style="font:500 14px 'Lucida Console',monospace" fill="#666">producedAtFacility:</text><text x="421.068" y="370.571" style="font:500 14px 'Lucida Console',monospace" fill="#02b57b">Entity</text><text x="256.923" y="384.571" style="font:500 14px 'Lucida Console',monospace" fill="#666">dimensions:</text><text x="353.638" y="384.571" style="font:500 14px 'Lucida Console',monospace" fill="#02b57b">Dimension</text><text x="256.923" y="398.571" style="font:500 14px 'Lucida Console',monospace" fill="#666">productionDate:</text><text x="387.353" y="398.571" style="font:500 14px 'Lucida Console',monospace" fill="#02b57b">Date</text><text x="256.923" y="412.571" style="font:500 14px 'Lucida Console',monospace" fill="#666">countryOfProduction:</text><text x="429.497" y="412.571" style="font:500 14px 'Lucida Console',monospace" fill="#530abb">Code(countryCode)</text><text x="256.923" y="426.571" style="font:500 14px 'Lucida Console',monospace" fill="#000000">materialsProvenance:</text><text x="429.497" y="426.571" style="font:500 14px 'Lucida Console',monospace" fill="#547000">untp.Material[]</text><text x="256.923" y="440.571" style="font:500 14px 'Lucida Console',monospace" fill="#000000">conformityDeclarations:</text><text x="454.783" y="440.571" style="font:500 14px 'Lucida Console',monospace" fill="#3397DA">Declaration[]</text><text x="256.923" y="454.571" style="font:500 14px 'Lucida Console',monospace" fill="#000000">circularityScorecard:</text><text x="437.926" y="454.571" style="font:500 14px 'Lucida Console',monospace" fill="#547000">untp.CircularityPerformance</text><text x="256.923" y="468.571" style="font:500 14px 'Lucida Console',monospace" fill="#000000">emissionsScorecard:</text><text x="421.068" y="468.571" style="font:500 14px 'Lucida Console',monospace" fill="#547000">untp.EmissionsPerformance</text><text x="256.923" y="482.571" style="font:500 14px 'Lucida Console',monospace" fill="#000000">traceabilityInformation:</text><text x="463.212" y="482.571" style="font:500 14px 'Lucida Console',monospace" fill="#547000">untp.SecureLink[]</text><path fill="#FFFFFF" stroke="#3397DA" stroke-width="3" d="M272.712 614.286h383.577v164H272.712z"/><path fill="#3397da" stroke="#3397da" d="M273.712 655.286h383.577"/><path fill="none" stroke="#3397DA" stroke-width="3" d="M272.712 614.286h383.577v164H272.712z"/><text x="282.712" y="632.286" style="font:700 16px 'Lucida Console',monospace" fill="#000000">Declaration</text><text x="282.712" y="648.286" style="font:500 14px 'Lucida Console',monospace" fill="#999">＜＜untp.Declaration＞＞</text><text x="282.712" y="672.286" style="font:500 14px 'Lucida Console',monospace" fill="#000000">id:</text><text x="311.998" y="672.286" style="font:500 14px 'Lucida Console',monospace" fill="#C9A30B">URI</text><text x="282.712" y="686.286" style="font:500 14px 'Lucida Console',monospace" fill="#000000">referenceStandard:</text><text x="438.429" y="686.286" style="font:500 14px 'Lucida Console',monospace" fill="#547000">untp.Standard</text><text x="282.712" y="700.286" style="font:500 14px 'Lucida Console',monospace" fill="#000000">referenceRegulation:</text><text x="455.286" y="700.286" style="font:500 14px 'Lucida Console',monospace" fill="#547000">untp.Regulation</text><text x="282.712" y="714.286" style="font:500 14px 'Lucida Console',monospace" fill="#000000">assessmentCriteria:</text><text x="446.857" y="714.286" style="font:500 14px 'Lucida Console',monospace" fill="#547000">untp.Criterion[]</text><text x="282.712" y="728.286" style="font:500 14px 'Lucida Console',monospace" fill="#000000">declaredValues:</text><text x="413.142" y="728.286" style="font:500 14px 'Lucida Console',monospace" fill="#547000">untp.Metric[]</text><text x="282.712" y="742.286" style="font:500 14px 'Lucida Console',monospace" fill="#000000">compliance:</text><text x="379.428" y="742.286" style="font:500 14px 'Lucida Console',monospace" fill="#547000">Indicator</text><text x="282.712" y="756.286" style="font:500 14px 'Lucida Console',monospace" fill="#000000">conformityTopic:</text><text x="421.571" y="756.286" style="font:500 14px 'Lucida Console',monospace" fill="#547000">Code(conformityTopicCode)</text><text x="282.712" y="770.286" style="font:500 14px 'Lucida Console',monospace" fill="#000000">conformityEvidence:</text><text x="446.857" y="770.286" style="font:500 14px 'Lucida Console',monospace" fill="#547000">untp.SecureLink</text><path fill="#FFFFFF" stroke="#aabbccdd" stroke-width="3" d="M789.569 411.429h315.29v134h-315.29z"/><path fill="#aabbccdd" stroke="#aabbccdd" d="M790.569 436.429h315.29"/><path fill="none" stroke="#aabbccdd" stroke-width="3" d="M789.569 411.429h315.29v134h-315.29z"/><text x="799.569" y="429.429" style="font:700 16px 'Lucida Console',monospace" fill="#000000">untp.Material</text><text x="799.569" y="453.429" style="font:500 14px 'Lucida Console',monospace" fill="#000000">name:</text><text x="845.712" y="453.429" style="font:500 14px 'Lucida Console',monospace" fill="#02b57b">Text</text><text x="799.569" y="467.429" style="font:500 14px 'Lucida Console',monospace" fill="#000000">originCountry:</text><text x="921.571" y="467.429" style="font:500 14px 'Lucida Console',monospace" fill="#530abb">Code(countryCode)</text><text x="799.569" y="481.429" style="font:500 14px 'Lucida Console',monospace" fill="#000000">materialType:</text><text x="913.142" y="481.429" style="font:500 14px 'Lucida Console',monospace" fill="#02b57b">Classification</text><text x="799.569" y="495.429" style="font:500 14px 'Lucida Console',monospace" fill="#000000">massFraction:</text><text x="913.142" y="495.429" style="font:500 14px 'Lucida Console',monospace" fill="#02b57b">Numeric</text><text x="799.569" y="509.429" style="font:500 14px 'Lucida Console',monospace" fill="#000000">recycledAmount:</text><text x="930" y="509.429" style="font:500 14px 'Lucida Console',monospace" fill="#02b57b">Numeric</text><text x="799.569" y="523.429" style="font:500 14px 'Lucida Console',monospace" fill="#000000">hazardous:</text><text x="887.856" y="523.429" style="font:500 14px 'Lucida Console',monospace" fill="#02b57b">Indicator</text><text x="799.569" y="537.429" style="font:500 14px 'Lucida Console',monospace" fill="#000000">materialSafetyInformation:</text><text x="1022.715" y="537.429" style="font:500 14px 'Lucida Console',monospace" fill="#02b57b">Link</text><path fill="#FFFFFF" stroke="#aabbccdd" stroke-width="3" d="M-168.717 67.143h337.434v120h-337.434z"/><path fill="#aabbccdd" stroke="#aabbccdd" d="M-167.717 92.143h337.434"/><path fill="none" stroke="#aabbccdd" stroke-width="3" d="M-168.717 67.143h337.434v120h-337.434z"/><text x="-158.717" y="85.143" style="font:700 16px 'Lucida Console',monospace" fill="#000000">untp.CircularityPerformance</text><text x="-158.717" y="109.143" style="font:500 14px 'Lucida Console',monospace" fill="#000000">recyclingInformation:</text><text x="22.286" y="109.143" style="font:500 14px 'Lucida Console',monospace" fill="#02b57b">Link</text><text x="-158.717" y="123.143" style="font:500 14px 'Lucida Console',monospace" fill="#000000">repairInformation:</text><text x="-3" y="123.143" style="font:500 14px 'Lucida Console',monospace" fill="#02b57b">Link</text><text x="-158.717" y="137.143" style="font:500 14px 'Lucida Console',monospace" fill="#000000">recyclableContent:</text><text x="-3" y="137.143" style="font:500 14px 'Lucida Console',monospace" fill="#02b57b">Decimal</text><text x="-158.717" y="151.143" style="font:500 14px 'Lucida Console',monospace" fill="#000000">recyecledContent:</text><text x="-11.429" y="151.143" style="font:500 14px 'Lucida Console',monospace" fill="#02b57b">Decimal</text><text x="-158.717" y="165.143" style="font:500 14px 'Lucida Console',monospace" fill="#000000">utilityFactor:</text><text x="-36.715" y="165.143" style="font:500 14px 'Lucida Console',monospace" fill="#02b57b">Decimal</text><text x="-158.717" y="179.143" style="font:500 14px 'Lucida Console',monospace" fill="#000000">materialCircularityIndicator:</text><text x="89.716" y="179.143" style="font:500 14px 'Lucida Console',monospace" fill="#02b57b">Decimal</text><path fill="#FFFFFF" stroke="#aabbccdd" stroke-width="3" d="M785.569 107.143h404.435v106H785.569z"/><path fill="#aabbccdd" stroke="#aabbccdd" d="M786.569 132.143h404.434"/><path fill="none" stroke="#aabbccdd" stroke-width="3" d="M785.569 107.143h404.435v106H785.569z"/><text x="795.569" y="125.143" style="font:700 16px 'Lucida Console',monospace" fill="#000000">untp.EmissionsPerformance</text><text x="795.569" y="149.143" style="font:500 14px 'Lucida Console',monospace" fill="#000000">carbonFootprint:</text><text x="934.428" y="149.143" style="font:500 14px 'Lucida Console',monospace" fill="#02b57b">Decimal</text><text x="795.569" y="163.143" style="font:500 14px 'Lucida Console',monospace" fill="#000000">declaredUnit:</text><text x="909.142" y="163.143" style="font:500 14px 'Lucida Console',monospace" fill="#530abb">Code(unitOfMeasure)</text><text x="795.569" y="177.143" style="font:500 14px 'Lucida Console',monospace" fill="#000000">operationalScope:</text><text x="942.857" y="177.143" style="font:500 14px 'Lucida Console',monospace" fill="#530abb">Code(operationalScopeCode)</text><text x="795.569" y="191.143" style="font:500 14px 'Lucida Console',monospace" fill="#000000">primarySourcedRatio:</text><text x="968.143" y="191.143" style="font:500 14px 'Lucida Console',monospace" fill="#02b57b">Decimal</text><text x="795.569" y="205.143" style="font:500 14px 'Lucida Console',monospace" fill="#000000">reportingStandard:</text><text x="951.286" y="205.143" style="font:500 14px 'Lucida Console',monospace" fill="#02b57b">Standard</text><path fill="#FFFFFF" stroke="#aabbccdd" stroke-width="3" d="M-190 380h396.435v120H-190z"/><path fill="#aabbccdd" stroke="#aabbccdd" d="M-189 405h396.435"/><path fill="none" stroke="#aabbccdd" stroke-width="3" d="M-190 380h396.435v120H-190z"/><text x="-180" y="398" style="font:700 16px 'Lucida Console',monospace" fill="#000000">untp.SecureLink</text><text x="-180" y="422" style="font:500 14px 'Lucida Console',monospace" fill="#666">linkURL:</text><text x="-108.57" y="422" style="font:500 14px 'Lucida Console',monospace" fill="#02b57b">URI</text><text x="-180" y="436" style="font:500 14px 'Lucida Console',monospace" fill="#666">linkName:</text><text x="-100.142" y="436" style="font:500 14px 'Lucida Console',monospace" fill="#02b57b">Text</text><text x="-180" y="450" style="font:500 14px 'Lucida Console',monospace" fill="#666">linkType:</text><text x="-100.142" y="450" style="font:500 14px 'Lucida Console',monospace" fill="#02b57b">Text</text><text x="-180" y="464" style="font:500 14px 'Lucida Console',monospace" fill="#000000">hashDigest:</text><text x="-83.284" y="464" style="font:500 14px 'Lucida Console',monospace" fill="#02b57b">Text</text><text x="-180" y="478" style="font:500 14px 'Lucida Console',monospace" fill="#000000">hashMethod:</text><text x="-83.284" y="478" style="font:500 14px 'Lucida Console',monospace" fill="#530abb">Code(hashMethodCode)</text><text x="-180" y="492" style="font:500 14px 'Lucida Console',monospace" fill="#000000">encryptionMethod:</text><text x="-32.712" y="492" style="font:500 14px 'Lucida Console',monospace" fill="#530abb">Code(encryptionMethodCode)</text><path fill="#FFFFFF" stroke="#aabbccdd" stroke-width="3" d="M514.286 841.429h198.146v92H514.286z"/><path fill="#aabbccdd" stroke="#aabbccdd" d="M515.286 866.429H713.43"/><path fill="none" stroke="#aabbccdd" stroke-width="3" d="M514.286 841.429h198.146v92H514.286z"/><text x="524.286" y="859.429" style="font:700 16px 'Lucida Console',monospace" fill="#000000">untp.Standard</text><text x="524.286" y="883.429" style="font:500 14px 'Lucida Console',monospace" fill="#000000">id:</text><text x="553.572" y="883.429" style="font:500 14px 'Lucida Console',monospace" fill="#C9A30B">URI</text><text x="524.286" y="897.429" style="font:500 14px 'Lucida Console',monospace" fill="#000000">name:</text><text x="570.429" y="897.429" style="font:500 14px 'Lucida Console',monospace" fill="#02b57b">Text</text><text x="524.286" y="911.429" style="font:500 14px 'Lucida Console',monospace" fill="#000000">issuingParty:</text><text x="637.859" y="911.429" style="font:500 14px 'Lucida Console',monospace" fill="#02b57b">Entity</text><text x="524.286" y="925.429" style="font:500 14px 'Lucida Console',monospace" fill="#000000">issueDate:</text><text x="612.573" y="925.429" style="font:500 14px 'Lucida Console',monospace" fill="#02b57b">Date</text><path fill="#FFFFFF" stroke="#aabbccdd" stroke-width="3" d="M730 712.857h353.862v106H730z"/><path fill="#aabbccdd" stroke="#aabbccdd" d="M731 737.857h353.862"/><path fill="none" stroke="#aabbccdd" stroke-width="3" d="M730 712.857h353.862v106H730z"/><text x="740" y="730.857" style="font:700 16px 'Lucida Console',monospace" fill="#000000">untp.Regulation</text><text x="740" y="754.857" style="font:500 14px 'Lucida Console',monospace" fill="#000000">id:</text><text x="769.286" y="754.857" style="font:500 14px 'Lucida Console',monospace" fill="#C9A30B">URI</text><text x="740" y="768.857" style="font:500 14px 'Lucida Console',monospace" fill="#000000">name:</text><text x="786.144" y="768.857" style="font:500 14px 'Lucida Console',monospace" fill="#02b57b">Text</text><text x="740" y="782.857" style="font:500 14px 'Lucida Console',monospace" fill="#000000">jurisdictionCountry:</text><text x="912.574" y="782.857" style="font:500 14px 'Lucida Console',monospace" fill="#530abb">Code(countryCode)</text><text x="740" y="796.857" style="font:500 14px 'Lucida Console',monospace" fill="#000000">administeredBy:</text><text x="870.431" y="796.857" style="font:500 14px 'Lucida Console',monospace" fill="#02b57b">Entity</text><text x="740" y="810.857" style="font:500 14px 'Lucida Console',monospace" fill="#000000">effectiveDate:</text><text x="862.002" y="810.857" style="font:500 14px 'Lucida Console',monospace" fill="#02b57b">Date</text><path fill="#FFFFFF" stroke="#aabbccdd" stroke-width="3" d="M-27.143 692.857h236.289v78H-27.143z"/><path fill="#aabbccdd" stroke="#aabbccdd" d="M-26.143 717.857h236.29"/><path fill="none" stroke="#aabbccdd" stroke-width="3" d="M-27.143 692.857h236.289v78H-27.143z"/><text x="-17.143" y="710.857" style="font:700 16px 'Lucida Console',monospace" fill="#000000">untp.Criterion</text><text x="-17.143" y="734.857" style="font:500 14px 'Lucida Console',monospace" fill="#000000">id:</text><text x="12.143" y="734.857" style="font:500 14px 'Lucida Console',monospace" fill="#C9A30B">URI</text><text x="-17.143" y="748.857" style="font:500 14px 'Lucida Console',monospace" fill="#000000">name:</text><text x="29.001" y="748.857" style="font:500 14px 'Lucida Console',monospace" fill="#02b57b">Text</text><text x="-17.143" y="762.857" style="font:500 14px 'Lucida Console',monospace" fill="#000000">thresholdValues:</text><text x="121.717" y="762.857" style="font:500 14px 'Lucida Console',monospace" fill="#02b57b">Metric[]</text><path fill="#FFFFFF" stroke="#aabbccdd" stroke-width="3" d="M229.353 842.286h198.146v78H229.353z"/><path fill="#aabbccdd" stroke="#aabbccdd" d="M230.353 867.286H428.5"/><path fill="none" stroke="#aabbccdd" stroke-width="3" d="M229.353 842.286h198.146v78H229.353z"/><text x="239.353" y="860.286" style="font:700 16px 'Lucida Console',monospace" fill="#000000">untp.Metric</text><text x="239.353" y="884.286" style="font:500 14px 'Lucida Console',monospace" fill="#000000">metricName:</text><text x="336.069" y="884.286" style="font:500 14px 'Lucida Console',monospace" fill="#02b57b">Text</text><text x="239.353" y="898.286" style="font:500 14px 'Lucida Console',monospace" fill="#000000">metricValue:</text><text x="344.498" y="898.286" style="font:500 14px 'Lucida Console',monospace" fill="#02b57b">Measure</text><text x="239.353" y="912.286" style="font:500 14px 'Lucida Console',monospace" fill="#000000">accuracy:</text><text x="319.212" y="912.286" style="font:500 14px 'Lucida Console',monospace" fill="#02b57b">Numeric</text></svg>