<svg xmlns="http://www.w3.org/2000/svg" viewBox="-188.717 -88 1418.72 1061.429"><rect width="1000%" height="1000%" x="-500%" y="-500%" fill="#EEEEEE"/><path fill="none" stroke="#EEEEEE" stroke-width="8" d="M544.651 324.581l-.01-.01h402.573V478.43"/><defs><linearGradient id="a" x1="0%" x2="50%" y1="0%" y2="50%"><stop offset="0%" stop-color="#3397DA"/><stop offset="100%" stop-color="#aabbccdd"/></linearGradient></defs><path fill="none" stroke="url(#a)" stroke-width="3" d="M544.651 324.581l-.01-.01h402.573V478.43"/><path fill="none" stroke="url(#a)" stroke-width="1.5" d="M967.224 376.939l-2.01-.01v8h2M971.224 376.939l1.99-.01v8h-2"/><path fill="none" stroke="#EEEEEE" stroke-width="8" d="M321.362 204.581l-.01-.01H0v-77.428"/><defs><linearGradient id="b" x1="100%" x2="50%" y1="100%" y2="50%"><stop offset="0%" stop-color="#3397DA"/><stop offset="100%" stop-color="#aabbccdd"/></linearGradient></defs><path fill="none" stroke="url(#b)" stroke-width="3" d="M321.362 204.581l-.01-.01H0v-77.428"/><path fill="none" stroke="#EEEEEE" stroke-width="8" d="M619.081 264.581l-.01-.01h368.715V160.143"/><defs><linearGradient id="c" x1="0%" x2="50%" y1="0%" y2="50%"><stop offset="0%" stop-color="#3397DA"/><stop offset="100%" stop-color="#aabbccdd"/></linearGradient></defs><path fill="none" stroke="url(#c)" stroke-width="3" d="M619.081 264.581l-.01-.01h368.715V160.143"/><path fill="none" stroke="#EEEEEE" stroke-width="8" d="M502.868 715.496l-.01-.01v171.943h110.5"/><defs><linearGradient id="d" x1="0%" x2="50%" y1="0%" y2="50%"><stop offset="0%" stop-color="#3397DA"/><stop offset="100%" stop-color="#aabbccdd"/></linearGradient></defs><path fill="none" stroke="url(#d)" stroke-width="3" d="M502.868 715.496l-.01-.01v171.943h110.5"/><path fill="none" stroke="#EEEEEE" stroke-width="8" d="M579.583 677.096l-.01-.01h327.358v88.771"/><defs><linearGradient id="e" x1="0%" x2="50%" y1="0%" y2="50%"><stop offset="0%" stop-color="#3397DA"/><stop offset="100%" stop-color="#aabbccdd"/></linearGradient></defs><path fill="none" stroke="url(#e)" stroke-width="3" d="M579.583 677.096l-.01-.01h327.358v88.771"/><path fill="none" stroke="#EEEEEE" stroke-width="8" d="M349.437 638.696l-.01-.01H91.002v93.171"/><defs><linearGradient id="f" x1="0%" x2="50%" y1="0%" y2="50%"><stop offset="0%" stop-color="#3397DA"/><stop offset="100%" stop-color="#aabbccdd"/></linearGradient></defs><path fill="none" stroke="url(#f)" stroke-width="3" d="M349.437 638.696l-.01-.01H91.002v93.171"/><path fill="none" stroke="url(#f)" stroke-width="1.5" d="M111.012 672.367l-2.01-.01v8h2M115.012 672.367l1.99-.01v8h-2"/><path fill="none" stroke="#EEEEEE" stroke-width="8" d="M426.153 677.096l-.01-.01v204.2h-97.717"/><defs><linearGradient id="g" x1="0%" x2="50%" y1="0%" y2="50%"><stop offset="0%" stop-color="#3397DA"/><stop offset="100%" stop-color="#aabbccdd"/></linearGradient></defs><path fill="none" stroke="url(#g)" stroke-width="3" d="M426.153 677.096l-.01-.01v204.2h-97.717"/><path fill="none" stroke="url(#g)" stroke-width="1.5" d="M446.153 814.796l-2.01-.01v8h2M450.153 814.796l1.99-.01v8h-2"/><path fill="none" stroke="#EEEEEE" stroke-width="8" d="M472.795.01l-.01-.01v324.571h-2.573"/><defs><linearGradient id="h" x1="0%" x2="50%" y1="0%" y2="50%"><stop offset="0%" stop-color="#3397DA"/><stop offset="100%" stop-color="#3397DA"/></linearGradient></defs><path fill="none" stroke="url(#h)" stroke-width="3" d="M472.795.01l-.01-.01v324.571h-2.573"/><path fill="none" stroke="#EEEEEE" stroke-width="8" d="M470.222 384.581l-.01-.01v311.715H464.5"/><defs><linearGradient id="i" x1="0%" x2="50%" y1="0%" y2="50%"><stop offset="0%" stop-color="#3397DA"/><stop offset="100%" stop-color="#3397DA"/></linearGradient></defs><path fill="none" stroke="url(#i)" stroke-width="3" d="M470.222 384.581l-.01-.01v311.715H464.5"/><path fill="none" stroke="url(#i)" stroke-width="1.5" d="M490.222 579.796l-2.01-.01v8h2M494.222 579.796l1.99-.01v8h-2"/><path fill="none" stroke="#EEEEEE" stroke-width="8" d="M395.792 264.581l-.01-.01H44.286v126.286"/><defs><linearGradient id="j" x1="0%" x2="50%" y1="0%" y2="50%"><stop offset="0%" stop-color="#3397DA"/><stop offset="100%" stop-color="#2ECB70"/></linearGradient></defs><path fill="none" stroke="url(#j)" stroke-width="3" d="M395.792 264.581l-.01-.01H44.286v126.286"/><path fill="#FFFFFF" stroke="#3397DA" stroke-width="3" d="M322.426-68h300.718V68H322.426z"/><path fill="#3397da" stroke="#3397da" d="M323.426-27h300.718"/><path fill="none" stroke="#3397DA" stroke-width="3" d="M322.426-68h300.718V68H322.426z"/><text x="332.426" y="-50" style="font:700 16px 'Lucida Console',monospace" fill="#000000">DigitalProductPassport</text><text x="332.426" y="-34" style="font:500 14px 'Lucida Console',monospace" fill="#999">＜＜untp.VerifiableCredential＞＞</text><text x="332.426" y="-10" style="font:500 14px 'Lucida Console',monospace" fill="#666">@context:</text><text x="412.284" y="-10" style="font:500 14px 'Lucida Console',monospace" fill="#02b57b">Text[]</text><text x="332.426" y="4" style="font:500 14px 'Lucida Console',monospace" fill="#666">id:</text><text x="361.712" y="4" style="font:500 14px 'Lucida Console',monospace" fill="#C9A30B">URI</text><text x="332.426" y="18" style="font:500 14px 'Lucida Console',monospace" fill="#666">issuer:</text><text x="395.427" y="18" style="font:500 14px 'Lucida Console',monospace" fill="#02b57b">CredentialIssuer</text><text x="332.426" y="32" style="font:500 14px 'Lucida Console',monospace" fill="#666">validFrom:</text><text x="420.713" y="32" style="font:500 14px 'Lucida Console',monospace" fill="#02b57b">DateTime</text><text x="332.426" y="46" style="font:500 14px 'Lucida Console',monospace" fill="#666">validUntil:</text><text x="429.142" y="46" style="font:500 14px 'Lucida Console',monospace" fill="#02b57b">DateTime</text><text x="332.426" y="60" style="font:500 14px 'Lucida Console',monospace" fill="#000000">credentialSubject:</text><text x="488.143" y="60" style="font:500 14px 'Lucida Console',monospace" fill="#3397DA">Product</text><path fill="#FFFFFF" stroke="#3397DA" stroke-width="3" d="M246.923 144.571h446.578v360H246.923z"/><path fill="#3397da" stroke="#3397da" d="M247.923 185.571H694.5"/><path fill="none" stroke="#3397DA" stroke-width="3" d="M246.923 144.571h446.578v360H246.923z"/><text x="256.923" y="162.571" style="font:700 16px 'Lucida Console',monospace" fill="#000000">Product</text><text x="256.923" y="178.571" style="font:500 14px 'Lucida Console',monospace" fill="#999">＜＜untp.Product＞＞</text><text x="256.923" y="202.571" style="font:500 14px 'Lucida Console',monospace" fill="#000000">id:</text><text x="286.209" y="202.571" style="font:500 14px 'Lucida Console',monospace" fill="#C9A30B">URI</text><text x="256.923" y="216.571" style="font:500 14px 'Lucida Console',monospace" fill="#000000">name:</text><text x="303.066" y="216.571" style="font:500 14px 'Lucida Console',monospace" fill="#547000">Text</text><text x="256.923" y="230.571" style="font:500 14px 'Lucida Console',monospace" fill="#000000">registeredId:</text><text x="370.496" y="230.571" style="font:500 14px 'Lucida Console',monospace" fill="#547000">Text</text><text x="256.923" y="244.571" style="font:500 14px 'Lucida Console',monospace" fill="#000000">idScheme:</text><text x="336.781" y="244.571" style="font:500 14px 'Lucida Console',monospace" fill="#547000">untp.IdentifierScheme</text><text x="256.923" y="258.571" style="font:500 14px 'Lucida Console',monospace" fill="#000000">serialNumber:</text><text x="370.496" y="258.571" style="font:500 14px 'Lucida Console',monospace" fill="#547000">Text</text><text x="256.923" y="272.571" style="font:500 14px 'Lucida Console',monospace" fill="#000000">batchNumber:</text><text x="362.067" y="272.571" style="font:500 14px 'Lucida Console',monospace" fill="#547000">Text</text><text x="256.923" y="286.571" style="font:500 14px 'Lucida Console',monospace" fill="#000000">productImage:</text><text x="370.496" y="286.571" style="font:500 14px 'Lucida Console',monospace" fill="#547000">untp.Link</text><text x="256.923" y="300.571" style="font:500 14px 'Lucida Console',monospace" fill="#000000">description:</text><text x="362.067" y="300.571" style="font:500 14px 'Lucida Console',monospace" fill="#547000">Text</text><text x="256.923" y="314.571" style="font:500 14px 'Lucida Console',monospace" fill="#000000">productCategory:</text><text x="395.782" y="314.571" style="font:500 14px 'Lucida Console',monospace" fill="#547000">untp.Classification[]</text><text x="256.923" y="328.571" style="font:500 14px 'Lucida Console',monospace" fill="#000000">furtherInformation:</text><text x="421.068" y="328.571" style="font:500 14px 'Lucida Console',monospace" fill="#547000">untp.Link[]</text><text x="256.923" y="342.571" style="font:500 14px 'Lucida Console',monospace" fill="#000000">producedByParty:</text><text x="395.782" y="342.571" style="font:500 14px 'Lucida Console',monospace" fill="#547000">untp.Identifier</text><text x="256.923" y="356.571" style="font:500 14px 'Lucida Console',monospace" fill="#000000">producedAtFacility:</text><text x="421.068" y="356.571" style="font:500 14px 'Lucida Console',monospace" fill="#547000">untp.Identifier</text><text x="256.923" y="370.571" style="font:500 14px 'Lucida Console',monospace" fill="#000000">dimensions:</text><text x="353.638" y="370.571" style="font:500 14px 'Lucida Console',monospace" fill="#547000">untp.Dimension</text><text x="256.923" y="384.571" style="font:500 14px 'Lucida Console',monospace" fill="#000000">productionDate:</text><text x="387.353" y="384.571" style="font:500 14px 'Lucida Console',monospace" fill="#547000">Date</text><text x="256.923" y="398.571" style="font:500 14px 'Lucida Console',monospace" fill="#000000">countryOfProduction:</text><text x="429.497" y="398.571" style="font:500 14px 'Lucida Console',monospace" fill="#547000">Code(countryCode)</text><text x="256.923" y="412.571" style="font:500 14px 'Lucida Console',monospace" fill="#000000">granularityLevel:</text><text x="404.211" y="412.571" style="font:500 14px 'Lucida Console',monospace" fill="#530abb">Code(granularityCode)</text><text x="256.923" y="426.571" style="font:500 14px 'Lucida Console',monospace" fill="#000000">dueDiligenceDeclaration:</text><text x="463.212" y="426.571" style="font:500 14px 'Lucida Console',monospace" fill="#547000">untp.Link</text><text x="256.923" y="440.571" style="font:500 14px 'Lucida Console',monospace" fill="#000000">materialsProvenance:</text><text x="429.497" y="440.571" style="font:500 14px 'Lucida Console',monospace" fill="#547000">untp.Material[]</text><text x="256.923" y="454.571" style="font:500 14px 'Lucida Console',monospace" fill="#000000">conformityClaim:</text><text x="395.782" y="454.571" style="font:500 14px 'Lucida Console',monospace" fill="#3397DA">Claim[]</text><text x="256.923" y="468.571" style="font:500 14px 'Lucida Console',monospace" fill="#000000">circularityScorecard:</text><text x="437.926" y="468.571" style="font:500 14px 'Lucida Console',monospace" fill="#547000">untp.CircularityPerformance</text><text x="256.923" y="482.571" style="font:500 14px 'Lucida Console',monospace" fill="#000000">emissionsScorecard:</text><text x="421.068" y="482.571" style="font:500 14px 'Lucida Console',monospace" fill="#547000">untp.EmissionsPerformance</text><text x="256.923" y="496.571" style="font:500 14px 'Lucida Console',monospace" fill="#000000">traceabilityInformation:</text><text x="463.212" y="496.571" style="font:500 14px 'Lucida Console',monospace" fill="#2ECB70">TraceabilityPerformance</text><path fill="#FFFFFF" stroke="#3397DA" stroke-width="3" d="M272.712 600.286h383.577v192H272.712z"/><path fill="#3397da" stroke="#3397da" d="M273.712 641.286h383.577"/><path fill="none" stroke="#3397DA" stroke-width="3" d="M272.712 600.286h383.577v192H272.712z"/><text x="282.712" y="618.286" style="font:700 16px 'Lucida Console',monospace" fill="#000000">Claim</text><text x="282.712" y="634.286" style="font:500 14px 'Lucida Console',monospace" fill="#999">＜＜untp.Declaration＞＞</text><text x="282.712" y="658.286" style="font:500 14px 'Lucida Console',monospace" fill="#666">assessmentDate:</text><text x="413.142" y="658.286" style="font:500 14px 'Lucida Console',monospace" fill="#02b57b">Date</text><text x="282.712" y="672.286" style="font:500 14px 'Lucida Console',monospace" fill="#666">declaredValue:</text><text x="404.714" y="672.286" style="font:500 14px 'Lucida Console',monospace" fill="#02b57b">Metric[]</text><text x="282.712" y="686.286" style="font:500 14px 'Lucida Console',monospace" fill="#000000">id:</text><text x="311.998" y="686.286" style="font:500 14px 'Lucida Console',monospace" fill="#C9A30B">URI</text><text x="282.712" y="700.286" style="font:500 14px 'Lucida Console',monospace" fill="#000000">referenceStandard:</text><text x="438.429" y="700.286" style="font:500 14px 'Lucida Console',monospace" fill="#547000">untp.Standard</text><text x="282.712" y="714.286" style="font:500 14px 'Lucida Console',monospace" fill="#000000">referenceRegulation:</text><text x="455.286" y="714.286" style="font:500 14px 'Lucida Console',monospace" fill="#547000">untp.Regulation</text><text x="282.712" y="728.286" style="font:500 14px 'Lucida Console',monospace" fill="#000000">assessmentCriteria:</text><text x="446.857" y="728.286" style="font:500 14px 'Lucida Console',monospace" fill="#547000">untp.Criterion[]</text><text x="282.712" y="742.286" style="font:500 14px 'Lucida Console',monospace" fill="#000000">declaredValues:</text><text x="413.142" y="742.286" style="font:500 14px 'Lucida Console',monospace" fill="#547000">untp.Metric[]</text><text x="282.712" y="756.286" style="font:500 14px 'Lucida Console',monospace" fill="#000000">conformance:</text><text x="387.856" y="756.286" style="font:500 14px 'Lucida Console',monospace" fill="#547000">Indicator</text><text x="282.712" y="770.286" style="font:500 14px 'Lucida Console',monospace" fill="#000000">conformityTopic:</text><text x="421.571" y="770.286" style="font:500 14px 'Lucida Console',monospace" fill="#547000">Code(conformityTopicCode)</text><text x="282.712" y="784.286" style="font:500 14px 'Lucida Console',monospace" fill="#000000">conformityEvidence:</text><text x="446.857" y="784.286" style="font:500 14px 'Lucida Console',monospace" fill="#547000">untp.SecureLink</text><path fill="#FFFFFF" stroke="#2ECB70" stroke-width="3" d="M-120.217 351.857h329.005v78h-329.005z"/><path fill="#2ecb70" stroke="#2ecb70" d="M-119.217 376.857h329.005"/><path fill="none" stroke="#2ECB70" stroke-width="3" d="M-120.217 351.857h329.005v78h-329.005z"/><text x="-110.217" y="369.857" style="font:700 16px 'Lucida Console',monospace" fill="#000000">TraceabilityPerformance</text><text x="-110.217" y="393.857" style="font:500 14px 'Lucida Console',monospace" fill="#000000">valueChainProcess:</text><text x="45.5" y="393.857" style="font:500 14px 'Lucida Console',monospace" fill="#02b57b">Text</text><text x="-110.217" y="407.857" style="font:500 14px 'Lucida Console',monospace" fill="#000000">verifiedRatio:</text><text x="11.785" y="407.857" style="font:500 14px 'Lucida Console',monospace" fill="#02b57b">Numeric</text><text x="-110.217" y="421.857" style="font:500 14px 'Lucida Console',monospace" fill="#000000">traceabilityEvent:</text><text x="45.5" y="421.857" style="font:500 14px 'Lucida Console',monospace" fill="#547000">untp.SecureLink[]</text><path fill="#FFFFFF" stroke="#aabbccdd" stroke-width="3" d="M785.569 397.429h323.29v162h-323.29z"/><path fill="#aabbccdd" stroke="#aabbccdd" d="M786.569 422.429h323.29"/><path fill="none" stroke="#aabbccdd" stroke-width="3" d="M785.569 397.429h323.29v162h-323.29z"/><text x="795.569" y="415.429" style="font:700 16px 'Lucida Console',monospace" fill="#000000">untp.Material</text><text x="795.569" y="439.429" style="font:500 14px 'Lucida Console',monospace" fill="#000000">name:</text><text x="841.712" y="439.429" style="font:500 14px 'Lucida Console',monospace" fill="#02b57b">Text</text><text x="795.569" y="453.429" style="font:500 14px 'Lucida Console',monospace" fill="#000000">originCountry:</text><text x="917.571" y="453.429" style="font:500 14px 'Lucida Console',monospace" fill="#530abb">Code(countryCode)</text><text x="795.569" y="467.429" style="font:500 14px 'Lucida Console',monospace" fill="#000000">materialType:</text><text x="909.142" y="467.429" style="font:500 14px 'Lucida Console',monospace" fill="#02b57b">Classification</text><text x="795.569" y="481.429" style="font:500 14px 'Lucida Console',monospace" fill="#000000">massFraction:</text><text x="909.142" y="481.429" style="font:500 14px 'Lucida Console',monospace" fill="#02b57b">Numeric</text><text x="795.569" y="495.429" style="font:500 14px 'Lucida Console',monospace" fill="#000000">massAmount:</text><text x="892.285" y="495.429" style="font:500 14px 'Lucida Console',monospace" fill="#02b57b">Measure</text><text x="795.569" y="509.429" style="font:500 14px 'Lucida Console',monospace" fill="#000000">recycledAmount:</text><text x="926" y="509.429" style="font:500 14px 'Lucida Console',monospace" fill="#02b57b">Numeric</text><text x="795.569" y="523.429" style="font:500 14px 'Lucida Console',monospace" fill="#000000">hazardous:</text><text x="883.856" y="523.429" style="font:500 14px 'Lucida Console',monospace" fill="#02b57b">Indicator</text><text x="795.569" y="537.429" style="font:500 14px 'Lucida Console',monospace" fill="#000000">symbol:</text><text x="858.57" y="537.429" style="font:500 14px 'Lucida Console',monospace" fill="#02b57b">Binary</text><text x="795.569" y="551.429" style="font:500 14px 'Lucida Console',monospace" fill="#000000">materialSafetyInformation:</text><text x="1018.715" y="551.429" style="font:500 14px 'Lucida Console',monospace" fill="#02b57b">Link</text><path fill="#FFFFFF" stroke="#aabbccdd" stroke-width="3" d="M-168.717 67.143h337.434v120h-337.434z"/><path fill="#aabbccdd" stroke="#aabbccdd" d="M-167.717 92.143h337.434"/><path fill="none" stroke="#aabbccdd" stroke-width="3" d="M-168.717 67.143h337.434v120h-337.434z"/><text x="-158.717" y="85.143" style="font:700 16px 'Lucida Console',monospace" fill="#000000">untp.CircularityPerformance</text><text x="-158.717" y="109.143" style="font:500 14px 'Lucida Console',monospace" fill="#000000">recyclingInformation:</text><text x="22.286" y="109.143" style="font:500 14px 'Lucida Console',monospace" fill="#02b57b">Link</text><text x="-158.717" y="123.143" style="font:500 14px 'Lucida Console',monospace" fill="#000000">repairInformation:</text><text x="-3" y="123.143" style="font:500 14px 'Lucida Console',monospace" fill="#02b57b">Link</text><text x="-158.717" y="137.143" style="font:500 14px 'Lucida Console',monospace" fill="#000000">recyclableContent:</text><text x="-3" y="137.143" style="font:500 14px 'Lucida Console',monospace" fill="#02b57b">Decimal</text><text x="-158.717" y="151.143" style="font:500 14px 'Lucida Console',monospace" fill="#000000">recycledContent:</text><text x="-19.857" y="151.143" style="font:500 14px 'Lucida Console',monospace" fill="#02b57b">Decimal</text><text x="-158.717" y="165.143" style="font:500 14px 'Lucida Console',monospace" fill="#000000">utilityFactor:</text><text x="-36.715" y="165.143" style="font:500 14px 'Lucida Console',monospace" fill="#02b57b">Decimal</text><text x="-158.717" y="179.143" style="font:500 14px 'Lucida Console',monospace" fill="#000000">materialCircularityIndicator:</text><text x="89.716" y="179.143" style="font:500 14px 'Lucida Console',monospace" fill="#02b57b">Decimal</text><path fill="#FFFFFF" stroke="#aabbccdd" stroke-width="3" d="M785.569 107.143h404.435v106H785.569z"/><path fill="#aabbccdd" stroke="#aabbccdd" d="M786.569 132.143h404.434"/><path fill="none" stroke="#aabbccdd" stroke-width="3" d="M785.569 107.143h404.435v106H785.569z"/><text x="795.569" y="125.143" style="font:700 16px 'Lucida Console',monospace" fill="#000000">untp.EmissionsPerformance</text><text x="795.569" y="149.143" style="font:500 14px 'Lucida Console',monospace" fill="#000000">carbonFootprint:</text><text x="934.428" y="149.143" style="font:500 14px 'Lucida Console',monospace" fill="#02b57b">Decimal</text><text x="795.569" y="163.143" style="font:500 14px 'Lucida Console',monospace" fill="#000000">declaredUnit:</text><text x="909.142" y="163.143" style="font:500 14px 'Lucida Console',monospace" fill="#530abb">Code(unitOfMeasure)</text><text x="795.569" y="177.143" style="font:500 14px 'Lucida Console',monospace" fill="#000000">operationalScope:</text><text x="942.857" y="177.143" style="font:500 14px 'Lucida Console',monospace" fill="#530abb">Code(operationalScopeCode)</text><text x="795.569" y="191.143" style="font:500 14px 'Lucida Console',monospace" fill="#000000">primarySourcedRatio:</text><text x="968.143" y="191.143" style="font:500 14px 'Lucida Console',monospace" fill="#02b57b">Decimal</text><text x="795.569" y="205.143" style="font:500 14px 'Lucida Console',monospace" fill="#000000">reportingStandard:</text><text x="951.286" y="205.143" style="font:500 14px 'Lucida Console',monospace" fill="#02b57b">Standard</text><path fill="#FFFFFF" stroke="#aabbccdd" stroke-width="3" d="M497.428 841.429h231.86v92h-231.86z"/><path fill="#aabbccdd" stroke="#aabbccdd" d="M498.428 866.429h231.86"/><path fill="none" stroke="#aabbccdd" stroke-width="3" d="M497.428 841.429h231.86v92h-231.86z"/><text x="507.428" y="859.429" style="font:700 16px 'Lucida Console',monospace" fill="#000000">untp.Standard</text><text x="507.428" y="883.429" style="font:500 14px 'Lucida Console',monospace" fill="#000000">id:</text><text x="536.714" y="883.429" style="font:500 14px 'Lucida Console',monospace" fill="#C9A30B">URI</text><text x="507.428" y="897.429" style="font:500 14px 'Lucida Console',monospace" fill="#000000">name:</text><text x="553.572" y="897.429" style="font:500 14px 'Lucida Console',monospace" fill="#02b57b">Text</text><text x="507.428" y="911.429" style="font:500 14px 'Lucida Console',monospace" fill="#000000">issuingParty:</text><text x="621.002" y="911.429" style="font:500 14px 'Lucida Console',monospace" fill="#02b57b">Identifier</text><text x="507.428" y="925.429" style="font:500 14px 'Lucida Console',monospace" fill="#000000">issueDate:</text><text x="595.715" y="925.429" style="font:500 14px 'Lucida Console',monospace" fill="#02b57b">Date</text><path fill="#FFFFFF" stroke="#aabbccdd" stroke-width="3" d="M730 712.857h353.862v106H730z"/><path fill="#aabbccdd" stroke="#aabbccdd" d="M731 737.857h353.862"/><path fill="none" stroke="#aabbccdd" stroke-width="3" d="M730 712.857h353.862v106H730z"/><text x="740" y="730.857" style="font:700 16px 'Lucida Console',monospace" fill="#000000">untp.Regulation</text><text x="740" y="754.857" style="font:500 14px 'Lucida Console',monospace" fill="#000000">id:</text><text x="769.286" y="754.857" style="font:500 14px 'Lucida Console',monospace" fill="#C9A30B">URI</text><text x="740" y="768.857" style="font:500 14px 'Lucida Console',monospace" fill="#000000">name:</text><text x="786.144" y="768.857" style="font:500 14px 'Lucida Console',monospace" fill="#02b57b">Text</text><text x="740" y="782.857" style="font:500 14px 'Lucida Console',monospace" fill="#000000">jurisdictionCountry:</text><text x="912.574" y="782.857" style="font:500 14px 'Lucida Console',monospace" fill="#530abb">Code(countryCode)</text><text x="740" y="796.857" style="font:500 14px 'Lucida Console',monospace" fill="#000000">administeredBy:</text><text x="870.431" y="796.857" style="font:500 14px 'Lucida Console',monospace" fill="#02b57b">Identifier</text><text x="740" y="810.857" style="font:500 14px 'Lucida Console',monospace" fill="#000000">effectiveDate:</text><text x="862.002" y="810.857" style="font:500 14px 'Lucida Console',monospace" fill="#02b57b">Date</text><path fill="#FFFFFF" stroke="#aabbccdd" stroke-width="3" d="M-27.143 692.857h236.289v78H-27.143z"/><path fill="#aabbccdd" stroke="#aabbccdd" d="M-26.143 717.857h236.29"/><path fill="none" stroke="#aabbccdd" stroke-width="3" d="M-27.143 692.857h236.289v78H-27.143z"/><text x="-17.143" y="710.857" style="font:700 16px 'Lucida Console',monospace" fill="#000000">untp.Criterion</text><text x="-17.143" y="734.857" style="font:500 14px 'Lucida Console',monospace" fill="#000000">id:</text><text x="12.143" y="734.857" style="font:500 14px 'Lucida Console',monospace" fill="#C9A30B">URI</text><text x="-17.143" y="748.857" style="font:500 14px 'Lucida Console',monospace" fill="#000000">name:</text><text x="29.001" y="748.857" style="font:500 14px 'Lucida Console',monospace" fill="#02b57b">Text</text><text x="-17.143" y="762.857" style="font:500 14px 'Lucida Console',monospace" fill="#000000">thresholdValues:</text><text x="121.717" y="762.857" style="font:500 14px 'Lucida Console',monospace" fill="#02b57b">Metric[]</text><path fill="#FFFFFF" stroke="#aabbccdd" stroke-width="3" d="M227.353 835.286h202.146v92H227.353z"/><path fill="#aabbccdd" stroke="#aabbccdd" d="M228.353 860.286H430.5"/><path fill="none" stroke="#aabbccdd" stroke-width="3" d="M227.353 835.286h202.146v92H227.353z"/><text x="237.353" y="853.286" style="font:700 16px 'Lucida Console',monospace" fill="#000000">untp.Metric</text><text x="237.353" y="877.286" style="font:500 14px 'Lucida Console',monospace" fill="#000000">metricName:</text><text x="334.069" y="877.286" style="font:500 14px 'Lucida Console',monospace" fill="#02b57b">Text</text><text x="237.353" y="891.286" style="font:500 14px 'Lucida Console',monospace" fill="#000000">metricValue:</text><text x="342.498" y="891.286" style="font:500 14px 'Lucida Console',monospace" fill="#02b57b">Measure</text><text x="237.353" y="905.286" style="font:500 14px 'Lucida Console',monospace" fill="#000000">score:</text><text x="291.926" y="905.286" style="font:500 14px 'Lucida Console',monospace" fill="#02b57b">Text</text><text x="237.353" y="919.286" style="font:500 14px 'Lucida Console',monospace" fill="#000000">accuracy:</text><text x="317.212" y="919.286" style="font:500 14px 'Lucida Console',monospace" fill="#02b57b">Numeric</text></svg>