<svg xmlns="http://www.w3.org/2000/svg" viewBox="342.857 -88 460.633 639.857"><rect width="1000%" height="1000%" x="-500%" y="-500%" fill="#EEEEEE"/><path fill="none" stroke="#EEEEEE" stroke-width="8" d="M561.007 227.867l-.01-.01v196h2.177"/><defs><linearGradient id="a" x1="0%" x2="50%" y1="0%" y2="50%"><stop offset="0%" stop-color="#3397DA"/><stop offset="100%" stop-color="#aabbccdd"/></linearGradient></defs><path fill="none" stroke="url(#a)" stroke-width="3" d="M561.007 227.867l-.01-.01v196h2.177"/><path fill="none" stroke="url(#a)" stroke-width="1.5" d="M581.007 315.367l-2.01-.01v8h2M585.007 315.367l1.99-.01v8h-2"/><path fill="none" stroke="#EEEEEE" stroke-width="8" d="M559.433.01l-.01-.01v227.857h1.574"/><defs><linearGradient id="b" x1="0%" x2="50%" y1="0%" y2="50%"><stop offset="0%" stop-color="#3397DA"/><stop offset="100%" stop-color="#3397DA"/></linearGradient></defs><path fill="none" stroke="url(#b)" stroke-width="3" d="M559.433.01l-.01-.01v227.857h1.574"/><path fill="#FFFFFF" stroke="#3397DA" stroke-width="3" d="M399.056-68h320.733V68H399.056z"/><path fill="#3397da" stroke="#3397da" d="M400.056-27H720.79"/><path fill="none" stroke="#3397DA" stroke-width="3" d="M399.056-68h320.733V68H399.056z"/><text style="font:700 16px 'Lucida Console',monospace" x="409.056" y="-50" fill="#000000">DigitalFacilityRecord</text><text style="font:300 14px 'Lucida Console',monospace" x="409.056" y="-34" fill="#999">＜＜untp.VerifiableCredential＞＞</text><text style="font:700 14px 'Lucida Console',monospace" x="409.056" y="-10" fill="#666">* @context:</text><text style="font:300 14px 'Lucida Console',monospace" x="505.823" y="-10" fill="#02b57b">Text[]</text><text style="font:700 14px 'Lucida Console',monospace" x="409.056" y="4" fill="#666">* id:</text><text style="font:300 14px 'Lucida Console',monospace" x="455.223" y="4" fill="#C9A30B">URI</text><text style="font:700 14px 'Lucida Console',monospace" x="409.056" y="18" fill="#666">* issuer:</text><text style="font:300 14px 'Lucida Console',monospace" x="488.956" y="18" fill="#02b57b">CredentialIssuer</text><text style="font:300 14px 'Lucida Console',monospace" x="425.923" y="32" fill="#666">validFrom:</text><text style="font:300 14px 'Lucida Console',monospace" x="514.256" y="32" fill="#02b57b">DateTime</text><text style="font:300 14px 'Lucida Console',monospace" x="425.923" y="46" fill="#666">validUntil:</text><text style="font:300 14px 'Lucida Console',monospace" x="522.69" y="46" fill="#02b57b">DateTime</text><text style="font:300 14px 'Lucida Console',monospace" x="425.923" y="60" fill="#000000">credentialSubject:</text><text style="font:300 14px 'Lucida Console',monospace" x="581.723" y="60" fill="#3397DA">FacilityRecord</text><path fill="#FFFFFF" stroke="#3397DA" stroke-width="3" d="M425.93 188.857h270.133v78H425.93z"/><path fill="#3397da" stroke="#3397da" d="M426.93 213.857h270.134"/><path fill="none" stroke="#3397DA" stroke-width="3" d="M425.93 188.857h270.133v78H425.93z"/><text style="font:700 16px 'Lucida Console',monospace" x="435.93" y="206.857" fill="#000000">FacilityRecord</text><text style="font:300 14px 'Lucida Console',monospace" x="435.93" y="230.857" fill="#000000">id:</text><text style="font:300 14px 'Lucida Console',monospace" x="465.23" y="230.857" fill="#C9A30B">URI</text><text style="font:300 14px 'Lucida Console',monospace" x="435.93" y="244.857" fill="#000000">facility:</text><text style="font:300 14px 'Lucida Console',monospace" x="515.83" y="244.857" fill="#547000">untp.Facility</text><text style="font:300 14px 'Lucida Console',monospace" x="435.93" y="258.857" fill="#000000">conformityClaim:</text><text style="font:300 14px 'Lucida Console',monospace" x="574.864" y="258.857" fill="#547000">untp.Claim[]</text><path fill="#FFFFFF" stroke="#aabbccdd" stroke-width="3" d="M362.857 335.857H763.49v176H362.857z"/><path fill="#aabbccdd" stroke="#aabbccdd" d="M363.857 360.857H764.49"/><path fill="none" stroke="#aabbccdd" stroke-width="3" d="M362.857 335.857H763.49v176H362.857z"/><text style="font:700 16px 'Lucida Console',monospace" x="372.857" y="353.857" fill="#000000">untp.Claim</text><text style="font:700 14px 'Lucida Console',monospace" x="372.857" y="377.857" fill="#666">* id:</text><text style="font:300 14px 'Lucida Console',monospace" x="419.024" y="377.857" fill="#C9A30B">URI</text><text style="font:300 14px 'Lucida Console',monospace" x="389.724" y="391.857" fill="#666">description:</text><text style="font:300 14px 'Lucida Console',monospace" x="494.924" y="391.857" fill="#02b57b">Text</text><text style="font:300 14px 'Lucida Console',monospace" x="389.724" y="405.857" fill="#666">referenceStandard:</text><text style="font:300 14px 'Lucida Console',monospace" x="545.524" y="405.857" fill="#02b57b">Standard</text><text style="font:300 14px 'Lucida Console',monospace" x="389.724" y="419.857" fill="#666">referenceRegulation:</text><text style="font:300 14px 'Lucida Console',monospace" x="562.39" y="419.857" fill="#02b57b">Regulation</text><text style="font:300 14px 'Lucida Console',monospace" x="389.724" y="433.857" fill="#666">assessmentCriteria:</text><text style="font:300 14px 'Lucida Console',monospace" x="553.957" y="433.857" fill="#02b57b">Criterion[]</text><text style="font:300 14px 'Lucida Console',monospace" x="389.724" y="447.857" fill="#666">assessmentDate:</text><text style="font:300 14px 'Lucida Console',monospace" x="520.224" y="447.857" fill="#02b57b">Date</text><text style="font:300 14px 'Lucida Console',monospace" x="389.724" y="461.857" fill="#666">declaredValue:</text><text style="font:300 14px 'Lucida Console',monospace" x="511.79" y="461.857" fill="#02b57b">Metric[]</text><text style="font:700 14px 'Lucida Console',monospace" x="372.857" y="475.857" fill="#666">* conformance:</text><text style="font:300 14px 'Lucida Console',monospace" x="494.924" y="475.857" fill="#02b57b">Indicator</text><text style="font:700 14px 'Lucida Console',monospace" x="372.857" y="489.857" fill="#666">* conformityTopic:</text><text style="font:300 14px 'Lucida Console',monospace" x="528.657" y="489.857" fill="#530abb">Code(conformityTopicCode)</text><text style="font:300 14px 'Lucida Console',monospace" x="389.724" y="503.857" fill="#000000">conformityEvidence:</text><text style="font:300 14px 'Lucida Console',monospace" x="553.957" y="503.857" fill="#02b57b">SecureLink</text></svg>