<svg xmlns="http://www.w3.org/2000/svg" viewBox="-4.286 -88 1162.434 998"><rect width="1000%" height="1000%" x="-500%" y="-500%" fill="#EEEEEE"/><path fill="none" stroke="#EEEEEE" stroke-width="8" d="M581.034 302.2l-.01-.01H927.93V369"/><defs><linearGradient id="a" x1="0%" x2="50%" y1="0%" y2="50%"><stop offset="0%" stop-color="#3397DA"/><stop offset="100%" stop-color="#aabbccdd"/></linearGradient></defs><path fill="none" stroke="url(#a)" stroke-width="3" d="M581.034 302.2l-.01-.01H927.93V369"/><path fill="none" stroke="#EEEEEE" stroke-width="8" d="M642.155 563.534l-.01-.01h306.928V496"/><defs><linearGradient id="b" x1="0%" x2="50%" y1="0%" y2="50%"><stop offset="0%" stop-color="#3397DA"/><stop offset="100%" stop-color="#aabbccdd"/></linearGradient></defs><path fill="none" stroke="url(#b)" stroke-width="3" d="M642.155 563.534l-.01-.01h306.928V496"/><path fill="none" stroke="#EEEEEE" stroke-width="8" d="M578.225 590.867l-.01-.01h363.002v105"/><defs><linearGradient id="c" x1="0%" x2="50%" y1="0%" y2="50%"><stop offset="0%" stop-color="#3397DA"/><stop offset="100%" stop-color="#aabbccdd"/></linearGradient></defs><path fill="none" stroke="url(#c)" stroke-width="3" d="M578.225 590.867l-.01-.01h363.002v105"/><path fill="none" stroke="#EEEEEE" stroke-width="8" d="M386.437 536.2l-.01-.01H133.859V439"/><defs><linearGradient id="d" x1="100%" x2="50%" y1="100%" y2="50%"><stop offset="0%" stop-color="#3397DA"/><stop offset="100%" stop-color="#aabbccdd"/></linearGradient></defs><path fill="none" stroke="url(#d)" stroke-width="3" d="M386.437 536.2l-.01-.01H133.859V439"/><path fill="none" stroke="url(#d)" stroke-width="1.5" d="M153.869 498.51l-2.01-.01v8h2M157.869 498.51l1.99-.01v8h-2"/><path fill="none" stroke="#EEEEEE" stroke-width="8" d="M450.366 563.534l-.01-.01H141.93v101.19"/><defs><linearGradient id="e" x1="0%" x2="50%" y1="0%" y2="50%"><stop offset="0%" stop-color="#3397DA"/><stop offset="100%" stop-color="#aabbccdd"/></linearGradient></defs><path fill="none" stroke="url(#e)" stroke-width="3" d="M450.366 563.534l-.01-.01H141.93v101.19"/><path fill="none" stroke="url(#e)" stroke-width="1.5" d="M161.94 605.224l-2.01-.01v8h2M165.94 605.224l1.99-.01v8h-2"/><path fill="none" stroke="#EEEEEE" stroke-width="8" d="M514.296 618.2l-.01-.01V810h-16.069"/><defs><linearGradient id="f" x1="0%" x2="50%" y1="0%" y2="50%"><stop offset="0%" stop-color="#3397DA"/><stop offset="100%" stop-color="#aabbccdd"/></linearGradient></defs><path fill="none" stroke="url(#f)" stroke-width="3" d="M514.296 618.2l-.01-.01V810h-16.069"/><path fill="none" stroke="#EEEEEE" stroke-width="8" d="M507.793.01l-.01-.01v267.857h13.002"/><defs><linearGradient id="g" x1="0%" x2="50%" y1="0%" y2="50%"><stop offset="0%" stop-color="#3397DA"/><stop offset="100%" stop-color="#3397DA"/></linearGradient></defs><path fill="none" stroke="url(#g)" stroke-width="3" d="M507.793.01l-.01-.01v267.857h13.002"/><path fill="none" stroke="#EEEEEE" stroke-width="8" d="M460.556 233.534l-.01-.01v357.333h53.74"/><defs><linearGradient id="h" x1="0%" x2="50%" y1="0%" y2="50%"><stop offset="0%" stop-color="#3397DA"/><stop offset="100%" stop-color="#3397DA"/></linearGradient></defs><path fill="none" stroke="url(#h)" stroke-width="3" d="M460.556 233.534l-.01-.01v357.333h53.74"/><path fill="none" stroke="url(#h)" stroke-width="1.5" d="M480.556 488.367l-2.01-.01v8h2M484.556 488.367l1.99-.01v8h-2"/><path fill="#FFFFFF" stroke="#3397DA" stroke-width="3" d="M357.424-68h300.718V68H357.424z"/><path fill="#3397da" stroke="#3397da" d="M358.424-27h300.718"/><path fill="none" stroke="#3397DA" stroke-width="3" d="M357.424-68h300.718V68H357.424z"/><text x="367.424" y="-50" style="font:700 16px 'Lucida Console',monospace" fill="#000000">DigitalFacilityRecord</text><text x="367.424" y="-34" style="font:500 14px 'Lucida Console',monospace" fill="#999">＜＜untp.VerifiableCredential＞＞</text><text x="367.424" y="-10" style="font:500 14px 'Lucida Console',monospace" fill="#666">@context:</text><text x="447.282" y="-10" style="font:500 14px 'Lucida Console',monospace" fill="#02b57b">Text[]</text><text x="367.424" y="4" style="font:500 14px 'Lucida Console',monospace" fill="#666">id:</text><text x="396.71" y="4" style="font:500 14px 'Lucida Console',monospace" fill="#C9A30B">URI</text><text x="367.424" y="18" style="font:500 14px 'Lucida Console',monospace" fill="#666">issuer:</text><text x="430.425" y="18" style="font:500 14px 'Lucida Console',monospace" fill="#02b57b">CredentialIssuer</text><text x="367.424" y="32" style="font:500 14px 'Lucida Console',monospace" fill="#666">validFrom:</text><text x="455.711" y="32" style="font:500 14px 'Lucida Console',monospace" fill="#02b57b">DateTime</text><text x="367.424" y="46" style="font:500 14px 'Lucida Console',monospace" fill="#666">validUntil:</text><text x="464.14" y="46" style="font:500 14px 'Lucida Console',monospace" fill="#02b57b">DateTime</text><text x="367.424" y="60" style="font:500 14px 'Lucida Console',monospace" fill="#000000">credentialSubject:</text><text x="523.141" y="60" style="font:500 14px 'Lucida Console',monospace" fill="#3397DA">Facility</text><path fill="#FFFFFF" stroke="#3397DA" stroke-width="3" d="M340.068 164.857h361.434v206H340.068z"/><path fill="#3397da" stroke="#3397da" d="M341.068 205.857h361.434"/><path fill="none" stroke="#3397DA" stroke-width="3" d="M340.068 164.857h361.434v206H340.068z"/><text x="350.068" y="182.857" style="font:700 16px 'Lucida Console',monospace" fill="#000000">Facility</text><text x="350.068" y="198.857" style="font:500 14px 'Lucida Console',monospace" fill="#999">＜＜untp.Facility＞＞</text><text x="350.068" y="222.857" style="font:500 14px 'Lucida Console',monospace" fill="#666">id:</text><text x="379.355" y="222.857" style="font:500 14px 'Lucida Console',monospace" fill="#C9A30B">URI</text><text x="350.068" y="236.857" style="font:500 14px 'Lucida Console',monospace" fill="#666">name:</text><text x="396.212" y="236.857" style="font:500 14px 'Lucida Console',monospace" fill="#02b57b">Text</text><text x="350.068" y="250.857" style="font:500 14px 'Lucida Console',monospace" fill="#666">number:</text><text x="413.069" y="250.857" style="font:500 14px 'Lucida Console',monospace" fill="#02b57b">Text</text><text x="350.068" y="264.857" style="font:500 14px 'Lucida Console',monospace" fill="#666">idScheme:</text><text x="429.927" y="264.857" style="font:500 14px 'Lucida Console',monospace" fill="#02b57b">IdentifierScheme</text><text x="350.068" y="278.857" style="font:500 14px 'Lucida Console',monospace" fill="#666">countryOfOperation:</text><text x="514.214" y="278.857" style="font:500 14px 'Lucida Console',monospace" fill="#530abb">Code(countryCode)</text><text x="350.068" y="292.857" style="font:500 14px 'Lucida Console',monospace" fill="#666">processCategories:</text><text x="505.785" y="292.857" style="font:500 14px 'Lucida Console',monospace" fill="#02b57b">Classification[]</text><text x="350.068" y="306.857" style="font:500 14px 'Lucida Console',monospace" fill="#666">operatedByParty:</text><text x="488.928" y="306.857" style="font:500 14px 'Lucida Console',monospace" fill="#02b57b">Entity</text><text x="350.068" y="320.857" style="font:500 14px 'Lucida Console',monospace" fill="#666">otherIdentifiers:</text><text x="497.357" y="320.857" style="font:500 14px 'Lucida Console',monospace" fill="#02b57b">Entity[]</text><text x="350.068" y="334.857" style="font:500 14px 'Lucida Console',monospace" fill="#666">address:</text><text x="421.498" y="334.857" style="font:500 14px 'Lucida Console',monospace" fill="#02b57b">Address</text><text x="350.068" y="348.857" style="font:500 14px 'Lucida Console',monospace" fill="#000000">locationInformation:</text><text x="522.643" y="348.857" style="font:500 14px 'Lucida Console',monospace" fill="#547000">untp.Location</text><text x="350.068" y="362.857" style="font:500 14px 'Lucida Console',monospace" fill="#000000">conformityDeclarations:</text><text x="547.929" y="362.857" style="font:500 14px 'Lucida Console',monospace" fill="#3397DA">Declaration[]</text><path fill="#FFFFFF" stroke="#3397DA" stroke-width="3" d="M322.497 508.857h383.577v164H322.497z"/><path fill="#3397da" stroke="#3397da" d="M323.497 549.857h383.577"/><path fill="none" stroke="#3397DA" stroke-width="3" d="M322.497 508.857h383.577v164H322.497z"/><text x="332.497" y="526.857" style="font:700 16px 'Lucida Console',monospace" fill="#000000">Declaration</text><text x="332.497" y="542.857" style="font:500 14px 'Lucida Console',monospace" fill="#999">＜＜untp.Declaration＞＞</text><text x="332.497" y="566.857" style="font:500 14px 'Lucida Console',monospace" fill="#000000">id:</text><text x="361.783" y="566.857" style="font:500 14px 'Lucida Console',monospace" fill="#C9A30B">URI</text><text x="332.497" y="580.857" style="font:500 14px 'Lucida Console',monospace" fill="#000000">referenceStandard:</text><text x="488.214" y="580.857" style="font:500 14px 'Lucida Console',monospace" fill="#547000">Standard</text><text x="332.497" y="594.857" style="font:500 14px 'Lucida Console',monospace" fill="#000000">referenceRegulation:</text><text x="505.071" y="594.857" style="font:500 14px 'Lucida Console',monospace" fill="#547000">Regulation</text><text x="332.497" y="608.857" style="font:500 14px 'Lucida Console',monospace" fill="#000000">assessmentCriteria:</text><text x="496.643" y="608.857" style="font:500 14px 'Lucida Console',monospace" fill="#547000">Criterion[]</text><text x="332.497" y="622.857" style="font:500 14px 'Lucida Console',monospace" fill="#000000">declaredValues:</text><text x="462.928" y="622.857" style="font:500 14px 'Lucida Console',monospace" fill="#547000">Metric[]</text><text x="332.497" y="636.857" style="font:500 14px 'Lucida Console',monospace" fill="#000000">compliance:</text><text x="429.213" y="636.857" style="font:500 14px 'Lucida Console',monospace" fill="#547000">Indicator</text><text x="332.497" y="650.857" style="font:500 14px 'Lucida Console',monospace" fill="#000000">conformityTopic:</text><text x="471.357" y="650.857" style="font:500 14px 'Lucida Console',monospace" fill="#547000">Code(conformityTopicCode)</text><text x="332.497" y="664.857" style="font:500 14px 'Lucida Console',monospace" fill="#000000">conformityEvidence:</text><text x="496.643" y="664.857" style="font:500 14px 'Lucida Console',monospace" fill="#547000">untp.SecureLink</text><path fill="#FFFFFF" stroke="#aabbccdd" stroke-width="3" d="M797.143 330h261.575v78H797.143z"/><path fill="#aabbccdd" stroke="#aabbccdd" d="M798.143 355h261.575"/><path fill="none" stroke="#aabbccdd" stroke-width="3" d="M797.143 330h261.575v78H797.143z"/><text x="807.143" y="348" style="font:700 16px 'Lucida Console',monospace" fill="#000000">untp.Location</text><text x="807.143" y="372" style="font:500 14px 'Lucida Console',monospace" fill="#000000">id:</text><text x="836.429" y="372" style="font:500 14px 'Lucida Console',monospace" fill="#C9A30B">URI</text><text x="807.143" y="386" style="font:500 14px 'Lucida Console',monospace" fill="#000000">geoLocation:</text><text x="912.287" y="386" style="font:500 14px 'Lucida Console',monospace" fill="#547000">geojson.Point</text><text x="807.143" y="400" style="font:500 14px 'Lucida Console',monospace" fill="#000000">geoBoundary:</text><text x="912.287" y="400" style="font:500 14px 'Lucida Console',monospace" fill="#547000">geojson.Polygon</text><path fill="#FFFFFF" stroke="#aabbccdd" stroke-width="3" d="M850 450h198.146v92H850z"/><path fill="#aabbccdd" stroke="#aabbccdd" d="M851 475h198.146"/><path fill="none" stroke="#aabbccdd" stroke-width="3" d="M850 450h198.146v92H850z"/><text x="860" y="468" style="font:700 16px 'Lucida Console',monospace" fill="#000000">untp.Standard</text><text x="860" y="492" style="font:500 14px 'Lucida Console',monospace" fill="#000000">id:</text><text x="889.286" y="492" style="font:500 14px 'Lucida Console',monospace" fill="#C9A30B">URI</text><text x="860" y="506" style="font:500 14px 'Lucida Console',monospace" fill="#000000">name:</text><text x="906.144" y="506" style="font:500 14px 'Lucida Console',monospace" fill="#02b57b">Text</text><text x="860" y="520" style="font:500 14px 'Lucida Console',monospace" fill="#000000">issuingParty:</text><text x="973.573" y="520" style="font:500 14px 'Lucida Console',monospace" fill="#02b57b">Entity</text><text x="860" y="534" style="font:500 14px 'Lucida Console',monospace" fill="#000000">issueDate:</text><text x="948.287" y="534" style="font:500 14px 'Lucida Console',monospace" fill="#02b57b">Date</text><path fill="#FFFFFF" stroke="#aabbccdd" stroke-width="3" d="M764.286 642.857h353.862v106H764.286z"/><path fill="#aabbccdd" stroke="#aabbccdd" d="M765.286 667.857h353.862"/><path fill="none" stroke="#aabbccdd" stroke-width="3" d="M764.286 642.857h353.862v106H764.286z"/><text x="774.286" y="660.857" style="font:700 16px 'Lucida Console',monospace" fill="#000000">untp.Regulation</text><text x="774.286" y="684.857" style="font:500 14px 'Lucida Console',monospace" fill="#000000">id:</text><text x="803.572" y="684.857" style="font:500 14px 'Lucida Console',monospace" fill="#C9A30B">URI</text><text x="774.286" y="698.857" style="font:500 14px 'Lucida Console',monospace" fill="#000000">name:</text><text x="820.429" y="698.857" style="font:500 14px 'Lucida Console',monospace" fill="#02b57b">Text</text><text x="774.286" y="712.857" style="font:500 14px 'Lucida Console',monospace" fill="#000000">jurisdictionCountry:</text><text x="946.86" y="712.857" style="font:500 14px 'Lucida Console',monospace" fill="#530abb">Code(countryCode)</text><text x="774.286" y="726.857" style="font:500 14px 'Lucida Console',monospace" fill="#000000">administeredBy:</text><text x="904.716" y="726.857" style="font:500 14px 'Lucida Console',monospace" fill="#02b57b">Entity</text><text x="774.286" y="740.857" style="font:500 14px 'Lucida Console',monospace" fill="#000000">effectiveDate:</text><text x="896.288" y="740.857" style="font:500 14px 'Lucida Console',monospace" fill="#02b57b">Date</text><path fill="#FFFFFF" stroke="#aabbccdd" stroke-width="3" d="M15.714 400h236.289v78H15.714z"/><path fill="#aabbccdd" stroke="#aabbccdd" d="M16.714 425h236.29"/><path fill="none" stroke="#aabbccdd" stroke-width="3" d="M15.714 400h236.289v78H15.714z"/><text x="25.714" y="418" style="font:700 16px 'Lucida Console',monospace" fill="#000000">untp.Criterion</text><text x="25.714" y="442" style="font:500 14px 'Lucida Console',monospace" fill="#000000">id:</text><text x="55" y="442" style="font:500 14px 'Lucida Console',monospace" fill="#C9A30B">URI</text><text x="25.714" y="456" style="font:500 14px 'Lucida Console',monospace" fill="#000000">name:</text><text x="71.858" y="456" style="font:500 14px 'Lucida Console',monospace" fill="#02b57b">Text</text><text x="25.714" y="470" style="font:500 14px 'Lucida Console',monospace" fill="#000000">thresholdValues:</text><text x="164.574" y="470" style="font:500 14px 'Lucida Console',monospace" fill="#02b57b">Metric[]</text><path fill="#FFFFFF" stroke="#aabbccdd" stroke-width="3" d="M42.857 625.714h198.146v78H42.857z"/><path fill="#aabbccdd" stroke="#aabbccdd" d="M43.857 650.714h198.146"/><path fill="none" stroke="#aabbccdd" stroke-width="3" d="M42.857 625.714h198.146v78H42.857z"/><text x="52.857" y="643.714" style="font:700 16px 'Lucida Console',monospace" fill="#000000">untp.Metric</text><text x="52.857" y="667.714" style="font:500 14px 'Lucida Console',monospace" fill="#000000">metricName:</text><text x="149.573" y="667.714" style="font:500 14px 'Lucida Console',monospace" fill="#02b57b">Text</text><text x="52.857" y="681.714" style="font:500 14px 'Lucida Console',monospace" fill="#000000">metricValue:</text><text x="158.002" y="681.714" style="font:500 14px 'Lucida Console',monospace" fill="#02b57b">Measure</text><text x="52.857" y="695.714" style="font:500 14px 'Lucida Console',monospace" fill="#000000">accuracy:</text><text x="132.716" y="695.714" style="font:500 14px 'Lucida Console',monospace" fill="#02b57b">Numeric</text><path fill="#FFFFFF" stroke="#aabbccdd" stroke-width="3" d="M300 750h396.435v120H300z"/><path fill="#aabbccdd" stroke="#aabbccdd" d="M301 775h396.435"/><path fill="none" stroke="#aabbccdd" stroke-width="3" d="M300 750h396.435v120H300z"/><text x="310" y="768" style="font:700 16px 'Lucida Console',monospace" fill="#000000">untp.SecureLink</text><text x="310" y="792" style="font:500 14px 'Lucida Console',monospace" fill="#666">linkURL:</text><text x="381.43" y="792" style="font:500 14px 'Lucida Console',monospace" fill="#C9A30B">URI</text><text x="310" y="806" style="font:500 14px 'Lucida Console',monospace" fill="#666">linkName:</text><text x="389.858" y="806" style="font:500 14px 'Lucida Console',monospace" fill="#02b57b">Text</text><text x="310" y="820" style="font:500 14px 'Lucida Console',monospace" fill="#666">linkType:</text><text x="389.858" y="820" style="font:500 14px 'Lucida Console',monospace" fill="#02b57b">Text</text><text x="310" y="834" style="font:500 14px 'Lucida Console',monospace" fill="#000000">hashDigest:</text><text x="406.716" y="834" style="font:500 14px 'Lucida Console',monospace" fill="#02b57b">Text</text><text x="310" y="848" style="font:500 14px 'Lucida Console',monospace" fill="#000000">hashMethod:</text><text x="406.716" y="848" style="font:500 14px 'Lucida Console',monospace" fill="#530abb">Code(hashMethodCode)</text><text x="310" y="862" style="font:500 14px 'Lucida Console',monospace" fill="#000000">encryptionMethod:</text><text x="457.288" y="862" style="font:500 14px 'Lucida Console',monospace" fill="#530abb">Code(encryptionMethodCode)</text></svg>