<svg xmlns="http://www.w3.org/2000/svg" viewBox="-188.8 -88 1524.919 789.429"><rect width="1000%" height="1000%" x="-500%" y="-500%" fill="#EEEEEE"/><path fill="none" stroke="#EEEEEE" stroke-width="8" d="M637.412 244.01l-.01-.01v287.429H566.65"/><defs><linearGradient id="a" x1="0%" x2="50%" y1="0%" y2="50%"><stop offset="0%" stop-color="#3397DA"/><stop offset="100%" stop-color="#aabbccdd"/></linearGradient></defs><path fill="none" stroke="url(#a)" stroke-width="3" d="M637.412 244.01l-.01-.01v287.429H566.65"/><path fill="none" stroke="#EEEEEE" stroke-width="8" d="M768.622 197.724l-.01-.01h327.19V92.43"/><defs><linearGradient id="b" x1="0%" x2="50%" y1="0%" y2="50%"><stop offset="0%" stop-color="#3397DA"/><stop offset="100%" stop-color="#aabbccdd"/></linearGradient></defs><path fill="none" stroke="url(#b)" stroke-width="3" d="M768.622 197.724l-.01-.01h327.19V92.43"/><path fill="none" stroke="url(#b)" stroke-width="1.5" d="M1115.812 200.939l-2.01-.01v8h2M1119.812 200.939l1.99-.01v8h-2"/><path fill="none" stroke="#EEEEEE" stroke-width="8" d="M506.203 197.724l-.01-.01H41.95V54.43"/><defs><linearGradient id="c" x1="100%" x2="50%" y1="100%" y2="50%"><stop offset="0%" stop-color="#3397DA"/><stop offset="100%" stop-color="#aabbccdd"/></linearGradient></defs><path fill="none" stroke="url(#c)" stroke-width="3" d="M506.203 197.724l-.01-.01H41.95V54.43"/><path fill="none" stroke="#EEEEEE" stroke-width="8" d="M440.598 174.581l-.01-.01H0V311.43"/><defs><linearGradient id="d" x1="0%" x2="50%" y1="0%" y2="50%"><stop offset="0%" stop-color="#3397DA"/><stop offset="100%" stop-color="#aabbccdd"/></linearGradient></defs><path fill="none" stroke="url(#d)" stroke-width="3" d="M440.598 174.581l-.01-.01H0V311.43"/><path fill="none" stroke="#EEEEEE" stroke-width="8" d="M703.017 220.867l-.01-.01h366.836v109"/><defs><linearGradient id="e" x1="0%" x2="50%" y1="0%" y2="50%"><stop offset="0%" stop-color="#3397DA"/><stop offset="100%" stop-color="#aabbccdd"/></linearGradient></defs><path fill="none" stroke="url(#e)" stroke-width="3" d="M703.017 220.867l-.01-.01h366.836v109"/><path fill="none" stroke="url(#e)" stroke-width="1.5" d="M1089.853 228.367l-2.01-.01v8h2M1093.853 228.367l1.99-.01v8h-2"/><path fill="none" stroke="#EEEEEE" stroke-width="8" d="M548.28.01l-.01-.01v232.429h56.33"/><defs><linearGradient id="f" x1="0%" x2="50%" y1="0%" y2="50%"><stop offset="0%" stop-color="#3397DA"/><stop offset="100%" stop-color="#3397DA"/></linearGradient></defs><path fill="none" stroke="url(#f)" stroke-width="3" d="M548.28.01l-.01-.01v232.429h56.33"/><path fill="none" stroke="#EEEEEE" stroke-width="8" d="M571.808 220.867l-.01-.01H198.64v242.429"/><defs><linearGradient id="g" x1="0%" x2="50%" y1="0%" y2="50%"><stop offset="0%" stop-color="#3397DA"/><stop offset="100%" stop-color="#2ECB70"/></linearGradient></defs><path fill="none" stroke="url(#g)" stroke-width="3" d="M571.808 220.867l-.01-.01H198.64v242.429"/><path fill="none" stroke="url(#g)" stroke-width="1.5" d="M218.65 403.796l-2.01-.01v8h2M222.65 403.796l1.99-.01v8h-2"/><path fill="#FFFFFF" stroke="#3397DA" stroke-width="3" d="M383.687-68h329.167V68H383.687z"/><path fill="#3397da" stroke="#3397da" d="M384.687-27h329.167"/><path fill="none" stroke="#3397DA" stroke-width="3" d="M383.687-68h329.167V68H383.687z"/><text style="font:700 16px 'Lucida Console',monospace" x="393.687" y="-50" fill="#000000">DigitalProductPassport</text><text style="font:300 14px 'Lucida Console',monospace" x="393.687" y="-34" fill="#999">＜＜untp.VerifiableCredential＞＞</text><text style="font:700 14px 'Lucida Console',monospace" x="393.687" y="-10" fill="#666">* @context:</text><text style="font:300 14px 'Lucida Console',monospace" x="490.454" y="-10" fill="#02b57b">Text[]</text><text style="font:700 14px 'Lucida Console',monospace" x="393.687" y="4" fill="#666">* id:</text><text style="font:300 14px 'Lucida Console',monospace" x="439.854" y="4" fill="#C9A30B">URI</text><text style="font:700 14px 'Lucida Console',monospace" x="393.687" y="18" fill="#666">* issuer:</text><text style="font:300 14px 'Lucida Console',monospace" x="473.587" y="18" fill="#02b57b">CredentialIssuer</text><text style="font:300 14px 'Lucida Console',monospace" x="410.554" y="32" fill="#666">validFrom:</text><text style="font:300 14px 'Lucida Console',monospace" x="498.887" y="32" fill="#02b57b">DateTime</text><text style="font:300 14px 'Lucida Console',monospace" x="410.554" y="46" fill="#666">validUntil:</text><text style="font:300 14px 'Lucida Console',monospace" x="507.321" y="46" fill="#02b57b">DateTime</text><text style="font:300 14px 'Lucida Console',monospace" x="410.554" y="60" fill="#000000">credentialSubject:</text><text style="font:300 14px 'Lucida Console',monospace" x="566.354" y="60" fill="#3397DA">ProductPassport</text><path fill="#FFFFFF" stroke="#3397DA" stroke-width="3" d="M374.983 151.429h459.233v162H374.983z"/><path fill="#3397da" stroke="#3397da" d="M375.983 176.429h459.234"/><path fill="none" stroke="#3397DA" stroke-width="3" d="M374.983 151.429h459.233v162H374.983z"/><text style="font:700 16px 'Lucida Console',monospace" x="384.983" y="169.429" fill="#000000">ProductPassport</text><text style="font:300 14px 'Lucida Console',monospace" x="384.983" y="193.429" fill="#000000">id:</text><text style="font:300 14px 'Lucida Console',monospace" x="414.283" y="193.429" fill="#C9A30B">URI</text><text style="font:300 14px 'Lucida Console',monospace" x="384.983" y="207.429" fill="#000000">product:</text><text style="font:300 14px 'Lucida Console',monospace" x="456.45" y="207.429" fill="#547000">untp.Product</text><text style="font:300 14px 'Lucida Console',monospace" x="384.983" y="221.429" fill="#000000">granularityLevel:</text><text style="font:300 14px 'Lucida Console',monospace" x="532.35" y="221.429" fill="#530abb">Code(granularityCode)</text><text style="font:300 14px 'Lucida Console',monospace" x="384.983" y="235.429" fill="#000000">conformityClaim:</text><text style="font:300 14px 'Lucida Console',monospace" x="523.917" y="235.429" fill="#547000">untp.Claim[]</text><text style="font:300 14px 'Lucida Console',monospace" x="384.983" y="249.429" fill="#000000">emissionsScorecard:</text><text style="font:300 14px 'Lucida Console',monospace" x="549.217" y="249.429" fill="#547000">untp.EmissionsPerformance</text><text style="font:300 14px 'Lucida Console',monospace" x="384.983" y="263.429" fill="#000000">traceabilityInformation:</text><text style="font:300 14px 'Lucida Console',monospace" x="591.383" y="263.429" fill="#2ECB70">TraceabilityPerformance[]</text><text style="font:300 14px 'Lucida Console',monospace" x="384.983" y="277.429" fill="#000000">circularityScorecard:</text><text style="font:300 14px 'Lucida Console',monospace" x="566.083" y="277.429" fill="#547000">untp.CircularityPerformance</text><text style="font:300 14px 'Lucida Console',monospace" x="384.983" y="291.429" fill="#000000">dueDiligenceDeclaration:</text><text style="font:300 14px 'Lucida Console',monospace" x="591.383" y="291.429" fill="#547000">untp.Link</text><text style="font:300 14px 'Lucida Console',monospace" x="384.983" y="305.429" fill="#000000">materialsProvenance:</text><text style="font:300 14px 'Lucida Console',monospace" x="557.65" y="305.429" fill="#547000">untp.Material[]</text><path fill="#FFFFFF" stroke="#2ECB70" stroke-width="3" d="M34.057 424.286h329.167v78H34.057z"/><path fill="#2ecb70" stroke="#2ecb70" d="M35.057 449.286h329.167"/><path fill="none" stroke="#2ECB70" stroke-width="3" d="M34.057 424.286h329.167v78H34.057z"/><text style="font:700 16px 'Lucida Console',monospace" x="44.057" y="442.286" fill="#000000">TraceabilityPerformance</text><text style="font:300 14px 'Lucida Console',monospace" x="44.057" y="466.286" fill="#000000">valueChainProcess:</text><text style="font:300 14px 'Lucida Console',monospace" x="199.857" y="466.286" fill="#02b57b">Text</text><text style="font:300 14px 'Lucida Console',monospace" x="44.057" y="480.286" fill="#000000">verifiedRatio:</text><text style="font:300 14px 'Lucida Console',monospace" x="166.124" y="480.286" fill="#02b57b">Numeric</text><text style="font:300 14px 'Lucida Console',monospace" x="44.057" y="494.286" fill="#000000">traceabilityEvent:</text><text style="font:300 14px 'Lucida Console',monospace" x="199.857" y="494.286" fill="#547000">untp.SecureLink[]</text><path fill="#FFFFFF" stroke="#aabbccdd" stroke-width="3" d="M381.2 401.429h370.9v260H381.2z"/><path fill="#aabbccdd" stroke="#aabbccdd" d="M382.2 426.429h370.9"/><path fill="none" stroke="#aabbccdd" stroke-width="3" d="M381.2 401.429h370.9v260H381.2z"/><text style="font:700 16px 'Lucida Console',monospace" x="391.2" y="419.429" fill="#000000">untp.Product</text><text style="font:700 14px 'Lucida Console',monospace" x="391.2" y="443.429" fill="#000000">* id:</text><text style="font:300 14px 'Lucida Console',monospace" x="437.367" y="443.429" fill="#C9A30B">URI</text><text style="font:700 14px 'Lucida Console',monospace" x="391.2" y="457.429" fill="#000000">* name:</text><text style="font:300 14px 'Lucida Console',monospace" x="454.233" y="457.429" fill="#02b57b">Text</text><text style="font:300 14px 'Lucida Console',monospace" x="408.067" y="471.429" fill="#000000">registeredId:</text><text style="font:300 14px 'Lucida Console',monospace" x="521.7" y="471.429" fill="#02b57b">Text</text><text style="font:300 14px 'Lucida Console',monospace" x="408.067" y="485.429" fill="#000000">idScheme:</text><text style="font:300 14px 'Lucida Console',monospace" x="487.967" y="485.429" fill="#02b57b">IdentifierScheme</text><text style="font:300 14px 'Lucida Console',monospace" x="408.067" y="499.429" fill="#000000">batchNumber:</text><text style="font:300 14px 'Lucida Console',monospace" x="513.267" y="499.429" fill="#02b57b">Text</text><text style="font:300 14px 'Lucida Console',monospace" x="408.067" y="513.429" fill="#000000">productImage:</text><text style="font:300 14px 'Lucida Console',monospace" x="521.7" y="513.429" fill="#02b57b">Link</text><text style="font:300 14px 'Lucida Console',monospace" x="408.067" y="527.429" fill="#000000">description:</text><text style="font:300 14px 'Lucida Console',monospace" x="513.267" y="527.429" fill="#02b57b">Text</text><text style="font:300 14px 'Lucida Console',monospace" x="408.067" y="541.429" fill="#000000">characteristics:</text><text style="font:300 14px 'Lucida Console',monospace" x="547" y="541.429" fill="#02b57b">Characteristics</text><text style="font:300 14px 'Lucida Console',monospace" x="408.067" y="555.429" fill="#000000">productCategory:</text><text style="font:300 14px 'Lucida Console',monospace" x="547" y="555.429" fill="#02b57b">Classification[]</text><text style="font:300 14px 'Lucida Console',monospace" x="408.067" y="569.429" fill="#000000">furtherInformation:</text><text style="font:300 14px 'Lucida Console',monospace" x="572.3" y="569.429" fill="#02b57b">Link[]</text><text style="font:300 14px 'Lucida Console',monospace" x="408.067" y="583.429" fill="#000000">producedByParty:</text><text style="font:300 14px 'Lucida Console',monospace" x="547" y="583.429" fill="#02b57b">Party</text><text style="font:300 14px 'Lucida Console',monospace" x="408.067" y="597.429" fill="#000000">producedAtFacility:</text><text style="font:300 14px 'Lucida Console',monospace" x="572.3" y="597.429" fill="#02b57b">Facility</text><text style="font:300 14px 'Lucida Console',monospace" x="408.067" y="611.429" fill="#000000">productionDate:</text><text style="font:300 14px 'Lucida Console',monospace" x="538.567" y="611.429" fill="#02b57b">Date</text><text style="font:300 14px 'Lucida Console',monospace" x="408.067" y="625.429" fill="#000000">countryOfProduction:</text><text style="font:300 14px 'Lucida Console',monospace" x="580.733" y="625.429" fill="#530abb">Code(countryCode)</text><text style="font:300 14px 'Lucida Console',monospace" x="408.067" y="639.429" fill="#000000">serialNumber:</text><text style="font:300 14px 'Lucida Console',monospace" x="521.7" y="639.429" fill="#02b57b">Text</text><text style="font:300 14px 'Lucida Console',monospace" x="408.067" y="653.429" fill="#000000">dimensions:</text><text style="font:300 14px 'Lucida Console',monospace" x="504.833" y="653.429" fill="#02b57b">Dimension</text><path fill="#FFFFFF" stroke="#aabbccdd" stroke-width="3" d="M895.486 4.429h400.633v176H895.486z"/><path fill="#aabbccdd" stroke="#aabbccdd" d="M896.486 29.429h400.633"/><path fill="none" stroke="#aabbccdd" stroke-width="3" d="M895.486 4.429h400.633v176H895.486z"/><text style="font:700 16px 'Lucida Console',monospace" x="905.486" y="22.429" fill="#000000">untp.Claim</text><text style="font:700 14px 'Lucida Console',monospace" x="905.486" y="46.429" fill="#666">* id:</text><text style="font:300 14px 'Lucida Console',monospace" x="951.652" y="46.429" fill="#C9A30B">URI</text><text style="font:300 14px 'Lucida Console',monospace" x="922.352" y="60.429" fill="#666">description:</text><text style="font:300 14px 'Lucida Console',monospace" x="1027.552" y="60.429" fill="#02b57b">Text</text><text style="font:300 14px 'Lucida Console',monospace" x="922.352" y="74.429" fill="#666">referenceStandard:</text><text style="font:300 14px 'Lucida Console',monospace" x="1078.152" y="74.429" fill="#02b57b">Standard</text><text style="font:300 14px 'Lucida Console',monospace" x="922.352" y="88.429" fill="#666">referenceRegulation:</text><text style="font:300 14px 'Lucida Console',monospace" x="1095.019" y="88.429" fill="#02b57b">Regulation</text><text style="font:300 14px 'Lucida Console',monospace" x="922.352" y="102.429" fill="#666">assessmentCriteria:</text><text style="font:300 14px 'Lucida Console',monospace" x="1086.586" y="102.429" fill="#02b57b">Criterion[]</text><text style="font:300 14px 'Lucida Console',monospace" x="922.352" y="116.429" fill="#666">assessmentDate:</text><text style="font:300 14px 'Lucida Console',monospace" x="1052.852" y="116.429" fill="#02b57b">Date</text><text style="font:300 14px 'Lucida Console',monospace" x="922.352" y="130.429" fill="#666">declaredValue:</text><text style="font:300 14px 'Lucida Console',monospace" x="1044.419" y="130.429" fill="#02b57b">Metric[]</text><text style="font:700 14px 'Lucida Console',monospace" x="905.486" y="144.429" fill="#666">* conformance:</text><text style="font:300 14px 'Lucida Console',monospace" x="1027.552" y="144.429" fill="#02b57b">Indicator</text><text style="font:700 14px 'Lucida Console',monospace" x="905.486" y="158.429" fill="#666">* conformityTopic:</text><text style="font:300 14px 'Lucida Console',monospace" x="1061.286" y="158.429" fill="#530abb">Code(conformityTopicCode)</text><text style="font:300 14px 'Lucida Console',monospace" x="922.352" y="172.429" fill="#000000">conformityEvidence:</text><text style="font:300 14px 'Lucida Console',monospace" x="1086.586" y="172.429" fill="#02b57b">SecureLink</text><path fill="#FFFFFF" stroke="#aabbccdd" stroke-width="3" d="M-168.8 1.429h421.5v106h-421.5z"/><path fill="#aabbccdd" stroke="#aabbccdd" d="M-167.8 26.429h421.5"/><path fill="none" stroke="#aabbccdd" stroke-width="3" d="M-168.8 1.429h421.5v106h-421.5z"/><text style="font:700 16px 'Lucida Console',monospace" x="-158.8" y="19.429" fill="#000000">untp.EmissionsPerformance</text><text style="font:700 14px 'Lucida Console',monospace" x="-158.8" y="43.429" fill="#000000">* carbonFootprint:</text><text style="font:300 14px 'Lucida Console',monospace" x="-3" y="43.429" fill="#02b57b">Decimal</text><text style="font:700 14px 'Lucida Console',monospace" x="-158.8" y="57.429" fill="#000000">* declaredUnit:</text><text style="font:300 14px 'Lucida Console',monospace" x="-28.3" y="57.429" fill="#530abb">Code(unitOfMeasure)</text><text style="font:700 14px 'Lucida Console',monospace" x="-158.8" y="71.429" fill="#000000">* operationalScope:</text><text style="font:300 14px 'Lucida Console',monospace" x="5.433" y="71.429" fill="#530abb">Code(operationalScopeCode)</text><text style="font:700 14px 'Lucida Console',monospace" x="-158.8" y="85.429" fill="#000000">* primarySourcedRatio:</text><text style="font:300 14px 'Lucida Console',monospace" x="30.733" y="85.429" fill="#02b57b">Decimal</text><text style="font:300 14px 'Lucida Console',monospace" x="-141.933" y="99.429" fill="#000000">reportingStandard:</text><text style="font:300 14px 'Lucida Console',monospace" x="13.867" y="99.429" fill="#02b57b">Standard</text><path fill="#FFFFFF" stroke="#aabbccdd" stroke-width="3" d="M-168.8 251.429h337.6v120h-337.6z"/><path fill="#aabbccdd" stroke="#aabbccdd" d="M-167.8 276.429h337.6"/><path fill="none" stroke="#aabbccdd" stroke-width="3" d="M-168.8 251.429h337.6v120h-337.6z"/><text style="font:700 16px 'Lucida Console',monospace" x="-158.8" y="269.429" fill="#000000">untp.CircularityPerformance</text><text style="font:300 14px 'Lucida Console',monospace" x="-158.8" y="293.429" fill="#000000">recyclingInformation:</text><text style="font:300 14px 'Lucida Console',monospace" x="22.3" y="293.429" fill="#02b57b">Link</text><text style="font:300 14px 'Lucida Console',monospace" x="-158.8" y="307.429" fill="#000000">repairInformation:</text><text style="font:300 14px 'Lucida Console',monospace" x="-3" y="307.429" fill="#02b57b">Link</text><text style="font:300 14px 'Lucida Console',monospace" x="-158.8" y="321.429" fill="#000000">recyclableContent:</text><text style="font:300 14px 'Lucida Console',monospace" x="-3" y="321.429" fill="#02b57b">Decimal</text><text style="font:300 14px 'Lucida Console',monospace" x="-158.8" y="335.429" fill="#000000">recycledContent:</text><text style="font:300 14px 'Lucida Console',monospace" x="-19.867" y="335.429" fill="#02b57b">Decimal</text><text style="font:300 14px 'Lucida Console',monospace" x="-158.8" y="349.429" fill="#000000">utilityFactor:</text><text style="font:300 14px 'Lucida Console',monospace" x="-36.733" y="349.429" fill="#02b57b">Decimal</text><text style="font:300 14px 'Lucida Console',monospace" x="-158.8" y="363.429" fill="#000000">materialCircularityIndicator:</text><text style="font:300 14px 'Lucida Console',monospace" x="89.767" y="363.429" fill="#02b57b">Decimal</text><path fill="#FFFFFF" stroke="#aabbccdd" stroke-width="3" d="M899.693 248.857h340.3v162h-340.3z"/><path fill="#aabbccdd" stroke="#aabbccdd" d="M900.693 273.857h340.3"/><path fill="none" stroke="#aabbccdd" stroke-width="3" d="M899.693 248.857h340.3v162h-340.3z"/><text style="font:700 16px 'Lucida Console',monospace" x="909.693" y="266.857" fill="#000000">untp.Material</text><text style="font:700 14px 'Lucida Console',monospace" x="909.693" y="290.857" fill="#000000">* name:</text><text style="font:300 14px 'Lucida Console',monospace" x="972.726" y="290.857" fill="#02b57b">Text</text><text style="font:300 14px 'Lucida Console',monospace" x="926.559" y="304.857" fill="#000000">originCountry:</text><text style="font:300 14px 'Lucida Console',monospace" x="1048.626" y="304.857" fill="#530abb">Code(countryCode)</text><text style="font:300 14px 'Lucida Console',monospace" x="926.559" y="318.857" fill="#000000">materialType:</text><text style="font:300 14px 'Lucida Console',monospace" x="1040.193" y="318.857" fill="#02b57b">Classification</text><text style="font:300 14px 'Lucida Console',monospace" x="926.559" y="332.857" fill="#000000">massFraction:</text><text style="font:300 14px 'Lucida Console',monospace" x="1040.193" y="332.857" fill="#02b57b">Numeric</text><text style="font:300 14px 'Lucida Console',monospace" x="926.559" y="346.857" fill="#000000">mass:</text><text style="font:300 14px 'Lucida Console',monospace" x="972.726" y="346.857" fill="#02b57b">Measure</text><text style="font:300 14px 'Lucida Console',monospace" x="926.559" y="360.857" fill="#000000">recycledMassFraction:</text><text style="font:300 14px 'Lucida Console',monospace" x="1107.659" y="360.857" fill="#02b57b">Numeric</text><text style="font:300 14px 'Lucida Console',monospace" x="926.559" y="374.857" fill="#000000">hazardous:</text><text style="font:300 14px 'Lucida Console',monospace" x="1014.893" y="374.857" fill="#02b57b">Indicator</text><text style="font:300 14px 'Lucida Console',monospace" x="926.559" y="388.857" fill="#000000">symbol:</text><text style="font:300 14px 'Lucida Console',monospace" x="989.593" y="388.857" fill="#02b57b">Binary</text><text style="font:300 14px 'Lucida Console',monospace" x="926.559" y="402.857" fill="#000000">materialSafetyInformation:</text><text style="font:300 14px 'Lucida Console',monospace" x="1149.826" y="402.857" fill="#02b57b">Link</text></svg>