<svg xmlns="http://www.w3.org/2000/svg" viewBox="-124.429 -59 1212.148 609.714"><rect width="1000%" height="1000%" x="-500%" y="-500%" fill="#EEEEEE"/><path fill="none" stroke="#EEEEEE" stroke-width="8" d="M485.842 113.324l-.01-.01H862.36v2.115"/><defs><linearGradient id="a" x1="0%" x2="50%" y1="0%" y2="50%"><stop offset="0%" stop-color="#3397DA"/><stop offset="100%" stop-color="#aabbccdd"/></linearGradient></defs><path fill="none" stroke="url(#a)" stroke-width="3" d="M485.842 113.324l-.01-.01H862.36v2.115"/><path fill="none" stroke="url(#a)" stroke-width="1.5" d="M656.51 93.324l-2.01-.01v8h2M660.51 93.324l1.99-.01v8h-2"/><path fill="none" stroke="#EEEEEE" stroke-width="8" d="M263.33 366.724l-.01-.01H9.5V396"/><defs><linearGradient id="b" x1="100%" x2="50%" y1="100%" y2="50%"><stop offset="0%" stop-color="#3397DA"/><stop offset="100%" stop-color="#aabbccdd"/></linearGradient></defs><path fill="none" stroke="url(#b)" stroke-width="3" d="M263.33 366.724l-.01-.01H9.5V396"/><path fill="none" stroke="#EEEEEE" stroke-width="8" d="M473.547 414.724l-.01-.01h347.606v3.572"/><defs><linearGradient id="c" x1="0%" x2="50%" y1="0%" y2="50%"><stop offset="0%" stop-color="#3397DA"/><stop offset="100%" stop-color="#aabbccdd"/></linearGradient></defs><path fill="none" stroke="url(#c)" stroke-width="3" d="M473.547 414.724l-.01-.01h347.606v3.572"/><path fill="none" stroke="url(#c)" stroke-width="1.5" d="M651.63 394.724l-2.01-.01v8h2M655.63 394.724l1.99-.01v8h-2"/><path fill="none" stroke="#EEEEEE" stroke-width="8" d="M401.67 160.124l-.01-.01v286.6h36.84"/><defs><linearGradient id="d" x1="0%" x2="50%" y1="0%" y2="50%"><stop offset="0%" stop-color="#3397DA"/><stop offset="100%" stop-color="#3397DA"/></linearGradient></defs><path fill="none" stroke="url(#d)" stroke-width="3" d="M401.67 160.124l-.01-.01v286.6h36.84"/><path fill="none" stroke="url(#d)" stroke-width="1.5" d="M421.67 298.224l-2.01-.01v8h2M425.67 298.224l1.99-.01v8h-2"/><path fill="none" stroke="#EEEEEE" stroke-width="8" d="M233.324 66.524l-.01-.01H0V0"/><defs><linearGradient id="e" x1="100%" x2="50%" y1="100%" y2="50%"><stop offset="0%" stop-color="#3397DA"/><stop offset="100%" stop-color="#2ECB70"/></linearGradient></defs><path fill="none" stroke="url(#e)" stroke-width="3" d="M233.324 66.524l-.01-.01H0V0"/><path fill="none" stroke="url(#e)" stroke-width="1.5" d="M20.01 59.51L18 59.5v8h2M24.01 59.51L26 59.5v8h-2"/><path fill="none" stroke="#EEEEEE" stroke-width="8" d="M317.496 113.324l-.01-.01H5.143V214.43"/><defs><linearGradient id="f" x1="0%" x2="50%" y1="0%" y2="50%"><stop offset="0%" stop-color="#3397DA"/><stop offset="100%" stop-color="#2ECB70"/></linearGradient></defs><path fill="none" stroke="url(#f)" stroke-width="3" d="M317.496 113.324l-.01-.01H5.143V214.43"/><path fill="none" stroke="url(#f)" stroke-width="1.5" d="M25.153 161.939l-2.01-.01v8h2M29.153 161.939l1.99-.01v8h-2"/><path fill="none" stroke="#EEEEEE" stroke-width="8" d="M158.221 318.724l-.01-.01 390.435 20h70v-40h-70v40"/><defs><linearGradient id="g" x1="100%" x2="50%" y1="100%" y2="50%"><stop offset="0%" stop-color="#3397DA"/><stop offset="100%" stop-color="#3397DA"/></linearGradient></defs><path fill="none" stroke="url(#g)" stroke-width="3" d="M158.221 318.724l-.01-.01 390.435 20h70v-40h-70v40"/><path fill="#FFFFFF" stroke="#3397DA" stroke-width="3" d="M149.141 19.714h420.863v234H149.141z"/><path fill="#3397da" stroke="#3397da" d="M150.141 60.714h420.863"/><path fill="none" stroke="#3397DA" stroke-width="3" d="M149.141 19.714h420.863v234H149.141z"/><text x="159.141" y="37.714" style="font:700 16px 'Lucida Console',monospace" fill="#000000">ConformitySchemeVocabulary</text><text x="159.141" y="53.714" style="font:300 14px 'Lucida Console',monospace" fill="#999">＜＜untp-core.ConformityScheme＞＞</text><text x="159.141" y="77.714" style="font:700 14px 'Lucida Console',monospace" fill="#666">* id:</text><text x="205.285" y="77.714" style="font:300 14px 'Lucida Console',monospace" fill="#C9A30B">URI</text><text x="159.141" y="91.714" style="font:700 14px 'Lucida Console',monospace" fill="#666">* name:</text><text x="222.142" y="91.714" style="font:300 14px 'Lucida Console',monospace" fill="#02b57b">Text</text><text x="159.141" y="105.714" style="font:700 14px 'Lucida Console',monospace" fill="#666">* description:</text><text x="281.143" y="105.714" style="font:300 14px 'Lucida Console',monospace" fill="#02b57b">Text</text><text x="159.141" y="119.714" style="font:700 14px 'Lucida Console',monospace" fill="#666">* version:</text><text x="247.428" y="119.714" style="font:300 14px 'Lucida Console',monospace" fill="#02b57b">Text</text><text x="159.141" y="133.714" style="font:700 14px 'Lucida Console',monospace" fill="#666">* validFrom:</text><text x="264.286" y="133.714" style="font:300 14px 'Lucida Console',monospace" fill="#02b57b">Date</text><text x="159.141" y="147.714" style="font:700 14px 'Lucida Console',monospace" fill="#666">* owner:</text><text x="230.571" y="147.714" style="font:300 14px 'Lucida Console',monospace" fill="#02b57b">Party</text><text x="175.999" y="161.714" style="font:300 14px 'Lucida Console',monospace" fill="#666">trustMark:</text><text x="264.286" y="161.714" style="font:300 14px 'Lucida Console',monospace" fill="#02b57b">Binary</text><text x="159.141" y="175.714" style="font:700 14px 'Lucida Console',monospace" fill="#000000">* conformityCriterion:</text><text x="348.573" y="175.714" style="font:300 14px 'Lucida Console',monospace" fill="#3397DA">ConformityCriterion[]</text><text x="175.999" y="189.714" style="font:300 14px 'Lucida Console',monospace" fill="#000000">regulatoryAlignment:</text><text x="348.573" y="189.714" style="font:300 14px 'Lucida Console',monospace" fill="#547000">untp-core.Regulation[]</text><text x="175.999" y="203.714" style="font:300 14px 'Lucida Console',monospace" fill="#000000">industryScope:</text><text x="298.001" y="203.714" style="font:300 14px 'Lucida Console',monospace" fill="#547000">untp-core.Classification</text><text x="175.999" y="217.714" style="font:300 14px 'Lucida Console',monospace" fill="#000000">geographicScope:</text><text x="314.858" y="217.714" style="font:300 14px 'Lucida Console',monospace" fill="#547000">untp-core.Classification</text><text x="175.999" y="231.714" style="font:300 14px 'Lucida Console',monospace" fill="#000000">performanceLevelCodes:</text><text x="365.43" y="231.714" style="font:300 14px 'Lucida Console',monospace" fill="#2ECB70">LevelCode[]</text><text x="175.999" y="245.714" style="font:300 14px 'Lucida Console',monospace" fill="#000000">tagCodes:</text><text x="255.857" y="245.714" style="font:300 14px 'Lucida Console',monospace" fill="#2ECB70">TagCode[]</text><path fill="#FFFFFF" stroke="#3397DA" stroke-width="3" d="M158.211 318.714h420.435v192H158.211z"/><path fill="#3397da" stroke="#3397da" d="M159.211 359.714h420.435"/><path fill="none" stroke="#3397DA" stroke-width="3" d="M158.211 318.714h420.435v192H158.211z"/><text x="168.211" y="336.714" style="font:700 16px 'Lucida Console',monospace" fill="#000000">ConformityCriterion</text><text x="168.211" y="352.714" style="font:300 14px 'Lucida Console',monospace" fill="#999">＜＜untp-core.Criterion＞＞</text><text x="168.211" y="376.714" style="font:700 14px 'Lucida Console',monospace" fill="#000000">* id:</text><text x="214.355" y="376.714" style="font:300 14px 'Lucida Console',monospace" fill="#C9A30B">URI</text><text x="168.211" y="390.714" style="font:700 14px 'Lucida Console',monospace" fill="#000000">* name:</text><text x="231.212" y="390.714" style="font:300 14px 'Lucida Console',monospace" fill="#547000">Text</text><text x="168.211" y="404.714" style="font:700 14px 'Lucida Console',monospace" fill="#000000">* description:</text><text x="290.213" y="404.714" style="font:300 14px 'Lucida Console',monospace" fill="#547000">Text</text><text x="168.211" y="418.714" style="font:700 14px 'Lucida Console',monospace" fill="#000000">* conformityTopic:</text><text x="323.928" y="418.714" style="font:300 14px 'Lucida Console',monospace" fill="#547000">Code(conformityTopicCode)</text><text x="168.211" y="432.714" style="font:700 14px 'Lucida Console',monospace" fill="#000000">* status:</text><text x="248.07" y="432.714" style="font:300 14px 'Lucida Console',monospace" fill="#547000">Code(statusCode)</text><text x="185.069" y="446.714" style="font:300 14px 'Lucida Console',monospace" fill="#000000">thresholdValue:</text><text x="315.499" y="446.714" style="font:300 14px 'Lucida Console',monospace" fill="#547000">untp-core.Metric</text><text x="185.069" y="460.714" style="font:300 14px 'Lucida Console',monospace" fill="#000000">performanceLevel:</text><text x="332.357" y="460.714" style="font:300 14px 'Lucida Console',monospace" fill="#547000">Text</text><text x="185.069" y="474.714" style="font:300 14px 'Lucida Console',monospace" fill="#000000">tags:</text><text x="231.212" y="474.714" style="font:300 14px 'Lucida Console',monospace" fill="#547000">Text</text><text x="185.069" y="488.714" style="font:300 14px 'Lucida Console',monospace" fill="#000000">subCriterion:</text><text x="298.642" y="488.714" style="font:300 14px 'Lucida Console',monospace" fill="#3397DA">ConformityCriterion[]</text><text x="185.069" y="502.714" style="font:300 14px 'Lucida Console',monospace" fill="#000000">category:</text><text x="264.927" y="502.714" style="font:300 14px 'Lucida Console',monospace" fill="#547000">untp-core.Classification[]</text><path fill="#FFFFFF" stroke="#2ECB70" stroke-width="3" d="M-104.429-39h208.857v78h-208.857z"/><path fill="#2ecb70" stroke="#2ecb70" d="M-103.429-14H105.43"/><path fill="none" stroke="#2ECB70" stroke-width="3" d="M-104.429-39h208.857v78h-208.857z"/><text x="-94.429" y="-21" style="font:700 16px 'Lucida Console',monospace" fill="#000000">LevelCode</text><text x="-94.429" y="3" style="font:700 14px 'Lucida Console',monospace" fill="#000000">* name:</text><text x="-31.428" y="3" style="font:300 14px 'Lucida Console',monospace" fill="#02b57b">Text</text><text x="-94.429" y="17" style="font:700 14px 'Lucida Console',monospace" fill="#000000">* rank:</text><text x="-31.428" y="17" style="font:300 14px 'Lucida Console',monospace" fill="#02b57b">Integer</text><text x="-77.571" y="31" style="font:300 14px 'Lucida Console',monospace" fill="#000000">description:</text><text x="27.573" y="31" style="font:300 14px 'Lucida Console',monospace" fill="#02b57b">Text</text><path fill="#FFFFFF" stroke="#2ECB70" stroke-width="3" d="M-97.286 182.429h204.857v64H-97.286z"/><path fill="#2ecb70" stroke="#2ecb70" d="M-96.286 207.429h204.858"/><path fill="none" stroke="#2ECB70" stroke-width="3" d="M-97.286 182.429h204.857v64H-97.286z"/><text x="-87.286" y="200.429" style="font:700 16px 'Lucida Console',monospace" fill="#000000">TagCode</text><text x="-87.286" y="224.429" style="font:700 14px 'Lucida Console',monospace" fill="#000000">* name:</text><text x="-24.285" y="224.429" style="font:300 14px 'Lucida Console',monospace" fill="#02b57b">Text</text><text x="-87.286" y="238.429" style="font:700 14px 'Lucida Console',monospace" fill="#000000">* description:</text><text x="34.716" y="238.429" style="font:300 14px 'Lucida Console',monospace" fill="#02b57b">Text</text><path fill="#FFFFFF" stroke="#aabbccdd" stroke-width="3" d="M677 62.429h370.72v106H677z"/><path fill="#aabbccdd" stroke="#aabbccdd" d="M678 87.429h370.72"/><path fill="none" stroke="#aabbccdd" stroke-width="3" d="M677 62.429h370.72v106H677z"/><text x="687" y="80.429" style="font:700 16px 'Lucida Console',monospace" fill="#000000">untp-core.Regulation</text><text x="703.857" y="104.429" style="font:300 14px 'Lucida Console',monospace" fill="#000000">id:</text><text x="733.143" y="104.429" style="font:300 14px 'Lucida Console',monospace" fill="#C9A30B">URI</text><text x="703.857" y="118.429" style="font:300 14px 'Lucida Console',monospace" fill="#000000">name:</text><text x="750.001" y="118.429" style="font:300 14px 'Lucida Console',monospace" fill="#02b57b">Text</text><text x="703.857" y="132.429" style="font:300 14px 'Lucida Console',monospace" fill="#000000">jurisdictionCountry:</text><text x="876.432" y="132.429" style="font:300 14px 'Lucida Console',monospace" fill="#530abb">Code(countryCode)</text><text x="687" y="146.429" style="font:700 14px 'Lucida Console',monospace" fill="#000000">* administeredBy:</text><text x="834.288" y="146.429" style="font:300 14px 'Lucida Console',monospace" fill="#02b57b">Party</text><text x="703.857" y="160.429" style="font:300 14px 'Lucida Console',monospace" fill="#000000">effectiveDate:</text><text x="825.859" y="160.429" style="font:300 14px 'Lucida Console',monospace" fill="#02b57b">Date</text><path fill="#FFFFFF" stroke="#aabbccdd" stroke-width="3" d="M-100 350h219.003v92H-100z"/><path fill="#aabbccdd" stroke="#aabbccdd" d="M-99 375h219.003"/><path fill="none" stroke="#aabbccdd" stroke-width="3" d="M-100 350h219.003v92H-100z"/><text x="-90" y="368" style="font:700 16px 'Lucida Console',monospace" fill="#000000">untp-core.Metric</text><text x="-90" y="392" style="font:700 14px 'Lucida Console',monospace" fill="#000000">* metricName:</text><text x="23.573" y="392" style="font:300 14px 'Lucida Console',monospace" fill="#02b57b">Text</text><text x="-90" y="406" style="font:700 14px 'Lucida Console',monospace" fill="#000000">* metricValue:</text><text x="32.002" y="406" style="font:300 14px 'Lucida Console',monospace" fill="#02b57b">Measure</text><text x="-73.143" y="420" style="font:300 14px 'Lucida Console',monospace" fill="#000000">score:</text><text x="-18.57" y="420" style="font:300 14px 'Lucida Console',monospace" fill="#02b57b">Text</text><text x="-73.143" y="434" style="font:300 14px 'Lucida Console',monospace" fill="#000000">accuracy:</text><text x="6.716" y="434" style="font:300 14px 'Lucida Console',monospace" fill="#02b57b">Numeric</text><path fill="#FFFFFF" stroke="#aabbccdd" stroke-width="3" d="M672.12 365.286h298.045v106H672.12z"/><path fill="#aabbccdd" stroke="#aabbccdd" d="M673.12 390.286h298.045"/><path fill="none" stroke="#aabbccdd" stroke-width="3" d="M672.12 365.286h298.045v106H672.12z"/><text x="682.12" y="383.286" style="font:700 16px 'Lucida Console',monospace" fill="#000000">untp-core.Classification</text><text x="682.12" y="407.286" style="font:700 14px 'Lucida Console',monospace" fill="#000000">* id:</text><text x="728.264" y="407.286" style="font:300 14px 'Lucida Console',monospace" fill="#C9A30B">URI</text><text x="698.978" y="421.286" style="font:300 14px 'Lucida Console',monospace" fill="#000000">code:</text><text x="745.121" y="421.286" style="font:300 14px 'Lucida Console',monospace" fill="#02b57b">Text</text><text x="682.12" y="435.286" style="font:700 14px 'Lucida Console',monospace" fill="#000000">* name:</text><text x="745.121" y="435.286" style="font:300 14px 'Lucida Console',monospace" fill="#02b57b">Text</text><text x="698.978" y="449.286" style="font:300 14px 'Lucida Console',monospace" fill="#000000">schemeID:</text><text x="778.836" y="449.286" style="font:300 14px 'Lucida Console',monospace" fill="#02b57b">URI</text><text x="698.978" y="463.286" style="font:300 14px 'Lucida Console',monospace" fill="#000000">schemeName:</text><text x="795.694" y="463.286" style="font:300 14px 'Lucida Console',monospace" fill="#02b57b">Text</text></svg>