<svg xmlns="http://www.w3.org/2000/svg" viewBox="-71.7 -81 793.962 1064.429"><rect width="1000%" height="1000%" x="-500%" y="-500%" fill="#EEEEEE"/><path fill="none" stroke="#EEEEEE" stroke-width="8" d="M469.739.01l-.01-.01v196.143h63.266"/><defs><linearGradient id="a" x1="0%" x2="50%" y1="0%" y2="50%"><stop offset="0%" stop-color="#3397DA"/><stop offset="100%" stop-color="#3397DA"/></linearGradient></defs><path fill="none" stroke="url(#a)" stroke-width="3" d="M469.739.01l-.01-.01v196.143h63.266"/><path fill="none" stroke="url(#a)" stroke-width="1.5" d="M489.739 101.653l-2.01-.01v8h2M493.739 101.653l1.99-.01v8h-2"/><path fill="none" stroke="#EEEEEE" stroke-width="8" d="M533.005 196.153l-.01-.01H72.66v.571"/><defs><linearGradient id="b" x1="0%" x2="50%" y1="0%" y2="50%"><stop offset="0%" stop-color="#3397DA"/><stop offset="100%" stop-color="#2ECB70"/></linearGradient></defs><path fill="none" stroke="url(#b)" stroke-width="3" d="M533.005 196.153l-.01-.01H72.66v.571"/><path fill="none" stroke="url(#b)" stroke-width="1.5" d="M217.586 176.153l-2.01-.01v8h2M221.586 176.153l1.99-.01v8h-2"/><path fill="none" stroke="#EEEEEE" stroke-width="8" d="M114.141 209.724l-.01-.01v86.572H67.93"/><defs><linearGradient id="c" x1="0%" x2="50%" y1="0%" y2="50%"><stop offset="0%" stop-color="#2ECB70"/><stop offset="100%" stop-color="#2ECB70"/></linearGradient></defs><path fill="none" stroke="url(#c)" stroke-width="3" d="M114.141 209.724l-.01-.01v86.572H67.93"/><path fill="none" stroke="#EEEEEE" stroke-width="8" d="M31.197 183.724l-.01-.01V69.143H48.3"/><defs><linearGradient id="d" x1="100%" x2="50%" y1="100%" y2="50%"><stop offset="0%" stop-color="#2ECB70"/><stop offset="100%" stop-color="#2ECB70"/></linearGradient></defs><path fill="none" stroke="url(#d)" stroke-width="3" d="M31.197 183.724l-.01-.01V69.143H48.3"/><path fill="none" stroke="url(#d)" stroke-width="1.5" d="M51.197 135.653l-2.01-.01v8h2M55.197 135.653l1.99-.01v8h-2"/><path fill="none" stroke="#EEEEEE" stroke-width="8" d="M478.955 300.153l-.01-.01V415h2.072"/><defs><linearGradient id="e" x1="0%" x2="50%" y1="0%" y2="50%"><stop offset="0%" stop-color="#3397DA"/><stop offset="100%" stop-color="#3397DA"/></linearGradient></defs><path fill="none" stroke="url(#e)" stroke-width="3" d="M478.955 300.153l-.01-.01V415h2.072"/><path fill="none" stroke="#EEEEEE" stroke-width="8" d="M478.955 300.153l-.01-.01v486.714h-6.643"/><defs><linearGradient id="f" x1="0%" x2="50%" y1="0%" y2="50%"><stop offset="0%" stop-color="#3397DA"/><stop offset="100%" stop-color="#3397DA"/></linearGradient></defs><path fill="none" stroke="url(#f)" stroke-width="3" d="M478.955 300.153l-.01-.01v486.714h-6.643"/><path fill="none" stroke="#EEEEEE" stroke-width="8" d="M478.955 300.153l-.01-.01V561h11.572"/><defs><linearGradient id="g" x1="0%" x2="50%" y1="0%" y2="50%"><stop offset="0%" stop-color="#3397DA"/><stop offset="100%" stop-color="#3397DA"/></linearGradient></defs><path fill="none" stroke="url(#g)" stroke-width="3" d="M478.955 300.153l-.01-.01V561h11.572"/><path fill="none" stroke="#EEEEEE" stroke-width="8" d="M478.955 300.153l-.01-.01v606.286h-1"/><defs><linearGradient id="h" x1="0%" x2="50%" y1="0%" y2="50%"><stop offset="0%" stop-color="#3397DA"/><stop offset="100%" stop-color="#3397DA"/></linearGradient></defs><path fill="none" stroke="url(#h)" stroke-width="3" d="M478.955 300.153l-.01-.01v606.286h-1"/><path fill="none" stroke="#EEEEEE" stroke-width="8" d="M478.955 300.153l-.01-.01V679.57h5.857"/><defs><linearGradient id="i" x1="0%" x2="50%" y1="0%" y2="50%"><stop offset="0%" stop-color="#3397DA"/><stop offset="100%" stop-color="#3397DA"/></linearGradient></defs><path fill="none" stroke="url(#i)" stroke-width="3" d="M478.955 300.153l-.01-.01V679.57h5.857"/><path fill="#FFFFFF" stroke="#3397DA" stroke-width="3" d="M310.879-61h317.7V61h-317.7z"/><path fill="#3397da" stroke="#3397da" d="M311.879-20h317.7"/><path fill="none" stroke="#3397DA" stroke-width="3" d="M310.879-61h317.7V61h-317.7z"/><text style="font:700 16px 'Lucida Console',monospace" x="320.879" y="-43" fill="#000000">DigitalTraceabilityEvent</text><text style="font:300 14px 'Lucida Console',monospace" x="320.879" y="-27" fill="#999">＜＜untp.VerifiableCredential＞＞</text><text style="font:700 14px 'Lucida Console',monospace" x="320.879" y="-3" fill="#000000">* id:</text><text style="font:300 14px 'Lucida Console',monospace" x="367.045" y="-3" fill="#C9A30B">URI</text><text style="font:700 14px 'Lucida Console',monospace" x="320.879" y="11" fill="#000000">* @context:</text><text style="font:300 14px 'Lucida Console',monospace" x="417.645" y="11" fill="#547000">Text[]</text><text style="font:700 14px 'Lucida Console',monospace" x="320.879" y="25" fill="#000000">* issuer:</text><text style="font:300 14px 'Lucida Console',monospace" x="400.779" y="25" fill="#547000">untp.CredentialIssuer</text><text style="font:300 14px 'Lucida Console',monospace" x="337.745" y="39" fill="#000000">validFrom:</text><text style="font:300 14px 'Lucida Console',monospace" x="426.079" y="39" fill="#547000">DateTime</text><text style="font:300 14px 'Lucida Console',monospace" x="337.745" y="53" fill="#000000">credentialSubject:</text><text style="font:300 14px 'Lucida Console',monospace" x="493.545" y="53" fill="#3397DA">Event[]</text><path fill="#FFFFFF" stroke="#3397DA" stroke-width="3" d="M316.795 122.143h324.3v148h-324.3z"/><path fill="#3397da" stroke="#3397da" d="M317.795 147.143h324.3"/><path fill="none" stroke="#3397DA" stroke-width="3" d="M316.795 122.143h324.3v148h-324.3z"/><text style="font:700 16px 'Lucida Console',monospace" x="326.795" y="140.143" fill="#000000">Event</text><text style="font:300 14px 'Lucida Console',monospace" x="384.962" y="140.143" fill="#000000">&lt;&lt;abstract&gt;&gt;</text><text style="font:300 14px 'Lucida Console',monospace" x="326.795" y="164.143" fill="#000000">id:</text><text style="font:300 14px 'Lucida Console',monospace" x="356.095" y="164.143" fill="#C9A30B">URI</text><text style="font:300 14px 'Lucida Console',monospace" x="326.795" y="178.143" fill="#000000">processType:</text><text style="font:300 14px 'Lucida Console',monospace" x="431.995" y="178.143" fill="#02b57b">Text</text><text style="font:300 14px 'Lucida Console',monospace" x="326.795" y="192.143" fill="#000000">eventTime:</text><text style="font:300 14px 'Lucida Console',monospace" x="415.129" y="192.143" fill="#02b57b">DateTime</text><text style="font:300 14px 'Lucida Console',monospace" x="326.795" y="206.143" fill="#000000">action:</text><text style="font:300 14px 'Lucida Console',monospace" x="389.829" y="206.143" fill="#530abb">Code(actionCode)</text><text style="font:300 14px 'Lucida Console',monospace" x="326.795" y="220.143" fill="#000000">disposition:</text><text style="font:300 14px 'Lucida Console',monospace" x="431.995" y="220.143" fill="#530abb">Code(dispositionCode)</text><text style="font:300 14px 'Lucida Console',monospace" x="326.795" y="234.143" fill="#000000">bizStep:</text><text style="font:300 14px 'Lucida Console',monospace" x="398.262" y="234.143" fill="#530abb">Code(bizStepCode)</text><text style="font:300 14px 'Lucida Console',monospace" x="326.795" y="248.143" fill="#000000">bizLocation:</text><text style="font:300 14px 'Lucida Console',monospace" x="431.995" y="248.143" fill="#02b57b">URI</text><text style="font:300 14px 'Lucida Console',monospace" x="326.795" y="262.143" fill="#000000">sensorElementList:</text><text style="font:300 14px 'Lucida Console',monospace" x="482.595" y="262.143" fill="#2ECB70">SensorElement[]</text><path fill="#3397da" stroke="#EEEEEE" stroke-width="3" d="M478.945 264.143l-12 22 12-2h0l12 2-12-22"/><path fill="#3397da" stroke="#EEEEEE" stroke-width="3" d="M478.945 264.143l-12 22 12-2h0l12 2-12-22"/><path fill="#3397da" stroke="#3397da" stroke-width="3" d="M478.945 276.143v25.5"/><path fill="#FFFFFF" stroke="#3397DA" stroke-width="3" d="M312.217 353h337.6v92h-337.6z"/><path fill="#3397da" stroke="#3397da" d="M313.217 378h337.6"/><path fill="none" stroke="#3397DA" stroke-width="3" d="M312.217 353h337.6v92h-337.6z"/><text style="font:700 16px 'Lucida Console',monospace" x="322.217" y="371" fill="#000000">TransformationEvent</text><text style="font:300 14px 'Lucida Console',monospace" x="322.217" y="395" fill="#000000">outputEPCList:</text><text style="font:300 14px 'Lucida Console',monospace" x="444.283" y="395" fill="#3397DA">Item[]</text><text style="font:300 14px 'Lucida Console',monospace" x="322.217" y="409" fill="#000000">inputEPCList:</text><text style="font:300 14px 'Lucida Console',monospace" x="435.85" y="409" fill="#3397DA">Item[]</text><text style="font:300 14px 'Lucida Console',monospace" x="322.217" y="423" fill="#000000">inputQuantityList:</text><text style="font:300 14px 'Lucida Console',monospace" x="478.017" y="423" fill="#2ECB70">QuantityElement[]</text><text style="font:300 14px 'Lucida Console',monospace" x="322.217" y="437" fill="#000000">outputQuantityList:</text><text style="font:300 14px 'Lucida Console',monospace" x="486.45" y="437" fill="#2ECB70">QuantityElement[]</text><path fill="#FFFFFF" stroke="#3397DA" stroke-width="3" d="M328.802 738.857h287v64h-287z"/><path fill="#3397da" stroke="#3397da" d="M329.802 763.857h287"/><path fill="none" stroke="#3397DA" stroke-width="3" d="M328.802 738.857h287v64h-287z"/><text style="font:700 16px 'Lucida Console',monospace" x="338.802" y="756.857" fill="#000000">ObjectEvent</text><text style="font:300 14px 'Lucida Console',monospace" x="338.802" y="780.857" fill="#000000">epcList:</text><text style="font:300 14px 'Lucida Console',monospace" x="410.269" y="780.857" fill="#3397DA">Item[]</text><text style="font:300 14px 'Lucida Console',monospace" x="338.802" y="794.857" fill="#000000">quantityList:</text><text style="font:300 14px 'Lucida Console',monospace" x="452.435" y="794.857" fill="#2ECB70">QuantityElement[]</text><path fill="#FFFFFF" stroke="#3397DA" stroke-width="3" d="M325.933 506H655.1v78H325.933z"/><path fill="#3397da" stroke="#3397da" d="M326.933 531H656.1"/><path fill="none" stroke="#3397DA" stroke-width="3" d="M325.933 506H655.1v78H325.933z"/><text style="font:700 16px 'Lucida Console',monospace" x="335.933" y="524" fill="#000000">AggregationEvent</text><text style="font:300 14px 'Lucida Console',monospace" x="335.933" y="548" fill="#000000">parentEPC:</text><text style="font:300 14px 'Lucida Console',monospace" x="424.267" y="548" fill="#3397DA">Item</text><text style="font:300 14px 'Lucida Console',monospace" x="335.933" y="562" fill="#000000">childEPCList:</text><text style="font:300 14px 'Lucida Console',monospace" x="449.567" y="562" fill="#3397DA">Item[]</text><text style="font:300 14px 'Lucida Console',monospace" x="335.933" y="576" fill="#000000">childQuantityList:</text><text style="font:300 14px 'Lucida Console',monospace" x="491.733" y="576" fill="#2ECB70">QuantityElement[]</text><path fill="#FFFFFF" stroke="#3397DA" stroke-width="3" d="M273.628 837.429h408.633v106H273.628z"/><path fill="#3397da" stroke="#3397da" d="M274.628 862.429h408.634"/><path fill="none" stroke="#3397DA" stroke-width="3" d="M273.628 837.429h408.633v106H273.628z"/><text style="font:700 16px 'Lucida Console',monospace" x="283.628" y="855.429" fill="#000000">TransactionEvent</text><text style="font:700 14px 'Lucida Console',monospace" x="283.628" y="879.429" fill="#000000">* sourceParty:</text><text style="font:300 14px 'Lucida Console',monospace" x="405.695" y="879.429" fill="#547000">untp.Party &lt;&lt;reference&gt;&gt;</text><text style="font:700 14px 'Lucida Console',monospace" x="283.628" y="893.429" fill="#000000">* destinationParty:</text><text style="font:300 14px 'Lucida Console',monospace" x="447.862" y="893.429" fill="#547000">untp.Party &lt;&lt;reference&gt;&gt;</text><text style="font:300 14px 'Lucida Console',monospace" x="300.495" y="907.429" fill="#000000">bizTransaction:</text><text style="font:300 14px 'Lucida Console',monospace" x="430.995" y="907.429" fill="#530abb">Code(documentTypeCode)</text><text style="font:300 14px 'Lucida Console',monospace" x="300.495" y="921.429" fill="#000000">epcList:</text><text style="font:300 14px 'Lucida Console',monospace" x="371.962" y="921.429" fill="#3397DA">Item[]</text><text style="font:300 14px 'Lucida Console',monospace" x="300.495" y="935.429" fill="#000000">quantityList:</text><text style="font:300 14px 'Lucida Console',monospace" x="414.128" y="935.429" fill="#2ECB70">QuantityElement[]</text><path fill="#FFFFFF" stroke="#3397DA" stroke-width="3" d="M320.219 624.571h329.167v78H320.219z"/><path fill="#3397da" stroke="#3397da" d="M321.22 649.571h329.166"/><path fill="none" stroke="#3397DA" stroke-width="3" d="M320.219 624.571h329.167v78H320.219z"/><text style="font:700 16px 'Lucida Console',monospace" x="330.219" y="642.571" fill="#000000">AssociationEvent</text><text style="font:300 14px 'Lucida Console',monospace" x="330.219" y="666.571" fill="#000000">parentEPC:</text><text style="font:300 14px 'Lucida Console',monospace" x="418.552" y="666.571" fill="#3397DA">Item</text><text style="font:300 14px 'Lucida Console',monospace" x="330.219" y="680.571" fill="#000000">childEPCList:</text><text style="font:300 14px 'Lucida Console',monospace" x="443.852" y="680.571" fill="#3397DA">Item[]</text><text style="font:300 14px 'Lucida Console',monospace" x="330.219" y="694.571" fill="#000000">childQuantityList:</text><text style="font:300 14px 'Lucida Console',monospace" x="486.019" y="694.571" fill="#2ECB70">QuantityElement[]</text><path fill="#FFFFFF" stroke="#2ECB70" stroke-width="3" d="M-51.7 500h212.867v92H-51.7z"/><path fill="#2ecb70" stroke="#2ecb70" d="M-50.7 525h212.867"/><path fill="none" stroke="#2ECB70" stroke-width="3" d="M-51.7 500h212.867v92H-51.7z"/><text style="font:700 16px 'Lucida Console',monospace" x="-41.7" y="518" fill="#000000">QuantityElement</text><text style="font:700 14px 'Lucida Console',monospace" x="-41.7" y="542" fill="#000000">* productId:</text><text style="font:300 14px 'Lucida Console',monospace" x="63.5" y="542" fill="#547000">URI</text><text style="font:700 14px 'Lucida Console',monospace" x="-41.7" y="556" fill="#000000">* productName:</text><text style="font:300 14px 'Lucida Console',monospace" x="80.367" y="556" fill="#547000">Text</text><text style="font:700 14px 'Lucida Console',monospace" x="-41.7" y="570" fill="#000000">* quantity:</text><text style="font:300 14px 'Lucida Console',monospace" x="55.067" y="570" fill="#02b57b">Numeric</text><text style="font:300 14px 'Lucida Console',monospace" x="-24.833" y="584" fill="#000000">uom:</text><text style="font:300 14px 'Lucida Console',monospace" x="12.9" y="584" fill="#530abb">Code(UOM)</text><path fill="#FFFFFF" stroke="#3397DA" stroke-width="3" d="M-51.7 400h204.867v64H-51.7z"/><path fill="#3397da" stroke="#3397da" d="M-50.7 425h204.867"/><path fill="none" stroke="#3397DA" stroke-width="3" d="M-51.7 400h204.867v64H-51.7z"/><text style="font:700 16px 'Lucida Console',monospace" x="-41.7" y="418" fill="#000000">Item</text><text style="font:700 14px 'Lucida Console',monospace" x="-41.7" y="442" fill="#000000">* id:</text><text style="font:300 14px 'Lucida Console',monospace" x="4.467" y="442" fill="#C9A30B">URI</text><text style="font:700 14px 'Lucida Console',monospace" x="-41.7" y="456" fill="#000000">* name:</text><text style="font:300 14px 'Lucida Console',monospace" x="21.333" y="456" fill="#547000">Text</text><path fill="#FFFFFF" stroke="#2ECB70" stroke-width="3" d="M-51.758 157.714h248.833v78H-51.758z"/><path fill="#2ecb70" stroke="#2ecb70" d="M-50.758 182.714h248.834"/><path fill="none" stroke="#2ECB70" stroke-width="3" d="M-51.758 157.714h248.833v78H-51.758z"/><text style="font:700 16px 'Lucida Console',monospace" x="-41.758" y="175.714" fill="#000000">SensorElement</text><text style="font:300 14px 'Lucida Console',monospace" x="-41.758" y="199.714" fill="#000000">sensorMetadata:</text><text style="font:300 14px 'Lucida Console',monospace" x="88.742" y="199.714" fill="#2ECB70">Sensor</text><text style="font:300 14px 'Lucida Console',monospace" x="-41.758" y="213.714" fill="#000000">sensorReport:</text><text style="font:300 14px 'Lucida Console',monospace" x="71.876" y="213.714" fill="#2ECB70">SensorData[]</text><text style="font:300 14px 'Lucida Console',monospace" x="-41.758" y="227.714" fill="#000000">sensorIntegrityProof:</text><text style="font:300 14px 'Lucida Console',monospace" x="139.342" y="227.714" fill="#02b57b">URI</text><path fill="#FFFFFF" stroke="#2ECB70" stroke-width="3" d="M-50.271 264.286h236.4v64h-236.4z"/><path fill="#2ecb70" stroke="#2ecb70" d="M-49.271 289.286h236.4"/><path fill="none" stroke="#2ECB70" stroke-width="3" d="M-50.271 264.286h236.4v64h-236.4z"/><text style="font:700 16px 'Lucida Console',monospace" x="-40.271" y="282.286" fill="#000000">Sensor</text><text style="font:300 14px 'Lucida Console',monospace" x="-40.271" y="306.286" fill="#000000">device:</text><text style="font:300 14px 'Lucida Console',monospace" x="22.762" y="306.286" fill="#3397DA">Item</text><text style="font:300 14px 'Lucida Console',monospace" x="-40.271" y="320.286" fill="#000000">dataProcessingMethod:</text><text style="font:300 14px 'Lucida Console',monospace" x="140.829" y="320.286" fill="#02b57b">URI</text><path fill="#FFFFFF" stroke="#2ECB70" stroke-width="3" d="M-49.7 23.143h196v92h-196z"/><path fill="#2ecb70" stroke="#2ecb70" d="M-48.7 48.143h196"/><path fill="none" stroke="#2ECB70" stroke-width="3" d="M-49.7 23.143h196v92h-196z"/><text style="font:700 16px 'Lucida Console',monospace" x="-39.7" y="41.143" fill="#000000">SensorData</text><text style="font:300 14px 'Lucida Console',monospace" x="-39.7" y="65.143" fill="#000000">time:</text><text style="font:300 14px 'Lucida Console',monospace" x="6.467" y="65.143" fill="#02b57b">DateTime</text><text style="font:300 14px 'Lucida Console',monospace" x="-39.7" y="79.143" fill="#000000">sensorType:</text><text style="font:300 14px 'Lucida Console',monospace" x="57.067" y="79.143" fill="#02b57b">URI</text><text style="font:300 14px 'Lucida Console',monospace" x="-39.7" y="93.143" fill="#000000">value:</text><text style="font:300 14px 'Lucida Console',monospace" x="14.9" y="93.143" fill="#02b57b">Numeric</text><text style="font:300 14px 'Lucida Console',monospace" x="-39.7" y="107.143" fill="#000000">uom:</text><text style="font:300 14px 'Lucida Console',monospace" x="-1.967" y="107.143" fill="#530abb">Code(UOM)</text></svg>