<svg xmlns="http://www.w3.org/2000/svg" viewBox="-118 -59.548 1283.732 939.833"><rect width="1000%" height="1000%" x="-500%" y="-500%" fill="#EEEEEE"/><path fill="none" stroke="#EEEEEE" stroke-width="8" d="M681.608 27.462l-.01-.01h-397.81V0"/><defs><linearGradient id="a" x1="100%" x2="50%" y1="100%" y2="50%"><stop offset="0%" stop-color="#3397DA"/><stop offset="100%" stop-color="#2ECB70"/></linearGradient></defs><path fill="none" stroke="url(#a)" stroke-width="3" d="M681.608 27.462l-.01-.01h-397.81V0"/><path fill="none" stroke="url(#a)" stroke-width="1.5" d="M428.656 7.462l-2.01-.01v8h2M432.656 7.462l1.99-.01v8h-2"/><path fill="none" stroke="#EEEEEE" stroke-width="8" d="M522.35 574.439l-.01-.01h-399.9V341.952"/><defs><linearGradient id="b" x1="100%" x2="50%" y1="100%" y2="50%"><stop offset="0%" stop-color="#FF3986"/><stop offset="100%" stop-color="#3397DA"/></linearGradient></defs><path fill="none" stroke="url(#b)" stroke-width="3" d="M522.35 574.439l-.01-.01h-399.9V341.952"/><path fill="none" stroke="url(#b)" stroke-width="1.5" d="M142.45 394.462l-2.01-.01v8h2M146.45 394.462l1.99-.01v8h-2"/><path fill="none" stroke="#EEEEEE" stroke-width="8" d="M617.97 595.772l-.01-.01h370.63V436.549"/><defs><linearGradient id="c" x1="0%" x2="50%" y1="0%" y2="50%"><stop offset="0%" stop-color="#FF3986"/><stop offset="100%" stop-color="#2ECB70"/></linearGradient></defs><path fill="none" stroke="url(#c)" stroke-width="3" d="M617.97 595.772l-.01-.01h370.63V436.549"/><path fill="none" stroke="url(#c)" stroke-width="1.5" d="M1008.6 512.773l-2.01-.01v8h2M1012.6 512.773l1.99-.01v8h-2"/><path fill="none" stroke="#EEEEEE" stroke-width="8" d="M497.203 329.962l-.01-.01H84.84v5.6"/><defs><linearGradient id="d" x1="100%" x2="50%" y1="100%" y2="50%"><stop offset="0%" stop-color="#FF3986"/><stop offset="100%" stop-color="#3397DA"/></linearGradient></defs><path fill="none" stroke="url(#d)" stroke-width="3" d="M497.203 329.962l-.01-.01H84.84v5.6"/><path fill="none" stroke="#EEEEEE" stroke-width="8" d="M579.454 368.962l-.01-.01H160.04v-39.8"/><defs><linearGradient id="e" x1="100%" x2="50%" y1="100%" y2="50%"><stop offset="0%" stop-color="#FF3986"/><stop offset="100%" stop-color="#3397DA"/></linearGradient></defs><path fill="none" stroke="url(#e)" stroke-width="3" d="M579.454 368.962l-.01-.01H160.04v-39.8"/><path fill="none" stroke="url(#e)" stroke-width="1.5" d="M218.15 348.962l-2.01-.01v8h2M222.15 348.962l1.99-.01v8h-2"/><path fill="none" stroke="#EEEEEE" stroke-width="8" d="M661.705 349.462l-.01-.01h354.323v98.24"/><defs><linearGradient id="f" x1="0%" x2="50%" y1="0%" y2="50%"><stop offset="0%" stop-color="#FF3986"/><stop offset="100%" stop-color="#2ECB70"/></linearGradient></defs><path fill="none" stroke="url(#f)" stroke-width="3" d="M661.705 349.462l-.01-.01h354.323v98.24"/><path fill="none" stroke="url(#f)" stroke-width="1.5" d="M1036.028 393.773l-2.01-.01v8h2M1040.028 393.773l1.99-.01v8h-2"/><path fill="none" stroke="#EEEEEE" stroke-width="8" d="M515.395 686.724l-.01-.01H135.169v104.048"/><defs><linearGradient id="g" x1="0%" x2="50%" y1="0%" y2="50%"><stop offset="0%" stop-color="#FF3986"/><stop offset="100%" stop-color="#3397DA"/></linearGradient></defs><path fill="none" stroke="url(#g)" stroke-width="3" d="M515.395 686.724l-.01-.01H135.169v104.048"/><path fill="none" stroke="#EEEEEE" stroke-width="8" d="M564.61 722.058l-.01-.01H197.835v90.047"/><defs><linearGradient id="h" x1="0%" x2="50%" y1="0%" y2="50%"><stop offset="0%" stop-color="#FF3986"/><stop offset="100%" stop-color="#3397DA"/></linearGradient></defs><path fill="none" stroke="url(#h)" stroke-width="3" d="M564.61 722.058l-.01-.01H197.835v90.047"/><path fill="none" stroke="#EEEEEE" stroke-width="8" d="M466.18 669.058l-.01-.01H47.24V322.752"/><defs><linearGradient id="i" x1="100%" x2="50%" y1="100%" y2="50%"><stop offset="0%" stop-color="#FF3986"/><stop offset="100%" stop-color="#3397DA"/></linearGradient></defs><path fill="none" stroke="url(#i)" stroke-width="3" d="M466.18 669.058l-.01-.01H47.24V322.752"/><path fill="none" stroke="url(#i)" stroke-width="1.5" d="M67.25 394.462l-2.01-.01v8h2M71.25 394.462l1.99-.01v8h-2"/><path fill="none" stroke="#EEEEEE" stroke-width="8" d="M663.04 686.724l-.01-.01h380.417v-227.88"/><defs><linearGradient id="j" x1="0%" x2="50%" y1="0%" y2="50%"><stop offset="0%" stop-color="#FF3986"/><stop offset="100%" stop-color="#2ECB70"/></linearGradient></defs><path fill="none" stroke="url(#j)" stroke-width="3" d="M663.04 686.724l-.01-.01h380.417v-227.88"/><path fill="none" stroke="url(#j)" stroke-width="1.5" d="M1063.457 512.773l-2.01-.01v8h2M1067.457 512.773l1.99-.01v8h-2"/><path fill="none" stroke="#EEEEEE" stroke-width="8" d="M613.825 704.391l-.01-.01h306.687v96.905"/><defs><linearGradient id="k" x1="0%" x2="50%" y1="0%" y2="50%"><stop offset="0%" stop-color="#FF3986"/><stop offset="100%" stop-color="#2ECB70"/></linearGradient></defs><path fill="none" stroke="url(#k)" stroke-width="3" d="M613.825 704.391l-.01-.01h306.687v96.905"/><path fill="none" stroke="#EEEEEE" stroke-width="8" d="M468.865 195.24l-.01-.01H66.04v133.922"/><defs><linearGradient id="l" x1="0%" x2="50%" y1="0%" y2="50%"><stop offset="0%" stop-color="#FF3986"/><stop offset="100%" stop-color="#3397DA"/></linearGradient></defs><path fill="none" stroke="url(#l)" stroke-width="3" d="M468.865 195.24l-.01-.01H66.04v133.922"/><path fill="none" stroke="url(#l)" stroke-width="1.5" d="M86.05 289.462l-2.01-.01v8h2M90.05 289.462l1.99-.01v8h-2"/><path fill="none" stroke="#EEEEEE" stroke-width="8" d="M537.152 216.44l-.01-.01H141.24v119.122"/><defs><linearGradient id="m" x1="0%" x2="50%" y1="0%" y2="50%"><stop offset="0%" stop-color="#FF3986"/><stop offset="100%" stop-color="#3397DA"/></linearGradient></defs><path fill="none" stroke="url(#m)" stroke-width="3" d="M537.152 216.44l-.01-.01H141.24v119.122"/><path fill="none" stroke="url(#m)" stroke-width="1.5" d="M161.25 289.462l-2.01-.01v8h2M165.25 289.462l1.99-.01v8h-2"/><path fill="none" stroke="#EEEEEE" stroke-width="8" d="M605.439 237.64l-.01-.01H961.16v187.776"/><defs><linearGradient id="n" x1="0%" x2="50%" y1="0%" y2="50%"><stop offset="0%" stop-color="#FF3986"/><stop offset="100%" stop-color="#2ECB70"/></linearGradient></defs><path fill="none" stroke="url(#n)" stroke-width="3" d="M605.439 237.64l-.01-.01H961.16v187.776"/><path fill="none" stroke="url(#n)" stroke-width="1.5" d="M981.17 393.773l-2.01-.01v8h2M985.17 393.773l1.99-.01v8h-2"/><path fill="none" stroke="#EEEEEE" stroke-width="8" d="M673.725 216.44l-.01-.01h424.589v220.12"/><defs><linearGradient id="o" x1="0%" x2="50%" y1="0%" y2="50%"><stop offset="0%" stop-color="#FF3986"/><stop offset="100%" stop-color="#2ECB70"/></linearGradient></defs><path fill="none" stroke="url(#o)" stroke-width="3" d="M673.725 216.44l-.01-.01h424.589v220.12"/><path fill="none" stroke="url(#o)" stroke-width="1.5" d="M1118.314 393.773l-2.01-.01v8h2M1122.314 393.773l1.99-.01v8h-2"/><path fill="none" stroke="#EEEEEE" stroke-width="8" d="M502.044 447.939l-.01-.01H103.64v-99.577"/><defs><linearGradient id="p" x1="100%" x2="50%" y1="100%" y2="50%"><stop offset="0%" stop-color="#FF3986"/><stop offset="100%" stop-color="#3397DA"/></linearGradient></defs><path fill="none" stroke="url(#p)" stroke-width="3" d="M502.044 447.939l-.01-.01H103.64v-99.577"/><path fill="none" stroke="#EEEEEE" stroke-width="8" d="M584.296 486.939l-.01-.01H178.84V322.752"/><defs><linearGradient id="q" x1="100%" x2="50%" y1="100%" y2="50%"><stop offset="0%" stop-color="#FF3986"/><stop offset="100%" stop-color="#3397DA"/></linearGradient></defs><path fill="none" stroke="url(#q)" stroke-width="3" d="M584.296 486.939l-.01-.01H178.84V322.752"/><path fill="none" stroke="url(#q)" stroke-width="1.5" d="M198.85 394.462l-2.01-.01v8h2M202.85 394.462l1.99-.01v8h-2"/><path fill="none" stroke="#EEEEEE" stroke-width="8" d="M666.547 467.439l-.01-.01h404.338v-19.737"/><defs><linearGradient id="r" x1="0%" x2="50%" y1="0%" y2="50%"><stop offset="0%" stop-color="#FF3986"/><stop offset="100%" stop-color="#2ECB70"/></linearGradient></defs><path fill="none" stroke="url(#r)" stroke-width="3" d="M666.547 467.439l-.01-.01h404.338v-19.737"/><path fill="none" stroke="url(#r)" stroke-width="1.5" d="M913.242 447.439l-2.01-.01v8h2M917.242 447.439l1.99-.01v8h-2"/><path fill="none" stroke="#EEEEEE" stroke-width="8" d="M325.25 13.01l-.01-.01v102.714H283.86"/><defs><linearGradient id="s" x1="0%" x2="50%" y1="0%" y2="50%"><stop offset="0%" stop-color="#2ECB70"/><stop offset="100%" stop-color="#2ECB70"/></linearGradient></defs><path fill="none" stroke="url(#s)" stroke-width="3" d="M325.25 13.01l-.01-.01v102.714H283.86"/><path fill="none" stroke="#EEEEEE" stroke-width="8" d="M242.344-12.99l-.01-.01H0V1.714"/><defs><linearGradient id="t" x1="0%" x2="50%" y1="0%" y2="50%"><stop offset="0%" stop-color="#2ECB70"/><stop offset="100%" stop-color="#2ECB70"/></linearGradient></defs><path fill="none" stroke="url(#t)" stroke-width="3" d="M242.344-12.99l-.01-.01H0V1.714"/><path fill="none" stroke="url(#t)" stroke-width="1.5" d="M118.51-32.99L116.5-33v8h2M122.51-32.99l1.99-.01v8h-2"/><path fill="none" stroke="#EEEEEE" stroke-width="8" d="M283.869 115.724l-.01-.01H28.44v200.638"/><defs><linearGradient id="u" x1="0%" x2="50%" y1="0%" y2="50%"><stop offset="0%" stop-color="#2ECB70"/><stop offset="100%" stop-color="#3397DA"/></linearGradient></defs><path fill="none" stroke="url(#u)" stroke-width="3" d="M283.869 115.724l-.01-.01H28.44v200.638"/><path fill="none" stroke="#EEEEEE" stroke-width="8" d="M627.583 124.462l-.01-.01v476.643h-57.422"/><defs><linearGradient id="v" x1="0%" x2="50%" y1="0%" y2="50%"><stop offset="0%" stop-color="#3397DA"/><stop offset="100%" stop-color="#FF3986"/></linearGradient></defs><path fill="none" stroke="url(#v)" stroke-width="3" d="M627.583 124.462l-.01-.01v476.643h-57.422"/><path fill="none" stroke="#EEEEEE" stroke-width="8" d="M627.583 124.462l-.01-.01v241h-48.13"/><defs><linearGradient id="w" x1="0%" x2="50%" y1="0%" y2="50%"><stop offset="0%" stop-color="#3397DA"/><stop offset="100%" stop-color="#FF3986"/></linearGradient></defs><path fill="none" stroke="url(#w)" stroke-width="3" d="M627.583 124.462l-.01-.01v241h-48.13"/><path fill="none" stroke="#EEEEEE" stroke-width="8" d="M627.583 124.462l-.01-.01v595.93H564.6"/><defs><linearGradient id="x" x1="0%" x2="50%" y1="0%" y2="50%"><stop offset="0%" stop-color="#3397DA"/><stop offset="100%" stop-color="#FF3986"/></linearGradient></defs><path fill="none" stroke="url(#x)" stroke-width="3" d="M627.583 124.462l-.01-.01v595.93H564.6"/><path fill="none" stroke="#EEEEEE" stroke-width="8" d="M627.583 124.462l-.01-.01V243.03h-56.288"/><defs><linearGradient id="y" x1="0%" x2="50%" y1="0%" y2="50%"><stop offset="0%" stop-color="#3397DA"/><stop offset="100%" stop-color="#FF3986"/></linearGradient></defs><path fill="none" stroke="url(#y)" stroke-width="3" d="M627.583 124.462l-.01-.01V243.03h-56.288"/><path fill="none" stroke="#EEEEEE" stroke-width="8" d="M627.583 124.462l-.01-.01V483.43h-43.287"/><defs><linearGradient id="z" x1="0%" x2="50%" y1="0%" y2="50%"><stop offset="0%" stop-color="#3397DA"/><stop offset="100%" stop-color="#FF3986"/></linearGradient></defs><path fill="none" stroke="url(#z)" stroke-width="3" d="M627.583 124.462l-.01-.01V483.43h-43.287"/><path fill="#FFFFFF" stroke="#3397DA" stroke-width="3" d="M465.499-39.548h324.147v134H465.499z"/><path fill="#3397da" stroke="#3397da" d="M466.5-14.548h324.147"/><path fill="none" stroke="#3397DA" stroke-width="3" d="M465.499-39.548h324.147v134H465.499z"/><text x="475.499" y="-21.548" style="font:700 16px 'Lucida Console',monospace" fill="#000000">Event</text><text x="475.499" y="2.452" style="font:500 14px 'Lucida Console',monospace" fill="#000000">eventID:</text><text x="546.929" y="2.452" style="font:500 14px 'Lucida Console',monospace" fill="#C9A30B">Text</text><text x="475.499" y="16.452" style="font:500 14px 'Lucida Console',monospace" fill="#000000">eventTime:</text><text x="563.787" y="16.452" style="font:500 14px 'Lucida Console',monospace" fill="#02b57b">DateTime</text><text x="475.499" y="30.452" style="font:500 14px 'Lucida Console',monospace" fill="#000000">action:</text><text x="538.5" y="30.452" style="font:500 14px 'Lucida Console',monospace" fill="#530abb">Code(actionCode)</text><text x="475.499" y="44.452" style="font:500 14px 'Lucida Console',monospace" fill="#000000">disposition:</text><text x="580.644" y="44.452" style="font:500 14px 'Lucida Console',monospace" fill="#530abb">Code(dispositionCode)</text><text x="475.499" y="58.452" style="font:500 14px 'Lucida Console',monospace" fill="#000000">bizStep:</text><text x="546.929" y="58.452" style="font:500 14px 'Lucida Console',monospace" fill="#530abb">Code(bizStepCode)</text><text x="475.499" y="72.452" style="font:500 14px 'Lucida Console',monospace" fill="#000000">bizLocation:</text><text x="580.644" y="72.452" style="font:500 14px 'Lucida Console',monospace" fill="#02b57b">URI</text><text x="475.499" y="86.452" style="font:500 14px 'Lucida Console',monospace" fill="#000000">sensorElementList:</text><text x="631.216" y="86.452" style="font:500 14px 'Lucida Console',monospace" fill="#2ECB70">SensorElement[]</text><path fill="#3397da" stroke="#EEEEEE" stroke-width="3" d="M627.573 88.452l-12 22 12-2h0l12 2-12-22"/><path fill="#3397da" stroke="#EEEEEE" stroke-width="3" d="M627.573 88.452l-12 22 12-2h0l12 2-12-22"/><path fill="#3397da" stroke="#3397da" stroke-width="3" d="M627.573 100.452v25.5"/><path fill="#FFFFFF" stroke="#FF3986" stroke-width="3" d="M426.72 553.095h286.861v64H426.72z"/><path fill="#ff3986" stroke="#ff3986" d="M427.72 578.095H714.58"/><path fill="none" stroke="#FF3986" stroke-width="3" d="M426.72 553.095h286.861v64H426.72z"/><text x="436.72" y="571.095" style="font:700 16px 'Lucida Console',monospace" fill="#000000">ObjectEvent</text><text x="436.72" y="595.095" style="font:500 14px 'Lucida Console',monospace" fill="#000000">epcList:</text><text x="508.15" y="595.095" style="font:500 14px 'Lucida Console',monospace" fill="#3397DA">Item[]</text><text x="436.72" y="609.095" style="font:500 14px 'Lucida Console',monospace" fill="#000000">quantityList:</text><text x="550.293" y="609.095" style="font:500 14px 'Lucida Console',monospace" fill="#2ECB70">QuantityElement[]</text><path fill="#FFFFFF" stroke="#FF3986" stroke-width="3" d="M414.941 310.452h329.005v78H414.941z"/><path fill="#ff3986" stroke="#ff3986" d="M415.941 335.452h329.005"/><path fill="none" stroke="#FF3986" stroke-width="3" d="M414.941 310.452h329.005v78H414.941z"/><text x="424.941" y="328.452" style="font:700 16px 'Lucida Console',monospace" fill="#000000">AggregationEvent</text><text x="424.941" y="352.452" style="font:500 14px 'Lucida Console',monospace" fill="#000000">parentEPC:</text><text x="513.229" y="352.452" style="font:500 14px 'Lucida Console',monospace" fill="#3397DA">Item</text><text x="424.941" y="366.452" style="font:500 14px 'Lucida Console',monospace" fill="#000000">childEPCs:</text><text x="513.229" y="366.452" style="font:500 14px 'Lucida Console',monospace" fill="#3397DA">Item[]</text><text x="424.941" y="380.452" style="font:500 14px 'Lucida Console',monospace" fill="#000000">childQuantityList:</text><text x="580.658" y="380.452" style="font:500 14px 'Lucida Console',monospace" fill="#2ECB70">QuantityElement[]</text><path fill="#FFFFFF" stroke="#FF3986" stroke-width="3" d="M416.955 651.381h295.29v106h-295.29z"/><path fill="#ff3986" stroke="#ff3986" d="M417.955 676.381h295.29"/><path fill="none" stroke="#FF3986" stroke-width="3" d="M416.955 651.381h295.29v106h-295.29z"/><text x="426.955" y="669.381" style="font:700 16px 'Lucida Console',monospace" fill="#000000">TransactionEvent</text><text x="426.955" y="693.381" style="font:500 14px 'Lucida Console',monospace" fill="#000000">sourceParty:</text><text x="532.099" y="693.381" style="font:500 14px 'Lucida Console',monospace" fill="#3397DA">Party</text><text x="426.955" y="707.381" style="font:500 14px 'Lucida Console',monospace" fill="#000000">destinationParty:</text><text x="574.243" y="707.381" style="font:500 14px 'Lucida Console',monospace" fill="#3397DA">Party</text><text x="426.955" y="721.381" style="font:500 14px 'Lucida Console',monospace" fill="#000000">epcList:</text><text x="498.384" y="721.381" style="font:500 14px 'Lucida Console',monospace" fill="#3397DA">Item[]</text><text x="426.955" y="735.381" style="font:500 14px 'Lucida Console',monospace" fill="#000000">quantityList:</text><text x="540.528" y="735.381" style="font:500 14px 'Lucida Console',monospace" fill="#2ECB70">QuantityElement[]</text><text x="426.955" y="749.381" style="font:500 14px 'Lucida Console',monospace" fill="#000000">referenceDocument:</text><text x="582.671" y="749.381" style="font:500 14px 'Lucida Console',monospace" fill="#2ECB70">TradeDocument</text><path fill="#FFFFFF" stroke="#FF3986" stroke-width="3" d="M400.569 174.03h341.434v106H400.569z"/><path fill="#ff3986" stroke="#ff3986" d="M401.569 199.03h341.433"/><path fill="none" stroke="#FF3986" stroke-width="3" d="M400.569 174.03h341.434v106H400.569z"/><text x="410.569" y="192.03" style="font:700 16px 'Lucida Console',monospace" fill="#000000">TransformationEvent</text><text x="410.569" y="216.03" style="font:500 14px 'Lucida Console',monospace" fill="#000000">outputEPCList:</text><text x="532.571" y="216.03" style="font:500 14px 'Lucida Console',monospace" fill="#3397DA">Item[]</text><text x="410.569" y="230.03" style="font:500 14px 'Lucida Console',monospace" fill="#000000">inputEPCList:</text><text x="524.142" y="230.03" style="font:500 14px 'Lucida Console',monospace" fill="#3397DA">Item[]</text><text x="410.569" y="244.03" style="font:500 14px 'Lucida Console',monospace" fill="#000000">inputQuantityList:</text><text x="566.285" y="244.03" style="font:500 14px 'Lucida Console',monospace" fill="#2ECB70">QuantityElement[]</text><text x="410.569" y="258.03" style="font:500 14px 'Lucida Console',monospace" fill="#000000">outputQuantityList:</text><text x="574.714" y="258.03" style="font:500 14px 'Lucida Console',monospace" fill="#2ECB70">QuantityElement[]</text><text x="410.569" y="272.03" style="font:500 14px 'Lucida Console',monospace" fill="#000000">processType:</text><text x="515.713" y="272.03" style="font:500 14px 'Lucida Console',monospace" fill="#02b57b">URI</text><path fill="#FFFFFF" stroke="#FF3986" stroke-width="3" d="M419.783 428.429h329.005v78H419.783z"/><path fill="#ff3986" stroke="#ff3986" d="M420.783 453.429h329.005"/><path fill="none" stroke="#FF3986" stroke-width="3" d="M419.783 428.429h329.005v78H419.783z"/><text x="429.783" y="446.429" style="font:700 16px 'Lucida Console',monospace" fill="#000000">AssociationEvent</text><text x="429.783" y="470.429" style="font:500 14px 'Lucida Console',monospace" fill="#000000">parentEPC:</text><text x="518.07" y="470.429" style="font:500 14px 'Lucida Console',monospace" fill="#3397DA">Item</text><text x="429.783" y="484.429" style="font:500 14px 'Lucida Console',monospace" fill="#000000">childEPCs:</text><text x="518.07" y="484.429" style="font:500 14px 'Lucida Console',monospace" fill="#3397DA">Item[]</text><text x="429.783" y="498.429" style="font:500 14px 'Lucida Console',monospace" fill="#000000">childQuantityList:</text><text x="585.5" y="498.429" style="font:500 14px 'Lucida Console',monospace" fill="#2ECB70">QuantityElement[]</text><path fill="#FFFFFF" stroke="#2ECB70" stroke-width="3" d="M933.732 414.263h192v78h-192z"/><path fill="#2ecb70" stroke="#2ecb70" d="M934.732 439.263h192"/><path fill="none" stroke="#2ECB70" stroke-width="3" d="M933.732 414.263h192v78h-192z"/><text x="943.732" y="432.263" style="font:700 16px 'Lucida Console',monospace" fill="#000000">QuantityElement</text><text x="943.732" y="456.263" style="font:500 14px 'Lucida Console',monospace" fill="#000000">epcClass:</text><text x="1023.591" y="456.263" style="font:500 14px 'Lucida Console',monospace" fill="#02b57b">URI</text><text x="943.732" y="470.263" style="font:500 14px 'Lucida Console',monospace" fill="#000000">quantity:</text><text x="1023.591" y="470.263" style="font:500 14px 'Lucida Console',monospace" fill="#02b57b">Numeric</text><text x="943.732" y="484.263" style="font:500 14px 'Lucida Console',monospace" fill="#000000">uom:</text><text x="981.447" y="484.263" style="font:500 14px 'Lucida Console',monospace" fill="#530abb">Code(UOM)</text><path fill="#FFFFFF" stroke="#2ECB70" stroke-width="3" d="M785.714 762.286h269.575v78H785.714z"/><path fill="#2ecb70" stroke="#2ecb70" d="M786.714 787.286h269.575"/><path fill="none" stroke="#2ECB70" stroke-width="3" d="M785.714 762.286h269.575v78H785.714z"/><text x="795.714" y="780.286" style="font:700 16px 'Lucida Console',monospace" fill="#000000">TradeDocument</text><text x="795.714" y="804.286" style="font:500 14px 'Lucida Console',monospace" fill="#000000">type:</text><text x="841.858" y="804.286" style="font:500 14px 'Lucida Console',monospace" fill="#530abb">Code(documentTypeCode)</text><text x="795.714" y="818.286" style="font:500 14px 'Lucida Console',monospace" fill="#000000">identifier:</text><text x="892.43" y="818.286" style="font:500 14px 'Lucida Console',monospace" fill="#02b57b">Text</text><text x="795.714" y="832.286" style="font:500 14px 'Lucida Console',monospace" fill="#000000">documentURL:</text><text x="900.859" y="832.286" style="font:500 14px 'Lucida Console',monospace" fill="#02b57b">URI</text><path fill="#FFFFFF" stroke="#3397DA" stroke-width="3" d="M9.64 309.952h188v64h-188z"/><path fill="#3397da" stroke="#3397da" d="M10.64 334.952h188"/><path fill="none" stroke="#3397DA" stroke-width="3" d="M9.64 309.952h188v64h-188z"/><text x="19.64" y="327.952" style="font:700 16px 'Lucida Console',monospace" fill="#000000">Item</text><text x="19.64" y="351.952" style="font:500 14px 'Lucida Console',monospace" fill="#000000">itemID:</text><text x="82.641" y="351.952" style="font:500 14px 'Lucida Console',monospace" fill="#C9A30B">URI</text><text x="19.64" y="365.952" style="font:500 14px 'Lucida Console',monospace" fill="#000000">name:</text><text x="65.784" y="365.952" style="font:500 14px 'Lucida Console',monospace" fill="#02b57b">Text</text><path fill="#FFFFFF" stroke="#3397DA" stroke-width="3" d="M72.502 769.429h188v64h-188z"/><path fill="#3397da" stroke="#3397da" d="M73.502 794.429h188"/><path fill="none" stroke="#3397DA" stroke-width="3" d="M72.502 769.429h188v64h-188z"/><text x="82.502" y="787.429" style="font:700 16px 'Lucida Console',monospace" fill="#000000">Party</text><text x="82.502" y="811.429" style="font:500 14px 'Lucida Console',monospace" fill="#000000">partyID:</text><text x="153.932" y="811.429" style="font:500 14px 'Lucida Console',monospace" fill="#C9A30B">URI</text><text x="82.502" y="825.429" style="font:500 14px 'Lucida Console',monospace" fill="#000000">name:</text><text x="128.645" y="825.429" style="font:500 14px 'Lucida Console',monospace" fill="#02b57b">Text</text><path fill="#FFFFFF" stroke="#2ECB70" stroke-width="3" d="M159.429-39h248.718v78H159.429z"/><path fill="#2ecb70" stroke="#2ecb70" d="M160.429-14h248.717"/><path fill="none" stroke="#2ECB70" stroke-width="3" d="M159.429-39h248.718v78H159.429z"/><text x="169.429" y="-21" style="font:700 16px 'Lucida Console',monospace" fill="#000000">SensorElement</text><text x="169.429" y="3" style="font:500 14px 'Lucida Console',monospace" fill="#000000">sensorMetadata:</text><text x="299.859" y="3" style="font:500 14px 'Lucida Console',monospace" fill="#2ECB70">Sensor</text><text x="169.429" y="17" style="font:500 14px 'Lucida Console',monospace" fill="#000000">sensorReport:</text><text x="283.002" y="17" style="font:500 14px 'Lucida Console',monospace" fill="#2ECB70">SensorData[]</text><text x="169.429" y="31" style="font:500 14px 'Lucida Console',monospace" fill="#000000">sensorIntegrityProof:</text><text x="350.432" y="31" style="font:500 14px 'Lucida Console',monospace" fill="#02b57b">URI</text><path fill="#FFFFFF" stroke="#2ECB70" stroke-width="3" d="M165.714 83.714h236.289v64H165.714z"/><path fill="#2ecb70" stroke="#2ecb70" d="M166.714 108.714h236.29"/><path fill="none" stroke="#2ECB70" stroke-width="3" d="M165.714 83.714h236.289v64H165.714z"/><text x="175.714" y="101.714" style="font:700 16px 'Lucida Console',monospace" fill="#000000">Sensor</text><text x="175.714" y="125.714" style="font:500 14px 'Lucida Console',monospace" fill="#000000">device:</text><text x="238.715" y="125.714" style="font:500 14px 'Lucida Console',monospace" fill="#3397DA">Item</text><text x="175.714" y="139.714" style="font:500 14px 'Lucida Console',monospace" fill="#000000">dataProcessingMethod:</text><text x="356.717" y="139.714" style="font:500 14px 'Lucida Console',monospace" fill="#02b57b">URI</text><path fill="#FFFFFF" stroke="#2ECB70" stroke-width="3" d="M-98-44.286H98v92H-98z"/><path fill="#2ecb70" stroke="#2ecb70" d="M-97-19.286H99"/><path fill="none" stroke="#2ECB70" stroke-width="3" d="M-98-44.286H98v92H-98z"/><text x="-88" y="-26.286" style="font:700 16px 'Lucida Console',monospace" fill="#000000">SensorData</text><text x="-88" y="-2.286" style="font:500 14px 'Lucida Console',monospace" fill="#000000">time:</text><text x="-41.856" y="-2.286" style="font:500 14px 'Lucida Console',monospace" fill="#02b57b">DateTime</text><text x="-88" y="11.714" style="font:500 14px 'Lucida Console',monospace" fill="#000000">type:</text><text x="-41.856" y="11.714" style="font:500 14px 'Lucida Console',monospace" fill="#02b57b">URI</text><text x="-88" y="25.714" style="font:500 14px 'Lucida Console',monospace" fill="#000000">value:</text><text x="-33.428" y="25.714" style="font:500 14px 'Lucida Console',monospace" fill="#02b57b">Numeric</text><text x="-88" y="39.714" style="font:500 14px 'Lucida Console',monospace" fill="#000000">uom:</text><text x="-50.285" y="39.714" style="font:500 14px 'Lucida Console',monospace" fill="#530abb">Code(UOM)</text></svg>