<svg xmlns="http://www.w3.org/2000/svg" viewBox="-136.571 -81 1222.571 1064.429"><rect width="1000%" height="1000%" x="-500%" y="-500%" fill="#EEEEEE"/><path fill="none" stroke="#EEEEEE" stroke-width="8" d="M571.439.01l-.01-.01v196.143h63.24"/><defs><linearGradient id="a" x1="0%" x2="50%" y1="0%" y2="50%"><stop offset="0%" stop-color="#3397DA"/><stop offset="100%" stop-color="#3397DA"/></linearGradient></defs><path fill="none" stroke="url(#a)" stroke-width="3" d="M571.439.01l-.01-.01v196.143h63.24"/><path fill="none" stroke="url(#a)" stroke-width="1.5" d="M591.439 101.653l-2.01-.01v8h2M595.439 101.653l1.99-.01v8h-2"/><path fill="none" stroke="#EEEEEE" stroke-width="8" d="M634.68 196.153l-.01-.01H174.359v.571"/><defs><linearGradient id="b" x1="0%" x2="50%" y1="0%" y2="50%"><stop offset="0%" stop-color="#3397DA"/><stop offset="100%" stop-color="#2ECB70"/></linearGradient></defs><path fill="none" stroke="url(#b)" stroke-width="3" d="M634.68 196.153l-.01-.01H174.359v.571"/><path fill="none" stroke="url(#b)" stroke-width="1.5" d="M319.228 176.153l-2.01-.01v8h2M323.228 176.153l1.99-.01v8h-2"/><path fill="none" stroke="#EEEEEE" stroke-width="8" d="M481.497 371.41l-.01-.01H137.6v191.4"/><defs><linearGradient id="c" x1="0%" x2="50%" y1="0%" y2="50%"><stop offset="0%" stop-color="#3397DA"/><stop offset="100%" stop-color="#3397DA"/></linearGradient></defs><path fill="none" stroke="url(#c)" stroke-width="3" d="M481.497 371.41l-.01-.01H137.6v191.4"/><path fill="none" stroke="url(#c)" stroke-width="1.5" d="M157.61 529.51l-2.01-.01v8h2M161.61 529.51l1.99-.01v8h-2"/><path fill="none" stroke="#EEEEEE" stroke-width="8" d="M548.983 389.81l-.01-.01H231.6v185.8"/><defs><linearGradient id="d" x1="0%" x2="50%" y1="0%" y2="50%"><stop offset="0%" stop-color="#3397DA"/><stop offset="100%" stop-color="#3397DA"/></linearGradient></defs><path fill="none" stroke="url(#d)" stroke-width="3" d="M548.983 389.81l-.01-.01H231.6v185.8"/><path fill="none" stroke="url(#d)" stroke-width="1.5" d="M251.61 529.51l-2.01-.01v8h2M255.61 529.51l1.99-.01v8h-2"/><path fill="none" stroke="#EEEEEE" stroke-width="8" d="M616.47 408.21l-.01-.01H878v204.943"/><defs><linearGradient id="e" x1="0%" x2="50%" y1="0%" y2="50%"><stop offset="0%" stop-color="#3397DA"/><stop offset="100%" stop-color="#2ECB70"/></linearGradient></defs><path fill="none" stroke="url(#e)" stroke-width="3" d="M616.47 408.21l-.01-.01H878v204.943"/><path fill="none" stroke="url(#e)" stroke-width="1.5" d="M898.01 579.51l-2.01-.01v8h2M902.01 579.51l1.99-.01v8h-2"/><path fill="none" stroke="#EEEEEE" stroke-width="8" d="M683.957 389.81l-.01-.01H1018v236.486"/><defs><linearGradient id="f" x1="0%" x2="50%" y1="0%" y2="50%"><stop offset="0%" stop-color="#3397DA"/><stop offset="100%" stop-color="#2ECB70"/></linearGradient></defs><path fill="none" stroke="url(#f)" stroke-width="3" d="M683.957 389.81l-.01-.01H1018v236.486"/><path fill="none" stroke="url(#f)" stroke-width="1.5" d="M1038.01 579.51l-2.01-.01v8h2M1042.01 579.51l1.99-.01v8h-2"/><path fill="none" stroke="#EEEEEE" stroke-width="8" d="M526.202 760.2l-.01-.01H212.8V582"/><defs><linearGradient id="g" x1="100%" x2="50%" y1="100%" y2="50%"><stop offset="0%" stop-color="#3397DA"/><stop offset="100%" stop-color="#3397DA"/></linearGradient></defs><path fill="none" stroke="url(#g)" stroke-width="3" d="M526.202 760.2l-.01-.01H212.8V582"/><path fill="none" stroke="url(#g)" stroke-width="1.5" d="M232.81 634.51l-2.01-.01v8h2M236.81 634.51l1.99-.01v8h-2"/><path fill="none" stroke="#EEEEEE" stroke-width="8" d="M621.822 781.534l-.01-.01H906V626.286"/><defs><linearGradient id="h" x1="0%" x2="50%" y1="0%" y2="50%"><stop offset="0%" stop-color="#3397DA"/><stop offset="100%" stop-color="#2ECB70"/></linearGradient></defs><path fill="none" stroke="url(#h)" stroke-width="3" d="M621.822 781.534l-.01-.01H906V626.286"/><path fill="none" stroke="url(#h)" stroke-width="1.5" d="M926.01 712.51l-2.01-.01v8h2M930.01 712.51l1.99-.01v8h-2"/><path fill="none" stroke="#EEEEEE" stroke-width="8" d="M509.976 525.51l-.01-.01H175.2v50.1"/><defs><linearGradient id="i" x1="0%" x2="50%" y1="0%" y2="50%"><stop offset="0%" stop-color="#3397DA"/><stop offset="100%" stop-color="#3397DA"/></linearGradient></defs><path fill="none" stroke="url(#i)" stroke-width="3" d="M509.976 525.51l-.01-.01H175.2v50.1"/><path fill="none" stroke="#EEEEEE" stroke-width="8" d="M592.227 564.51l-.01-.01H269.2v-1.7"/><defs><linearGradient id="j" x1="0%" x2="50%" y1="0%" y2="50%"><stop offset="0%" stop-color="#3397DA"/><stop offset="100%" stop-color="#3397DA"/></linearGradient></defs><path fill="none" stroke="url(#j)" stroke-width="3" d="M592.227 564.51l-.01-.01H269.2v-1.7"/><path fill="none" stroke="url(#j)" stroke-width="1.5" d="M308.51 544.51l-2.01-.01v8h2M312.51 544.51l1.99-.01v8h-2"/><path fill="none" stroke="#EEEEEE" stroke-width="8" d="M674.478 545.01l-.01-.01H990v94.429"/><defs><linearGradient id="k" x1="0%" x2="50%" y1="0%" y2="50%"><stop offset="0%" stop-color="#3397DA"/><stop offset="100%" stop-color="#2ECB70"/></linearGradient></defs><path fill="none" stroke="url(#k)" stroke-width="3" d="M674.478 545.01l-.01-.01H990v94.429"/><path fill="none" stroke="url(#k)" stroke-width="1.5" d="M1010.01 579.51l-2.01-.01v8h2M1014.01 579.51l1.99-.01v8h-2"/><path fill="none" stroke="#EEEEEE" stroke-width="8" d="M520.678 872.772l-.01-.01H194V588.4"/><defs><linearGradient id="l" x1="100%" x2="50%" y1="100%" y2="50%"><stop offset="0%" stop-color="#3397DA"/><stop offset="100%" stop-color="#3397DA"/></linearGradient></defs><path fill="none" stroke="url(#l)" stroke-width="3" d="M520.678 872.772l-.01-.01H194V588.4"/><path fill="none" stroke="url(#l)" stroke-width="1.5" d="M214.01 634.51l-2.01-.01v8h2M218.01 634.51l1.99-.01v8h-2"/><path fill="none" stroke="#EEEEEE" stroke-width="8" d="M638.632 908.105l-.01-.01H934V639.43"/><defs><linearGradient id="m" x1="0%" x2="50%" y1="0%" y2="50%"><stop offset="0%" stop-color="#3397DA"/><stop offset="100%" stop-color="#2ECB70"/></linearGradient></defs><path fill="none" stroke="url(#m)" stroke-width="3" d="M638.632 908.105l-.01-.01H934V639.43"/><path fill="none" stroke="url(#m)" stroke-width="1.5" d="M954.01 712.51l-2.01-.01v8h2M958.01 712.51l1.99-.01v8h-2"/><path fill="none" stroke="#EEEEEE" stroke-width="8" d="M504.261 644.081l-.01-.01H156.4V569.2"/><defs><linearGradient id="n" x1="100%" x2="50%" y1="100%" y2="50%"><stop offset="0%" stop-color="#3397DA"/><stop offset="100%" stop-color="#3397DA"/></linearGradient></defs><path fill="none" stroke="url(#n)" stroke-width="3" d="M504.261 644.081l-.01-.01H156.4V569.2"/><path fill="none" stroke="#EEEEEE" stroke-width="8" d="M586.512 683.081l-.01-.01H250.4V569.2"/><defs><linearGradient id="o" x1="100%" x2="50%" y1="100%" y2="50%"><stop offset="0%" stop-color="#3397DA"/><stop offset="100%" stop-color="#3397DA"/></linearGradient></defs><path fill="none" stroke="url(#o)" stroke-width="3" d="M586.512 683.081l-.01-.01H250.4V569.2"/><path fill="none" stroke="url(#o)" stroke-width="1.5" d="M270.41 634.51l-2.01-.01v8h2M274.41 634.51l1.99-.01v8h-2"/><path fill="none" stroke="#EEEEEE" stroke-width="8" d="M668.764 663.581l-.01-.01H962v-11"/><defs><linearGradient id="p" x1="0%" x2="50%" y1="0%" y2="50%"><stop offset="0%" stop-color="#3397DA"/><stop offset="100%" stop-color="#2ECB70"/></linearGradient></defs><path fill="none" stroke="url(#p)" stroke-width="3" d="M668.764 663.581l-.01-.01H962v-11"/><path fill="none" stroke="url(#p)" stroke-width="1.5" d="M829.51 643.581l-2.01-.01v8h2M833.51 643.581l1.99-.01v8h-2"/><path fill="none" stroke="#EEEEEE" stroke-width="8" d="M215.822 209.724l-.01-.01H1.573v111.143"/><defs><linearGradient id="q" x1="0%" x2="50%" y1="0%" y2="50%"><stop offset="0%" stop-color="#2ECB70"/><stop offset="100%" stop-color="#2ECB70"/></linearGradient></defs><path fill="none" stroke="url(#q)" stroke-width="3" d="M215.822 209.724l-.01-.01H1.573v111.143"/><path fill="none" stroke="#EEEEEE" stroke-width="8" d="M132.916 183.724l-.01-.01H0V73.43"/><defs><linearGradient id="r" x1="100%" x2="50%" y1="100%" y2="50%"><stop offset="0%" stop-color="#2ECB70"/><stop offset="100%" stop-color="#2ECB70"/></linearGradient></defs><path fill="none" stroke="url(#r)" stroke-width="3" d="M132.916 183.724l-.01-.01H0V73.43"/><path fill="none" stroke="url(#r)" stroke-width="1.5" d="M20.01 139.939l-2.01-.01v8h2M24.01 139.939l1.99-.01v8h-2"/><path fill="none" stroke="#EEEEEE" stroke-width="8" d="M1.583 320.867l-.01-.01V556.4H118.8"/><defs><linearGradient id="s" x1="0%" x2="50%" y1="0%" y2="50%"><stop offset="0%" stop-color="#2ECB70"/><stop offset="100%" stop-color="#3397DA"/></linearGradient></defs><path fill="none" stroke="url(#s)" stroke-width="3" d="M1.583 320.867l-.01-.01V556.4H118.8"/><path fill="none" stroke="#EEEEEE" stroke-width="8" d="M580.655 300.153l-.01-.01V415h2.072"/><defs><linearGradient id="t" x1="0%" x2="50%" y1="0%" y2="50%"><stop offset="0%" stop-color="#3397DA"/><stop offset="100%" stop-color="#3397DA"/></linearGradient></defs><path fill="none" stroke="url(#t)" stroke-width="3" d="M580.655 300.153l-.01-.01V415h2.072"/><path fill="none" stroke="#EEEEEE" stroke-width="8" d="M580.655 300.153l-.01-.01v486.714h-6.643"/><defs><linearGradient id="u" x1="0%" x2="50%" y1="0%" y2="50%"><stop offset="0%" stop-color="#3397DA"/><stop offset="100%" stop-color="#3397DA"/></linearGradient></defs><path fill="none" stroke="url(#u)" stroke-width="3" d="M580.655 300.153l-.01-.01v486.714h-6.643"/><path fill="none" stroke="#EEEEEE" stroke-width="8" d="M580.655 300.153l-.01-.01V561h11.572"/><defs><linearGradient id="v" x1="0%" x2="50%" y1="0%" y2="50%"><stop offset="0%" stop-color="#3397DA"/><stop offset="100%" stop-color="#3397DA"/></linearGradient></defs><path fill="none" stroke="url(#v)" stroke-width="3" d="M580.655 300.153l-.01-.01V561h11.572"/><path fill="none" stroke="#EEEEEE" stroke-width="8" d="M580.655 300.153l-.01-.01v606.286h-1"/><defs><linearGradient id="w" x1="0%" x2="50%" y1="0%" y2="50%"><stop offset="0%" stop-color="#3397DA"/><stop offset="100%" stop-color="#3397DA"/></linearGradient></defs><path fill="none" stroke="url(#w)" stroke-width="3" d="M580.655 300.153l-.01-.01v606.286h-1"/><path fill="none" stroke="#EEEEEE" stroke-width="8" d="M580.655 300.153l-.01-.01V679.57h5.857"/><defs><linearGradient id="x" x1="0%" x2="50%" y1="0%" y2="50%"><stop offset="0%" stop-color="#3397DA"/><stop offset="100%" stop-color="#3397DA"/></linearGradient></defs><path fill="none" stroke="url(#x)" stroke-width="3" d="M580.655 300.153l-.01-.01V679.57h5.857"/><path fill="#FFFFFF" stroke="#3397DA" stroke-width="3" d="M421.07-61h300.718V61H421.07z"/><path fill="#3397da" stroke="#3397da" d="M422.07-20h300.717"/><path fill="none" stroke="#3397DA" stroke-width="3" d="M421.07-61h300.718V61H421.07z"/><text x="431.07" y="-43" style="font:700 16px 'Lucida Console',monospace" fill="#000000">DigitalTraceabilityEvent</text><text x="431.07" y="-27" style="font:500 14px 'Lucida Console',monospace" fill="#999">＜＜untp.VerifiableCredential＞＞</text><text x="431.07" y="-3" style="font:500 14px 'Lucida Console',monospace" fill="#000000">id:</text><text x="460.356" y="-3" style="font:500 14px 'Lucida Console',monospace" fill="#C9A30B">URI</text><text x="431.07" y="11" style="font:500 14px 'Lucida Console',monospace" fill="#000000">@context:</text><text x="510.928" y="11" style="font:500 14px 'Lucida Console',monospace" fill="#547000">Text[]</text><text x="431.07" y="25" style="font:500 14px 'Lucida Console',monospace" fill="#000000">issuer:</text><text x="494.071" y="25" style="font:500 14px 'Lucida Console',monospace" fill="#547000">untp.CredentialIssuer</text><text x="431.07" y="39" style="font:500 14px 'Lucida Console',monospace" fill="#000000">validFrom:</text><text x="519.357" y="39" style="font:500 14px 'Lucida Console',monospace" fill="#547000">DateTime</text><text x="431.07" y="53" style="font:500 14px 'Lucida Console',monospace" fill="#000000">credentialSubject:</text><text x="586.786" y="53" style="font:500 14px 'Lucida Console',monospace" fill="#3397DA">Event[]</text><path fill="#FFFFFF" stroke="#3397DA" stroke-width="3" d="M418.571 122.143h324.147v148H418.571z"/><path fill="#3397da" stroke="#3397da" d="M419.571 147.143H743.72"/><path fill="none" stroke="#3397DA" stroke-width="3" d="M418.571 122.143h324.147v148H418.571z"/><text x="428.571" y="140.143" style="font:700 16px 'Lucida Console',monospace" fill="#000000">Event</text><text x="486.735" y="140.143" style="font:500 14px 'Lucida Console',monospace" fill="#000000">&lt;&lt;abstract&gt;&gt;</text><text x="428.571" y="164.143" style="font:500 14px 'Lucida Console',monospace" fill="#000000">id:</text><text x="457.858" y="164.143" style="font:500 14px 'Lucida Console',monospace" fill="#C9A30B">URI</text><text x="428.571" y="178.143" style="font:500 14px 'Lucida Console',monospace" fill="#000000">processType:</text><text x="533.716" y="178.143" style="font:500 14px 'Lucida Console',monospace" fill="#02b57b">Text</text><text x="428.571" y="192.143" style="font:500 14px 'Lucida Console',monospace" fill="#000000">eventTime:</text><text x="516.859" y="192.143" style="font:500 14px 'Lucida Console',monospace" fill="#02b57b">DateTime</text><text x="428.571" y="206.143" style="font:500 14px 'Lucida Console',monospace" fill="#000000">action:</text><text x="491.572" y="206.143" style="font:500 14px 'Lucida Console',monospace" fill="#530abb">Code(actionCode)</text><text x="428.571" y="220.143" style="font:500 14px 'Lucida Console',monospace" fill="#000000">disposition:</text><text x="533.716" y="220.143" style="font:500 14px 'Lucida Console',monospace" fill="#530abb">Code(dispositionCode)</text><text x="428.571" y="234.143" style="font:500 14px 'Lucida Console',monospace" fill="#000000">bizStep:</text><text x="500.001" y="234.143" style="font:500 14px 'Lucida Console',monospace" fill="#530abb">Code(bizStepCode)</text><text x="428.571" y="248.143" style="font:500 14px 'Lucida Console',monospace" fill="#000000">bizLocation:</text><text x="533.716" y="248.143" style="font:500 14px 'Lucida Console',monospace" fill="#02b57b">URI</text><text x="428.571" y="262.143" style="font:500 14px 'Lucida Console',monospace" fill="#000000">sensorElementList:</text><text x="584.288" y="262.143" style="font:500 14px 'Lucida Console',monospace" fill="#2ECB70">SensorElement[]</text><path fill="#3397da" stroke="#EEEEEE" stroke-width="3" d="M580.645 264.143l-12 22 12-2h0l12 2-12-22"/><path fill="#3397da" stroke="#EEEEEE" stroke-width="3" d="M580.645 264.143l-12 22 12-2h0l12 2-12-22"/><path fill="#3397da" stroke="#3397da" stroke-width="3" d="M580.645 276.143v25.5"/><path fill="#FFFFFF" stroke="#3397DA" stroke-width="3" d="M414 353h337.434v92H414z"/><path fill="#3397da" stroke="#3397da" d="M415 378h337.434"/><path fill="none" stroke="#3397DA" stroke-width="3" d="M414 353h337.434v92H414z"/><text x="424" y="371" style="font:700 16px 'Lucida Console',monospace" fill="#000000">TransformationEvent</text><text x="424" y="395" style="font:500 14px 'Lucida Console',monospace" fill="#000000">outputEPCList:</text><text x="546.002" y="395" style="font:500 14px 'Lucida Console',monospace" fill="#3397DA">Item[]</text><text x="424" y="409" style="font:500 14px 'Lucida Console',monospace" fill="#000000">inputEPCList:</text><text x="537.573" y="409" style="font:500 14px 'Lucida Console',monospace" fill="#3397DA">Item[]</text><text x="424" y="423" style="font:500 14px 'Lucida Console',monospace" fill="#000000">inputQuantityList:</text><text x="579.717" y="423" style="font:500 14px 'Lucida Console',monospace" fill="#2ECB70">QuantityElement[]</text><text x="424" y="437" style="font:500 14px 'Lucida Console',monospace" fill="#000000">outputQuantityList:</text><text x="588.146" y="437" style="font:500 14px 'Lucida Console',monospace" fill="#2ECB70">QuantityElement[]</text><path fill="#FFFFFF" stroke="#3397DA" stroke-width="3" d="M430.571 738.857h286.861v64H430.571z"/><path fill="#3397da" stroke="#3397da" d="M431.571 763.857h286.862"/><path fill="none" stroke="#3397DA" stroke-width="3" d="M430.571 738.857h286.861v64H430.571z"/><text x="440.571" y="756.857" style="font:700 16px 'Lucida Console',monospace" fill="#000000">ObjectEvent</text><text x="440.571" y="780.857" style="font:500 14px 'Lucida Console',monospace" fill="#000000">epcList:</text><text x="512.001" y="780.857" style="font:500 14px 'Lucida Console',monospace" fill="#3397DA">Item[]</text><text x="440.571" y="794.857" style="font:500 14px 'Lucida Console',monospace" fill="#000000">quantityList:</text><text x="554.145" y="794.857" style="font:500 14px 'Lucida Console',monospace" fill="#2ECB70">QuantityElement[]</text><path fill="#FFFFFF" stroke="#3397DA" stroke-width="3" d="M427.714 506h329.005v78H427.714z"/><path fill="#3397da" stroke="#3397da" d="M428.714 531H757.72"/><path fill="none" stroke="#3397DA" stroke-width="3" d="M427.714 506h329.005v78H427.714z"/><text x="437.714" y="524" style="font:700 16px 'Lucida Console',monospace" fill="#000000">AggregationEvent</text><text x="437.714" y="548" style="font:500 14px 'Lucida Console',monospace" fill="#000000">parentEPC:</text><text x="526.001" y="548" style="font:500 14px 'Lucida Console',monospace" fill="#3397DA">Item</text><text x="437.714" y="562" style="font:500 14px 'Lucida Console',monospace" fill="#000000">childEPCList:</text><text x="551.288" y="562" style="font:500 14px 'Lucida Console',monospace" fill="#3397DA">Item[]</text><text x="437.714" y="576" style="font:500 14px 'Lucida Console',monospace" fill="#000000">childQuantityList:</text><text x="593.431" y="576" style="font:500 14px 'Lucida Console',monospace" fill="#2ECB70">QuantityElement[]</text><path fill="#FFFFFF" stroke="#3397DA" stroke-width="3" d="M402.714 837.429h353.862v106H402.714z"/><path fill="#3397da" stroke="#3397da" d="M403.714 862.429h353.862"/><path fill="none" stroke="#3397DA" stroke-width="3" d="M402.714 837.429h353.862v106H402.714z"/><text x="412.714" y="855.429" style="font:700 16px 'Lucida Console',monospace" fill="#000000">TransactionEvent</text><text x="412.714" y="879.429" style="font:500 14px 'Lucida Console',monospace" fill="#000000">sourcePartyId:</text><text x="534.716" y="879.429" style="font:500 14px 'Lucida Console',monospace" fill="#547000">URI</text><text x="412.714" y="893.429" style="font:500 14px 'Lucida Console',monospace" fill="#000000">destinationPartyId:</text><text x="576.859" y="893.429" style="font:500 14px 'Lucida Console',monospace" fill="#547000">URI</text><text x="412.714" y="907.429" style="font:500 14px 'Lucida Console',monospace" fill="#000000">bizTransaction:</text><text x="543.145" y="907.429" style="font:500 14px 'Lucida Console',monospace" fill="#530abb">Code(documentTypeCode)</text><text x="412.714" y="921.429" style="font:500 14px 'Lucida Console',monospace" fill="#000000">epcList:</text><text x="484.144" y="921.429" style="font:500 14px 'Lucida Console',monospace" fill="#3397DA">Item[]</text><text x="412.714" y="935.429" style="font:500 14px 'Lucida Console',monospace" fill="#000000">quantityList:</text><text x="526.287" y="935.429" style="font:500 14px 'Lucida Console',monospace" fill="#2ECB70">QuantityElement[]</text><path fill="#FFFFFF" stroke="#3397DA" stroke-width="3" d="M422 624.571h329.005v78H422z"/><path fill="#3397da" stroke="#3397da" d="M423 649.571h329.005"/><path fill="none" stroke="#3397DA" stroke-width="3" d="M422 624.571h329.005v78H422z"/><text x="432" y="642.571" style="font:700 16px 'Lucida Console',monospace" fill="#000000">AssociationEvent</text><text x="432" y="666.571" style="font:500 14px 'Lucida Console',monospace" fill="#000000">parentEPC:</text><text x="520.287" y="666.571" style="font:500 14px 'Lucida Console',monospace" fill="#3397DA">Item</text><text x="432" y="680.571" style="font:500 14px 'Lucida Console',monospace" fill="#000000">childEPCList:</text><text x="545.573" y="680.571" style="font:500 14px 'Lucida Console',monospace" fill="#3397DA">Item[]</text><text x="432" y="694.571" style="font:500 14px 'Lucida Console',monospace" fill="#000000">childQuantityList:</text><text x="587.717" y="694.571" style="font:500 14px 'Lucida Console',monospace" fill="#2ECB70">QuantityElement[]</text><path fill="#FFFFFF" stroke="#2ECB70" stroke-width="3" d="M850 600h196v92H850z"/><path fill="#2ecb70" stroke="#2ecb70" d="M851 625h196"/><path fill="none" stroke="#2ECB70" stroke-width="3" d="M850 600h196v92H850z"/><text x="860" y="618" style="font:700 16px 'Lucida Console',monospace" fill="#000000">QuantityElement</text><text x="860" y="642" style="font:500 14px 'Lucida Console',monospace" fill="#000000">productId:</text><text x="948.287" y="642" style="font:500 14px 'Lucida Console',monospace" fill="#547000">URI</text><text x="860" y="656" style="font:500 14px 'Lucida Console',monospace" fill="#000000">productName:</text><text x="965.145" y="656" style="font:500 14px 'Lucida Console',monospace" fill="#547000">Text</text><text x="860" y="670" style="font:500 14px 'Lucida Console',monospace" fill="#000000">quantity:</text><text x="939.858" y="670" style="font:500 14px 'Lucida Console',monospace" fill="#02b57b">Numeric</text><text x="860" y="684" style="font:500 14px 'Lucida Console',monospace" fill="#000000">uom:</text><text x="897.715" y="684" style="font:500 14px 'Lucida Console',monospace" fill="#530abb">Code(UOM)</text><path fill="#FFFFFF" stroke="#3397DA" stroke-width="3" d="M100 550h188v64H100z"/><path fill="#3397da" stroke="#3397da" d="M101 575h188"/><path fill="none" stroke="#3397DA" stroke-width="3" d="M100 550h188v64H100z"/><text x="110" y="568" style="font:700 16px 'Lucida Console',monospace" fill="#000000">Item</text><text x="110" y="592" style="font:500 14px 'Lucida Console',monospace" fill="#000000">id:</text><text x="139.286" y="592" style="font:500 14px 'Lucida Console',monospace" fill="#C9A30B">URI</text><text x="110" y="606" style="font:500 14px 'Lucida Console',monospace" fill="#000000">name:</text><text x="156.144" y="606" style="font:500 14px 'Lucida Console',monospace" fill="#547000">Text</text><path fill="#FFFFFF" stroke="#2ECB70" stroke-width="3" d="M50 157.714h248.718v78H50z"/><path fill="#2ecb70" stroke="#2ecb70" d="M51 182.714h248.718"/><path fill="none" stroke="#2ECB70" stroke-width="3" d="M50 157.714h248.718v78H50z"/><text x="60" y="175.714" style="font:700 16px 'Lucida Console',monospace" fill="#000000">SensorElement</text><text x="60" y="199.714" style="font:500 14px 'Lucida Console',monospace" fill="#000000">sensorMetadata:</text><text x="190.431" y="199.714" style="font:500 14px 'Lucida Console',monospace" fill="#2ECB70">Sensor</text><text x="60" y="213.714" style="font:500 14px 'Lucida Console',monospace" fill="#000000">sensorReport:</text><text x="173.573" y="213.714" style="font:500 14px 'Lucida Console',monospace" fill="#2ECB70">SensorData[]</text><text x="60" y="227.714" style="font:500 14px 'Lucida Console',monospace" fill="#000000">sensorIntegrityProof:</text><text x="241.003" y="227.714" style="font:500 14px 'Lucida Console',monospace" fill="#02b57b">URI</text><path fill="#FFFFFF" stroke="#2ECB70" stroke-width="3" d="M-116.571 288.857h236.289v64h-236.289z"/><path fill="#2ecb70" stroke="#2ecb70" d="M-115.571 313.857h236.289"/><path fill="none" stroke="#2ECB70" stroke-width="3" d="M-116.571 288.857h236.289v64h-236.289z"/><text x="-106.571" y="306.857" style="font:700 16px 'Lucida Console',monospace" fill="#000000">Sensor</text><text x="-106.571" y="330.857" style="font:500 14px 'Lucida Console',monospace" fill="#000000">device:</text><text x="-43.57" y="330.857" style="font:500 14px 'Lucida Console',monospace" fill="#3397DA">Item</text><text x="-106.571" y="344.857" style="font:500 14px 'Lucida Console',monospace" fill="#000000">dataProcessingMethod:</text><text x="74.432" y="344.857" style="font:500 14px 'Lucida Console',monospace" fill="#02b57b">URI</text><path fill="#FFFFFF" stroke="#2ECB70" stroke-width="3" d="M-98 27.429H98v92H-98z"/><path fill="#2ecb70" stroke="#2ecb70" d="M-97 52.429H99"/><path fill="none" stroke="#2ECB70" stroke-width="3" d="M-98 27.429H98v92H-98z"/><text x="-88" y="45.429" style="font:700 16px 'Lucida Console',monospace" fill="#000000">SensorData</text><text x="-88" y="69.429" style="font:500 14px 'Lucida Console',monospace" fill="#000000">time:</text><text x="-41.856" y="69.429" style="font:500 14px 'Lucida Console',monospace" fill="#02b57b">DateTime</text><text x="-88" y="83.429" style="font:500 14px 'Lucida Console',monospace" fill="#000000">sensorType:</text><text x="8.716" y="83.429" style="font:500 14px 'Lucida Console',monospace" fill="#02b57b">URI</text><text x="-88" y="97.429" style="font:500 14px 'Lucida Console',monospace" fill="#000000">value:</text><text x="-33.428" y="97.429" style="font:500 14px 'Lucida Console',monospace" fill="#02b57b">Numeric</text><text x="-88" y="111.429" style="font:500 14px 'Lucida Console',monospace" fill="#000000">uom:</text><text x="-50.285" y="111.429" style="font:500 14px 'Lucida Console',monospace" fill="#530abb">Code(UOM)</text></svg>