<svg xmlns="http://www.w3.org/2000/svg" viewBox="-155.002 -69.797 1615.861 1119.143"><rect width="1000%" height="1000%" x="-500%" y="-500%" fill="#EEEEEE"/><path fill="none" stroke="#EEEEEE" stroke-width="8" d="M603.479 3.213l-.01-.01v221.143h41.388"/><defs><linearGradient id="a" x1="0%" x2="50%" y1="0%" y2="50%"><stop offset="0%" stop-color="#3397DA"/><stop offset="100%" stop-color="#3397DA"/></linearGradient></defs><path fill="none" stroke="url(#a)" stroke-width="3" d="M603.479 3.213l-.01-.01v221.143h41.388"/><path fill="none" stroke="#EEEEEE" stroke-width="8" d="M52.838 183.842l-.01-.01V17.142h92.502"/><defs><linearGradient id="b" x1="100%" x2="50%" y1="100%" y2="50%"><stop offset="0%" stop-color="#3397DA"/><stop offset="100%" stop-color="#3397DA"/></linearGradient></defs><path fill="none" stroke="url(#b)" stroke-width="3" d="M52.838 183.842l-.01-.01V17.142h92.502"/><path fill="none" stroke="#EEEEEE" stroke-width="8" d="M546.067 412.442l-.01-.01v226.47H399.119"/><defs><linearGradient id="c" x1="0%" x2="50%" y1="0%" y2="50%"><stop offset="0%" stop-color="#3397DA"/><stop offset="100%" stop-color="#3397DA"/></linearGradient></defs><path fill="none" stroke="url(#c)" stroke-width="3" d="M546.067 412.442l-.01-.01v226.47H399.119"/><path fill="none" stroke="#EEEEEE" stroke-width="8" d="M621.982 439.242l-.01-.01V645.25h150.882"/><defs><linearGradient id="d" x1="0%" x2="50%" y1="0%" y2="50%"><stop offset="0%" stop-color="#3397DA"/><stop offset="100%" stop-color="#3397DA"/></linearGradient></defs><path fill="none" stroke="url(#d)" stroke-width="3" d="M621.982 439.242l-.01-.01V645.25h150.882"/><path fill="none" stroke="#EEEEEE" stroke-width="8" d="M773.813 439.242l-.01-.01h487.195v15.685"/><defs><linearGradient id="e" x1="0%" x2="50%" y1="0%" y2="50%"><stop offset="0%" stop-color="#3397DA"/><stop offset="100%" stop-color="#3397DA"/></linearGradient></defs><path fill="none" stroke="url(#e)" stroke-width="3" d="M773.813 439.242l-.01-.01h487.195v15.685"/><path fill="none" stroke="url(#e)" stroke-width="1.5" d="M1122.364 419.242l-2.01-.01v8h2M1126.364 419.242l1.99-.01v8h-2"/><path fill="none" stroke="#EEEEEE" stroke-width="8" d="M697.898 466.042l-.01-.01h310.301V569.06"/><defs><linearGradient id="f" x1="0%" x2="50%" y1="0%" y2="50%"><stop offset="0%" stop-color="#3397DA"/><stop offset="100%" stop-color="#2ECB70"/></linearGradient></defs><path fill="none" stroke="url(#f)" stroke-width="3" d="M697.898 466.042l-.01-.01h310.301V569.06"/><path fill="none" stroke="url(#f)" stroke-width="1.5" d="M1028.2 522.57l-2.01-.01v8h2M1032.2 522.57l1.99-.01v8h-2"/><path fill="none" stroke="#EEEEEE" stroke-width="8" d="M1261.008 454.927l-.01-.01h-186.76V595.06"/><defs><linearGradient id="g" x1="0%" x2="50%" y1="0%" y2="50%"><stop offset="0%" stop-color="#3397DA"/><stop offset="100%" stop-color="#2ECB70"/></linearGradient></defs><path fill="none" stroke="url(#g)" stroke-width="3" d="M1261.008 454.927l-.01-.01h-186.76V595.06"/><path fill="none" stroke="url(#g)" stroke-width="1.5" d="M1094.248 522.57l-2.01-.01v8h2M1098.248 522.57l1.99-.01v8h-2"/><path fill="none" stroke="#EEEEEE" stroke-width="8" d="M6.466 399.613l-.01-.01v249.6H0"/><defs><linearGradient id="h" x1="0%" x2="50%" y1="0%" y2="50%"><stop offset="0%" stop-color="#3397DA"/><stop offset="100%" stop-color="#3397DA"/></linearGradient></defs><path fill="none" stroke="url(#h)" stroke-width="3" d="M6.466 399.613l-.01-.01v249.6H0"/><path fill="none" stroke="url(#h)" stroke-width="1.5" d="M26.466 554.713l-2.01-.01v8h2M30.466 554.713l1.99-.01v8h-2"/><path fill="none" stroke="#EEEEEE" stroke-width="8" d="M181.383 464.413l-.01-.01v474.8h1.842"/><defs><linearGradient id="i" x1="0%" x2="50%" y1="0%" y2="50%"><stop offset="0%" stop-color="#3397DA"/><stop offset="100%" stop-color="#3397DA"/></linearGradient></defs><path fill="none" stroke="url(#i)" stroke-width="3" d="M181.383 464.413l-.01-.01v474.8h1.842"/><path fill="none" stroke="#EEEEEE" stroke-width="8" d="M125.33 848.213l-.01-.01v107h57.895"/><defs><linearGradient id="j" x1="0%" x2="50%" y1="0%" y2="50%"><stop offset="0%" stop-color="#3397DA"/><stop offset="100%" stop-color="#3397DA"/></linearGradient></defs><path fill="none" stroke="url(#j)" stroke-width="3" d="M125.33 848.213l-.01-.01v107h57.895"/><path fill="#FFFFFF" stroke="#3397DA" stroke-width="3" d="M482.141-49.797h242.656v106H482.141z"/><path fill="#3397da" stroke="#3397da" d="M483.14-24.797h242.657"/><path fill="none" stroke="#3397DA" stroke-width="3" d="M482.141-49.797h242.656v106H482.141z"/><text x="492.141" y="-31.797" style="font:700 16px 'Lucida Console',monospace" fill="#000000">VerifiableCredential</text><text x="492.141" y="-7.797" style="font:500 14px 'Lucida Console',monospace" fill="#000000">@context:</text><text x="571.999" y="-7.797" style="font:500 14px 'Lucida Console',monospace" fill="#02b57b">Text</text><text x="492.141" y="6.203" style="font:500 14px 'Lucida Console',monospace" fill="#000000">id:</text><text x="521.427" y="6.203" style="font:500 14px 'Lucida Console',monospace" fill="#C9A30B">URI</text><text x="492.141" y="20.203" style="font:500 14px 'Lucida Console',monospace" fill="#000000">issuer:</text><text x="555.142" y="20.203" style="font:500 14px 'Lucida Console',monospace" fill="#3397DA">Party</text><text x="492.141" y="34.203" style="font:500 14px 'Lucida Console',monospace" fill="#000000">validFrom:</text><text x="580.428" y="34.203" style="font:500 14px 'Lucida Console',monospace" fill="#02b57b">DateTime</text><text x="492.141" y="48.203" style="font:500 14px 'Lucida Console',monospace" fill="#000000">validUntil:</text><text x="588.857" y="48.203" style="font:500 14px 'Lucida Console',monospace" fill="#02b57b">DateTime</text><path fill="#FFFFFF" stroke="#3397DA" stroke-width="3" d="M465.925 143.346h357.862v162H465.925z"/><path fill="#3397da" stroke="#3397da" d="M466.925 168.346h357.863"/><path fill="none" stroke="#3397DA" stroke-width="3" d="M465.925 143.346h357.862v162H465.925z"/><text x="475.925" y="161.346" style="font:700 16px 'Lucida Console',monospace" fill="#000000">Party</text><text x="475.925" y="185.346" style="font:500 14px 'Lucida Console',monospace" fill="#666">id:</text><text x="505.212" y="185.346" style="font:500 14px 'Lucida Console',monospace" fill="#C9A30B">URI</text><text x="475.925" y="199.346" style="font:500 14px 'Lucida Console',monospace" fill="#666">idScheme:</text><text x="555.784" y="199.346" style="font:500 14px 'Lucida Console',monospace" fill="#02b57b">URI</text><text x="475.925" y="213.346" style="font:500 14px 'Lucida Console',monospace" fill="#666">idSchemeName:</text><text x="589.499" y="213.346" style="font:500 14px 'Lucida Console',monospace" fill="#02b57b">Text</text><text x="475.925" y="227.346" style="font:500 14px 'Lucida Console',monospace" fill="#666">idValue:</text><text x="547.355" y="227.346" style="font:500 14px 'Lucida Console',monospace" fill="#02b57b">Text</text><text x="475.925" y="241.346" style="font:500 14px 'Lucida Console',monospace" fill="#666">name:</text><text x="522.069" y="241.346" style="font:500 14px 'Lucida Console',monospace" fill="#02b57b">Text</text><text x="475.925" y="255.346" style="font:500 14px 'Lucida Console',monospace" fill="#000000">registrationCountry:</text><text x="648.5" y="255.346" style="font:500 14px 'Lucida Console',monospace" fill="#530abb">Code(countryCode)</text><text x="475.925" y="269.346" style="font:500 14px 'Lucida Console',monospace" fill="#000000">organisationWebsite:</text><text x="648.5" y="269.346" style="font:500 14px 'Lucida Console',monospace" fill="#02b57b">URI</text><text x="475.925" y="283.346" style="font:500 14px 'Lucida Console',monospace" fill="#000000">industryCategory:</text><text x="623.214" y="283.346" style="font:500 14px 'Lucida Console',monospace" fill="#3397DA">Classification[]</text><text x="475.925" y="297.346" style="font:500 14px 'Lucida Console',monospace" fill="#000000">otherIdentifiers:</text><text x="623.214" y="297.346" style="font:500 14px 'Lucida Console',monospace" fill="#3397DA">Identifier[]</text><path fill="#FFFFFF" stroke="#3397DA" stroke-width="3" d="M-17.859 148.632h353.434v176H-17.859z"/><path fill="#3397da" stroke="#3397da" d="M-16.86 173.632h353.434"/><path fill="none" stroke="#3397DA" stroke-width="3" d="M-17.859 148.632h353.434v176H-17.859z"/><text x="-7.859" y="166.632" style="font:700 16px 'Lucida Console',monospace" fill="#000000">Facility</text><text x="-7.859" y="190.632" style="font:500 14px 'Lucida Console',monospace" fill="#666">id:</text><text x="21.427" y="190.632" style="font:500 14px 'Lucida Console',monospace" fill="#C9A30B">URI</text><text x="-7.859" y="204.632" style="font:500 14px 'Lucida Console',monospace" fill="#666">idScheme:</text><text x="71.999" y="204.632" style="font:500 14px 'Lucida Console',monospace" fill="#02b57b">URI</text><text x="-7.859" y="218.632" style="font:500 14px 'Lucida Console',monospace" fill="#666">idSchemeName:</text><text x="105.714" y="218.632" style="font:500 14px 'Lucida Console',monospace" fill="#02b57b">Text</text><text x="-7.859" y="232.632" style="font:500 14px 'Lucida Console',monospace" fill="#666">idValue:</text><text x="63.571" y="232.632" style="font:500 14px 'Lucida Console',monospace" fill="#02b57b">Text</text><text x="-7.859" y="246.632" style="font:500 14px 'Lucida Console',monospace" fill="#666">name:</text><text x="38.284" y="246.632" style="font:500 14px 'Lucida Console',monospace" fill="#02b57b">Text</text><text x="-7.859" y="260.632" style="font:500 14px 'Lucida Console',monospace" fill="#000000">countryOfOperation:</text><text x="156.286" y="260.632" style="font:500 14px 'Lucida Console',monospace" fill="#530abb">Code(countryCode)</text><text x="-7.859" y="274.632" style="font:500 14px 'Lucida Console',monospace" fill="#000000">processCategory:</text><text x="131" y="274.632" style="font:500 14px 'Lucida Console',monospace" fill="#3397DA">Classification[]</text><text x="-7.859" y="288.632" style="font:500 14px 'Lucida Console',monospace" fill="#000000">operatedByParty:</text><text x="131" y="288.632" style="font:500 14px 'Lucida Console',monospace" fill="#3397DA">Identifier</text><text x="-7.859" y="302.632" style="font:500 14px 'Lucida Console',monospace" fill="#000000">otherIdentifiers:</text><text x="139.429" y="302.632" style="font:500 14px 'Lucida Console',monospace" fill="#3397DA">Identifier[]</text><text x="-7.859" y="316.632" style="font:500 14px 'Lucida Console',monospace" fill="#000000">locationInformation:</text><text x="164.715" y="316.632" style="font:500 14px 'Lucida Console',monospace" fill="#3397DA">Location</text><path fill="#FFFFFF" stroke="#3397DA" stroke-width="3" d="M-27.601-63.857h345.862v162H-27.601z"/><path fill="#3397da" stroke="#3397da" d="M-26.6-38.857h345.862"/><path fill="none" stroke="#3397DA" stroke-width="3" d="M-27.601-63.857h345.862v162H-27.601z"/><text x="-17.601" y="-45.857" style="font:700 16px 'Lucida Console',monospace" fill="#000000">Location</text><text x="-17.601" y="-21.857" style="font:500 14px 'Lucida Console',monospace" fill="#666">id:</text><text x="11.685" y="-21.857" style="font:500 14px 'Lucida Console',monospace" fill="#C9A30B">URI</text><text x="-17.601" y="-7.857" style="font:500 14px 'Lucida Console',monospace" fill="#666">idScheme:</text><text x="62.258" y="-7.857" style="font:500 14px 'Lucida Console',monospace" fill="#02b57b">URI</text><text x="-17.601" y="6.143" style="font:500 14px 'Lucida Console',monospace" fill="#666">idSchemeName:</text><text x="95.972" y="6.143" style="font:500 14px 'Lucida Console',monospace" fill="#02b57b">Text</text><text x="-17.601" y="20.143" style="font:500 14px 'Lucida Console',monospace" fill="#666">idValue:</text><text x="53.829" y="20.143" style="font:500 14px 'Lucida Console',monospace" fill="#02b57b">Text</text><text x="-17.601" y="34.143" style="font:500 14px 'Lucida Console',monospace" fill="#666">name:</text><text x="28.543" y="34.143" style="font:500 14px 'Lucida Console',monospace" fill="#02b57b">Text</text><text x="-17.601" y="48.143" style="font:500 14px 'Lucida Console',monospace" fill="#000000">areaReference:</text><text x="104.401" y="48.143" style="font:500 14px 'Lucida Console',monospace" fill="#02b57b">URI</text><text x="-17.601" y="62.143" style="font:500 14px 'Lucida Console',monospace" fill="#000000">geoLocation:</text><text x="87.544" y="62.143" style="font:500 14px 'Lucida Console',monospace" fill="#2ECB70">Coordinate</text><text x="-17.601" y="76.143" style="font:500 14px 'Lucida Console',monospace" fill="#000000">boundary:</text><text x="62.258" y="76.143" style="font:500 14px 'Lucida Console',monospace" fill="#2ECB70">Coordinate[]</text><text x="-17.601" y="90.143" style="font:500 14px 'Lucida Console',monospace" fill="#000000">postalAddress:</text><text x="104.401" y="90.143" style="font:500 14px 'Lucida Console',monospace" fill="#547000">schemaorg.PostalAddress</text><path fill="#FFFFFF" stroke="#2ECB70" stroke-width="3" d="M950.712 945.346h188v64h-188z"/><path fill="#2ecb70" stroke="#2ecb70" d="M951.712 970.346h188"/><path fill="none" stroke="#2ECB70" stroke-width="3" d="M950.712 945.346h188v64h-188z"/><text x="960.712" y="963.346" style="font:700 16px 'Lucida Console',monospace" fill="#000000">Coordinate</text><text x="960.712" y="987.346" style="font:500 14px 'Lucida Console',monospace" fill="#000000">Latitude:</text><text x="1040.571" y="987.346" style="font:500 14px 'Lucida Console',monospace" fill="#02b57b">Decimal</text><text x="960.712" y="1001.346" style="font:500 14px 'Lucida Console',monospace" fill="#000000">Longditude:</text><text x="1057.428" y="1001.346" style="font:500 14px 'Lucida Console',monospace" fill="#02b57b">Decimal</text><path fill="#FFFFFF" stroke="#3397DA" stroke-width="3" d="M929.355 87.632h345.862v260H929.355z"/><path fill="#3397da" stroke="#3397da" d="M930.355 112.632h345.862"/><path fill="none" stroke="#3397DA" stroke-width="3" d="M929.355 87.632h345.862v260H929.355z"/><text x="939.355" y="105.632" style="font:700 16px 'Lucida Console',monospace" fill="#000000">Product</text><text x="939.355" y="129.632" style="font:500 14px 'Lucida Console',monospace" fill="#666">id:</text><text x="968.641" y="129.632" style="font:500 14px 'Lucida Console',monospace" fill="#C9A30B">URI</text><text x="939.355" y="143.632" style="font:500 14px 'Lucida Console',monospace" fill="#666">idScheme:</text><text x="1019.213" y="143.632" style="font:500 14px 'Lucida Console',monospace" fill="#02b57b">URI</text><text x="939.355" y="157.632" style="font:500 14px 'Lucida Console',monospace" fill="#666">idSchemeName:</text><text x="1052.928" y="157.632" style="font:500 14px 'Lucida Console',monospace" fill="#02b57b">Text</text><text x="939.355" y="171.632" style="font:500 14px 'Lucida Console',monospace" fill="#666">idValue:</text><text x="1010.785" y="171.632" style="font:500 14px 'Lucida Console',monospace" fill="#02b57b">Text</text><text x="939.355" y="185.632" style="font:500 14px 'Lucida Console',monospace" fill="#666">name:</text><text x="985.498" y="185.632" style="font:500 14px 'Lucida Console',monospace" fill="#02b57b">Text</text><text x="939.355" y="199.632" style="font:500 14px 'Lucida Console',monospace" fill="#000000">serialNumber:</text><text x="1052.928" y="199.632" style="font:500 14px 'Lucida Console',monospace" fill="#02b57b">Text</text><text x="939.355" y="213.632" style="font:500 14px 'Lucida Console',monospace" fill="#000000">batchNumber:</text><text x="1044.499" y="213.632" style="font:500 14px 'Lucida Console',monospace" fill="#02b57b">Text</text><text x="939.355" y="227.632" style="font:500 14px 'Lucida Console',monospace" fill="#000000">productImage:</text><text x="1052.928" y="227.632" style="font:500 14px 'Lucida Console',monospace" fill="#3397DA">BinaryFile</text><text x="939.355" y="241.632" style="font:500 14px 'Lucida Console',monospace" fill="#000000">description:</text><text x="1044.499" y="241.632" style="font:500 14px 'Lucida Console',monospace" fill="#02b57b">Text</text><text x="939.355" y="255.632" style="font:500 14px 'Lucida Console',monospace" fill="#000000">productCategory:</text><text x="1078.214" y="255.632" style="font:500 14px 'Lucida Console',monospace" fill="#3397DA">Classification[]</text><text x="939.355" y="269.632" style="font:500 14px 'Lucida Console',monospace" fill="#000000">furtherInformation:</text><text x="1103.5" y="269.632" style="font:500 14px 'Lucida Console',monospace" fill="#02b57b">URI</text><text x="939.355" y="283.632" style="font:500 14px 'Lucida Console',monospace" fill="#000000">producedByParty:</text><text x="1078.214" y="283.632" style="font:500 14px 'Lucida Console',monospace" fill="#3397DA">Identifier</text><text x="939.355" y="297.632" style="font:500 14px 'Lucida Console',monospace" fill="#000000">producedAtFacility:</text><text x="1103.5" y="297.632" style="font:500 14px 'Lucida Console',monospace" fill="#3397DA">Identifier</text><text x="939.355" y="311.632" style="font:500 14px 'Lucida Console',monospace" fill="#000000">dimensions:</text><text x="1036.071" y="311.632" style="font:500 14px 'Lucida Console',monospace" fill="#2ECB70">Dimension</text><text x="939.355" y="325.632" style="font:500 14px 'Lucida Console',monospace" fill="#000000">productionDate:</text><text x="1069.786" y="325.632" style="font:500 14px 'Lucida Console',monospace" fill="#02b57b">Date</text><text x="939.355" y="339.632" style="font:500 14px 'Lucida Console',monospace" fill="#000000">countryOfProduction:</text><text x="1111.929" y="339.632" style="font:500 14px 'Lucida Console',monospace" fill="#530abb">Code(countryCode)</text><path fill="#FFFFFF" stroke="#3397DA" stroke-width="3" d="M432.141 761.632h286.433v106H432.141z"/><path fill="#3397da" stroke="#3397da" d="M433.14 786.632h286.434"/><path fill="none" stroke="#3397DA" stroke-width="3" d="M432.141 761.632h286.433v106H432.141z"/><text x="442.141" y="779.632" style="font:700 16px 'Lucida Console',monospace" fill="#000000">Classification</text><text x="442.141" y="803.632" style="font:500 14px 'Lucida Console',monospace" fill="#000000">id:</text><text x="471.427" y="803.632" style="font:500 14px 'Lucida Console',monospace" fill="#C9A30B">URI</text><text x="442.141" y="817.632" style="font:500 14px 'Lucida Console',monospace" fill="#000000">classificationSchemeID:</text><text x="640.001" y="817.632" style="font:500 14px 'Lucida Console',monospace" fill="#02b57b">URI</text><text x="442.141" y="831.632" style="font:500 14px 'Lucida Console',monospace" fill="#000000">classificationSchemeName:</text><text x="656.859" y="831.632" style="font:500 14px 'Lucida Console',monospace" fill="#02b57b">Text</text><text x="442.141" y="845.632" style="font:500 14px 'Lucida Console',monospace" fill="#000000">classifierValue:</text><text x="581" y="845.632" style="font:500 14px 'Lucida Console',monospace" fill="#02b57b">Text</text><text x="442.141" y="859.632" style="font:500 14px 'Lucida Console',monospace" fill="#000000">classifierName:</text><text x="572.572" y="859.632" style="font:500 14px 'Lucida Console',monospace" fill="#02b57b">Text</text><path fill="#FFFFFF" stroke="#2ECB70" stroke-width="3" d="M942.141 543.06h198.146v78H942.141z"/><path fill="#2ecb70" stroke="#2ecb70" d="M943.14 568.06h198.146"/><path fill="none" stroke="#2ECB70" stroke-width="3" d="M942.141 543.06h198.146v78H942.141z"/><text x="952.141" y="561.06" style="font:700 16px 'Lucida Console',monospace" fill="#000000">Metric</text><text x="952.141" y="585.06" style="font:500 14px 'Lucida Console',monospace" fill="#000000">metricName:</text><text x="1048.857" y="585.06" style="font:500 14px 'Lucida Console',monospace" fill="#02b57b">Text</text><text x="952.141" y="599.06" style="font:500 14px 'Lucida Console',monospace" fill="#000000">metricValue:</text><text x="1057.285" y="599.06" style="font:500 14px 'Lucida Console',monospace" fill="#2ECB70">Measure</text><text x="952.141" y="613.06" style="font:500 14px 'Lucida Console',monospace" fill="#000000">accuracy:</text><text x="1031.999" y="613.06" style="font:500 14px 'Lucida Console',monospace" fill="#02b57b">Numeric</text><path fill="#FFFFFF" stroke="#2ECB70" stroke-width="3" d="M714.998 903.203h200v106h-200z"/><path fill="#2ecb70" stroke="#2ecb70" d="M715.998 928.203h200"/><path fill="none" stroke="#2ECB70" stroke-width="3" d="M714.998 903.203h200v106h-200z"/><text x="724.998" y="921.203" style="font:700 16px 'Lucida Console',monospace" fill="#000000">Dimension</text><text x="724.998" y="945.203" style="font:500 14px 'Lucida Console',monospace" fill="#000000">weight:</text><text x="787.999" y="945.203" style="font:500 14px 'Lucida Console',monospace" fill="#2ECB70">Measure</text><text x="724.998" y="959.203" style="font:500 14px 'Lucida Console',monospace" fill="#000000">length:</text><text x="787.999" y="959.203" style="font:500 14px 'Lucida Console',monospace" fill="#2ECB70">Measure</text><text x="724.998" y="973.203" style="font:500 14px 'Lucida Console',monospace" fill="#000000">width:</text><text x="779.57" y="973.203" style="font:500 14px 'Lucida Console',monospace" fill="#2ECB70">Measure</text><text x="724.998" y="987.203" style="font:500 14px 'Lucida Console',monospace" fill="#000000">height:</text><text x="787.999" y="987.203" style="font:500 14px 'Lucida Console',monospace" fill="#2ECB70">Measure</text><text x="724.998" y="1001.203" style="font:500 14px 'Lucida Console',monospace" fill="#000000">volume:</text><text x="787.999" y="1001.203" style="font:500 14px 'Lucida Console',monospace" fill="#2ECB70">Measure</text><path fill="#FFFFFF" stroke="#2ECB70" stroke-width="3" d="M789.284 764.632h236.289v64H789.284z"/><path fill="#2ecb70" stroke="#2ecb70" d="M790.284 789.632h236.289"/><path fill="none" stroke="#2ECB70" stroke-width="3" d="M789.284 764.632h236.289v64H789.284z"/><text x="799.284" y="782.632" style="font:700 16px 'Lucida Console',monospace" fill="#000000">Measure</text><text x="799.284" y="806.632" style="font:500 14px 'Lucida Console',monospace" fill="#000000">value:</text><text x="853.856" y="806.632" style="font:500 14px 'Lucida Console',monospace" fill="#02b57b">Numeric</text><text x="799.284" y="820.632" style="font:500 14px 'Lucida Console',monospace" fill="#000000">unit:</text><text x="845.427" y="820.632" style="font:500 14px 'Lucida Console',monospace" fill="#530abb">Code(unitOfMeasure)</text><path fill="#FFFFFF" stroke="#3397DA" stroke-width="3" d="M11.389 740.203h227.86v78H11.389z"/><path fill="#3397da" stroke="#3397da" d="M12.389 765.203h227.86"/><path fill="none" stroke="#3397DA" stroke-width="3" d="M11.389 740.203h227.86v78H11.389z"/><text x="21.389" y="758.203" style="font:700 16px 'Lucida Console',monospace" fill="#000000">BinaryFile</text><text x="21.389" y="782.203" style="font:500 14px 'Lucida Console',monospace" fill="#000000">id:</text><text x="50.675" y="782.203" style="font:500 14px 'Lucida Console',monospace" fill="#C9A30B">URI</text><text x="21.389" y="796.203" style="font:500 14px 'Lucida Console',monospace" fill="#000000">fileName:</text><text x="101.247" y="796.203" style="font:500 14px 'Lucida Console',monospace" fill="#02b57b">Text</text><text x="21.389" y="810.203" style="font:500 14px 'Lucida Console',monospace" fill="#000000">fileType:</text><text x="101.247" y="810.203" style="font:500 14px 'Lucida Console',monospace" fill="#530abb">Code(mimeType)</text><path fill="#3397da" stroke="#EEEEEE" stroke-width="3" d="M125.32 812.203l-12 22 12-2h0l12 2-12-22"/><path fill="#3397da" stroke="#EEEEEE" stroke-width="3" d="M125.32 812.203l-12 22 12-2h0l12 2-12-22"/><path fill="#3397da" stroke="#3397da" stroke-width="3" d="M125.32 824.203v25.5"/><path fill="#FFFFFF" stroke="#3397DA" stroke-width="3" d="M-15.002 879.203h396.435v120H-15.002z"/><path fill="#3397da" stroke="#3397da" d="M-14.002 904.203h396.435"/><path fill="none" stroke="#3397DA" stroke-width="3" d="M-15.002 879.203h396.435v120H-15.002z"/><text x="-5.002" y="897.203" style="font:700 16px 'Lucida Console',monospace" fill="#000000">SecureBinaryFile</text><text x="-5.002" y="921.203" style="font:500 14px 'Lucida Console',monospace" fill="#666">id:</text><text x="24.284" y="921.203" style="font:500 14px 'Lucida Console',monospace" fill="#C9A30B">URI</text><text x="-5.002" y="935.203" style="font:500 14px 'Lucida Console',monospace" fill="#666">fileName:</text><text x="74.856" y="935.203" style="font:500 14px 'Lucida Console',monospace" fill="#02b57b">Text</text><text x="-5.002" y="949.203" style="font:500 14px 'Lucida Console',monospace" fill="#666">fileType:</text><text x="74.856" y="949.203" style="font:500 14px 'Lucida Console',monospace" fill="#530abb">Code(mimeType)</text><text x="-5.002" y="963.203" style="font:500 14px 'Lucida Console',monospace" fill="#000000">fileHash:</text><text x="74.856" y="963.203" style="font:500 14px 'Lucida Console',monospace" fill="#02b57b">Text</text><text x="-5.002" y="977.203" style="font:500 14px 'Lucida Console',monospace" fill="#000000">hashMethod:</text><text x="91.714" y="977.203" style="font:500 14px 'Lucida Console',monospace" fill="#530abb">Code(hashMethodCode)</text><text x="-5.002" y="991.203" style="font:500 14px 'Lucida Console',monospace" fill="#000000">encryptionMethod:</text><text x="142.286" y="991.203" style="font:500 14px 'Lucida Console',monospace" fill="#530abb">Code(encryptionMethodCode)</text><path fill="#FFFFFF" stroke="#3397DA" stroke-width="3" d="M470.141 385.632h379.577v134H470.141z"/><path fill="#3397da" stroke="#3397da" d="M471.141 410.632H850.72"/><path fill="none" stroke="#3397DA" stroke-width="3" d="M470.141 385.632h379.577v134H470.141z"/><text x="480.141" y="403.632" style="font:700 16px 'Lucida Console',monospace" fill="#000000">Declaration</text><text x="480.141" y="427.632" style="font:500 14px 'Lucida Console',monospace" fill="#000000">id:</text><text x="509.428" y="427.632" style="font:500 14px 'Lucida Console',monospace" fill="#C9A30B">URI</text><text x="480.141" y="441.632" style="font:500 14px 'Lucida Console',monospace" fill="#000000">referenceStandard:</text><text x="635.858" y="441.632" style="font:500 14px 'Lucida Console',monospace" fill="#3397DA">Standard</text><text x="480.141" y="455.632" style="font:500 14px 'Lucida Console',monospace" fill="#000000">referenceRegulation:</text><text x="652.716" y="455.632" style="font:500 14px 'Lucida Console',monospace" fill="#3397DA">Regulation</text><text x="480.141" y="469.632" style="font:500 14px 'Lucida Console',monospace" fill="#000000">assessmentCriterion:</text><text x="652.716" y="469.632" style="font:500 14px 'Lucida Console',monospace" fill="#3397DA">Criteria[]</text><text x="480.141" y="483.632" style="font:500 14px 'Lucida Console',monospace" fill="#000000">declaredValues:</text><text x="610.572" y="483.632" style="font:500 14px 'Lucida Console',monospace" fill="#2ECB70">Metric[]</text><text x="480.141" y="497.632" style="font:500 14px 'Lucida Console',monospace" fill="#000000">compliance:</text><text x="576.857" y="497.632" style="font:500 14px 'Lucida Console',monospace" fill="#02b57b">Indicator</text><text x="480.141" y="511.632" style="font:500 14px 'Lucida Console',monospace" fill="#000000">conformityTopic:</text><text x="619.001" y="511.632" style="font:500 14px 'Lucida Console',monospace" fill="#530abb">Code(conformityTopicCode)</text><path fill="#FFFFFF" stroke="#3397DA" stroke-width="3" d="M283.189 571.901h231.86v134h-231.86z"/><path fill="#3397da" stroke="#3397da" d="M284.189 596.901h231.86"/><path fill="none" stroke="#3397DA" stroke-width="3" d="M283.189 571.901h231.86v134h-231.86z"/><text x="293.189" y="589.901" style="font:700 16px 'Lucida Console',monospace" fill="#000000">Standard</text><text x="293.189" y="613.901" style="font:500 14px 'Lucida Console',monospace" fill="#666">id:</text><text x="322.475" y="613.901" style="font:500 14px 'Lucida Console',monospace" fill="#C9A30B">URI</text><text x="293.189" y="627.901" style="font:500 14px 'Lucida Console',monospace" fill="#666">idScheme:</text><text x="373.047" y="627.901" style="font:500 14px 'Lucida Console',monospace" fill="#02b57b">URI</text><text x="293.189" y="641.901" style="font:500 14px 'Lucida Console',monospace" fill="#666">idSchemeName:</text><text x="406.762" y="641.901" style="font:500 14px 'Lucida Console',monospace" fill="#02b57b">Text</text><text x="293.189" y="655.901" style="font:500 14px 'Lucida Console',monospace" fill="#666">idValue:</text><text x="364.619" y="655.901" style="font:500 14px 'Lucida Console',monospace" fill="#02b57b">Text</text><text x="293.189" y="669.901" style="font:500 14px 'Lucida Console',monospace" fill="#666">name:</text><text x="339.333" y="669.901" style="font:500 14px 'Lucida Console',monospace" fill="#02b57b">Text</text><text x="293.189" y="683.901" style="font:500 14px 'Lucida Console',monospace" fill="#000000">issuingParty:</text><text x="406.762" y="683.901" style="font:500 14px 'Lucida Console',monospace" fill="#3397DA">Identifier</text><text x="293.189" y="697.901" style="font:500 14px 'Lucida Console',monospace" fill="#000000">issueDate:</text><text x="381.476" y="697.901" style="font:500 14px 'Lucida Console',monospace" fill="#02b57b">Date</text><path fill="#FFFFFF" stroke="#3397DA" stroke-width="3" d="M656.923 578.251h231.86v134h-231.86z"/><path fill="#3397da" stroke="#3397da" d="M657.923 603.25h231.86"/><path fill="none" stroke="#3397DA" stroke-width="3" d="M656.923 578.251h231.86v134h-231.86z"/><text x="666.923" y="596.251" style="font:700 16px 'Lucida Console',monospace" fill="#000000">Regulation</text><text x="666.923" y="620.251" style="font:500 14px 'Lucida Console',monospace" fill="#666">id:</text><text x="696.209" y="620.251" style="font:500 14px 'Lucida Console',monospace" fill="#C9A30B">URI</text><text x="666.923" y="634.251" style="font:500 14px 'Lucida Console',monospace" fill="#666">idScheme:</text><text x="746.782" y="634.251" style="font:500 14px 'Lucida Console',monospace" fill="#02b57b">URI</text><text x="666.923" y="648.251" style="font:500 14px 'Lucida Console',monospace" fill="#666">idSchemeName:</text><text x="780.497" y="648.251" style="font:500 14px 'Lucida Console',monospace" fill="#02b57b">Text</text><text x="666.923" y="662.251" style="font:500 14px 'Lucida Console',monospace" fill="#666">idValue:</text><text x="738.353" y="662.251" style="font:500 14px 'Lucida Console',monospace" fill="#02b57b">Text</text><text x="666.923" y="676.251" style="font:500 14px 'Lucida Console',monospace" fill="#666">name:</text><text x="713.067" y="676.251" style="font:500 14px 'Lucida Console',monospace" fill="#02b57b">Text</text><text x="666.923" y="690.251" style="font:500 14px 'Lucida Console',monospace" fill="#000000">issuingParty:</text><text x="780.497" y="690.251" style="font:500 14px 'Lucida Console',monospace" fill="#3397DA">Identifier</text><text x="666.923" y="704.251" style="font:500 14px 'Lucida Console',monospace" fill="#000000">effectiveDate:</text><text x="788.925" y="704.251" style="font:500 14px 'Lucida Console',monospace" fill="#02b57b">Date</text><path fill="#FFFFFF" stroke="#3397DA" stroke-width="3" d="M1142.854 415.917h236.289v78h-236.289z"/><path fill="#3397da" stroke="#3397da" d="M1143.854 440.917h236.289"/><path fill="none" stroke="#3397DA" stroke-width="3" d="M1142.854 415.917h236.289v78h-236.289z"/><text x="1152.854" y="433.917" style="font:700 16px 'Lucida Console',monospace" fill="#000000">Criteria</text><text x="1152.854" y="457.917" style="font:500 14px 'Lucida Console',monospace" fill="#000000">id:</text><text x="1182.14" y="457.917" style="font:500 14px 'Lucida Console',monospace" fill="#C9A30B">URI</text><text x="1152.854" y="471.917" style="font:500 14px 'Lucida Console',monospace" fill="#000000">criteriaName:</text><text x="1266.427" y="471.917" style="font:500 14px 'Lucida Console',monospace" fill="#02b57b">Text</text><text x="1152.854" y="485.917" style="font:500 14px 'Lucida Console',monospace" fill="#000000">thresholdValues:</text><text x="1291.713" y="485.917" style="font:500 14px 'Lucida Console',monospace" fill="#2ECB70">Metric[]</text><path fill="#FFFFFF" stroke="#2ECB70" stroke-width="3" d="M1077.998 740.632h315.29v134h-315.29z"/><path fill="#2ecb70" stroke="#2ecb70" d="M1078.998 765.632h315.29"/><path fill="none" stroke="#2ECB70" stroke-width="3" d="M1077.998 740.632h315.29v134h-315.29z"/><text x="1087.998" y="758.632" style="font:700 16px 'Lucida Console',monospace" fill="#000000">Material</text><text x="1087.998" y="782.632" style="font:500 14px 'Lucida Console',monospace" fill="#000000">MaterialName:</text><text x="1201.571" y="782.632" style="font:500 14px 'Lucida Console',monospace" fill="#02b57b">Text</text><text x="1087.998" y="796.632" style="font:500 14px 'Lucida Console',monospace" fill="#000000">originCountry:</text><text x="1210" y="796.632" style="font:500 14px 'Lucida Console',monospace" fill="#530abb">Code(countryCode)</text><text x="1087.998" y="810.632" style="font:500 14px 'Lucida Console',monospace" fill="#000000">materialType:</text><text x="1201.571" y="810.632" style="font:500 14px 'Lucida Console',monospace" fill="#3397DA">Classification</text><text x="1087.998" y="824.632" style="font:500 14px 'Lucida Console',monospace" fill="#000000">massFraction:</text><text x="1201.571" y="824.632" style="font:500 14px 'Lucida Console',monospace" fill="#02b57b">Numeric</text><text x="1087.998" y="838.632" style="font:500 14px 'Lucida Console',monospace" fill="#000000">recycledAmount:</text><text x="1218.429" y="838.632" style="font:500 14px 'Lucida Console',monospace" fill="#02b57b">Numeric</text><text x="1087.998" y="852.632" style="font:500 14px 'Lucida Console',monospace" fill="#000000">hazardous:</text><text x="1176.285" y="852.632" style="font:500 14px 'Lucida Console',monospace" fill="#02b57b">Indicator</text><text x="1087.998" y="866.632" style="font:500 14px 'Lucida Console',monospace" fill="#000000">materialSafetyInformation:</text><text x="1311.145" y="866.632" style="font:500 14px 'Lucida Console',monospace" fill="#02b57b">URI</text><path fill="#FFFFFF" stroke="#2ECB70" stroke-width="3" d="M1172.141 916.06h248.718v92h-248.718z"/><path fill="#2ecb70" stroke="#2ecb70" d="M1173.14 941.06h248.719"/><path fill="none" stroke="#2ECB70" stroke-width="3" d="M1172.141 916.06h248.718v92h-248.718z"/><text x="1182.141" y="934.06" style="font:700 16px 'Lucida Console',monospace" fill="#000000">Circularity</text><text x="1182.141" y="958.06" style="font:500 14px 'Lucida Console',monospace" fill="#000000">recyclingInformation:</text><text x="1363.144" y="958.06" style="font:500 14px 'Lucida Console',monospace" fill="#02b57b">URI</text><text x="1182.141" y="972.06" style="font:500 14px 'Lucida Console',monospace" fill="#000000">repairInformation:</text><text x="1337.858" y="972.06" style="font:500 14px 'Lucida Console',monospace" fill="#02b57b">URI</text><text x="1182.141" y="986.06" style="font:500 14px 'Lucida Console',monospace" fill="#000000">recyclableContent:</text><text x="1337.858" y="986.06" style="font:500 14px 'Lucida Console',monospace" fill="#02b57b">Decimal</text><text x="1182.141" y="1000.06" style="font:500 14px 'Lucida Console',monospace" fill="#000000">recyecledContent:</text><text x="1329.429" y="1000.06" style="font:500 14px 'Lucida Console',monospace" fill="#02b57b">Decimal</text><path fill="#FFFFFF" stroke="#2ECB70" stroke-width="3" d="M474.998 961.774h180v36h-180z"/><path fill="#2ecb70" stroke="#2ecb70" d="M475.998 986.774h180"/><path fill="none" stroke="#2ECB70" stroke-width="3" d="M474.998 961.774h180v36h-180z"/><text x="484.998" y="979.774" style="font:700 16px 'Lucida Console',monospace" fill="#000000">Characteristic</text><path fill="#FFFFFF" stroke="#3397DA" stroke-width="3" d="M-81.002 367.203H356.29v162H-81.002z"/><path fill="#3397da" stroke="#3397da" d="M-80.002 392.203H357.29"/><path fill="none" stroke="#3397DA" stroke-width="3" d="M-81.002 367.203H356.29v162H-81.002z"/><text x="-71.002" y="385.203" style="font:700 16px 'Lucida Console',monospace" fill="#000000">Attestation</text><text x="-71.002" y="409.203" style="font:500 14px 'Lucida Console',monospace" fill="#000000">id:</text><text x="-41.716" y="409.203" style="font:500 14px 'Lucida Console',monospace" fill="#C9A30B">URI</text><text x="-71.002" y="423.203" style="font:500 14px 'Lucida Console',monospace" fill="#000000">assessorLevel:</text><text x="51" y="423.203" style="font:500 14px 'Lucida Console',monospace" fill="#530abb">Code(assessorAssuranceCode)</text><text x="-71.002" y="437.203" style="font:500 14px 'Lucida Console',monospace" fill="#000000">assessmentLevel:</text><text x="67.857" y="437.203" style="font:500 14px 'Lucida Console',monospace" fill="#530abb">Code(assessmentAssuranceCode)</text><text x="-71.002" y="451.203" style="font:500 14px 'Lucida Console',monospace" fill="#000000">attestationType:</text><text x="67.857" y="451.203" style="font:500 14px 'Lucida Console',monospace" fill="#530abb">Code(attestationTypeCode)</text><text x="-71.002" y="465.203" style="font:500 14px 'Lucida Console',monospace" fill="#000000">attestationDescription:</text><text x="126.858" y="465.203" style="font:500 14px 'Lucida Console',monospace" fill="#02b57b">Text</text><text x="-71.002" y="479.203" style="font:500 14px 'Lucida Console',monospace" fill="#000000">issuedToParty:</text><text x="51" y="479.203" style="font:500 14px 'Lucida Console',monospace" fill="#3397DA">Identifier</text><text x="-71.002" y="493.203" style="font:500 14px 'Lucida Console',monospace" fill="#000000">accreditation:</text><text x="51" y="493.203" style="font:500 14px 'Lucida Console',monospace" fill="#3397DA">Endorsement[]</text><text x="-71.002" y="507.203" style="font:500 14px 'Lucida Console',monospace" fill="#000000">conformityCertificate:</text><text x="118.43" y="507.203" style="font:500 14px 'Lucida Console',monospace" fill="#3397DA">BinaryFile</text><text x="-71.002" y="521.203" style="font:500 14px 'Lucida Console',monospace" fill="#000000">auditableEvidence:</text><text x="84.715" y="521.203" style="font:500 14px 'Lucida Console',monospace" fill="#3397DA">SecureBinaryFile</text><path fill="#FFFFFF" stroke="#3397DA" stroke-width="3" d="M-135.002 575.203h270.004v148h-270.004z"/><path fill="#3397da" stroke="#3397da" d="M-134.002 600.203h270.004"/><path fill="none" stroke="#3397DA" stroke-width="3" d="M-135.002 575.203h270.004v148h-270.004z"/><text x="-125.002" y="593.203" style="font:700 16px 'Lucida Console',monospace" fill="#000000">Endorsement</text><text x="-125.002" y="617.203" style="font:500 14px 'Lucida Console',monospace" fill="#666">id:</text><text x="-95.716" y="617.203" style="font:500 14px 'Lucida Console',monospace" fill="#C9A30B">URI</text><text x="-125.002" y="631.203" style="font:500 14px 'Lucida Console',monospace" fill="#666">idScheme:</text><text x="-45.144" y="631.203" style="font:500 14px 'Lucida Console',monospace" fill="#02b57b">URI</text><text x="-125.002" y="645.203" style="font:500 14px 'Lucida Console',monospace" fill="#666">idSchemeName:</text><text x="-11.429" y="645.203" style="font:500 14px 'Lucida Console',monospace" fill="#02b57b">Text</text><text x="-125.002" y="659.203" style="font:500 14px 'Lucida Console',monospace" fill="#666">idValue:</text><text x="-53.572" y="659.203" style="font:500 14px 'Lucida Console',monospace" fill="#02b57b">Text</text><text x="-125.002" y="673.203" style="font:500 14px 'Lucida Console',monospace" fill="#666">name:</text><text x="-78.858" y="673.203" style="font:500 14px 'Lucida Console',monospace" fill="#02b57b">Text</text><text x="-125.002" y="687.203" style="font:500 14px 'Lucida Console',monospace" fill="#000000">trustmark:</text><text x="-36.715" y="687.203" style="font:500 14px 'Lucida Console',monospace" fill="#3397DA">BinaryFile</text><text x="-125.002" y="701.203" style="font:500 14px 'Lucida Console',monospace" fill="#000000">issuingAuthority:</text><text x="22.286" y="701.203" style="font:500 14px 'Lucida Console',monospace" fill="#3397DA">Identifier</text><text x="-125.002" y="715.203" style="font:500 14px 'Lucida Console',monospace" fill="#000000">accreditationCertificate:</text><text x="89.716" y="715.203" style="font:500 14px 'Lucida Console',monospace" fill="#02b57b">URI</text></svg>