<svg xmlns="http://www.w3.org/2000/svg" viewBox="-159.216 -73 1763.697 1183.474"><rect width="1000%" height="1000%" x="-500%" y="-500%" fill="#EEEEEE"/><path fill="none" stroke="#EEEEEE" stroke-width="8" d="M720.246 36.296l-.01-.01h305.102V30"/><defs><linearGradient id="a" x1="0%" x2="50%" y1="0%" y2="50%"><stop offset="0%" stop-color="#3397DA"/><stop offset="100%" stop-color="#3397DA"/></linearGradient></defs><path fill="none" stroke="url(#a)" stroke-width="3" d="M720.246 36.296l-.01-.01h305.102V30"/><path fill="none" stroke="#EEEEEE" stroke-width="8" d="M284.634 213.772l-.01-.01V36h162.43"/><defs><linearGradient id="b" x1="0%" x2="50%" y1="0%" y2="50%"><stop offset="0%" stop-color="#3397DA"/><stop offset="100%" stop-color="#2ECB70"/></linearGradient></defs><path fill="none" stroke="url(#b)" stroke-width="3" d="M284.634 213.772l-.01-.01V36h162.43"/><path fill="none" stroke="#EEEEEE" stroke-width="8" d="M225.062 182.105l-.01-.01V0H93.91"/><defs><linearGradient id="c" x1="100%" x2="50%" y1="100%" y2="50%"><stop offset="0%" stop-color="#3397DA"/><stop offset="100%" stop-color="#2ECB70"/></linearGradient></defs><path fill="none" stroke="url(#c)" stroke-width="3" d="M225.062 182.105l-.01-.01V0H93.91"/><path fill="none" stroke="#EEEEEE" stroke-width="8" d="M807.32 448.039l-.01-.01v195.765h116.98"/><defs><linearGradient id="d" x1="0%" x2="50%" y1="0%" y2="50%"><stop offset="0%" stop-color="#3397DA"/><stop offset="100%" stop-color="#3397DA"/></linearGradient></defs><path fill="none" stroke="url(#d)" stroke-width="3" d="M807.32 448.039l-.01-.01v195.765h116.98"/><path fill="none" stroke="#EEEEEE" stroke-width="8" d="M731.405 421.239l-.01-.01v245.676H586.763"/><defs><linearGradient id="e" x1="0%" x2="50%" y1="0%" y2="50%"><stop offset="0%" stop-color="#3397DA"/><stop offset="100%" stop-color="#3397DA"/></linearGradient></defs><path fill="none" stroke="url(#e)" stroke-width="3" d="M731.405 421.239l-.01-.01v245.676H586.763"/><path fill="none" stroke="#EEEEEE" stroke-width="8" d="M959.152 448.039l-.01-.01h487.194v15.685"/><defs><linearGradient id="f" x1="0%" x2="50%" y1="0%" y2="50%"><stop offset="0%" stop-color="#3397DA"/><stop offset="100%" stop-color="#3397DA"/></linearGradient></defs><path fill="none" stroke="url(#f)" stroke-width="3" d="M959.152 448.039l-.01-.01h487.194v15.685"/><path fill="none" stroke="url(#f)" stroke-width="1.5" d="M1307.702 428.039l-2.01-.01v8h2M1311.702 428.039l1.99-.01v8h-2"/><path fill="none" stroke="#EEEEEE" stroke-width="8" d="M883.236 474.839l-.01-.01h310.302v103.028"/><defs><linearGradient id="g" x1="0%" x2="50%" y1="0%" y2="50%"><stop offset="0%" stop-color="#3397DA"/><stop offset="100%" stop-color="#2ECB70"/></linearGradient></defs><path fill="none" stroke="url(#g)" stroke-width="3" d="M883.236 474.839l-.01-.01h310.302v103.028"/><path fill="none" stroke="url(#g)" stroke-width="1.5" d="M1213.538 531.367l-2.01-.01v8h2M1217.538 531.367l1.99-.01v8h-2"/><path fill="none" stroke="#EEEEEE" stroke-width="8" d="M1446.346 463.724l-.01-.01h-186.76v140.143"/><defs><linearGradient id="h" x1="0%" x2="50%" y1="0%" y2="50%"><stop offset="0%" stop-color="#3397DA"/><stop offset="100%" stop-color="#2ECB70"/></linearGradient></defs><path fill="none" stroke="url(#h)" stroke-width="3" d="M1446.346 463.724l-.01-.01h-186.76v140.143"/><path fill="none" stroke="url(#h)" stroke-width="1.5" d="M1279.586 531.367l-2.01-.01v8h2M1283.586 531.367l1.99-.01v8h-2"/><path fill="none" stroke="#EEEEEE" stroke-width="8" d="M980.368 803.01l-.01-.01V674.46h9.98"/><defs><linearGradient id="i" x1="100%" x2="50%" y1="100%" y2="50%"><stop offset="0%" stop-color="#2ECB70"/><stop offset="100%" stop-color="#3397DA"/></linearGradient></defs><path fill="none" stroke="url(#i)" stroke-width="3" d="M980.368 803.01l-.01-.01V674.46h9.98"/><path fill="none" stroke="#EEEEEE" stroke-width="8" d="M201.92 404.21l-.01-.01v222.973H0"/><defs><linearGradient id="j" x1="0%" x2="50%" y1="0%" y2="50%"><stop offset="0%" stop-color="#3397DA"/><stop offset="100%" stop-color="#3397DA"/></linearGradient></defs><path fill="none" stroke="url(#j)" stroke-width="3" d="M201.92 404.21l-.01-.01v222.973H0"/><path fill="none" stroke="url(#j)" stroke-width="1.5" d="M159.726 607.183l-2.01-.01v8h2M163.726 607.183l1.99-.01v8h-2"/><path fill="none" stroke="#EEEEEE" stroke-width="8" d="M282.635 439.41l-.01-.01v425.743H73.759"/><defs><linearGradient id="k" x1="0%" x2="50%" y1="0%" y2="50%"><stop offset="0%" stop-color="#3397DA"/><stop offset="100%" stop-color="#2ECB70"/></linearGradient></defs><path fill="none" stroke="url(#k)" stroke-width="3" d="M282.635 439.41l-.01-.01v425.743H73.759"/><path fill="none" stroke="#EEEEEE" stroke-width="8" d="M363.35 474.61l-.01-.01v430.543H205.904"/><defs><linearGradient id="l" x1="0%" x2="50%" y1="0%" y2="50%"><stop offset="0%" stop-color="#3397DA"/><stop offset="100%" stop-color="#2ECB70"/></linearGradient></defs><path fill="none" stroke="url(#l)" stroke-width="3" d="M363.35 474.61l-.01-.01v430.543H205.904"/><path fill="none" stroke="#EEEEEE" stroke-width="8" d="M75.294 826.063l-.01-.01v75.09h64.548"/><defs><linearGradient id="m" x1="0%" x2="50%" y1="0%" y2="50%"><stop offset="0%" stop-color="#2ECB70"/><stop offset="100%" stop-color="#2ECB70"/></linearGradient></defs><path fill="none" stroke="url(#m)" stroke-width="3" d="M75.294 826.063l-.01-.01v75.09h64.548"/><path fill="#FFFFFF" stroke="#3397DA" stroke-width="3" d="M598.908-16.714h242.656v106H598.908z"/><path fill="#3397da" stroke="#3397da" d="M599.908 8.286h242.656"/><path fill="none" stroke="#3397DA" stroke-width="3" d="M598.908-16.714h242.656v106H598.908z"/><text x="608.908" y="1.286" style="font:700 16px 'Lucida Console',monospace" fill="#000000">VerifiableCredential</text><text x="608.908" y="25.286" style="font:500 14px 'Lucida Console',monospace" fill="#000000">@context:</text><text x="688.766" y="25.286" style="font:500 14px 'Lucida Console',monospace" fill="#02b57b">Text[]</text><text x="608.908" y="39.286" style="font:500 14px 'Lucida Console',monospace" fill="#000000">id:</text><text x="638.194" y="39.286" style="font:500 14px 'Lucida Console',monospace" fill="#C9A30B">URI</text><text x="608.908" y="53.286" style="font:500 14px 'Lucida Console',monospace" fill="#000000">issuer:</text><text x="671.909" y="53.286" style="font:500 14px 'Lucida Console',monospace" fill="#3397DA">CredentialIssuer</text><text x="608.908" y="67.286" style="font:500 14px 'Lucida Console',monospace" fill="#000000">validFrom:</text><text x="697.195" y="67.286" style="font:500 14px 'Lucida Console',monospace" fill="#02b57b">DateTime</text><text x="608.908" y="81.286" style="font:500 14px 'Lucida Console',monospace" fill="#000000">validUntil:</text><text x="705.624" y="81.286" style="font:500 14px 'Lucida Console',monospace" fill="#02b57b">DateTime</text><path fill="#FFFFFF" stroke="#3397DA" stroke-width="3" d="M902.979-9h244.718v78H902.979z"/><path fill="#3397da" stroke="#3397da" d="M903.98 16h244.717"/><path fill="none" stroke="#3397DA" stroke-width="3" d="M902.979-9h244.718v78H902.979z"/><text x="912.979" y="9" style="font:700 16px 'Lucida Console',monospace" fill="#000000">CredentialIssuer</text><text x="912.979" y="33" style="font:500 14px 'Lucida Console',monospace" fill="#000000">id:</text><text x="942.266" y="33" style="font:500 14px 'Lucida Console',monospace" fill="#C9A30B">URI</text><text x="912.979" y="47" style="font:500 14px 'Lucida Console',monospace" fill="#000000">name:</text><text x="959.123" y="47" style="font:500 14px 'Lucida Console',monospace" fill="#02b57b">Text</text><text x="912.979" y="61" style="font:500 14px 'Lucida Console',monospace" fill="#000000">otherIdentifiers:</text><text x="1060.268" y="61" style="font:500 14px 'Lucida Console',monospace" fill="#3397DA">Entity[]</text><path fill="#FFFFFF" stroke="#3397DA" stroke-width="3" d="M978.141 900h192.125v64H978.141z"/><path fill="#3397da" stroke="#3397da" d="M979.14 925h192.126"/><path fill="none" stroke="#3397DA" stroke-width="3" d="M978.141 900h192.125v64H978.141z"/><text x="988.141" y="918" style="font:700 16px 'Lucida Console',monospace" fill="#000000">IdentifierScheme</text><text x="988.141" y="942" style="font:500 14px 'Lucida Console',monospace" fill="#000000">id:</text><text x="1017.427" y="942" style="font:500 14px 'Lucida Console',monospace" fill="#C9A30B">URI</text><text x="988.141" y="956" style="font:500 14px 'Lucida Console',monospace" fill="#000000">name:</text><text x="1034.284" y="956" style="font:500 14px 'Lucida Console',monospace" fill="#02b57b">Text</text><path fill="#FFFFFF" stroke="#2ECB70" stroke-width="3" d="M-20.716 718.053h192v78h-192z"/><path fill="#2ecb70" stroke="#2ecb70" d="M-19.716 743.053h192"/><path fill="none" stroke="#2ECB70" stroke-width="3" d="M-20.716 718.053h192v78h-192z"/><text x="-10.716" y="736.053" style="font:700 16px 'Lucida Console',monospace" fill="#000000">Link</text><text x="-10.716" y="760.053" style="font:500 14px 'Lucida Console',monospace" fill="#000000">linkURL:</text><text x="60.713" y="760.053" style="font:500 14px 'Lucida Console',monospace" fill="#02b57b">URI</text><text x="-10.716" y="774.053" style="font:500 14px 'Lucida Console',monospace" fill="#000000">linkName:</text><text x="69.142" y="774.053" style="font:500 14px 'Lucida Console',monospace" fill="#02b57b">Text</text><text x="-10.716" y="788.053" style="font:500 14px 'Lucida Console',monospace" fill="#000000">linkType:</text><text x="69.142" y="788.053" style="font:500 14px 'Lucida Console',monospace" fill="#02b57b">Text</text><path fill="#2ecb70" stroke="#EEEEEE" stroke-width="3" d="M75.284 790.053l-12 22 12-2h0l12 2-12-22"/><path fill="#2ecb70" stroke="#EEEEEE" stroke-width="3" d="M75.284 790.053l-12 22 12-2h0l12 2-12-22"/><path fill="#2ecb70" stroke="#2ecb70" stroke-width="3" d="M75.284 802.053v25.5"/><path fill="#FFFFFF" stroke="#3397DA" stroke-width="3" d="M651.264 152.143h357.862v162H651.264z"/><path fill="#3397da" stroke="#3397da" d="M652.264 177.143h357.862"/><path fill="none" stroke="#3397DA" stroke-width="3" d="M651.264 152.143h357.862v162H651.264z"/><text x="661.264" y="170.143" style="font:700 16px 'Lucida Console',monospace" fill="#000000">Party</text><text x="661.264" y="194.143" style="font:500 14px 'Lucida Console',monospace" fill="#666">id:</text><text x="690.55" y="194.143" style="font:500 14px 'Lucida Console',monospace" fill="#C9A30B">URI</text><text x="661.264" y="208.143" style="font:500 14px 'Lucida Console',monospace" fill="#666">name:</text><text x="707.407" y="208.143" style="font:500 14px 'Lucida Console',monospace" fill="#02b57b">Text</text><text x="661.264" y="222.143" style="font:500 14px 'Lucida Console',monospace" fill="#666">registeredId:</text><text x="774.837" y="222.143" style="font:500 14px 'Lucida Console',monospace" fill="#02b57b">Text</text><text x="661.264" y="236.143" style="font:500 14px 'Lucida Console',monospace" fill="#666">idScheme:</text><text x="741.122" y="236.143" style="font:500 14px 'Lucida Console',monospace" fill="#3397DA">IdentifierScheme</text><text x="661.264" y="250.143" style="font:500 14px 'Lucida Console',monospace" fill="#000000">description:</text><text x="766.408" y="250.143" style="font:500 14px 'Lucida Console',monospace" fill="#02b57b">Text</text><text x="661.264" y="264.143" style="font:500 14px 'Lucida Console',monospace" fill="#000000">registrationCountry:</text><text x="833.838" y="264.143" style="font:500 14px 'Lucida Console',monospace" fill="#530abb">Code(countryCode)</text><text x="661.264" y="278.143" style="font:500 14px 'Lucida Console',monospace" fill="#000000">organisationWebsite:</text><text x="833.838" y="278.143" style="font:500 14px 'Lucida Console',monospace" fill="#02b57b">URI</text><text x="661.264" y="292.143" style="font:500 14px 'Lucida Console',monospace" fill="#000000">industryCategories:</text><text x="825.409" y="292.143" style="font:500 14px 'Lucida Console',monospace" fill="#3397DA">Classification[]</text><text x="661.264" y="306.143" style="font:500 14px 'Lucida Console',monospace" fill="#000000">otherIdentifiers:</text><text x="808.552" y="306.143" style="font:500 14px 'Lucida Console',monospace" fill="#3397DA">Entity[]</text><path fill="#FFFFFF" stroke="#3397DA" stroke-width="3" d="M165.479 150.429h357.434v190H165.479z"/><path fill="#3397da" stroke="#3397da" d="M166.48 175.429h357.433"/><path fill="none" stroke="#3397DA" stroke-width="3" d="M165.479 150.429h357.434v190H165.479z"/><text x="175.479" y="168.429" style="font:700 16px 'Lucida Console',monospace" fill="#000000">Facility</text><text x="175.479" y="192.429" style="font:500 14px 'Lucida Console',monospace" fill="#666">id:</text><text x="204.765" y="192.429" style="font:500 14px 'Lucida Console',monospace" fill="#C9A30B">URI</text><text x="175.479" y="206.429" style="font:500 14px 'Lucida Console',monospace" fill="#666">name:</text><text x="221.623" y="206.429" style="font:500 14px 'Lucida Console',monospace" fill="#02b57b">Text</text><text x="175.479" y="220.429" style="font:500 14px 'Lucida Console',monospace" fill="#666">registeredId:</text><text x="289.052" y="220.429" style="font:500 14px 'Lucida Console',monospace" fill="#02b57b">Text</text><text x="175.479" y="234.429" style="font:500 14px 'Lucida Console',monospace" fill="#666">idScheme:</text><text x="255.338" y="234.429" style="font:500 14px 'Lucida Console',monospace" fill="#3397DA">IdentifierScheme</text><text x="175.479" y="248.429" style="font:500 14px 'Lucida Console',monospace" fill="#000000">description:</text><text x="280.624" y="248.429" style="font:500 14px 'Lucida Console',monospace" fill="#02b57b">Text</text><text x="175.479" y="262.429" style="font:500 14px 'Lucida Console',monospace" fill="#000000">countryOfOperation:</text><text x="339.625" y="262.429" style="font:500 14px 'Lucida Console',monospace" fill="#530abb">Code(countryCode)</text><text x="175.479" y="276.429" style="font:500 14px 'Lucida Console',monospace" fill="#000000">processCategories:</text><text x="331.196" y="276.429" style="font:500 14px 'Lucida Console',monospace" fill="#3397DA">Classification[]</text><text x="175.479" y="290.429" style="font:500 14px 'Lucida Console',monospace" fill="#000000">operatedByParty:</text><text x="314.339" y="290.429" style="font:500 14px 'Lucida Console',monospace" fill="#3397DA">Entity</text><text x="175.479" y="304.429" style="font:500 14px 'Lucida Console',monospace" fill="#000000">otherIdentifiers:</text><text x="322.767" y="304.429" style="font:500 14px 'Lucida Console',monospace" fill="#3397DA">Entity[]</text><text x="175.479" y="318.429" style="font:500 14px 'Lucida Console',monospace" fill="#000000">locationInformation:</text><text x="348.053" y="318.429" style="font:500 14px 'Lucida Console',monospace" fill="#2ECB70">Location</text><text x="175.479" y="332.429" style="font:500 14px 'Lucida Console',monospace" fill="#000000">address:</text><text x="246.909" y="332.429" style="font:500 14px 'Lucida Console',monospace" fill="#2ECB70">Address</text><path fill="#FFFFFF" stroke="#2ECB70" stroke-width="3" d="M316.267 4h261.575v64H316.267z"/><path fill="#2ecb70" stroke="#2ecb70" d="M317.267 29h261.575"/><path fill="none" stroke="#2ECB70" stroke-width="3" d="M316.267 4h261.575v64H316.267z"/><text x="326.267" y="22" style="font:700 16px 'Lucida Console',monospace" fill="#000000">Location</text><text x="326.267" y="46" style="font:500 14px 'Lucida Console',monospace" fill="#000000">geoLocation:</text><text x="431.411" y="46" style="font:500 14px 'Lucida Console',monospace" fill="#547000">geojson.Point</text><text x="326.267" y="60" style="font:500 14px 'Lucida Console',monospace" fill="#000000">geoBoundary:</text><text x="431.411" y="60" style="font:500 14px 'Lucida Console',monospace" fill="#547000">geojson.Polygon</text><path fill="#FFFFFF" stroke="#2ECB70" stroke-width="3" d="M-57.95-53h303.719V53H-57.95z"/><path fill="#2ecb70" stroke="#2ecb70" d="M-56.95-28h303.72"/><path fill="none" stroke="#2ECB70" stroke-width="3" d="M-57.95-53h303.719V53H-57.95z"/><text x="-47.95" y="-35" style="font:700 16px 'Lucida Console',monospace" fill="#000000">Address</text><text x="-47.95" y="-11" style="font:500 14px 'Lucida Console',monospace" fill="#000000">streetAddress:</text><text x="74.052" y="-11" style="font:500 14px 'Lucida Console',monospace" fill="#02b57b">Text</text><text x="-47.95" y="3" style="font:500 14px 'Lucida Console',monospace" fill="#000000">postalCode:</text><text x="48.766" y="3" style="font:500 14px 'Lucida Console',monospace" fill="#02b57b">Text</text><text x="-47.95" y="17" style="font:500 14px 'Lucida Console',monospace" fill="#000000">addressLocality:</text><text x="90.91" y="17" style="font:500 14px 'Lucida Console',monospace" fill="#02b57b">Text</text><text x="-47.95" y="31" style="font:500 14px 'Lucida Console',monospace" fill="#000000">addressRegion:</text><text x="74.052" y="31" style="font:500 14px 'Lucida Console',monospace" fill="#02b57b">Text</text><text x="-47.95" y="45" style="font:500 14px 'Lucida Console',monospace" fill="#000000">addressCountry:</text><text x="82.481" y="45" style="font:500 14px 'Lucida Console',monospace" fill="#530abb">Code(countryCode)</text><path fill="#FFFFFF" stroke="#2ECB70" stroke-width="3" d="M1007.329 1006.474h188v64h-188z"/><path fill="#2ecb70" stroke="#2ecb70" d="M1008.329 1031.474h188"/><path fill="none" stroke="#2ECB70" stroke-width="3" d="M1007.329 1006.474h188v64h-188z"/><text x="1017.329" y="1024.474" style="font:700 16px 'Lucida Console',monospace" fill="#000000">Coordinate</text><text x="1017.329" y="1048.474" style="font:500 14px 'Lucida Console',monospace" fill="#000000">latitude:</text><text x="1097.187" y="1048.474" style="font:500 14px 'Lucida Console',monospace" fill="#02b57b">Decimal</text><text x="1017.329" y="1062.474" style="font:500 14px 'Lucida Console',monospace" fill="#000000">longditude:</text><text x="1114.045" y="1062.474" style="font:500 14px 'Lucida Console',monospace" fill="#02b57b">Decimal</text><path fill="#FFFFFF" stroke="#3397DA" stroke-width="3" d="M1114.693 103.429h345.862v246h-345.862z"/><path fill="#3397da" stroke="#3397da" d="M1115.693 128.429h345.862"/><path fill="none" stroke="#3397DA" stroke-width="3" d="M1114.693 103.429h345.862v246h-345.862z"/><text x="1124.693" y="121.429" style="font:700 16px 'Lucida Console',monospace" fill="#000000">Product</text><text x="1124.693" y="145.429" style="font:500 14px 'Lucida Console',monospace" fill="#666">id:</text><text x="1153.979" y="145.429" style="font:500 14px 'Lucida Console',monospace" fill="#C9A30B">URI</text><text x="1124.693" y="159.429" style="font:500 14px 'Lucida Console',monospace" fill="#666">name:</text><text x="1170.837" y="159.429" style="font:500 14px 'Lucida Console',monospace" fill="#02b57b">Text</text><text x="1124.693" y="173.429" style="font:500 14px 'Lucida Console',monospace" fill="#666">registeredId:</text><text x="1238.266" y="173.429" style="font:500 14px 'Lucida Console',monospace" fill="#02b57b">Text</text><text x="1124.693" y="187.429" style="font:500 14px 'Lucida Console',monospace" fill="#666">idScheme:</text><text x="1204.552" y="187.429" style="font:500 14px 'Lucida Console',monospace" fill="#3397DA">IdentifierScheme</text><text x="1124.693" y="201.429" style="font:500 14px 'Lucida Console',monospace" fill="#000000">serialNumber:</text><text x="1238.266" y="201.429" style="font:500 14px 'Lucida Console',monospace" fill="#02b57b">Text</text><text x="1124.693" y="215.429" style="font:500 14px 'Lucida Console',monospace" fill="#000000">batchNumber:</text><text x="1229.838" y="215.429" style="font:500 14px 'Lucida Console',monospace" fill="#02b57b">Text</text><text x="1124.693" y="229.429" style="font:500 14px 'Lucida Console',monospace" fill="#000000">productImage:</text><text x="1238.266" y="229.429" style="font:500 14px 'Lucida Console',monospace" fill="#2ECB70">Link</text><text x="1124.693" y="243.429" style="font:500 14px 'Lucida Console',monospace" fill="#000000">description:</text><text x="1229.838" y="243.429" style="font:500 14px 'Lucida Console',monospace" fill="#02b57b">Text</text><text x="1124.693" y="257.429" style="font:500 14px 'Lucida Console',monospace" fill="#000000">productCategory:</text><text x="1263.553" y="257.429" style="font:500 14px 'Lucida Console',monospace" fill="#3397DA">Classification[]</text><text x="1124.693" y="271.429" style="font:500 14px 'Lucida Console',monospace" fill="#000000">furtherInformation:</text><text x="1288.839" y="271.429" style="font:500 14px 'Lucida Console',monospace" fill="#2ECB70">Link[]</text><text x="1124.693" y="285.429" style="font:500 14px 'Lucida Console',monospace" fill="#000000">producedByParty:</text><text x="1263.553" y="285.429" style="font:500 14px 'Lucida Console',monospace" fill="#3397DA">Entity</text><text x="1124.693" y="299.429" style="font:500 14px 'Lucida Console',monospace" fill="#000000">producedAtFacility:</text><text x="1288.839" y="299.429" style="font:500 14px 'Lucida Console',monospace" fill="#3397DA">Entity</text><text x="1124.693" y="313.429" style="font:500 14px 'Lucida Console',monospace" fill="#000000">dimensions:</text><text x="1221.409" y="313.429" style="font:500 14px 'Lucida Console',monospace" fill="#2ECB70">Dimension</text><text x="1124.693" y="327.429" style="font:500 14px 'Lucida Console',monospace" fill="#000000">productionDate:</text><text x="1255.124" y="327.429" style="font:500 14px 'Lucida Console',monospace" fill="#02b57b">Date</text><text x="1124.693" y="341.429" style="font:500 14px 'Lucida Console',monospace" fill="#000000">countryOfProduction:</text><text x="1297.267" y="341.429" style="font:500 14px 'Lucida Console',monospace" fill="#530abb">Code(countryCode)</text><path fill="#FFFFFF" stroke="#3397DA" stroke-width="3" d="M414.229 753.737h200v106h-200z"/><path fill="#3397da" stroke="#3397da" d="M415.23 778.737h200"/><path fill="none" stroke="#3397DA" stroke-width="3" d="M414.229 753.737h200v106h-200z"/><text x="424.229" y="771.737" style="font:700 16px 'Lucida Console',monospace" fill="#000000">Classification</text><text x="424.229" y="795.737" style="font:500 14px 'Lucida Console',monospace" fill="#000000">id:</text><text x="453.516" y="795.737" style="font:500 14px 'Lucida Console',monospace" fill="#C9A30B">URI</text><text x="424.229" y="809.737" style="font:500 14px 'Lucida Console',monospace" fill="#000000">code:</text><text x="470.373" y="809.737" style="font:500 14px 'Lucida Console',monospace" fill="#02b57b">Text</text><text x="424.229" y="823.737" style="font:500 14px 'Lucida Console',monospace" fill="#000000">name:</text><text x="470.373" y="823.737" style="font:500 14px 'Lucida Console',monospace" fill="#02b57b">Text</text><text x="424.229" y="837.737" style="font:500 14px 'Lucida Console',monospace" fill="#000000">schemeID:</text><text x="504.088" y="837.737" style="font:500 14px 'Lucida Console',monospace" fill="#02b57b">URI</text><text x="424.229" y="851.737" style="font:500 14px 'Lucida Console',monospace" fill="#000000">schemeName:</text><text x="520.945" y="851.737" style="font:500 14px 'Lucida Console',monospace" fill="#02b57b">Text</text><path fill="#FFFFFF" stroke="#2ECB70" stroke-width="3" d="M1127.479 551.857h198.146v78h-198.146z"/><path fill="#2ecb70" stroke="#2ecb70" d="M1128.48 576.857h198.145"/><path fill="none" stroke="#2ECB70" stroke-width="3" d="M1127.479 551.857h198.146v78h-198.146z"/><text x="1137.479" y="569.857" style="font:700 16px 'Lucida Console',monospace" fill="#000000">Metric</text><text x="1137.479" y="593.857" style="font:500 14px 'Lucida Console',monospace" fill="#000000">metricName:</text><text x="1234.195" y="593.857" style="font:500 14px 'Lucida Console',monospace" fill="#02b57b">Text</text><text x="1137.479" y="607.857" style="font:500 14px 'Lucida Console',monospace" fill="#000000">metricValue:</text><text x="1242.624" y="607.857" style="font:500 14px 'Lucida Console',monospace" fill="#2ECB70">Measure</text><text x="1137.479" y="621.857" style="font:500 14px 'Lucida Console',monospace" fill="#000000">accuracy:</text><text x="1217.338" y="621.857" style="font:500 14px 'Lucida Console',monospace" fill="#02b57b">Numeric</text><path fill="#FFFFFF" stroke="#2ECB70" stroke-width="3" d="M1292.426 800h200v106h-200z"/><path fill="#2ecb70" stroke="#2ecb70" d="M1293.426 825h200"/><path fill="none" stroke="#2ECB70" stroke-width="3" d="M1292.426 800h200v106h-200z"/><text x="1302.426" y="818" style="font:700 16px 'Lucida Console',monospace" fill="#000000">Dimension</text><text x="1302.426" y="842" style="font:500 14px 'Lucida Console',monospace" fill="#000000">weight:</text><text x="1365.427" y="842" style="font:500 14px 'Lucida Console',monospace" fill="#2ECB70">Measure</text><text x="1302.426" y="856" style="font:500 14px 'Lucida Console',monospace" fill="#000000">length:</text><text x="1365.427" y="856" style="font:500 14px 'Lucida Console',monospace" fill="#2ECB70">Measure</text><text x="1302.426" y="870" style="font:500 14px 'Lucida Console',monospace" fill="#000000">width:</text><text x="1356.999" y="870" style="font:500 14px 'Lucida Console',monospace" fill="#2ECB70">Measure</text><text x="1302.426" y="884" style="font:500 14px 'Lucida Console',monospace" fill="#000000">height:</text><text x="1365.427" y="884" style="font:500 14px 'Lucida Console',monospace" fill="#2ECB70">Measure</text><text x="1302.426" y="898" style="font:500 14px 'Lucida Console',monospace" fill="#000000">volume:</text><text x="1365.427" y="898" style="font:500 14px 'Lucida Console',monospace" fill="#2ECB70">Measure</text><path fill="#FFFFFF" stroke="#2ECB70" stroke-width="3" d="M1248.908 694.857h236.289v64h-236.289z"/><path fill="#2ecb70" stroke="#2ecb70" d="M1249.908 719.857h236.289"/><path fill="none" stroke="#2ECB70" stroke-width="3" d="M1248.908 694.857h236.289v64h-236.289z"/><text x="1258.908" y="712.857" style="font:700 16px 'Lucida Console',monospace" fill="#000000">Measure</text><text x="1258.908" y="736.857" style="font:500 14px 'Lucida Console',monospace" fill="#000000">value:</text><text x="1313.48" y="736.857" style="font:500 14px 'Lucida Console',monospace" fill="#02b57b">Numeric</text><text x="1258.908" y="750.857" style="font:500 14px 'Lucida Console',monospace" fill="#000000">unit:</text><text x="1305.051" y="750.857" style="font:500 14px 'Lucida Console',monospace" fill="#530abb">Code(unitOfMeasure)</text><path fill="#FFFFFF" stroke="#2ECB70" stroke-width="3" d="M740 982.331h231.86v78H740z"/><path fill="#2ecb70" stroke="#2ecb70" d="M741 1007.33h231.86"/><path fill="none" stroke="#2ECB70" stroke-width="3" d="M740 982.331h231.86v78H740z"/><text x="750" y="1000.331" style="font:700 16px 'Lucida Console',monospace" fill="#000000">BinaryFile</text><text x="750" y="1024.331" style="font:500 14px 'Lucida Console',monospace" fill="#000000">fileName:</text><text x="829.858" y="1024.331" style="font:500 14px 'Lucida Console',monospace" fill="#02b57b">Text</text><text x="750" y="1038.331" style="font:500 14px 'Lucida Console',monospace" fill="#000000">fileType:</text><text x="829.858" y="1038.331" style="font:500 14px 'Lucida Console',monospace" fill="#530abb">Code(mimeType)</text><text x="750" y="1052.331" style="font:500 14px 'Lucida Console',monospace" fill="#000000">file:</text><text x="796.144" y="1052.331" style="font:500 14px 'Lucida Console',monospace" fill="#02b57b">Base64</text><path fill="#FFFFFF" stroke="#2ECB70" stroke-width="3" d="M-58.385 825.143H338.05v120H-58.385z"/><path fill="#2ecb70" stroke="#2ecb70" d="M-57.385 850.143h396.434"/><path fill="none" stroke="#2ECB70" stroke-width="3" d="M-58.385 825.143H338.05v120H-58.385z"/><text x="-48.385" y="843.143" style="font:700 16px 'Lucida Console',monospace" fill="#000000">SecureLink</text><text x="-48.385" y="867.143" style="font:500 14px 'Lucida Console',monospace" fill="#666">linkURL:</text><text x="23.044" y="867.143" style="font:500 14px 'Lucida Console',monospace" fill="#02b57b">URI</text><text x="-48.385" y="881.143" style="font:500 14px 'Lucida Console',monospace" fill="#666">linkName:</text><text x="31.473" y="881.143" style="font:500 14px 'Lucida Console',monospace" fill="#02b57b">Text</text><text x="-48.385" y="895.143" style="font:500 14px 'Lucida Console',monospace" fill="#666">linkType:</text><text x="31.473" y="895.143" style="font:500 14px 'Lucida Console',monospace" fill="#02b57b">Text</text><text x="-48.385" y="909.143" style="font:500 14px 'Lucida Console',monospace" fill="#000000">hashDigest:</text><text x="48.33" y="909.143" style="font:500 14px 'Lucida Console',monospace" fill="#02b57b">Text</text><text x="-48.385" y="923.143" style="font:500 14px 'Lucida Console',monospace" fill="#000000">hashMethod:</text><text x="48.33" y="923.143" style="font:500 14px 'Lucida Console',monospace" fill="#530abb">Code(hashMethodCode)</text><text x="-48.385" y="937.143" style="font:500 14px 'Lucida Console',monospace" fill="#000000">encryptionMethod:</text><text x="98.903" y="937.143" style="font:500 14px 'Lucida Console',monospace" fill="#530abb">Code(encryptionMethodCode)</text><path fill="#FFFFFF" stroke="#3397DA" stroke-width="3" d="M655.48 394.429h379.577v134H655.48z"/><path fill="#3397da" stroke="#3397da" d="M656.48 419.429h379.577"/><path fill="none" stroke="#3397DA" stroke-width="3" d="M655.48 394.429h379.577v134H655.48z"/><text x="665.48" y="412.429" style="font:700 16px 'Lucida Console',monospace" fill="#000000">Declaration</text><text x="665.48" y="436.429" style="font:500 14px 'Lucida Console',monospace" fill="#000000">id:</text><text x="694.766" y="436.429" style="font:500 14px 'Lucida Console',monospace" fill="#C9A30B">URI</text><text x="665.48" y="450.429" style="font:500 14px 'Lucida Console',monospace" fill="#000000">referenceStandard:</text><text x="821.197" y="450.429" style="font:500 14px 'Lucida Console',monospace" fill="#3397DA">Standard</text><text x="665.48" y="464.429" style="font:500 14px 'Lucida Console',monospace" fill="#000000">referenceRegulation:</text><text x="838.054" y="464.429" style="font:500 14px 'Lucida Console',monospace" fill="#3397DA">Regulation</text><text x="665.48" y="478.429" style="font:500 14px 'Lucida Console',monospace" fill="#000000">assessmentCriteria:</text><text x="829.625" y="478.429" style="font:500 14px 'Lucida Console',monospace" fill="#3397DA">Criterion[]</text><text x="665.48" y="492.429" style="font:500 14px 'Lucida Console',monospace" fill="#000000">declaredValues:</text><text x="795.91" y="492.429" style="font:500 14px 'Lucida Console',monospace" fill="#2ECB70">Metric[]</text><text x="665.48" y="506.429" style="font:500 14px 'Lucida Console',monospace" fill="#000000">compliance:</text><text x="762.196" y="506.429" style="font:500 14px 'Lucida Console',monospace" fill="#02b57b">Indicator</text><text x="665.48" y="520.429" style="font:500 14px 'Lucida Console',monospace" fill="#000000">conformityTopic:</text><text x="804.339" y="520.429" style="font:500 14px 'Lucida Console',monospace" fill="#530abb">Code(conformityTopicCode)</text><path fill="#FFFFFF" stroke="#3397DA" stroke-width="3" d="M858.242 613.127h198.146v92H858.242z"/><path fill="#3397da" stroke="#3397da" d="M859.242 638.127h198.145"/><path fill="none" stroke="#3397DA" stroke-width="3" d="M858.242 613.127h198.146v92H858.242z"/><text x="868.242" y="631.127" style="font:700 16px 'Lucida Console',monospace" fill="#000000">Standard</text><text x="868.242" y="655.127" style="font:500 14px 'Lucida Console',monospace" fill="#000000">id:</text><text x="897.528" y="655.127" style="font:500 14px 'Lucida Console',monospace" fill="#C9A30B">URI</text><text x="868.242" y="669.127" style="font:500 14px 'Lucida Console',monospace" fill="#000000">name:</text><text x="914.385" y="669.127" style="font:500 14px 'Lucida Console',monospace" fill="#02b57b">Text</text><text x="868.242" y="683.127" style="font:500 14px 'Lucida Console',monospace" fill="#000000">issuingParty:</text><text x="981.815" y="683.127" style="font:500 14px 'Lucida Console',monospace" fill="#3397DA">Entity</text><text x="868.242" y="697.127" style="font:500 14px 'Lucida Console',monospace" fill="#000000">issueDate:</text><text x="956.529" y="697.127" style="font:500 14px 'Lucida Console',monospace" fill="#02b57b">Date</text><path fill="#FFFFFF" stroke="#3397DA" stroke-width="3" d="M409.832 613.905h353.862v106H409.832z"/><path fill="#3397da" stroke="#3397da" d="M410.832 638.905h353.862"/><path fill="none" stroke="#3397DA" stroke-width="3" d="M409.832 613.905h353.862v106H409.832z"/><text x="419.832" y="631.905" style="font:700 16px 'Lucida Console',monospace" fill="#000000">Regulation</text><text x="419.832" y="655.905" style="font:500 14px 'Lucida Console',monospace" fill="#000000">id:</text><text x="449.118" y="655.905" style="font:500 14px 'Lucida Console',monospace" fill="#C9A30B">URI</text><text x="419.832" y="669.905" style="font:500 14px 'Lucida Console',monospace" fill="#000000">name:</text><text x="465.976" y="669.905" style="font:500 14px 'Lucida Console',monospace" fill="#02b57b">Text</text><text x="419.832" y="683.905" style="font:500 14px 'Lucida Console',monospace" fill="#000000">jurisdictionCountry:</text><text x="592.406" y="683.905" style="font:500 14px 'Lucida Console',monospace" fill="#530abb">Code(countryCode)</text><text x="419.832" y="697.905" style="font:500 14px 'Lucida Console',monospace" fill="#000000">administeredBy:</text><text x="550.263" y="697.905" style="font:500 14px 'Lucida Console',monospace" fill="#3397DA">Entity</text><text x="419.832" y="711.905" style="font:500 14px 'Lucida Console',monospace" fill="#000000">effectiveDate:</text><text x="541.834" y="711.905" style="font:500 14px 'Lucida Console',monospace" fill="#02b57b">Date</text><path fill="#FFFFFF" stroke="#3397DA" stroke-width="3" d="M1328.192 424.714h236.289v78h-236.289z"/><path fill="#3397da" stroke="#3397da" d="M1329.192 449.714h236.289"/><path fill="none" stroke="#3397DA" stroke-width="3" d="M1328.192 424.714h236.289v78h-236.289z"/><text x="1338.192" y="442.714" style="font:700 16px 'Lucida Console',monospace" fill="#000000">Criterion</text><text x="1338.192" y="466.714" style="font:500 14px 'Lucida Console',monospace" fill="#000000">id:</text><text x="1367.478" y="466.714" style="font:500 14px 'Lucida Console',monospace" fill="#C9A30B">URI</text><text x="1338.192" y="480.714" style="font:500 14px 'Lucida Console',monospace" fill="#000000">name:</text><text x="1384.335" y="480.714" style="font:500 14px 'Lucida Console',monospace" fill="#02b57b">Text</text><text x="1338.192" y="494.714" style="font:500 14px 'Lucida Console',monospace" fill="#000000">thresholdValues:</text><text x="1477.051" y="494.714" style="font:500 14px 'Lucida Console',monospace" fill="#2ECB70">Metric[]</text><path fill="#FFFFFF" stroke="#2ECB70" stroke-width="3" d="M1240.998 948.571h315.29v134h-315.29z"/><path fill="#2ecb70" stroke="#2ecb70" d="M1241.998 973.571h315.29"/><path fill="none" stroke="#2ECB70" stroke-width="3" d="M1240.998 948.571h315.29v134h-315.29z"/><text x="1250.998" y="966.571" style="font:700 16px 'Lucida Console',monospace" fill="#000000">Material</text><text x="1250.998" y="990.571" style="font:500 14px 'Lucida Console',monospace" fill="#000000">name:</text><text x="1297.141" y="990.571" style="font:500 14px 'Lucida Console',monospace" fill="#02b57b">Text</text><text x="1250.998" y="1004.571" style="font:500 14px 'Lucida Console',monospace" fill="#000000">originCountry:</text><text x="1373" y="1004.571" style="font:500 14px 'Lucida Console',monospace" fill="#530abb">Code(countryCode)</text><text x="1250.998" y="1018.571" style="font:500 14px 'Lucida Console',monospace" fill="#000000">materialType:</text><text x="1364.571" y="1018.571" style="font:500 14px 'Lucida Console',monospace" fill="#3397DA">Classification</text><text x="1250.998" y="1032.571" style="font:500 14px 'Lucida Console',monospace" fill="#000000">massFraction:</text><text x="1364.571" y="1032.571" style="font:500 14px 'Lucida Console',monospace" fill="#02b57b">Numeric</text><text x="1250.998" y="1046.571" style="font:500 14px 'Lucida Console',monospace" fill="#000000">recycledAmount:</text><text x="1381.429" y="1046.571" style="font:500 14px 'Lucida Console',monospace" fill="#02b57b">Numeric</text><text x="1250.998" y="1060.571" style="font:500 14px 'Lucida Console',monospace" fill="#000000">hazardous:</text><text x="1339.285" y="1060.571" style="font:500 14px 'Lucida Console',monospace" fill="#02b57b">Indicator</text><text x="1250.998" y="1074.571" style="font:500 14px 'Lucida Console',monospace" fill="#000000">materialSafetyInformation:</text><text x="1474.144" y="1074.571" style="font:500 14px 'Lucida Console',monospace" fill="#2ECB70">Link</text><path fill="#FFFFFF" stroke="#2ECB70" stroke-width="3" d="M378.141 950h337.434v120H378.141z"/><path fill="#2ecb70" stroke="#2ecb70" d="M379.14 975h337.434"/><path fill="none" stroke="#2ECB70" stroke-width="3" d="M378.141 950h337.434v120H378.141z"/><text x="388.141" y="968" style="font:700 16px 'Lucida Console',monospace" fill="#000000">CircularityPerformance</text><text x="388.141" y="992" style="font:500 14px 'Lucida Console',monospace" fill="#000000">recyclingInformation:</text><text x="569.144" y="992" style="font:500 14px 'Lucida Console',monospace" fill="#2ECB70">Link</text><text x="388.141" y="1006" style="font:500 14px 'Lucida Console',monospace" fill="#000000">repairInformation:</text><text x="543.857" y="1006" style="font:500 14px 'Lucida Console',monospace" fill="#2ECB70">Link</text><text x="388.141" y="1020" style="font:500 14px 'Lucida Console',monospace" fill="#000000">recyclableContent:</text><text x="543.857" y="1020" style="font:500 14px 'Lucida Console',monospace" fill="#02b57b">Decimal</text><text x="388.141" y="1034" style="font:500 14px 'Lucida Console',monospace" fill="#000000">recyecledContent:</text><text x="535.429" y="1034" style="font:500 14px 'Lucida Console',monospace" fill="#02b57b">Decimal</text><text x="388.141" y="1048" style="font:500 14px 'Lucida Console',monospace" fill="#000000">utilityFactor:</text><text x="510.143" y="1048" style="font:500 14px 'Lucida Console',monospace" fill="#02b57b">Decimal</text><text x="388.141" y="1062" style="font:500 14px 'Lucida Console',monospace" fill="#000000">materialCircularityIndicator:</text><text x="636.573" y="1062" style="font:500 14px 'Lucida Console',monospace" fill="#02b57b">Decimal</text><path fill="#FFFFFF" stroke="#2ECB70" stroke-width="3" d="M778.141 750h404.435v106H778.141z"/><path fill="#2ecb70" stroke="#2ecb70" d="M779.14 775h404.435"/><path fill="none" stroke="#2ECB70" stroke-width="3" d="M778.141 750h404.435v106H778.141z"/><text x="788.141" y="768" style="font:700 16px 'Lucida Console',monospace" fill="#000000">EmissionsPerformance</text><text x="788.141" y="792" style="font:500 14px 'Lucida Console',monospace" fill="#000000">carbonFootprint:</text><text x="927" y="792" style="font:500 14px 'Lucida Console',monospace" fill="#02b57b">Decimal</text><text x="788.141" y="806" style="font:500 14px 'Lucida Console',monospace" fill="#000000">declaredUnit:</text><text x="901.714" y="806" style="font:500 14px 'Lucida Console',monospace" fill="#530abb">Code(unitOfMeasure)</text><text x="788.141" y="820" style="font:500 14px 'Lucida Console',monospace" fill="#000000">operationalScope:</text><text x="935.429" y="820" style="font:500 14px 'Lucida Console',monospace" fill="#530abb">Code(operationalScopeCode)</text><text x="788.141" y="834" style="font:500 14px 'Lucida Console',monospace" fill="#000000">primarySourcedRatio:</text><text x="960.715" y="834" style="font:500 14px 'Lucida Console',monospace" fill="#02b57b">Decimal</text><text x="788.141" y="848" style="font:500 14px 'Lucida Console',monospace" fill="#000000">reportingStandard:</text><text x="943.857" y="848" style="font:500 14px 'Lucida Console',monospace" fill="#3397DA">Standard</text><path fill="#FFFFFF" stroke="#2ECB70" stroke-width="3" d="M759.569 900h180v36h-180z"/><path fill="#2ecb70" stroke="#2ecb70" d="M760.57 925h180"/><path fill="none" stroke="#2ECB70" stroke-width="3" d="M759.569 900h180v36h-180z"/><text x="769.569" y="918" style="font:700 16px 'Lucida Console',monospace" fill="#000000">Characteristic</text><path fill="#FFFFFF" stroke="#3397DA" stroke-width="3" d="M121.194 369h403.577v176H121.194z"/><path fill="#3397da" stroke="#3397da" d="M122.194 394H525.77"/><path fill="none" stroke="#3397DA" stroke-width="3" d="M121.194 369h403.577v176H121.194z"/><text x="131.194" y="387" style="font:700 16px 'Lucida Console',monospace" fill="#000000">Attestation</text><text x="131.194" y="411" style="font:500 14px 'Lucida Console',monospace" fill="#000000">id:</text><text x="160.48" y="411" style="font:500 14px 'Lucida Console',monospace" fill="#C9A30B">URI</text><text x="131.194" y="425" style="font:500 14px 'Lucida Console',monospace" fill="#000000">name:</text><text x="177.337" y="425" style="font:500 14px 'Lucida Console',monospace" fill="#02b57b">Text</text><text x="131.194" y="439" style="font:500 14px 'Lucida Console',monospace" fill="#000000">assessorLevel:</text><text x="253.196" y="439" style="font:500 14px 'Lucida Console',monospace" fill="#530abb">Code(assessorLevelCode)</text><text x="131.194" y="453" style="font:500 14px 'Lucida Console',monospace" fill="#000000">assessmentLevel:</text><text x="270.053" y="453" style="font:500 14px 'Lucida Console',monospace" fill="#530abb">Code(assessmentLevelCode)</text><text x="131.194" y="467" style="font:500 14px 'Lucida Console',monospace" fill="#000000">attestationType:</text><text x="270.053" y="467" style="font:500 14px 'Lucida Console',monospace" fill="#530abb">Code(attestationTypeCode)</text><text x="131.194" y="481" style="font:500 14px 'Lucida Console',monospace" fill="#000000">attestationDescription:</text><text x="329.054" y="481" style="font:500 14px 'Lucida Console',monospace" fill="#02b57b">Text</text><text x="131.194" y="495" style="font:500 14px 'Lucida Console',monospace" fill="#000000">issuedToParty:</text><text x="253.196" y="495" style="font:500 14px 'Lucida Console',monospace" fill="#3397DA">Entity</text><text x="131.194" y="509" style="font:500 14px 'Lucida Console',monospace" fill="#000000">authorisations:</text><text x="261.624" y="509" style="font:500 14px 'Lucida Console',monospace" fill="#3397DA">Endorsement[]</text><text x="131.194" y="523" style="font:500 14px 'Lucida Console',monospace" fill="#000000">conformityCertificate:</text><text x="320.625" y="523" style="font:500 14px 'Lucida Console',monospace" fill="#2ECB70">SecureLink</text><text x="131.194" y="537" style="font:500 14px 'Lucida Console',monospace" fill="#000000">auditableEvidence:</text><text x="286.911" y="537" style="font:500 14px 'Lucida Console',monospace" fill="#2ECB70">SecureLink</text><path fill="#FFFFFF" stroke="#3397DA" stroke-width="3" d="M-139.216 574.173h278.433v106h-278.433z"/><path fill="#3397da" stroke="#3397da" d="M-138.216 599.173h278.432"/><path fill="none" stroke="#3397DA" stroke-width="3" d="M-139.216 574.173h278.433v106h-278.433z"/><text x="-129.216" y="592.173" style="font:700 16px 'Lucida Console',monospace" fill="#000000">Endorsement</text><text x="-129.216" y="616.173" style="font:500 14px 'Lucida Console',monospace" fill="#000000">id:</text><text x="-99.93" y="616.173" style="font:500 14px 'Lucida Console',monospace" fill="#C9A30B">URI</text><text x="-129.216" y="630.173" style="font:500 14px 'Lucida Console',monospace" fill="#000000">name:</text><text x="-83.073" y="630.173" style="font:500 14px 'Lucida Console',monospace" fill="#02b57b">Text</text><text x="-129.216" y="644.173" style="font:500 14px 'Lucida Console',monospace" fill="#000000">trustmark:</text><text x="-40.929" y="644.173" style="font:500 14px 'Lucida Console',monospace" fill="#2ECB70">BinaryFile</text><text x="-129.216" y="658.173" style="font:500 14px 'Lucida Console',monospace" fill="#000000">issuingAuthority:</text><text x="18.072" y="658.173" style="font:500 14px 'Lucida Console',monospace" fill="#3397DA">Entity</text><text x="-129.216" y="672.173" style="font:500 14px 'Lucida Console',monospace" fill="#000000">accreditationCertificate:</text><text x="85.501" y="672.173" style="font:500 14px 'Lucida Console',monospace" fill="#2ECB70">Link</text></svg>