<svg xmlns="http://www.w3.org/2000/svg" viewBox="-198.931 -73 1856.074 1173.331"><rect width="1000%" height="1000%" x="-500%" y="-500%" fill="#EEEEEE"/><path fill="none" stroke="#EEEEEE" stroke-width="8" d="M854.337 46.296l-.01-.01v166.571h-2.04"/><defs><linearGradient id="a" x1="0%" x2="50%" y1="0%" y2="50%"><stop offset="0%" stop-color="#3397DA"/><stop offset="100%" stop-color="#3397DA"/></linearGradient></defs><path fill="none" stroke="url(#a)" stroke-width="3" d="M854.337 46.296l-.01-.01v166.571h-2.04"/><path fill="none" stroke="#EEEEEE" stroke-width="8" d="M320.275 166.153l-.01-.01h179.451V36"/><defs><linearGradient id="b" x1="0%" x2="50%" y1="0%" y2="50%"><stop offset="0%" stop-color="#3397DA"/><stop offset="100%" stop-color="#2ECB70"/></linearGradient></defs><path fill="none" stroke="url(#b)" stroke-width="3" d="M320.275 166.153l-.01-.01h179.451V36"/><path fill="none" stroke="#EEEEEE" stroke-width="8" d="M269.213 139.01l-.01-.01V0H146.572"/><defs><linearGradient id="c" x1="100%" x2="50%" y1="100%" y2="50%"><stop offset="0%" stop-color="#3397DA"/><stop offset="100%" stop-color="#2ECB70"/></linearGradient></defs><path fill="none" stroke="url(#c)" stroke-width="3" d="M269.213 139.01l-.01-.01V0H146.572"/><path fill="none" stroke="#EEEEEE" stroke-width="8" d="M871.646 409.353l-.01-.01v234.45h99.697"/><defs><linearGradient id="d" x1="0%" x2="50%" y1="0%" y2="50%"><stop offset="0%" stop-color="#3397DA"/><stop offset="100%" stop-color="#3397DA"/></linearGradient></defs><path fill="none" stroke="url(#d)" stroke-width="3" d="M871.646 409.353l-.01-.01v234.45h99.697"/><path fill="none" stroke="#EEEEEE" stroke-width="8" d="M795.73 379.753l-.01-.01V653H676.931"/><defs><linearGradient id="e" x1="0%" x2="50%" y1="0%" y2="50%"><stop offset="0%" stop-color="#3397DA"/><stop offset="100%" stop-color="#3397DA"/></linearGradient></defs><path fill="none" stroke="url(#e)" stroke-width="3" d="M795.73 379.753l-.01-.01V653H676.931"/><path fill="none" stroke="#EEEEEE" stroke-width="8" d="M1023.477 409.353l-.01-.01h475.532v54.371"/><defs><linearGradient id="f" x1="0%" x2="50%" y1="0%" y2="50%"><stop offset="0%" stop-color="#3397DA"/><stop offset="100%" stop-color="#3397DA"/></linearGradient></defs><path fill="none" stroke="url(#f)" stroke-width="3" d="M1023.477 409.353l-.01-.01h475.532v54.371"/><path fill="none" stroke="url(#f)" stroke-width="1.5" d="M1519.009 404.224l-2.01-.01v8h2M1523.009 404.224l1.99-.01v8h-2"/><path fill="none" stroke="#EEEEEE" stroke-width="8" d="M947.561 438.953l-.01-.01h297.972v136.58"/><defs><linearGradient id="g" x1="0%" x2="50%" y1="0%" y2="50%"><stop offset="0%" stop-color="#3397DA"/><stop offset="100%" stop-color="#2ECB70"/></linearGradient></defs><path fill="none" stroke="url(#g)" stroke-width="3" d="M947.561 438.953l-.01-.01h297.972v136.58"/><path fill="none" stroke="url(#g)" stroke-width="1.5" d="M1265.533 524.367l-2.01-.01v8h2M1269.533 524.367l1.99-.01v8h-2"/><path fill="none" stroke="#EEEEEE" stroke-width="8" d="M1499.009 463.724l-.01-.01h-186.094V606.19"/><defs><linearGradient id="h" x1="0%" x2="50%" y1="0%" y2="50%"><stop offset="0%" stop-color="#3397DA"/><stop offset="100%" stop-color="#2ECB70"/></linearGradient></defs><path fill="none" stroke="url(#h)" stroke-width="3" d="M1499.009 463.724l-.01-.01h-186.094V606.19"/><path fill="none" stroke="url(#h)" stroke-width="1.5" d="M1332.915 524.367l-2.01-.01v8h2M1336.915 524.367l1.99-.01v8h-2"/><path fill="none" stroke="#EEEEEE" stroke-width="8" d="M1051.602 817.296l-.01-.01V674.46h-2.972"/><defs><linearGradient id="i" x1="100%" x2="50%" y1="100%" y2="50%"><stop offset="0%" stop-color="#2ECB70"/><stop offset="100%" stop-color="#3397DA"/></linearGradient></defs><path fill="none" stroke="url(#i)" stroke-width="3" d="M1051.602 817.296l-.01-.01V674.46h-2.972"/><path fill="none" stroke="#EEEEEE" stroke-width="8" d="M218.867 404.21l-.01-.01H0V243.143"/><defs><linearGradient id="j" x1="100%" x2="50%" y1="100%" y2="50%"><stop offset="0%" stop-color="#3397DA"/><stop offset="100%" stop-color="#3397DA"/></linearGradient></defs><path fill="none" stroke="url(#j)" stroke-width="3" d="M218.867 404.21l-.01-.01H0V243.143"/><path fill="none" stroke="#EEEEEE" stroke-width="8" d="M299.583 439.41l-.01-.01H52.663v187.773"/><defs><linearGradient id="k" x1="0%" x2="50%" y1="0%" y2="50%"><stop offset="0%" stop-color="#3397DA"/><stop offset="100%" stop-color="#3397DA"/></linearGradient></defs><path fill="none" stroke="url(#k)" stroke-width="3" d="M299.583 439.41l-.01-.01H52.663v187.773"/><path fill="none" stroke="url(#k)" stroke-width="1.5" d="M72.672 553.683l-2.01-.01v8h2M76.672 553.683l1.99-.01v8h-2"/><path fill="none" stroke="#EEEEEE" stroke-width="8" d="M380.298 474.61l-.01-.01v391.971H87.85"/><defs><linearGradient id="l" x1="0%" x2="50%" y1="0%" y2="50%"><stop offset="0%" stop-color="#3397DA"/><stop offset="100%" stop-color="#2ECB70"/></linearGradient></defs><path fill="none" stroke="url(#l)" stroke-width="3" d="M380.298 474.61l-.01-.01v391.971H87.85"/><path fill="none" stroke="#EEEEEE" stroke-width="8" d="M461.013 439.41l-.01-.01v467.171H219.995"/><defs><linearGradient id="m" x1="0%" x2="50%" y1="0%" y2="50%"><stop offset="0%" stop-color="#3397DA"/><stop offset="100%" stop-color="#2ECB70"/></linearGradient></defs><path fill="none" stroke="url(#m)" stroke-width="3" d="M461.013 439.41l-.01-.01v467.171H219.995"/><path fill="none" stroke="#EEEEEE" stroke-width="8" d="M127.956 826.063l-.01-.01v76.518h25.977"/><defs><linearGradient id="n" x1="0%" x2="50%" y1="0%" y2="50%"><stop offset="0%" stop-color="#2ECB70"/><stop offset="100%" stop-color="#2ECB70"/></linearGradient></defs><path fill="none" stroke="url(#n)" stroke-width="3" d="M127.956 826.063l-.01-.01v76.518h25.977"/><path fill="#FFFFFF" stroke="#3397DA" stroke-width="3" d="M732.999-6.714h242.656v106H732.999z"/><path fill="#3397da" stroke="#3397da" d="M733.999 18.286h242.656"/><path fill="none" stroke="#3397DA" stroke-width="3" d="M732.999-6.714h242.656v106H732.999z"/><text x="742.999" y="11.286" style="font:700 16px 'Lucida Console',monospace" fill="#000000">VerifiableCredential</text><text x="742.999" y="35.286" style="font:500 14px 'Lucida Console',monospace" fill="#000000">@context:</text><text x="822.857" y="35.286" style="font:500 14px 'Lucida Console',monospace" fill="#02b57b">Text[]</text><text x="742.999" y="49.286" style="font:500 14px 'Lucida Console',monospace" fill="#000000">id:</text><text x="772.285" y="49.286" style="font:500 14px 'Lucida Console',monospace" fill="#C9A30B">URI</text><text x="742.999" y="63.286" style="font:500 14px 'Lucida Console',monospace" fill="#000000">issuer:</text><text x="806" y="63.286" style="font:500 14px 'Lucida Console',monospace" fill="#3397DA">CredentialIssuer</text><text x="742.999" y="77.286" style="font:500 14px 'Lucida Console',monospace" fill="#000000">validFrom:</text><text x="831.286" y="77.286" style="font:500 14px 'Lucida Console',monospace" fill="#02b57b">DateTime</text><text x="742.999" y="91.286" style="font:500 14px 'Lucida Console',monospace" fill="#000000">validUntil:</text><text x="839.714" y="91.286" style="font:500 14px 'Lucida Console',monospace" fill="#02b57b">DateTime</text><path fill="#FFFFFF" stroke="#3397DA" stroke-width="3" d="M717.284 173.857h270.004v78H717.284z"/><path fill="#3397da" stroke="#3397da" d="M718.284 198.857h270.004"/><path fill="none" stroke="#3397DA" stroke-width="3" d="M717.284 173.857h270.004v78H717.284z"/><text x="727.284" y="191.857" style="font:700 16px 'Lucida Console',monospace" fill="#000000">CredentialIssuer</text><text x="727.284" y="215.857" style="font:500 14px 'Lucida Console',monospace" fill="#000000">id:</text><text x="756.57" y="215.857" style="font:500 14px 'Lucida Console',monospace" fill="#C9A30B">URI</text><text x="727.284" y="229.857" style="font:500 14px 'Lucida Console',monospace" fill="#000000">name:</text><text x="773.428" y="229.857" style="font:500 14px 'Lucida Console',monospace" fill="#02b57b">Text</text><text x="727.284" y="243.857" style="font:500 14px 'Lucida Console',monospace" fill="#000000">otherIdentifier:</text><text x="866.144" y="243.857" style="font:500 14px 'Lucida Console',monospace" fill="#3397DA">Identifier[]</text><path fill="#FFFFFF" stroke="#3397DA" stroke-width="3" d="M1030.803 900h192.125v64h-192.125z"/><path fill="#3397da" stroke="#3397da" d="M1031.803 925h192.125"/><path fill="none" stroke="#3397DA" stroke-width="3" d="M1030.803 900h192.125v64h-192.125z"/><text x="1040.803" y="918" style="font:700 16px 'Lucida Console',monospace" fill="#000000">IdentifierScheme</text><text x="1040.803" y="942" style="font:500 14px 'Lucida Console',monospace" fill="#000000">id:</text><text x="1070.089" y="942" style="font:500 14px 'Lucida Console',monospace" fill="#C9A30B">URI</text><text x="1040.803" y="956" style="font:500 14px 'Lucida Console',monospace" fill="#000000">name:</text><text x="1086.946" y="956" style="font:500 14px 'Lucida Console',monospace" fill="#02b57b">Text</text><path fill="#FFFFFF" stroke="#2ECB70" stroke-width="3" d="M31.946 718.053h192v78h-192z"/><path fill="#2ecb70" stroke="#2ecb70" d="M32.946 743.053h192"/><path fill="none" stroke="#2ECB70" stroke-width="3" d="M31.946 718.053h192v78h-192z"/><text x="41.946" y="736.053" style="font:700 16px 'Lucida Console',monospace" fill="#000000">Link</text><text x="41.946" y="760.053" style="font:500 14px 'Lucida Console',monospace" fill="#000000">linkURL:</text><text x="113.375" y="760.053" style="font:500 14px 'Lucida Console',monospace" fill="#02b57b">URI</text><text x="41.946" y="774.053" style="font:500 14px 'Lucida Console',monospace" fill="#000000">linkName:</text><text x="121.804" y="774.053" style="font:500 14px 'Lucida Console',monospace" fill="#02b57b">Text</text><text x="41.946" y="788.053" style="font:500 14px 'Lucida Console',monospace" fill="#000000">linkType:</text><text x="121.804" y="788.053" style="font:500 14px 'Lucida Console',monospace" fill="#02b57b">Text</text><path fill="#2ecb70" stroke="#EEEEEE" stroke-width="3" d="M127.946 790.053l-12 22 12-2h0l12 2-12-22"/><path fill="#2ecb70" stroke="#EEEEEE" stroke-width="3" d="M127.946 790.053l-12 22 12-2h0l12 2-12-22"/><path fill="#2ecb70" stroke="#2ecb70" stroke-width="3" d="M127.946 802.053v25.5"/><path fill="#FFFFFF" stroke="#3397DA" stroke-width="3" d="M-178.931 162.143h357.862v162h-357.862z"/><path fill="#3397da" stroke="#3397da" d="M-177.931 187.143H179.93"/><path fill="none" stroke="#3397DA" stroke-width="3" d="M-178.931 162.143h357.862v162h-357.862z"/><text x="-168.931" y="180.143" style="font:700 16px 'Lucida Console',monospace" fill="#000000">Party</text><text x="-168.931" y="204.143" style="font:500 14px 'Lucida Console',monospace" fill="#000000">id:</text><text x="-139.645" y="204.143" style="font:500 14px 'Lucida Console',monospace" fill="#C9A30B">URI</text><text x="-168.931" y="218.143" style="font:500 14px 'Lucida Console',monospace" fill="#000000">name:</text><text x="-122.788" y="218.143" style="font:500 14px 'Lucida Console',monospace" fill="#02b57b">Text</text><text x="-168.931" y="232.143" style="font:500 14px 'Lucida Console',monospace" fill="#000000">registeredId:</text><text x="-55.358" y="232.143" style="font:500 14px 'Lucida Console',monospace" fill="#02b57b">Text</text><text x="-168.931" y="246.143" style="font:500 14px 'Lucida Console',monospace" fill="#000000">idScheme:</text><text x="-89.073" y="246.143" style="font:500 14px 'Lucida Console',monospace" fill="#3397DA">IdentifierScheme</text><text x="-168.931" y="260.143" style="font:500 14px 'Lucida Console',monospace" fill="#000000">description:</text><text x="-63.787" y="260.143" style="font:500 14px 'Lucida Console',monospace" fill="#02b57b">Text</text><text x="-168.931" y="274.143" style="font:500 14px 'Lucida Console',monospace" fill="#000000">registrationCountry:</text><text x="3.643" y="274.143" style="font:500 14px 'Lucida Console',monospace" fill="#530abb">Code(countryCode)</text><text x="-168.931" y="288.143" style="font:500 14px 'Lucida Console',monospace" fill="#000000">organisationWebsite:</text><text x="3.643" y="288.143" style="font:500 14px 'Lucida Console',monospace" fill="#02b57b">URI</text><text x="-168.931" y="302.143" style="font:500 14px 'Lucida Console',monospace" fill="#000000">industryCategory:</text><text x="-21.643" y="302.143" style="font:500 14px 'Lucida Console',monospace" fill="#3397DA">Classification[]</text><text x="-168.931" y="316.143" style="font:500 14px 'Lucida Console',monospace" fill="#000000">otherIdentifier:</text><text x="-30.072" y="316.143" style="font:500 14px 'Lucida Console',monospace" fill="#3397DA">Identifier[]</text><path fill="#FFFFFF" stroke="#3397DA" stroke-width="3" d="M218.141 111.857h357.434v190H218.141z"/><path fill="#3397da" stroke="#3397da" d="M219.141 136.857h357.434"/><path fill="none" stroke="#3397DA" stroke-width="3" d="M218.141 111.857h357.434v190H218.141z"/><text x="228.141" y="129.857" style="font:700 16px 'Lucida Console',monospace" fill="#000000">Facility</text><text x="228.141" y="153.857" style="font:500 14px 'Lucida Console',monospace" fill="#000000">id:</text><text x="257.428" y="153.857" style="font:500 14px 'Lucida Console',monospace" fill="#C9A30B">URI</text><text x="228.141" y="167.857" style="font:500 14px 'Lucida Console',monospace" fill="#000000">name:</text><text x="274.285" y="167.857" style="font:500 14px 'Lucida Console',monospace" fill="#02b57b">Text</text><text x="228.141" y="181.857" style="font:500 14px 'Lucida Console',monospace" fill="#000000">registeredId:</text><text x="341.715" y="181.857" style="font:500 14px 'Lucida Console',monospace" fill="#02b57b">Text</text><text x="228.141" y="195.857" style="font:500 14px 'Lucida Console',monospace" fill="#000000">idScheme:</text><text x="308" y="195.857" style="font:500 14px 'Lucida Console',monospace" fill="#3397DA">IdentifierScheme</text><text x="228.141" y="209.857" style="font:500 14px 'Lucida Console',monospace" fill="#000000">description:</text><text x="333.286" y="209.857" style="font:500 14px 'Lucida Console',monospace" fill="#02b57b">Text</text><text x="228.141" y="223.857" style="font:500 14px 'Lucida Console',monospace" fill="#000000">countryOfOperation:</text><text x="392.287" y="223.857" style="font:500 14px 'Lucida Console',monospace" fill="#530abb">Code(countryCode)</text><text x="228.141" y="237.857" style="font:500 14px 'Lucida Console',monospace" fill="#000000">processCategory:</text><text x="367.001" y="237.857" style="font:500 14px 'Lucida Console',monospace" fill="#3397DA">Classification[]</text><text x="228.141" y="251.857" style="font:500 14px 'Lucida Console',monospace" fill="#000000">operatedByParty:</text><text x="367.001" y="251.857" style="font:500 14px 'Lucida Console',monospace" fill="#3397DA">Identifier</text><text x="228.141" y="265.857" style="font:500 14px 'Lucida Console',monospace" fill="#000000">otherIdentifier:</text><text x="367.001" y="265.857" style="font:500 14px 'Lucida Console',monospace" fill="#3397DA">Identifier[]</text><text x="228.141" y="279.857" style="font:500 14px 'Lucida Console',monospace" fill="#000000">locationInformation:</text><text x="400.716" y="279.857" style="font:500 14px 'Lucida Console',monospace" fill="#2ECB70">Location</text><text x="228.141" y="293.857" style="font:500 14px 'Lucida Console',monospace" fill="#000000">address:</text><text x="299.571" y="293.857" style="font:500 14px 'Lucida Console',monospace" fill="#2ECB70">Address</text><path fill="#FFFFFF" stroke="#2ECB70" stroke-width="3" d="M368.929-3h261.575v78H368.929z"/><path fill="#2ecb70" stroke="#2ecb70" d="M369.929 22h261.575"/><path fill="none" stroke="#2ECB70" stroke-width="3" d="M368.929-3h261.575v78H368.929z"/><text x="378.929" y="15" style="font:700 16px 'Lucida Console',monospace" fill="#000000">Location</text><text x="378.929" y="39" style="font:500 14px 'Lucida Console',monospace" fill="#000000">plusCode:</text><text x="458.787" y="39" style="font:500 14px 'Lucida Console',monospace" fill="#02b57b">URI</text><text x="378.929" y="53" style="font:500 14px 'Lucida Console',monospace" fill="#000000">geoLocation:</text><text x="484.073" y="53" style="font:500 14px 'Lucida Console',monospace" fill="#547000">geojson.Point</text><text x="378.929" y="67" style="font:500 14px 'Lucida Console',monospace" fill="#000000">geoBoundary:</text><text x="484.073" y="67" style="font:500 14px 'Lucida Console',monospace" fill="#547000">geojson.Polygon</text><path fill="#FFFFFF" stroke="#2ECB70" stroke-width="3" d="M-5.287-53h303.719V53H-5.287z"/><path fill="#2ecb70" stroke="#2ecb70" d="M-4.287-28H299.43"/><path fill="none" stroke="#2ECB70" stroke-width="3" d="M-5.287-53h303.719V53H-5.287z"/><text x="4.713" y="-35" style="font:700 16px 'Lucida Console',monospace" fill="#000000">Address</text><text x="4.713" y="-11" style="font:500 14px 'Lucida Console',monospace" fill="#000000">streetAddress:</text><text x="126.715" y="-11" style="font:500 14px 'Lucida Console',monospace" fill="#02b57b">Text</text><text x="4.713" y="3" style="font:500 14px 'Lucida Console',monospace" fill="#000000">postalCode:</text><text x="101.428" y="3" style="font:500 14px 'Lucida Console',monospace" fill="#02b57b">Text</text><text x="4.713" y="17" style="font:500 14px 'Lucida Console',monospace" fill="#000000">addressLocality:</text><text x="143.572" y="17" style="font:500 14px 'Lucida Console',monospace" fill="#02b57b">Text</text><text x="4.713" y="31" style="font:500 14px 'Lucida Console',monospace" fill="#000000">addressRegion:</text><text x="126.715" y="31" style="font:500 14px 'Lucida Console',monospace" fill="#02b57b">Text</text><text x="4.713" y="45" style="font:500 14px 'Lucida Console',monospace" fill="#000000">addressCountry:</text><text x="135.143" y="45" style="font:500 14px 'Lucida Console',monospace" fill="#530abb">Code(countryCode)</text><path fill="#FFFFFF" stroke="#3397DA" stroke-width="3" d="M1167.355 103.429h345.862v246h-345.862z"/><path fill="#3397da" stroke="#3397da" d="M1168.355 128.429h345.863"/><path fill="none" stroke="#3397DA" stroke-width="3" d="M1167.355 103.429h345.862v246h-345.862z"/><text x="1177.355" y="121.429" style="font:700 16px 'Lucida Console',monospace" fill="#000000">Product</text><text x="1177.355" y="145.429" style="font:500 14px 'Lucida Console',monospace" fill="#000000">id:</text><text x="1206.642" y="145.429" style="font:500 14px 'Lucida Console',monospace" fill="#C9A30B">URI</text><text x="1177.355" y="159.429" style="font:500 14px 'Lucida Console',monospace" fill="#000000">name:</text><text x="1223.499" y="159.429" style="font:500 14px 'Lucida Console',monospace" fill="#02b57b">Text</text><text x="1177.355" y="173.429" style="font:500 14px 'Lucida Console',monospace" fill="#000000">registeredId:</text><text x="1290.929" y="173.429" style="font:500 14px 'Lucida Console',monospace" fill="#02b57b">Text</text><text x="1177.355" y="187.429" style="font:500 14px 'Lucida Console',monospace" fill="#000000">idScheme:</text><text x="1257.214" y="187.429" style="font:500 14px 'Lucida Console',monospace" fill="#3397DA">IdentifierScheme</text><text x="1177.355" y="201.429" style="font:500 14px 'Lucida Console',monospace" fill="#000000">serialNumber:</text><text x="1290.929" y="201.429" style="font:500 14px 'Lucida Console',monospace" fill="#02b57b">Text</text><text x="1177.355" y="215.429" style="font:500 14px 'Lucida Console',monospace" fill="#000000">batchNumber:</text><text x="1282.5" y="215.429" style="font:500 14px 'Lucida Console',monospace" fill="#02b57b">Text</text><text x="1177.355" y="229.429" style="font:500 14px 'Lucida Console',monospace" fill="#000000">productImage:</text><text x="1290.929" y="229.429" style="font:500 14px 'Lucida Console',monospace" fill="#2ECB70">Link</text><text x="1177.355" y="243.429" style="font:500 14px 'Lucida Console',monospace" fill="#000000">description:</text><text x="1282.5" y="243.429" style="font:500 14px 'Lucida Console',monospace" fill="#02b57b">Text</text><text x="1177.355" y="257.429" style="font:500 14px 'Lucida Console',monospace" fill="#000000">productCategory:</text><text x="1316.215" y="257.429" style="font:500 14px 'Lucida Console',monospace" fill="#3397DA">Classification[]</text><text x="1177.355" y="271.429" style="font:500 14px 'Lucida Console',monospace" fill="#000000">furtherInformation:</text><text x="1341.501" y="271.429" style="font:500 14px 'Lucida Console',monospace" fill="#2ECB70">Link[]</text><text x="1177.355" y="285.429" style="font:500 14px 'Lucida Console',monospace" fill="#000000">producedByParty:</text><text x="1316.215" y="285.429" style="font:500 14px 'Lucida Console',monospace" fill="#3397DA">Identifier</text><text x="1177.355" y="299.429" style="font:500 14px 'Lucida Console',monospace" fill="#000000">producedAtFacility:</text><text x="1341.501" y="299.429" style="font:500 14px 'Lucida Console',monospace" fill="#3397DA">Identifier</text><text x="1177.355" y="313.429" style="font:500 14px 'Lucida Console',monospace" fill="#000000">dimensions:</text><text x="1274.071" y="313.429" style="font:500 14px 'Lucida Console',monospace" fill="#2ECB70">Dimension</text><text x="1177.355" y="327.429" style="font:500 14px 'Lucida Console',monospace" fill="#000000">productionDate:</text><text x="1307.786" y="327.429" style="font:500 14px 'Lucida Console',monospace" fill="#02b57b">Date</text><text x="1177.355" y="341.429" style="font:500 14px 'Lucida Console',monospace" fill="#000000">countryOfProduction:</text><text x="1349.93" y="341.429" style="font:500 14px 'Lucida Console',monospace" fill="#530abb">Code(countryCode)</text><path fill="#FFFFFF" stroke="#3397DA" stroke-width="3" d="M550 800h200v106H550z"/><path fill="#3397da" stroke="#3397da" d="M551 825h200"/><path fill="none" stroke="#3397DA" stroke-width="3" d="M550 800h200v106H550z"/><text x="560" y="818" style="font:700 16px 'Lucida Console',monospace" fill="#000000">Classification</text><text x="560" y="842" style="font:500 14px 'Lucida Console',monospace" fill="#000000">id:</text><text x="589.286" y="842" style="font:500 14px 'Lucida Console',monospace" fill="#C9A30B">URI</text><text x="560" y="856" style="font:500 14px 'Lucida Console',monospace" fill="#000000">code:</text><text x="606.144" y="856" style="font:500 14px 'Lucida Console',monospace" fill="#02b57b">Text</text><text x="560" y="870" style="font:500 14px 'Lucida Console',monospace" fill="#000000">name:</text><text x="606.144" y="870" style="font:500 14px 'Lucida Console',monospace" fill="#02b57b">Text</text><text x="560" y="884" style="font:500 14px 'Lucida Console',monospace" fill="#000000">schemeID:</text><text x="639.858" y="884" style="font:500 14px 'Lucida Console',monospace" fill="#02b57b">URI</text><text x="560" y="898" style="font:500 14px 'Lucida Console',monospace" fill="#000000">schemeName:</text><text x="656.716" y="898" style="font:500 14px 'Lucida Console',monospace" fill="#02b57b">Text</text><path fill="#FFFFFF" stroke="#2ECB70" stroke-width="3" d="M1178.141 544.857h202.146v92h-202.146z"/><path fill="#2ecb70" stroke="#2ecb70" d="M1179.141 569.857h202.146"/><path fill="none" stroke="#2ECB70" stroke-width="3" d="M1178.141 544.857h202.146v92h-202.146z"/><text x="1188.141" y="562.857" style="font:700 16px 'Lucida Console',monospace" fill="#000000">Metric</text><text x="1188.141" y="586.857" style="font:500 14px 'Lucida Console',monospace" fill="#000000">metricName:</text><text x="1284.857" y="586.857" style="font:500 14px 'Lucida Console',monospace" fill="#02b57b">Text</text><text x="1188.141" y="600.857" style="font:500 14px 'Lucida Console',monospace" fill="#000000">metricValue:</text><text x="1293.286" y="600.857" style="font:500 14px 'Lucida Console',monospace" fill="#2ECB70">Measure</text><text x="1188.141" y="614.857" style="font:500 14px 'Lucida Console',monospace" fill="#000000">score:</text><text x="1242.714" y="614.857" style="font:500 14px 'Lucida Console',monospace" fill="#02b57b">Text</text><text x="1188.141" y="628.857" style="font:500 14px 'Lucida Console',monospace" fill="#000000">accuracy:</text><text x="1268" y="628.857" style="font:500 14px 'Lucida Console',monospace" fill="#02b57b">Numeric</text><path fill="#FFFFFF" stroke="#2ECB70" stroke-width="3" d="M1345.089 800h200v106h-200z"/><path fill="#2ecb70" stroke="#2ecb70" d="M1346.089 825h200"/><path fill="none" stroke="#2ECB70" stroke-width="3" d="M1345.089 800h200v106h-200z"/><text x="1355.089" y="818" style="font:700 16px 'Lucida Console',monospace" fill="#000000">Dimension</text><text x="1355.089" y="842" style="font:500 14px 'Lucida Console',monospace" fill="#000000">weight:</text><text x="1418.09" y="842" style="font:500 14px 'Lucida Console',monospace" fill="#2ECB70">Measure</text><text x="1355.089" y="856" style="font:500 14px 'Lucida Console',monospace" fill="#000000">length:</text><text x="1418.09" y="856" style="font:500 14px 'Lucida Console',monospace" fill="#2ECB70">Measure</text><text x="1355.089" y="870" style="font:500 14px 'Lucida Console',monospace" fill="#000000">width:</text><text x="1409.661" y="870" style="font:500 14px 'Lucida Console',monospace" fill="#2ECB70">Measure</text><text x="1355.089" y="884" style="font:500 14px 'Lucida Console',monospace" fill="#000000">height:</text><text x="1418.09" y="884" style="font:500 14px 'Lucida Console',monospace" fill="#2ECB70">Measure</text><text x="1355.089" y="898" style="font:500 14px 'Lucida Console',monospace" fill="#000000">volume:</text><text x="1418.09" y="898" style="font:500 14px 'Lucida Console',monospace" fill="#2ECB70">Measure</text><path fill="#FFFFFF" stroke="#2ECB70" stroke-width="3" d="M1301.57 694.857h236.289v64H1301.57z"/><path fill="#2ecb70" stroke="#2ecb70" d="M1302.57 719.857h236.29"/><path fill="none" stroke="#2ECB70" stroke-width="3" d="M1301.57 694.857h236.289v64H1301.57z"/><text x="1311.57" y="712.857" style="font:700 16px 'Lucida Console',monospace" fill="#000000">Measure</text><text x="1311.57" y="736.857" style="font:500 14px 'Lucida Console',monospace" fill="#000000">value:</text><text x="1366.142" y="736.857" style="font:500 14px 'Lucida Console',monospace" fill="#02b57b">Numeric</text><text x="1311.57" y="750.857" style="font:500 14px 'Lucida Console',monospace" fill="#000000">unit:</text><text x="1357.714" y="750.857" style="font:500 14px 'Lucida Console',monospace" fill="#530abb">Code(unitOfMeasure)</text><path fill="#FFFFFF" stroke="#2ECB70" stroke-width="3" d="M792.662 982.331h231.86v78h-231.86z"/><path fill="#2ecb70" stroke="#2ecb70" d="M793.662 1007.33h231.86"/><path fill="none" stroke="#2ECB70" stroke-width="3" d="M792.662 982.331h231.86v78h-231.86z"/><text x="802.662" y="1000.331" style="font:700 16px 'Lucida Console',monospace" fill="#000000">BinaryFile</text><text x="802.662" y="1024.331" style="font:500 14px 'Lucida Console',monospace" fill="#000000">fileName:</text><text x="882.521" y="1024.331" style="font:500 14px 'Lucida Console',monospace" fill="#02b57b">Text</text><text x="802.662" y="1038.331" style="font:500 14px 'Lucida Console',monospace" fill="#000000">fileType:</text><text x="882.521" y="1038.331" style="font:500 14px 'Lucida Console',monospace" fill="#530abb">Code(mimeType)</text><text x="802.662" y="1052.331" style="font:500 14px 'Lucida Console',monospace" fill="#000000">file:</text><text x="848.806" y="1052.331" style="font:500 14px 'Lucida Console',monospace" fill="#02b57b">Base64</text><path fill="#FFFFFF" stroke="#2ECB70" stroke-width="3" d="M-44.295 826.571H352.14v120H-44.295z"/><path fill="#2ecb70" stroke="#2ecb70" d="M-43.295 851.571H353.14"/><path fill="none" stroke="#2ECB70" stroke-width="3" d="M-44.295 826.571H352.14v120H-44.295z"/><text x="-34.295" y="844.571" style="font:700 16px 'Lucida Console',monospace" fill="#000000">SecureLink</text><text x="-34.295" y="868.571" style="font:500 14px 'Lucida Console',monospace" fill="#666">linkURL:</text><text x="37.135" y="868.571" style="font:500 14px 'Lucida Console',monospace" fill="#02b57b">URI</text><text x="-34.295" y="882.571" style="font:500 14px 'Lucida Console',monospace" fill="#666">linkName:</text><text x="45.564" y="882.571" style="font:500 14px 'Lucida Console',monospace" fill="#02b57b">Text</text><text x="-34.295" y="896.571" style="font:500 14px 'Lucida Console',monospace" fill="#666">linkType:</text><text x="45.564" y="896.571" style="font:500 14px 'Lucida Console',monospace" fill="#02b57b">Text</text><text x="-34.295" y="910.571" style="font:500 14px 'Lucida Console',monospace" fill="#000000">hashDigest:</text><text x="62.421" y="910.571" style="font:500 14px 'Lucida Console',monospace" fill="#02b57b">Text</text><text x="-34.295" y="924.571" style="font:500 14px 'Lucida Console',monospace" fill="#000000">hashMethod:</text><text x="62.421" y="924.571" style="font:500 14px 'Lucida Console',monospace" fill="#530abb">Code(hashMethodCode)</text><text x="-34.295" y="938.571" style="font:500 14px 'Lucida Console',monospace" fill="#000000">encryptionMethod:</text><text x="112.993" y="938.571" style="font:500 14px 'Lucida Console',monospace" fill="#530abb">Code(encryptionMethodCode)</text><path fill="#FFFFFF" stroke="#3397DA" stroke-width="3" d="M719.805 350.143h379.577v148H719.805z"/><path fill="#3397da" stroke="#3397da" d="M720.805 375.143h379.577"/><path fill="none" stroke="#3397DA" stroke-width="3" d="M719.805 350.143h379.577v148H719.805z"/><text x="729.805" y="368.143" style="font:700 16px 'Lucida Console',monospace" fill="#000000">Declaration</text><text x="729.805" y="392.143" style="font:500 14px 'Lucida Console',monospace" fill="#000000">id:</text><text x="759.091" y="392.143" style="font:500 14px 'Lucida Console',monospace" fill="#C9A30B">URI</text><text x="729.805" y="406.143" style="font:500 14px 'Lucida Console',monospace" fill="#000000">referenceStandard:</text><text x="885.522" y="406.143" style="font:500 14px 'Lucida Console',monospace" fill="#3397DA">Standard</text><text x="729.805" y="420.143" style="font:500 14px 'Lucida Console',monospace" fill="#000000">referenceRegulation:</text><text x="902.379" y="420.143" style="font:500 14px 'Lucida Console',monospace" fill="#3397DA">Regulation</text><text x="729.805" y="434.143" style="font:500 14px 'Lucida Console',monospace" fill="#000000">assessmentCriteria:</text><text x="893.951" y="434.143" style="font:500 14px 'Lucida Console',monospace" fill="#3397DA">Criterion[]</text><text x="729.805" y="448.143" style="font:500 14px 'Lucida Console',monospace" fill="#000000">assessmentDate:</text><text x="860.236" y="448.143" style="font:500 14px 'Lucida Console',monospace" fill="#02b57b">Date</text><text x="729.805" y="462.143" style="font:500 14px 'Lucida Console',monospace" fill="#000000">declaredValue:</text><text x="851.807" y="462.143" style="font:500 14px 'Lucida Console',monospace" fill="#2ECB70">Metric[]</text><text x="729.805" y="476.143" style="font:500 14px 'Lucida Console',monospace" fill="#000000">conformance:</text><text x="834.95" y="476.143" style="font:500 14px 'Lucida Console',monospace" fill="#02b57b">Indicator</text><text x="729.805" y="490.143" style="font:500 14px 'Lucida Console',monospace" fill="#000000">conformityTopic:</text><text x="868.664" y="490.143" style="font:500 14px 'Lucida Console',monospace" fill="#530abb">Code(conformityTopicCode)</text><path fill="#FFFFFF" stroke="#3397DA" stroke-width="3" d="M894.047 613.127h231.86v92h-231.86z"/><path fill="#3397da" stroke="#3397da" d="M895.047 638.127h231.86"/><path fill="none" stroke="#3397DA" stroke-width="3" d="M894.047 613.127h231.86v92h-231.86z"/><text x="904.047" y="631.127" style="font:700 16px 'Lucida Console',monospace" fill="#000000">Standard</text><text x="904.047" y="655.127" style="font:500 14px 'Lucida Console',monospace" fill="#000000">id:</text><text x="933.333" y="655.127" style="font:500 14px 'Lucida Console',monospace" fill="#C9A30B">URI</text><text x="904.047" y="669.127" style="font:500 14px 'Lucida Console',monospace" fill="#000000">name:</text><text x="950.19" y="669.127" style="font:500 14px 'Lucida Console',monospace" fill="#02b57b">Text</text><text x="904.047" y="683.127" style="font:500 14px 'Lucida Console',monospace" fill="#000000">issuingParty:</text><text x="1017.62" y="683.127" style="font:500 14px 'Lucida Console',monospace" fill="#3397DA">Identifier</text><text x="904.047" y="697.127" style="font:500 14px 'Lucida Console',monospace" fill="#000000">issueDate:</text><text x="992.334" y="697.127" style="font:500 14px 'Lucida Console',monospace" fill="#02b57b">Date</text><path fill="#FFFFFF" stroke="#3397DA" stroke-width="3" d="M500 600h353.862v106H500z"/><path fill="#3397da" stroke="#3397da" d="M501 625h353.862"/><path fill="none" stroke="#3397DA" stroke-width="3" d="M500 600h353.862v106H500z"/><text x="510" y="618" style="font:700 16px 'Lucida Console',monospace" fill="#000000">Regulation</text><text x="510" y="642" style="font:500 14px 'Lucida Console',monospace" fill="#000000">id:</text><text x="539.286" y="642" style="font:500 14px 'Lucida Console',monospace" fill="#C9A30B">URI</text><text x="510" y="656" style="font:500 14px 'Lucida Console',monospace" fill="#000000">name:</text><text x="556.144" y="656" style="font:500 14px 'Lucida Console',monospace" fill="#02b57b">Text</text><text x="510" y="670" style="font:500 14px 'Lucida Console',monospace" fill="#000000">jurisdictionCountry:</text><text x="682.574" y="670" style="font:500 14px 'Lucida Console',monospace" fill="#530abb">Code(countryCode)</text><text x="510" y="684" style="font:500 14px 'Lucida Console',monospace" fill="#000000">administeredBy:</text><text x="640.431" y="684" style="font:500 14px 'Lucida Console',monospace" fill="#3397DA">Identifier</text><text x="510" y="698" style="font:500 14px 'Lucida Console',monospace" fill="#000000">effectiveDate:</text><text x="632.002" y="698" style="font:500 14px 'Lucida Console',monospace" fill="#02b57b">Date</text><path fill="#FFFFFF" stroke="#3397DA" stroke-width="3" d="M1380.854 424.714h236.289v78h-236.289z"/><path fill="#3397da" stroke="#3397da" d="M1381.854 449.714h236.29"/><path fill="none" stroke="#3397DA" stroke-width="3" d="M1380.854 424.714h236.289v78h-236.289z"/><text x="1390.854" y="442.714" style="font:700 16px 'Lucida Console',monospace" fill="#000000">Criterion</text><text x="1390.854" y="466.714" style="font:500 14px 'Lucida Console',monospace" fill="#000000">id:</text><text x="1420.14" y="466.714" style="font:500 14px 'Lucida Console',monospace" fill="#C9A30B">URI</text><text x="1390.854" y="480.714" style="font:500 14px 'Lucida Console',monospace" fill="#000000">name:</text><text x="1436.998" y="480.714" style="font:500 14px 'Lucida Console',monospace" fill="#02b57b">Text</text><text x="1390.854" y="494.714" style="font:500 14px 'Lucida Console',monospace" fill="#000000">thresholdValues:</text><text x="1529.713" y="494.714" style="font:500 14px 'Lucida Console',monospace" fill="#2ECB70">Metric[]</text><path fill="#FFFFFF" stroke="#2ECB70" stroke-width="3" d="M1289.66 934.571h323.29v162h-323.29z"/><path fill="#2ecb70" stroke="#2ecb70" d="M1290.66 959.571h323.29"/><path fill="none" stroke="#2ECB70" stroke-width="3" d="M1289.66 934.571h323.29v162h-323.29z"/><text x="1299.66" y="952.571" style="font:700 16px 'Lucida Console',monospace" fill="#000000">Material</text><text x="1299.66" y="976.571" style="font:500 14px 'Lucida Console',monospace" fill="#000000">name:</text><text x="1345.804" y="976.571" style="font:500 14px 'Lucida Console',monospace" fill="#02b57b">Text</text><text x="1299.66" y="990.571" style="font:500 14px 'Lucida Console',monospace" fill="#000000">originCountry:</text><text x="1421.662" y="990.571" style="font:500 14px 'Lucida Console',monospace" fill="#530abb">Code(countryCode)</text><text x="1299.66" y="1004.571" style="font:500 14px 'Lucida Console',monospace" fill="#000000">materialType:</text><text x="1413.233" y="1004.571" style="font:500 14px 'Lucida Console',monospace" fill="#3397DA">Classification</text><text x="1299.66" y="1018.571" style="font:500 14px 'Lucida Console',monospace" fill="#000000">massFraction:</text><text x="1413.233" y="1018.571" style="font:500 14px 'Lucida Console',monospace" fill="#02b57b">Numeric</text><text x="1299.66" y="1032.571" style="font:500 14px 'Lucida Console',monospace" fill="#000000">massAmount:</text><text x="1396.376" y="1032.571" style="font:500 14px 'Lucida Console',monospace" fill="#2ECB70">Measure</text><text x="1299.66" y="1046.571" style="font:500 14px 'Lucida Console',monospace" fill="#000000">recycledAmount:</text><text x="1430.091" y="1046.571" style="font:500 14px 'Lucida Console',monospace" fill="#02b57b">Numeric</text><text x="1299.66" y="1060.571" style="font:500 14px 'Lucida Console',monospace" fill="#000000">hazardous:</text><text x="1387.947" y="1060.571" style="font:500 14px 'Lucida Console',monospace" fill="#02b57b">Indicator</text><text x="1299.66" y="1074.571" style="font:500 14px 'Lucida Console',monospace" fill="#000000">symbol:</text><text x="1362.661" y="1074.571" style="font:500 14px 'Lucida Console',monospace" fill="#02b57b">Binary</text><text x="1299.66" y="1088.571" style="font:500 14px 'Lucida Console',monospace" fill="#000000">materialSafetyInformation:</text><text x="1522.807" y="1088.571" style="font:500 14px 'Lucida Console',monospace" fill="#2ECB70">Link</text><path fill="#FFFFFF" stroke="#2ECB70" stroke-width="3" d="M430.803 950h337.434v120H430.803z"/><path fill="#2ecb70" stroke="#2ecb70" d="M431.803 975h337.434"/><path fill="none" stroke="#2ECB70" stroke-width="3" d="M430.803 950h337.434v120H430.803z"/><text x="440.803" y="968" style="font:700 16px 'Lucida Console',monospace" fill="#000000">CircularityPerformance</text><text x="440.803" y="992" style="font:500 14px 'Lucida Console',monospace" fill="#000000">recyclingInformation:</text><text x="621.806" y="992" style="font:500 14px 'Lucida Console',monospace" fill="#2ECB70">Link</text><text x="440.803" y="1006" style="font:500 14px 'Lucida Console',monospace" fill="#000000">repairInformation:</text><text x="596.52" y="1006" style="font:500 14px 'Lucida Console',monospace" fill="#2ECB70">Link</text><text x="440.803" y="1020" style="font:500 14px 'Lucida Console',monospace" fill="#000000">recyclableContent:</text><text x="596.52" y="1020" style="font:500 14px 'Lucida Console',monospace" fill="#02b57b">Decimal</text><text x="440.803" y="1034" style="font:500 14px 'Lucida Console',monospace" fill="#000000">recycledContent:</text><text x="579.662" y="1034" style="font:500 14px 'Lucida Console',monospace" fill="#02b57b">Decimal</text><text x="440.803" y="1048" style="font:500 14px 'Lucida Console',monospace" fill="#000000">utilityFactor:</text><text x="562.805" y="1048" style="font:500 14px 'Lucida Console',monospace" fill="#02b57b">Decimal</text><text x="440.803" y="1062" style="font:500 14px 'Lucida Console',monospace" fill="#000000">materialCircularityIndicator:</text><text x="689.236" y="1062" style="font:500 14px 'Lucida Console',monospace" fill="#02b57b">Decimal</text><path fill="#FFFFFF" stroke="#2ECB70" stroke-width="3" d="M849.374 764.286h404.435v106H849.374z"/><path fill="#2ecb70" stroke="#2ecb70" d="M850.374 789.286h404.435"/><path fill="none" stroke="#2ECB70" stroke-width="3" d="M849.374 764.286h404.435v106H849.374z"/><text x="859.374" y="782.286" style="font:700 16px 'Lucida Console',monospace" fill="#000000">EmissionsPerformance</text><text x="859.374" y="806.286" style="font:500 14px 'Lucida Console',monospace" fill="#000000">carbonFootprint:</text><text x="998.234" y="806.286" style="font:500 14px 'Lucida Console',monospace" fill="#02b57b">Decimal</text><text x="859.374" y="820.286" style="font:500 14px 'Lucida Console',monospace" fill="#000000">declaredUnit:</text><text x="972.948" y="820.286" style="font:500 14px 'Lucida Console',monospace" fill="#530abb">Code(unitOfMeasure)</text><text x="859.374" y="834.286" style="font:500 14px 'Lucida Console',monospace" fill="#000000">operationalScope:</text><text x="1006.662" y="834.286" style="font:500 14px 'Lucida Console',monospace" fill="#530abb">Code(operationalScopeCode)</text><text x="859.374" y="848.286" style="font:500 14px 'Lucida Console',monospace" fill="#000000">primarySourcedRatio:</text><text x="1031.949" y="848.286" style="font:500 14px 'Lucida Console',monospace" fill="#02b57b">Decimal</text><text x="859.374" y="862.286" style="font:500 14px 'Lucida Console',monospace" fill="#000000">reportingStandard:</text><text x="1015.091" y="862.286" style="font:500 14px 'Lucida Console',monospace" fill="#3397DA">Standard</text><path fill="#FFFFFF" stroke="#2ECB70" stroke-width="3" d="M812.231 900h180v36h-180z"/><path fill="#2ecb70" stroke="#2ecb70" d="M813.231 925h180"/><path fill="none" stroke="#2ECB70" stroke-width="3" d="M812.231 900h180v36h-180z"/><text x="822.231" y="918" style="font:700 16px 'Lucida Console',monospace" fill="#000000">Characteristic</text><path fill="#FFFFFF" stroke="#3397DA" stroke-width="3" d="M138.142 369h403.577v176H138.142z"/><path fill="#3397da" stroke="#3397da" d="M139.142 394h403.577"/><path fill="none" stroke="#3397DA" stroke-width="3" d="M138.142 369h403.577v176H138.142z"/><text x="148.142" y="387" style="font:700 16px 'Lucida Console',monospace" fill="#000000">Attestation</text><text x="148.142" y="411" style="font:500 14px 'Lucida Console',monospace" fill="#000000">id:</text><text x="177.428" y="411" style="font:500 14px 'Lucida Console',monospace" fill="#C9A30B">URI</text><text x="148.142" y="425" style="font:500 14px 'Lucida Console',monospace" fill="#000000">name:</text><text x="194.285" y="425" style="font:500 14px 'Lucida Console',monospace" fill="#02b57b">Text</text><text x="148.142" y="439" style="font:500 14px 'Lucida Console',monospace" fill="#000000">assessorLevel:</text><text x="270.144" y="439" style="font:500 14px 'Lucida Console',monospace" fill="#530abb">Code(assessorLevelCode)</text><text x="148.142" y="453" style="font:500 14px 'Lucida Console',monospace" fill="#000000">assessmentLevel:</text><text x="287.001" y="453" style="font:500 14px 'Lucida Console',monospace" fill="#530abb">Code(assessmentLevelCode)</text><text x="148.142" y="467" style="font:500 14px 'Lucida Console',monospace" fill="#000000">attestationType:</text><text x="287.001" y="467" style="font:500 14px 'Lucida Console',monospace" fill="#530abb">Code(attestationTypeCode)</text><text x="148.142" y="481" style="font:500 14px 'Lucida Console',monospace" fill="#000000">description:</text><text x="253.286" y="481" style="font:500 14px 'Lucida Console',monospace" fill="#02b57b">Text</text><text x="148.142" y="495" style="font:500 14px 'Lucida Console',monospace" fill="#000000">issuedToParty:</text><text x="270.144" y="495" style="font:500 14px 'Lucida Console',monospace" fill="#3397DA">Party</text><text x="148.142" y="509" style="font:500 14px 'Lucida Console',monospace" fill="#000000">authorisation:</text><text x="270.144" y="509" style="font:500 14px 'Lucida Console',monospace" fill="#3397DA">Endorsement[]</text><text x="148.142" y="523" style="font:500 14px 'Lucida Console',monospace" fill="#000000">conformityCertificate:</text><text x="337.573" y="523" style="font:500 14px 'Lucida Console',monospace" fill="#2ECB70">SecureLink</text><text x="148.142" y="537" style="font:500 14px 'Lucida Console',monospace" fill="#000000">auditableEvidence:</text><text x="303.859" y="537" style="font:500 14px 'Lucida Console',monospace" fill="#2ECB70">SecureLink</text><path fill="#FFFFFF" stroke="#3397DA" stroke-width="3" d="M-80.125 574.173H185.45v106H-80.125z"/><path fill="#3397da" stroke="#3397da" d="M-79.125 599.173H186.45"/><path fill="none" stroke="#3397DA" stroke-width="3" d="M-80.125 574.173H185.45v106H-80.125z"/><text x="-70.125" y="592.173" style="font:700 16px 'Lucida Console',monospace" fill="#000000">Endorsement</text><text x="-70.125" y="616.173" style="font:500 14px 'Lucida Console',monospace" fill="#000000">id:</text><text x="-40.839" y="616.173" style="font:500 14px 'Lucida Console',monospace" fill="#C9A30B">URI</text><text x="-70.125" y="630.173" style="font:500 14px 'Lucida Console',monospace" fill="#000000">name:</text><text x="-23.982" y="630.173" style="font:500 14px 'Lucida Console',monospace" fill="#02b57b">Text</text><text x="-70.125" y="644.173" style="font:500 14px 'Lucida Console',monospace" fill="#000000">trustmark:</text><text x="18.162" y="644.173" style="font:500 14px 'Lucida Console',monospace" fill="#2ECB70">BinaryFile</text><text x="-70.125" y="658.173" style="font:500 14px 'Lucida Console',monospace" fill="#000000">issuingAuthority:</text><text x="77.163" y="658.173" style="font:500 14px 'Lucida Console',monospace" fill="#3397DA">Identifier</text><text x="-70.125" y="672.173" style="font:500 14px 'Lucida Console',monospace" fill="#000000">endorsementEvidence:</text><text x="102.449" y="672.173" style="font:500 14px 'Lucida Console',monospace" fill="#2ECB70">Link</text></svg>