<?xml version="1.0" encoding="utf-8"?>
<!-- Generator: Adobe Illustrator 25.2.3, SVG Export Plug-In . SVG Version: 6.00 Build 0)  -->
<svg version="1.1" id="gba_logo" xmlns="http://www.w3.org/2000/svg" xmlns:xlink="http://www.w3.org/1999/xlink" x="0px" y="0px"
	 viewBox="0 0 162 140" style="enable-background:new 0 0 162 140;" xml:space="preserve">
<style type="text/css">
	.st0{fill:#13D800;}
	.st1{fill:#FFFFFF;}
	.st2{fill:#231F20;}
</style>
<path class="st0" d="M135,0H27C-5.6,29.8-7.8,80.4,22,113s80.4,34.9,113,5.1s34.9-80.4,5.1-113C138.5,3.3,136.8,1.6,135,0z"/>
<path class="st1" d="M38.5,95.6c0-1.5-2.3-1-2.3-1.8c0-0.3,0.3-0.6,0.7-0.6c0.3,0,0.7,0.1,1,0.3c0,0,0.1,0.1,0.2,0.1
	c0.1,0,0.3-0.1,0.3-0.3c0-0.1,0-0.1-0.1-0.2c-0.3-0.3-0.8-0.4-1.3-0.4c-0.8,0-1.4,0.5-1.4,1.1c0,1.4,2.3,0.9,2.3,1.8
	c0,0.3-0.2,0.6-0.9,0.6c-0.4,0-0.8-0.2-1.1-0.4c0,0-0.1-0.1-0.2-0.1c-0.2,0-0.3,0.1-0.3,0.3c0,0.1,0,0.1,0.1,0.2
	c0.3,0.3,0.8,0.5,1.4,0.5C38.1,96.8,38.5,96.2,38.5,95.6L38.5,95.6z M43.2,95.2V93c0-0.2-0.1-0.3-0.3-0.3c-0.2,0-0.3,0.1-0.3,0.3
	v2.1c0,0.7-0.4,1.1-1.1,1.1c-0.7,0-1.1-0.4-1.1-1.1V93c0-0.2-0.1-0.3-0.3-0.3c-0.2,0-0.3,0.1-0.3,0.3v2.2c0,1,0.6,1.6,1.7,1.6
	C42.7,96.8,43.2,96.2,43.2,95.2L43.2,95.2z M47.6,95.6c0-1.5-2.3-1-2.3-1.8c0-0.3,0.3-0.6,0.7-0.6c0.3,0,0.7,0.1,1,0.3
	c0,0,0.1,0.1,0.2,0.1c0.1,0,0.3-0.1,0.3-0.3c0-0.1,0-0.1-0.1-0.2c-0.3-0.3-0.8-0.4-1.3-0.4c-0.8,0-1.4,0.5-1.4,1.1
	c0,1.4,2.3,0.9,2.3,1.8c0,0.3-0.2,0.6-0.9,0.6c-0.4,0-0.8-0.2-1.1-0.4c0,0-0.1-0.1-0.2-0.1c-0.2,0-0.3,0.1-0.3,0.3
	c0,0.1,0,0.1,0.1,0.2c0.3,0.3,0.8,0.5,1.4,0.5C47.2,96.8,47.6,96.2,47.6,95.6L47.6,95.6z M51.8,93c0-0.2-0.1-0.3-0.3-0.3h-2.6
	c-0.1,0-0.3,0.1-0.3,0.3c0,0.1,0.1,0.3,0.3,0.3h1v3.2c0,0.2,0.1,0.3,0.3,0.3c0.2,0,0.3-0.1,0.3-0.3v-3.2h1
	C51.7,93.3,51.8,93.2,51.8,93L51.8,93z M56.1,96.4c0,0,0-0.1,0-0.1L54.7,93c-0.1-0.2-0.3-0.3-0.5-0.3c-0.2,0-0.4,0.1-0.5,0.3
	l-1.3,3.3c0,0,0,0.1,0,0.1c0,0.2,0.1,0.3,0.3,0.3c0.1,0,0.2-0.1,0.3-0.2l0.3-0.7h1.9l0.3,0.7c0,0.1,0.2,0.2,0.3,0.2
	C55.9,96.8,56.1,96.6,56.1,96.4L56.1,96.4z M55,95.4h-1.6l0.8-2L55,95.4L55,95.4z M58,96.5V93c0-0.2-0.1-0.3-0.3-0.3
	c-0.2,0-0.3,0.1-0.3,0.3v3.5c0,0.2,0.1,0.3,0.3,0.3C57.8,96.8,58,96.6,58,96.5L58,96.5z M62.9,96.4V93c0-0.2-0.1-0.3-0.3-0.3
	c-0.2,0-0.3,0.1-0.3,0.3v2.7l-2.1-2.8c-0.1-0.1-0.2-0.2-0.3-0.2c-0.2,0-0.4,0.2-0.4,0.4v3.4c0,0.2,0.1,0.3,0.3,0.3
	c0.2,0,0.3-0.1,0.3-0.3v-2.8l2.1,2.9c0.1,0.1,0.2,0.1,0.3,0.1C62.8,96.8,62.9,96.6,62.9,96.4L62.9,96.4L62.9,96.4z M67.9,96.4
	c0,0,0-0.1,0-0.1L66.5,93c-0.1-0.2-0.3-0.3-0.5-0.3c-0.2,0-0.4,0.1-0.5,0.3l-1.3,3.3c0,0,0,0.1,0,0.1c0,0.2,0.1,0.3,0.3,0.3
	c0.1,0,0.2-0.1,0.3-0.2l0.3-0.7H67l0.3,0.7c0,0.1,0.2,0.2,0.3,0.2C67.7,96.8,67.9,96.6,67.9,96.4L67.9,96.4z M66.8,95.4h-1.6l0.8-2
	L66.8,95.4L66.8,95.4z M72.2,95.7c0-0.5-0.4-0.9-0.8-1c0.4-0.1,0.7-0.4,0.7-0.9c0-0.6-0.4-1-1.1-1h-1.5c-0.2,0-0.4,0.2-0.4,0.4v3.2
	c0,0.2,0.2,0.4,0.4,0.4h1.5C71.8,96.7,72.2,96.3,72.2,95.7L72.2,95.7z M71.6,93.9c0,0.3-0.2,0.6-0.6,0.6h-1.2v-1.2h1.2
	C71.3,93.3,71.6,93.5,71.6,93.9L71.6,93.9z M71.6,95.6c0,0.4-0.2,0.6-0.7,0.6h-1.2V95H71C71.4,95,71.6,95.3,71.6,95.6L71.6,95.6z
	 M76.1,96.5c0-0.1-0.1-0.3-0.3-0.3h-1.6V93c0-0.2-0.1-0.3-0.3-0.3c-0.2,0-0.3,0.1-0.3,0.3v3.3c0,0.2,0.2,0.4,0.4,0.4h1.8
	C76,96.7,76.1,96.6,76.1,96.5L76.1,96.5z M80.1,96.5c0-0.1-0.1-0.3-0.3-0.3H78V95h1.8c0.1,0,0.3-0.1,0.3-0.3c0-0.2-0.1-0.3-0.3-0.3
	H78v-1.2h1.8c0.1,0,0.3-0.1,0.3-0.3c0-0.2-0.1-0.3-0.3-0.3h-2c-0.2,0-0.4,0.2-0.4,0.4v3.2c0,0.2,0.2,0.4,0.4,0.4h2
	C80,96.7,80.1,96.6,80.1,96.5L80.1,96.5z M87.3,94.8c0-1.1-0.8-2-2-2h-1c-0.2,0-0.4,0.2-0.4,0.4v3.2c0,0.2,0.2,0.4,0.4,0.4h1
	C86.5,96.7,87.3,95.9,87.3,94.8L87.3,94.8z M86.7,94.8c0,0.8-0.5,1.5-1.5,1.5h-0.8v-2.9h0.8C86.2,93.3,86.7,93.9,86.7,94.8
	L86.7,94.8z M91.4,96.5c0-0.1-0.1-0.3-0.3-0.3h-1.8V95h1.8c0.1,0,0.3-0.1,0.3-0.3c0-0.2-0.1-0.3-0.3-0.3h-1.8v-1.2h1.8
	c0.1,0,0.3-0.1,0.3-0.3c0-0.2-0.1-0.3-0.3-0.3h-2c-0.2,0-0.4,0.2-0.4,0.4v3.2c0,0.2,0.2,0.4,0.4,0.4h2
	C91.3,96.7,91.4,96.6,91.4,96.5L91.4,96.5z M96.2,93c0-0.2-0.1-0.3-0.3-0.3c-0.1,0-0.2,0.1-0.3,0.2l-1.2,3.2l-1.2-3.2
	c0-0.1-0.2-0.2-0.3-0.2c-0.2,0-0.3,0.2-0.3,0.3c0,0,0,0.1,0,0.1l1.3,3.3c0.1,0.2,0.3,0.3,0.5,0.3h0c0.2,0,0.4-0.1,0.5-0.3l1.3-3.3
	C96.2,93.1,96.2,93.1,96.2,93L96.2,93z M100.2,96.5c0-0.1-0.1-0.3-0.3-0.3h-1.8V95h1.8c0.1,0,0.3-0.1,0.3-0.3c0-0.2-0.1-0.3-0.3-0.3
	h-1.8v-1.2h1.8c0.1,0,0.3-0.1,0.3-0.3c0-0.2-0.1-0.3-0.3-0.3h-2c-0.2,0-0.4,0.2-0.4,0.4v3.2c0,0.2,0.2,0.4,0.4,0.4h2
	C100.1,96.7,100.2,96.6,100.2,96.5L100.2,96.5z M104,96.5c0-0.1-0.1-0.3-0.3-0.3h-1.6V93c0-0.2-0.1-0.3-0.3-0.3
	c-0.2,0-0.3,0.1-0.3,0.3v3.3c0,0.2,0.2,0.4,0.4,0.4h1.8C103.9,96.7,104,96.6,104,96.5L104,96.5z M109,94.8c0-1.2-0.8-2-2-2
	c-1.2,0-2,0.9-2,2c0,1.2,0.8,2,2,2C108.2,96.8,109,95.9,109,94.8L109,94.8z M108.4,94.8c0,0.9-0.5,1.5-1.4,1.5
	c-0.9,0-1.4-0.7-1.4-1.5c0-0.9,0.5-1.5,1.4-1.5C107.9,93.2,108.4,93.9,108.4,94.8L108.4,94.8z M113.4,94c0-0.7-0.5-1.2-1.3-1.2h-1.3
	c-0.2,0-0.4,0.2-0.4,0.4v3.3c0,0.2,0.1,0.3,0.3,0.3c0.2,0,0.3-0.1,0.3-0.3v-1.3h1.1C112.9,95.2,113.4,94.6,113.4,94L113.4,94z
	 M112.8,94c0,0.4-0.3,0.7-0.7,0.7h-1v-1.4h1C112.5,93.3,112.8,93.6,112.8,94L112.8,94z M118.7,96.5v-3.3c0-0.3-0.2-0.4-0.5-0.4
	c-0.2,0-0.4,0.1-0.4,0.3l-1.1,2.6l-1-2.6c-0.1-0.2-0.3-0.3-0.5-0.3c-0.2,0-0.4,0.2-0.4,0.4v3.3c0,0.2,0.1,0.3,0.3,0.3
	c0.2,0,0.3-0.1,0.3-0.3v-2.9l1.3,3.1c0,0.1,0.1,0.1,0.1,0.1c0.1,0,0.1,0,0.2-0.1l1.3-3.1v2.9c0,0.2,0.1,0.3,0.3,0.3
	C118.6,96.8,118.7,96.6,118.7,96.5L118.7,96.5L118.7,96.5z M123,96.5c0-0.1-0.1-0.3-0.3-0.3h-1.8V95h1.8c0.1,0,0.3-0.1,0.3-0.3
	c0-0.2-0.1-0.3-0.3-0.3h-1.8v-1.2h1.8c0.1,0,0.3-0.1,0.3-0.3c0-0.2-0.1-0.3-0.3-0.3h-2c-0.2,0-0.4,0.2-0.4,0.4v3.2
	c0,0.2,0.2,0.4,0.4,0.4h2C122.9,96.7,123,96.6,123,96.5L123,96.5z M127.8,96.4V93c0-0.2-0.1-0.3-0.3-0.3c-0.2,0-0.3,0.1-0.3,0.3v2.7
	l-2.1-2.8c-0.1-0.1-0.2-0.2-0.3-0.2c-0.2,0-0.4,0.2-0.4,0.4v3.4c0,0.2,0.1,0.3,0.3,0.3c0.2,0,0.3-0.1,0.3-0.3v-2.8l2.1,2.9
	c0.1,0.1,0.2,0.1,0.3,0.1C127.6,96.8,127.8,96.6,127.8,96.4L127.8,96.4L127.8,96.4z M132.2,93c0-0.2-0.1-0.3-0.3-0.3h-2.6
	c-0.1,0-0.3,0.1-0.3,0.3c0,0.1,0.1,0.3,0.3,0.3h1v3.2c0,0.2,0.1,0.3,0.3,0.3c0.2,0,0.3-0.1,0.3-0.3v-3.2h1
	C132.1,93.3,132.2,93.2,132.2,93L132.2,93z"/>
<path class="st1" d="M38.7,87.8c0-0.5-0.3-0.9-0.8-1c0.4-0.1,0.7-0.4,0.7-0.9c0-0.6-0.4-1-1.1-1h-1.5c-0.2,0-0.4,0.2-0.4,0.4v3.2
	c0,0.2,0.2,0.4,0.4,0.4h1.5C38.3,88.8,38.7,88.4,38.7,87.8L38.7,87.8z M38,86c0,0.3-0.2,0.6-0.6,0.6h-1.2v-1.2h1.2
	C37.8,85.4,38,85.6,38,86L38,86z M38.1,87.7c0,0.4-0.2,0.6-0.7,0.6h-1.2v-1.2h1.2C37.9,87.1,38.1,87.4,38.1,87.7L38.1,87.7z
	 M43.5,88.6c0,0,0-0.1,0-0.1l-1.3-3.3c-0.1-0.2-0.3-0.3-0.5-0.3c-0.2,0-0.4,0.1-0.5,0.3l-1.3,3.3c0,0,0,0.1,0,0.1
	c0,0.2,0.1,0.3,0.3,0.3c0.1,0,0.2-0.1,0.3-0.2l0.3-0.7h1.9l0.3,0.7c0,0.1,0.2,0.2,0.3,0.2C43.4,88.9,43.5,88.7,43.5,88.6L43.5,88.6z
	 M42.5,87.5h-1.6l0.8-2L42.5,87.5L42.5,87.5z M47.3,85.1c0-0.2-0.1-0.3-0.3-0.3h-2.6c-0.1,0-0.3,0.1-0.3,0.3c0,0.1,0.1,0.3,0.3,0.3
	h1v3.2c0,0.2,0.1,0.3,0.3,0.3c0.2,0,0.3-0.1,0.3-0.3v-3.2h1C47.2,85.4,47.3,85.3,47.3,85.1L47.3,85.1z M51.4,85.1
	c0-0.2-0.1-0.3-0.3-0.3h-2.6c-0.1,0-0.3,0.1-0.3,0.3c0,0.1,0.1,0.3,0.3,0.3h1v3.2c0,0.2,0.1,0.3,0.3,0.3c0.2,0,0.3-0.1,0.3-0.3v-3.2
	h1C51.3,85.4,51.4,85.3,51.4,85.1L51.4,85.1z M55.4,88.6c0-0.1-0.1-0.3-0.3-0.3h-1.8v-1.2h1.8c0.1,0,0.3-0.1,0.3-0.3
	c0-0.2-0.1-0.3-0.3-0.3h-1.8v-1.2h1.8c0.1,0,0.3-0.1,0.3-0.3c0-0.2-0.1-0.3-0.3-0.3h-2c-0.2,0-0.4,0.2-0.4,0.4v3.2
	c0,0.2,0.2,0.4,0.4,0.4h2C55.3,88.8,55.4,88.7,55.4,88.6L55.4,88.6z M59.7,86.1c0-0.7-0.5-1.2-1.3-1.2h-1.3c-0.2,0-0.4,0.2-0.4,0.4
	v3.3c0,0.2,0.1,0.3,0.3,0.3c0.2,0,0.3-0.1,0.3-0.3v-1.3h0.7l0.9,1.4c0.1,0.1,0.1,0.1,0.2,0.1c0.2,0,0.3-0.1,0.3-0.3c0,0,0-0.1,0-0.1
	l-0.8-1.2C59.3,87.2,59.7,86.8,59.7,86.1L59.7,86.1z M58.4,85.4c0.4,0,0.7,0.3,0.7,0.7c0,0.4-0.3,0.7-0.7,0.7h-1v-1.4H58.4
	L58.4,85.4z M61.8,88.6v-3.5c0-0.2-0.1-0.3-0.3-0.3c-0.2,0-0.3,0.1-0.3,0.3v3.5c0,0.2,0.1,0.3,0.3,0.3
	C61.6,88.9,61.8,88.7,61.8,88.6L61.8,88.6z M66.1,88.6c0-0.1-0.1-0.3-0.3-0.3H64v-1.2h1.8c0.1,0,0.3-0.1,0.3-0.3
	c0-0.2-0.1-0.3-0.3-0.3H64v-1.2h1.8c0.1,0,0.3-0.1,0.3-0.3c0-0.2-0.1-0.3-0.3-0.3h-2c-0.2,0-0.4,0.2-0.4,0.4v3.2
	c0,0.2,0.2,0.4,0.4,0.4h2C65.9,88.8,66.1,88.7,66.1,88.6L66.1,88.6z M70.3,87.7c0-1.5-2.3-1-2.3-1.8c0-0.3,0.3-0.6,0.7-0.6
	c0.3,0,0.7,0.1,1,0.3c0,0,0.1,0.1,0.2,0.1c0.1,0,0.3-0.1,0.3-0.3c0-0.1,0-0.1-0.1-0.2c-0.3-0.3-0.8-0.4-1.3-0.4
	c-0.8,0-1.4,0.5-1.4,1.1c0,1.4,2.3,0.9,2.3,1.8c0,0.3-0.2,0.6-0.9,0.6c-0.4,0-0.8-0.2-1.1-0.4c0,0-0.1-0.1-0.2-0.1
	c-0.2,0-0.3,0.1-0.3,0.3c0,0.1,0,0.1,0.1,0.2c0.3,0.3,0.8,0.5,1.4,0.5C69.9,88.9,70.3,88.3,70.3,87.7L70.3,87.7z M76.9,86.1
	c0-0.7-0.5-1.2-1.3-1.2h-1.3c-0.2,0-0.4,0.2-0.4,0.4v3.3c0,0.2,0.1,0.3,0.3,0.3c0.2,0,0.3-0.1,0.3-0.3v-1.3h1.1
	C76.4,87.3,76.9,86.8,76.9,86.1L76.9,86.1z M76.3,86.1c0,0.4-0.3,0.7-0.7,0.7h-1v-1.4h1C76,85.4,76.3,85.7,76.3,86.1L76.3,86.1z
	 M82,86.9c0-1.2-0.8-2-2-2c-1.2,0-2,0.9-2,2c0,1.2,0.8,2,2,2C81.2,88.9,82,88,82,86.9L82,86.9z M81.4,86.9c0,0.9-0.5,1.5-1.4,1.5
	c-0.8,0-1.4-0.7-1.4-1.5c0-0.9,0.5-1.5,1.4-1.5C80.9,85.3,81.4,86,81.4,86.9L81.4,86.9z M88.1,85.1c0-0.2-0.1-0.3-0.3-0.3
	c-0.1,0-0.3,0.1-0.3,0.2l-0.8,3l-0.8-3c0-0.1-0.2-0.2-0.3-0.2c-0.1,0-0.3,0.1-0.3,0.2l-0.8,3l-0.8-3c0-0.1-0.2-0.2-0.3-0.2
	c-0.2,0-0.3,0.1-0.3,0.3c0,0,0,0.1,0,0.1l1,3.4c0,0.2,0.2,0.3,0.4,0.3h0c0.2,0,0.3-0.1,0.4-0.3l0.8-2.8l0.8,2.8
	c0,0.2,0.2,0.3,0.4,0.3h0c0.2,0,0.3-0.1,0.4-0.3L88.1,85.1C88,85.2,88.1,85.2,88.1,85.1L88.1,85.1L88.1,85.1z M92,88.6
	c0-0.1-0.1-0.3-0.3-0.3h-1.8v-1.2h1.8c0.1,0,0.3-0.1,0.3-0.3c0-0.2-0.1-0.3-0.3-0.3h-1.8v-1.2h1.8c0.1,0,0.3-0.1,0.3-0.3
	c0-0.2-0.1-0.3-0.3-0.3h-2c-0.2,0-0.4,0.2-0.4,0.4v3.2c0,0.2,0.2,0.4,0.4,0.4h2C91.9,88.8,92,88.7,92,88.6L92,88.6z M96.4,86.1
	c0-0.7-0.5-1.2-1.3-1.2h-1.3c-0.2,0-0.4,0.2-0.4,0.4v3.3c0,0.2,0.1,0.3,0.3,0.3c0.2,0,0.3-0.1,0.3-0.3v-1.3h0.7l0.9,1.4
	c0.1,0.1,0.1,0.1,0.2,0.1c0.2,0,0.3-0.1,0.3-0.3c0,0,0-0.1,0-0.1l-0.8-1.2C95.9,87.2,96.4,86.8,96.4,86.1L96.4,86.1z M95.1,85.4
	c0.4,0,0.7,0.3,0.7,0.7c0,0.4-0.3,0.7-0.7,0.7h-1v-1.4H95.1L95.1,85.4z M98.4,88.6v-3.5c0-0.2-0.1-0.3-0.3-0.3
	c-0.2,0-0.3,0.1-0.3,0.3v3.5c0,0.2,0.1,0.3,0.3,0.3C98.3,88.9,98.4,88.7,98.4,88.6L98.4,88.6z M103.4,88.5v-3.4
	c0-0.2-0.1-0.3-0.3-0.3c-0.2,0-0.3,0.1-0.3,0.3v2.7l-2.1-2.8c-0.1-0.1-0.2-0.2-0.3-0.2c-0.2,0-0.4,0.2-0.4,0.4v3.4
	c0,0.2,0.1,0.3,0.3,0.3c0.2,0,0.3-0.1,0.3-0.3v-2.8l2.1,2.9c0.1,0.1,0.2,0.1,0.3,0.1C103.2,88.9,103.4,88.7,103.4,88.5L103.4,88.5
	L103.4,88.5z M108.5,87.9v-0.8c0-0.2-0.2-0.4-0.4-0.4h-1.3c-0.1,0-0.3,0.1-0.3,0.3c0,0.1,0.1,0.3,0.3,0.3h1.1V88
	c-0.2,0.2-0.6,0.4-1,0.4c-0.8,0-1.4-0.6-1.4-1.5c0-0.9,0.6-1.5,1.4-1.5c0.4,0,0.7,0.2,1,0.4c0.1,0.1,0.1,0.1,0.2,0.1
	c0.1,0,0.3-0.1,0.3-0.3c0-0.1,0-0.1-0.1-0.2c-0.3-0.3-0.8-0.6-1.4-0.6c-1.1,0-2.1,0.8-2.1,2c0,1.2,0.9,2.1,2.1,2.1
	C107.6,88.9,108.5,88.5,108.5,87.9L108.5,87.9z"/>
<path class="st2" d="M66.7,28.9c0-0.3,0.1-0.5,0.2-0.7c0.6-1.4,1.6-2.2,3.1-2.6c0.1,0,0.8-0.1,0.9-0.1c0,0.3,0,0.6,0,0.8
	c0.1,0,1.7-2,1.8-2.1c0-0.1-1.6-2.1-1.7-2.1c0,0.2,0,0.7,0,0.9c-0.1,0-0.6,0.1-0.7,0.1c-2.6,0.3-4.7,2-5.6,4.4
	c-0.1,0.2-0.3,1-0.3,1.2c0.1-0.1,1-0.8,1.1-0.9C65.5,27.9,66.6,28.8,66.7,28.9L66.7,28.9z"/>
<path class="st2" d="M72,25.6c0.3,0,0.5,0.1,0.7,0.2c1.4,0.6,2.2,1.6,2.6,3.1c0,0.1,0.1,0.8,0.1,0.9c-0.3,0-0.6,0-0.8,0
	c0,0.1,2,1.7,2.1,1.8c0.1,0,2.1-1.6,2.1-1.7c-0.2,0-0.7,0-0.9,0c0-0.1-0.1-0.6-0.1-0.7c-0.3-2.6-2-4.7-4.4-5.6
	c-0.2-0.1-1-0.3-1.2-0.3c0.1,0.1,0.8,1,0.9,1.1C73,24.4,72.1,25.5,72,25.6L72,25.6z"/>
<path class="st2" d="M75.3,30.9c0,0.3-0.1,0.5-0.2,0.7c-0.6,1.4-1.6,2.2-3.1,2.6c-0.1,0-0.8,0.1-0.9,0.1c0-0.3,0-0.6,0-0.8
	c-0.1,0-1.7,2-1.8,2.1c0,0.1,1.6,2.1,1.7,2.1c0-0.2,0-0.7,0-0.9c0.1,0,0.6-0.1,0.7-0.1c2.6-0.3,4.7-2,5.6-4.4c0.1-0.2,0.3-1,0.3-1.2
	c-0.1,0.1-1,0.8-1.1,0.9C76.5,31.9,75.4,31,75.3,30.9L75.3,30.9z"/>
<path class="st2" d="M70,34.2c-0.3,0-0.5-0.1-0.7-0.2c-1.4-0.6-2.2-1.6-2.6-3.1c0-0.1-0.1-0.8-0.1-0.9c0.3,0,0.6,0,0.8,0
	c0-0.1-2-1.7-2.1-1.8c-0.1,0-2.1,1.6-2.1,1.7c0.2,0,0.7,0,0.9,0c0,0.1,0.1,0.6,0.1,0.7c0.3,2.6,2,4.7,4.4,5.6c0.2,0.1,1,0.3,1.2,0.3
	c-0.1-0.1-0.8-1-0.9-1.1C69,35.4,69.9,34.3,70,34.2L70,34.2z"/>
<path class="st2" d="M110.6,47.7c0-2.4-2-4.4-4.4-4.4h0h-5.2c-0.7,0-1.3,0.6-1.3,1.3v10.9c0,0.7,0.6,1.3,1.3,1.3
	c0.7,0,1.3-0.6,1.3-1.3v-3.3h3.1l3.1,4l0,0c0.2,0.3,0.6,0.5,1,0.5c0.7,0,1.3-0.6,1.3-1.3c0-0.3-0.1-0.6-0.3-0.8l0,0l-2.3-2.9
	C109.5,51,110.6,49.5,110.6,47.7L110.6,47.7z M105.8,49.7C105.8,49.7,105.9,49.7,105.8,49.7C105.9,49.7,105.9,49.7,105.8,49.7
	C105.9,49.7,105.9,49.7,105.8,49.7L105.8,49.7z M106.7,49.6c-0.2,0.1-0.4,0.1-0.6,0.1h-0.3c0,0,0,0,0,0c0,0,0,0,0,0v0h-3.7v-3.9h4
	C108.3,45.8,108.8,48.9,106.7,49.6L106.7,49.6z"/>
<path class="st2" d="M125.1,44.6c0,0.3-0.1,0.5-0.2,0.7l0,0l-4.8,6.6v3.4c0,0,0,0.1,0,0.1c0,0,0,0,0,0c0,0.6-0.5,1.1-1.1,1.2
	c0,0,0,0,0,0c0,0,0,0-0.1,0c0,0-0.1,0-0.1,0h0c0,0-0.1,0-0.1,0c0,0,0,0-0.1,0c0,0,0,0,0,0c-0.6-0.1-1.1-0.6-1.1-1.2c0,0,0,0,0,0
	c0,0,0-0.1,0-0.1v-3.4l-4.8-6.6l0,0c-0.2-0.2-0.2-0.5-0.2-0.7c0-0.7,0.6-1.3,1.3-1.3c0.4,0,0.8,0.2,1,0.5l0,0l4,5.6l4-5.6l0,0
	c0.2-0.3,0.6-0.5,1-0.5C124.5,43.3,125.1,43.9,125.1,44.6"/>
<path class="st2" d="M46.2,49.3c1.7-2.5-0.1-6-3.2-6h0l-5.4,0c0,0,0,0,0,0c0,0,0,0,0,0c-0.7,0-1.3,0.6-1.3,1.3c0,0,0,0,0,0
	c0,0,0,0,0,0v10.9c0,0.2,0,0.3,0.1,0.4c0.2,0.4,0.6,0.8,1,0.8c0,0,0.1,0,0.1,0h6.1C47.6,56.7,49.3,51.7,46.2,49.3
	C46.2,49.3,46.2,49.3,46.2,49.3L46.2,49.3z M43.6,54.2h-4.8v-8.4l4.3,0c1.7,0.1,1.6,2.6-0.1,2.6h-0.2h-2c0,0,0,0,0,0
	c0,0-0.1,0-0.1,0c-0.6,0.1-1.1,0.6-1.1,1.2c0,0,0,0,0,0c0,0,0,0,0,0c0,0.7,0.6,1.3,1.3,1.3c0,0,0,0,0,0l2.2,0c0.4,0,1.3-0.2,1.9,0.7
	C45.7,52.7,44.9,54.2,43.6,54.2L43.6,54.2z"/>
<path class="st2" d="M90.6,29.1c1.7-2.5-0.1-6-3.2-6h0l-5.4,0c0,0,0,0,0,0s0,0,0,0c-0.7,0-1.3,0.6-1.3,1.3c0,0,0,0,0,0c0,0,0,0,0,0
	v10.9c0,0.2,0,0.3,0.1,0.4c0.2,0.4,0.6,0.8,1,0.8c0,0,0.1,0,0.1,0H88C91.9,36.6,93.6,31.6,90.6,29.1C90.5,29.2,90.6,29.1,90.6,29.1
	L90.6,29.1z M88,34.1h-4.8v-8.4l4.3,0c1.7,0.1,1.6,2.6-0.1,2.6h-0.2h-2c0,0,0,0,0,0c0,0-0.1,0-0.1,0c-0.6,0.1-1.1,0.6-1.1,1.2
	c0,0,0,0,0,0c0,0,0,0,0,0c0,0.7,0.6,1.3,1.3,1.3c0,0,0,0,0,0l2.2,0c0.4,0,1.3-0.2,1.9,0.7C90.1,32.6,89.3,34.1,88,34.1L88,34.1z"/>
<path class="st2" d="M96.2,54.2h-6v-2.9h4.9c0.7,0,1.3-0.6,1.3-1.3c0-0.7-0.6-1.3-1.3-1.3h-4.9v-2.9h6c0.7,0,1.3-0.6,1.3-1.3
	c0-0.7-0.6-1.3-1.3-1.3h-7.1c-0.1,0-0.1,0-0.2,0c-0.7,0-1.3,0.6-1.3,1.3c0,0,0,0,0,0c0,0,0,0,0,0v10.9c0,0.5,0.2,0.9,0.6,1.1
	c0.2,0.1,0.4,0.2,0.6,0.2h7.3c0.7,0,1.3-0.6,1.3-1.3C97.5,54.8,96.9,54.2,96.2,54.2"/>
<path class="st2" d="M84.5,43.3h-9.1c-0.7,0-1.3,0.6-1.3,1.3c0,0.7,0.6,1.3,1.3,1.3h3.3v9.6c0,0.7,0.6,1.3,1.3,1.3
	c0.7,0,1.3-0.6,1.3-1.3v-9.6h3.3c0.7,0,1.3-0.6,1.3-1.3C85.8,43.9,85.2,43.3,84.5,43.3"/>
<path class="st2" d="M72.2,43.3H63c-0.7,0-1.3,0.6-1.3,1.3c0,0.7,0.6,1.3,1.3,1.3h3.3v9.6c0,0.7,0.6,1.3,1.3,1.3
	c0.7,0,1.3-0.6,1.3-1.3v-9.6h3.3c0.7,0,1.3-0.6,1.3-1.3C73.4,43.9,72.9,43.3,72.2,43.3L72.2,43.3z"/>
<path class="st2" d="M62.6,54.9L62.6,54.9l-5.5-10.8c-0.2-0.5-0.6-0.8-1.2-0.8c-0.5,0-1,0.3-1.2,0.8l-5.5,10.8l0,0
	c-0.1,0.2-0.1,0.4-0.1,0.6c0,0.7,0.6,1.3,1.3,1.3c0.5,0,0.9-0.3,1.1-0.7l0,0l4.4-8.7l1.9,3.6h-2.1c-0.7,0-1.3,0.6-1.3,1.3
	c0,0.7,0.6,1.3,1.3,1.3h3.4l1.3,2.5l0,0c0.2,0.4,0.6,0.7,1.1,0.7c0.7,0,1.3-0.6,1.3-1.3C62.8,55.2,62.7,55,62.6,54.9"/>
<path class="st2" d="M130.3,74h-6v-2.9h4.9c0.7,0,1.3-0.6,1.3-1.3c0-0.7-0.6-1.3-1.3-1.3h-4.9v-2.9h6c0.7,0,1.3-0.6,1.3-1.3
	c0-0.7-0.6-1.3-1.3-1.3h-7.1c-0.1,0-0.1,0-0.2,0c-0.7,0-1.3,0.6-1.3,1.3c0,0,0,0,0,0c0,0,0,0,0,0v10.9c0,0.5,0.2,0.9,0.6,1.1
	c0.2,0.1,0.4,0.2,0.6,0.2h7.3c0.7,0,1.3-0.6,1.3-1.3C131.6,74.6,131,74,130.3,74"/>
<path class="st2" d="M105.6,75.3V64.4c0-0.7-0.6-1.3-1.3-1.3c-0.7,0-1.3,0.6-1.3,1.3v0v7.5l-7-8.3v0c0,0,0,0,0,0c0,0,0,0-0.1-0.1
	c0,0,0,0,0,0c-0.2-0.2-0.5-0.3-0.8-0.4c0,0-0.1,0-0.1,0c0,0-0.1,0-0.1,0c0,0,0,0,0,0c0,0-0.1,0-0.1,0c0,0,0,0,0,0c0,0-0.1,0-0.1,0
	c0,0,0,0,0,0c0,0,0,0-0.1,0c0,0,0,0,0,0c0,0,0,0-0.1,0c0,0,0,0,0,0c0,0,0,0-0.1,0c0,0,0,0,0,0c0,0,0,0-0.1,0c0,0,0,0,0,0
	c0,0,0,0,0,0c0,0,0,0,0,0c0,0,0,0,0,0c0,0,0,0,0,0c0,0,0,0,0,0c0,0,0,0,0,0.1c0,0,0,0,0,0c0,0,0,0,0,0.1c0,0,0,0,0,0.1
	c0,0,0,0,0,0.1c0,0,0,0,0,0.1c0,0,0,0,0,0.1c0,0,0,0,0,0.1c0,0,0,0,0,0.1c0,0,0,0,0,0.1c0,0,0,0,0,0.1c0,0,0,0,0,0c0,0,0,0,0,0v10.9
	c0,0.7,0.6,1.3,1.3,1.3c0.7,0,1.3-0.6,1.3-1.3v-7.5l7,8.3v0c0.2,0.3,0.6,0.4,1,0.4C105,76.5,105.5,76,105.6,75.3L105.6,75.3
	C105.6,75.3,105.6,75.3,105.6,75.3L105.6,75.3L105.6,75.3L105.6,75.3z"/>
<path class="st2" d="M92,74.7L92,74.7l-5.5-10.8c-0.2-0.5-0.6-0.8-1.2-0.8c-0.5,0-1,0.3-1.2,0.8l-5.5,10.8l0,0
	c-0.1,0.2-0.1,0.4-0.1,0.6c0,0.7,0.6,1.3,1.3,1.3c0.5,0,0.9-0.3,1.1-0.7l0,0l4.4-8.7l1.9,3.6h-2.1c-0.7,0-1.3,0.6-1.3,1.3
	c0,0.7,0.6,1.3,1.3,1.3h3.4l1.3,2.5l0,0c0.2,0.4,0.6,0.7,1.1,0.7c0.7,0,1.3-0.6,1.3-1.3C92.1,75.1,92.1,74.9,92,74.7"/>
<path class="st2" d="M76.6,64.3c0-0.7-0.6-1.3-1.3-1.3c-0.7,0-1.3,0.6-1.3,1.3v10.9h0c0,0,0,0,0,0c0,0.7,0.6,1.3,1.3,1.3
	c0.7,0,1.3-0.6,1.3-1.3c0,0,0,0,0,0h0V64.3L76.6,64.3z"/>
<path class="st2" d="M70.5,74h-5.2v-9.6c0-0.7-0.6-1.3-1.3-1.3c-0.7,0-1.3,0.6-1.3,1.3v10.9c0,0.7,0.6,1.3,1.3,1.3h6.4
	c0.7,0,1.3-0.6,1.3-1.3C71.8,74.6,71.2,74,70.5,74"/>
<path class="st2" d="M59.4,74h-5.2v-9.6c0-0.7-0.6-1.3-1.3-1.3c-0.7,0-1.3,0.6-1.3,1.3v10.9c0,0.7,0.6,1.3,1.3,1.3h6.4
	c0.7,0,1.3-0.6,1.3-1.3C60.6,74.6,60.1,74,59.4,74"/>
<path class="st2" d="M49.1,74.7L49.1,74.7l-5.5-10.8c-0.2-0.5-0.6-0.8-1.2-0.8c-0.5,0-1,0.3-1.2,0.8l-5.5,10.8l0,0
	c-0.1,0.2-0.1,0.4-0.1,0.6c0,0.7,0.6,1.3,1.3,1.3c0.5,0,0.9-0.3,1.1-0.7l0,0l4.4-8.7l1.9,3.6h-2.1c-0.7,0-1.3,0.6-1.3,1.3
	c0,0.7,0.6,1.3,1.3,1.3h3.4l1.3,2.5l0,0c0.2,0.4,0.6,0.7,1.1,0.7c0.7,0,1.3-0.6,1.3-1.3C49.2,75.1,49.2,74.9,49.1,74.7"/>
<path class="st2" d="M117.5,34h-5.2v-9.6c0-0.7-0.6-1.3-1.3-1.3c-0.7,0-1.3,0.6-1.3,1.3v10.9c0,0.7,0.6,1.3,1.3,1.3h6.4
	c0.7,0,1.3-0.6,1.3-1.3C118.7,34.6,118.2,34,117.5,34"/>
<path class="st2" d="M107.2,34.7L107.2,34.7l-5.5-10.8c-0.2-0.5-0.6-0.8-1.2-0.8c-0.5,0-1,0.3-1.2,0.8l-5.5,10.8l0,0
	c-0.1,0.2-0.1,0.4-0.1,0.6c0,0.7,0.6,1.3,1.3,1.3c0.5,0,0.9-0.3,1.1-0.7l0,0l4.4-8.7l1.9,3.6h-2.1c-0.7,0-1.3,0.6-1.3,1.3
	c0,0.7,0.6,1.3,1.3,1.3h3.4l1.3,2.5l0,0c0.2,0.4,0.6,0.7,1.1,0.7c0.7,0,1.3-0.6,1.3-1.3C107.3,35.1,107.3,34.9,107.2,34.7"/>
<path class="st2" d="M61.6,34h-5.2v-9.6c0-0.7-0.6-1.3-1.3-1.3c-0.7,0-1.3,0.6-1.3,1.3v10.9c0,0.7,0.6,1.3,1.3,1.3h6.4
	c0.7,0,1.3-0.6,1.3-1.3C62.8,34.6,62.3,34,61.6,34"/>
<path class="st1" d="M46.6,36.1c0.5-0.3,1-0.7,1.5-1.1c0.5-0.5,0.5-1.3,0-1.8c-0.5-0.5-1.3-0.5-1.9,0c-0.3,0.3-0.6,0.5-0.9,0.7
	c-0.7,0.4-1.5,0.6-2.3,0.6c-2.5,0-4.5-2-4.5-4.5c0-2.5,2-4.5,4.5-4.5c0.8,0,1.6,0.2,2.3,0.6c0.3,0.2,0.7,0.4,0.9,0.7
	c0.5,0.5,1.3,0.5,1.9,0c0.5-0.5,0.5-1.3,0-1.8c-0.4-0.4-0.9-0.8-1.5-1.1c-1.1-0.6-2.3-1-3.6-1c-3.9,0-7.2,3.2-7.2,7.1
	c0,3.9,3.2,7.1,7.2,7.1C44.3,37.1,45.5,36.7,46.6,36.1"/>
<path class="st1" d="M41.7,30c0,0.7,0.6,1.3,1.3,1.3h7.3c0.7,0,1.3-0.6,1.3-1.3c0-0.7-0.6-1.3-1.3-1.3H43
	C42.3,28.6,41.7,29.2,41.7,30"/>
<path class="st2" d="M117.8,75.8c0.5-0.3,1-0.7,1.4-1.1c0.5-0.5,0.5-1.3,0-1.8c-0.5-0.5-1.3-0.5-1.8,0c-0.3,0.3-0.6,0.5-0.9,0.7
	c-0.7,0.4-1.4,0.6-2.2,0.6c-2.4,0-4.4-2-4.4-4.4c0-2.4,2-4.4,4.4-4.4c0.8,0,1.5,0.2,2.2,0.6c0.3,0.2,0.6,0.4,0.9,0.7
	c0.5,0.5,1.3,0.5,1.8,0c0.5-0.5,0.5-1.3,0-1.8c-0.4-0.4-0.9-0.8-1.4-1.1c-1.1-0.6-2.3-0.9-3.5-0.9c-3.8,0-7,3.1-7,6.9
	c0,3.8,3.1,6.9,7,6.9C115.5,76.7,116.7,76.4,117.8,75.8"/>
</svg>
