<?xml version="1.0" encoding="UTF-8"?>
<svg width="33.6000001px" height="33.6000481px" viewBox="0 0 33.6000001 33.6000481" version="1.1" xmlns="http://www.w3.org/2000/svg" xmlns:xlink="http://www.w3.org/1999/xlink">
    <title>CRM Producers Icon</title>
    <g id="Page-1" stroke="none" stroke-width="1" fill="none" fill-rule="evenodd" stroke-linecap="round" stroke-linejoin="round">
        <g id="UN-CRM---Home" transform="translate(-356.200000, -619.199990)" stroke="#009EDB" stroke-width="1.6">
            <g id="CRM-Producers-Icon" transform="translate(357.000000, 620.000000)">
                <path d="M6.80863939,0.655985438 C6.67326044,0.576373146 6.60733659,0.415231709 6.64762719,0.262414138 C6.6879178,0.109596568 6.82447514,0.00283344246 6.98115437,0.00165624313 C13.7718448,-0.0713590318 21.1510339,2.24828009 27.2934018,11.2347755 L27.2934018,11.2347755 C27.6720731,11.78424 27.613844,12.5270745 27.1542769,13.0096083 L25.1550509,15.0975643 C24.8439213,15.4185604 24.399441,15.5700084 23.9592007,15.5050267 C23.5189604,15.440045 23.1360685,15.1664728 22.9290511,14.7689956 L22.4268099,13.7959266 C19.3312791,7.8086741 11.81853,3.62152891 6.80863939,0.655985438 Z" id="Path"></path>
                <path d="M15.9268908,6.54494819 L0.638446414,21.0679672 C0.238898043,21.4469293 0.00862743603,21.9731724 0.000237497961,22.5264818 C-0.00815244011,23.0797913 0.206055016,23.6128996 0.59392642,24.0040237 L0.59392642,24.0040237 C0.980985317,24.3949636 1.50837763,24.6110933 2.05591169,24.6031573 C2.60344575,24.5952214 3.12447118,24.3638959 3.50024731,23.9618995 L18.077763,8.35488452" id="Path"></path>
                <path d="M14.2643472,21.5622244 C14.0476231,21.6871677 13.9137523,21.9197193 13.9137523,22.1716212 L13.9137523,26.2717097 C13.9137523,26.5236115 14.0476231,26.7561631 14.2643472,26.8811064 L18.4380967,29.2878022 C18.6533238,29.4132149 18.9184945,29.4132149 19.1337216,29.2878022 L23.3074711,26.8811064 C23.5241952,26.7561631 23.658066,26.5236115 23.658066,26.2717097 L23.658066,22.1786419 C23.658066,21.92674 23.5241952,21.6941884 23.3074711,21.5692451 L19.1337216,19.1625494 C18.9184945,19.0371366 18.6533238,19.0371366 18.4380967,19.1625494 L14.2643472,21.5622244 Z" id="Path"></path>
                <path d="M26.7132507,18.8859338 C26.5380882,19.0185228 26.4350007,19.2266081 26.4350007,19.4475898 L26.4350007,20.8376883 C26.4351946,21.0664084 26.5457674,21.2806962 26.7313369,21.4119815 L28.8182116,22.8863284 C29.0578933,23.0558967 29.3771074,23.0558967 29.616789,22.8863284 L31.7036638,21.4119815 C31.8892333,21.2806962 31.9998061,21.0664084 32,20.8376883 L32,19.4475898 C32,19.2266081 31.8969125,19.0185228 31.72175,18.8859338 L29.6348753,17.3062764 C29.387542,17.1190577 29.0474587,17.1190577 28.8001254,17.3062764 L26.7132507,18.8859338 Z" id="Path"></path>
                <path d="M26.7132507,27.8724292 C26.5380882,28.0050182 26.4350007,28.2131035 26.4350007,28.4340851 L26.4350007,29.8241836 C26.4351946,30.0529038 26.5457674,30.2671915 26.7313369,30.3984769 L28.8182116,31.8728237 C29.0578933,32.0423921 29.3771074,32.0423921 29.616789,31.8728237 L31.7036638,30.3984769 C31.8892333,30.2671915 31.9998061,30.0529038 32,29.8241836 L32,28.4340851 C32,28.2131035 31.8969125,28.0050182 31.72175,27.8724292 L29.6348753,26.2927718 C29.387542,26.1055531 29.0474587,26.1055531 28.8001254,26.2927718 L26.7132507,27.8724292 Z" id="Path"></path>
            </g>
        </g>
    </g>
</svg>