<svg xmlns="http://www.w3.org/2000/svg" viewBox="48.571 -88 1474.073 1191.143"><rect width="1000%" height="1000%" x="-500%" y="-500%" fill="#EEEEEE"/><path fill="none" stroke="#EEEEEE" stroke-width="8" d="M567.27 325.008l-.01-.01V151.57H404"/><defs><linearGradient id="a" x1="100%" x2="50%" y1="100%" y2="50%"><stop offset="0%" stop-color="#3397DA"/><stop offset="100%" stop-color="#aabbccdd"/></linearGradient></defs><path fill="none" stroke="url(#a)" stroke-width="3" d="M567.27 325.008l-.01-.01V151.57H404"/><path fill="none" stroke="url(#a)" stroke-width="1.5" d="M557.298 131.581l-2.01-.01v8h2M561.298 131.581l1.99-.01v8h-2"/><path fill="none" stroke="#EEEEEE" stroke-width="8" d="M773.059 325.008l-.01-.01h277.095V185.714"/><defs><linearGradient id="b" x1="0%" x2="50%" y1="0%" y2="50%"><stop offset="0%" stop-color="#3397DA"/><stop offset="100%" stop-color="#aabbccdd"/></linearGradient></defs><path fill="none" stroke="url(#b)" stroke-width="3" d="M773.059 325.008l-.01-.01h277.095V185.714"/><path fill="none" stroke="#EEEEEE" stroke-width="8" d="M1044.304 465.675l-.01-.01h172.134V337.57"/><defs><linearGradient id="c" x1="0%" x2="50%" y1="0%" y2="50%"><stop offset="0%" stop-color="#3397DA"/><stop offset="100%" stop-color="#aabbccdd"/></linearGradient></defs><path fill="none" stroke="url(#c)" stroke-width="3" d="M1044.304 465.675l-.01-.01h172.134V337.57"/><path fill="none" stroke="#EEEEEE" stroke-width="8" d="M803.702 568.42l-.01-.01h601.665v-82.46"/><defs><linearGradient id="d" x1="0%" x2="50%" y1="0%" y2="50%"><stop offset="0%" stop-color="#3397DA"/><stop offset="100%" stop-color="#aabbccdd"/></linearGradient></defs><path fill="none" stroke="url(#d)" stroke-width="3" d="M803.702 568.42l-.01-.01h601.665v-82.46"/><path fill="none" stroke="#EEEEEE" stroke-width="8" d="M759.749 592.865l-.01-.01h340.548v114.43"/><defs><linearGradient id="e" x1="0%" x2="50%" y1="0%" y2="50%"><stop offset="0%" stop-color="#3397DA"/><stop offset="100%" stop-color="#aabbccdd"/></linearGradient></defs><path fill="none" stroke="url(#e)" stroke-width="3" d="M759.749 592.865l-.01-.01h340.548v114.43"/><path fill="none" stroke="#EEEEEE" stroke-width="8" d="M715.796 617.31l-.01-.01v245.986h158.571"/><defs><linearGradient id="f" x1="0%" x2="50%" y1="0%" y2="50%"><stop offset="0%" stop-color="#3397DA"/><stop offset="100%" stop-color="#aabbccdd"/></linearGradient></defs><path fill="none" stroke="url(#f)" stroke-width="3" d="M715.796 617.31l-.01-.01v245.986h158.571"/><path fill="none" stroke="url(#f)" stroke-width="1.5" d="M735.723 843.296l-2.01-.01v8h2M739.723 843.296l1.99-.01v8h-2"/><path fill="none" stroke="#EEEEEE" stroke-width="8" d="M671.843 641.754l-.01-.01v350.475h148.264"/><defs><linearGradient id="g" x1="0%" x2="50%" y1="0%" y2="50%"><stop offset="0%" stop-color="#3397DA"/><stop offset="100%" stop-color="#aabbccdd"/></linearGradient></defs><path fill="none" stroke="url(#g)" stroke-width="3" d="M671.843 641.754l-.01-.01v350.475h148.264"/><path fill="none" stroke="url(#g)" stroke-width="1.5" d="M698.534 972.229l-2.01-.01v8h2M702.534 972.229l1.99-.01v8h-2"/><path fill="none" stroke="#EEEEEE" stroke-width="8" d="M699.297.01l-.01-.01v361.665h-63.43"/><defs><linearGradient id="h" x1="0%" x2="50%" y1="0%" y2="50%"><stop offset="0%" stop-color="#3397DA"/><stop offset="100%" stop-color="#3397DA"/></linearGradient></defs><path fill="none" stroke="url(#h)" stroke-width="3" d="M699.297.01l-.01-.01v361.665h-63.43"/><path fill="none" stroke="#EEEEEE" stroke-width="8" d="M498.674 288.341l-.01-.01H214.002v68.883"/><defs><linearGradient id="i" x1="100%" x2="50%" y1="100%" y2="50%"><stop offset="0%" stop-color="#3397DA"/><stop offset="100%" stop-color="#3397DA"/></linearGradient></defs><path fill="none" stroke="url(#i)" stroke-width="3" d="M498.674 288.341l-.01-.01H214.002v68.883"/><path fill="none" stroke="#EEEEEE" stroke-width="8" d="M704.462 361.675l-.01-.01h339.842v104"/><defs><linearGradient id="j" x1="0%" x2="50%" y1="0%" y2="50%"><stop offset="0%" stop-color="#3397DA"/><stop offset="100%" stop-color="#3397DA"/></linearGradient></defs><path fill="none" stroke="url(#j)" stroke-width="3" d="M704.462 361.675l-.01-.01h339.842v104"/><path fill="none" stroke="#EEEEEE" stroke-width="8" d="M635.866 398.341l-.01-.01v231.19h14"/><defs><linearGradient id="k" x1="0%" x2="50%" y1="0%" y2="50%"><stop offset="0%" stop-color="#3397DA"/><stop offset="100%" stop-color="#3397DA"/></linearGradient></defs><path fill="none" stroke="url(#k)" stroke-width="3" d="M635.866 398.341l-.01-.01v231.19h14"/><path fill="none" stroke="url(#k)" stroke-width="1.5" d="M655.866 499.032l-2.01-.01v8h2M659.866 499.032l1.99-.01v8h-2"/><path fill="none" stroke="#EEEEEE" stroke-width="8" d="M627.89 617.31l-.01-.01v370.843H279.143"/><defs><linearGradient id="l" x1="0%" x2="50%" y1="0%" y2="50%"><stop offset="0%" stop-color="#3397DA"/><stop offset="100%" stop-color="#3397DA"/></linearGradient></defs><path fill="none" stroke="url(#l)" stroke-width="3" d="M627.89 617.31l-.01-.01v370.843H279.143"/><path fill="none" stroke="url(#l)" stroke-width="1.5" d="M449.084 968.153l-2.01-.01v8h2M453.084 968.153l1.99-.01v8h-2"/><path fill="none" stroke="#EEEEEE" stroke-width="8" d="M583.937 592.865l-.01-.01H268.362v210.716"/><defs><linearGradient id="m" x1="0%" x2="50%" y1="0%" y2="50%"><stop offset="0%" stop-color="#3397DA"/><stop offset="100%" stop-color="#3397DA"/></linearGradient></defs><path fill="none" stroke="url(#m)" stroke-width="3" d="M583.937 592.865l-.01-.01H268.362v210.716"/><path fill="none" stroke="url(#m)" stroke-width="1.5" d="M288.372 708.081l-2.01-.01v8h2M292.372 708.081l1.99-.01v8h-2"/><path fill="none" stroke="#EEEEEE" stroke-width="8" d="M496.03 543.976l-.01-.01H141.287V296.214"/><defs><linearGradient id="n" x1="100%" x2="50%" y1="100%" y2="50%"><stop offset="0%" stop-color="#3397DA"/><stop offset="100%" stop-color="#3397DA"/></linearGradient></defs><path fill="none" stroke="url(#n)" stroke-width="3" d="M496.03 543.976l-.01-.01H141.287V296.214"/><path fill="none" stroke="#EEEEEE" stroke-width="8" d="M539.983 568.42l-.01-.01H286.717V326.715"/><defs><linearGradient id="o" x1="100%" x2="50%" y1="100%" y2="50%"><stop offset="0%" stop-color="#3397DA"/><stop offset="100%" stop-color="#3397DA"/></linearGradient></defs><path fill="none" stroke="url(#o)" stroke-width="3" d="M539.983 568.42l-.01-.01H286.717V326.715"/><path fill="none" stroke="#EEEEEE" stroke-width="8" d="M1366.724 561.96l-.01-.01h-322.42v-80.285"/><defs><linearGradient id="p" x1="100%" x2="50%" y1="100%" y2="50%"><stop offset="0%" stop-color="#aabbccdd"/><stop offset="100%" stop-color="#3397DA"/></linearGradient></defs><path fill="none" stroke="url(#p)" stroke-width="3" d="M1366.724 561.96l-.01-.01h-322.42v-80.285"/><path fill="#FFFFFF" stroke="#3397DA" stroke-width="3" d="M517.927-68h362.72V68h-362.72z"/><path fill="#3397da" stroke="#3397da" d="M518.927-27h362.72"/><path fill="none" stroke="#3397DA" stroke-width="3" d="M517.927-68h362.72V68h-362.72z"/><text x="527.927" y="-50" style="font:700 16px 'Lucida Console',monospace" fill="#000000">DigitalConformityCredential</text><text x="527.927" y="-34" style="font:500 14px 'Lucida Console',monospace" fill="#999">＜＜untp.VerifiableCredential＞＞</text><text x="527.927" y="-10" style="font:500 14px 'Lucida Console',monospace" fill="#666">@context:</text><text x="607.785" y="-10" style="font:500 14px 'Lucida Console',monospace" fill="#02b57b">Text[]</text><text x="527.927" y="4" style="font:500 14px 'Lucida Console',monospace" fill="#666">id:</text><text x="557.213" y="4" style="font:500 14px 'Lucida Console',monospace" fill="#C9A30B">URI</text><text x="527.927" y="18" style="font:500 14px 'Lucida Console',monospace" fill="#666">issuer:</text><text x="590.928" y="18" style="font:500 14px 'Lucida Console',monospace" fill="#02b57b">CredentialIssuer</text><text x="527.927" y="32" style="font:500 14px 'Lucida Console',monospace" fill="#666">validFrom:</text><text x="616.214" y="32" style="font:500 14px 'Lucida Console',monospace" fill="#02b57b">DateTime</text><text x="527.927" y="46" style="font:500 14px 'Lucida Console',monospace" fill="#666">validUntil:</text><text x="624.643" y="46" style="font:500 14px 'Lucida Console',monospace" fill="#02b57b">DateTime</text><text x="527.927" y="60" style="font:500 14px 'Lucida Console',monospace" fill="#000000">credentialSubject:</text><text x="683.644" y="60" style="font:500 14px 'Lucida Console',monospace" fill="#3397DA">ConformityAttestation</text><path fill="#FFFFFF" stroke="#3397DA" stroke-width="3" d="M430.068 251.665h411.577v220H430.068z"/><path fill="#3397da" stroke="#3397da" d="M431.068 292.665h411.577"/><path fill="none" stroke="#3397DA" stroke-width="3" d="M430.068 251.665h411.577v220H430.068z"/><text x="440.068" y="269.665" style="font:700 16px 'Lucida Console',monospace" fill="#000000">ConformityAttestation</text><text x="440.068" y="285.665" style="font:500 14px 'Lucida Console',monospace" fill="#999">＜＜untp.Attestation＞＞</text><text x="440.068" y="309.665" style="font:500 14px 'Lucida Console',monospace" fill="#000000">id:</text><text x="469.354" y="309.665" style="font:500 14px 'Lucida Console',monospace" fill="#C9A30B">URI</text><text x="440.068" y="323.665" style="font:500 14px 'Lucida Console',monospace" fill="#000000">name:</text><text x="486.211" y="323.665" style="font:500 14px 'Lucida Console',monospace" fill="#547000">Text</text><text x="440.068" y="337.665" style="font:500 14px 'Lucida Console',monospace" fill="#000000">assessorLevel:</text><text x="562.07" y="337.665" style="font:500 14px 'Lucida Console',monospace" fill="#547000">Code(assessorLevelCode)</text><text x="440.068" y="351.665" style="font:500 14px 'Lucida Console',monospace" fill="#000000">assessmentLevel:</text><text x="578.927" y="351.665" style="font:500 14px 'Lucida Console',monospace" fill="#547000">Code(assessmentLevelCode)</text><text x="440.068" y="365.665" style="font:500 14px 'Lucida Console',monospace" fill="#000000">attestationType:</text><text x="578.927" y="365.665" style="font:500 14px 'Lucida Console',monospace" fill="#547000">Code(attestationTypeCode)</text><text x="440.068" y="379.665" style="font:500 14px 'Lucida Console',monospace" fill="#000000">description:</text><text x="545.212" y="379.665" style="font:500 14px 'Lucida Console',monospace" fill="#547000">Text</text><text x="440.068" y="393.665" style="font:500 14px 'Lucida Console',monospace" fill="#000000">issuedToParty:</text><text x="562.07" y="393.665" style="font:500 14px 'Lucida Console',monospace" fill="#3397DA">Party</text><text x="440.068" y="407.665" style="font:500 14px 'Lucida Console',monospace" fill="#000000">authorisation:</text><text x="562.07" y="407.665" style="font:500 14px 'Lucida Console',monospace" fill="#547000">untp.Endorsement[]</text><text x="440.068" y="421.665" style="font:500 14px 'Lucida Console',monospace" fill="#000000">conformityCertificate:</text><text x="629.499" y="421.665" style="font:500 14px 'Lucida Console',monospace" fill="#547000">untp.SecureLink</text><text x="440.068" y="435.665" style="font:500 14px 'Lucida Console',monospace" fill="#000000">auditableEvidence:</text><text x="595.785" y="435.665" style="font:500 14px 'Lucida Console',monospace" fill="#547000">untp.SecureLink</text><text x="440.068" y="449.665" style="font:500 14px 'Lucida Console',monospace" fill="#000000">scope:</text><text x="494.64" y="449.665" style="font:500 14px 'Lucida Console',monospace" fill="#3397DA">ConformityAssessmentScheme</text><text x="440.068" y="463.665" style="font:500 14px 'Lucida Console',monospace" fill="#000000">assessment:</text><text x="536.784" y="463.665" style="font:500 14px 'Lucida Console',monospace" fill="#3397DA">ConformityAssessment[]</text><path fill="#FFFFFF" stroke="#3397DA" stroke-width="3" d="M894.067 404.665h300.453v122H894.067z"/><path fill="#3397da" stroke="#3397da" d="M895.067 445.665h300.454"/><path fill="none" stroke="#3397DA" stroke-width="3" d="M894.067 404.665h300.453v122H894.067z"/><text x="904.067" y="422.665" style="font:700 16px 'Lucida Console',monospace" fill="#000000">ConformityAssessmentScheme</text><text x="904.067" y="438.665" style="font:500 14px 'Lucida Console',monospace" fill="#999">＜＜untp.Standard＞＞</text><text x="904.067" y="462.665" style="font:500 14px 'Lucida Console',monospace" fill="#666">id:</text><text x="933.354" y="462.665" style="font:500 14px 'Lucida Console',monospace" fill="#C9A30B">URI</text><text x="904.067" y="476.665" style="font:500 14px 'Lucida Console',monospace" fill="#666">name:</text><text x="950.211" y="476.665" style="font:500 14px 'Lucida Console',monospace" fill="#02b57b">Text</text><text x="904.067" y="490.665" style="font:500 14px 'Lucida Console',monospace" fill="#666">issuingParty:</text><text x="1017.641" y="490.665" style="font:500 14px 'Lucida Console',monospace" fill="#02b57b">Identifier</text><text x="904.067" y="504.665" style="font:500 14px 'Lucida Console',monospace" fill="#666">issueDate:</text><text x="992.355" y="504.665" style="font:500 14px 'Lucida Console',monospace" fill="#02b57b">Date</text><text x="904.067" y="518.665" style="font:500 14px 'Lucida Console',monospace" fill="#000000">trustmark:</text><text x="992.355" y="518.665" style="font:500 14px 'Lucida Console',monospace" fill="#547000">untp.BinaryFile</text><path fill="#FFFFFF" stroke="#3397DA" stroke-width="3" d="M452.067 519.522h395.577v220H452.067z"/><path fill="#3397da" stroke="#3397da" d="M453.067 560.522h395.578"/><path fill="none" stroke="#3397DA" stroke-width="3" d="M452.067 519.522h395.577v220H452.067z"/><text x="462.067" y="537.522" style="font:700 16px 'Lucida Console',monospace" fill="#000000">ConformityAssessment</text><text x="462.067" y="553.522" style="font:500 14px 'Lucida Console',monospace" fill="#999">＜＜untp.Declaration＞＞</text><text x="462.067" y="577.522" style="font:500 14px 'Lucida Console',monospace" fill="#666">assessmentDate:</text><text x="592.498" y="577.522" style="font:500 14px 'Lucida Console',monospace" fill="#02b57b">Date</text><text x="462.067" y="591.522" style="font:500 14px 'Lucida Console',monospace" fill="#000000">id:</text><text x="491.354" y="591.522" style="font:500 14px 'Lucida Console',monospace" fill="#C9A30B">URI</text><text x="462.067" y="605.522" style="font:500 14px 'Lucida Console',monospace" fill="#000000">referenceStandard:</text><text x="617.784" y="605.522" style="font:500 14px 'Lucida Console',monospace" fill="#547000">untp.Standard</text><text x="462.067" y="619.522" style="font:500 14px 'Lucida Console',monospace" fill="#000000">referenceRegulation:</text><text x="634.642" y="619.522" style="font:500 14px 'Lucida Console',monospace" fill="#547000">untp.Regulation</text><text x="462.067" y="633.522" style="font:500 14px 'Lucida Console',monospace" fill="#000000">assessmentCriteria:</text><text x="626.213" y="633.522" style="font:500 14px 'Lucida Console',monospace" fill="#547000">untp.Criterion[]</text><text x="462.067" y="647.522" style="font:500 14px 'Lucida Console',monospace" fill="#000000">declaredValue:</text><text x="584.069" y="647.522" style="font:500 14px 'Lucida Console',monospace" fill="#547000">untp.Metric[]</text><text x="462.067" y="661.522" style="font:500 14px 'Lucida Console',monospace" fill="#000000">conformance:</text><text x="567.212" y="661.522" style="font:500 14px 'Lucida Console',monospace" fill="#547000">Indicator</text><text x="462.067" y="675.522" style="font:500 14px 'Lucida Console',monospace" fill="#000000">conformityTopic:</text><text x="600.927" y="675.522" style="font:500 14px 'Lucida Console',monospace" fill="#547000">Code(conformityTopicCode)</text><text x="462.067" y="689.522" style="font:500 14px 'Lucida Console',monospace" fill="#000000">assessedProduct:</text><text x="600.927" y="689.522" style="font:500 14px 'Lucida Console',monospace" fill="#3397DA">Product[]</text><text x="462.067" y="703.522" style="font:500 14px 'Lucida Console',monospace" fill="#000000">assessedFacility:</text><text x="609.356" y="703.522" style="font:500 14px 'Lucida Console',monospace" fill="#3397DA">Facility[]</text><text x="462.067" y="717.522" style="font:500 14px 'Lucida Console',monospace" fill="#000000">assessedOrganisation:</text><text x="643.07" y="717.522" style="font:500 14px 'Lucida Console',monospace" fill="#3397DA">Party</text><text x="462.067" y="731.522" style="font:500 14px 'Lucida Console',monospace" fill="#000000">auditor:</text><text x="533.497" y="731.522" style="font:500 14px 'Lucida Console',monospace" fill="#3397DA">Party</text><path fill="#FFFFFF" stroke="#3397DA" stroke-width="3" d="M129.712 913.143h298.861v150H129.712z"/><path fill="#3397da" stroke="#3397da" d="M130.712 954.143h298.862"/><path fill="none" stroke="#3397DA" stroke-width="3" d="M129.712 913.143h298.861v150H129.712z"/><text x="139.712" y="931.143" style="font:700 16px 'Lucida Console',monospace" fill="#000000">Product</text><text x="139.712" y="947.143" style="font:500 14px 'Lucida Console',monospace" fill="#999">＜＜untp.Product＞＞</text><text x="139.712" y="971.143" style="font:500 14px 'Lucida Console',monospace" fill="#000000">id:</text><text x="168.998" y="971.143" style="font:500 14px 'Lucida Console',monospace" fill="#C9A30B">URI</text><text x="139.712" y="985.143" style="font:500 14px 'Lucida Console',monospace" fill="#000000">name:</text><text x="185.856" y="985.143" style="font:500 14px 'Lucida Console',monospace" fill="#547000">Text</text><text x="139.712" y="999.143" style="font:500 14px 'Lucida Console',monospace" fill="#000000">registeredId:</text><text x="253.285" y="999.143" style="font:500 14px 'Lucida Console',monospace" fill="#547000">Text</text><text x="139.712" y="1013.143" style="font:500 14px 'Lucida Console',monospace" fill="#000000">idScheme:</text><text x="219.571" y="1013.143" style="font:500 14px 'Lucida Console',monospace" fill="#547000">untp.IdentifierScheme</text><text x="139.712" y="1027.143" style="font:500 14px 'Lucida Console',monospace" fill="#000000">serialNumber:</text><text x="253.285" y="1027.143" style="font:500 14px 'Lucida Console',monospace" fill="#547000">Text</text><text x="139.712" y="1041.143" style="font:500 14px 'Lucida Console',monospace" fill="#000000">batchNumber:</text><text x="244.857" y="1041.143" style="font:500 14px 'Lucida Console',monospace" fill="#547000">Text</text><text x="139.712" y="1055.143" style="font:500 14px 'Lucida Console',monospace" fill="#000000">IDverifiedByCAB:</text><text x="278.572" y="1055.143" style="font:500 14px 'Lucida Console',monospace" fill="#02b57b">Indicator</text><path fill="#FFFFFF" stroke="#3397DA" stroke-width="3" d="M108.288 728.571h320.147v150H108.288z"/><path fill="#3397da" stroke="#3397da" d="M109.288 769.571h320.147"/><path fill="none" stroke="#3397DA" stroke-width="3" d="M108.288 728.571h320.147v150H108.288z"/><text x="118.288" y="746.571" style="font:700 16px 'Lucida Console',monospace" fill="#000000">Facility</text><text x="118.288" y="762.571" style="font:500 14px 'Lucida Console',monospace" fill="#999">＜＜untp.Facility＞＞</text><text x="118.288" y="786.571" style="font:500 14px 'Lucida Console',monospace" fill="#000000">id:</text><text x="147.574" y="786.571" style="font:500 14px 'Lucida Console',monospace" fill="#C9A30B">URI</text><text x="118.288" y="800.571" style="font:500 14px 'Lucida Console',monospace" fill="#000000">name:</text><text x="164.431" y="800.571" style="font:500 14px 'Lucida Console',monospace" fill="#547000">Text</text><text x="118.288" y="814.571" style="font:500 14px 'Lucida Console',monospace" fill="#000000">registeredId:</text><text x="231.861" y="814.571" style="font:500 14px 'Lucida Console',monospace" fill="#547000">Text</text><text x="118.288" y="828.571" style="font:500 14px 'Lucida Console',monospace" fill="#000000">idScheme:</text><text x="198.146" y="828.571" style="font:500 14px 'Lucida Console',monospace" fill="#547000">untp.IdentifierScheme</text><text x="118.288" y="842.571" style="font:500 14px 'Lucida Console',monospace" fill="#000000">locationInformation:</text><text x="290.862" y="842.571" style="font:500 14px 'Lucida Console',monospace" fill="#547000">untp.Location</text><text x="118.288" y="856.571" style="font:500 14px 'Lucida Console',monospace" fill="#000000">address:</text><text x="189.717" y="856.571" style="font:500 14px 'Lucida Console',monospace" fill="#547000">untp.Address</text><text x="118.288" y="870.571" style="font:500 14px 'Lucida Console',monospace" fill="#000000">IDverifiedByCAB:</text><text x="257.147" y="870.571" style="font:500 14px 'Lucida Console',monospace" fill="#02b57b">Indicator</text><path fill="#FFFFFF" stroke="#3397DA" stroke-width="3" d="M68.571 265.714h290.861v122H68.571z"/><path fill="#3397da" stroke="#3397da" d="M69.571 306.714h290.862"/><path fill="none" stroke="#3397DA" stroke-width="3" d="M68.571 265.714h290.861v122H68.571z"/><text x="78.571" y="283.714" style="font:700 16px 'Lucida Console',monospace" fill="#000000">Party</text><text x="78.571" y="299.714" style="font:500 14px 'Lucida Console',monospace" fill="#999">＜＜untp.Party＞＞</text><text x="78.571" y="323.714" style="font:500 14px 'Lucida Console',monospace" fill="#000000">id:</text><text x="107.858" y="323.714" style="font:500 14px 'Lucida Console',monospace" fill="#C9A30B">URI</text><text x="78.571" y="337.714" style="font:500 14px 'Lucida Console',monospace" fill="#000000">name:</text><text x="124.715" y="337.714" style="font:500 14px 'Lucida Console',monospace" fill="#547000">Text</text><text x="78.571" y="351.714" style="font:500 14px 'Lucida Console',monospace" fill="#000000">registeredId:</text><text x="192.145" y="351.714" style="font:500 14px 'Lucida Console',monospace" fill="#547000">Text</text><text x="78.571" y="365.714" style="font:500 14px 'Lucida Console',monospace" fill="#000000">idScheme:</text><text x="158.43" y="365.714" style="font:500 14px 'Lucida Console',monospace" fill="#547000">untp.IdentifierScheme</text><text x="78.571" y="379.714" style="font:500 14px 'Lucida Console',monospace" fill="#000000">description:</text><text x="183.716" y="379.714" style="font:500 14px 'Lucida Console',monospace" fill="#547000">Text</text><path fill="#FFFFFF" stroke="#aabbccdd" stroke-width="3" d="M271.213 98.571h265.575v106H271.213z"/><path fill="#aabbccdd" stroke="#aabbccdd" d="M272.213 123.571h265.575"/><path fill="none" stroke="#aabbccdd" stroke-width="3" d="M271.213 98.571h265.575v106H271.213z"/><text x="281.213" y="116.571" style="font:700 16px 'Lucida Console',monospace" fill="#000000">untp.Endorsement</text><text x="281.213" y="140.571" style="font:500 14px 'Lucida Console',monospace" fill="#000000">id:</text><text x="310.499" y="140.571" style="font:500 14px 'Lucida Console',monospace" fill="#C9A30B">URI</text><text x="281.213" y="154.571" style="font:500 14px 'Lucida Console',monospace" fill="#000000">name:</text><text x="327.356" y="154.571" style="font:500 14px 'Lucida Console',monospace" fill="#02b57b">Text</text><text x="281.213" y="168.571" style="font:500 14px 'Lucida Console',monospace" fill="#000000">trustmark:</text><text x="369.5" y="168.571" style="font:500 14px 'Lucida Console',monospace" fill="#02b57b">BinaryFile</text><text x="281.213" y="182.571" style="font:500 14px 'Lucida Console',monospace" fill="#000000">issuingAuthority:</text><text x="428.501" y="182.571" style="font:500 14px 'Lucida Console',monospace" fill="#02b57b">Identifier</text><text x="281.213" y="196.571" style="font:500 14px 'Lucida Console',monospace" fill="#000000">endorsementEvidence:</text><text x="453.787" y="196.571" style="font:500 14px 'Lucida Console',monospace" fill="#02b57b">Link</text><path fill="#FFFFFF" stroke="#aabbccdd" stroke-width="3" d="M851.927 125.714h396.435v120H851.927z"/><path fill="#aabbccdd" stroke="#aabbccdd" d="M852.927 150.714h396.434"/><path fill="none" stroke="#aabbccdd" stroke-width="3" d="M851.927 125.714h396.435v120H851.927z"/><text x="861.927" y="143.714" style="font:700 16px 'Lucida Console',monospace" fill="#000000">untp.SecureLink</text><text x="861.927" y="167.714" style="font:500 14px 'Lucida Console',monospace" fill="#666">linkURL:</text><text x="933.357" y="167.714" style="font:500 14px 'Lucida Console',monospace" fill="#02b57b">URI</text><text x="861.927" y="181.714" style="font:500 14px 'Lucida Console',monospace" fill="#666">linkName:</text><text x="941.785" y="181.714" style="font:500 14px 'Lucida Console',monospace" fill="#02b57b">Text</text><text x="861.927" y="195.714" style="font:500 14px 'Lucida Console',monospace" fill="#666">linkType:</text><text x="941.785" y="195.714" style="font:500 14px 'Lucida Console',monospace" fill="#02b57b">Text</text><text x="861.927" y="209.714" style="font:500 14px 'Lucida Console',monospace" fill="#000000">hashDigest:</text><text x="958.643" y="209.714" style="font:500 14px 'Lucida Console',monospace" fill="#02b57b">Text</text><text x="861.927" y="223.714" style="font:500 14px 'Lucida Console',monospace" fill="#000000">hashMethod:</text><text x="958.643" y="223.714" style="font:500 14px 'Lucida Console',monospace" fill="#530abb">Code(hashMethodCode)</text><text x="861.927" y="237.714" style="font:500 14px 'Lucida Console',monospace" fill="#000000">encryptionMethod:</text><text x="1009.215" y="237.714" style="font:500 14px 'Lucida Console',monospace" fill="#530abb">Code(encryptionMethodCode)</text><path fill="#FFFFFF" stroke="#aabbccdd" stroke-width="3" d="M1100.498 298.571h231.86v78h-231.86z"/><path fill="#aabbccdd" stroke="#aabbccdd" d="M1101.498 323.571h231.86"/><path fill="none" stroke="#aabbccdd" stroke-width="3" d="M1100.498 298.571h231.86v78h-231.86z"/><text x="1110.498" y="316.571" style="font:700 16px 'Lucida Console',monospace" fill="#000000">untp.BinaryFile</text><text x="1110.498" y="340.571" style="font:500 14px 'Lucida Console',monospace" fill="#000000">fileName:</text><text x="1190.357" y="340.571" style="font:500 14px 'Lucida Console',monospace" fill="#02b57b">Text</text><text x="1110.498" y="354.571" style="font:500 14px 'Lucida Console',monospace" fill="#000000">fileType:</text><text x="1190.357" y="354.571" style="font:500 14px 'Lucida Console',monospace" fill="#530abb">Code(mimeType)</text><text x="1110.498" y="368.571" style="font:500 14px 'Lucida Console',monospace" fill="#000000">file:</text><text x="1156.642" y="368.571" style="font:500 14px 'Lucida Console',monospace" fill="#02b57b">Base64</text><path fill="#FFFFFF" stroke="#aabbccdd" stroke-width="3" d="M1250.784 439.95h231.86v92h-231.86z"/><path fill="#aabbccdd" stroke="#aabbccdd" d="M1251.784 464.95h231.86"/><path fill="none" stroke="#aabbccdd" stroke-width="3" d="M1250.784 439.95h231.86v92h-231.86z"/><text x="1260.784" y="457.95" style="font:700 16px 'Lucida Console',monospace" fill="#000000">untp.Standard</text><text x="1260.784" y="481.95" style="font:500 14px 'Lucida Console',monospace" fill="#000000">id:</text><text x="1290.07" y="481.95" style="font:500 14px 'Lucida Console',monospace" fill="#C9A30B">URI</text><text x="1260.784" y="495.95" style="font:500 14px 'Lucida Console',monospace" fill="#000000">name:</text><text x="1306.927" y="495.95" style="font:500 14px 'Lucida Console',monospace" fill="#02b57b">Text</text><text x="1260.784" y="509.95" style="font:500 14px 'Lucida Console',monospace" fill="#000000">issuingParty:</text><text x="1374.357" y="509.95" style="font:500 14px 'Lucida Console',monospace" fill="#02b57b">Identifier</text><text x="1260.784" y="523.95" style="font:500 14px 'Lucida Console',monospace" fill="#000000">issueDate:</text><text x="1349.071" y="523.95" style="font:500 14px 'Lucida Console',monospace" fill="#02b57b">Date</text><path fill="#aabbccdd" stroke="#EEEEEE" stroke-width="3" d="M1366.714 525.95l-12 22 12-2h0l12 2-12-22"/><path fill="#aabbccdd" stroke="#EEEEEE" stroke-width="3" d="M1366.714 525.95l-12 22 12-2h0l12 2-12-22"/><path fill="#aabbccdd" stroke="#aabbccdd" stroke-width="3" d="M1366.714 537.95v25.5"/><path fill="#FFFFFF" stroke="#aabbccdd" stroke-width="3" d="M923.355 654.286h353.862v106H923.355z"/><path fill="#aabbccdd" stroke="#aabbccdd" d="M924.355 679.286h353.863"/><path fill="none" stroke="#aabbccdd" stroke-width="3" d="M923.355 654.286h353.862v106H923.355z"/><text x="933.355" y="672.286" style="font:700 16px 'Lucida Console',monospace" fill="#000000">untp.Regulation</text><text x="933.355" y="696.286" style="font:500 14px 'Lucida Console',monospace" fill="#000000">id:</text><text x="962.642" y="696.286" style="font:500 14px 'Lucida Console',monospace" fill="#C9A30B">URI</text><text x="933.355" y="710.286" style="font:500 14px 'Lucida Console',monospace" fill="#000000">name:</text><text x="979.499" y="710.286" style="font:500 14px 'Lucida Console',monospace" fill="#02b57b">Text</text><text x="933.355" y="724.286" style="font:500 14px 'Lucida Console',monospace" fill="#000000">jurisdictionCountry:</text><text x="1105.93" y="724.286" style="font:500 14px 'Lucida Console',monospace" fill="#530abb">Code(countryCode)</text><text x="933.355" y="738.286" style="font:500 14px 'Lucida Console',monospace" fill="#000000">administeredBy:</text><text x="1063.786" y="738.286" style="font:500 14px 'Lucida Console',monospace" fill="#02b57b">Identifier</text><text x="933.355" y="752.286" style="font:500 14px 'Lucida Console',monospace" fill="#000000">effectiveDate:</text><text x="1055.357" y="752.286" style="font:500 14px 'Lucida Console',monospace" fill="#02b57b">Date</text><path fill="#FFFFFF" stroke="#aabbccdd" stroke-width="3" d="M756.213 824.286h236.289v78H756.213z"/><path fill="#aabbccdd" stroke="#aabbccdd" d="M757.213 849.286h236.289"/><path fill="none" stroke="#aabbccdd" stroke-width="3" d="M756.213 824.286h236.289v78H756.213z"/><text x="766.213" y="842.286" style="font:700 16px 'Lucida Console',monospace" fill="#000000">untp.Criterion</text><text x="766.213" y="866.286" style="font:500 14px 'Lucida Console',monospace" fill="#000000">id:</text><text x="795.499" y="866.286" style="font:500 14px 'Lucida Console',monospace" fill="#C9A30B">URI</text><text x="766.213" y="880.286" style="font:500 14px 'Lucida Console',monospace" fill="#000000">name:</text><text x="812.356" y="880.286" style="font:500 14px 'Lucida Console',monospace" fill="#02b57b">Text</text><text x="766.213" y="894.286" style="font:500 14px 'Lucida Console',monospace" fill="#000000">thresholdValues:</text><text x="905.072" y="894.286" style="font:500 14px 'Lucida Console',monospace" fill="#02b57b">Metric[]</text><path fill="#FFFFFF" stroke="#aabbccdd" stroke-width="3" d="M719.024 946.219H921.17v92H719.024z"/><path fill="#aabbccdd" stroke="#aabbccdd" d="M720.024 971.219H922.17"/><path fill="none" stroke="#aabbccdd" stroke-width="3" d="M719.024 946.219H921.17v92H719.024z"/><text x="729.024" y="964.219" style="font:700 16px 'Lucida Console',monospace" fill="#000000">untp.Metric</text><text x="729.024" y="988.219" style="font:500 14px 'Lucida Console',monospace" fill="#000000">metricName:</text><text x="825.74" y="988.219" style="font:500 14px 'Lucida Console',monospace" fill="#02b57b">Text</text><text x="729.024" y="1002.219" style="font:500 14px 'Lucida Console',monospace" fill="#000000">metricValue:</text><text x="834.169" y="1002.219" style="font:500 14px 'Lucida Console',monospace" fill="#02b57b">Measure</text><text x="729.024" y="1016.219" style="font:500 14px 'Lucida Console',monospace" fill="#000000">score:</text><text x="783.596" y="1016.219" style="font:500 14px 'Lucida Console',monospace" fill="#02b57b">Text</text><text x="729.024" y="1030.219" style="font:500 14px 'Lucida Console',monospace" fill="#000000">accuracy:</text><text x="808.883" y="1030.219" style="font:500 14px 'Lucida Console',monospace" fill="#02b57b">Numeric</text></svg>