<svg xmlns="http://www.w3.org/2000/svg" viewBox="-227.074 -83.143 1296.632 893.824"><rect width="1000%" height="1000%" x="-500%" y="-500%" fill="#EEEEEE"/><path fill="none" stroke="#EEEEEE" stroke-width="8" d="M444.554 266.008l-.01-.01v-283.14h-23.839"/><defs><linearGradient id="a" x1="100%" x2="50%" y1="100%" y2="50%"><stop offset="0%" stop-color="#FF3986"/><stop offset="100%" stop-color="#3397DA"/></linearGradient></defs><path fill="none" stroke="url(#a)" stroke-width="3" d="M444.554 266.008l-.01-.01v-283.14h-23.839"/><path fill="none" stroke="#EEEEEE" stroke-width="8" d="M606.842 238.758l-.01-.01v263.984h263.622"/><defs><linearGradient id="b" x1="0%" x2="50%" y1="0%" y2="50%"><stop offset="0%" stop-color="#FF3986"/><stop offset="100%" stop-color="#3397DA"/></linearGradient></defs><path fill="none" stroke="url(#b)" stroke-width="3" d="M606.842 238.758l-.01-.01v263.984h263.622"/><path fill="none" stroke="url(#b)" stroke-width="1.5" d="M770.412 482.742l-2.01-.01v8h2M774.412 482.742l1.99-.01v8h-2"/><path fill="none" stroke="#EEEEEE" stroke-width="8" d="M525.698 293.258l-.01-.01h322.837V94.02"/><defs><linearGradient id="c" x1="0%" x2="50%" y1="0%" y2="50%"><stop offset="0%" stop-color="#FF3986"/><stop offset="100%" stop-color="#3397DA"/></linearGradient></defs><path fill="none" stroke="url(#c)" stroke-width="3" d="M525.698 293.258l-.01-.01h322.837V94.02"/><path fill="none" stroke="#EEEEEE" stroke-width="8" d="M566.27 266.008l-.01-.01h313.598V115.353"/><defs><linearGradient id="d" x1="0%" x2="50%" y1="0%" y2="50%"><stop offset="0%" stop-color="#FF3986"/><stop offset="100%" stop-color="#3397DA"/></linearGradient></defs><path fill="none" stroke="url(#d)" stroke-width="3" d="M566.27 266.008l-.01-.01h313.598V115.353"/><path fill="none" stroke="#EEEEEE" stroke-width="8" d="M363.41 211.508l-.01-.01H122.054v83.083"/><defs><linearGradient id="e" x1="0%" x2="50%" y1="0%" y2="50%"><stop offset="0%" stop-color="#FF3986"/><stop offset="100%" stop-color="#2ECB70"/></linearGradient></defs><path fill="none" stroke="url(#e)" stroke-width="3" d="M363.41 211.508l-.01-.01H122.054v83.083"/><path fill="none" stroke="url(#e)" stroke-width="1.5" d="M142.064 235.091l-2.01-.01v8h2M146.064 235.091l1.99-.01v8h-2"/><path fill="none" stroke="#EEEEEE" stroke-width="8" d="M403.982 238.758l-.01-.01v315.576h-57.724"/><defs><linearGradient id="f" x1="0%" x2="50%" y1="0%" y2="50%"><stop offset="0%" stop-color="#FF3986"/><stop offset="100%" stop-color="#2ECB70"/></linearGradient></defs><path fill="none" stroke="url(#f)" stroke-width="3" d="M403.982 238.758l-.01-.01v315.576h-57.724"/><path fill="none" stroke="url(#f)" stroke-width="1.5" d="M423.982 487.834l-2.01-.01v8h2M427.982 487.834l1.99-.01v8h-2"/><path fill="none" stroke="#EEEEEE" stroke-width="8" d="M485.126 320.508l-.01-.01V104.373H617.23"/><defs><linearGradient id="g" x1="0%" x2="50%" y1="0%" y2="50%"><stop offset="0%" stop-color="#FF3986"/><stop offset="100%" stop-color="#2ECB70"/></linearGradient></defs><path fill="none" stroke="url(#g)" stroke-width="3" d="M485.126 320.508l-.01-.01V104.373H617.23"/><path fill="none" stroke="#EEEEEE" stroke-width="8" d="M420.715-17.133l-.01-.01h396.486V83.353"/><defs><linearGradient id="h" x1="0%" x2="50%" y1="0%" y2="50%"><stop offset="0%" stop-color="#3397DA"/><stop offset="100%" stop-color="#3397DA"/></linearGradient></defs><path fill="none" stroke="url(#h)" stroke-width="3" d="M420.715-17.133l-.01-.01h396.486V83.353"/><path fill="none" stroke="#EEEEEE" stroke-width="8" d="M414.652 554.334l-.01-.01h275.86v184.358"/><defs><linearGradient id="i" x1="0%" x2="50%" y1="0%" y2="50%"><stop offset="0%" stop-color="#2ECB70"/><stop offset="100%" stop-color="#3397DA"/></linearGradient></defs><path fill="none" stroke="url(#i)" stroke-width="3" d="M414.652 554.334l-.01-.01h275.86v184.358"/><path fill="none" stroke="#EEEEEE" stroke-width="8" d="M346.258 577.334l-.01-.01v141.358h-96.803"/><defs><linearGradient id="j" x1="0%" x2="50%" y1="0%" y2="50%"><stop offset="0%" stop-color="#2ECB70"/><stop offset="100%" stop-color="#2ECB70"/></linearGradient></defs><path fill="none" stroke="url(#j)" stroke-width="3" d="M346.258 577.334l-.01-.01v141.358h-96.803"/><path fill="none" stroke="url(#j)" stroke-width="1.5" d="M366.258 672.192l-2.01-.01v8h2M370.258 672.192l1.99-.01v8h-2"/><path fill="none" stroke="#EEEEEE" stroke-width="8" d="M277.865 531.334l-.01-.01H18.29v-5.54"/><defs><linearGradient id="k" x1="100%" x2="50%" y1="100%" y2="50%"><stop offset="0%" stop-color="#2ECB70"/><stop offset="100%" stop-color="#3397DA"/></linearGradient></defs><path fill="none" stroke="url(#k)" stroke-width="3" d="M277.865 531.334l-.01-.01H18.29v-5.54"/><path fill="none" stroke="#EEEEEE" stroke-width="8" d="M18.3 525.793l-.01-.01V675.78h-44.004"/><defs><linearGradient id="l" x1="0%" x2="50%" y1="0%" y2="50%"><stop offset="0%" stop-color="#3397DA"/><stop offset="100%" stop-color="#3397DA"/></linearGradient></defs><path fill="none" stroke="url(#l)" stroke-width="3" d="M18.3 525.793l-.01-.01V675.78h-44.004"/><path fill="none" stroke="url(#l)" stroke-width="1.5" d="M38.3 609.289l-2.01-.01v8h2M42.3 609.289l1.99-.01v8h-2"/><path fill="none" stroke="#EEEEEE" stroke-width="8" d="M617.239 104.383l-.01-.01H911.19v.313"/><defs><linearGradient id="m" x1="0%" x2="50%" y1="0%" y2="50%"><stop offset="0%" stop-color="#2ECB70"/><stop offset="100%" stop-color="#3397DA"/></linearGradient></defs><path fill="none" stroke="url(#m)" stroke-width="3" d="M617.239 104.383l-.01-.01H911.19v.313"/><path fill="none" stroke="#EEEEEE" stroke-width="8" d="M910.24 518.075l-.01-.01V94.02h32.295"/><defs><linearGradient id="n" x1="100%" x2="50%" y1="100%" y2="50%"><stop offset="0%" stop-color="#3397DA"/><stop offset="100%" stop-color="#3397DA"/></linearGradient></defs><path fill="none" stroke="url(#n)" stroke-width="3" d="M910.24 518.075l-.01-.01V94.02h32.295"/><path fill="none" stroke="#EEEEEE" stroke-dasharray="5,3" stroke-width="8" d="M759.989 756.358l-.01-.01v-222.95h190.027"/><defs><linearGradient id="o" x1="0%" x2="50%" y1="0%" y2="50%"><stop offset="0%" stop-color="#3397DA"/><stop offset="100%" stop-color="#3397DA"/></linearGradient></defs><path fill="none" stroke="url(#o)" stroke-dasharray="5,3" stroke-width="3" d="M759.989 756.358l-.01-.01v-222.95h190.027"/><path fill="none" stroke="#EEEEEE" stroke-width="8" d="M621.034 721.025l-.01-.01H314.82v23.667"/><defs><linearGradient id="p" x1="100%" x2="50%" y1="100%" y2="50%"><stop offset="0%" stop-color="#3397DA"/><stop offset="100%" stop-color="#2ECB70"/></linearGradient></defs><path fill="none" stroke="url(#p)" stroke-width="3" d="M621.034 721.025l-.01-.01H314.82v23.667"/><path fill="none" stroke="url(#p)" stroke-width="1.5" d="M400.705 701.025l-2.01-.01v8h2M404.705 701.025l1.99-.01v8h-2"/><path fill="#FFFFFF" stroke="#FF3986" stroke-width="3" d="M322.828 184.248h324.576v218H322.828z"/><path fill="#ff3986" stroke="#ff3986" d="M323.828 209.248h324.576"/><path fill="none" stroke="#FF3986" stroke-width="3" d="M322.828 184.248h324.576v218H322.828z"/><text x="332.828" y="202.248" style="font:700 16px 'Lucida Console',monospace" fill="#000000">ConformityAttestation</text><text x="332.828" y="226.248" style="font:500 14px 'Lucida Console',monospace" fill="#000000">id:</text><text x="362.114" y="226.248" style="font:500 14px 'Lucida Console',monospace" fill="#C9A30B">URI</text><text x="332.828" y="240.248" style="font:500 14px 'Lucida Console',monospace" fill="#000000">type:</text><text x="378.972" y="240.248" style="font:500 14px 'Lucida Console',monospace" fill="#530abb">Code(AttestationType)</text><text x="332.828" y="254.248" style="font:500 14px 'Lucida Console',monospace" fill="#000000">description:</text><text x="437.973" y="254.248" style="font:500 14px 'Lucida Console',monospace" fill="#02b57b">Text</text><text x="332.828" y="268.248" style="font:500 14px 'Lucida Console',monospace" fill="#000000">scheme:</text><text x="395.829" y="268.248" style="font:500 14px 'Lucida Console',monospace" fill="#3397DA">SchemeOrSystem</text><text x="332.828" y="282.248" style="font:500 14px 'Lucida Console',monospace" fill="#000000">scope:</text><text x="387.4" y="282.248" style="font:500 14px 'Lucida Console',monospace" fill="#3397DA">StandardOrRegulation[]</text><text x="332.828" y="296.248" style="font:500 14px 'Lucida Console',monospace" fill="#000000">issuedBy:</text><text x="412.687" y="296.248" style="font:500 14px 'Lucida Console',monospace" fill="#3397DA">Party</text><text x="332.828" y="310.248" style="font:500 14px 'Lucida Console',monospace" fill="#000000">issuedTo:</text><text x="412.687" y="310.248" style="font:500 14px 'Lucida Console',monospace" fill="#3397DA">Party</text><text x="332.828" y="324.248" style="font:500 14px 'Lucida Console',monospace" fill="#000000">validFrom:</text><text x="421.115" y="324.248" style="font:500 14px 'Lucida Console',monospace" fill="#02b57b">Date</text><text x="332.828" y="338.248" style="font:500 14px 'Lucida Console',monospace" fill="#000000">validTo:</text><text x="404.258" y="338.248" style="font:500 14px 'Lucida Console',monospace" fill="#02b57b">Date</text><text x="332.828" y="352.248" style="font:500 14px 'Lucida Console',monospace" fill="#000000">status:</text><text x="395.829" y="352.248" style="font:500 14px 'Lucida Console',monospace" fill="#530abb">Code(Status)</text><text x="332.828" y="366.248" style="font:500 14px 'Lucida Console',monospace" fill="#000000">subjects:</text><text x="412.687" y="366.248" style="font:500 14px 'Lucida Console',monospace" fill="#2ECB70">FacilityOrProduct[]</text><text x="332.828" y="380.248" style="font:500 14px 'Lucida Console',monospace" fill="#000000">assessments:</text><text x="437.973" y="380.248" style="font:500 14px 'Lucida Console',monospace" fill="#2ECB70">ConformityAssessment[]</text><text x="332.828" y="394.248" style="font:500 14px 'Lucida Console',monospace" fill="#000000">accreditation:</text><text x="454.83" y="394.248" style="font:500 14px 'Lucida Console',monospace" fill="#2ECB70">Accreditation</text><path fill="#FFFFFF" stroke="#3397DA" stroke-width="3" d="M322.705-63.143h196v92h-196z"/><path fill="#3397da" stroke="#3397da" d="M323.705-38.143h196"/><path fill="none" stroke="#3397DA" stroke-width="3" d="M322.705-63.143h196v92h-196z"/><text x="332.705" y="-45.143" style="font:700 16px 'Lucida Console',monospace" fill="#000000">SchemeOrSystem</text><text x="332.705" y="-21.143" style="font:500 14px 'Lucida Console',monospace" fill="#000000">id:</text><text x="361.992" y="-21.143" style="font:500 14px 'Lucida Console',monospace" fill="#C9A30B">URI</text><text x="332.705" y="-7.143" style="font:500 14px 'Lucida Console',monospace" fill="#000000">name:</text><text x="378.849" y="-7.143" style="font:500 14px 'Lucida Console',monospace" fill="#02b57b">Text</text><text x="332.705" y="6.857" style="font:500 14px 'Lucida Console',monospace" fill="#000000">issuingBody:</text><text x="437.85" y="6.857" style="font:500 14px 'Lucida Console',monospace" fill="#3397DA">Party</text><text x="332.705" y="20.857" style="font:500 14px 'Lucida Console',monospace" fill="#000000">dateOfIssue:</text><text x="437.85" y="20.857" style="font:500 14px 'Lucida Console',monospace" fill="#02b57b">Date</text><path fill="#FFFFFF" stroke="#2ECB70" stroke-width="3" d="M19.176 255.581h205.758v78H19.176z"/><path fill="#2ecb70" stroke="#2ecb70" d="M20.176 280.581h205.757"/><path fill="none" stroke="#2ECB70" stroke-width="3" d="M19.176 255.581h205.758v78H19.176z"/><text x="29.176" y="273.581" style="font:700 16px 'Lucida Console',monospace" fill="#000000">FacilityOrProduct</text><text x="29.176" y="297.581" style="font:500 14px 'Lucida Console',monospace" fill="#000000">facilityId:</text><text x="125.891" y="297.581" style="font:500 14px 'Lucida Console',monospace" fill="#02b57b">URI</text><text x="29.176" y="311.581" style="font:500 14px 'Lucida Console',monospace" fill="#000000">productId:</text><text x="117.463" y="311.581" style="font:500 14px 'Lucida Console',monospace" fill="#02b57b">URI</text><text x="29.176" y="325.581" style="font:500 14px 'Lucida Console',monospace" fill="#000000">batchId:</text><text x="100.605" y="325.581" style="font:500 14px 'Lucida Console',monospace" fill="#02b57b">URI</text><path fill="#FFFFFF" stroke="#2ECB70" stroke-width="3" d="M209.461 508.324h273.575v92H209.461z"/><path fill="#2ecb70" stroke="#2ecb70" d="M210.46 533.324h273.576"/><path fill="none" stroke="#2ECB70" stroke-width="3" d="M209.461 508.324h273.575v92H209.461z"/><text x="219.461" y="526.324" style="font:700 16px 'Lucida Console',monospace" fill="#000000">ConformityAssessment</text><text x="219.461" y="550.324" style="font:500 14px 'Lucida Console',monospace" fill="#000000">specification:</text><text x="341.463" y="550.324" style="font:500 14px 'Lucida Console',monospace" fill="#3397DA">Specification</text><text x="219.461" y="564.324" style="font:500 14px 'Lucida Console',monospace" fill="#000000">measure:</text><text x="290.89" y="564.324" style="font:500 14px 'Lucida Console',monospace" fill="#2ECB70">ConformityMetric[]</text><text x="219.461" y="578.324" style="font:500 14px 'Lucida Console',monospace" fill="#000000">evidence:</text><text x="299.319" y="578.324" style="font:500 14px 'Lucida Console',monospace" fill="#3397DA">ConformityEvidence</text><text x="219.461" y="592.324" style="font:500 14px 'Lucida Console',monospace" fill="#000000">compliance:</text><text x="316.177" y="592.324" style="font:500 14px 'Lucida Console',monospace" fill="#02b57b">Indicator</text><path fill="#FFFFFF" stroke="#2ECB70" stroke-width="3" d="M184.07 692.682h196.125v78H184.07z"/><path fill="#2ecb70" stroke="#2ecb70" d="M185.07 717.682h196.125"/><path fill="none" stroke="#2ECB70" stroke-width="3" d="M184.07 692.682h196.125v78H184.07z"/><text x="194.07" y="710.682" style="font:700 16px 'Lucida Console',monospace" fill="#000000">ConformityMetric</text><text x="194.07" y="734.682" style="font:500 14px 'Lucida Console',monospace" fill="#000000">metric:</text><text x="257.071" y="734.682" style="font:500 14px 'Lucida Console',monospace" fill="#02b57b">URI</text><text x="194.07" y="748.682" style="font:500 14px 'Lucida Console',monospace" fill="#000000">unit:</text><text x="240.213" y="748.682" style="font:500 14px 'Lucida Console',monospace" fill="#530abb">Code(UOM)</text><text x="194.07" y="762.682" style="font:500 14px 'Lucida Console',monospace" fill="#000000">value:</text><text x="248.642" y="762.682" style="font:500 14px 'Lucida Console',monospace" fill="#02b57b">Numeric</text><path fill="#FFFFFF" stroke="#3397DA" stroke-width="3" d="M-114.497 479.783h265.575v92h-265.575z"/><path fill="#3397da" stroke="#3397da" d="M-113.497 504.783h265.575"/><path fill="none" stroke="#3397DA" stroke-width="3" d="M-114.497 479.783h265.575v92h-265.575z"/><text x="-104.497" y="497.783" style="font:700 16px 'Lucida Console',monospace" fill="#000000">ConformityEvidence</text><text x="-104.497" y="521.783" style="font:500 14px 'Lucida Console',monospace" fill="#000000">evidenceRootHash:</text><text x="42.791" y="521.783" style="font:500 14px 'Lucida Console',monospace" fill="#C9A30B">Text</text><text x="-104.497" y="535.783" style="font:500 14px 'Lucida Console',monospace" fill="#000000">description:</text><text x=".648" y="535.783" style="font:500 14px 'Lucida Console',monospace" fill="#02b57b">Text</text><text x="-104.497" y="549.783" style="font:500 14px 'Lucida Console',monospace" fill="#000000">evidenceData:</text><text x="9.076" y="549.783" style="font:500 14px 'Lucida Console',monospace" fill="#3397DA">EvidenceFile[]</text><text x="-104.497" y="563.783" style="font:500 14px 'Lucida Console',monospace" fill="#000000">decryptionKeyRequest:</text><text x="76.506" y="563.783" style="font:500 14px 'Lucida Console',monospace" fill="#02b57b">URI</text><path fill="#FFFFFF" stroke="#3397DA" stroke-width="3" d="M-207.074 629.779h362.72v92h-362.72z"/><path fill="#3397da" stroke="#3397da" d="M-206.074 654.779h362.72"/><path fill="none" stroke="#3397DA" stroke-width="3" d="M-207.074 629.779h362.72v92h-362.72z"/><text x="-197.074" y="647.779" style="font:700 16px 'Lucida Console',monospace" fill="#000000">EvidenceFile</text><text x="-197.074" y="671.779" style="font:500 14px 'Lucida Console',monospace" fill="#000000">fileHash:</text><text x="-117.216" y="671.779" style="font:500 14px 'Lucida Console',monospace" fill="#C9A30B">Text</text><text x="-197.074" y="685.779" style="font:500 14px 'Lucida Console',monospace" fill="#000000">fileLocation:</text><text x="-83.501" y="685.779" style="font:500 14px 'Lucida Console',monospace" fill="#02b57b">URI</text><text x="-197.074" y="699.779" style="font:500 14px 'Lucida Console',monospace" fill="#000000">fileType:</text><text x="-117.216" y="699.779" style="font:500 14px 'Lucida Console',monospace" fill="#530abb">Code(mimeType)</text><text x="-197.074" y="713.779" style="font:500 14px 'Lucida Console',monospace" fill="#000000">EncryptionMethod:</text><text x="-49.786" y="713.779" style="font:500 14px 'Lucida Console',monospace" fill="#530abb">Code(EncryptionMethod)</text><path fill="#FFFFFF" stroke="#2ECB70" stroke-width="3" d="M467.584 65.373h299.29v78h-299.29z"/><path fill="#2ecb70" stroke="#2ecb70" d="M468.584 90.373h299.29"/><path fill="none" stroke="#2ECB70" stroke-width="3" d="M467.584 65.373h299.29v78h-299.29z"/><text x="477.584" y="83.373" style="font:700 16px 'Lucida Console',monospace" fill="#000000">Accreditation</text><text x="477.584" y="107.373" style="font:500 14px 'Lucida Console',monospace" fill="#000000">credential:</text><text x="574.3" y="107.373" style="font:500 14px 'Lucida Console',monospace" fill="#02b57b">URI</text><text x="477.584" y="121.373" style="font:500 14px 'Lucida Console',monospace" fill="#000000">evidenceType:</text><text x="591.157" y="121.373" style="font:500 14px 'Lucida Console',monospace" fill="#530abb">Code(EvidenceType)</text><text x="477.584" y="135.373" style="font:500 14px 'Lucida Console',monospace" fill="#000000">authority:</text><text x="565.871" y="135.373" style="font:500 14px 'Lucida Console',monospace" fill="#3397DA">Party</text><path fill="#FFFFFF" stroke="#3397DA" stroke-width="3" d="M790.902 472.065h238.656v92H790.902z"/><path fill="#3397da" stroke="#3397da" d="M791.902 497.065h238.656"/><path fill="none" stroke="#3397DA" stroke-width="3" d="M790.902 472.065h238.656v92H790.902z"/><text x="800.902" y="490.065" style="font:700 16px 'Lucida Console',monospace" fill="#000000">StandardOrRegulation</text><text x="800.902" y="514.065" style="font:500 14px 'Lucida Console',monospace" fill="#000000">id:</text><text x="830.188" y="514.065" style="font:500 14px 'Lucida Console',monospace" fill="#C9A30B">URI</text><text x="800.902" y="528.065" style="font:500 14px 'Lucida Console',monospace" fill="#000000">name:</text><text x="847.046" y="528.065" style="font:500 14px 'Lucida Console',monospace" fill="#02b57b">Text</text><text x="800.902" y="542.065" style="font:500 14px 'Lucida Console',monospace" fill="#000000">issuingBody:</text><text x="906.047" y="542.065" style="font:500 14px 'Lucida Console',monospace" fill="#3397DA">Party</text><text x="800.902" y="556.065" style="font:500 14px 'Lucida Console',monospace" fill="#000000">dateOfIssue:</text><text x="906.047" y="556.065" style="font:500 14px 'Lucida Console',monospace" fill="#02b57b">Date</text><path fill="#FFFFFF" stroke="#3397DA" stroke-width="3" d="M482.07 685.682h416.863v106H482.07z"/><path fill="#3397da" stroke="#3397da" d="M483.07 710.682h416.863"/><path fill="none" stroke="#3397DA" stroke-width="3" d="M482.07 685.682h416.863v106H482.07z"/><text x="492.07" y="703.682" style="font:700 16px 'Lucida Console',monospace" fill="#000000">Specification</text><text x="492.07" y="727.682" style="font:500 14px 'Lucida Console',monospace" fill="#000000">id:</text><text x="521.356" y="727.682" style="font:500 14px 'Lucida Console',monospace" fill="#C9A30B">URI</text><text x="492.07" y="741.682" style="font:500 14px 'Lucida Console',monospace" fill="#000000">reference:</text><text x="580.357" y="741.682" style="font:500 14px 'Lucida Console',monospace" fill="#3397DA">StandardOrRegulation &lt;&lt;reference&gt;&gt;</text><text x="492.07" y="755.682" style="font:500 14px 'Lucida Console',monospace" fill="#000000">threshold:</text><text x="580.357" y="755.682" style="font:500 14px 'Lucida Console',monospace" fill="#2ECB70">ConformityMetric[]</text><text x="492.07" y="769.682" style="font:500 14px 'Lucida Console',monospace" fill="#000000">description:</text><text x="597.214" y="769.682" style="font:500 14px 'Lucida Console',monospace" fill="#02b57b">Text</text><text x="492.07" y="783.682" style="font:500 14px 'Lucida Console',monospace" fill="#000000">topic:</text><text x="546.642" y="783.682" style="font:500 14px 'Lucida Console',monospace" fill="#530abb">Code(Topic)</text><path fill="#FFFFFF" stroke="#3397DA" stroke-width="3" d="M785.858 72.686h188v64h-188z"/><path fill="#3397da" stroke="#3397da" d="M786.858 97.686h188"/><path fill="none" stroke="#3397DA" stroke-width="3" d="M785.858 72.686h188v64h-188z"/><text x="795.858" y="90.686" style="font:700 16px 'Lucida Console',monospace" fill="#000000">Party</text><text x="795.858" y="114.686" style="font:500 14px 'Lucida Console',monospace" fill="#000000">id:</text><text x="825.144" y="114.686" style="font:500 14px 'Lucida Console',monospace" fill="#C9A30B">URI</text><text x="795.858" y="128.686" style="font:500 14px 'Lucida Console',monospace" fill="#000000">name:</text><text x="842.001" y="128.686" style="font:500 14px 'Lucida Console',monospace" fill="#02b57b">Text</text></svg>