<svg xmlns="http://www.w3.org/2000/svg" viewBox="74.998 -102 1315.002 763.286"><rect width="1000%" height="1000%" x="-500%" y="-500%" fill="#EEEEEE"/><path fill="none" stroke="#EEEEEE" stroke-width="8" d="M276.368 8.724l-.01-.01V236h203.286"/><defs><linearGradient id="a" x1="0%" x2="50%" y1="0%" y2="50%"><stop offset="0%" stop-color="#3397DA"/><stop offset="100%" stop-color="#3397DA"/></linearGradient></defs><path fill="none" stroke="url(#a)" stroke-width="3" d="M276.368 8.724l-.01-.01V236h203.286"/><path fill="none" stroke="#EEEEEE" stroke-width="8" d="M553.87 270.343l-.01-.01V0h165.65"/><defs><linearGradient id="b" x1="0%" x2="50%" y1="0%" y2="50%"><stop offset="0%" stop-color="#3397DA"/><stop offset="100%" stop-color="#3397DA"/></linearGradient></defs><path fill="none" stroke="url(#b)" stroke-width="3" d="M553.87 270.343l-.01-.01V0h165.65"/><path fill="none" stroke="#EEEEEE" stroke-width="8" d="M405.438 201.677l-.01-.01v323.619h42.501"/><defs><linearGradient id="c" x1="0%" x2="50%" y1="0%" y2="50%"><stop offset="0%" stop-color="#3397DA"/><stop offset="100%" stop-color="#3397DA"/></linearGradient></defs><path fill="none" stroke="url(#c)" stroke-width="3" d="M405.438 201.677l-.01-.01v323.619h42.501"/><path fill="none" stroke="url(#c)" stroke-width="1.5" d="M425.438 408.796l-2.01-.01v8h2M429.438 408.796l1.99-.01v8h-2"/><path fill="#FFFFFF" stroke="#3397DA" stroke-width="3" d="M94.998-59.286h362.72v136H94.998z"/><path fill="#3397da" stroke="#3397da" d="M95.998-18.286h362.72"/><path fill="none" stroke="#3397DA" stroke-width="3" d="M94.998-59.286h362.72v136H94.998z"/><text x="104.998" y="-41.286" style="font:700 16px 'Lucida Console',monospace" fill="#000000">DigitalConformityCredential</text><text x="104.998" y="-25.286" style="font:500 14px 'Lucida Console',monospace" fill="#999">＜＜untp.VerifiableCredential＞＞</text><text x="104.998" y="-1.286" style="font:500 14px 'Lucida Console',monospace" fill="#666">@context:</text><text x="184.856" y="-1.286" style="font:500 14px 'Lucida Console',monospace" fill="#02b57b">Text</text><text x="104.998" y="12.714" style="font:500 14px 'Lucida Console',monospace" fill="#666">id:</text><text x="134.284" y="12.714" style="font:500 14px 'Lucida Console',monospace" fill="#C9A30B">URI</text><text x="104.998" y="26.714" style="font:500 14px 'Lucida Console',monospace" fill="#666">issuer:</text><text x="167.999" y="26.714" style="font:500 14px 'Lucida Console',monospace" fill="#02b57b">Party</text><text x="104.998" y="40.714" style="font:500 14px 'Lucida Console',monospace" fill="#666">validFrom:</text><text x="193.285" y="40.714" style="font:500 14px 'Lucida Console',monospace" fill="#02b57b">DateTime</text><text x="104.998" y="54.714" style="font:500 14px 'Lucida Console',monospace" fill="#666">validUntil:</text><text x="201.714" y="54.714" style="font:500 14px 'Lucida Console',monospace" fill="#02b57b">DateTime</text><text x="104.998" y="68.714" style="font:500 14px 'Lucida Console',monospace" fill="#000000">credentialSubject:</text><text x="260.715" y="68.714" style="font:500 14px 'Lucida Console',monospace" fill="#3397DA">ConformityAttestation</text><path fill="#FFFFFF" stroke="#3397DA" stroke-width="3" d="M256.998 133H702.29v206H256.998z"/><path fill="#3397da" stroke="#3397da" d="M257.998 174H703.29"/><path fill="none" stroke="#3397DA" stroke-width="3" d="M256.998 133H702.29v206H256.998z"/><text x="266.998" y="151" style="font:700 16px 'Lucida Console',monospace" fill="#000000">ConformityAttestation</text><text x="266.998" y="167" style="font:500 14px 'Lucida Console',monospace" fill="#999">＜＜untp.Attestation＞＞</text><text x="266.998" y="191" style="font:500 14px 'Lucida Console',monospace" fill="#666">id:</text><text x="296.284" y="191" style="font:500 14px 'Lucida Console',monospace" fill="#C9A30B">URI</text><text x="266.998" y="205" style="font:500 14px 'Lucida Console',monospace" fill="#666">assessorLevel:</text><text x="389" y="205" style="font:500 14px 'Lucida Console',monospace" fill="#530abb">Code(assessorAssuranceCode)</text><text x="266.998" y="219" style="font:500 14px 'Lucida Console',monospace" fill="#666">assessmentLevel:</text><text x="405.857" y="219" style="font:500 14px 'Lucida Console',monospace" fill="#530abb">Code(assessmentAssuranceCode)</text><text x="266.998" y="233" style="font:500 14px 'Lucida Console',monospace" fill="#666">attestationType:</text><text x="405.857" y="233" style="font:500 14px 'Lucida Console',monospace" fill="#530abb">Code(attestationTypeCode)</text><text x="266.998" y="247" style="font:500 14px 'Lucida Console',monospace" fill="#666">attestationDescription:</text><text x="464.858" y="247" style="font:500 14px 'Lucida Console',monospace" fill="#02b57b">Text</text><text x="266.998" y="261" style="font:500 14px 'Lucida Console',monospace" fill="#666">issuedToParty:</text><text x="389" y="261" style="font:500 14px 'Lucida Console',monospace" fill="#02b57b">Identifier</text><text x="266.998" y="275" style="font:500 14px 'Lucida Console',monospace" fill="#666">accreditation:</text><text x="389" y="275" style="font:500 14px 'Lucida Console',monospace" fill="#02b57b">Endorsement[]</text><text x="266.998" y="289" style="font:500 14px 'Lucida Console',monospace" fill="#666">conformityCertificate:</text><text x="456.429" y="289" style="font:500 14px 'Lucida Console',monospace" fill="#02b57b">BinaryFile</text><text x="266.998" y="303" style="font:500 14px 'Lucida Console',monospace" fill="#666">auditableEvidence:</text><text x="422.715" y="303" style="font:500 14px 'Lucida Console',monospace" fill="#02b57b">SecureBinaryFile</text><text x="266.998" y="317" style="font:500 14px 'Lucida Console',monospace" fill="#000000">scope:</text><text x="321.57" y="317" style="font:500 14px 'Lucida Console',monospace" fill="#3397DA">ConformityAssessmentScheme</text><text x="266.998" y="331" style="font:500 14px 'Lucida Console',monospace" fill="#000000">assessments:</text><text x="372.142" y="331" style="font:500 14px 'Lucida Console',monospace" fill="#3397DA">ConformityAssessment[]</text><path fill="#FFFFFF" stroke="#3397DA" stroke-width="3" d="M563.283-82h312.453V82H563.283z"/><path fill="#3397da" stroke="#3397da" d="M564.283-41h312.454"/><path fill="none" stroke="#3397DA" stroke-width="3" d="M563.283-82h312.453V82H563.283z"/><text x="573.283" y="-64" style="font:700 16px 'Lucida Console',monospace" fill="#000000">ConformityAssessmentScheme</text><text x="573.283" y="-48" style="font:500 14px 'Lucida Console',monospace" fill="#999">＜＜untp.Standard＞＞</text><text x="573.283" y="-24" style="font:500 14px 'Lucida Console',monospace" fill="#666">id:</text><text x="602.57" y="-24" style="font:500 14px 'Lucida Console',monospace" fill="#C9A30B">URI</text><text x="573.283" y="-10" style="font:500 14px 'Lucida Console',monospace" fill="#666">idScheme:</text><text x="653.142" y="-10" style="font:500 14px 'Lucida Console',monospace" fill="#02b57b">URI</text><text x="573.283" y="4" style="font:500 14px 'Lucida Console',monospace" fill="#666">idSchemeName:</text><text x="686.857" y="4" style="font:500 14px 'Lucida Console',monospace" fill="#02b57b">Text</text><text x="573.283" y="18" style="font:500 14px 'Lucida Console',monospace" fill="#666">idValue:</text><text x="644.713" y="18" style="font:500 14px 'Lucida Console',monospace" fill="#02b57b">Text</text><text x="573.283" y="32" style="font:500 14px 'Lucida Console',monospace" fill="#666">name:</text><text x="619.427" y="32" style="font:500 14px 'Lucida Console',monospace" fill="#02b57b">Text</text><text x="573.283" y="46" style="font:500 14px 'Lucida Console',monospace" fill="#666">issuingParty:</text><text x="686.857" y="46" style="font:500 14px 'Lucida Console',monospace" fill="#02b57b">Identifier</text><text x="573.283" y="60" style="font:500 14px 'Lucida Console',monospace" fill="#666">issueDate:</text><text x="661.571" y="60" style="font:500 14px 'Lucida Console',monospace" fill="#02b57b">Date</text><text x="573.283" y="74" style="font:500 14px 'Lucida Console',monospace" fill="#000000">trustmark:</text><text x="661.571" y="74" style="font:500 14px 'Lucida Console',monospace" fill="#547000">untp.BinaryFile</text><path fill="#FFFFFF" stroke="#3397DA" stroke-width="3" d="M252.141 429.286h391.577v192H252.141z"/><path fill="#3397da" stroke="#3397da" d="M253.14 470.286h391.578"/><path fill="none" stroke="#3397DA" stroke-width="3" d="M252.141 429.286h391.577v192H252.141z"/><text x="262.141" y="447.286" style="font:700 16px 'Lucida Console',monospace" fill="#000000">ConformityAssessment</text><text x="262.141" y="463.286" style="font:500 14px 'Lucida Console',monospace" fill="#999">＜＜untp.Declaration＞＞</text><text x="262.141" y="487.286" style="font:500 14px 'Lucida Console',monospace" fill="#666">id:</text><text x="291.427" y="487.286" style="font:500 14px 'Lucida Console',monospace" fill="#C9A30B">URI</text><text x="262.141" y="501.286" style="font:500 14px 'Lucida Console',monospace" fill="#666">referenceStandard:</text><text x="417.857" y="501.286" style="font:500 14px 'Lucida Console',monospace" fill="#02b57b">Standard</text><text x="262.141" y="515.286" style="font:500 14px 'Lucida Console',monospace" fill="#666">referenceRegulation:</text><text x="434.715" y="515.286" style="font:500 14px 'Lucida Console',monospace" fill="#02b57b">Regulation</text><text x="262.141" y="529.286" style="font:500 14px 'Lucida Console',monospace" fill="#666">assessmentCriterion:</text><text x="434.715" y="529.286" style="font:500 14px 'Lucida Console',monospace" fill="#02b57b">Criteria[]</text><text x="262.141" y="543.286" style="font:500 14px 'Lucida Console',monospace" fill="#666">declaredValues:</text><text x="392.571" y="543.286" style="font:500 14px 'Lucida Console',monospace" fill="#02b57b">Metric[]</text><text x="262.141" y="557.286" style="font:500 14px 'Lucida Console',monospace" fill="#666">compliance:</text><text x="358.856" y="557.286" style="font:500 14px 'Lucida Console',monospace" fill="#02b57b">Indicator</text><text x="262.141" y="571.286" style="font:500 14px 'Lucida Console',monospace" fill="#666">conformityTopic:</text><text x="401" y="571.286" style="font:500 14px 'Lucida Console',monospace" fill="#530abb">Code(conformityTopicCode)</text><text x="262.141" y="585.286" style="font:500 14px 'Lucida Console',monospace" fill="#000000">assessedProducts:</text><text x="409.429" y="585.286" style="font:500 14px 'Lucida Console',monospace" fill="#547000">untp.Identifier[]</text><text x="262.141" y="599.286" style="font:500 14px 'Lucida Console',monospace" fill="#000000">assessedFacilities:</text><text x="426.286" y="599.286" style="font:500 14px 'Lucida Console',monospace" fill="#547000">untp.Identifier[]</text><text x="262.141" y="613.286" style="font:500 14px 'Lucida Console',monospace" fill="#000000">verfifiedByCAB:</text><text x="392.571" y="613.286" style="font:500 14px 'Lucida Console',monospace" fill="#02b57b">Indicator</text><path fill="#FFFFFF" stroke="#aabbccdd" stroke-width="3" d="M1150 0h200v106h-200z"/><path fill="#aabbccdd" stroke="#aabbccdd" d="M1151 25h200"/><path fill="none" stroke="#aabbccdd" stroke-width="3" d="M1150 0h200v106h-200z"/><text x="1160" y="18" style="font:700 16px 'Lucida Console',monospace" fill="#000000">untp.Identifier</text><text x="1160" y="42" style="font:500 14px 'Lucida Console',monospace" fill="#000000">id:</text><text x="1189.286" y="42" style="font:500 14px 'Lucida Console',monospace" fill="#C9A30B">URI</text><text x="1160" y="56" style="font:500 14px 'Lucida Console',monospace" fill="#000000">idScheme:</text><text x="1239.858" y="56" style="font:500 14px 'Lucida Console',monospace" fill="#02b57b">URI</text><text x="1160" y="70" style="font:500 14px 'Lucida Console',monospace" fill="#000000">idSchemeName:</text><text x="1273.573" y="70" style="font:500 14px 'Lucida Console',monospace" fill="#02b57b">Text</text><text x="1160" y="84" style="font:500 14px 'Lucida Console',monospace" fill="#000000">idValue:</text><text x="1231.43" y="84" style="font:500 14px 'Lucida Console',monospace" fill="#02b57b">Text</text><text x="1160" y="98" style="font:500 14px 'Lucida Console',monospace" fill="#000000">name:</text><text x="1206.144" y="98" style="font:500 14px 'Lucida Console',monospace" fill="#02b57b">Text</text></svg>