<svg xmlns="http://www.w3.org/2000/svg" viewBox="-201.36 -73 1208.588 893.682"><rect width="1000%" height="1000%" x="-500%" y="-500%" fill="#EEEEEE"/><path fill="none" stroke="#EEEEEE" stroke-width="8" d="M580.84 333.496l-.01-.01V0h-67.267"/><defs><linearGradient id="a" x1="100%" x2="50%" y1="100%" y2="50%"><stop offset="0%" stop-color="#FF3986"/><stop offset="100%" stop-color="#3397DA"/></linearGradient></defs><path fill="none" stroke="url(#a)" stroke-width="3" d="M580.84 333.496l-.01-.01V0h-67.267"/><path fill="none" stroke="#EEEEEE" stroke-width="8" d="M634.937 301.83l-.01-.01V121.238h61.93"/><defs><linearGradient id="b" x1="0%" x2="50%" y1="0%" y2="50%"><stop offset="0%" stop-color="#FF3986"/><stop offset="100%" stop-color="#3397DA"/></linearGradient></defs><path fill="none" stroke="url(#b)" stroke-width="3" d="M634.937 301.83l-.01-.01V121.238h61.93"/><path fill="none" stroke="#EEEEEE" stroke-width="8" d="M689.033 270.163l-.01-.01V110.571h39.167"/><defs><linearGradient id="c" x1="0%" x2="50%" y1="0%" y2="50%"><stop offset="0%" stop-color="#FF3986"/><stop offset="100%" stop-color="#3397DA"/></linearGradient></defs><path fill="none" stroke="url(#c)" stroke-width="3" d="M689.033 270.163l-.01-.01V110.571h39.167"/><path fill="none" stroke="#EEEEEE" stroke-width="8" d="M526.745 270.163l-.01-.01v292.743h-97.63"/><defs><linearGradient id="d" x1="0%" x2="50%" y1="0%" y2="50%"><stop offset="0%" stop-color="#FF3986"/><stop offset="100%" stop-color="#2ECB70"/></linearGradient></defs><path fill="none" stroke="url(#d)" stroke-width="3" d="M526.745 270.163l-.01-.01v292.743h-97.63"/><path fill="none" stroke="url(#d)" stroke-width="1.5" d="M546.745 482.406l-2.01-.01v8h2M550.745 482.406l1.99-.01v8h-2"/><path fill="none" stroke="#EEEEEE" stroke-width="8" d="M472.648 238.496l-.01-.01H200.086V125.801"/><defs><linearGradient id="e" x1="100%" x2="50%" y1="100%" y2="50%"><stop offset="0%" stop-color="#FF3986"/><stop offset="100%" stop-color="#2ECB70"/></linearGradient></defs><path fill="none" stroke="url(#e)" stroke-width="3" d="M472.648 238.496l-.01-.01H200.086V125.801"/><path fill="none" stroke="#EEEEEE" stroke-width="8" d="M513.573.01l-.01-.01h151.96v99.905"/><defs><linearGradient id="f" x1="0%" x2="50%" y1="0%" y2="50%"><stop offset="0%" stop-color="#3397DA"/><stop offset="100%" stop-color="#3397DA"/></linearGradient></defs><path fill="none" stroke="url(#f)" stroke-width="3" d="M513.573.01l-.01-.01h151.96v99.905"/><path fill="none" stroke="#EEEEEE" stroke-width="8" d="M531.403 542.906l-.01-.01H847.9v-74.039"/><defs><linearGradient id="g" x1="0%" x2="50%" y1="0%" y2="50%"><stop offset="0%" stop-color="#2ECB70"/><stop offset="100%" stop-color="#3397DA"/></linearGradient></defs><path fill="none" stroke="url(#g)" stroke-width="3" d="M531.403 542.906l-.01-.01H847.9v-74.039"/><path fill="none" stroke="#EEEEEE" stroke-width="8" d="M480.26 562.906l-.01-.01h271.68v185.786"/><defs><linearGradient id="h" x1="0%" x2="50%" y1="0%" y2="50%"><stop offset="0%" stop-color="#2ECB70"/><stop offset="100%" stop-color="#3397DA"/></linearGradient></defs><path fill="none" stroke="url(#h)" stroke-width="3" d="M480.26 562.906l-.01-.01h271.68v185.786"/><path fill="none" stroke="#EEEEEE" stroke-width="8" d="M377.972 542.906l-.01-.01V389H252.879"/><defs><linearGradient id="i" x1="100%" x2="50%" y1="100%" y2="50%"><stop offset="0%" stop-color="#2ECB70"/><stop offset="100%" stop-color="#2ECB70"/></linearGradient></defs><path fill="none" stroke="url(#i)" stroke-width="3" d="M377.972 542.906l-.01-.01V389H252.879"/><path fill="none" stroke="url(#i)" stroke-width="1.5" d="M376.268 369.01l-2.01-.01v8h2M380.268 369.01l1.99-.01v8h-2"/><path fill="none" stroke="#EEEEEE" stroke-width="8" d="M429.116 582.906l-.01-.01v145.786H310.873"/><defs><linearGradient id="j" x1="0%" x2="50%" y1="0%" y2="50%"><stop offset="0%" stop-color="#2ECB70"/><stop offset="100%" stop-color="#2ECB70"/></linearGradient></defs><path fill="none" stroke="url(#j)" stroke-width="3" d="M429.116 582.906l-.01-.01v145.786H310.873"/><path fill="none" stroke="url(#j)" stroke-width="1.5" d="M449.116 682.192l-2.01-.01v8h2M453.116 682.192l1.99-.01v8h-2"/><path fill="none" stroke="#EEEEEE" stroke-width="8" d="M326.828 522.906l-.01-.01H41.148v28.601"/><defs><linearGradient id="k" x1="100%" x2="50%" y1="100%" y2="50%"><stop offset="0%" stop-color="#2ECB70"/><stop offset="100%" stop-color="#3397DA"/></linearGradient></defs><path fill="none" stroke="url(#k)" stroke-width="3" d="M326.828 522.906l-.01-.01H41.148v28.601"/><path fill="none" stroke="#EEEEEE" stroke-width="8" d="M41.158 551.507l-.01-.01V714.35H0"/><defs><linearGradient id="l" x1="0%" x2="50%" y1="0%" y2="50%"><stop offset="0%" stop-color="#3397DA"/><stop offset="100%" stop-color="#3397DA"/></linearGradient></defs><path fill="none" stroke="url(#l)" stroke-width="3" d="M41.158 551.507l-.01-.01V714.35H0"/><path fill="none" stroke="url(#l)" stroke-width="1.5" d="M61.158 647.86l-2.01-.01v8h2M65.158 647.86l1.99-.01v8h-2"/><path fill="none" stroke="#EEEEEE" stroke-width="8" d="M200.096 125.811l-.01-.01H634.19V89.238"/><defs><linearGradient id="m" x1="0%" x2="50%" y1="0%" y2="50%"><stop offset="0%" stop-color="#2ECB70"/><stop offset="100%" stop-color="#3397DA"/></linearGradient></defs><path fill="none" stroke="url(#m)" stroke-width="3" d="M200.096 125.811l-.01-.01H634.19V89.238"/><path fill="none" stroke="#EEEEEE" stroke-width="8" d="M847.91 468.867l-.01-.01V99.905h-88.376"/><defs><linearGradient id="n" x1="100%" x2="50%" y1="100%" y2="50%"><stop offset="0%" stop-color="#3397DA"/><stop offset="100%" stop-color="#3397DA"/></linearGradient></defs><path fill="none" stroke="url(#n)" stroke-width="3" d="M847.91 468.867l-.01-.01V99.905h-88.376"/><path fill="none" stroke="#EEEEEE" stroke-width="8" d="M751.94 748.692l-.01-.01H376.248v6"/><defs><linearGradient id="o" x1="100%" x2="50%" y1="100%" y2="50%"><stop offset="0%" stop-color="#3397DA"/><stop offset="100%" stop-color="#2ECB70"/></linearGradient></defs><path fill="none" stroke="url(#o)" stroke-width="3" d="M751.94 748.692l-.01-.01H376.248v6"/><path fill="none" stroke="url(#o)" stroke-width="1.5" d="M462.133 728.692l-2.01-.01v8h2M466.133 728.692l1.99-.01v8h-2"/><path fill="#FFFFFF" stroke="#FF3986" stroke-width="3" d="M418.542 206.82h324.576v190H418.542z"/><path fill="#ff3986" stroke="#ff3986" d="M419.542 231.82H744.12"/><path fill="none" stroke="#FF3986" stroke-width="3" d="M418.542 206.82h324.576v190H418.542z"/><text x="428.542" y="224.82" style="font:700 16px 'Lucida Console',monospace" fill="#000000">ConformityAttestation</text><text x="428.542" y="248.82" style="font:500 14px 'Lucida Console',monospace" fill="#000000">id:</text><text x="457.829" y="248.82" style="font:500 14px 'Lucida Console',monospace" fill="#C9A30B">URI</text><text x="428.542" y="262.82" style="font:500 14px 'Lucida Console',monospace" fill="#000000">type:</text><text x="474.686" y="262.82" style="font:500 14px 'Lucida Console',monospace" fill="#530abb">Code(AttestationType)</text><text x="428.542" y="276.82" style="font:500 14px 'Lucida Console',monospace" fill="#000000">description:</text><text x="533.687" y="276.82" style="font:500 14px 'Lucida Console',monospace" fill="#02b57b">Text</text><text x="428.542" y="290.82" style="font:500 14px 'Lucida Console',monospace" fill="#000000">scope:</text><text x="483.115" y="290.82" style="font:500 14px 'Lucida Console',monospace" fill="#3397DA">SchemeOrSystem</text><text x="428.542" y="304.82" style="font:500 14px 'Lucida Console',monospace" fill="#000000">issuedBy:</text><text x="508.401" y="304.82" style="font:500 14px 'Lucida Console',monospace" fill="#3397DA">Party</text><text x="428.542" y="318.82" style="font:500 14px 'Lucida Console',monospace" fill="#000000">issuedTo:</text><text x="508.401" y="318.82" style="font:500 14px 'Lucida Console',monospace" fill="#3397DA">Party</text><text x="428.542" y="332.82" style="font:500 14px 'Lucida Console',monospace" fill="#000000">validFrom:</text><text x="516.83" y="332.82" style="font:500 14px 'Lucida Console',monospace" fill="#02b57b">Date</text><text x="428.542" y="346.82" style="font:500 14px 'Lucida Console',monospace" fill="#000000">validTo:</text><text x="499.972" y="346.82" style="font:500 14px 'Lucida Console',monospace" fill="#02b57b">Date</text><text x="428.542" y="360.82" style="font:500 14px 'Lucida Console',monospace" fill="#000000">status:</text><text x="491.543" y="360.82" style="font:500 14px 'Lucida Console',monospace" fill="#530abb">Code(Status)</text><text x="428.542" y="374.82" style="font:500 14px 'Lucida Console',monospace" fill="#000000">assessments:</text><text x="533.687" y="374.82" style="font:500 14px 'Lucida Console',monospace" fill="#2ECB70">ConformityAssessment[]</text><text x="428.542" y="388.82" style="font:500 14px 'Lucida Console',monospace" fill="#000000">accreditation:</text><text x="550.544" y="388.82" style="font:500 14px 'Lucida Console',monospace" fill="#2ECB70">Accreditation</text><path fill="#FFFFFF" stroke="#3397DA" stroke-width="3" d="M413.563-53h200V53h-200z"/><path fill="#3397da" stroke="#3397da" d="M414.563-28h200"/><path fill="none" stroke="#3397DA" stroke-width="3" d="M413.563-53h200V53h-200z"/><text x="423.563" y="-35" style="font:700 16px 'Lucida Console',monospace" fill="#000000">SchemeOrSystem</text><text x="423.563" y="-11" style="font:500 14px 'Lucida Console',monospace" fill="#000000">id:</text><text x="452.849" y="-11" style="font:500 14px 'Lucida Console',monospace" fill="#C9A30B">URI</text><text x="423.563" y="3" style="font:500 14px 'Lucida Console',monospace" fill="#000000">name:</text><text x="469.706" y="3" style="font:500 14px 'Lucida Console',monospace" fill="#02b57b">Text</text><text x="423.563" y="17" style="font:500 14px 'Lucida Console',monospace" fill="#000000">trustmark:</text><text x="511.85" y="17" style="font:500 14px 'Lucida Console',monospace" fill="#02b57b">Binary</text><text x="423.563" y="31" style="font:500 14px 'Lucida Console',monospace" fill="#000000">issuingBody:</text><text x="528.707" y="31" style="font:500 14px 'Lucida Console',monospace" fill="#3397DA">Party</text><text x="423.563" y="45" style="font:500 14px 'Lucida Console',monospace" fill="#000000">dateOfIssue:</text><text x="528.707" y="45" style="font:500 14px 'Lucida Console',monospace" fill="#02b57b">Date</text><path fill="#FFFFFF" stroke="#2ECB70" stroke-width="3" d="M150 350h205.758v78H150z"/><path fill="#2ecb70" stroke="#2ecb70" d="M151 375h205.758"/><path fill="none" stroke="#2ECB70" stroke-width="3" d="M150 350h205.758v78H150z"/><text x="160" y="368" style="font:700 16px 'Lucida Console',monospace" fill="#000000">FacilityOrProduct</text><text x="160" y="392" style="font:500 14px 'Lucida Console',monospace" fill="#000000">facilityId:</text><text x="256.716" y="392" style="font:500 14px 'Lucida Console',monospace" fill="#02b57b">URI</text><text x="160" y="406" style="font:500 14px 'Lucida Console',monospace" fill="#000000">productId:</text><text x="248.287" y="406" style="font:500 14px 'Lucida Console',monospace" fill="#02b57b">URI</text><text x="160" y="420" style="font:500 14px 'Lucida Console',monospace" fill="#000000">batchId:</text><text x="231.43" y="420" style="font:500 14px 'Lucida Console',monospace" fill="#02b57b">URI</text><path fill="#FFFFFF" stroke="#2ECB70" stroke-width="3" d="M275.675 502.896h306.861v120H275.675z"/><path fill="#2ecb70" stroke="#2ecb70" d="M276.675 527.896h306.861"/><path fill="none" stroke="#2ECB70" stroke-width="3" d="M275.675 502.896h306.861v120H275.675z"/><text x="285.675" y="520.896" style="font:700 16px 'Lucida Console',monospace" fill="#000000">ConformityAssessment</text><text x="285.675" y="544.896" style="font:500 14px 'Lucida Console',monospace" fill="#000000">reference:</text><text x="373.962" y="544.896" style="font:500 14px 'Lucida Console',monospace" fill="#3397DA">StandardOrRegulation</text><text x="285.675" y="558.896" style="font:500 14px 'Lucida Console',monospace" fill="#000000">specification:</text><text x="407.677" y="558.896" style="font:500 14px 'Lucida Console',monospace" fill="#3397DA">Specification</text><text x="285.675" y="572.896" style="font:500 14px 'Lucida Console',monospace" fill="#000000">subjects:</text><text x="365.533" y="572.896" style="font:500 14px 'Lucida Console',monospace" fill="#2ECB70">FacilityOrProduct[]</text><text x="285.675" y="586.896" style="font:500 14px 'Lucida Console',monospace" fill="#000000">measure:</text><text x="357.105" y="586.896" style="font:500 14px 'Lucida Console',monospace" fill="#2ECB70">ConformityMetric[]</text><text x="285.675" y="600.896" style="font:500 14px 'Lucida Console',monospace" fill="#000000">evidence:</text><text x="365.533" y="600.896" style="font:500 14px 'Lucida Console',monospace" fill="#3397DA">ConformityEvidence</text><text x="285.675" y="614.896" style="font:500 14px 'Lucida Console',monospace" fill="#000000">compliance:</text><text x="382.391" y="614.896" style="font:500 14px 'Lucida Console',monospace" fill="#02b57b">Indicator</text><path fill="#FFFFFF" stroke="#2ECB70" stroke-width="3" d="M245.498 702.682h196.125v78H245.498z"/><path fill="#2ecb70" stroke="#2ecb70" d="M246.498 727.682h196.125"/><path fill="none" stroke="#2ECB70" stroke-width="3" d="M245.498 702.682h196.125v78H245.498z"/><text x="255.498" y="720.682" style="font:700 16px 'Lucida Console',monospace" fill="#000000">ConformityMetric</text><text x="255.498" y="744.682" style="font:500 14px 'Lucida Console',monospace" fill="#000000">metric:</text><text x="318.499" y="744.682" style="font:500 14px 'Lucida Console',monospace" fill="#02b57b">URI</text><text x="255.498" y="758.682" style="font:500 14px 'Lucida Console',monospace" fill="#000000">unit:</text><text x="301.642" y="758.682" style="font:500 14px 'Lucida Console',monospace" fill="#530abb">Code(UOM)</text><text x="255.498" y="772.682" style="font:500 14px 'Lucida Console',monospace" fill="#000000">value:</text><text x="310.071" y="772.682" style="font:500 14px 'Lucida Console',monospace" fill="#02b57b">Numeric</text><path fill="#FFFFFF" stroke="#3397DA" stroke-width="3" d="M-91.64 505.497h265.575v92H-91.64z"/><path fill="#3397da" stroke="#3397da" d="M-90.64 530.497h265.575"/><path fill="none" stroke="#3397DA" stroke-width="3" d="M-91.64 505.497h265.575v92H-91.64z"/><text x="-81.64" y="523.497" style="font:700 16px 'Lucida Console',monospace" fill="#000000">ConformityEvidence</text><text x="-81.64" y="547.497" style="font:500 14px 'Lucida Console',monospace" fill="#000000">evidenceRootHash:</text><text x="65.648" y="547.497" style="font:500 14px 'Lucida Console',monospace" fill="#C9A30B">Text</text><text x="-81.64" y="561.497" style="font:500 14px 'Lucida Console',monospace" fill="#000000">description:</text><text x="23.505" y="561.497" style="font:500 14px 'Lucida Console',monospace" fill="#02b57b">Text</text><text x="-81.64" y="575.497" style="font:500 14px 'Lucida Console',monospace" fill="#000000">evidenceData:</text><text x="31.933" y="575.497" style="font:500 14px 'Lucida Console',monospace" fill="#3397DA">EvidenceFile[]</text><text x="-81.64" y="589.497" style="font:500 14px 'Lucida Console',monospace" fill="#000000">decryptionKeyRequest:</text><text x="99.363" y="589.497" style="font:500 14px 'Lucida Console',monospace" fill="#02b57b">URI</text><path fill="#FFFFFF" stroke="#3397DA" stroke-width="3" d="M-181.36 668.35h362.72v92h-362.72z"/><path fill="#3397da" stroke="#3397da" d="M-180.36 693.35h362.72"/><path fill="none" stroke="#3397DA" stroke-width="3" d="M-181.36 668.35h362.72v92h-362.72z"/><text x="-171.36" y="686.35" style="font:700 16px 'Lucida Console',monospace" fill="#000000">EvidenceFile</text><text x="-171.36" y="710.35" style="font:500 14px 'Lucida Console',monospace" fill="#000000">fileHash:</text><text x="-91.501" y="710.35" style="font:500 14px 'Lucida Console',monospace" fill="#C9A30B">Text</text><text x="-171.36" y="724.35" style="font:500 14px 'Lucida Console',monospace" fill="#000000">fileLocation:</text><text x="-57.787" y="724.35" style="font:500 14px 'Lucida Console',monospace" fill="#02b57b">URI</text><text x="-171.36" y="738.35" style="font:500 14px 'Lucida Console',monospace" fill="#000000">fileType:</text><text x="-91.501" y="738.35" style="font:500 14px 'Lucida Console',monospace" fill="#530abb">Code(mimeType)</text><text x="-171.36" y="752.35" style="font:500 14px 'Lucida Console',monospace" fill="#000000">EncryptionMethod:</text><text x="-24.072" y="752.35" style="font:500 14px 'Lucida Console',monospace" fill="#530abb">Code(EncryptionMethod)</text><path fill="#FFFFFF" stroke="#2ECB70" stroke-width="3" d="M50.441 72.801h299.29v106H50.441z"/><path fill="#2ecb70" stroke="#2ecb70" d="M51.441 97.801h299.29"/><path fill="none" stroke="#2ECB70" stroke-width="3" d="M50.441 72.801h299.29v106H50.441z"/><text x="60.441" y="90.801" style="font:700 16px 'Lucida Console',monospace" fill="#000000">Accreditation</text><text x="60.441" y="114.801" style="font:500 14px 'Lucida Console',monospace" fill="#000000">number:</text><text x="123.442" y="114.801" style="font:500 14px 'Lucida Console',monospace" fill="#02b57b">Text</text><text x="60.441" y="128.801" style="font:500 14px 'Lucida Console',monospace" fill="#000000">credential:</text><text x="157.157" y="128.801" style="font:500 14px 'Lucida Console',monospace" fill="#02b57b">URI</text><text x="60.441" y="142.801" style="font:500 14px 'Lucida Console',monospace" fill="#000000">trustmark:</text><text x="148.728" y="142.801" style="font:500 14px 'Lucida Console',monospace" fill="#02b57b">Binary</text><text x="60.441" y="156.801" style="font:500 14px 'Lucida Console',monospace" fill="#000000">evidenceType:</text><text x="174.014" y="156.801" style="font:500 14px 'Lucida Console',monospace" fill="#530abb">Code(EvidenceType)</text><text x="60.441" y="170.801" style="font:500 14px 'Lucida Console',monospace" fill="#000000">authority:</text><text x="148.728" y="170.801" style="font:500 14px 'Lucida Console',monospace" fill="#3397DA">Party</text><path fill="#FFFFFF" stroke="#3397DA" stroke-width="3" d="M728.571 422.857h238.656v92H728.571z"/><path fill="#3397da" stroke="#3397da" d="M729.571 447.857h238.657"/><path fill="none" stroke="#3397DA" stroke-width="3" d="M728.571 422.857h238.656v92H728.571z"/><text x="738.571" y="440.857" style="font:700 16px 'Lucida Console',monospace" fill="#000000">StandardOrRegulation</text><text x="738.571" y="464.857" style="font:500 14px 'Lucida Console',monospace" fill="#000000">id:</text><text x="767.858" y="464.857" style="font:500 14px 'Lucida Console',monospace" fill="#C9A30B">URI</text><text x="738.571" y="478.857" style="font:500 14px 'Lucida Console',monospace" fill="#000000">name:</text><text x="784.715" y="478.857" style="font:500 14px 'Lucida Console',monospace" fill="#02b57b">Text</text><text x="738.571" y="492.857" style="font:500 14px 'Lucida Console',monospace" fill="#000000">issuingBody:</text><text x="843.716" y="492.857" style="font:500 14px 'Lucida Console',monospace" fill="#3397DA">Party</text><text x="738.571" y="506.857" style="font:500 14px 'Lucida Console',monospace" fill="#000000">dateOfIssue:</text><text x="843.716" y="506.857" style="font:500 14px 'Lucida Console',monospace" fill="#02b57b">Date</text><path fill="#FFFFFF" stroke="#3397DA" stroke-width="3" d="M612.928 702.682h278.004v92H612.928z"/><path fill="#3397da" stroke="#3397da" d="M613.928 727.682h278.004"/><path fill="none" stroke="#3397DA" stroke-width="3" d="M612.928 702.682h278.004v92H612.928z"/><text x="622.928" y="720.682" style="font:700 16px 'Lucida Console',monospace" fill="#000000">Specification</text><text x="622.928" y="744.682" style="font:500 14px 'Lucida Console',monospace" fill="#000000">id:</text><text x="652.214" y="744.682" style="font:500 14px 'Lucida Console',monospace" fill="#C9A30B">URI</text><text x="622.928" y="758.682" style="font:500 14px 'Lucida Console',monospace" fill="#000000">threshold:</text><text x="711.215" y="758.682" style="font:500 14px 'Lucida Console',monospace" fill="#2ECB70">ConformityMetric[]</text><text x="622.928" y="772.682" style="font:500 14px 'Lucida Console',monospace" fill="#000000">description:</text><text x="728.073" y="772.682" style="font:500 14px 'Lucida Console',monospace" fill="#02b57b">Text</text><text x="622.928" y="786.682" style="font:500 14px 'Lucida Console',monospace" fill="#000000">topic:</text><text x="677.5" y="786.682" style="font:500 14px 'Lucida Console',monospace" fill="#530abb">Code(Topic)</text><path fill="#FFFFFF" stroke="#3397DA" stroke-width="3" d="M602.857 78.571h188v64h-188z"/><path fill="#3397da" stroke="#3397da" d="M603.857 103.571h188"/><path fill="none" stroke="#3397DA" stroke-width="3" d="M602.857 78.571h188v64h-188z"/><text x="612.857" y="96.571" style="font:700 16px 'Lucida Console',monospace" fill="#000000">Party</text><text x="612.857" y="120.571" style="font:500 14px 'Lucida Console',monospace" fill="#000000">id:</text><text x="642.143" y="120.571" style="font:500 14px 'Lucida Console',monospace" fill="#C9A30B">URI</text><text x="612.857" y="134.571" style="font:500 14px 'Lucida Console',monospace" fill="#000000">name:</text><text x="659.001" y="134.571" style="font:500 14px 'Lucida Console',monospace" fill="#02b57b">Text</text></svg>