<svg xmlns="http://www.w3.org/2000/svg" viewBox="-142.359 -88 1648.146 1006"><rect width="1000%" height="1000%" x="-500%" y="-500%" fill="#EEEEEE"/><path fill="none" stroke="#EEEEEE" stroke-width="8" d="M498.674 288.341l-.01-.01H40.786v19.098"/><defs><linearGradient id="a" x1="100%" x2="50%" y1="100%" y2="50%"><stop offset="0%" stop-color="#3397DA"/><stop offset="100%" stop-color="#aabbccdd"/></linearGradient></defs><path fill="none" stroke="url(#a)" stroke-width="3" d="M498.674 288.341l-.01-.01H40.786v19.098"/><path fill="none" stroke="#EEEEEE" stroke-width="8" d="M567.27 325.008l-.01-.01V151.57H404"/><defs><linearGradient id="b" x1="100%" x2="50%" y1="100%" y2="50%"><stop offset="0%" stop-color="#3397DA"/><stop offset="100%" stop-color="#aabbccdd"/></linearGradient></defs><path fill="none" stroke="url(#b)" stroke-width="3" d="M567.27 325.008l-.01-.01V151.57H404"/><path fill="none" stroke="url(#b)" stroke-width="1.5" d="M563.727 131.581l-2.01-.01v8h2M567.727 131.581l1.99-.01v8h-2"/><path fill="none" stroke="#EEEEEE" stroke-width="8" d="M773.059 325.008l-.01-.01h277.095V185.714"/><defs><linearGradient id="c" x1="0%" x2="50%" y1="0%" y2="50%"><stop offset="0%" stop-color="#3397DA"/><stop offset="100%" stop-color="#aabbccdd"/></linearGradient></defs><path fill="none" stroke="url(#c)" stroke-width="3" d="M773.059 325.008l-.01-.01h277.095V185.714"/><path fill="none" stroke="#EEEEEE" stroke-width="8" d="M1044.304 465.675l-.01-.01h172.134V337.57"/><defs><linearGradient id="d" x1="0%" x2="50%" y1="0%" y2="50%"><stop offset="0%" stop-color="#3397DA"/><stop offset="100%" stop-color="#aabbccdd"/></linearGradient></defs><path fill="none" stroke="url(#d)" stroke-width="3" d="M1044.304 465.675l-.01-.01h172.134V337.57"/><path fill="none" stroke="#EEEEEE" stroke-width="8" d="M788.286 591.389l-.01-.01h611.462V485.95"/><defs><linearGradient id="e" x1="0%" x2="50%" y1="0%" y2="50%"><stop offset="0%" stop-color="#3397DA"/><stop offset="100%" stop-color="#aabbccdd"/></linearGradient></defs><path fill="none" stroke="url(#e)" stroke-width="3" d="M788.286 591.389l-.01-.01h611.462V485.95"/><path fill="none" stroke="#EEEEEE" stroke-width="8" d="M732.918 616.817l-.01-.01h367.379v90.479"/><defs><linearGradient id="f" x1="0%" x2="50%" y1="0%" y2="50%"><stop offset="0%" stop-color="#3397DA"/><stop offset="100%" stop-color="#aabbccdd"/></linearGradient></defs><path fill="none" stroke="url(#f)" stroke-width="3" d="M732.918 616.817l-.01-.01h367.379v90.479"/><path fill="none" stroke="#EEEEEE" stroke-width="8" d="M677.55 642.246l-.01-.01V839H822.93"/><defs><linearGradient id="g" x1="0%" x2="50%" y1="0%" y2="50%"><stop offset="0%" stop-color="#3397DA"/><stop offset="100%" stop-color="#aabbccdd"/></linearGradient></defs><path fill="none" stroke="url(#g)" stroke-width="3" d="M677.55 642.246l-.01-.01V839H822.93"/><path fill="none" stroke="url(#g)" stroke-width="1.5" d="M684.294 819.01l-2.01-.01v8h2M688.294 819.01l1.99-.01v8h-2"/><path fill="none" stroke="#EEEEEE" stroke-width="8" d="M622.182 616.817l-.01-.01V840.43h-124.03"/><defs><linearGradient id="h" x1="0%" x2="50%" y1="0%" y2="50%"><stop offset="0%" stop-color="#3397DA"/><stop offset="100%" stop-color="#aabbccdd"/></linearGradient></defs><path fill="none" stroke="url(#h)" stroke-width="3" d="M622.182 616.817l-.01-.01V840.43h-124.03"/><path fill="none" stroke="url(#h)" stroke-width="1.5" d="M617.725 820.439l-2.01-.01v8h2M621.725 820.439l1.99-.01v8h-2"/><path fill="none" stroke="#EEEEEE" stroke-width="8" d="M699.297.01l-.01-.01v361.665h-63.43"/><defs><linearGradient id="i" x1="0%" x2="50%" y1="0%" y2="50%"><stop offset="0%" stop-color="#FF3986"/><stop offset="100%" stop-color="#3397DA"/></linearGradient></defs><path fill="none" stroke="url(#i)" stroke-width="3" d="M699.297.01l-.01-.01v361.665h-63.43"/><path fill="none" stroke="#EEEEEE" stroke-width="8" d="M704.462 361.675l-.01-.01h339.842v104"/><defs><linearGradient id="j" x1="0%" x2="50%" y1="0%" y2="50%"><stop offset="0%" stop-color="#3397DA"/><stop offset="100%" stop-color="#3397DA"/></linearGradient></defs><path fill="none" stroke="url(#j)" stroke-width="3" d="M704.462 361.675l-.01-.01h339.842v104"/><path fill="none" stroke="#EEEEEE" stroke-width="8" d="M635.866 398.341l-.01-.01v231.19h14"/><defs><linearGradient id="k" x1="0%" x2="50%" y1="0%" y2="50%"><stop offset="0%" stop-color="#3397DA"/><stop offset="100%" stop-color="#3397DA"/></linearGradient></defs><path fill="none" stroke="url(#k)" stroke-width="3" d="M635.866 398.341l-.01-.01v231.19h14"/><path fill="none" stroke="url(#k)" stroke-width="1.5" d="M655.866 520.032l-2.01-.01v8h2M659.866 520.032l1.99-.01v8h-2"/><path fill="none" stroke="#EEEEEE" stroke-width="8" d="M511.446 565.96l-.01-.01H254.857v-90.664"/><defs><linearGradient id="l" x1="100%" x2="50%" y1="100%" y2="50%"><stop offset="0%" stop-color="#3397DA"/><stop offset="100%" stop-color="#3397DA"/></linearGradient></defs><path fill="none" stroke="url(#l)" stroke-width="3" d="M511.446 565.96l-.01-.01H254.857v-90.664"/><path fill="none" stroke="url(#l)" stroke-width="1.5" d="M274.867 556.796l-2.01-.01v8h2M278.867 556.796l1.99-.01v8h-2"/><path fill="none" stroke="#EEEEEE" stroke-width="8" d="M566.814 591.389l-.01-.01H274.857v115.335"/><defs><linearGradient id="m" x1="0%" x2="50%" y1="0%" y2="50%"><stop offset="0%" stop-color="#3397DA"/><stop offset="100%" stop-color="#3397DA"/></linearGradient></defs><path fill="none" stroke="url(#m)" stroke-width="3" d="M566.814 591.389l-.01-.01H274.857v115.335"/><path fill="none" stroke="url(#m)" stroke-width="1.5" d="M294.867 625.224l-2.01-.01v8h2M298.867 625.224l1.99-.01v8h-2"/><path fill="none" stroke="#EEEEEE" stroke-width="8" d="M1366.724 561.96l-.01-.01h-322.42v-80.285"/><defs><linearGradient id="n" x1="100%" x2="50%" y1="100%" y2="50%"><stop offset="0%" stop-color="#aabbccdd"/><stop offset="100%" stop-color="#3397DA"/></linearGradient></defs><path fill="none" stroke="url(#n)" stroke-width="3" d="M1366.724 561.96l-.01-.01h-322.42v-80.285"/><path fill="none" stroke="#EEEEEE" stroke-width="8" d="M.01 383.439l-.01-.01h254.857v107.857"/><defs><linearGradient id="o" x1="0%" x2="50%" y1="0%" y2="50%"><stop offset="0%" stop-color="#aabbccdd"/><stop offset="100%" stop-color="#3397DA"/></linearGradient></defs><path fill="none" stroke="url(#o)" stroke-width="3" d="M.01 383.439l-.01-.01h254.857v107.857"/><path fill="none" stroke="#EEEEEE" stroke-width="8" d="M.01 383.439l-.01-.01v339.285h274.857"/><defs><linearGradient id="p" x1="0%" x2="50%" y1="0%" y2="50%"><stop offset="0%" stop-color="#aabbccdd"/><stop offset="100%" stop-color="#3397DA"/></linearGradient></defs><path fill="none" stroke="url(#p)" stroke-width="3" d="M.01 383.439l-.01-.01v339.285h274.857"/><path fill="#FFFFFF" stroke="#FF3986" stroke-width="3" d="M517.927-68h362.72V68h-362.72z"/><path fill="#ff3986" stroke="#ff3986" d="M518.927-27h362.72"/><path fill="none" stroke="#FF3986" stroke-width="3" d="M517.927-68h362.72V68h-362.72z"/><text x="527.927" y="-50" style="font:700 16px 'Lucida Console',monospace" fill="#000000">DigitalConformityCredential</text><text x="527.927" y="-34" style="font:500 14px 'Lucida Console',monospace" fill="#999">＜＜untp.VerifiableCredential＞＞</text><text x="527.927" y="-10" style="font:500 14px 'Lucida Console',monospace" fill="#666">@context:</text><text x="607.785" y="-10" style="font:500 14px 'Lucida Console',monospace" fill="#02b57b">Text[]</text><text x="527.927" y="4" style="font:500 14px 'Lucida Console',monospace" fill="#666">id:</text><text x="557.213" y="4" style="font:500 14px 'Lucida Console',monospace" fill="#C9A30B">URI</text><text x="527.927" y="18" style="font:500 14px 'Lucida Console',monospace" fill="#666">issuer:</text><text x="590.928" y="18" style="font:500 14px 'Lucida Console',monospace" fill="#02b57b">CredentialIssuer</text><text x="527.927" y="32" style="font:500 14px 'Lucida Console',monospace" fill="#666">validFrom:</text><text x="616.214" y="32" style="font:500 14px 'Lucida Console',monospace" fill="#02b57b">DateTime</text><text x="527.927" y="46" style="font:500 14px 'Lucida Console',monospace" fill="#666">validUntil:</text><text x="624.643" y="46" style="font:500 14px 'Lucida Console',monospace" fill="#02b57b">DateTime</text><text x="527.927" y="60" style="font:500 14px 'Lucida Console',monospace" fill="#000000">credentialSubject:</text><text x="683.644" y="60" style="font:500 14px 'Lucida Console',monospace" fill="#3397DA">ConformityAttestation</text><path fill="#FFFFFF" stroke="#3397DA" stroke-width="3" d="M430.068 251.665h411.577v220H430.068z"/><path fill="#3397da" stroke="#3397da" d="M431.068 292.665h411.577"/><path fill="none" stroke="#3397DA" stroke-width="3" d="M430.068 251.665h411.577v220H430.068z"/><text x="440.068" y="269.665" style="font:700 16px 'Lucida Console',monospace" fill="#000000">ConformityAttestation</text><text x="440.068" y="285.665" style="font:500 14px 'Lucida Console',monospace" fill="#999">＜＜untp.Attestation＞＞</text><text x="440.068" y="309.665" style="font:500 14px 'Lucida Console',monospace" fill="#000000">id:</text><text x="469.354" y="309.665" style="font:500 14px 'Lucida Console',monospace" fill="#C9A30B">URI</text><text x="440.068" y="323.665" style="font:500 14px 'Lucida Console',monospace" fill="#000000">name:</text><text x="486.211" y="323.665" style="font:500 14px 'Lucida Console',monospace" fill="#547000">Text</text><text x="440.068" y="337.665" style="font:500 14px 'Lucida Console',monospace" fill="#000000">assessorLevel:</text><text x="562.07" y="337.665" style="font:500 14px 'Lucida Console',monospace" fill="#547000">Code(assessorLevelCode)</text><text x="440.068" y="351.665" style="font:500 14px 'Lucida Console',monospace" fill="#000000">assessmentLevel:</text><text x="578.927" y="351.665" style="font:500 14px 'Lucida Console',monospace" fill="#547000">Code(assessmentLevelCode)</text><text x="440.068" y="365.665" style="font:500 14px 'Lucida Console',monospace" fill="#000000">attestationType:</text><text x="578.927" y="365.665" style="font:500 14px 'Lucida Console',monospace" fill="#547000">Code(attestationTypeCode)</text><text x="440.068" y="379.665" style="font:500 14px 'Lucida Console',monospace" fill="#000000">attestationDescription:</text><text x="637.928" y="379.665" style="font:500 14px 'Lucida Console',monospace" fill="#547000">Text</text><text x="440.068" y="393.665" style="font:500 14px 'Lucida Console',monospace" fill="#000000">issuedToParty:</text><text x="562.07" y="393.665" style="font:500 14px 'Lucida Console',monospace" fill="#547000">untp.Entity</text><text x="440.068" y="407.665" style="font:500 14px 'Lucida Console',monospace" fill="#000000">authorisations:</text><text x="570.498" y="407.665" style="font:500 14px 'Lucida Console',monospace" fill="#547000">untp.Endorsement[]</text><text x="440.068" y="421.665" style="font:500 14px 'Lucida Console',monospace" fill="#000000">conformityCertificate:</text><text x="629.499" y="421.665" style="font:500 14px 'Lucida Console',monospace" fill="#547000">untp.SecureLink</text><text x="440.068" y="435.665" style="font:500 14px 'Lucida Console',monospace" fill="#000000">auditableEvidence:</text><text x="595.785" y="435.665" style="font:500 14px 'Lucida Console',monospace" fill="#547000">untp.SecureLink</text><text x="440.068" y="449.665" style="font:500 14px 'Lucida Console',monospace" fill="#000000">scope:</text><text x="494.64" y="449.665" style="font:500 14px 'Lucida Console',monospace" fill="#3397DA">ConformityAssessmentScheme</text><text x="440.068" y="463.665" style="font:500 14px 'Lucida Console',monospace" fill="#000000">assessments:</text><text x="545.212" y="463.665" style="font:500 14px 'Lucida Console',monospace" fill="#3397DA">ConformityAssessment[]</text><path fill="#FFFFFF" stroke="#3397DA" stroke-width="3" d="M894.067 404.665h300.453v122H894.067z"/><path fill="#3397da" stroke="#3397da" d="M895.067 445.665h300.454"/><path fill="none" stroke="#3397DA" stroke-width="3" d="M894.067 404.665h300.453v122H894.067z"/><text x="904.067" y="422.665" style="font:700 16px 'Lucida Console',monospace" fill="#000000">ConformityAssessmentScheme</text><text x="904.067" y="438.665" style="font:500 14px 'Lucida Console',monospace" fill="#999">＜＜untp.Standard＞＞</text><text x="904.067" y="462.665" style="font:500 14px 'Lucida Console',monospace" fill="#666">id:</text><text x="933.354" y="462.665" style="font:500 14px 'Lucida Console',monospace" fill="#C9A30B">URI</text><text x="904.067" y="476.665" style="font:500 14px 'Lucida Console',monospace" fill="#666">name:</text><text x="950.211" y="476.665" style="font:500 14px 'Lucida Console',monospace" fill="#02b57b">Text</text><text x="904.067" y="490.665" style="font:500 14px 'Lucida Console',monospace" fill="#666">issuingParty:</text><text x="1017.641" y="490.665" style="font:500 14px 'Lucida Console',monospace" fill="#02b57b">Entity</text><text x="904.067" y="504.665" style="font:500 14px 'Lucida Console',monospace" fill="#666">issueDate:</text><text x="992.355" y="504.665" style="font:500 14px 'Lucida Console',monospace" fill="#02b57b">Date</text><text x="904.067" y="518.665" style="font:500 14px 'Lucida Console',monospace" fill="#000000">trustmark:</text><text x="992.355" y="518.665" style="font:500 14px 'Lucida Console',monospace" fill="#547000">untp.BinaryFile</text><path fill="#FFFFFF" stroke="#3397DA" stroke-width="3" d="M456.067 540.522h387.577v178H456.067z"/><path fill="#3397da" stroke="#3397da" d="M457.067 581.522h387.578"/><path fill="none" stroke="#3397DA" stroke-width="3" d="M456.067 540.522h387.577v178H456.067z"/><text x="466.067" y="558.522" style="font:700 16px 'Lucida Console',monospace" fill="#000000">ConformityAssessment</text><text x="466.067" y="574.522" style="font:500 14px 'Lucida Console',monospace" fill="#999">＜＜untp.Declaration＞＞</text><text x="466.067" y="598.522" style="font:500 14px 'Lucida Console',monospace" fill="#000000">id:</text><text x="495.354" y="598.522" style="font:500 14px 'Lucida Console',monospace" fill="#C9A30B">URI</text><text x="466.067" y="612.522" style="font:500 14px 'Lucida Console',monospace" fill="#000000">referenceStandard:</text><text x="621.784" y="612.522" style="font:500 14px 'Lucida Console',monospace" fill="#547000">untp.Standard</text><text x="466.067" y="626.522" style="font:500 14px 'Lucida Console',monospace" fill="#000000">referenceRegulation:</text><text x="638.642" y="626.522" style="font:500 14px 'Lucida Console',monospace" fill="#547000">untp.Regulation</text><text x="466.067" y="640.522" style="font:500 14px 'Lucida Console',monospace" fill="#000000">assessmentCriteria:</text><text x="630.213" y="640.522" style="font:500 14px 'Lucida Console',monospace" fill="#547000">untp.Criterion[]</text><text x="466.067" y="654.522" style="font:500 14px 'Lucida Console',monospace" fill="#000000">declaredValues:</text><text x="596.498" y="654.522" style="font:500 14px 'Lucida Console',monospace" fill="#547000">untp.Metric[]</text><text x="466.067" y="668.522" style="font:500 14px 'Lucida Console',monospace" fill="#000000">compliance:</text><text x="562.783" y="668.522" style="font:500 14px 'Lucida Console',monospace" fill="#547000">Indicator</text><text x="466.067" y="682.522" style="font:500 14px 'Lucida Console',monospace" fill="#000000">conformityTopic:</text><text x="604.927" y="682.522" style="font:500 14px 'Lucida Console',monospace" fill="#547000">Code(conformityTopicCode)</text><text x="466.067" y="696.522" style="font:500 14px 'Lucida Console',monospace" fill="#000000">assessedProducts:</text><text x="613.356" y="696.522" style="font:500 14px 'Lucida Console',monospace" fill="#3397DA">Product[]</text><text x="466.067" y="710.522" style="font:500 14px 'Lucida Console',monospace" fill="#000000">assessedFacilities:</text><text x="630.213" y="710.522" style="font:500 14px 'Lucida Console',monospace" fill="#3397DA">Facility[]</text><path fill="#FFFFFF" stroke="#3397DA" stroke-width="3" d="M130.498 414.286h248.718v122H130.498z"/><path fill="#3397da" stroke="#3397da" d="M131.498 455.286h248.718"/><path fill="none" stroke="#3397DA" stroke-width="3" d="M130.498 414.286h248.718v122H130.498z"/><text x="140.498" y="432.286" style="font:700 16px 'Lucida Console',monospace" fill="#000000">Product</text><text x="140.498" y="448.286" style="font:500 14px 'Lucida Console',monospace" fill="#999">＜＜untp.Entity＞＞</text><text x="140.498" y="472.286" style="font:500 14px 'Lucida Console',monospace" fill="#666">id:</text><text x="169.784" y="472.286" style="font:500 14px 'Lucida Console',monospace" fill="#C9A30B">URI</text><text x="140.498" y="486.286" style="font:500 14px 'Lucida Console',monospace" fill="#666">name:</text><text x="186.642" y="486.286" style="font:500 14px 'Lucida Console',monospace" fill="#02b57b">Text</text><text x="140.498" y="500.286" style="font:500 14px 'Lucida Console',monospace" fill="#666">registeredId:</text><text x="254.071" y="500.286" style="font:500 14px 'Lucida Console',monospace" fill="#02b57b">Text</text><text x="140.498" y="514.286" style="font:500 14px 'Lucida Console',monospace" fill="#666">idScheme:</text><text x="220.357" y="514.286" style="font:500 14px 'Lucida Console',monospace" fill="#02b57b">IdentifierScheme</text><text x="140.498" y="528.286" style="font:500 14px 'Lucida Console',monospace" fill="#000000">IDverifiedByCAB:</text><text x="279.358" y="528.286" style="font:500 14px 'Lucida Console',monospace" fill="#02b57b">Indicator</text><path fill="#FFFFFF" stroke="#3397DA" stroke-width="3" d="M150.498 645.714h248.718v122H150.498z"/><path fill="#3397da" stroke="#3397da" d="M151.498 686.714h248.718"/><path fill="none" stroke="#3397DA" stroke-width="3" d="M150.498 645.714h248.718v122H150.498z"/><text x="160.498" y="663.714" style="font:700 16px 'Lucida Console',monospace" fill="#000000">Facility</text><text x="160.498" y="679.714" style="font:500 14px 'Lucida Console',monospace" fill="#999">＜＜untp.Entity＞＞</text><text x="160.498" y="703.714" style="font:500 14px 'Lucida Console',monospace" fill="#666">id:</text><text x="189.784" y="703.714" style="font:500 14px 'Lucida Console',monospace" fill="#C9A30B">URI</text><text x="160.498" y="717.714" style="font:500 14px 'Lucida Console',monospace" fill="#666">name:</text><text x="206.642" y="717.714" style="font:500 14px 'Lucida Console',monospace" fill="#02b57b">Text</text><text x="160.498" y="731.714" style="font:500 14px 'Lucida Console',monospace" fill="#666">registeredId:</text><text x="274.071" y="731.714" style="font:500 14px 'Lucida Console',monospace" fill="#02b57b">Text</text><text x="160.498" y="745.714" style="font:500 14px 'Lucida Console',monospace" fill="#666">idScheme:</text><text x="240.357" y="745.714" style="font:500 14px 'Lucida Console',monospace" fill="#02b57b">IdentifierScheme</text><text x="160.498" y="759.714" style="font:500 14px 'Lucida Console',monospace" fill="#000000">IDverifiedByCAB:</text><text x="299.358" y="759.714" style="font:500 14px 'Lucida Console',monospace" fill="#02b57b">Indicator</text><path fill="#FFFFFF" stroke="#aabbccdd" stroke-width="3" d="M-122.359 261.429h244.718v92h-244.718z"/><path fill="#aabbccdd" stroke="#aabbccdd" d="M-121.359 286.429H123.36"/><path fill="none" stroke="#aabbccdd" stroke-width="3" d="M-122.359 261.429h244.718v92h-244.718z"/><text x="-112.359" y="279.429" style="font:700 16px 'Lucida Console',monospace" fill="#000000">untp.Entity</text><text x="-112.359" y="303.429" style="font:500 14px 'Lucida Console',monospace" fill="#000000">id:</text><text x="-83.073" y="303.429" style="font:500 14px 'Lucida Console',monospace" fill="#C9A30B">URI</text><text x="-112.359" y="317.429" style="font:500 14px 'Lucida Console',monospace" fill="#000000">name:</text><text x="-66.215" y="317.429" style="font:500 14px 'Lucida Console',monospace" fill="#02b57b">Text</text><text x="-112.359" y="331.429" style="font:500 14px 'Lucida Console',monospace" fill="#000000">registeredId:</text><text x="1.214" y="331.429" style="font:500 14px 'Lucida Console',monospace" fill="#02b57b">Text</text><text x="-112.359" y="345.429" style="font:500 14px 'Lucida Console',monospace" fill="#000000">idScheme:</text><text x="-32.5" y="345.429" style="font:500 14px 'Lucida Console',monospace" fill="#02b57b">IdentifierScheme</text><path fill="#aabbccdd" stroke="#EEEEEE" stroke-width="3" d="M0 347.429l-12 22 12-2h0l12 2-12-22"/><path fill="#aabbccdd" stroke="#EEEEEE" stroke-width="3" d="M0 347.429l-12 22 12-2h0l12 2-12-22"/><path fill="#aabbccdd" stroke="#aabbccdd" stroke-width="3" d="M0 359.429v25.5"/><path fill="#FFFFFF" stroke="#aabbccdd" stroke-width="3" d="M264.784 98.571h278.433v106H264.784z"/><path fill="#aabbccdd" stroke="#aabbccdd" d="M265.784 123.571h278.433"/><path fill="none" stroke="#aabbccdd" stroke-width="3" d="M264.784 98.571h278.433v106H264.784z"/><text x="274.784" y="116.571" style="font:700 16px 'Lucida Console',monospace" fill="#000000">untp.Endorsement</text><text x="274.784" y="140.571" style="font:500 14px 'Lucida Console',monospace" fill="#000000">id:</text><text x="304.07" y="140.571" style="font:500 14px 'Lucida Console',monospace" fill="#C9A30B">URI</text><text x="274.784" y="154.571" style="font:500 14px 'Lucida Console',monospace" fill="#000000">name:</text><text x="320.928" y="154.571" style="font:500 14px 'Lucida Console',monospace" fill="#02b57b">Text</text><text x="274.784" y="168.571" style="font:500 14px 'Lucida Console',monospace" fill="#000000">trustmark:</text><text x="363.071" y="168.571" style="font:500 14px 'Lucida Console',monospace" fill="#02b57b">BinaryFile</text><text x="274.784" y="182.571" style="font:500 14px 'Lucida Console',monospace" fill="#000000">issuingAuthority:</text><text x="422.072" y="182.571" style="font:500 14px 'Lucida Console',monospace" fill="#02b57b">Entity</text><text x="274.784" y="196.571" style="font:500 14px 'Lucida Console',monospace" fill="#000000">accreditationCertificate:</text><text x="489.502" y="196.571" style="font:500 14px 'Lucida Console',monospace" fill="#02b57b">Link</text><path fill="#FFFFFF" stroke="#aabbccdd" stroke-width="3" d="M851.927 125.714h396.435v120H851.927z"/><path fill="#aabbccdd" stroke="#aabbccdd" d="M852.927 150.714h396.434"/><path fill="none" stroke="#aabbccdd" stroke-width="3" d="M851.927 125.714h396.435v120H851.927z"/><text x="861.927" y="143.714" style="font:700 16px 'Lucida Console',monospace" fill="#000000">untp.SecureLink</text><text x="861.927" y="167.714" style="font:500 14px 'Lucida Console',monospace" fill="#666">linkURL:</text><text x="933.357" y="167.714" style="font:500 14px 'Lucida Console',monospace" fill="#02b57b">URI</text><text x="861.927" y="181.714" style="font:500 14px 'Lucida Console',monospace" fill="#666">linkName:</text><text x="941.785" y="181.714" style="font:500 14px 'Lucida Console',monospace" fill="#02b57b">Text</text><text x="861.927" y="195.714" style="font:500 14px 'Lucida Console',monospace" fill="#666">linkType:</text><text x="941.785" y="195.714" style="font:500 14px 'Lucida Console',monospace" fill="#02b57b">Text</text><text x="861.927" y="209.714" style="font:500 14px 'Lucida Console',monospace" fill="#000000">hashDigest:</text><text x="958.643" y="209.714" style="font:500 14px 'Lucida Console',monospace" fill="#02b57b">Text</text><text x="861.927" y="223.714" style="font:500 14px 'Lucida Console',monospace" fill="#000000">hashMethod:</text><text x="958.643" y="223.714" style="font:500 14px 'Lucida Console',monospace" fill="#530abb">Code(hashMethodCode)</text><text x="861.927" y="237.714" style="font:500 14px 'Lucida Console',monospace" fill="#000000">encryptionMethod:</text><text x="1009.215" y="237.714" style="font:500 14px 'Lucida Console',monospace" fill="#530abb">Code(encryptionMethodCode)</text><path fill="#FFFFFF" stroke="#aabbccdd" stroke-width="3" d="M1100.498 298.571h231.86v78h-231.86z"/><path fill="#aabbccdd" stroke="#aabbccdd" d="M1101.498 323.571h231.86"/><path fill="none" stroke="#aabbccdd" stroke-width="3" d="M1100.498 298.571h231.86v78h-231.86z"/><text x="1110.498" y="316.571" style="font:700 16px 'Lucida Console',monospace" fill="#000000">untp.BinaryFile</text><text x="1110.498" y="340.571" style="font:500 14px 'Lucida Console',monospace" fill="#000000">fileName:</text><text x="1190.357" y="340.571" style="font:500 14px 'Lucida Console',monospace" fill="#02b57b">Text</text><text x="1110.498" y="354.571" style="font:500 14px 'Lucida Console',monospace" fill="#000000">fileType:</text><text x="1190.357" y="354.571" style="font:500 14px 'Lucida Console',monospace" fill="#530abb">Code(mimeType)</text><text x="1110.498" y="368.571" style="font:500 14px 'Lucida Console',monospace" fill="#000000">file:</text><text x="1156.642" y="368.571" style="font:500 14px 'Lucida Console',monospace" fill="#02b57b">Base64</text><path fill="#FFFFFF" stroke="#aabbccdd" stroke-width="3" d="M1267.641 439.95h198.146v92h-198.146z"/><path fill="#aabbccdd" stroke="#aabbccdd" d="M1268.641 464.95h198.146"/><path fill="none" stroke="#aabbccdd" stroke-width="3" d="M1267.641 439.95h198.146v92h-198.146z"/><text x="1277.641" y="457.95" style="font:700 16px 'Lucida Console',monospace" fill="#000000">untp.Standard</text><text x="1277.641" y="481.95" style="font:500 14px 'Lucida Console',monospace" fill="#000000">id:</text><text x="1306.927" y="481.95" style="font:500 14px 'Lucida Console',monospace" fill="#C9A30B">URI</text><text x="1277.641" y="495.95" style="font:500 14px 'Lucida Console',monospace" fill="#000000">name:</text><text x="1323.785" y="495.95" style="font:500 14px 'Lucida Console',monospace" fill="#02b57b">Text</text><text x="1277.641" y="509.95" style="font:500 14px 'Lucida Console',monospace" fill="#000000">issuingParty:</text><text x="1391.214" y="509.95" style="font:500 14px 'Lucida Console',monospace" fill="#02b57b">Entity</text><text x="1277.641" y="523.95" style="font:500 14px 'Lucida Console',monospace" fill="#000000">issueDate:</text><text x="1365.928" y="523.95" style="font:500 14px 'Lucida Console',monospace" fill="#02b57b">Date</text><path fill="#aabbccdd" stroke="#EEEEEE" stroke-width="3" d="M1366.714 525.95l-12 22 12-2h0l12 2-12-22"/><path fill="#aabbccdd" stroke="#EEEEEE" stroke-width="3" d="M1366.714 525.95l-12 22 12-2h0l12 2-12-22"/><path fill="#aabbccdd" stroke="#aabbccdd" stroke-width="3" d="M1366.714 537.95v25.5"/><path fill="#FFFFFF" stroke="#aabbccdd" stroke-width="3" d="M923.355 654.286h353.862v106H923.355z"/><path fill="#aabbccdd" stroke="#aabbccdd" d="M924.355 679.286h353.863"/><path fill="none" stroke="#aabbccdd" stroke-width="3" d="M923.355 654.286h353.862v106H923.355z"/><text x="933.355" y="672.286" style="font:700 16px 'Lucida Console',monospace" fill="#000000">untp.Regulation</text><text x="933.355" y="696.286" style="font:500 14px 'Lucida Console',monospace" fill="#000000">id:</text><text x="962.642" y="696.286" style="font:500 14px 'Lucida Console',monospace" fill="#C9A30B">URI</text><text x="933.355" y="710.286" style="font:500 14px 'Lucida Console',monospace" fill="#000000">name:</text><text x="979.499" y="710.286" style="font:500 14px 'Lucida Console',monospace" fill="#02b57b">Text</text><text x="933.355" y="724.286" style="font:500 14px 'Lucida Console',monospace" fill="#000000">jurisdictionCountry:</text><text x="1105.93" y="724.286" style="font:500 14px 'Lucida Console',monospace" fill="#530abb">Code(countryCode)</text><text x="933.355" y="738.286" style="font:500 14px 'Lucida Console',monospace" fill="#000000">administeredBy:</text><text x="1063.786" y="738.286" style="font:500 14px 'Lucida Console',monospace" fill="#02b57b">Entity</text><text x="933.355" y="752.286" style="font:500 14px 'Lucida Console',monospace" fill="#000000">effectiveDate:</text><text x="1055.357" y="752.286" style="font:500 14px 'Lucida Console',monospace" fill="#02b57b">Date</text><path fill="#FFFFFF" stroke="#aabbccdd" stroke-width="3" d="M704.784 800h236.289v78H704.784z"/><path fill="#aabbccdd" stroke="#aabbccdd" d="M705.784 825h236.289"/><path fill="none" stroke="#aabbccdd" stroke-width="3" d="M704.784 800h236.289v78H704.784z"/><text x="714.784" y="818" style="font:700 16px 'Lucida Console',monospace" fill="#000000">untp.Criterion</text><text x="714.784" y="842" style="font:500 14px 'Lucida Console',monospace" fill="#000000">id:</text><text x="744.07" y="842" style="font:500 14px 'Lucida Console',monospace" fill="#C9A30B">URI</text><text x="714.784" y="856" style="font:500 14px 'Lucida Console',monospace" fill="#000000">name:</text><text x="760.928" y="856" style="font:500 14px 'Lucida Console',monospace" fill="#02b57b">Text</text><text x="714.784" y="870" style="font:500 14px 'Lucida Console',monospace" fill="#000000">thresholdValues:</text><text x="853.643" y="870" style="font:500 14px 'Lucida Console',monospace" fill="#02b57b">Metric[]</text><path fill="#FFFFFF" stroke="#aabbccdd" stroke-width="3" d="M399.07 801.429h198.146v78H399.07z"/><path fill="#aabbccdd" stroke="#aabbccdd" d="M400.07 826.429h198.145"/><path fill="none" stroke="#aabbccdd" stroke-width="3" d="M399.07 801.429h198.146v78H399.07z"/><text x="409.07" y="819.429" style="font:700 16px 'Lucida Console',monospace" fill="#000000">untp.Metric</text><text x="409.07" y="843.429" style="font:500 14px 'Lucida Console',monospace" fill="#000000">metricName:</text><text x="505.786" y="843.429" style="font:500 14px 'Lucida Console',monospace" fill="#02b57b">Text</text><text x="409.07" y="857.429" style="font:500 14px 'Lucida Console',monospace" fill="#000000">metricValue:</text><text x="514.214" y="857.429" style="font:500 14px 'Lucida Console',monospace" fill="#02b57b">Measure</text><text x="409.07" y="871.429" style="font:500 14px 'Lucida Console',monospace" fill="#000000">accuracy:</text><text x="488.928" y="871.429" style="font:500 14px 'Lucida Console',monospace" fill="#02b57b">Numeric</text></svg>