<svg xmlns="http://www.w3.org/2000/svg" viewBox="16.713 -47.143 1233.577 1065.429"><rect width="1000%" height="1000%" x="-500%" y="-500%" fill="#EEEEEE"/><path fill="none" stroke="#EEEEEE" stroke-width="8" d="M815.487 52.867l-.01-.01h188.95v123.714"/><defs><linearGradient id="a" x1="0%" x2="50%" y1="0%" y2="50%"><stop offset="0%" stop-color="#FF3986"/><stop offset="100%" stop-color="#2ECB70"/></linearGradient></defs><path fill="none" stroke="url(#a)" stroke-width="3" d="M815.487 52.867l-.01-.01h188.95v123.714"/><path fill="none" stroke="#EEEEEE" stroke-width="8" d="M714.39 12.867l-.01-.01v301.714H581.573"/><defs><linearGradient id="b" x1="0%" x2="50%" y1="0%" y2="50%"><stop offset="0%" stop-color="#FF3986"/><stop offset="100%" stop-color="#2ECB70"/></linearGradient></defs><path fill="none" stroke="url(#b)" stroke-width="3" d="M714.39 12.867l-.01-.01v301.714H581.573"/><path fill="none" stroke="#EEEEEE" stroke-width="8" d="M975.533 495.629l-.01-.01V160.571h88.976"/><defs><linearGradient id="c" x1="0%" x2="50%" y1="0%" y2="50%"><stop offset="0%" stop-color="#2ECB70"/><stop offset="100%" stop-color="#2ECB70"/></linearGradient></defs><path fill="none" stroke="url(#c)" stroke-width="3" d="M975.533 495.629l-.01-.01V160.571h88.976"/><path fill="none" stroke="#EEEEEE" stroke-width="8" d="M449.437 223.248l-.01-.01V503H250"/><defs><linearGradient id="d" x1="0%" x2="50%" y1="0%" y2="50%"><stop offset="0%" stop-color="#2ECB70"/><stop offset="100%" stop-color="#2ECB70"/></linearGradient></defs><path fill="none" stroke="url(#d)" stroke-width="3" d="M449.437 223.248l-.01-.01V503H250"/><path fill="none" stroke="#EEEEEE" stroke-width="8" d="M482.473 246.081l-.01-.01V622.43h-226.89"/><defs><linearGradient id="e" x1="0%" x2="50%" y1="0%" y2="50%"><stop offset="0%" stop-color="#2ECB70"/><stop offset="100%" stop-color="#2ECB70"/></linearGradient></defs><path fill="none" stroke="url(#e)" stroke-width="3" d="M482.473 246.081l-.01-.01V622.43h-226.89"/><path fill="none" stroke="#EEEEEE" stroke-width="8" d="M647.654 291.748l-.01-.01h296.71V144.571"/><defs><linearGradient id="f" x1="0%" x2="50%" y1="0%" y2="50%"><stop offset="0%" stop-color="#2ECB70"/><stop offset="100%" stop-color="#2ECB70"/></linearGradient></defs><path fill="none" stroke="url(#f)" stroke-width="3" d="M647.654 291.748l-.01-.01h296.71V144.571"/><path fill="none" stroke="#EEEEEE" stroke-width="8" d="M614.618 314.581l-.01-.01h319.533v165.715"/><defs><linearGradient id="g" x1="0%" x2="50%" y1="0%" y2="50%"><stop offset="0%" stop-color="#2ECB70"/><stop offset="100%" stop-color="#2ECB70"/></linearGradient></defs><path fill="none" stroke="url(#g)" stroke-width="3" d="M614.618 314.581l-.01-.01h319.533v165.715"/><path fill="none" stroke="#EEEEEE" stroke-width="8" d="M416.4 200.415l-.01-.01H192.359v115.31"/><defs><linearGradient id="h" x1="0%" x2="50%" y1="0%" y2="50%"><stop offset="0%" stop-color="#2ECB70"/><stop offset="100%" stop-color="#2ECB70"/></linearGradient></defs><path fill="none" stroke="url(#h)" stroke-width="3" d="M416.4 200.415l-.01-.01H192.359v115.31"/><path fill="none" stroke="url(#h)" stroke-width="1.5" d="M212.368 242.224l-2.01-.01v8h2M216.368 242.224l1.99-.01v8h-2"/><path fill="none" stroke="#EEEEEE" stroke-width="8" d="M581.582 337.415l-.01-.01v426.738H607.5"/><defs><linearGradient id="i" x1="0%" x2="50%" y1="0%" y2="50%"><stop offset="0%" stop-color="#2ECB70"/><stop offset="100%" stop-color="#2ECB70"/></linearGradient></defs><path fill="none" stroke="url(#i)" stroke-width="3" d="M581.582 337.415l-.01-.01v426.738H607.5"/><path fill="none" stroke="url(#i)" stroke-width="1.5" d="M601.582 669.653l-2.01-.01v8h2M605.582 669.653l1.99-.01v8h-2"/><path fill="none" stroke="#EEEEEE" stroke-width="8" d="M515.51 268.915l-.01-.01V22.285H323.501"/><defs><linearGradient id="j" x1="100%" x2="50%" y1="100%" y2="50%"><stop offset="0%" stop-color="#2ECB70"/><stop offset="100%" stop-color="#2ECB70"/></linearGradient></defs><path fill="none" stroke="url(#j)" stroke-width="3" d="M515.51 268.915l-.01-.01V22.285H323.501"/><path fill="none" stroke="url(#j)" stroke-width="1.5" d="M483.228 2.296l-2.01-.01v8h2M487.228 2.296l1.99-.01v8h-2"/><path fill="none" stroke="#EEEEEE" stroke-width="8" d="M535.116 727.153l-.01-.01H207.761v19.38"/><defs><linearGradient id="k" x1="100%" x2="50%" y1="100%" y2="50%"><stop offset="0%" stop-color="#2ECB70"/><stop offset="100%" stop-color="#2ECB70"/></linearGradient></defs><path fill="none" stroke="url(#k)" stroke-width="3" d="M535.116 727.153l-.01-.01H207.761v19.38"/><path fill="none" stroke="url(#k)" stroke-width="1.5" d="M385.797 707.153l-2.01-.01v8h2M389.797 707.153l1.99-.01v8h-2"/><path fill="none" stroke="#EEEEEE" stroke-width="8" d="M607.51 801.153l-.01-.01H286.524V777.19"/><defs><linearGradient id="l" x1="100%" x2="50%" y1="100%" y2="50%"><stop offset="0%" stop-color="#2ECB70"/><stop offset="100%" stop-color="#2ECB70"/></linearGradient></defs><path fill="none" stroke="url(#l)" stroke-width="3" d="M607.51 801.153l-.01-.01H286.524V777.19"/><path fill="none" stroke="#EEEEEE" stroke-width="8" d="M679.904 764.153l-.01-.01h285.915v-26.714"/><defs><linearGradient id="m" x1="0%" x2="50%" y1="0%" y2="50%"><stop offset="0%" stop-color="#2ECB70"/><stop offset="100%" stop-color="#2ECB70"/></linearGradient></defs><path fill="none" stroke="url(#m)" stroke-width="3" d="M679.904 764.153l-.01-.01h285.915v-26.714"/><path fill="none" stroke="#EEEEEE" stroke-width="8" d="M1009.008 932.296l-.01-.01V763.429h79.051"/><defs><linearGradient id="n" x1="0%" x2="50%" y1="0%" y2="50%"><stop offset="0%" stop-color="#2ECB70"/><stop offset="100%" stop-color="#2ECB70"/></linearGradient></defs><path fill="none" stroke="url(#n)" stroke-width="3" d="M1009.008 932.296l-.01-.01V763.429h79.051"/><path fill="#FFFFFF" stroke="#FF3986" stroke-width="3" d="M613.284-27.143h303.29v120h-303.29z"/><path fill="#ff3986" stroke="#ff3986" d="M614.284-2.143h303.29"/><path fill="none" stroke="#FF3986" stroke-width="3" d="M613.284-27.143h303.29v120h-303.29z"/><text x="623.284" y="-9.143" style="font:700 16px 'Lucida Console',monospace" fill="#000000">ProductPassport</text><text x="623.284" y="14.857" style="font:500 14px 'Lucida Console',monospace" fill="#000000">id:</text><text x="652.57" y="14.857" style="font:500 14px 'Lucida Console',monospace" fill="#C9A30B">URI</text><text x="623.284" y="28.857" style="font:500 14px 'Lucida Console',monospace" fill="#000000">issuedBy:</text><text x="703.142" y="28.857" style="font:500 14px 'Lucida Console',monospace" fill="#2ECB70">Party</text><text x="623.284" y="42.857" style="font:500 14px 'Lucida Console',monospace" fill="#000000">product:</text><text x="694.714" y="42.857" style="font:500 14px 'Lucida Console',monospace" fill="#2ECB70">Product</text><text x="623.284" y="56.857" style="font:500 14px 'Lucida Console',monospace" fill="#000000">guaranteeOfOriginCredential:</text><text x="863.288" y="56.857" style="font:500 14px 'Lucida Console',monospace" fill="#02b57b">URI</text><text x="623.284" y="70.857" style="font:500 14px 'Lucida Console',monospace" fill="#000000">trustScore:</text><text x="720" y="70.857" style="font:500 14px 'Lucida Console',monospace" fill="#02b57b">Numeric</text><text x="623.284" y="84.857" style="font:500 14px 'Lucida Console',monospace" fill="#000000">sustainabilityScore:</text><text x="795.858" y="84.857" style="font:500 14px 'Lucida Console',monospace" fill="#02b57b">Numeric</text><path fill="#FFFFFF" stroke="#2ECB70" stroke-width="3" d="M884.282 128.571h240.289v64H884.282z"/><path fill="#2ecb70" stroke="#2ecb70" d="M885.282 153.571h240.29"/><path fill="none" stroke="#2ECB70" stroke-width="3" d="M884.282 128.571h240.289v64H884.282z"/><text x="894.282" y="146.571" style="font:700 16px 'Lucida Console',monospace" fill="#000000">Party</text><text x="894.282" y="170.571" style="font:500 14px 'Lucida Console',monospace" fill="#000000">identifiers:</text><text x="999.427" y="170.571" style="font:500 14px 'Lucida Console',monospace" fill="#2ECB70">Identifier[]</text><text x="894.282" y="184.571" style="font:500 14px 'Lucida Console',monospace" fill="#000000">name:</text><text x="940.426" y="184.571" style="font:500 14px 'Lucida Console',monospace" fill="#02b57b">Text</text><path fill="#FFFFFF" stroke="#2ECB70" stroke-width="3" d="M809.997 434.286h248.289v92H809.997z"/><path fill="#2ecb70" stroke="#2ecb70" d="M810.997 459.286h248.289"/><path fill="none" stroke="#2ECB70" stroke-width="3" d="M809.997 434.286h248.289v92H809.997z"/><text x="819.997" y="452.286" style="font:700 16px 'Lucida Console',monospace" fill="#000000">Facility</text><text x="819.997" y="476.286" style="font:500 14px 'Lucida Console',monospace" fill="#000000">identifiers:</text><text x="925.141" y="476.286" style="font:500 14px 'Lucida Console',monospace" fill="#2ECB70">Identifier[]</text><text x="819.997" y="490.286" style="font:500 14px 'Lucida Console',monospace" fill="#000000">name:</text><text x="866.14" y="490.286" style="font:500 14px 'Lucida Console',monospace" fill="#02b57b">Text</text><text x="819.997" y="504.286" style="font:500 14px 'Lucida Console',monospace" fill="#000000">location:</text><text x="899.855" y="504.286" style="font:500 14px 'Lucida Console',monospace" fill="#02b57b">URI</text><text x="819.997" y="518.286" style="font:500 14px 'Lucida Console',monospace" fill="#000000">operatedBy:</text><text x="916.712" y="518.286" style="font:500 14px 'Lucida Console',monospace" fill="#2ECB70">Party</text><path fill="#FFFFFF" stroke="#2ECB70" stroke-width="3" d="M383.355 177.571H779.79v274H383.355z"/><path fill="#2ecb70" stroke="#2ecb70" d="M384.355 202.571h396.434"/><path fill="none" stroke="#2ECB70" stroke-width="3" d="M383.355 177.571H779.79v274H383.355z"/><text x="393.355" y="195.571" style="font:700 16px 'Lucida Console',monospace" fill="#000000">Product</text><text x="393.355" y="219.571" style="font:500 14px 'Lucida Console',monospace" fill="#000000">productIdentifiers:</text><text x="557.5" y="219.571" style="font:500 14px 'Lucida Console',monospace" fill="#2ECB70">Identifier[]</text><text x="393.355" y="233.571" style="font:500 14px 'Lucida Console',monospace" fill="#000000">batchIdentifiers:</text><text x="540.643" y="233.571" style="font:500 14px 'Lucida Console',monospace" fill="#2ECB70">Identifier[]</text><text x="393.355" y="247.571" style="font:500 14px 'Lucida Console',monospace" fill="#000000">itemIdentifiers:</text><text x="532.214" y="247.571" style="font:500 14px 'Lucida Console',monospace" fill="#2ECB70">Identifier[]</text><text x="393.355" y="261.571" style="font:500 14px 'Lucida Console',monospace" fill="#000000">classifications:</text><text x="532.214" y="261.571" style="font:500 14px 'Lucida Console',monospace" fill="#2ECB70">Classification[]</text><text x="393.355" y="275.571" style="font:500 14px 'Lucida Console',monospace" fill="#000000">modelName:</text><text x="481.642" y="275.571" style="font:500 14px 'Lucida Console',monospace" fill="#02b57b">Text</text><text x="393.355" y="289.571" style="font:500 14px 'Lucida Console',monospace" fill="#000000">image:</text><text x="447.927" y="289.571" style="font:500 14px 'Lucida Console',monospace" fill="#02b57b">URI</text><text x="393.355" y="303.571" style="font:500 14px 'Lucida Console',monospace" fill="#000000">description:</text><text x="498.499" y="303.571" style="font:500 14px 'Lucida Console',monospace" fill="#02b57b">Text</text><text x="393.355" y="317.571" style="font:500 14px 'Lucida Console',monospace" fill="#000000">furtherInformation:</text><text x="557.5" y="317.571" style="font:500 14px 'Lucida Console',monospace" fill="#02b57b">URI</text><text x="393.355" y="331.571" style="font:500 14px 'Lucida Console',monospace" fill="#000000">manufacturedDate:</text><text x="540.643" y="331.571" style="font:500 14px 'Lucida Console',monospace" fill="#02b57b">Date</text><text x="393.355" y="345.571" style="font:500 14px 'Lucida Console',monospace" fill="#000000">dimensions:</text><text x="490.07" y="345.571" style="font:500 14px 'Lucida Console',monospace" fill="#2ECB70">Dimension</text><text x="393.355" y="359.571" style="font:500 14px 'Lucida Console',monospace" fill="#000000">charcteristics:</text><text x="523.785" y="359.571" style="font:500 14px 'Lucida Console',monospace" fill="#2ECB70">Characteristic</text><text x="393.355" y="373.571" style="font:500 14px 'Lucida Console',monospace" fill="#000000">manufacturer:</text><text x="506.928" y="373.571" style="font:500 14px 'Lucida Console',monospace" fill="#2ECB70">Party</text><text x="393.355" y="387.571" style="font:500 14px 'Lucida Console',monospace" fill="#000000">manufacturedAt:</text><text x="523.785" y="387.571" style="font:500 14px 'Lucida Console',monospace" fill="#2ECB70">Facility</text><text x="393.355" y="401.571" style="font:500 14px 'Lucida Console',monospace" fill="#000000">materialsProvenance:</text><text x="565.929" y="401.571" style="font:500 14px 'Lucida Console',monospace" fill="#2ECB70">Material[]</text><text x="393.355" y="415.571" style="font:500 14px 'Lucida Console',monospace" fill="#000000">conformityClaims:</text><text x="540.643" y="415.571" style="font:500 14px 'Lucida Console',monospace" fill="#2ECB70">Claim[]</text><text x="393.355" y="429.571" style="font:500 14px 'Lucida Console',monospace" fill="#000000">recyclingInstructions:</text><text x="582.786" y="429.571" style="font:500 14px 'Lucida Console',monospace" fill="#02b57b">URI</text><text x="393.355" y="443.571" style="font:500 14px 'Lucida Console',monospace" fill="#000000">traceabilityInformation:</text><text x="599.644" y="443.571" style="font:500 14px 'Lucida Console',monospace" fill="#2ECB70">TraceabilityEvent[]</text><path fill="#FFFFFF" stroke="#2ECB70" stroke-width="3" d="M462.713 690.143h289.575v148H462.713z"/><path fill="#2ecb70" stroke="#2ecb70" d="M463.713 715.143h289.575"/><path fill="none" stroke="#2ECB70" stroke-width="3" d="M462.713 690.143h289.575v148H462.713z"/><text x="472.713" y="708.143" style="font:700 16px 'Lucida Console',monospace" fill="#000000">Claim</text><text x="472.713" y="732.143" style="font:500 14px 'Lucida Console',monospace" fill="#000000">topic:</text><text x="527.285" y="732.143" style="font:500 14px 'Lucida Console',monospace" fill="#530abb">Code(conformityTopic)</text><text x="472.713" y="746.143" style="font:500 14px 'Lucida Console',monospace" fill="#000000">standardOrRegulation:</text><text x="653.716" y="746.143" style="font:500 14px 'Lucida Console',monospace" fill="#02b57b">URI</text><text x="472.713" y="760.143" style="font:500 14px 'Lucida Console',monospace" fill="#000000">criteriaReference:</text><text x="628.429" y="760.143" style="font:500 14px 'Lucida Console',monospace" fill="#02b57b">URI</text><text x="472.713" y="774.143" style="font:500 14px 'Lucida Console',monospace" fill="#000000">claimedValues:</text><text x="594.715" y="774.143" style="font:500 14px 'Lucida Console',monospace" fill="#2ECB70">Metric[]</text><text x="472.713" y="788.143" style="font:500 14px 'Lucida Console',monospace" fill="#000000">benchmarkValue:</text><text x="603.143" y="788.143" style="font:500 14px 'Lucida Console',monospace" fill="#2ECB70">Metric</text><text x="472.713" y="802.143" style="font:500 14px 'Lucida Console',monospace" fill="#000000">benchmarkReference:</text><text x="636.858" y="802.143" style="font:500 14px 'Lucida Console',monospace" fill="#02b57b">URI</text><text x="472.713" y="816.143" style="font:500 14px 'Lucida Console',monospace" fill="#000000">conformance:</text><text x="577.857" y="816.143" style="font:500 14px 'Lucida Console',monospace" fill="#02b57b">Indicator</text><text x="472.713" y="830.143" style="font:500 14px 'Lucida Console',monospace" fill="#000000">conformityEvidence:</text><text x="636.858" y="830.143" style="font:500 14px 'Lucida Console',monospace" fill="#2ECB70">Evidence</text><path fill="#FFFFFF" stroke="#2ECB70" stroke-width="3" d="M128.998 715.857h236.289v92H128.998z"/><path fill="#2ecb70" stroke="#2ecb70" d="M129.998 740.857h236.29"/><path fill="none" stroke="#2ECB70" stroke-width="3" d="M128.998 715.857h236.289v92H128.998z"/><text x="138.998" y="733.857" style="font:700 16px 'Lucida Console',monospace" fill="#000000">Metric</text><text x="138.998" y="757.857" style="font:500 14px 'Lucida Console',monospace" fill="#000000">name:</text><text x="185.142" y="757.857" style="font:500 14px 'Lucida Console',monospace" fill="#02b57b">Text</text><text x="138.998" y="771.857" style="font:500 14px 'Lucida Console',monospace" fill="#000000">value:</text><text x="193.571" y="771.857" style="font:500 14px 'Lucida Console',monospace" fill="#02b57b">Numeric</text><text x="138.998" y="785.857" style="font:500 14px 'Lucida Console',monospace" fill="#000000">accuracy:</text><text x="218.857" y="785.857" style="font:500 14px 'Lucida Console',monospace" fill="#02b57b">Numeric</text><text x="138.998" y="799.857" style="font:500 14px 'Lucida Console',monospace" fill="#000000">unit:</text><text x="185.142" y="799.857" style="font:500 14px 'Lucida Console',monospace" fill="#530abb">Code(unitOfMeasure)</text><path fill="#FFFFFF" stroke="#2ECB70" stroke-width="3" d="M184.286-9.714h278.433v64H184.286z"/><path fill="#2ecb70" stroke="#2ecb70" d="M185.286 15.286h278.432"/><path fill="none" stroke="#2ECB70" stroke-width="3" d="M184.286-9.714h278.433v64H184.286z"/><text x="194.286" y="8.286" style="font:700 16px 'Lucida Console',monospace" fill="#000000">TraceabilityEvent</text><text x="194.286" y="32.286" style="font:500 14px 'Lucida Console',monospace" fill="#000000">eventReference:</text><text x="324.716" y="32.286" style="font:500 14px 'Lucida Console',monospace" fill="#02b57b">URI</text><text x="194.286" y="46.286" style="font:500 14px 'Lucida Console',monospace" fill="#000000">eventType:</text><text x="282.573" y="46.286" style="font:500 14px 'Lucida Console',monospace" fill="#530abb">Code(eventTypeCode)</text><path fill="#FFFFFF" stroke="#2ECB70" stroke-width="3" d="M36.713 262.714h311.29v106H36.713z"/><path fill="#2ecb70" stroke="#2ecb70" d="M37.713 287.714h311.29"/><path fill="none" stroke="#2ECB70" stroke-width="3" d="M36.713 262.714h311.29v106H36.713z"/><text x="46.713" y="280.714" style="font:700 16px 'Lucida Console',monospace" fill="#000000">Material</text><text x="46.713" y="304.714" style="font:500 14px 'Lucida Console',monospace" fill="#000000">originCountry:</text><text x="168.715" y="304.714" style="font:500 14px 'Lucida Console',monospace" fill="#530abb">Code(countryCode)</text><text x="46.713" y="318.714" style="font:500 14px 'Lucida Console',monospace" fill="#000000">materialType:</text><text x="160.286" y="318.714" style="font:500 14px 'Lucida Console',monospace" fill="#2ECB70">Classification</text><text x="46.713" y="332.714" style="font:500 14px 'Lucida Console',monospace" fill="#000000">massFraction:</text><text x="160.286" y="332.714" style="font:500 14px 'Lucida Console',monospace" fill="#02b57b">Numeric</text><text x="46.713" y="346.714" style="font:500 14px 'Lucida Console',monospace" fill="#000000">recycled:</text><text x="126.571" y="346.714" style="font:500 14px 'Lucida Console',monospace" fill="#02b57b">Indicator</text><text x="46.713" y="360.714" style="font:500 14px 'Lucida Console',monospace" fill="#000000">hazardous:</text><text x="135" y="360.714" style="font:500 14px 'Lucida Console',monospace" fill="#02b57b">Indicator</text><path fill="#FFFFFF" stroke="#2ECB70" stroke-width="3" d="M843.569 711.429h366.72v78h-366.72z"/><path fill="#2ecb70" stroke="#2ecb70" d="M844.57 736.429h366.72"/><path fill="none" stroke="#2ECB70" stroke-width="3" d="M843.569 711.429h366.72v78h-366.72z"/><text x="853.569" y="729.429" style="font:700 16px 'Lucida Console',monospace" fill="#000000">Evidence</text><text x="853.569" y="753.429" style="font:500 14px 'Lucida Console',monospace" fill="#000000">format:</text><text x="916.57" y="753.429" style="font:500 14px 'Lucida Console',monospace" fill="#530abb">Code(evidenceFormat)</text><text x="853.569" y="767.429" style="font:500 14px 'Lucida Console',monospace" fill="#000000">assuranceLevel:</text><text x="984" y="767.429" style="font:500 14px 'Lucida Console',monospace" fill="#530abb">Code(assuranceLevelCode)</text><text x="853.569" y="781.429" style="font:500 14px 'Lucida Console',monospace" fill="#000000">credentialReference:</text><text x="1026.144" y="781.429" style="font:500 14px 'Lucida Console',monospace" fill="#02b57b">URI</text><path fill="#FFFFFF" stroke="#2ECB70" stroke-width="3" d="M150 450h200v106H150z"/><path fill="#2ecb70" stroke="#2ecb70" d="M151 475h200"/><path fill="none" stroke="#2ECB70" stroke-width="3" d="M150 450h200v106H150z"/><text x="160" y="468" style="font:700 16px 'Lucida Console',monospace" fill="#000000">Dimension</text><text x="160" y="492" style="font:500 14px 'Lucida Console',monospace" fill="#000000">weight:</text><text x="223.001" y="492" style="font:500 14px 'Lucida Console',monospace" fill="#2ECB70">Measure</text><text x="160" y="506" style="font:500 14px 'Lucida Console',monospace" fill="#000000">length:</text><text x="223.001" y="506" style="font:500 14px 'Lucida Console',monospace" fill="#2ECB70">Measure</text><text x="160" y="520" style="font:500 14px 'Lucida Console',monospace" fill="#000000">width:</text><text x="214.572" y="520" style="font:500 14px 'Lucida Console',monospace" fill="#2ECB70">Measure</text><text x="160" y="534" style="font:500 14px 'Lucida Console',monospace" fill="#000000">height:</text><text x="223.001" y="534" style="font:500 14px 'Lucida Console',monospace" fill="#2ECB70">Measure</text><text x="160" y="548" style="font:500 14px 'Lucida Console',monospace" fill="#000000">volume:</text><text x="223.001" y="548" style="font:500 14px 'Lucida Console',monospace" fill="#2ECB70">Measure</text><path fill="#FFFFFF" stroke="#2ECB70" stroke-width="3" d="M481.856 886.286H692.43v92H481.856z"/><path fill="#2ecb70" stroke="#2ecb70" d="M482.856 911.286H693.43"/><path fill="none" stroke="#2ECB70" stroke-width="3" d="M481.856 886.286H692.43v92H481.856z"/><text x="491.856" y="904.286" style="font:700 16px 'Lucida Console',monospace" fill="#000000">Classification</text><text x="491.856" y="928.286" style="font:500 14px 'Lucida Console',monospace" fill="#000000">scheme:</text><text x="554.857" y="928.286" style="font:500 14px 'Lucida Console',monospace" fill="#02b57b">URI</text><text x="491.856" y="942.286" style="font:500 14px 'Lucida Console',monospace" fill="#000000">classifierValue:</text><text x="630.715" y="942.286" style="font:500 14px 'Lucida Console',monospace" fill="#02b57b">Text</text><text x="491.856" y="956.286" style="font:500 14px 'Lucida Console',monospace" fill="#000000">classifierName:</text><text x="622.286" y="956.286" style="font:500 14px 'Lucida Console',monospace" fill="#02b57b">Text</text><text x="491.856" y="970.286" style="font:500 14px 'Lucida Console',monospace" fill="#000000">classifierURL:</text><text x="613.858" y="970.286" style="font:500 14px 'Lucida Console',monospace" fill="#02b57b">URI</text><path fill="#FFFFFF" stroke="#2ECB70" stroke-width="3" d="M869.782 886.286h278.433v92H869.782z"/><path fill="#2ecb70" stroke="#2ecb70" d="M870.782 911.286h278.433"/><path fill="none" stroke="#2ECB70" stroke-width="3" d="M869.782 886.286h278.433v92H869.782z"/><text x="879.782" y="904.286" style="font:700 16px 'Lucida Console',monospace" fill="#000000">Identifier</text><text x="879.782" y="928.286" style="font:500 14px 'Lucida Console',monospace" fill="#000000">scheme:</text><text x="942.783" y="928.286" style="font:500 14px 'Lucida Console',monospace" fill="#02b57b">URI</text><text x="879.782" y="942.286" style="font:500 14px 'Lucida Console',monospace" fill="#000000">identiferValue:</text><text x="1010.213" y="942.286" style="font:500 14px 'Lucida Console',monospace" fill="#02b57b">Text</text><text x="879.782" y="956.286" style="font:500 14px 'Lucida Console',monospace" fill="#000000">identifierURI:</text><text x="1001.784" y="956.286" style="font:500 14px 'Lucida Console',monospace" fill="#02b57b">URI</text><text x="879.782" y="970.286" style="font:500 14px 'Lucida Console',monospace" fill="#000000">verificationEvidence:</text><text x="1060.785" y="970.286" style="font:500 14px 'Lucida Console',monospace" fill="#2ECB70">Evidence</text><path fill="#FFFFFF" stroke="#2ECB70" stroke-width="3" d="M150 900h236.289v64H150z"/><path fill="#2ecb70" stroke="#2ecb70" d="M151 925h236.29"/><path fill="none" stroke="#2ECB70" stroke-width="3" d="M150 900h236.289v64H150z"/><text x="160" y="918" style="font:700 16px 'Lucida Console',monospace" fill="#000000">Measure</text><text x="160" y="942" style="font:500 14px 'Lucida Console',monospace" fill="#000000">value:</text><text x="214.572" y="942" style="font:500 14px 'Lucida Console',monospace" fill="#02b57b">Numeric</text><text x="160" y="956" style="font:500 14px 'Lucida Console',monospace" fill="#000000">unit:</text><text x="206.144" y="956" style="font:500 14px 'Lucida Console',monospace" fill="#530abb">Code(unitOfMeasure)</text><path fill="#FFFFFF" stroke="#2ECB70" stroke-width="3" d="M165.573 604.429h180v36h-180z"/><path fill="#2ecb70" stroke="#2ecb70" d="M166.573 629.429h180"/><path fill="none" stroke="#2ECB70" stroke-width="3" d="M165.573 604.429h180v36h-180z"/><text x="175.573" y="622.429" style="font:700 16px 'Lucida Console',monospace" fill="#000000">Characteristic</text></svg>