<svg xmlns="http://www.w3.org/2000/svg" viewBox="-196.931 -88 1366.435 1021.714"><rect width="1000%" height="1000%" x="-500%" y="-500%" fill="#EEEEEE"/><path fill="none" stroke="#EEEEEE" stroke-width="8" d="M539.541 218.581l-.01-.01H59.713v90.286"/><defs><linearGradient id="a" x1="0%" x2="50%" y1="0%" y2="50%"><stop offset="0%" stop-color="#3397DA"/><stop offset="100%" stop-color="#aabbccdd"/></linearGradient></defs><path fill="none" stroke="url(#a)" stroke-width="3" d="M539.541 218.581l-.01-.01H59.713v90.286"/><path fill="none" stroke="#EEEEEE" stroke-width="8" d="M722.473 273.581l-.01-.01v188.286h184.25"/><defs><linearGradient id="b" x1="0%" x2="50%" y1="0%" y2="50%"><stop offset="0%" stop-color="#3397DA"/><stop offset="100%" stop-color="#aabbccdd"/></linearGradient></defs><path fill="none" stroke="url(#b)" stroke-width="3" d="M722.473 273.581l-.01-.01v188.286h184.25"/><path fill="none" stroke="#EEEEEE" stroke-width="8" d="M578.793 670.534l-.01-.01V480.286H393.285"/><defs><linearGradient id="c" x1="100%" x2="50%" y1="100%" y2="50%"><stop offset="0%" stop-color="#3397DA"/><stop offset="100%" stop-color="#aabbccdd"/></linearGradient></defs><path fill="none" stroke="url(#c)" stroke-width="3" d="M578.793 670.534l-.01-.01V480.286H393.285"/><path fill="none" stroke="#EEEEEE" stroke-width="8" d="M450.934 581.534l-.01-.01H0v-21.381"/><defs><linearGradient id="d" x1="100%" x2="50%" y1="100%" y2="50%"><stop offset="0%" stop-color="#3397DA"/><stop offset="100%" stop-color="#aabbccdd"/></linearGradient></defs><path fill="none" stroke="url(#d)" stroke-width="3" d="M450.934 581.534l-.01-.01H0v-21.381"/><path fill="none" stroke="#EEEEEE" stroke-width="8" d="M642.723 640.867l-.01-.01v213.857H432.642"/><defs><linearGradient id="e" x1="0%" x2="50%" y1="0%" y2="50%"><stop offset="0%" stop-color="#3397DA"/><stop offset="100%" stop-color="#aabbccdd"/></linearGradient></defs><path fill="none" stroke="url(#e)" stroke-width="3" d="M642.723 640.867l-.01-.01v213.857H432.642"/><path fill="none" stroke="url(#e)" stroke-width="1.5" d="M571.296 834.724l-2.01-.01v8h2M575.296 834.724l1.99-.01v8h-2"/><path fill="none" stroke="#EEEEEE" stroke-width="8" d="M514.864 611.2l-.01-.01H217.856v120.667"/><defs><linearGradient id="f" x1="0%" x2="50%" y1="0%" y2="50%"><stop offset="0%" stop-color="#3397DA"/><stop offset="100%" stop-color="#aabbccdd"/></linearGradient></defs><path fill="none" stroke="url(#f)" stroke-width="3" d="M514.864 611.2l-.01-.01H217.856v120.667"/><path fill="none" stroke="url(#f)" stroke-width="1.5" d="M237.866 665.367l-2.01-.01v8h2M241.866 665.367l1.99-.01v8h-2"/><path fill="none" stroke="#EEEEEE" stroke-width="8" d="M706.652 611.2l-.01-.01h224.644v217.381"/><defs><linearGradient id="g" x1="0%" x2="50%" y1="0%" y2="50%"><stop offset="0%" stop-color="#3397DA"/><stop offset="100%" stop-color="#aabbccdd"/></linearGradient></defs><path fill="none" stroke="url(#g)" stroke-width="3" d="M706.652 611.2l-.01-.01h224.644v217.381"/><path fill="none" stroke="#EEEEEE" stroke-width="8" d="M559.433.01l-.01-.01v273.571h71.574"/><defs><linearGradient id="h" x1="0%" x2="50%" y1="0%" y2="50%"><stop offset="0%" stop-color="#3397DA"/><stop offset="100%" stop-color="#3397DA"/></linearGradient></defs><path fill="none" stroke="url(#h)" stroke-width="3" d="M559.433.01l-.01-.01v273.571h71.574"/><path fill="none" stroke="#EEEEEE" stroke-width="8" d="M631.007 328.581l-.01-.01v312.286h-52.214"/><defs><linearGradient id="i" x1="0%" x2="50%" y1="0%" y2="50%"><stop offset="0%" stop-color="#3397DA"/><stop offset="100%" stop-color="#3397DA"/></linearGradient></defs><path fill="none" stroke="url(#i)" stroke-width="3" d="M631.007 328.581l-.01-.01v312.286h-52.214"/><path fill="none" stroke="url(#i)" stroke-width="1.5" d="M651.007 531.367l-2.01-.01v8h2M655.007 531.367l1.99-.01v8h-2"/><path fill="#FFFFFF" stroke="#3397DA" stroke-width="3" d="M409.064-68h300.718V68H409.064z"/><path fill="#3397da" stroke="#3397da" d="M410.064-27h300.718"/><path fill="none" stroke="#3397DA" stroke-width="3" d="M409.064-68h300.718V68H409.064z"/><text x="419.064" y="-50" style="font:700 16px 'Lucida Console',monospace" fill="#000000">DigitalFacilityRecord</text><text x="419.064" y="-34" style="font:500 14px 'Lucida Console',monospace" fill="#999">＜＜untp.VerifiableCredential＞＞</text><text x="419.064" y="-10" style="font:500 14px 'Lucida Console',monospace" fill="#666">@context:</text><text x="498.923" y="-10" style="font:500 14px 'Lucida Console',monospace" fill="#02b57b">Text[]</text><text x="419.064" y="4" style="font:500 14px 'Lucida Console',monospace" fill="#666">id:</text><text x="448.35" y="4" style="font:500 14px 'Lucida Console',monospace" fill="#C9A30B">URI</text><text x="419.064" y="18" style="font:500 14px 'Lucida Console',monospace" fill="#666">issuer:</text><text x="482.065" y="18" style="font:500 14px 'Lucida Console',monospace" fill="#02b57b">CredentialIssuer</text><text x="419.064" y="32" style="font:500 14px 'Lucida Console',monospace" fill="#666">validFrom:</text><text x="507.351" y="32" style="font:500 14px 'Lucida Console',monospace" fill="#02b57b">DateTime</text><text x="419.064" y="46" style="font:500 14px 'Lucida Console',monospace" fill="#666">validUntil:</text><text x="515.78" y="46" style="font:500 14px 'Lucida Console',monospace" fill="#02b57b">DateTime</text><text x="419.064" y="60" style="font:500 14px 'Lucida Console',monospace" fill="#000000">credentialSubject:</text><text x="574.781" y="60" style="font:500 14px 'Lucida Console',monospace" fill="#3397DA">Facility</text><path fill="#FFFFFF" stroke="#3397DA" stroke-width="3" d="M448.066 163.571h365.862v220H448.066z"/><path fill="#3397da" stroke="#3397da" d="M449.066 204.571h365.862"/><path fill="none" stroke="#3397DA" stroke-width="3" d="M448.066 163.571h365.862v220H448.066z"/><text x="458.066" y="181.571" style="font:700 16px 'Lucida Console',monospace" fill="#000000">Facility</text><text x="458.066" y="197.571" style="font:500 14px 'Lucida Console',monospace" fill="#999">＜＜untp.Facility＞＞</text><text x="458.066" y="221.571" style="font:500 14px 'Lucida Console',monospace" fill="#000000">id:</text><text x="487.352" y="221.571" style="font:500 14px 'Lucida Console',monospace" fill="#C9A30B">URI</text><text x="458.066" y="235.571" style="font:500 14px 'Lucida Console',monospace" fill="#000000">registeredId:</text><text x="571.639" y="235.571" style="font:500 14px 'Lucida Console',monospace" fill="#547000">Text</text><text x="458.066" y="249.571" style="font:500 14px 'Lucida Console',monospace" fill="#000000">description:</text><text x="563.21" y="249.571" style="font:500 14px 'Lucida Console',monospace" fill="#547000">Text</text><text x="458.066" y="263.571" style="font:500 14px 'Lucida Console',monospace" fill="#000000">name:</text><text x="504.209" y="263.571" style="font:500 14px 'Lucida Console',monospace" fill="#547000">Text</text><text x="458.066" y="277.571" style="font:500 14px 'Lucida Console',monospace" fill="#000000">idScheme:</text><text x="537.924" y="277.571" style="font:500 14px 'Lucida Console',monospace" fill="#547000">untp.IdentifierScheme</text><text x="458.066" y="291.571" style="font:500 14px 'Lucida Console',monospace" fill="#000000">countryOfOperation:</text><text x="622.211" y="291.571" style="font:500 14px 'Lucida Console',monospace" fill="#547000">Code(countryCode)</text><text x="458.066" y="305.571" style="font:500 14px 'Lucida Console',monospace" fill="#000000">processCategory:</text><text x="596.925" y="305.571" style="font:500 14px 'Lucida Console',monospace" fill="#547000">untp.Classification[]</text><text x="458.066" y="319.571" style="font:500 14px 'Lucida Console',monospace" fill="#000000">operatedByParty:</text><text x="596.925" y="319.571" style="font:500 14px 'Lucida Console',monospace" fill="#547000">untp.Identifier</text><text x="458.066" y="333.571" style="font:500 14px 'Lucida Console',monospace" fill="#000000">otherIdentifier:</text><text x="596.925" y="333.571" style="font:500 14px 'Lucida Console',monospace" fill="#547000">untp.Identifier[]</text><text x="458.066" y="347.571" style="font:500 14px 'Lucida Console',monospace" fill="#000000">address:</text><text x="529.495" y="347.571" style="font:500 14px 'Lucida Console',monospace" fill="#547000">untp.Address</text><text x="458.066" y="361.571" style="font:500 14px 'Lucida Console',monospace" fill="#000000">locationInformation:</text><text x="630.64" y="361.571" style="font:500 14px 'Lucida Console',monospace" fill="#547000">untp.Location</text><text x="458.066" y="375.571" style="font:500 14px 'Lucida Console',monospace" fill="#000000">conformityClaim:</text><text x="596.925" y="375.571" style="font:500 14px 'Lucida Console',monospace" fill="#3397DA">Claim[]</text><path fill="#FFFFFF" stroke="#3397DA" stroke-width="3" d="M386.995 551.857h383.577v178H386.995z"/><path fill="#3397da" stroke="#3397da" d="M387.995 592.857h383.577"/><path fill="none" stroke="#3397DA" stroke-width="3" d="M386.995 551.857h383.577v178H386.995z"/><text x="396.995" y="569.857" style="font:700 16px 'Lucida Console',monospace" fill="#000000">Claim</text><text x="396.995" y="585.857" style="font:500 14px 'Lucida Console',monospace" fill="#999">＜＜untp.Declaration＞＞</text><text x="396.995" y="609.857" style="font:500 14px 'Lucida Console',monospace" fill="#666">assessmentDate:</text><text x="527.425" y="609.857" style="font:500 14px 'Lucida Console',monospace" fill="#02b57b">Date</text><text x="396.995" y="623.857" style="font:500 14px 'Lucida Console',monospace" fill="#000000">id:</text><text x="426.281" y="623.857" style="font:500 14px 'Lucida Console',monospace" fill="#C9A30B">URI</text><text x="396.995" y="637.857" style="font:500 14px 'Lucida Console',monospace" fill="#000000">referenceStandard:</text><text x="552.711" y="637.857" style="font:500 14px 'Lucida Console',monospace" fill="#547000">untp.Standard</text><text x="396.995" y="651.857" style="font:500 14px 'Lucida Console',monospace" fill="#000000">referenceRegulation:</text><text x="569.569" y="651.857" style="font:500 14px 'Lucida Console',monospace" fill="#547000">untp.Regulation</text><text x="396.995" y="665.857" style="font:500 14px 'Lucida Console',monospace" fill="#000000">assessmentCriteria:</text><text x="561.14" y="665.857" style="font:500 14px 'Lucida Console',monospace" fill="#547000">untp.Criterion[]</text><text x="396.995" y="679.857" style="font:500 14px 'Lucida Console',monospace" fill="#000000">declaredValue:</text><text x="518.997" y="679.857" style="font:500 14px 'Lucida Console',monospace" fill="#547000">untp.Metric[]</text><text x="396.995" y="693.857" style="font:500 14px 'Lucida Console',monospace" fill="#000000">conformance:</text><text x="502.139" y="693.857" style="font:500 14px 'Lucida Console',monospace" fill="#547000">Indicator</text><text x="396.995" y="707.857" style="font:500 14px 'Lucida Console',monospace" fill="#000000">conformityTopic:</text><text x="535.854" y="707.857" style="font:500 14px 'Lucida Console',monospace" fill="#547000">Code(conformityTopicCode)</text><text x="396.995" y="721.857" style="font:500 14px 'Lucida Console',monospace" fill="#000000">conformityEvidence:</text><text x="561.14" y="721.857" style="font:500 14px 'Lucida Console',monospace" fill="#547000">untp.SecureLink</text><path fill="#FFFFFF" stroke="#aabbccdd" stroke-width="3" d="M-62.645 262.857h244.718v92H-62.645z"/><path fill="#aabbccdd" stroke="#aabbccdd" d="M-61.645 287.857h244.717"/><path fill="none" stroke="#aabbccdd" stroke-width="3" d="M-62.645 262.857h244.718v92H-62.645z"/><text x="-52.645" y="280.857" style="font:700 16px 'Lucida Console',monospace" fill="#000000">untp.Identifier</text><text x="-52.645" y="304.857" style="font:500 14px 'Lucida Console',monospace" fill="#000000">id:</text><text x="-23.359" y="304.857" style="font:500 14px 'Lucida Console',monospace" fill="#C9A30B">URI</text><text x="-52.645" y="318.857" style="font:500 14px 'Lucida Console',monospace" fill="#000000">name:</text><text x="-6.502" y="318.857" style="font:500 14px 'Lucida Console',monospace" fill="#02b57b">Text</text><text x="-52.645" y="332.857" style="font:500 14px 'Lucida Console',monospace" fill="#000000">registeredId:</text><text x="60.928" y="332.857" style="font:500 14px 'Lucida Console',monospace" fill="#02b57b">Text</text><text x="-52.645" y="346.857" style="font:500 14px 'Lucida Console',monospace" fill="#000000">idScheme:</text><text x="27.213" y="346.857" style="font:500 14px 'Lucida Console',monospace" fill="#02b57b">IdentifierScheme</text><path fill="#FFFFFF" stroke="#aabbccdd" stroke-width="3" d="M775.926 422.857h261.575v78H775.926z"/><path fill="#aabbccdd" stroke="#aabbccdd" d="M776.926 447.857h261.575"/><path fill="none" stroke="#aabbccdd" stroke-width="3" d="M775.926 422.857h261.575v78H775.926z"/><text x="785.926" y="440.857" style="font:700 16px 'Lucida Console',monospace" fill="#000000">untp.Location</text><text x="785.926" y="464.857" style="font:500 14px 'Lucida Console',monospace" fill="#000000">plusCode:</text><text x="865.784" y="464.857" style="font:500 14px 'Lucida Console',monospace" fill="#02b57b">URI</text><text x="785.926" y="478.857" style="font:500 14px 'Lucida Console',monospace" fill="#000000">geoLocation:</text><text x="891.071" y="478.857" style="font:500 14px 'Lucida Console',monospace" fill="#547000">geojson.Point</text><text x="785.926" y="492.857" style="font:500 14px 'Lucida Console',monospace" fill="#000000">geoBoundary:</text><text x="891.071" y="492.857" style="font:500 14px 'Lucida Console',monospace" fill="#547000">geojson.Polygon</text><path fill="#FFFFFF" stroke="#aabbccdd" stroke-width="3" d="M277.355 434.286h231.86v92h-231.86z"/><path fill="#aabbccdd" stroke="#aabbccdd" d="M278.355 459.286h231.86"/><path fill="none" stroke="#aabbccdd" stroke-width="3" d="M277.355 434.286h231.86v92h-231.86z"/><text x="287.355" y="452.286" style="font:700 16px 'Lucida Console',monospace" fill="#000000">untp.Standard</text><text x="287.355" y="476.286" style="font:500 14px 'Lucida Console',monospace" fill="#000000">id:</text><text x="316.641" y="476.286" style="font:500 14px 'Lucida Console',monospace" fill="#C9A30B">URI</text><text x="287.355" y="490.286" style="font:500 14px 'Lucida Console',monospace" fill="#000000">name:</text><text x="333.498" y="490.286" style="font:500 14px 'Lucida Console',monospace" fill="#02b57b">Text</text><text x="287.355" y="504.286" style="font:500 14px 'Lucida Console',monospace" fill="#000000">issuingParty:</text><text x="400.928" y="504.286" style="font:500 14px 'Lucida Console',monospace" fill="#02b57b">Identifier</text><text x="287.355" y="518.286" style="font:500 14px 'Lucida Console',monospace" fill="#000000">issueDate:</text><text x="375.642" y="518.286" style="font:500 14px 'Lucida Console',monospace" fill="#02b57b">Date</text><path fill="#FFFFFF" stroke="#aabbccdd" stroke-width="3" d="M-176.931 507.143h353.862v106h-353.862z"/><path fill="#aabbccdd" stroke="#aabbccdd" d="M-175.931 532.143H177.93"/><path fill="none" stroke="#aabbccdd" stroke-width="3" d="M-176.931 507.143h353.862v106h-353.862z"/><text x="-166.931" y="525.143" style="font:700 16px 'Lucida Console',monospace" fill="#000000">untp.Regulation</text><text x="-166.931" y="549.143" style="font:500 14px 'Lucida Console',monospace" fill="#000000">id:</text><text x="-137.645" y="549.143" style="font:500 14px 'Lucida Console',monospace" fill="#C9A30B">URI</text><text x="-166.931" y="563.143" style="font:500 14px 'Lucida Console',monospace" fill="#000000">name:</text><text x="-120.788" y="563.143" style="font:500 14px 'Lucida Console',monospace" fill="#02b57b">Text</text><text x="-166.931" y="577.143" style="font:500 14px 'Lucida Console',monospace" fill="#000000">jurisdictionCountry:</text><text x="5.643" y="577.143" style="font:500 14px 'Lucida Console',monospace" fill="#530abb">Code(countryCode)</text><text x="-166.931" y="591.143" style="font:500 14px 'Lucida Console',monospace" fill="#000000">administeredBy:</text><text x="-36.5" y="591.143" style="font:500 14px 'Lucida Console',monospace" fill="#02b57b">Identifier</text><text x="-166.931" y="605.143" style="font:500 14px 'Lucida Console',monospace" fill="#000000">effectiveDate:</text><text x="-44.929" y="605.143" style="font:500 14px 'Lucida Console',monospace" fill="#02b57b">Date</text><path fill="#FFFFFF" stroke="#aabbccdd" stroke-width="3" d="M314.497 815.714h236.289v78H314.497z"/><path fill="#aabbccdd" stroke="#aabbccdd" d="M315.497 840.714h236.29"/><path fill="none" stroke="#aabbccdd" stroke-width="3" d="M314.497 815.714h236.289v78H314.497z"/><text x="324.497" y="833.714" style="font:700 16px 'Lucida Console',monospace" fill="#000000">untp.Criterion</text><text x="324.497" y="857.714" style="font:500 14px 'Lucida Console',monospace" fill="#000000">id:</text><text x="353.784" y="857.714" style="font:500 14px 'Lucida Console',monospace" fill="#C9A30B">URI</text><text x="324.497" y="871.714" style="font:500 14px 'Lucida Console',monospace" fill="#000000">name:</text><text x="370.641" y="871.714" style="font:500 14px 'Lucida Console',monospace" fill="#02b57b">Text</text><text x="324.497" y="885.714" style="font:500 14px 'Lucida Console',monospace" fill="#000000">thresholdValues:</text><text x="463.357" y="885.714" style="font:500 14px 'Lucida Console',monospace" fill="#02b57b">Metric[]</text><path fill="#FFFFFF" stroke="#aabbccdd" stroke-width="3" d="M116.783 685.857h202.146v92H116.783z"/><path fill="#aabbccdd" stroke="#aabbccdd" d="M117.783 710.857H319.93"/><path fill="none" stroke="#aabbccdd" stroke-width="3" d="M116.783 685.857h202.146v92H116.783z"/><text x="126.783" y="703.857" style="font:700 16px 'Lucida Console',monospace" fill="#000000">untp.Metric</text><text x="126.783" y="727.857" style="font:500 14px 'Lucida Console',monospace" fill="#000000">metricName:</text><text x="223.499" y="727.857" style="font:500 14px 'Lucida Console',monospace" fill="#02b57b">Text</text><text x="126.783" y="741.857" style="font:500 14px 'Lucida Console',monospace" fill="#000000">metricValue:</text><text x="231.928" y="741.857" style="font:500 14px 'Lucida Console',monospace" fill="#02b57b">Measure</text><text x="126.783" y="755.857" style="font:500 14px 'Lucida Console',monospace" fill="#000000">score:</text><text x="181.355" y="755.857" style="font:500 14px 'Lucida Console',monospace" fill="#02b57b">Text</text><text x="126.783" y="769.857" style="font:500 14px 'Lucida Console',monospace" fill="#000000">accuracy:</text><text x="206.642" y="769.857" style="font:500 14px 'Lucida Console',monospace" fill="#02b57b">Numeric</text><path fill="#FFFFFF" stroke="#aabbccdd" stroke-width="3" d="M733.069 768.571h396.435v120H733.069z"/><path fill="#aabbccdd" stroke="#aabbccdd" d="M734.069 793.571h396.434"/><path fill="none" stroke="#aabbccdd" stroke-width="3" d="M733.069 768.571h396.435v120H733.069z"/><text x="743.069" y="786.571" style="font:700 16px 'Lucida Console',monospace" fill="#000000">untp.SecureLink</text><text x="743.069" y="810.571" style="font:500 14px 'Lucida Console',monospace" fill="#666">linkURL:</text><text x="814.499" y="810.571" style="font:500 14px 'Lucida Console',monospace" fill="#02b57b">URI</text><text x="743.069" y="824.571" style="font:500 14px 'Lucida Console',monospace" fill="#666">linkName:</text><text x="822.927" y="824.571" style="font:500 14px 'Lucida Console',monospace" fill="#02b57b">Text</text><text x="743.069" y="838.571" style="font:500 14px 'Lucida Console',monospace" fill="#666">linkType:</text><text x="822.927" y="838.571" style="font:500 14px 'Lucida Console',monospace" fill="#02b57b">Text</text><text x="743.069" y="852.571" style="font:500 14px 'Lucida Console',monospace" fill="#000000">hashDigest:</text><text x="839.785" y="852.571" style="font:500 14px 'Lucida Console',monospace" fill="#02b57b">Text</text><text x="743.069" y="866.571" style="font:500 14px 'Lucida Console',monospace" fill="#000000">hashMethod:</text><text x="839.785" y="866.571" style="font:500 14px 'Lucida Console',monospace" fill="#530abb">Code(hashMethodCode)</text><text x="743.069" y="880.571" style="font:500 14px 'Lucida Console',monospace" fill="#000000">encryptionMethod:</text><text x="890.357" y="880.571" style="font:500 14px 'Lucida Console',monospace" fill="#530abb">Code(encryptionMethodCode)</text></svg>