<svg xmlns="http://www.w3.org/2000/svg" viewBox="-130.286 -88 1096.719 1033.857"><rect width="1000%" height="1000%" x="-500%" y="-500%" fill="#EEEEEE"/><path fill="none" stroke="#EEEEEE" stroke-width="8" d="M215.365 244.962l-.01-.01v358.762H21.143"/><defs><linearGradient id="a" x1="0%" x2="50%" y1="0%" y2="50%"><stop offset="0%" stop-color="#3397DA"/><stop offset="100%" stop-color="#aabbccdd"/></linearGradient></defs><path fill="none" stroke="url(#a)" stroke-width="3" d="M215.365 244.962l-.01-.01v358.762H21.143"/><path fill="none" stroke="#EEEEEE" stroke-width="8" d="M479.655 302.629l-.01-.01v307.238h289.143"/><defs><linearGradient id="b" x1="0%" x2="50%" y1="0%" y2="50%"><stop offset="0%" stop-color="#3397DA"/><stop offset="100%" stop-color="#aabbccdd"/></linearGradient></defs><path fill="none" stroke="url(#b)" stroke-width="3" d="M479.655 302.629l-.01-.01v307.238h289.143"/><path fill="none" stroke="url(#b)" stroke-width="1.5" d="M590.653 589.867l-2.01-.01v8h2M594.653 589.867l1.99-.01v8h-2"/><path fill="none" stroke="#EEEEEE" stroke-width="8" d="M413.582 360.296l-.01-.01H768.36V183.143"/><defs><linearGradient id="c" x1="0%" x2="50%" y1="0%" y2="50%"><stop offset="0%" stop-color="#3397DA"/><stop offset="100%" stop-color="#aabbccdd"/></linearGradient></defs><path fill="none" stroke="url(#c)" stroke-width="3" d="M413.582 360.296l-.01-.01H768.36V183.143"/><path fill="none" stroke="#EEEEEE" stroke-width="8" d="M373.438 809.867l-.01-.01H0v1.429"/><defs><linearGradient id="d" x1="0%" x2="50%" y1="0%" y2="50%"><stop offset="0%" stop-color="#3397DA"/><stop offset="100%" stop-color="#aabbccdd"/></linearGradient></defs><path fill="none" stroke="url(#d)" stroke-width="3" d="M373.438 809.867l-.01-.01H0v1.429"/><path fill="none" stroke="#EEEEEE" stroke-width="8" d="M508.655.01l-.01-.01v360.286H347.5"/><defs><linearGradient id="e" x1="0%" x2="50%" y1="0%" y2="50%"><stop offset="0%" stop-color="#FF3986"/><stop offset="100%" stop-color="#3397DA"/></linearGradient></defs><path fill="none" stroke="url(#e)" stroke-width="3" d="M508.655.01l-.01-.01v360.286H347.5"/><path fill="none" stroke="#EEEEEE" stroke-width="8" d="M347.51 417.962l-.01-.01v391.905h25.928"/><defs><linearGradient id="f" x1="0%" x2="50%" y1="0%" y2="50%"><stop offset="0%" stop-color="#3397DA"/><stop offset="100%" stop-color="#3397DA"/></linearGradient></defs><path fill="none" stroke="url(#f)" stroke-width="3" d="M347.51 417.962l-.01-.01v391.905h25.928"/><path fill="none" stroke="url(#f)" stroke-width="1.5" d="M367.51 693.367l-2.01-.01v8h2M371.51 693.367l1.99-.01v8h-2"/><path fill="none" stroke="#EEEEEE" stroke-width="8" d="M281.438 302.629l-.01-.01H28.93V91.429"/><defs><linearGradient id="g" x1="100%" x2="50%" y1="100%" y2="50%"><stop offset="0%" stop-color="#3397DA"/><stop offset="100%" stop-color="#2ECB70"/></linearGradient></defs><path fill="none" stroke="url(#g)" stroke-width="3" d="M281.438 302.629l-.01-.01H28.93V91.429"/><path fill="none" stroke="url(#g)" stroke-width="1.5" d="M48.94 143.939l-2.01-.01v8h2M52.94 143.939l1.99-.01v8h-2"/><path fill="#FFFFFF" stroke="#FF3986" stroke-width="3" d="M358.286-68h300.718V68H358.286z"/><path fill="#ff3986" stroke="#ff3986" d="M359.286-27h300.717"/><path fill="none" stroke="#FF3986" stroke-width="3" d="M358.286-68h300.718V68H358.286z"/><text x="368.286" y="-50" style="font:700 16px 'Lucida Console',monospace" fill="#000000">DigitalProductPassport</text><text x="368.286" y="-34" style="font:500 14px 'Lucida Console',monospace" fill="#999">＜＜untp.VerifiableCredential＞＞</text><text x="368.286" y="-10" style="font:500 14px 'Lucida Console',monospace" fill="#666">@context:</text><text x="448.144" y="-10" style="font:500 14px 'Lucida Console',monospace" fill="#02b57b">Text</text><text x="368.286" y="4" style="font:500 14px 'Lucida Console',monospace" fill="#666">id:</text><text x="397.572" y="4" style="font:500 14px 'Lucida Console',monospace" fill="#C9A30B">URI</text><text x="368.286" y="18" style="font:500 14px 'Lucida Console',monospace" fill="#666">issuer:</text><text x="431.287" y="18" style="font:500 14px 'Lucida Console',monospace" fill="#02b57b">Party</text><text x="368.286" y="32" style="font:500 14px 'Lucida Console',monospace" fill="#666">validFrom:</text><text x="456.573" y="32" style="font:500 14px 'Lucida Console',monospace" fill="#02b57b">DateTime</text><text x="368.286" y="46" style="font:500 14px 'Lucida Console',monospace" fill="#666">validUntil:</text><text x="465.002" y="46" style="font:500 14px 'Lucida Console',monospace" fill="#02b57b">DateTime</text><text x="368.286" y="60" style="font:500 14px 'Lucida Console',monospace" fill="#000000">credentialSubject:</text><text x="524.003" y="60" style="font:500 14px 'Lucida Console',monospace" fill="#3397DA">Product</text><path fill="#FFFFFF" stroke="#3397DA" stroke-width="3" d="M149.283 187.286h396.435v346H149.283z"/><path fill="#3397da" stroke="#3397da" d="M150.283 228.286h396.434"/><path fill="none" stroke="#3397DA" stroke-width="3" d="M149.283 187.286h396.435v346H149.283z"/><text x="159.283" y="205.286" style="font:700 16px 'Lucida Console',monospace" fill="#000000">Product</text><text x="159.283" y="221.286" style="font:500 14px 'Lucida Console',monospace" fill="#999">＜＜untp.Product＞＞</text><text x="159.283" y="245.286" style="font:500 14px 'Lucida Console',monospace" fill="#666">id:</text><text x="188.569" y="245.286" style="font:500 14px 'Lucida Console',monospace" fill="#C9A30B">URI</text><text x="159.283" y="259.286" style="font:500 14px 'Lucida Console',monospace" fill="#666">idScheme:</text><text x="239.141" y="259.286" style="font:500 14px 'Lucida Console',monospace" fill="#02b57b">URI</text><text x="159.283" y="273.286" style="font:500 14px 'Lucida Console',monospace" fill="#666">idSchemeName:</text><text x="272.856" y="273.286" style="font:500 14px 'Lucida Console',monospace" fill="#02b57b">Text</text><text x="159.283" y="287.286" style="font:500 14px 'Lucida Console',monospace" fill="#666">idValue:</text><text x="230.712" y="287.286" style="font:500 14px 'Lucida Console',monospace" fill="#02b57b">Text</text><text x="159.283" y="301.286" style="font:500 14px 'Lucida Console',monospace" fill="#666">name:</text><text x="205.426" y="301.286" style="font:500 14px 'Lucida Console',monospace" fill="#02b57b">Text</text><text x="159.283" y="315.286" style="font:500 14px 'Lucida Console',monospace" fill="#666">serialNumber:</text><text x="272.856" y="315.286" style="font:500 14px 'Lucida Console',monospace" fill="#02b57b">Text</text><text x="159.283" y="329.286" style="font:500 14px 'Lucida Console',monospace" fill="#666">batchNumber:</text><text x="264.427" y="329.286" style="font:500 14px 'Lucida Console',monospace" fill="#02b57b">Text</text><text x="159.283" y="343.286" style="font:500 14px 'Lucida Console',monospace" fill="#666">productImage:</text><text x="272.856" y="343.286" style="font:500 14px 'Lucida Console',monospace" fill="#02b57b">BinaryFile</text><text x="159.283" y="357.286" style="font:500 14px 'Lucida Console',monospace" fill="#666">description:</text><text x="264.427" y="357.286" style="font:500 14px 'Lucida Console',monospace" fill="#02b57b">Text</text><text x="159.283" y="371.286" style="font:500 14px 'Lucida Console',monospace" fill="#666">productCategory:</text><text x="298.142" y="371.286" style="font:500 14px 'Lucida Console',monospace" fill="#02b57b">Classification[]</text><text x="159.283" y="385.286" style="font:500 14px 'Lucida Console',monospace" fill="#666">furtherInformation:</text><text x="323.428" y="385.286" style="font:500 14px 'Lucida Console',monospace" fill="#02b57b">URI</text><text x="159.283" y="399.286" style="font:500 14px 'Lucida Console',monospace" fill="#666">producedByParty:</text><text x="298.142" y="399.286" style="font:500 14px 'Lucida Console',monospace" fill="#02b57b">Identifier</text><text x="159.283" y="413.286" style="font:500 14px 'Lucida Console',monospace" fill="#666">producedAtFacility:</text><text x="323.428" y="413.286" style="font:500 14px 'Lucida Console',monospace" fill="#02b57b">Identifier</text><text x="159.283" y="427.286" style="font:500 14px 'Lucida Console',monospace" fill="#666">dimensions:</text><text x="255.998" y="427.286" style="font:500 14px 'Lucida Console',monospace" fill="#02b57b">Dimension</text><text x="159.283" y="441.286" style="font:500 14px 'Lucida Console',monospace" fill="#666">productionDate:</text><text x="289.713" y="441.286" style="font:500 14px 'Lucida Console',monospace" fill="#02b57b">Date</text><text x="159.283" y="455.286" style="font:500 14px 'Lucida Console',monospace" fill="#666">countryOfProduction:</text><text x="331.857" y="455.286" style="font:500 14px 'Lucida Console',monospace" fill="#530abb">Code(countryCode)</text><text x="159.283" y="469.286" style="font:500 14px 'Lucida Console',monospace" fill="#000000">characteristics:</text><text x="298.142" y="469.286" style="font:500 14px 'Lucida Console',monospace" fill="#547000">untp.Characteristic</text><text x="159.283" y="483.286" style="font:500 14px 'Lucida Console',monospace" fill="#000000">materialsProvenance:</text><text x="331.857" y="483.286" style="font:500 14px 'Lucida Console',monospace" fill="#547000">untp.Material[]</text><text x="159.283" y="497.286" style="font:500 14px 'Lucida Console',monospace" fill="#000000">conformityInformation:</text><text x="348.714" y="497.286" style="font:500 14px 'Lucida Console',monospace" fill="#3397DA">Claim[]</text><text x="159.283" y="511.286" style="font:500 14px 'Lucida Console',monospace" fill="#000000">circularityInformation:</text><text x="357.143" y="511.286" style="font:500 14px 'Lucida Console',monospace" fill="#547000">untp.Circularity</text><text x="159.283" y="525.286" style="font:500 14px 'Lucida Console',monospace" fill="#000000">traceabilityInformation:</text><text x="365.572" y="525.286" style="font:500 14px 'Lucida Console',monospace" fill="#2ECB70">TraceabilityEvent[]</text><path fill="#FFFFFF" stroke="#3397DA" stroke-width="3" d="M177.64 713.857h391.577v192H177.64z"/><path fill="#3397da" stroke="#3397da" d="M178.64 754.857h391.577"/><path fill="none" stroke="#3397DA" stroke-width="3" d="M177.64 713.857h391.577v192H177.64z"/><text x="187.64" y="731.857" style="font:700 16px 'Lucida Console',monospace" fill="#000000">Claim</text><text x="187.64" y="747.857" style="font:500 14px 'Lucida Console',monospace" fill="#999">＜＜untp.Declaration＞＞</text><text x="187.64" y="771.857" style="font:500 14px 'Lucida Console',monospace" fill="#666">id:</text><text x="216.926" y="771.857" style="font:500 14px 'Lucida Console',monospace" fill="#C9A30B">URI</text><text x="187.64" y="785.857" style="font:500 14px 'Lucida Console',monospace" fill="#666">referenceStandard:</text><text x="343.357" y="785.857" style="font:500 14px 'Lucida Console',monospace" fill="#02b57b">Standard</text><text x="187.64" y="799.857" style="font:500 14px 'Lucida Console',monospace" fill="#666">referenceRegulation:</text><text x="360.214" y="799.857" style="font:500 14px 'Lucida Console',monospace" fill="#02b57b">Regulation</text><text x="187.64" y="813.857" style="font:500 14px 'Lucida Console',monospace" fill="#666">assessmentCriterion:</text><text x="360.214" y="813.857" style="font:500 14px 'Lucida Console',monospace" fill="#02b57b">Criteria[]</text><text x="187.64" y="827.857" style="font:500 14px 'Lucida Console',monospace" fill="#666">declaredValues:</text><text x="318.07" y="827.857" style="font:500 14px 'Lucida Console',monospace" fill="#02b57b">Metric[]</text><text x="187.64" y="841.857" style="font:500 14px 'Lucida Console',monospace" fill="#666">compliance:</text><text x="284.356" y="841.857" style="font:500 14px 'Lucida Console',monospace" fill="#02b57b">Indicator</text><text x="187.64" y="855.857" style="font:500 14px 'Lucida Console',monospace" fill="#666">conformityTopic:</text><text x="326.499" y="855.857" style="font:500 14px 'Lucida Console',monospace" fill="#530abb">Code(conformityTopicCode)</text><text x="187.64" y="869.857" style="font:500 14px 'Lucida Console',monospace" fill="#000000">benchmarkValue:</text><text x="318.07" y="869.857" style="font:500 14px 'Lucida Console',monospace" fill="#547000">untp.Metric</text><text x="187.64" y="883.857" style="font:500 14px 'Lucida Console',monospace" fill="#000000">benchmarkReference:</text><text x="351.785" y="883.857" style="font:500 14px 'Lucida Console',monospace" fill="#02b57b">URI</text><text x="187.64" y="897.857" style="font:500 14px 'Lucida Console',monospace" fill="#000000">conformityEvidence:</text><text x="351.785" y="897.857" style="font:500 14px 'Lucida Console',monospace" fill="#02b57b">URI</text><path fill="#FFFFFF" stroke="#2ECB70" stroke-width="3" d="M-110.286 59.429h278.433v64h-278.433z"/><path fill="#2ecb70" stroke="#2ecb70" d="M-109.286 84.429h278.433"/><path fill="none" stroke="#2ECB70" stroke-width="3" d="M-110.286 59.429h278.433v64h-278.433z"/><text x="-100.286" y="77.429" style="font:700 16px 'Lucida Console',monospace" fill="#000000">TraceabilityEvent</text><text x="-100.286" y="101.429" style="font:500 14px 'Lucida Console',monospace" fill="#000000">eventReference:</text><text x="30.145" y="101.429" style="font:500 14px 'Lucida Console',monospace" fill="#02b57b">URI</text><text x="-100.286" y="115.429" style="font:500 14px 'Lucida Console',monospace" fill="#000000">eventType:</text><text x="-11.999" y="115.429" style="font:500 14px 'Lucida Console',monospace" fill="#530abb">Code(eventTypeCode)</text><path fill="#FFFFFF" stroke="#aabbccdd" stroke-width="3" d="M-85.369 585.714h213.023v36H-85.369z"/><path fill="#aabbccdd" stroke="#aabbccdd" d="M-84.369 610.714h213.024"/><path fill="none" stroke="#aabbccdd" stroke-width="3" d="M-85.369 585.714h213.023v36H-85.369z"/><text x="-75.369" y="603.714" style="font:700 16px 'Lucida Console',monospace" fill="#000000">untp.Characteristic</text><path fill="#FFFFFF" stroke="#aabbccdd" stroke-width="3" d="M611.143 542.857h315.29v134h-315.29z"/><path fill="#aabbccdd" stroke="#aabbccdd" d="M612.143 567.857h315.29"/><path fill="none" stroke="#aabbccdd" stroke-width="3" d="M611.143 542.857h315.29v134h-315.29z"/><text x="621.143" y="560.857" style="font:700 16px 'Lucida Console',monospace" fill="#000000">untp.Material</text><text x="621.143" y="584.857" style="font:500 14px 'Lucida Console',monospace" fill="#000000">MaterialName:</text><text x="734.716" y="584.857" style="font:500 14px 'Lucida Console',monospace" fill="#02b57b">Text</text><text x="621.143" y="598.857" style="font:500 14px 'Lucida Console',monospace" fill="#000000">originCountry:</text><text x="743.145" y="598.857" style="font:500 14px 'Lucida Console',monospace" fill="#530abb">Code(countryCode)</text><text x="621.143" y="612.857" style="font:500 14px 'Lucida Console',monospace" fill="#000000">materialType:</text><text x="734.716" y="612.857" style="font:500 14px 'Lucida Console',monospace" fill="#02b57b">Classification</text><text x="621.143" y="626.857" style="font:500 14px 'Lucida Console',monospace" fill="#000000">massFraction:</text><text x="734.716" y="626.857" style="font:500 14px 'Lucida Console',monospace" fill="#02b57b">Numeric</text><text x="621.143" y="640.857" style="font:500 14px 'Lucida Console',monospace" fill="#000000">recycledAmount:</text><text x="751.574" y="640.857" style="font:500 14px 'Lucida Console',monospace" fill="#02b57b">Numeric</text><text x="621.143" y="654.857" style="font:500 14px 'Lucida Console',monospace" fill="#000000">hazardous:</text><text x="709.43" y="654.857" style="font:500 14px 'Lucida Console',monospace" fill="#02b57b">Indicator</text><text x="621.143" y="668.857" style="font:500 14px 'Lucida Console',monospace" fill="#000000">materialSafetyInformation:</text><text x="844.289" y="668.857" style="font:500 14px 'Lucida Console',monospace" fill="#02b57b">URI</text><path fill="#FFFFFF" stroke="#aabbccdd" stroke-width="3" d="M644 137.143h248.718v92H644z"/><path fill="#aabbccdd" stroke="#aabbccdd" d="M645 162.143h248.718"/><path fill="none" stroke="#aabbccdd" stroke-width="3" d="M644 137.143h248.718v92H644z"/><text x="654" y="155.143" style="font:700 16px 'Lucida Console',monospace" fill="#000000">untp.Circularity</text><text x="654" y="179.143" style="font:500 14px 'Lucida Console',monospace" fill="#000000">recyclingInformation:</text><text x="835.003" y="179.143" style="font:500 14px 'Lucida Console',monospace" fill="#02b57b">URI</text><text x="654" y="193.143" style="font:500 14px 'Lucida Console',monospace" fill="#000000">repairInformation:</text><text x="809.717" y="193.143" style="font:500 14px 'Lucida Console',monospace" fill="#02b57b">URI</text><text x="654" y="207.143" style="font:500 14px 'Lucida Console',monospace" fill="#000000">recyclableContent:</text><text x="809.717" y="207.143" style="font:500 14px 'Lucida Console',monospace" fill="#02b57b">Decimal</text><text x="654" y="221.143" style="font:500 14px 'Lucida Console',monospace" fill="#000000">recyecledContent:</text><text x="801.288" y="221.143" style="font:500 14px 'Lucida Console',monospace" fill="#02b57b">Decimal</text><path fill="#FFFFFF" stroke="#aabbccdd" stroke-width="3" d="M-99.073 772.286H99.073v78H-99.073z"/><path fill="#aabbccdd" stroke="#aabbccdd" d="M-98.073 797.286h198.146"/><path fill="none" stroke="#aabbccdd" stroke-width="3" d="M-99.073 772.286H99.073v78H-99.073z"/><text x="-89.073" y="790.286" style="font:700 16px 'Lucida Console',monospace" fill="#000000">untp.Metric</text><text x="-89.073" y="814.286" style="font:500 14px 'Lucida Console',monospace" fill="#000000">metricName:</text><text x="7.643" y="814.286" style="font:500 14px 'Lucida Console',monospace" fill="#02b57b">Text</text><text x="-89.073" y="828.286" style="font:500 14px 'Lucida Console',monospace" fill="#000000">metricValue:</text><text x="16.072" y="828.286" style="font:500 14px 'Lucida Console',monospace" fill="#02b57b">Measure</text><text x="-89.073" y="842.286" style="font:500 14px 'Lucida Console',monospace" fill="#000000">accuracy:</text><text x="-9.214" y="842.286" style="font:500 14px 'Lucida Console',monospace" fill="#02b57b">Numeric</text></svg>