<svg xmlns="http://www.w3.org/2000/svg" viewBox="-167.645 -73 1467 865.714"><rect width="1000%" height="1000%" x="-500%" y="-500%" fill="#EEEEEE"/><path fill="none" stroke="#EEEEEE" stroke-width="8" d="M478.097.01l-.01-.01v171.714h-47.873"/><defs><linearGradient id="a" x1="0%" x2="50%" y1="0%" y2="50%"><stop offset="0%" stop-color="#3397DA"/><stop offset="100%" stop-color="#FF3986"/></linearGradient></defs><path fill="none" stroke="url(#a)" stroke-width="3" d="M478.097.01l-.01-.01v171.714h-47.873"/><path fill="none" stroke="#EEEEEE" stroke-width="8" d="M430.224 201.724l-.01-.01H762.93v38.715"/><defs><linearGradient id="b" x1="0%" x2="50%" y1="0%" y2="50%"><stop offset="0%" stop-color="#FF3986"/><stop offset="100%" stop-color="#3397DA"/></linearGradient></defs><path fill="none" stroke="url(#b)" stroke-width="3" d="M430.224 201.724l-.01-.01H762.93v38.715"/><path fill="none" stroke="#EEEEEE" stroke-width="8" d="M496.618 171.724l-.01-.01h647.052v39.429"/><defs><linearGradient id="c" x1="0%" x2="50%" y1="0%" y2="50%"><stop offset="0%" stop-color="#FF3986"/><stop offset="100%" stop-color="#3397DA"/></linearGradient></defs><path fill="none" stroke="url(#c)" stroke-width="3" d="M496.618 171.724l-.01-.01h647.052v39.429"/><path fill="none" stroke="#EEEEEE" stroke-width="8" d="M363.83 141.724l-.01-.01V375h36.109"/><defs><linearGradient id="d" x1="0%" x2="50%" y1="0%" y2="50%"><stop offset="0%" stop-color="#FF3986"/><stop offset="100%" stop-color="#3397DA"/></linearGradient></defs><path fill="none" stroke="url(#d)" stroke-width="3" d="M363.83 141.724l-.01-.01V375h36.109"/><path fill="none" stroke="#EEEEEE" stroke-width="8" d="M808.51 385.01l-.01-.01V272.429h1.429"/><defs><linearGradient id="e" x1="0%" x2="50%" y1="0%" y2="50%"><stop offset="0%" stop-color="#3397DA"/><stop offset="100%" stop-color="#3397DA"/></linearGradient></defs><path fill="none" stroke="url(#e)" stroke-width="3" d="M808.51 385.01l-.01-.01V272.429h1.429"/><path fill="none" stroke="#EEEEEE" stroke-width="8" d="M1143.67 211.153l-.01-.01H856.929v45.286"/><defs><linearGradient id="f" x1="0%" x2="50%" y1="0%" y2="50%"><stop offset="0%" stop-color="#3397DA"/><stop offset="100%" stop-color="#3397DA"/></linearGradient></defs><path fill="none" stroke="url(#f)" stroke-width="3" d="M1143.67 211.153l-.01-.01H856.929v45.286"/><path fill="none" stroke="#EEEEEE" stroke-width="8" d="M512.483 361.61l-.01-.01H808.5V385"/><defs><linearGradient id="g" x1="0%" x2="50%" y1="0%" y2="50%"><stop offset="0%" stop-color="#3397DA"/><stop offset="100%" stop-color="#3397DA"/></linearGradient></defs><path fill="none" stroke="url(#g)" stroke-width="3" d="M512.483 361.61l-.01-.01H808.5V385"/><path fill="none" stroke="#EEEEEE" stroke-width="8" d="M287.394 334.81l-.01-.01H0v9.914"/><defs><linearGradient id="h" x1="100%" x2="50%" y1="100%" y2="50%"><stop offset="0%" stop-color="#3397DA"/><stop offset="100%" stop-color="#2ECB70"/></linearGradient></defs><path fill="none" stroke="url(#h)" stroke-width="3" d="M287.394 334.81l-.01-.01H0v9.914"/><path fill="none" stroke="url(#h)" stroke-width="1.5" d="M168.155 314.81l-2.01-.01v8h2M172.155 314.81l1.99-.01v8h-2"/><path fill="none" stroke="#EEEEEE" stroke-width="8" d="M437.453 388.41l-.01-.01V567h167.343"/><defs><linearGradient id="i" x1="0%" x2="50%" y1="0%" y2="50%"><stop offset="0%" stop-color="#3397DA"/><stop offset="100%" stop-color="#2ECB70"/></linearGradient></defs><path fill="none" stroke="url(#i)" stroke-width="3" d="M437.453 388.41l-.01-.01V567h167.343"/><path fill="none" stroke="url(#i)" stroke-width="1.5" d="M443.08 547.01l-2.01-.01v8h2M447.08 547.01l1.99-.01v8h-2"/><path fill="none" stroke="#EEEEEE" stroke-width="8" d="M362.424 361.61l-.01-.01v181.971H257.07"/><defs><linearGradient id="j" x1="0%" x2="50%" y1="0%" y2="50%"><stop offset="0%" stop-color="#3397DA"/><stop offset="100%" stop-color="#2ECB70"/></linearGradient></defs><path fill="none" stroke="url(#j)" stroke-width="3" d="M362.424 361.61l-.01-.01v181.971H257.07"/><path fill="none" stroke="url(#j)" stroke-width="1.5" d="M382.424 491.081l-2.01-.01v8h2M386.424 491.081l1.99-.01v8h-2"/><path fill="none" stroke="#EEEEEE" stroke-width="8" d="M604.796 567.01l-.01-.01v146.714h-6.215"/><defs><linearGradient id="k" x1="0%" x2="50%" y1="0%" y2="50%"><stop offset="0%" stop-color="#2ECB70"/><stop offset="100%" stop-color="#2ECB70"/></linearGradient></defs><path fill="none" stroke="url(#k)" stroke-width="3" d="M604.796 567.01l-.01-.01v146.714h-6.215"/><path fill="none" stroke="url(#k)" stroke-width="1.5" d="M624.796 654.224l-2.01-.01v8h2M628.796 654.224l1.99-.01v8h-2"/><path fill="#FFFFFF" stroke="#3397DA" stroke-width="3" d="M356.759-53h242.656V53H356.759z"/><path fill="#3397da" stroke="#3397da" d="M357.759-28h242.656"/><path fill="none" stroke="#3397DA" stroke-width="3" d="M356.759-53h242.656V53H356.759z"/><text x="366.759" y="-35" style="font:700 16px 'Lucida Console',monospace" fill="#000000">VerifiableCredential</text><text x="366.759" y="-11" style="font:500 14px 'Lucida Console',monospace" fill="#000000">id:</text><text x="396.045" y="-11" style="font:500 14px 'Lucida Console',monospace" fill="#C9A30B">URI</text><text x="366.759" y="3" style="font:500 14px 'Lucida Console',monospace" fill="#000000">issuer:</text><text x="429.76" y="3" style="font:500 14px 'Lucida Console',monospace" fill="#02b57b">URI</text><text x="366.759" y="17" style="font:500 14px 'Lucida Console',monospace" fill="#000000">validFrom:</text><text x="455.046" y="17" style="font:500 14px 'Lucida Console',monospace" fill="#02b57b">DateTime</text><text x="366.759" y="31" style="font:500 14px 'Lucida Console',monospace" fill="#000000">status:</text><text x="429.76" y="31" style="font:500 14px 'Lucida Console',monospace" fill="#02b57b">Text</text><text x="366.759" y="45" style="font:500 14px 'Lucida Console',monospace" fill="#000000">subject:</text><text x="438.189" y="45" style="font:500 14px 'Lucida Console',monospace" fill="#3397DA">ProductPassport</text><path fill="#FFFFFF" stroke="#FF3986" stroke-width="3" d="M297.427 111.714h265.575v120H297.427z"/><path fill="#ff3986" stroke="#ff3986" d="M298.427 136.714h265.575"/><path fill="none" stroke="#FF3986" stroke-width="3" d="M297.427 111.714h265.575v120H297.427z"/><text x="307.427" y="129.714" style="font:700 16px 'Lucida Console',monospace" fill="#000000">ProductPassport</text><text x="307.427" y="153.714" style="font:500 14px 'Lucida Console',monospace" fill="#000000">id:</text><text x="336.713" y="153.714" style="font:500 14px 'Lucida Console',monospace" fill="#C9A30B">URI</text><text x="307.427" y="167.714" style="font:500 14px 'Lucida Console',monospace" fill="#000000">issuedBy:</text><text x="387.285" y="167.714" style="font:500 14px 'Lucida Console',monospace" fill="#3397DA">Party</text><text x="307.427" y="181.714" style="font:500 14px 'Lucida Console',monospace" fill="#000000">product:</text><text x="378.856" y="181.714" style="font:500 14px 'Lucida Console',monospace" fill="#3397DA">ProductInformation</text><text x="307.427" y="195.714" style="font:500 14px 'Lucida Console',monospace" fill="#000000">batch:</text><text x="361.999" y="195.714" style="font:500 14px 'Lucida Console',monospace" fill="#3397DA">ProductBatch</text><text x="307.427" y="209.714" style="font:500 14px 'Lucida Console',monospace" fill="#000000">sustainabilityScore:</text><text x="480.001" y="209.714" style="font:500 14px 'Lucida Console',monospace" fill="#02b57b">Numeric</text><text x="307.427" y="223.714" style="font:500 14px 'Lucida Console',monospace" fill="#000000">trustScore:</text><text x="404.142" y="223.714" style="font:500 14px 'Lucida Console',monospace" fill="#02b57b">Numeric</text><path fill="#FFFFFF" stroke="#3397DA" stroke-width="3" d="M715.929 224.429h188v64h-188z"/><path fill="#3397da" stroke="#3397da" d="M716.929 249.429h188"/><path fill="none" stroke="#3397DA" stroke-width="3" d="M715.929 224.429h188v64h-188z"/><text x="725.929" y="242.429" style="font:700 16px 'Lucida Console',monospace" fill="#000000">Party</text><text x="725.929" y="266.429" style="font:500 14px 'Lucida Console',monospace" fill="#000000">id:</text><text x="755.215" y="266.429" style="font:500 14px 'Lucida Console',monospace" fill="#C9A30B">URI</text><text x="725.929" y="280.429" style="font:500 14px 'Lucida Console',monospace" fill="#000000">name:</text><text x="772.072" y="280.429" style="font:500 14px 'Lucida Console',monospace" fill="#02b57b">Text</text><path fill="#FFFFFF" stroke="#3397DA" stroke-width="3" d="M712.5 346h192v78h-192z"/><path fill="#3397da" stroke="#3397da" d="M713.5 371h192"/><path fill="none" stroke="#3397DA" stroke-width="3" d="M712.5 346h192v78h-192z"/><text x="722.5" y="364" style="font:700 16px 'Lucida Console',monospace" fill="#000000">Facility</text><text x="722.5" y="388" style="font:500 14px 'Lucida Console',monospace" fill="#000000">id:</text><text x="751.786" y="388" style="font:500 14px 'Lucida Console',monospace" fill="#C9A30B">URI</text><text x="722.5" y="402" style="font:500 14px 'Lucida Console',monospace" fill="#000000">name:</text><text x="768.643" y="402" style="font:500 14px 'Lucida Console',monospace" fill="#02b57b">Text</text><text x="722.5" y="416" style="font:500 14px 'Lucida Console',monospace" fill="#000000">operatedBy:</text><text x="819.216" y="416" style="font:500 14px 'Lucida Console',monospace" fill="#3397DA">Party</text><path fill="#FFFFFF" stroke="#3397DA" stroke-width="3" d="M1027.965 144.143h231.391v134h-231.391z"/><path fill="#3397da" stroke="#3397da" d="M1028.965 169.143h231.39"/><path fill="none" stroke="#3397DA" stroke-width="3" d="M1027.965 144.143h231.391v134h-231.391z"/><text x="1037.965" y="162.143" style="font:700 16px 'Lucida Console',monospace" fill="#000000">ProductInformation</text><text x="1037.965" y="186.143" style="font:500 14px 'Lucida Console',monospace" fill="#000000">productId:</text><text x="1126.252" y="186.143" style="font:500 14px 'Lucida Console',monospace" fill="#C9A30B">URI</text><text x="1037.965" y="200.143" style="font:500 14px 'Lucida Console',monospace" fill="#000000">model:</text><text x="1092.537" y="200.143" style="font:500 14px 'Lucida Console',monospace" fill="#02b57b">Text</text><text x="1037.965" y="214.143" style="font:500 14px 'Lucida Console',monospace" fill="#000000">productClass:</text><text x="1151.538" y="214.143" style="font:500 14px 'Lucida Console',monospace" fill="#02b57b">Text</text><text x="1037.965" y="228.143" style="font:500 14px 'Lucida Console',monospace" fill="#000000">image:</text><text x="1092.537" y="228.143" style="font:500 14px 'Lucida Console',monospace" fill="#02b57b">URI</text><text x="1037.965" y="242.143" style="font:500 14px 'Lucida Console',monospace" fill="#000000">description:</text><text x="1143.109" y="242.143" style="font:500 14px 'Lucida Console',monospace" fill="#02b57b">Text</text><text x="1037.965" y="256.143" style="font:500 14px 'Lucida Console',monospace" fill="#000000">recyclingInfo:</text><text x="1159.967" y="256.143" style="font:500 14px 'Lucida Console',monospace" fill="#02b57b">URI</text><text x="1037.965" y="270.143" style="font:500 14px 'Lucida Console',monospace" fill="#000000">manufacturer:</text><text x="1151.538" y="270.143" style="font:500 14px 'Lucida Console',monospace" fill="#3397DA">Party</text><path fill="#FFFFFF" stroke="#3397DA" stroke-width="3" d="M212.354 308h375.148v134H212.354z"/><path fill="#3397da" stroke="#3397da" d="M213.354 333h375.149"/><path fill="none" stroke="#3397DA" stroke-width="3" d="M212.354 308h375.148v134H212.354z"/><text x="222.354" y="326" style="font:700 16px 'Lucida Console',monospace" fill="#000000">ProductBatch</text><text x="222.354" y="350" style="font:500 14px 'Lucida Console',monospace" fill="#000000">batchId:</text><text x="293.784" y="350" style="font:500 14px 'Lucida Console',monospace" fill="#C9A30B">URI</text><text x="222.354" y="364" style="font:500 14px 'Lucida Console',monospace" fill="#000000">serialNumber:</text><text x="335.928" y="364" style="font:500 14px 'Lucida Console',monospace" fill="#02b57b">Text[]</text><text x="222.354" y="378" style="font:500 14px 'Lucida Console',monospace" fill="#000000">manufacturedAt:</text><text x="352.785" y="378" style="font:500 14px 'Lucida Console',monospace" fill="#3397DA">Facility</text><text x="222.354" y="392" style="font:500 14px 'Lucida Console',monospace" fill="#000000">manufacturedDate:</text><text x="369.642" y="392" style="font:500 14px 'Lucida Console',monospace" fill="#02b57b">Date</text><text x="222.354" y="406" style="font:500 14px 'Lucida Console',monospace" fill="#000000">provenance:</text><text x="319.07" y="406" style="font:500 14px 'Lucida Console',monospace" fill="#2ECB70">Provenance[]</text><text x="222.354" y="420" style="font:500 14px 'Lucida Console',monospace" fill="#000000">sustainabilityInfo:</text><text x="386.5" y="420" style="font:500 14px 'Lucida Console',monospace" fill="#2ECB70">SustainabilityClaim[]</text><text x="222.354" y="434" style="font:500 14px 'Lucida Console',monospace" fill="#000000">traceabilityInfo:</text><text x="369.642" y="434" style="font:500 14px 'Lucida Console',monospace" fill="#2ECB70">TraceabilityEvent[]</text><path fill="#FFFFFF" stroke="#2ECB70" stroke-width="3" d="M463.569 514h282.433v106H463.569z"/><path fill="#2ecb70" stroke="#2ecb70" d="M464.57 539h282.432"/><path fill="none" stroke="#2ECB70" stroke-width="3" d="M463.569 514h282.433v106H463.569z"/><text x="473.569" y="532" style="font:700 16px 'Lucida Console',monospace" fill="#000000">SustainabilityClaim</text><text x="473.569" y="556" style="font:500 14px 'Lucida Console',monospace" fill="#000000">topic:</text><text x="528.142" y="556" style="font:500 14px 'Lucida Console',monospace" fill="#530abb">Code(topic)</text><text x="473.569" y="570" style="font:500 14px 'Lucida Console',monospace" fill="#000000">criteria:</text><text x="553.428" y="570" style="font:500 14px 'Lucida Console',monospace" fill="#02b57b">URI</text><text x="473.569" y="584" style="font:500 14px 'Lucida Console',monospace" fill="#000000">sustainabilityCredential:</text><text x="688.287" y="584" style="font:500 14px 'Lucida Console',monospace" fill="#02b57b">URI</text><text x="473.569" y="598" style="font:500 14px 'Lucida Console',monospace" fill="#000000">metric:</text><text x="536.57" y="598" style="font:500 14px 'Lucida Console',monospace" fill="#2ECB70">SustainabilityMetric[]</text><text x="473.569" y="612" style="font:500 14px 'Lucida Console',monospace" fill="#000000">compliance:</text><text x="570.285" y="612" style="font:500 14px 'Lucida Console',monospace" fill="#02b57b">Indicator</text><path fill="#FFFFFF" stroke="#2ECB70" stroke-width="3" d="M481.243 674.714h234.656v78H481.243z"/><path fill="#2ecb70" stroke="#2ecb70" d="M482.243 699.714H716.9"/><path fill="none" stroke="#2ECB70" stroke-width="3" d="M481.243 674.714h234.656v78H481.243z"/><text x="491.243" y="692.714" style="font:700 16px 'Lucida Console',monospace" fill="#000000">SustainabilityMetric</text><text x="491.243" y="716.714" style="font:500 14px 'Lucida Console',monospace" fill="#000000">metric:</text><text x="554.244" y="716.714" style="font:500 14px 'Lucida Console',monospace" fill="#02b57b">URI</text><text x="491.243" y="730.714" style="font:500 14px 'Lucida Console',monospace" fill="#000000">unit:</text><text x="537.387" y="730.714" style="font:500 14px 'Lucida Console',monospace" fill="#02b57b">Text</text><text x="491.243" y="744.714" style="font:500 14px 'Lucida Console',monospace" fill="#000000">value:</text><text x="545.816" y="744.714" style="font:500 14px 'Lucida Console',monospace" fill="#02b57b">Numeric</text><path fill="#FFFFFF" stroke="#2ECB70" stroke-width="3" d="M134.712 511.571H379.43v64H134.712z"/><path fill="#2ecb70" stroke="#2ecb70" d="M135.712 536.571H380.43"/><path fill="none" stroke="#2ECB70" stroke-width="3" d="M134.712 511.571H379.43v64H134.712z"/><text x="144.712" y="529.571" style="font:700 16px 'Lucida Console',monospace" fill="#000000">TraceabilityEvent</text><text x="144.712" y="553.571" style="font:500 14px 'Lucida Console',monospace" fill="#000000">eventReference:</text><text x="275.143" y="553.571" style="font:500 14px 'Lucida Console',monospace" fill="#02b57b">URI</text><text x="144.712" y="567.571" style="font:500 14px 'Lucida Console',monospace" fill="#000000">eventType:</text><text x="233" y="567.571" style="font:500 14px 'Lucida Console',monospace" fill="#530abb">Code(epcisType)</text><path fill="#FFFFFF" stroke="#2ECB70" stroke-width="3" d="M-147.645 305.714h295.29v78h-295.29z"/><path fill="#2ecb70" stroke="#2ecb70" d="M-146.645 330.714h295.29"/><path fill="none" stroke="#2ECB70" stroke-width="3" d="M-147.645 305.714h295.29v78h-295.29z"/><text x="-137.645" y="323.714" style="font:700 16px 'Lucida Console',monospace" fill="#000000">Provenance</text><text x="-137.645" y="347.714" style="font:500 14px 'Lucida Console',monospace" fill="#000000">country:</text><text x="-66.215" y="347.714" style="font:500 14px 'Lucida Console',monospace" fill="#530abb">Code(country)</text><text x="-137.645" y="361.714" style="font:500 14px 'Lucida Console',monospace" fill="#000000">percentage:</text><text x="-40.929" y="361.714" style="font:500 14px 'Lucida Console',monospace" fill="#02b57b">Numeric</text><text x="-137.645" y="375.714" style="font:500 14px 'Lucida Console',monospace" fill="#000000">guaranteeOfOriginCredential:</text><text x="102.359" y="375.714" style="font:500 14px 'Lucida Console',monospace" fill="#02b57b">URI</text></svg>