<svg xmlns="http://www.w3.org/2000/svg" viewBox="-136.571 -88 1225.644 1193.429"><rect width="1000%" height="1000%" x="-500%" y="-500%" fill="#EEEEEE"/><path fill="none" stroke="#EEEEEE" stroke-width="8" d="M571.439.01l-.01-.01v196.143h63.24"/><defs><linearGradient id="a" x1="0%" x2="50%" y1="0%" y2="50%"><stop offset="0%" stop-color="#3397DA"/><stop offset="100%" stop-color="#3397DA"/></linearGradient></defs><path fill="none" stroke="url(#a)" stroke-width="3" d="M571.439.01l-.01-.01v196.143h63.24"/><path fill="none" stroke="url(#a)" stroke-width="1.5" d="M591.439 108.653l-2.01-.01v8h2M595.439 108.653l1.99-.01v8h-2"/><path fill="none" stroke="#EEEEEE" stroke-width="8" d="M634.68 196.153l-.01-.01H174.359v.571"/><defs><linearGradient id="b" x1="0%" x2="50%" y1="0%" y2="50%"><stop offset="0%" stop-color="#3397DA"/><stop offset="100%" stop-color="#2ECB70"/></linearGradient></defs><path fill="none" stroke="url(#b)" stroke-width="3" d="M634.68 196.153l-.01-.01H174.359v.571"/><path fill="none" stroke="url(#b)" stroke-width="1.5" d="M319.228 176.153l-2.01-.01v8h2M323.228 176.153l1.99-.01v8h-2"/><path fill="none" stroke="#EEEEEE" stroke-width="8" d="M480.297 367.21l-.01-.01h-309.13v225.543"/><defs><linearGradient id="c" x1="0%" x2="50%" y1="0%" y2="50%"><stop offset="0%" stop-color="#3397DA"/><stop offset="100%" stop-color="#3397DA"/></linearGradient></defs><path fill="none" stroke="url(#c)" stroke-width="3" d="M480.297 367.21l-.01-.01h-309.13v225.543"/><path fill="none" stroke="url(#c)" stroke-width="1.5" d="M191.166 550.653l-2.01-.01v8h2M195.166 550.653l1.99-.01v8h-2"/><path fill="none" stroke="#EEEEEE" stroke-width="8" d="M548.583 388.41l-.01-.01H293.515v225.943"/><defs><linearGradient id="d" x1="0%" x2="50%" y1="0%" y2="50%"><stop offset="0%" stop-color="#3397DA"/><stop offset="100%" stop-color="#3397DA"/></linearGradient></defs><path fill="none" stroke="url(#d)" stroke-width="3" d="M548.583 388.41l-.01-.01H293.515v225.943"/><path fill="none" stroke="url(#d)" stroke-width="1.5" d="M313.525 550.653l-2.01-.01v8h2M317.525 550.653l1.99-.01v8h-2"/><path fill="none" stroke="#EEEEEE" stroke-width="8" d="M616.87 409.61l-.01-.01h258.945v213.257"/><defs><linearGradient id="e" x1="0%" x2="50%" y1="0%" y2="50%"><stop offset="0%" stop-color="#3397DA"/><stop offset="100%" stop-color="#2ECB70"/></linearGradient></defs><path fill="none" stroke="url(#e)" stroke-width="3" d="M616.87 409.61l-.01-.01h258.945v213.257"/><path fill="none" stroke="url(#e)" stroke-width="1.5" d="M895.815 591.224l-2.01-.01v8h2M899.815 591.224l1.99-.01v8h-2"/><path fill="none" stroke="#EEEEEE" stroke-width="8" d="M685.157 388.41l-.01-.01h335.048V634"/><defs><linearGradient id="f" x1="0%" x2="50%" y1="0%" y2="50%"><stop offset="0%" stop-color="#3397DA"/><stop offset="100%" stop-color="#2ECB70"/></linearGradient></defs><path fill="none" stroke="url(#f)" stroke-width="3" d="M685.157 388.41l-.01-.01h335.048V634"/><path fill="none" stroke="url(#f)" stroke-width="1.5" d="M1040.205 591.224l-2.01-.01v8h2M1044.205 591.224l1.99-.01v8h-2"/><path fill="none" stroke="#EEEEEE" stroke-width="8" d="M526.202 760.2l-.01-.01H269.043V625.143"/><defs><linearGradient id="g" x1="100%" x2="50%" y1="100%" y2="50%"><stop offset="0%" stop-color="#3397DA"/><stop offset="100%" stop-color="#3397DA"/></linearGradient></defs><path fill="none" stroke="url(#g)" stroke-width="3" d="M526.202 760.2l-.01-.01H269.043V625.143"/><path fill="none" stroke="url(#g)" stroke-width="1.5" d="M289.053 699.653l-2.01-.01v8h2M293.053 699.653l1.99-.01v8h-2"/><path fill="none" stroke="#EEEEEE" stroke-width="8" d="M621.822 781.534l-.01-.01h282.871V634"/><defs><linearGradient id="h" x1="0%" x2="50%" y1="0%" y2="50%"><stop offset="0%" stop-color="#3397DA"/><stop offset="100%" stop-color="#2ECB70"/></linearGradient></defs><path fill="none" stroke="url(#h)" stroke-width="3" d="M621.822 781.534l-.01-.01h282.871V634"/><path fill="none" stroke="url(#h)" stroke-width="1.5" d="M924.693 710.224l-2.01-.01v8h2M928.693 710.224l1.99-.01v8h-2"/><path fill="none" stroke="#EEEEEE" stroke-width="8" d="M509.976 525.51l-.01-.01H244.57v110.443"/><defs><linearGradient id="i" x1="0%" x2="50%" y1="0%" y2="50%"><stop offset="0%" stop-color="#3397DA"/><stop offset="100%" stop-color="#3397DA"/></linearGradient></defs><path fill="none" stroke="url(#i)" stroke-width="3" d="M509.976 525.51l-.01-.01H244.57v110.443"/><path fill="none" stroke="#EEEEEE" stroke-width="8" d="M592.227 564.51l-.01-.01H342.459v28.243"/><defs><linearGradient id="j" x1="0%" x2="50%" y1="0%" y2="50%"><stop offset="0%" stop-color="#3397DA"/><stop offset="100%" stop-color="#3397DA"/></linearGradient></defs><path fill="none" stroke="url(#j)" stroke-width="3" d="M592.227 564.51l-.01-.01H342.459v28.243"/><path fill="none" stroke="url(#j)" stroke-width="1.5" d="M362.469 550.653l-2.01-.01v8h2M366.469 550.653l1.99-.01v8h-2"/><path fill="none" stroke="#EEEEEE" stroke-width="8" d="M674.478 545.01l-.01-.01h316.849v100.143"/><defs><linearGradient id="k" x1="0%" x2="50%" y1="0%" y2="50%"><stop offset="0%" stop-color="#3397DA"/><stop offset="100%" stop-color="#2ECB70"/></linearGradient></defs><path fill="none" stroke="url(#k)" stroke-width="3" d="M674.478 545.01l-.01-.01h316.849v100.143"/><path fill="none" stroke="url(#k)" stroke-width="1.5" d="M1011.327 591.224l-2.01-.01v8h2M1015.327 591.224l1.99-.01v8h-2"/><path fill="none" stroke="#EEEEEE" stroke-width="8" d="M505.833 863.939l-.01-.01H220.1V614.343"/><defs><linearGradient id="l" x1="100%" x2="50%" y1="100%" y2="50%"><stop offset="0%" stop-color="#3397DA"/><stop offset="100%" stop-color="#3397DA"/></linearGradient></defs><path fill="none" stroke="url(#l)" stroke-width="3" d="M505.833 863.939l-.01-.01H220.1V614.343"/><path fill="none" stroke="url(#l)" stroke-width="1.5" d="M240.11 699.653l-2.01-.01v8h2M244.11 699.653l1.99-.01v8h-2"/><path fill="none" stroke="#EEEEEE" stroke-width="8" d="M653.478 890.439l-.01-.01H933.56V645.143"/><defs><linearGradient id="m" x1="0%" x2="50%" y1="0%" y2="50%"><stop offset="0%" stop-color="#3397DA"/><stop offset="100%" stop-color="#2ECB70"/></linearGradient></defs><path fill="none" stroke="url(#m)" stroke-width="3" d="M653.478 890.439l-.01-.01H933.56V645.143"/><path fill="none" stroke="url(#m)" stroke-width="1.5" d="M953.571 710.224l-2.01-.01v8h2M957.571 710.224l1.99-.01v8h-2"/><path fill="none" stroke="#EEEEEE" stroke-width="8" d="M579.655 916.939l-.01-.01h258.571v109.5"/><defs><linearGradient id="n" x1="0%" x2="50%" y1="0%" y2="50%"><stop offset="0%" stop-color="#3397DA"/><stop offset="100%" stop-color="#2ECB70"/></linearGradient></defs><path fill="none" stroke="url(#n)" stroke-width="3" d="M579.655 916.939l-.01-.01h258.571v109.5"/><path fill="none" stroke="#EEEEEE" stroke-width="8" d="M504.261 644.081l-.01-.01H195.628v-40.528"/><defs><linearGradient id="o" x1="100%" x2="50%" y1="100%" y2="50%"><stop offset="0%" stop-color="#3397DA"/><stop offset="100%" stop-color="#3397DA"/></linearGradient></defs><path fill="none" stroke="url(#o)" stroke-width="3" d="M504.261 644.081l-.01-.01H195.628v-40.528"/><path fill="none" stroke="#EEEEEE" stroke-width="8" d="M586.512 683.081l-.01-.01H317.987v-79.528"/><defs><linearGradient id="p" x1="100%" x2="50%" y1="100%" y2="50%"><stop offset="0%" stop-color="#3397DA"/><stop offset="100%" stop-color="#3397DA"/></linearGradient></defs><path fill="none" stroke="url(#p)" stroke-width="3" d="M586.512 683.081l-.01-.01H317.987v-79.528"/><path fill="none" stroke="url(#p)" stroke-width="1.5" d="M337.997 699.653l-2.01-.01v8h2M341.997 699.653l1.99-.01v8h-2"/><path fill="none" stroke="#EEEEEE" stroke-width="8" d="M668.764 663.581l-.01-.01h293.685v-7.285"/><defs><linearGradient id="q" x1="0%" x2="50%" y1="0%" y2="50%"><stop offset="0%" stop-color="#3397DA"/><stop offset="100%" stop-color="#2ECB70"/></linearGradient></defs><path fill="none" stroke="url(#q)" stroke-width="3" d="M668.764 663.581l-.01-.01h293.685v-7.285"/><path fill="none" stroke="url(#q)" stroke-width="1.5" d="M826.437 643.581l-2.01-.01v8h2M830.437 643.581l1.99-.01v8h-2"/><path fill="none" stroke="#EEEEEE" stroke-width="8" d="M215.822 209.724l-.01-.01H1.573v111.143"/><defs><linearGradient id="r" x1="0%" x2="50%" y1="0%" y2="50%"><stop offset="0%" stop-color="#2ECB70"/><stop offset="100%" stop-color="#2ECB70"/></linearGradient></defs><path fill="none" stroke="url(#r)" stroke-width="3" d="M215.822 209.724l-.01-.01H1.573v111.143"/><path fill="none" stroke="#EEEEEE" stroke-width="8" d="M132.916 183.724l-.01-.01H0V73.43"/><defs><linearGradient id="s" x1="100%" x2="50%" y1="100%" y2="50%"><stop offset="0%" stop-color="#2ECB70"/><stop offset="100%" stop-color="#2ECB70"/></linearGradient></defs><path fill="none" stroke="url(#s)" stroke-width="3" d="M132.916 183.724l-.01-.01H0V73.43"/><path fill="none" stroke="url(#s)" stroke-width="1.5" d="M20.01 139.939l-2.01-.01v8h2M24.01 139.939l1.99-.01v8h-2"/><path fill="none" stroke="#EEEEEE" stroke-width="8" d="M1.583 320.867l-.01-.01v261.086h145.111"/><defs><linearGradient id="t" x1="0%" x2="50%" y1="0%" y2="50%"><stop offset="0%" stop-color="#2ECB70"/><stop offset="100%" stop-color="#3397DA"/></linearGradient></defs><path fill="none" stroke="url(#t)" stroke-width="3" d="M1.583 320.867l-.01-.01v261.086h145.111"/><path fill="none" stroke="#EEEEEE" stroke-width="8" d="M580.655 293.153l-.01-.01V415h2.072"/><defs><linearGradient id="u" x1="0%" x2="50%" y1="0%" y2="50%"><stop offset="0%" stop-color="#3397DA"/><stop offset="100%" stop-color="#3397DA"/></linearGradient></defs><path fill="none" stroke="url(#u)" stroke-width="3" d="M580.655 293.153l-.01-.01V415h2.072"/><path fill="none" stroke="#EEEEEE" stroke-width="8" d="M580.655 293.153l-.01-.01v493.714h-6.643"/><defs><linearGradient id="v" x1="0%" x2="50%" y1="0%" y2="50%"><stop offset="0%" stop-color="#3397DA"/><stop offset="100%" stop-color="#3397DA"/></linearGradient></defs><path fill="none" stroke="url(#v)" stroke-width="3" d="M580.655 293.153l-.01-.01v493.714h-6.643"/><path fill="none" stroke="#EEEEEE" stroke-width="8" d="M580.655 293.153l-.01-.01V561h11.572"/><defs><linearGradient id="w" x1="0%" x2="50%" y1="0%" y2="50%"><stop offset="0%" stop-color="#3397DA"/><stop offset="100%" stop-color="#3397DA"/></linearGradient></defs><path fill="none" stroke="url(#w)" stroke-width="3" d="M580.655 293.153l-.01-.01V561h11.572"/><path fill="none" stroke="#EEEEEE" stroke-width="8" d="M580.655 293.153l-.01-.01v613.286h-1"/><defs><linearGradient id="x" x1="0%" x2="50%" y1="0%" y2="50%"><stop offset="0%" stop-color="#3397DA"/><stop offset="100%" stop-color="#3397DA"/></linearGradient></defs><path fill="none" stroke="url(#x)" stroke-width="3" d="M580.655 293.153l-.01-.01v613.286h-1"/><path fill="none" stroke="#EEEEEE" stroke-width="8" d="M580.655 293.153l-.01-.01V679.57h5.857"/><defs><linearGradient id="y" x1="0%" x2="50%" y1="0%" y2="50%"><stop offset="0%" stop-color="#3397DA"/><stop offset="100%" stop-color="#3397DA"/></linearGradient></defs><path fill="none" stroke="url(#y)" stroke-width="3" d="M580.655 293.153l-.01-.01V679.57h5.857"/><path fill="#FFFFFF" stroke="#3397DA" stroke-width="3" d="M421.07-68h300.718V68H421.07z"/><path fill="#3397da" stroke="#3397da" d="M422.07-27h300.717"/><path fill="none" stroke="#3397DA" stroke-width="3" d="M421.07-68h300.718V68H421.07z"/><text x="431.07" y="-50" style="font:700 16px 'Lucida Console',monospace" fill="#000000">DigitalTraceabilityEvent</text><text x="431.07" y="-34" style="font:500 14px 'Lucida Console',monospace" fill="#999">＜＜untp.VerifiableCredential＞＞</text><text x="431.07" y="-10" style="font:500 14px 'Lucida Console',monospace" fill="#666">@context:</text><text x="510.928" y="-10" style="font:500 14px 'Lucida Console',monospace" fill="#02b57b">Text[]</text><text x="431.07" y="4" style="font:500 14px 'Lucida Console',monospace" fill="#666">id:</text><text x="460.356" y="4" style="font:500 14px 'Lucida Console',monospace" fill="#C9A30B">URI</text><text x="431.07" y="18" style="font:500 14px 'Lucida Console',monospace" fill="#666">issuer:</text><text x="494.071" y="18" style="font:500 14px 'Lucida Console',monospace" fill="#02b57b">CredentialIssuer</text><text x="431.07" y="32" style="font:500 14px 'Lucida Console',monospace" fill="#666">validFrom:</text><text x="519.357" y="32" style="font:500 14px 'Lucida Console',monospace" fill="#02b57b">DateTime</text><text x="431.07" y="46" style="font:500 14px 'Lucida Console',monospace" fill="#666">validUntil:</text><text x="527.786" y="46" style="font:500 14px 'Lucida Console',monospace" fill="#02b57b">DateTime</text><text x="431.07" y="60" style="font:500 14px 'Lucida Console',monospace" fill="#000000">credentialSubject:</text><text x="586.786" y="60" style="font:500 14px 'Lucida Console',monospace" fill="#3397DA">Event[]</text><path fill="#FFFFFF" stroke="#3397DA" stroke-width="3" d="M418.571 129.143h324.147v134H418.571z"/><path fill="#3397da" stroke="#3397da" d="M419.571 154.143H743.72"/><path fill="none" stroke="#3397DA" stroke-width="3" d="M418.571 129.143h324.147v134H418.571z"/><text x="428.571" y="147.143" style="font:700 16px 'Lucida Console',monospace" fill="#000000">Event</text><text x="486.735" y="147.143" style="font:500 14px 'Lucida Console',monospace" fill="#000000">&lt;&lt;abstract&gt;&gt;</text><text x="428.571" y="171.143" style="font:500 14px 'Lucida Console',monospace" fill="#000000">id:</text><text x="457.858" y="171.143" style="font:500 14px 'Lucida Console',monospace" fill="#C9A30B">URI</text><text x="428.571" y="185.143" style="font:500 14px 'Lucida Console',monospace" fill="#000000">eventTime:</text><text x="516.859" y="185.143" style="font:500 14px 'Lucida Console',monospace" fill="#02b57b">DateTime</text><text x="428.571" y="199.143" style="font:500 14px 'Lucida Console',monospace" fill="#000000">action:</text><text x="491.572" y="199.143" style="font:500 14px 'Lucida Console',monospace" fill="#530abb">Code(actionCode)</text><text x="428.571" y="213.143" style="font:500 14px 'Lucida Console',monospace" fill="#000000">disposition:</text><text x="533.716" y="213.143" style="font:500 14px 'Lucida Console',monospace" fill="#530abb">Code(dispositionCode)</text><text x="428.571" y="227.143" style="font:500 14px 'Lucida Console',monospace" fill="#000000">bizStep:</text><text x="500.001" y="227.143" style="font:500 14px 'Lucida Console',monospace" fill="#530abb">Code(bizStepCode)</text><text x="428.571" y="241.143" style="font:500 14px 'Lucida Console',monospace" fill="#000000">bizLocation:</text><text x="533.716" y="241.143" style="font:500 14px 'Lucida Console',monospace" fill="#02b57b">URI</text><text x="428.571" y="255.143" style="font:500 14px 'Lucida Console',monospace" fill="#000000">sensorElementList:</text><text x="584.288" y="255.143" style="font:500 14px 'Lucida Console',monospace" fill="#2ECB70">SensorElement[]</text><path fill="#3397da" stroke="#EEEEEE" stroke-width="3" d="M580.645 257.143l-12 22 12-2h0l12 2-12-22"/><path fill="#3397da" stroke="#EEEEEE" stroke-width="3" d="M580.645 257.143l-12 22 12-2h0l12 2-12-22"/><path fill="#3397da" stroke="#3397da" stroke-width="3" d="M580.645 269.143v25.5"/><path fill="#FFFFFF" stroke="#3397DA" stroke-width="3" d="M412 346h341.434v106H412z"/><path fill="#3397da" stroke="#3397da" d="M413 371h341.434"/><path fill="none" stroke="#3397DA" stroke-width="3" d="M412 346h341.434v106H412z"/><text x="422" y="364" style="font:700 16px 'Lucida Console',monospace" fill="#000000">TransformationEvent</text><text x="422" y="388" style="font:500 14px 'Lucida Console',monospace" fill="#000000">outputEPCList:</text><text x="544.002" y="388" style="font:500 14px 'Lucida Console',monospace" fill="#3397DA">Item[]</text><text x="422" y="402" style="font:500 14px 'Lucida Console',monospace" fill="#000000">inputEPCList:</text><text x="535.573" y="402" style="font:500 14px 'Lucida Console',monospace" fill="#3397DA">Item[]</text><text x="422" y="416" style="font:500 14px 'Lucida Console',monospace" fill="#000000">inputQuantityList:</text><text x="577.717" y="416" style="font:500 14px 'Lucida Console',monospace" fill="#2ECB70">QuantityElement[]</text><text x="422" y="430" style="font:500 14px 'Lucida Console',monospace" fill="#000000">outputQuantityList:</text><text x="586.146" y="430" style="font:500 14px 'Lucida Console',monospace" fill="#2ECB70">QuantityElement[]</text><text x="422" y="444" style="font:500 14px 'Lucida Console',monospace" fill="#000000">processType:</text><text x="527.145" y="444" style="font:500 14px 'Lucida Console',monospace" fill="#02b57b">URI</text><path fill="#FFFFFF" stroke="#3397DA" stroke-width="3" d="M430.571 738.857h286.861v64H430.571z"/><path fill="#3397da" stroke="#3397da" d="M431.571 763.857h286.862"/><path fill="none" stroke="#3397DA" stroke-width="3" d="M430.571 738.857h286.861v64H430.571z"/><text x="440.571" y="756.857" style="font:700 16px 'Lucida Console',monospace" fill="#000000">ObjectEvent</text><text x="440.571" y="780.857" style="font:500 14px 'Lucida Console',monospace" fill="#000000">epcList:</text><text x="512.001" y="780.857" style="font:500 14px 'Lucida Console',monospace" fill="#3397DA">Item[]</text><text x="440.571" y="794.857" style="font:500 14px 'Lucida Console',monospace" fill="#000000">quantityList:</text><text x="554.145" y="794.857" style="font:500 14px 'Lucida Console',monospace" fill="#2ECB70">QuantityElement[]</text><path fill="#FFFFFF" stroke="#3397DA" stroke-width="3" d="M427.714 506h329.005v78H427.714z"/><path fill="#3397da" stroke="#3397da" d="M428.714 531H757.72"/><path fill="none" stroke="#3397DA" stroke-width="3" d="M427.714 506h329.005v78H427.714z"/><text x="437.714" y="524" style="font:700 16px 'Lucida Console',monospace" fill="#000000">AggregationEvent</text><text x="437.714" y="548" style="font:500 14px 'Lucida Console',monospace" fill="#000000">parentEPC:</text><text x="526.001" y="548" style="font:500 14px 'Lucida Console',monospace" fill="#3397DA">Item</text><text x="437.714" y="562" style="font:500 14px 'Lucida Console',monospace" fill="#000000">childEPCs:</text><text x="526.001" y="562" style="font:500 14px 'Lucida Console',monospace" fill="#3397DA">Item[]</text><text x="437.714" y="576" style="font:500 14px 'Lucida Console',monospace" fill="#000000">childQuantityList:</text><text x="593.431" y="576" style="font:500 14px 'Lucida Console',monospace" fill="#2ECB70">QuantityElement[]</text><path fill="#FFFFFF" stroke="#3397DA" stroke-width="3" d="M432 837.429h295.29v106H432z"/><path fill="#3397da" stroke="#3397da" d="M433 862.429h295.29"/><path fill="none" stroke="#3397DA" stroke-width="3" d="M432 837.429h295.29v106H432z"/><text x="442" y="855.429" style="font:700 16px 'Lucida Console',monospace" fill="#000000">TransactionEvent</text><text x="442" y="879.429" style="font:500 14px 'Lucida Console',monospace" fill="#000000">sourceParty:</text><text x="547.145" y="879.429" style="font:500 14px 'Lucida Console',monospace" fill="#547000">untp.Entity</text><text x="442" y="893.429" style="font:500 14px 'Lucida Console',monospace" fill="#000000">destinationParty:</text><text x="589.288" y="893.429" style="font:500 14px 'Lucida Console',monospace" fill="#547000">untp.Entity</text><text x="442" y="907.429" style="font:500 14px 'Lucida Console',monospace" fill="#000000">epcList:</text><text x="513.43" y="907.429" style="font:500 14px 'Lucida Console',monospace" fill="#3397DA">Item[]</text><text x="442" y="921.429" style="font:500 14px 'Lucida Console',monospace" fill="#000000">quantityList:</text><text x="555.573" y="921.429" style="font:500 14px 'Lucida Console',monospace" fill="#2ECB70">QuantityElement[]</text><text x="442" y="935.429" style="font:500 14px 'Lucida Console',monospace" fill="#000000">referenceDocument:</text><text x="597.717" y="935.429" style="font:500 14px 'Lucida Console',monospace" fill="#2ECB70">TradeDocument</text><path fill="#FFFFFF" stroke="#3397DA" stroke-width="3" d="M422 624.571h329.005v78H422z"/><path fill="#3397da" stroke="#3397da" d="M423 649.571h329.005"/><path fill="none" stroke="#3397DA" stroke-width="3" d="M422 624.571h329.005v78H422z"/><text x="432" y="642.571" style="font:700 16px 'Lucida Console',monospace" fill="#000000">AssociationEvent</text><text x="432" y="666.571" style="font:500 14px 'Lucida Console',monospace" fill="#000000">parentEPC:</text><text x="520.287" y="666.571" style="font:500 14px 'Lucida Console',monospace" fill="#3397DA">Item</text><text x="432" y="680.571" style="font:500 14px 'Lucida Console',monospace" fill="#000000">childEPCs:</text><text x="520.287" y="680.571" style="font:500 14px 'Lucida Console',monospace" fill="#3397DA">Item[]</text><text x="432" y="694.571" style="font:500 14px 'Lucida Console',monospace" fill="#000000">childQuantityList:</text><text x="587.717" y="694.571" style="font:500 14px 'Lucida Console',monospace" fill="#2ECB70">QuantityElement[]</text><path fill="#FFFFFF" stroke="#2ECB70" stroke-width="3" d="M846.927 611.714h202.146v78H846.927z"/><path fill="#2ecb70" stroke="#2ecb70" d="M847.927 636.714h202.146"/><path fill="none" stroke="#2ECB70" stroke-width="3" d="M846.927 611.714h202.146v78H846.927z"/><text x="856.927" y="629.714" style="font:700 16px 'Lucida Console',monospace" fill="#000000">QuantityElement</text><text x="856.927" y="653.714" style="font:500 14px 'Lucida Console',monospace" fill="#000000">product:</text><text x="928.357" y="653.714" style="font:500 14px 'Lucida Console',monospace" fill="#547000">untp.Entity</text><text x="856.927" y="667.714" style="font:500 14px 'Lucida Console',monospace" fill="#000000">quantity:</text><text x="936.786" y="667.714" style="font:500 14px 'Lucida Console',monospace" fill="#02b57b">Numeric</text><text x="856.927" y="681.714" style="font:500 14px 'Lucida Console',monospace" fill="#000000">uom:</text><text x="894.642" y="681.714" style="font:500 14px 'Lucida Console',monospace" fill="#530abb">Code(UOM)</text><path fill="#FFFFFF" stroke="#2ECB70" stroke-width="3" d="M669.714 987.429h337.005v78H669.714z"/><path fill="#2ecb70" stroke="#2ecb70" d="M670.714 1012.429h337.005"/><path fill="none" stroke="#2ECB70" stroke-width="3" d="M669.714 987.429h337.005v78H669.714z"/><text x="679.714" y="1005.429" style="font:700 16px 'Lucida Console',monospace" fill="#000000">TradeDocument</text><text x="679.714" y="1029.429" style="font:500 14px 'Lucida Console',monospace" fill="#000000">documentType:</text><text x="793.287" y="1029.429" style="font:500 14px 'Lucida Console',monospace" fill="#530abb">Code(documentTypeCode)</text><text x="679.714" y="1043.429" style="font:500 14px 'Lucida Console',monospace" fill="#000000">identifier:</text><text x="776.43" y="1043.429" style="font:500 14px 'Lucida Console',monospace" fill="#02b57b">Text</text><text x="679.714" y="1057.429" style="font:500 14px 'Lucida Console',monospace" fill="#000000">documentURL:</text><text x="784.858" y="1057.429" style="font:500 14px 'Lucida Console',monospace" fill="#02b57b">URI</text><path fill="#FFFFFF" stroke="#3397DA" stroke-width="3" d="M122.213 571.143h244.718v108H122.213z"/><path fill="#3397da" stroke="#3397da" d="M123.213 612.143H367.93"/><path fill="none" stroke="#3397DA" stroke-width="3" d="M122.213 571.143h244.718v108H122.213z"/><text x="132.213" y="589.143" style="font:700 16px 'Lucida Console',monospace" fill="#000000">Item</text><text x="132.213" y="605.143" style="font:500 14px 'Lucida Console',monospace" fill="#999">＜＜untp.Entity＞＞</text><text x="132.213" y="629.143" style="font:500 14px 'Lucida Console',monospace" fill="#666">id:</text><text x="161.499" y="629.143" style="font:500 14px 'Lucida Console',monospace" fill="#C9A30B">URI</text><text x="132.213" y="643.143" style="font:500 14px 'Lucida Console',monospace" fill="#666">name:</text><text x="178.356" y="643.143" style="font:500 14px 'Lucida Console',monospace" fill="#02b57b">Text</text><text x="132.213" y="657.143" style="font:500 14px 'Lucida Console',monospace" fill="#666">registeredId:</text><text x="245.786" y="657.143" style="font:500 14px 'Lucida Console',monospace" fill="#02b57b">Text</text><text x="132.213" y="671.143" style="font:500 14px 'Lucida Console',monospace" fill="#666">idScheme:</text><text x="212.071" y="671.143" style="font:500 14px 'Lucida Console',monospace" fill="#02b57b">IdentifierScheme</text><path fill="#FFFFFF" stroke="#2ECB70" stroke-width="3" d="M50 157.714h248.718v78H50z"/><path fill="#2ecb70" stroke="#2ecb70" d="M51 182.714h248.718"/><path fill="none" stroke="#2ECB70" stroke-width="3" d="M50 157.714h248.718v78H50z"/><text x="60" y="175.714" style="font:700 16px 'Lucida Console',monospace" fill="#000000">SensorElement</text><text x="60" y="199.714" style="font:500 14px 'Lucida Console',monospace" fill="#000000">sensorMetadata:</text><text x="190.431" y="199.714" style="font:500 14px 'Lucida Console',monospace" fill="#2ECB70">Sensor</text><text x="60" y="213.714" style="font:500 14px 'Lucida Console',monospace" fill="#000000">sensorReport:</text><text x="173.573" y="213.714" style="font:500 14px 'Lucida Console',monospace" fill="#2ECB70">SensorData[]</text><text x="60" y="227.714" style="font:500 14px 'Lucida Console',monospace" fill="#000000">sensorIntegrityProof:</text><text x="241.003" y="227.714" style="font:500 14px 'Lucida Console',monospace" fill="#02b57b">URI</text><path fill="#FFFFFF" stroke="#2ECB70" stroke-width="3" d="M-116.571 288.857h236.289v64h-236.289z"/><path fill="#2ecb70" stroke="#2ecb70" d="M-115.571 313.857h236.289"/><path fill="none" stroke="#2ECB70" stroke-width="3" d="M-116.571 288.857h236.289v64h-236.289z"/><text x="-106.571" y="306.857" style="font:700 16px 'Lucida Console',monospace" fill="#000000">Sensor</text><text x="-106.571" y="330.857" style="font:500 14px 'Lucida Console',monospace" fill="#000000">device:</text><text x="-43.57" y="330.857" style="font:500 14px 'Lucida Console',monospace" fill="#3397DA">Item</text><text x="-106.571" y="344.857" style="font:500 14px 'Lucida Console',monospace" fill="#000000">dataProcessingMethod:</text><text x="74.432" y="344.857" style="font:500 14px 'Lucida Console',monospace" fill="#02b57b">URI</text><path fill="#FFFFFF" stroke="#2ECB70" stroke-width="3" d="M-98 27.429H98v92H-98z"/><path fill="#2ecb70" stroke="#2ecb70" d="M-97 52.429H99"/><path fill="none" stroke="#2ECB70" stroke-width="3" d="M-98 27.429H98v92H-98z"/><text x="-88" y="45.429" style="font:700 16px 'Lucida Console',monospace" fill="#000000">SensorData</text><text x="-88" y="69.429" style="font:500 14px 'Lucida Console',monospace" fill="#000000">time:</text><text x="-41.856" y="69.429" style="font:500 14px 'Lucida Console',monospace" fill="#02b57b">DateTime</text><text x="-88" y="83.429" style="font:500 14px 'Lucida Console',monospace" fill="#000000">sensorType:</text><text x="8.716" y="83.429" style="font:500 14px 'Lucida Console',monospace" fill="#02b57b">URI</text><text x="-88" y="97.429" style="font:500 14px 'Lucida Console',monospace" fill="#000000">value:</text><text x="-33.428" y="97.429" style="font:500 14px 'Lucida Console',monospace" fill="#02b57b">Numeric</text><text x="-88" y="111.429" style="font:500 14px 'Lucida Console',monospace" fill="#000000">uom:</text><text x="-50.285" y="111.429" style="font:500 14px 'Lucida Console',monospace" fill="#530abb">Code(UOM)</text></svg>