<svg xmlns="http://www.w3.org/2000/svg" viewBox="-194.931 89.881 1515.667 858.198"><rect width="1000%" height="1000%" x="-500%" y="-500%" fill="#EEEEEE"/><path fill="none" stroke="#EEEEEE" stroke-width="8" d="M670.441 190.891l-.01-.01H0v14.73"/><defs><linearGradient id="a" x1="0%" x2="50%" y1="0%" y2="50%"><stop offset="0%" stop-color="#FF3986"/><stop offset="100%" stop-color="#3397DA"/></linearGradient></defs><path fill="none" stroke="url(#a)" stroke-width="3" d="M670.441 190.891l-.01-.01H0v14.73"/><path fill="none" stroke="url(#a)" stroke-width="1.5" d="M195.441 170.891l-2.01-.01v8h2M199.441 170.891l1.99-.01v8h-2"/><path fill="none" stroke="#EEEEEE" stroke-width="8" d="M528.065 630.724l-.01-.01h-351.67V509.952"/><defs><linearGradient id="b" x1="100%" x2="50%" y1="100%" y2="50%"><stop offset="0%" stop-color="#FF3986"/><stop offset="100%" stop-color="#3397DA"/></linearGradient></defs><path fill="none" stroke="url(#b)" stroke-width="3" d="M528.065 630.724l-.01-.01h-351.67V509.952"/><path fill="none" stroke="url(#b)" stroke-width="1.5" d="M196.396 557.891l-2.01-.01v8h2M200.396 557.891l1.99-.01v8h-2"/><path fill="none" stroke="#EEEEEE" stroke-width="8" d="M623.685 652.058l-.01-.01h339.532V496.549"/><defs><linearGradient id="c" x1="0%" x2="50%" y1="0%" y2="50%"><stop offset="0%" stop-color="#FF3986"/><stop offset="100%" stop-color="#2ECB70"/></linearGradient></defs><path fill="none" stroke="url(#c)" stroke-width="3" d="M623.685 652.058l-.01-.01h339.532V496.549"/><path fill="none" stroke="url(#c)" stroke-width="1.5" d="M983.217 569.06l-2.01-.01v8h2M987.217 569.06l1.99-.01v8h-2"/><path fill="none" stroke="#EEEEEE" stroke-width="8" d="M511.488 493.391l-.01-.01H136.61v7.429"/><defs><linearGradient id="d" x1="100%" x2="50%" y1="100%" y2="50%"><stop offset="0%" stop-color="#FF3986"/><stop offset="100%" stop-color="#3397DA"/></linearGradient></defs><path fill="none" stroke="url(#d)" stroke-width="3" d="M511.488 493.391l-.01-.01H136.61v7.429"/><path fill="none" stroke="#EEEEEE" stroke-width="8" d="M593.74 532.391l-.01-.01H255.938v-40.714"/><defs><linearGradient id="e" x1="100%" x2="50%" y1="100%" y2="50%"><stop offset="0%" stop-color="#FF3986"/><stop offset="100%" stop-color="#3397DA"/></linearGradient></defs><path fill="none" stroke="url(#e)" stroke-width="3" d="M593.74 532.391l-.01-.01H255.938v-40.714"/><path fill="none" stroke="url(#e)" stroke-width="1.5" d="M316.224 512.391l-2.01-.01v8h2M320.224 512.391l1.99-.01v8h-2"/><path fill="none" stroke="#EEEEEE" stroke-width="8" d="M675.99 512.891l-.01-.01h445.992v-3.332"/><defs><linearGradient id="f" x1="0%" x2="50%" y1="0%" y2="50%"><stop offset="0%" stop-color="#FF3986"/><stop offset="100%" stop-color="#2ECB70"/></linearGradient></defs><path fill="none" stroke="url(#f)" stroke-width="3" d="M675.99 512.891l-.01-.01h445.992v-3.332"/><path fill="none" stroke="url(#f)" stroke-width="1.5" d="M783.953 492.891l-2.01-.01v8h2M787.953 492.891l1.99-.01v8h-2"/><path fill="none" stroke="#EEEEEE" stroke-width="8" d="M531.085 758.724l-.01-.01H199.542v35.479"/><defs><linearGradient id="g" x1="0%" x2="50%" y1="0%" y2="50%"><stop offset="0%" stop-color="#FF3986"/><stop offset="100%" stop-color="#3397DA"/></linearGradient></defs><path fill="none" stroke="url(#g)" stroke-width="3" d="M531.085 758.724l-.01-.01H199.542v35.479"/><path fill="none" stroke="#EEEEEE" stroke-width="8" d="M578.895 794.058l-.01-.01H251.857v-15.855"/><defs><linearGradient id="h" x1="0%" x2="50%" y1="0%" y2="50%"><stop offset="0%" stop-color="#FF3986"/><stop offset="100%" stop-color="#3397DA"/></linearGradient></defs><path fill="none" stroke="url(#h)" stroke-width="3" d="M578.895 794.058l-.01-.01H251.857v-15.855"/><path fill="none" stroke="#EEEEEE" stroke-width="8" d="M626.706 776.391l-.01-.01H906.73v92.698"/><defs><linearGradient id="i" x1="0%" x2="50%" y1="0%" y2="50%"><stop offset="0%" stop-color="#FF3986"/><stop offset="100%" stop-color="#2ECB70"/></linearGradient></defs><path fill="none" stroke="url(#i)" stroke-width="3" d="M626.706 776.391l-.01-.01H906.73v92.698"/><path fill="none" stroke="#EEEEEE" stroke-width="8" d="M483.275 741.058l-.01-.01H96.833V491.667"/><defs><linearGradient id="j" x1="100%" x2="50%" y1="100%" y2="50%"><stop offset="0%" stop-color="#FF3986"/><stop offset="100%" stop-color="#3397DA"/></linearGradient></defs><path fill="none" stroke="url(#j)" stroke-width="3" d="M483.275 741.058l-.01-.01H96.833V491.667"/><path fill="none" stroke="url(#j)" stroke-width="1.5" d="M116.843 557.891l-2.01-.01v8h2M120.843 557.891l1.99-.01v8h-2"/><path fill="none" stroke="#EEEEEE" stroke-width="8" d="M674.516 758.724l-.01-.01h368.083V522.55"/><defs><linearGradient id="k" x1="0%" x2="50%" y1="0%" y2="50%"><stop offset="0%" stop-color="#FF3986"/><stop offset="100%" stop-color="#2ECB70"/></linearGradient></defs><path fill="none" stroke="url(#k)" stroke-width="3" d="M674.516 758.724l-.01-.01h368.083V522.55"/><path fill="none" stroke="url(#k)" stroke-width="1.5" d="M1062.6 569.06l-2.01-.01v8h2M1066.6 569.06l1.99-.01v8h-2"/><path fill="none" stroke="#EEEEEE" stroke-width="8" d="M483.151 358.669l-.01-.01H57.057v123.865"/><defs><linearGradient id="l" x1="0%" x2="50%" y1="0%" y2="50%"><stop offset="0%" stop-color="#FF3986"/><stop offset="100%" stop-color="#3397DA"/></linearGradient></defs><path fill="none" stroke="url(#l)" stroke-width="3" d="M483.151 358.669l-.01-.01H57.057v123.865"/><path fill="none" stroke="url(#l)" stroke-width="1.5" d="M77.067 452.891l-2.01-.01v8h2M81.067 452.891l1.99-.01v8h-2"/><path fill="none" stroke="#EEEEEE" stroke-width="8" d="M551.438 379.869l-.01-.01H216.162v120.95"/><defs><linearGradient id="m" x1="0%" x2="50%" y1="0%" y2="50%"><stop offset="0%" stop-color="#FF3986"/><stop offset="100%" stop-color="#3397DA"/></linearGradient></defs><path fill="none" stroke="url(#m)" stroke-width="3" d="M551.438 379.869l-.01-.01H216.162v120.95"/><path fill="none" stroke="url(#m)" stroke-width="1.5" d="M236.172 452.891l-2.01-.01v8h2M240.172 452.891l1.99-.01v8h-2"/><path fill="none" stroke="#EEEEEE" stroke-width="8" d="M619.724 401.069l-.01-.01h264.111v82.49"/><defs><linearGradient id="n" x1="0%" x2="50%" y1="0%" y2="50%"><stop offset="0%" stop-color="#FF3986"/><stop offset="100%" stop-color="#2ECB70"/></linearGradient></defs><path fill="none" stroke="url(#n)" stroke-width="3" d="M619.724 401.069l-.01-.01h264.111v82.49"/><path fill="none" stroke="url(#n)" stroke-width="1.5" d="M903.835 450.06l-2.01-.01v8h2M907.835 450.06l1.99-.01v8h-2"/><path fill="none" stroke="#EEEEEE" stroke-width="8" d="M688.011 379.869l-.01-.01h513.353v116.69"/><defs><linearGradient id="o" x1="0%" x2="50%" y1="0%" y2="50%"><stop offset="0%" stop-color="#FF3986"/><stop offset="100%" stop-color="#2ECB70"/></linearGradient></defs><path fill="none" stroke="url(#o)" stroke-width="3" d="M688.011 379.869l-.01-.01h513.353v116.69"/><path fill="none" stroke="url(#o)" stroke-width="1.5" d="M1221.364 450.06l-2.01-.01v8h2M1225.364 450.06l1.99-.01v8h-2"/><path fill="none" stroke="#EEEEEE" stroke-width="8" d="M.01 205.621l-.01-.01v556.582h94.912"/><defs><linearGradient id="p" x1="0%" x2="50%" y1="0%" y2="50%"><stop offset="0%" stop-color="#3397DA"/><stop offset="100%" stop-color="#3397DA"/></linearGradient></defs><path fill="none" stroke="url(#p)" stroke-width="3" d="M.01 205.621l-.01-.01v556.582h94.912"/><path fill="none" stroke="#EEEEEE" stroke-width="8" d="M596.155 301.891l-.01-.01v355.5h-20.28"/><defs><linearGradient id="q" x1="0%" x2="50%" y1="0%" y2="50%"><stop offset="0%" stop-color="#FF3986"/><stop offset="100%" stop-color="#FF3986"/></linearGradient></defs><path fill="none" stroke="url(#q)" stroke-width="3" d="M596.155 301.891l-.01-.01v355.5h-20.28"/><path fill="none" stroke="#EEEEEE" stroke-width="8" d="M596.155 301.891l-.01-.01v227h-2.415"/><defs><linearGradient id="r" x1="0%" x2="50%" y1="0%" y2="50%"><stop offset="0%" stop-color="#FF3986"/><stop offset="100%" stop-color="#FF3986"/></linearGradient></defs><path fill="none" stroke="url(#r)" stroke-width="3" d="M596.155 301.891l-.01-.01v227h-2.415"/><path fill="none" stroke="#EEEEEE" stroke-width="8" d="M596.155 301.891l-.01-.01v490.5h-17.26"/><defs><linearGradient id="s" x1="0%" x2="50%" y1="0%" y2="50%"><stop offset="0%" stop-color="#FF3986"/><stop offset="100%" stop-color="#FF3986"/></linearGradient></defs><path fill="none" stroke="url(#s)" stroke-width="3" d="M596.155 301.891l-.01-.01v490.5h-17.26"/><path fill="none" stroke="#EEEEEE" stroke-width="8" d="M596.155 301.891l-.01-.01V406.46H585.57"/><defs><linearGradient id="t" x1="0%" x2="50%" y1="0%" y2="50%"><stop offset="0%" stop-color="#FF3986"/><stop offset="100%" stop-color="#FF3986"/></linearGradient></defs><path fill="none" stroke="url(#t)" stroke-width="3" d="M596.155 301.891l-.01-.01V406.46H585.57"/><path fill="none" stroke="#EEEEEE" stroke-width="8" d="M173.395 840.203l-.01-.01v82.91h7.898"/><defs><linearGradient id="u" x1="0%" x2="50%" y1="0%" y2="50%"><stop offset="0%" stop-color="#3397DA"/><stop offset="100%" stop-color="#FF3986"/></linearGradient></defs><path fill="none" stroke="url(#u)" stroke-width="3" d="M173.395 840.203l-.01-.01v82.91h7.898"/><path fill="#FFFFFF" stroke="#FF3986" stroke-width="3" d="M373.284 109.881h445.721v162H373.284z"/><path fill="#ff3986" stroke="#ff3986" d="M374.284 134.881h445.721"/><path fill="none" stroke="#FF3986" stroke-width="3" d="M373.284 109.881h445.721v162H373.284z"/><text x="383.284" y="127.881" style="font:700 16px 'Lucida Console',monospace" fill="#000000">Event</text><text x="383.284" y="151.881" style="font:500 14px 'Lucida Console',monospace" fill="#000000">eventID:</text><text x="454.714" y="151.881" style="font:500 14px 'Lucida Console',monospace" fill="#C9A30B">Text</text><text x="383.284" y="165.881" style="font:500 14px 'Lucida Console',monospace" fill="#000000">eventType:</text><text x="471.571" y="165.881" style="font:500 14px 'Lucida Console',monospace" fill="#530abb">Code(EventType)</text><text x="383.284" y="179.881" style="font:500 14px 'Lucida Console',monospace" fill="#000000">eventTime:</text><text x="471.571" y="179.881" style="font:500 14px 'Lucida Console',monospace" fill="#547000">unece.Event.occurrenceDateTime(Text)</text><text x="383.284" y="193.881" style="font:500 14px 'Lucida Console',monospace" fill="#000000">actionCode:</text><text x="480" y="193.881" style="font:500 14px 'Lucida Console',monospace" fill="#530abb">Code(ActionCode)</text><text x="383.284" y="207.881" style="font:500 14px 'Lucida Console',monospace" fill="#000000">dispositionCode:</text><text x="522.144" y="207.881" style="font:500 14px 'Lucida Console',monospace" fill="#530abb">Code(DispositionCode)</text><text x="383.284" y="221.881" style="font:500 14px 'Lucida Console',monospace" fill="#000000">businessStepCode:</text><text x="530.572" y="221.881" style="font:500 14px 'Lucida Console',monospace" fill="#530abb">Code(BusinessStepCode)</text><text x="383.284" y="235.881" style="font:500 14px 'Lucida Console',monospace" fill="#000000">readPointId:</text><text x="488.429" y="235.881" style="font:500 14px 'Lucida Console',monospace" fill="#02b57b">Text</text><text x="383.284" y="249.881" style="font:500 14px 'Lucida Console',monospace" fill="#000000">locationId:</text><text x="480" y="249.881" style="font:500 14px 'Lucida Console',monospace" fill="#02b57b">Text</text><text x="383.284" y="263.881" style="font:500 14px 'Lucida Console',monospace" fill="#000000">certification:</text><text x="505.286" y="263.881" style="font:500 14px 'Lucida Console',monospace" fill="#3397DA">CertificationInfo[]</text><path fill="#ff3986" stroke="#EEEEEE" stroke-width="3" d="M596.145 265.881l-12 22 12-2h0l12 2-12-22"/><path fill="#ff3986" stroke="#EEEEEE" stroke-width="3" d="M596.145 265.881l-12 22 12-2h0l12 2-12-22"/><path fill="#ff3986" stroke="#ff3986" stroke-width="3" d="M596.145 277.881v25.5"/><path fill="#FFFFFF" stroke="#FF3986" stroke-width="3" d="M432.434 609.381h286.861v64H432.434z"/><path fill="#ff3986" stroke="#ff3986" d="M433.434 634.381h286.861"/><path fill="none" stroke="#FF3986" stroke-width="3" d="M432.434 609.381h286.861v64H432.434z"/><text x="442.434" y="627.381" style="font:700 16px 'Lucida Console',monospace" fill="#000000">ObjectEvent</text><text x="442.434" y="651.381" style="font:500 14px 'Lucida Console',monospace" fill="#000000">itemList:</text><text x="522.293" y="651.381" style="font:500 14px 'Lucida Console',monospace" fill="#3397DA">Item[]</text><text x="442.434" y="665.381" style="font:500 14px 'Lucida Console',monospace" fill="#000000">quantityList:</text><text x="556.007" y="665.381" style="font:500 14px 'Lucida Console',monospace" fill="#2ECB70">QuantityElement[]</text><path fill="#FFFFFF" stroke="#FF3986" stroke-width="3" d="M429.227 473.881h329.005v78H429.227z"/><path fill="#ff3986" stroke="#ff3986" d="M430.227 498.881h329.005"/><path fill="none" stroke="#FF3986" stroke-width="3" d="M429.227 473.881h329.005v78H429.227z"/><text x="439.227" y="491.881" style="font:700 16px 'Lucida Console',monospace" fill="#000000">AggregationEvent</text><text x="439.227" y="515.881" style="font:500 14px 'Lucida Console',monospace" fill="#000000">parentItem:</text><text x="535.943" y="515.881" style="font:500 14px 'Lucida Console',monospace" fill="#3397DA">Item</text><text x="439.227" y="529.881" style="font:500 14px 'Lucida Console',monospace" fill="#000000">childItems:</text><text x="535.943" y="529.881" style="font:500 14px 'Lucida Console',monospace" fill="#3397DA">Item[]</text><text x="439.227" y="543.881" style="font:500 14px 'Lucida Console',monospace" fill="#000000">childQuantityList:</text><text x="594.944" y="543.881" style="font:500 14px 'Lucida Console',monospace" fill="#2ECB70">QuantityElement[]</text><path fill="#FFFFFF" stroke="#FF3986" stroke-width="3" d="M435.455 723.381h286.861v106H435.455z"/><path fill="#ff3986" stroke="#ff3986" d="M436.455 748.381h286.861"/><path fill="none" stroke="#FF3986" stroke-width="3" d="M435.455 723.381h286.861v106H435.455z"/><text x="445.455" y="741.381" style="font:700 16px 'Lucida Console',monospace" fill="#000000">TransactionEvent</text><text x="445.455" y="765.381" style="font:500 14px 'Lucida Console',monospace" fill="#000000">sourceParty:</text><text x="550.599" y="765.381" style="font:500 14px 'Lucida Console',monospace" fill="#3397DA">Party</text><text x="445.455" y="779.381" style="font:500 14px 'Lucida Console',monospace" fill="#000000">destinationParty:</text><text x="592.743" y="779.381" style="font:500 14px 'Lucida Console',monospace" fill="#3397DA">Party</text><text x="445.455" y="793.381" style="font:500 14px 'Lucida Console',monospace" fill="#000000">transaction:</text><text x="550.599" y="793.381" style="font:500 14px 'Lucida Console',monospace" fill="#2ECB70">TradeTransaction</text><text x="445.455" y="807.381" style="font:500 14px 'Lucida Console',monospace" fill="#000000">itemList:</text><text x="525.313" y="807.381" style="font:500 14px 'Lucida Console',monospace" fill="#3397DA">Item[]</text><text x="445.455" y="821.381" style="font:500 14px 'Lucida Console',monospace" fill="#000000">quantityList:</text><text x="559.028" y="821.381" style="font:500 14px 'Lucida Console',monospace" fill="#2ECB70">QuantityElement[]</text><path fill="#FFFFFF" stroke="#FF3986" stroke-width="3" d="M414.854 337.459h341.434v106H414.854z"/><path fill="#ff3986" stroke="#ff3986" d="M415.854 362.459h341.434"/><path fill="none" stroke="#FF3986" stroke-width="3" d="M414.854 337.459h341.434v106H414.854z"/><text x="424.854" y="355.459" style="font:700 16px 'Lucida Console',monospace" fill="#000000">TransformationEvent</text><text x="424.854" y="379.459" style="font:500 14px 'Lucida Console',monospace" fill="#000000">outputItemList:</text><text x="555.285" y="379.459" style="font:500 14px 'Lucida Console',monospace" fill="#3397DA">Item[]</text><text x="424.854" y="393.459" style="font:500 14px 'Lucida Console',monospace" fill="#000000">inputItemList:</text><text x="546.856" y="393.459" style="font:500 14px 'Lucida Console',monospace" fill="#3397DA">Item[]</text><text x="424.854" y="407.459" style="font:500 14px 'Lucida Console',monospace" fill="#000000">inputQuantityList:</text><text x="580.571" y="407.459" style="font:500 14px 'Lucida Console',monospace" fill="#2ECB70">QuantityElement[]</text><text x="424.854" y="421.459" style="font:500 14px 'Lucida Console',monospace" fill="#000000">outputQuantityList:</text><text x="589" y="421.459" style="font:500 14px 'Lucida Console',monospace" fill="#2ECB70">QuantityElement[]</text><text x="424.854" y="435.459" style="font:500 14px 'Lucida Console',monospace" fill="#000000">processType:</text><text x="529.999" y="435.459" style="font:500 14px 'Lucida Console',monospace" fill="#530abb">Code(ProcessType)</text><path fill="#FFFFFF" stroke="#2ECB70" stroke-width="3" d="M804.443 470.549h476.293v78H804.443z"/><path fill="#2ecb70" stroke="#2ecb70" d="M805.443 495.55h476.293"/><path fill="none" stroke="#2ECB70" stroke-width="3" d="M804.443 470.549h476.293v78H804.443z"/><text x="814.443" y="488.549" style="font:700 16px 'Lucida Console',monospace" fill="#000000">QuantityElement</text><text x="814.443" y="512.549" style="font:500 14px 'Lucida Console',monospace" fill="#000000">productClass:</text><text x="928.016" y="512.549" style="font:500 14px 'Lucida Console',monospace" fill="#547000">unece.Product.identificationId(Text)</text><text x="814.443" y="526.549" style="font:500 14px 'Lucida Console',monospace" fill="#000000">quantity:</text><text x="894.301" y="526.549" style="font:500 14px 'Lucida Console',monospace" fill="#547000">unece.QuantityAnalysis.actualQuantity(Text)</text><text x="814.443" y="540.549" style="font:500 14px 'Lucida Console',monospace" fill="#000000">uom:</text><text x="852.158" y="540.549" style="font:500 14px 'Lucida Console',monospace" fill="#530abb">Code(UOM)</text><path fill="#FFFFFF" stroke="#2ECB70" stroke-width="3" d="M771.942 830.079h269.575v78H771.942z"/><path fill="#2ecb70" stroke="#2ecb70" d="M772.942 855.079h269.575"/><path fill="none" stroke="#2ECB70" stroke-width="3" d="M771.942 830.079h269.575v78H771.942z"/><text x="781.942" y="848.079" style="font:700 16px 'Lucida Console',monospace" fill="#000000">TradeTransaction</text><text x="781.942" y="872.079" style="font:500 14px 'Lucida Console',monospace" fill="#000000">type:</text><text x="828.086" y="872.079" style="font:500 14px 'Lucida Console',monospace" fill="#530abb">Code(DocumentTypeCode)</text><text x="781.942" y="886.079" style="font:500 14px 'Lucida Console',monospace" fill="#000000">identifier:</text><text x="878.658" y="886.079" style="font:500 14px 'Lucida Console',monospace" fill="#02b57b">Text</text><text x="781.942" y="900.079" style="font:500 14px 'Lucida Console',monospace" fill="#000000">documentURL:</text><text x="887.086" y="900.079" style="font:500 14px 'Lucida Console',monospace" fill="#02b57b">URI</text><path fill="#FFFFFF" stroke="#3397DA" stroke-width="3" d="M-174.931 145.611h349.862v120h-349.862z"/><path fill="#3397da" stroke="#3397da" d="M-173.931 170.611H175.93"/><path fill="none" stroke="#3397DA" stroke-width="3" d="M-174.931 145.611h349.862v120h-349.862z"/><text x="-164.931" y="163.611" style="font:700 16px 'Lucida Console',monospace" fill="#000000">CertificationInfo</text><text x="-164.931" y="187.611" style="font:500 14px 'Lucida Console',monospace" fill="#000000">certificateID:</text><text x="-42.929" y="187.611" style="font:500 14px 'Lucida Console',monospace" fill="#C9A30B">URI</text><text x="-164.931" y="201.611" style="font:500 14px 'Lucida Console',monospace" fill="#000000">referenceStandard:</text><text x="-9.214" y="201.611" style="font:500 14px 'Lucida Console',monospace" fill="#02b57b">URI</text><text x="-164.931" y="215.611" style="font:500 14px 'Lucida Console',monospace" fill="#000000">evidenceURL:</text><text x="-59.787" y="215.611" style="font:500 14px 'Lucida Console',monospace" fill="#02b57b">URI</text><text x="-164.931" y="229.611" style="font:500 14px 'Lucida Console',monospace" fill="#000000">criteriaList:</text><text x="-51.358" y="229.611" style="font:500 14px 'Lucida Console',monospace" fill="#02b57b">URI[]</text><text x="-164.931" y="243.611" style="font:500 14px 'Lucida Console',monospace" fill="#000000">assessmentLevel:</text><text x="-26.072" y="243.611" style="font:500 14px 'Lucida Console',monospace" fill="#530abb">Code(assessmentLevel)</text><text x="-164.931" y="257.611" style="font:500 14px 'Lucida Console',monospace" fill="#000000">responsibleAgency:</text><text x="-9.214" y="257.611" style="font:500 14px 'Lucida Console',monospace" fill="#3397DA">Party</text><path fill="#FFFFFF" stroke="#3397DA" stroke-width="3" d="M17.281 473.381h278.433v64H17.281z"/><path fill="#3397da" stroke="#3397da" d="M18.281 498.381h278.433"/><path fill="none" stroke="#3397DA" stroke-width="3" d="M17.281 473.381h278.433v64H17.281z"/><text x="27.281" y="491.381" style="font:700 16px 'Lucida Console',monospace" fill="#000000">Item</text><text x="27.281" y="515.381" style="font:500 14px 'Lucida Console',monospace" fill="#000000">itemID:</text><text x="90.282" y="515.381" style="font:500 14px 'Lucida Console',monospace" fill="#C9A30B">URI</text><text x="27.281" y="529.381" style="font:500 14px 'Lucida Console',monospace" fill="#000000">name:</text><text x="73.425" y="529.381" style="font:500 14px 'Lucida Console',monospace" fill="#547000">unece.Product.name(Text)</text><path fill="#FFFFFF" stroke="#3397DA" stroke-width="3" d="M42.597 746.193h261.575v64H42.597z"/><path fill="#3397da" stroke="#3397da" d="M43.597 771.193h261.575"/><path fill="none" stroke="#3397DA" stroke-width="3" d="M42.597 746.193h261.575v64H42.597z"/><text x="52.597" y="764.193" style="font:700 16px 'Lucida Console',monospace" fill="#000000">Party</text><text x="52.597" y="788.193" style="font:500 14px 'Lucida Console',monospace" fill="#000000">partyID:</text><text x="124.027" y="788.193" style="font:500 14px 'Lucida Console',monospace" fill="#C9A30B">URI</text><text x="52.597" y="802.193" style="font:500 14px 'Lucida Console',monospace" fill="#000000">name:</text><text x="98.741" y="802.193" style="font:500 14px 'Lucida Console',monospace" fill="#547000">unece.Party.name(Text)</text><path fill="#3397da" stroke="#EEEEEE" stroke-width="3" d="M173.385 804.193l-12 22 12-2h0l12 2-12-22"/><path fill="#3397da" stroke="#EEEEEE" stroke-width="3" d="M173.385 804.193l-12 22 12-2h0l12 2-12-22"/><path fill="#3397da" stroke="#3397da" stroke-width="3" d="M173.385 816.193v25.5"/><path fill="#FFFFFF" stroke="#FF3986" stroke-width="3" d="M50.496 868.103h261.575v78H50.496z"/><path fill="#ff3986" stroke="#ff3986" d="M51.496 893.103H313.07"/><path fill="none" stroke="#FF3986" stroke-width="3" d="M50.496 868.103h261.575v78H50.496z"/><text x="60.496" y="886.103" style="font:700 16px 'Lucida Console',monospace" fill="#000000">BusinessPartner</text><text x="60.496" y="910.103" style="font:500 14px 'Lucida Console',monospace" fill="#000000">email:</text><text x="115.068" y="910.103" style="font:500 14px 'Lucida Console',monospace" fill="#02b57b">Text</text><text x="60.496" y="924.103" style="font:500 14px 'Lucida Console',monospace" fill="#000000">domain:</text><text x="123.497" y="924.103" style="font:500 14px 'Lucida Console',monospace" fill="#02b57b">URI</text><text x="60.496" y="938.103" style="font:500 14px 'Lucida Console',monospace" fill="#000000">role:</text><text x="106.639" y="938.103" style="font:500 14px 'Lucida Console',monospace" fill="#530abb">Code(verificationRole)</text></svg>