<svg xmlns="http://www.w3.org/2000/svg" viewBox="414.353 -130.248 1311.364 981.624"><rect width="1000%" height="1000%" x="-500%" y="-500%" fill="#EEEEEE"/><path fill="none" stroke="#EEEEEE" stroke-width="8" d="M1004.418 107.623l-.01-.01h-294.51v174.76"/><defs><linearGradient id="a" x1="0%" x2="50%" y1="0%" y2="50%"><stop offset="0%" stop-color="#3397DA"/><stop offset="100%" stop-color="#aabbccdd"/></linearGradient></defs><path fill="none" stroke="url(#a)" stroke-width="3" d="M1004.418 107.623l-.01-.01h-294.51v174.76"/><path fill="none" stroke="#EEEEEE" stroke-width="8" d="M772.29 314.05l-.01-.01v198.1h73.89"/><defs><linearGradient id="b" x1="0%" x2="50%" y1="0%" y2="50%"><stop offset="0%" stop-color="#aabbccdd"/><stop offset="100%" stop-color="#aabbccdd"/></linearGradient></defs><path fill="none" stroke="url(#b)" stroke-width="3" d="M772.29 314.05l-.01-.01v198.1h73.89"/><path fill="none" stroke="url(#b)" stroke-width="1.5" d="M792.29 438.65l-2.01-.01v8h2M796.29 438.65l1.99-.01v8h-2"/><path fill="none" stroke="#EEEEEE" stroke-width="8" d="M647.527 250.716l-.01-.01v258.537H565.14"/><defs><linearGradient id="c" x1="0%" x2="50%" y1="0%" y2="50%"><stop offset="0%" stop-color="#aabbccdd"/><stop offset="100%" stop-color="#aabbccdd"/></linearGradient></defs><path fill="none" stroke="url(#c)" stroke-width="3" d="M647.527 250.716l-.01-.01v258.537H565.14"/><path fill="none" stroke="#EEEEEE" stroke-width="8" d="M1094.419 133.623l-.01-.01h205.808V281"/><defs><linearGradient id="d" x1="0%" x2="50%" y1="0%" y2="50%"><stop offset="0%" stop-color="#3397DA"/><stop offset="100%" stop-color="#aabbccdd"/></linearGradient></defs><path fill="none" stroke="url(#d)" stroke-width="3" d="M1094.419 133.623l-.01-.01h205.808V281"/><path fill="none" stroke="url(#d)" stroke-width="1.5" d="M1320.227 179.51l-2.01-.01v8h2M1324.227 179.51l1.99-.01v8h-2"/><path fill="none" stroke="#EEEEEE" stroke-width="8" d="M1200.119 240.51l-.01-.01v275.371h-77.668"/><defs><linearGradient id="e" x1="0%" x2="50%" y1="0%" y2="50%"><stop offset="0%" stop-color="#aabbccdd"/><stop offset="100%" stop-color="#aabbccdd"/></linearGradient></defs><path fill="none" stroke="url(#e)" stroke-width="3" d="M1200.119 240.51l-.01-.01v275.371h-77.668"/><path fill="none" stroke="#EEEEEE" stroke-width="8" d="M1400.336 281.01l-.01-.01v242.752h100.03"/><defs><linearGradient id="f" x1="0%" x2="50%" y1="0%" y2="50%"><stop offset="0%" stop-color="#aabbccdd"/><stop offset="100%" stop-color="#aabbccdd"/></linearGradient></defs><path fill="none" stroke="url(#f)" stroke-width="3" d="M1400.336 281.01l-.01-.01v242.752h100.03"/><path fill="none" stroke="#EEEEEE" stroke-width="8" d="M1300.227 321.51l-.01-.01v401.876h-79.506"/><defs><linearGradient id="g" x1="0%" x2="50%" y1="0%" y2="50%"><stop offset="0%" stop-color="#aabbccdd"/><stop offset="100%" stop-color="#aabbccdd"/></linearGradient></defs><path fill="none" stroke="url(#g)" stroke-width="3" d="M1300.227 321.51l-.01-.01v401.876h-79.506"/><path fill="none" stroke="url(#g)" stroke-width="1.5" d="M1320.227 614.886l-2.01-.01v8h2M1324.227 614.886l1.99-.01v8h-2"/><path fill="none" stroke="#EEEEEE" stroke-width="8" d="M1042.071-42.238l-.01-.01v162.86h7.347"/><defs><linearGradient id="h" x1="0%" x2="50%" y1="0%" y2="50%"><stop offset="0%" stop-color="#3397DA"/><stop offset="100%" stop-color="#3397DA"/></linearGradient></defs><path fill="none" stroke="url(#h)" stroke-width="3" d="M1042.071-42.238l-.01-.01v162.86h7.347"/><path fill="#FFFFFF" stroke="#3397DA" stroke-width="3" d="M881.773-110.248h320.576v136H881.773z"/><path fill="#3397da" stroke="#3397da" d="M882.773-69.248h320.577"/><path fill="none" stroke="#3397DA" stroke-width="3" d="M881.773-110.248h320.576v136H881.773z"/><text x="891.773" y="-92.248" style="font:700 16px 'Lucida Console',monospace" fill="#000000">DigitalFacilityRecord</text><text x="891.773" y="-76.248" style="font:300 14px 'Lucida Console',monospace" fill="#999">＜＜untp.VerifiableCredential＞＞</text><text x="891.773" y="-52.248" style="font:700 14px 'Lucida Console',monospace" fill="#666">* @context:</text><text x="988.489" y="-52.248" style="font:300 14px 'Lucida Console',monospace" fill="#02b57b">Text[]</text><text x="891.773" y="-38.248" style="font:700 14px 'Lucida Console',monospace" fill="#666">* id:</text><text x="937.917" y="-38.248" style="font:300 14px 'Lucida Console',monospace" fill="#C9A30B">URI</text><text x="891.773" y="-24.248" style="font:700 14px 'Lucida Console',monospace" fill="#666">* issuer:</text><text x="971.632" y="-24.248" style="font:300 14px 'Lucida Console',monospace" fill="#02b57b">CredentialIssuer</text><text x="908.631" y="-10.248" style="font:300 14px 'Lucida Console',monospace" fill="#666">validFrom:</text><text x="996.918" y="-10.248" style="font:300 14px 'Lucida Console',monospace" fill="#02b57b">DateTime</text><text x="908.631" y="3.752" style="font:300 14px 'Lucida Console',monospace" fill="#666">validUntil:</text><text x="1005.347" y="3.752" style="font:300 14px 'Lucida Console',monospace" fill="#02b57b">DateTime</text><text x="908.631" y="17.752" style="font:300 14px 'Lucida Console',monospace" fill="#000000">credentialSubject:</text><text x="1064.348" y="17.752" style="font:300 14px 'Lucida Console',monospace" fill="#3397DA">FacilityRecord</text><path fill="#FFFFFF" stroke="#3397DA" stroke-width="3" d="M914.406 81.613h270.004v78H914.406z"/><path fill="#3397da" stroke="#3397da" d="M915.406 106.613h270.004"/><path fill="none" stroke="#3397DA" stroke-width="3" d="M914.406 81.613h270.004v78H914.406z"/><text x="924.406" y="99.613" style="font:700 16px 'Lucida Console',monospace" fill="#000000">FacilityRecord</text><text x="924.406" y="123.613" style="font:300 14px 'Lucida Console',monospace" fill="#000000">id:</text><text x="953.693" y="123.613" style="font:300 14px 'Lucida Console',monospace" fill="#C9A30B">URI</text><text x="924.406" y="137.613" style="font:300 14px 'Lucida Console',monospace" fill="#000000">facility:</text><text x="1004.265" y="137.613" style="font:300 14px 'Lucida Console',monospace" fill="#547000">untp.Facility</text><text x="924.406" y="151.613" style="font:300 14px 'Lucida Console',monospace" fill="#000000">conformityClaim:</text><text x="1063.266" y="151.613" style="font:300 14px 'Lucida Console',monospace" fill="#547000">untp.Claim[]</text><path fill="#FFFFFF" stroke="#aabbccdd" stroke-width="3" d="M522.753 187.373h374.291v190H522.753z"/><path fill="#aabbccdd" stroke="#aabbccdd" d="M523.753 212.373h374.291"/><path fill="none" stroke="#aabbccdd" stroke-width="3" d="M522.753 187.373h374.291v190H522.753z"/><text x="532.753" y="205.373" style="font:700 16px 'Lucida Console',monospace" fill="#000000">untp.Facility</text><text x="532.753" y="229.373" style="font:700 14px 'Lucida Console',monospace" fill="#000000">* id:</text><text x="578.897" y="229.373" style="font:300 14px 'Lucida Console',monospace" fill="#C9A30B">URI</text><text x="532.753" y="243.373" style="font:700 14px 'Lucida Console',monospace" fill="#000000">* name:</text><text x="595.754" y="243.373" style="font:300 14px 'Lucida Console',monospace" fill="#547000">Text</text><text x="549.611" y="257.373" style="font:300 14px 'Lucida Console',monospace" fill="#000000">registeredId:</text><text x="663.184" y="257.373" style="font:300 14px 'Lucida Console',monospace" fill="#02b57b">Text</text><text x="549.611" y="271.373" style="font:300 14px 'Lucida Console',monospace" fill="#000000">idScheme:</text><text x="629.469" y="271.373" style="font:300 14px 'Lucida Console',monospace" fill="#02b57b">IdentifierScheme</text><text x="549.611" y="285.373" style="font:300 14px 'Lucida Console',monospace" fill="#000000">description:</text><text x="654.755" y="285.373" style="font:300 14px 'Lucida Console',monospace" fill="#547000">Text</text><text x="549.611" y="299.373" style="font:300 14px 'Lucida Console',monospace" fill="#000000">countryOfOperation:</text><text x="713.756" y="299.373" style="font:300 14px 'Lucida Console',monospace" fill="#530abb">Code(countryCode)</text><text x="549.611" y="313.373" style="font:300 14px 'Lucida Console',monospace" fill="#000000">processCategory:</text><text x="688.47" y="313.373" style="font:300 14px 'Lucida Console',monospace" fill="#02b57b">Classification[]</text><text x="549.611" y="327.373" style="font:300 14px 'Lucida Console',monospace" fill="#000000">operatedByParty:</text><text x="688.47" y="327.373" style="font:300 14px 'Lucida Console',monospace" fill="#02b57b">Party</text><text x="549.611" y="341.373" style="font:300 14px 'Lucida Console',monospace" fill="#000000">facilityAlsoKnownAs:</text><text x="722.185" y="341.373" style="font:300 14px 'Lucida Console',monospace" fill="#02b57b">Facility[]</text><text x="549.611" y="355.373" style="font:300 14px 'Lucida Console',monospace" fill="#000000">locationInformation:</text><text x="722.185" y="355.373" style="font:300 14px 'Lucida Console',monospace" fill="#02b57b">Location</text><text x="549.611" y="369.373" style="font:300 14px 'Lucida Console',monospace" fill="#000000">address:</text><text x="621.04" y="369.373" style="font:300 14px 'Lucida Console',monospace" fill="#02b57b">Address</text><path fill="#FFFFFF" stroke="#aabbccdd" stroke-width="3" d="M721.229 459.141H971.11v106H721.229z"/><path fill="#aabbccdd" stroke="#aabbccdd" d="M722.23 484.14h249.88"/><path fill="none" stroke="#aabbccdd" stroke-width="3" d="M721.229 459.141H971.11v106H721.229z"/><text x="731.229" y="477.141" style="font:700 16px 'Lucida Console',monospace" fill="#000000">untp.Classification</text><text x="731.229" y="501.141" style="font:700 14px 'Lucida Console',monospace" fill="#000000">* id:</text><text x="777.373" y="501.141" style="font:300 14px 'Lucida Console',monospace" fill="#C9A30B">URI</text><text x="748.086" y="515.141" style="font:300 14px 'Lucida Console',monospace" fill="#000000">code:</text><text x="794.23" y="515.141" style="font:300 14px 'Lucida Console',monospace" fill="#02b57b">Text</text><text x="731.229" y="529.141" style="font:700 14px 'Lucida Console',monospace" fill="#000000">* name:</text><text x="794.23" y="529.141" style="font:300 14px 'Lucida Console',monospace" fill="#547000">Text</text><text x="748.086" y="543.141" style="font:300 14px 'Lucida Console',monospace" fill="#000000">schemeID:</text><text x="827.945" y="543.141" style="font:300 14px 'Lucida Console',monospace" fill="#02b57b">URI</text><text x="748.086" y="557.141" style="font:300 14px 'Lucida Console',monospace" fill="#000000">schemeName:</text><text x="844.802" y="557.141" style="font:300 14px 'Lucida Console',monospace" fill="#02b57b">Text</text><path fill="#FFFFFF" stroke="#aabbccdd" stroke-width="3" d="M434.353 470.243h261.575v78H434.353z"/><path fill="#aabbccdd" stroke="#aabbccdd" d="M435.353 495.243h261.575"/><path fill="none" stroke="#aabbccdd" stroke-width="3" d="M434.353 470.243h261.575v78H434.353z"/><text x="444.353" y="488.243" style="font:700 16px 'Lucida Console',monospace" fill="#000000">untp.Location</text><text x="444.353" y="512.243" style="font:300 14px 'Lucida Console',monospace" fill="#000000">plusCode:</text><text x="524.211" y="512.243" style="font:300 14px 'Lucida Console',monospace" fill="#02b57b">URI</text><text x="444.353" y="526.243" style="font:300 14px 'Lucida Console',monospace" fill="#000000">geoLocation:</text><text x="549.497" y="526.243" style="font:300 14px 'Lucida Console',monospace" fill="#547000">geojson.Point</text><text x="444.353" y="540.243" style="font:300 14px 'Lucida Console',monospace" fill="#000000">geoBoundary:</text><text x="549.497" y="540.243" style="font:300 14px 'Lucida Console',monospace" fill="#547000">geojson.Polygon</text><path fill="#FFFFFF" stroke="#aabbccdd" stroke-width="3" d="M1100 200h400.435v162H1100z"/><path fill="#aabbccdd" stroke="#aabbccdd" d="M1101 225h400.435"/><path fill="none" stroke="#aabbccdd" stroke-width="3" d="M1100 200h400.435v162H1100z"/><text x="1110" y="218" style="font:700 16px 'Lucida Console',monospace" fill="#000000">untp.Claim</text><text x="1110" y="242" style="font:700 14px 'Lucida Console',monospace" fill="#666">* id:</text><text x="1156.144" y="242" style="font:300 14px 'Lucida Console',monospace" fill="#C9A30B">URI</text><text x="1126.857" y="256" style="font:300 14px 'Lucida Console',monospace" fill="#666">description:</text><text x="1232.002" y="256" style="font:300 14px 'Lucida Console',monospace" fill="#547000">Text</text><text x="1126.857" y="270" style="font:300 14px 'Lucida Console',monospace" fill="#666">referenceStandard:</text><text x="1282.574" y="270" style="font:300 14px 'Lucida Console',monospace" fill="#02b57b">Standard</text><text x="1126.857" y="284" style="font:300 14px 'Lucida Console',monospace" fill="#666">referenceRegulation:</text><text x="1299.432" y="284" style="font:300 14px 'Lucida Console',monospace" fill="#02b57b">Regulation</text><text x="1126.857" y="298" style="font:300 14px 'Lucida Console',monospace" fill="#666">assessmentCriteria:</text><text x="1291.003" y="298" style="font:300 14px 'Lucida Console',monospace" fill="#02b57b">Criterion[]</text><text x="1126.857" y="312" style="font:300 14px 'Lucida Console',monospace" fill="#666">assessmentDate:</text><text x="1257.288" y="312" style="font:300 14px 'Lucida Console',monospace" fill="#02b57b">Date</text><text x="1126.857" y="326" style="font:300 14px 'Lucida Console',monospace" fill="#666">declaredValue:</text><text x="1248.859" y="326" style="font:300 14px 'Lucida Console',monospace" fill="#02b57b">Metric[]</text><text x="1110" y="340" style="font:700 14px 'Lucida Console',monospace" fill="#666">* conformityTopic:</text><text x="1265.717" y="340" style="font:300 14px 'Lucida Console',monospace" fill="#530abb">Code(conformityTopicCode)</text><text x="1126.857" y="354" style="font:300 14px 'Lucida Console',monospace" fill="#000000">conformityEvidence:</text><text x="1291.003" y="354" style="font:300 14px 'Lucida Console',monospace" fill="#02b57b">SecureLink</text><path fill="#FFFFFF" stroke="#aabbccdd" stroke-width="3" d="M1016.013 469.871h212.857v92h-212.857z"/><path fill="#aabbccdd" stroke="#aabbccdd" d="M1017.013 494.871h212.857"/><path fill="none" stroke="#aabbccdd" stroke-width="3" d="M1016.013 469.871h212.857v92h-212.857z"/><text x="1026.013" y="487.871" style="font:700 16px 'Lucida Console',monospace" fill="#000000">untp.Standard</text><text x="1042.87" y="511.871" style="font:300 14px 'Lucida Console',monospace" fill="#000000">id:</text><text x="1072.156" y="511.871" style="font:300 14px 'Lucida Console',monospace" fill="#C9A30B">URI</text><text x="1042.87" y="525.871" style="font:300 14px 'Lucida Console',monospace" fill="#000000">name:</text><text x="1089.014" y="525.871" style="font:300 14px 'Lucida Console',monospace" fill="#547000">Text</text><text x="1026.013" y="539.871" style="font:700 14px 'Lucida Console',monospace" fill="#000000">* issuingParty:</text><text x="1156.443" y="539.871" style="font:300 14px 'Lucida Console',monospace" fill="#02b57b">Party</text><text x="1042.87" y="553.871" style="font:300 14px 'Lucida Console',monospace" fill="#000000">issueDate:</text><text x="1131.157" y="553.871" style="font:300 14px 'Lucida Console',monospace" fill="#02b57b">Date</text><path fill="#FFFFFF" stroke="#aabbccdd" stroke-width="3" d="M1314.996 470.752h370.72v106h-370.72z"/><path fill="#aabbccdd" stroke="#aabbccdd" d="M1315.996 495.752h370.72"/><path fill="none" stroke="#aabbccdd" stroke-width="3" d="M1314.996 470.752h370.72v106h-370.72z"/><text x="1324.996" y="488.752" style="font:700 16px 'Lucida Console',monospace" fill="#000000">untp.Regulation</text><text x="1341.854" y="512.752" style="font:300 14px 'Lucida Console',monospace" fill="#000000">id:</text><text x="1371.14" y="512.752" style="font:300 14px 'Lucida Console',monospace" fill="#C9A30B">URI</text><text x="1341.854" y="526.752" style="font:300 14px 'Lucida Console',monospace" fill="#000000">name:</text><text x="1387.997" y="526.752" style="font:300 14px 'Lucida Console',monospace" fill="#547000">Text</text><text x="1341.854" y="540.752" style="font:300 14px 'Lucida Console',monospace" fill="#000000">jurisdictionCountry:</text><text x="1514.428" y="540.752" style="font:300 14px 'Lucida Console',monospace" fill="#530abb">Code(countryCode)</text><text x="1324.996" y="554.752" style="font:700 14px 'Lucida Console',monospace" fill="#000000">* administeredBy:</text><text x="1472.285" y="554.752" style="font:300 14px 'Lucida Console',monospace" fill="#02b57b">Party</text><text x="1341.854" y="568.752" style="font:300 14px 'Lucida Console',monospace" fill="#000000">effectiveDate:</text><text x="1463.856" y="568.752" style="font:300 14px 'Lucida Console',monospace" fill="#02b57b">Date</text><path fill="#FFFFFF" stroke="#aabbccdd" stroke-width="3" d="M1010.494 635.376h420.435v176h-420.435z"/><path fill="#aabbccdd" stroke="#aabbccdd" d="M1011.494 660.376h420.435"/><path fill="none" stroke="#aabbccdd" stroke-width="3" d="M1010.494 635.376h420.435v176h-420.435z"/><text x="1020.494" y="653.376" style="font:700 16px 'Lucida Console',monospace" fill="#000000">untp.Criterion</text><text x="1020.494" y="677.376" style="font:700 14px 'Lucida Console',monospace" fill="#000000">* id:</text><text x="1066.638" y="677.376" style="font:300 14px 'Lucida Console',monospace" fill="#C9A30B">URI</text><text x="1020.494" y="691.376" style="font:700 14px 'Lucida Console',monospace" fill="#000000">* name:</text><text x="1083.495" y="691.376" style="font:300 14px 'Lucida Console',monospace" fill="#547000">Text</text><text x="1020.494" y="705.376" style="font:700 14px 'Lucida Console',monospace" fill="#000000">* description:</text><text x="1142.496" y="705.376" style="font:300 14px 'Lucida Console',monospace" fill="#547000">Text</text><text x="1020.494" y="719.376" style="font:700 14px 'Lucida Console',monospace" fill="#000000">* conformityTopic:</text><text x="1176.211" y="719.376" style="font:300 14px 'Lucida Console',monospace" fill="#530abb">Code(conformityTopicCode)</text><text x="1020.494" y="733.376" style="font:700 14px 'Lucida Console',monospace" fill="#000000">* status:</text><text x="1100.352" y="733.376" style="font:300 14px 'Lucida Console',monospace" fill="#530abb">Code(statusCode)</text><text x="1037.351" y="747.376" style="font:300 14px 'Lucida Console',monospace" fill="#000000">subCriterion:</text><text x="1150.925" y="747.376" style="font:300 14px 'Lucida Console',monospace" fill="#02b57b">Criterion[]</text><text x="1037.351" y="761.376" style="font:300 14px 'Lucida Console',monospace" fill="#000000">thresholdValue:</text><text x="1167.782" y="761.376" style="font:300 14px 'Lucida Console',monospace" fill="#02b57b">Metric</text><text x="1037.351" y="775.376" style="font:300 14px 'Lucida Console',monospace" fill="#000000">performanceLevel:</text><text x="1184.64" y="775.376" style="font:300 14px 'Lucida Console',monospace" fill="#02b57b">Text</text><text x="1037.351" y="789.376" style="font:300 14px 'Lucida Console',monospace" fill="#000000">category:</text><text x="1117.21" y="789.376" style="font:300 14px 'Lucida Console',monospace" fill="#02b57b">Classification[]</text><text x="1037.351" y="803.376" style="font:300 14px 'Lucida Console',monospace" fill="#000000">tag:</text><text x="1075.066" y="803.376" style="font:300 14px 'Lucida Console',monospace" fill="#02b57b">Text[]</text></svg>