<svg xmlns="http://www.w3.org/2000/svg" viewBox="-395.434 -88 2132.131 1068.006"><rect width="1000%" height="1000%" x="-500%" y="-500%" fill="#EEEEEE"/><path fill="none" stroke="#EEEEEE" stroke-width="8" d="M637.396 244.01l-.01-.01h-332.92v323.039"/><defs><linearGradient id="a" x1="0%" x2="50%" y1="0%" y2="50%"><stop offset="0%" stop-color="#3397DA"/><stop offset="100%" stop-color="#aabbccdd"/></linearGradient></defs><path fill="none" stroke="url(#a)" stroke-width="3" d="M637.396 244.01l-.01-.01h-332.92v323.039"/><path fill="none" stroke="#EEEEEE" stroke-width="8" d="M242.69 523.715l-.01-.01v335.3H-10.45"/><defs><linearGradient id="b" x1="0%" x2="50%" y1="0%" y2="50%"><stop offset="0%" stop-color="#aabbccdd"/><stop offset="100%" stop-color="#aabbccdd"/></linearGradient></defs><path fill="none" stroke="url(#b)" stroke-width="3" d="M242.69 523.715l-.01-.01v335.3H-10.45"/><path fill="none" stroke="#EEEEEE" stroke-width="8" d="M366.263 610.382l-.01-.01v256.57H556.73"/><defs><linearGradient id="c" x1="0%" x2="50%" y1="0%" y2="50%"><stop offset="0%" stop-color="#aabbccdd"/><stop offset="100%" stop-color="#aabbccdd"/></linearGradient></defs><path fill="none" stroke="url(#c)" stroke-width="3" d="M366.263 610.382l-.01-.01v256.57H556.73"/><path fill="none" stroke="#EEEEEE" stroke-width="8" d="M768.541 197.724l-.01-.01h520.695v455.188"/><defs><linearGradient id="d" x1="0%" x2="50%" y1="0%" y2="50%"><stop offset="0%" stop-color="#3397DA"/><stop offset="100%" stop-color="#aabbccdd"/></linearGradient></defs><path fill="none" stroke="url(#d)" stroke-width="3" d="M768.541 197.724l-.01-.01h520.695v455.188"/><path fill="none" stroke="url(#d)" stroke-width="1.5" d="M1309.236 551.412l-2.01-.01v8h2M1313.236 551.412l1.99-.01v8h-2"/><path fill="none" stroke="#EEEEEE" stroke-width="8" d="M1249.192 636.712l-.01-.01V296h207.247"/><defs><linearGradient id="e" x1="0%" x2="50%" y1="0%" y2="50%"><stop offset="0%" stop-color="#aabbccdd"/><stop offset="100%" stop-color="#aabbccdd"/></linearGradient></defs><path fill="none" stroke="url(#e)" stroke-width="3" d="M1249.192 636.712l-.01-.01V296h207.247"/><path fill="none" stroke="#EEEEEE" stroke-width="8" d="M1409.366 636.712l-.01-.01v219.343h101.981"/><defs><linearGradient id="f" x1="0%" x2="50%" y1="0%" y2="50%"><stop offset="0%" stop-color="#aabbccdd"/><stop offset="100%" stop-color="#aabbccdd"/></linearGradient></defs><path fill="none" stroke="url(#f)" stroke-width="3" d="M1409.366 636.712l-.01-.01v219.343h101.981"/><path fill="none" stroke="#EEEEEE" stroke-width="8" d="M1169.105 604.312l-.01-.01V873.32h-135.54"/><defs><linearGradient id="g" x1="0%" x2="50%" y1="0%" y2="50%"><stop offset="0%" stop-color="#aabbccdd"/><stop offset="100%" stop-color="#aabbccdd"/></linearGradient></defs><path fill="none" stroke="url(#g)" stroke-width="3" d="M1169.105 604.312l-.01-.01V873.32h-135.54"/><path fill="none" stroke="url(#g)" stroke-width="1.5" d="M1189.105 764.83l-2.01-.01v8h2M1193.105 764.83l1.99-.01v8h-2"/><path fill="none" stroke="#EEEEEE" stroke-width="8" d="M1329.28 669.112l-.01-.01V463.264h135.383"/><defs><linearGradient id="h" x1="0%" x2="50%" y1="0%" y2="50%"><stop offset="0%" stop-color="#aabbccdd"/><stop offset="100%" stop-color="#aabbccdd"/></linearGradient></defs><path fill="none" stroke="url(#h)" stroke-width="3" d="M1329.28 669.112l-.01-.01V463.264h135.383"/><path fill="none" stroke="url(#h)" stroke-width="1.5" d="M1334.662 443.274l-2.01-.01v8h2M1338.662 443.274l1.99-.01v8h-2"/><path fill="none" stroke="#EEEEEE" stroke-width="8" d="M506.251 197.724l-.01-.01h-669.073v459.502"/><defs><linearGradient id="i" x1="0%" x2="50%" y1="0%" y2="50%"><stop offset="0%" stop-color="#3397DA"/><stop offset="100%" stop-color="#aabbccdd"/></linearGradient></defs><path fill="none" stroke="url(#i)" stroke-width="3" d="M506.251 197.724l-.01-.01h-669.073v459.502"/><path fill="none" stroke="#EEEEEE" stroke-width="8" d="M571.824 220.867l-.01-.01H48.483v107.818"/><defs><linearGradient id="j" x1="0%" x2="50%" y1="0%" y2="50%"><stop offset="0%" stop-color="#3397DA"/><stop offset="100%" stop-color="#aabbccdd"/></linearGradient></defs><path fill="none" stroke="url(#j)" stroke-width="3" d="M571.824 220.867l-.01-.01H48.483v107.818"/><path fill="none" stroke="#EEEEEE" stroke-width="8" d="M702.969 220.867l-.01-.01h292.775v202.707"/><defs><linearGradient id="k" x1="0%" x2="50%" y1="0%" y2="50%"><stop offset="0%" stop-color="#3397DA"/><stop offset="100%" stop-color="#aabbccdd"/></linearGradient></defs><path fill="none" stroke="url(#k)" stroke-width="3" d="M702.969 220.867l-.01-.01h292.775v202.707"/><path fill="none" stroke="url(#k)" stroke-width="1.5" d="M1015.744 322.074l-2.01-.01v8h2M1019.744 322.074l1.99-.01v8h-2"/><path fill="none" stroke="#EEEEEE" stroke-width="8" d="M995.744 423.574l-.01-.01H724.94V603"/><defs><linearGradient id="l" x1="0%" x2="50%" y1="0%" y2="50%"><stop offset="0%" stop-color="#aabbccdd"/><stop offset="100%" stop-color="#aabbccdd"/></linearGradient></defs><path fill="none" stroke="url(#l)" stroke-width="3" d="M995.744 423.574l-.01-.01H724.94V603"/><path fill="none" stroke="#EEEEEE" stroke-width="8" d="M548.28.01l-.01-.01v232.429h56.33"/><defs><linearGradient id="m" x1="0%" x2="50%" y1="0%" y2="50%"><stop offset="0%" stop-color="#3397DA"/><stop offset="100%" stop-color="#3397DA"/></linearGradient></defs><path fill="none" stroke="url(#m)" stroke-width="3" d="M548.28.01l-.01-.01v232.429h56.33"/><path fill="none" stroke="#EEEEEE" stroke-width="8" d="M440.679 174.581l-.01-.01h-651.6V485.26"/><defs><linearGradient id="n" x1="0%" x2="50%" y1="0%" y2="50%"><stop offset="0%" stop-color="#3397DA"/><stop offset="100%" stop-color="#2ECB70"/></linearGradient></defs><path fill="none" stroke="url(#n)" stroke-width="3" d="M440.679 174.581l-.01-.01h-651.6V485.26"/><path fill="none" stroke="url(#n)" stroke-width="1.5" d="M-190.921 425.77l-2.01-.01v8h2M-186.921 425.77l1.99-.01v8h-2"/><path fill="#FFFFFF" stroke="#3397DA" stroke-width="3" d="M383.768-68h329.005V68H383.768z"/><path fill="#3397da" stroke="#3397da" d="M384.768-27h329.005"/><path fill="none" stroke="#3397DA" stroke-width="3" d="M383.768-68h329.005V68H383.768z"/><text x="393.768" y="-50" style="font:700 16px 'Lucida Console',monospace" fill="#000000">DigitalProductPassport</text><text x="393.768" y="-34" style="font:300 14px 'Lucida Console',monospace" fill="#999">＜＜untp.VerifiableCredential＞＞</text><text x="393.768" y="-10" style="font:700 14px 'Lucida Console',monospace" fill="#666">* @context:</text><text x="490.484" y="-10" style="font:300 14px 'Lucida Console',monospace" fill="#02b57b">Text[]</text><text x="393.768" y="4" style="font:700 14px 'Lucida Console',monospace" fill="#666">* id:</text><text x="439.912" y="4" style="font:300 14px 'Lucida Console',monospace" fill="#C9A30B">URI</text><text x="393.768" y="18" style="font:700 14px 'Lucida Console',monospace" fill="#666">* issuer:</text><text x="473.627" y="18" style="font:300 14px 'Lucida Console',monospace" fill="#02b57b">CredentialIssuer</text><text x="410.626" y="32" style="font:300 14px 'Lucida Console',monospace" fill="#666">validFrom:</text><text x="498.913" y="32" style="font:300 14px 'Lucida Console',monospace" fill="#02b57b">DateTime</text><text x="410.626" y="46" style="font:300 14px 'Lucida Console',monospace" fill="#666">validUntil:</text><text x="507.341" y="46" style="font:300 14px 'Lucida Console',monospace" fill="#02b57b">DateTime</text><text x="410.626" y="60" style="font:300 14px 'Lucida Console',monospace" fill="#000000">credentialSubject:</text><text x="566.342" y="60" style="font:300 14px 'Lucida Console',monospace" fill="#3397DA">ProductPassport</text><path fill="#FFFFFF" stroke="#3397DA" stroke-width="3" d="M375.097 151.429h459.007v162H375.097z"/><path fill="#3397da" stroke="#3397da" d="M376.097 176.429h459.006"/><path fill="none" stroke="#3397DA" stroke-width="3" d="M375.097 151.429h459.007v162H375.097z"/><text x="385.097" y="169.429" style="font:700 16px 'Lucida Console',monospace" fill="#000000">ProductPassport</text><text x="385.097" y="193.429" style="font:300 14px 'Lucida Console',monospace" fill="#000000">id:</text><text x="414.383" y="193.429" style="font:300 14px 'Lucida Console',monospace" fill="#C9A30B">URI</text><text x="385.097" y="207.429" style="font:300 14px 'Lucida Console',monospace" fill="#000000">product:</text><text x="456.526" y="207.429" style="font:300 14px 'Lucida Console',monospace" fill="#547000">untp.Product</text><text x="385.097" y="221.429" style="font:300 14px 'Lucida Console',monospace" fill="#000000">granularityLevel:</text><text x="532.385" y="221.429" style="font:300 14px 'Lucida Console',monospace" fill="#530abb">Code(granularityCode)</text><text x="385.097" y="235.429" style="font:300 14px 'Lucida Console',monospace" fill="#000000">conformityClaim:</text><text x="523.956" y="235.429" style="font:300 14px 'Lucida Console',monospace" fill="#547000">untp.Claim[]</text><text x="385.097" y="249.429" style="font:300 14px 'Lucida Console',monospace" fill="#000000">emissionsScorecard:</text><text x="549.242" y="249.429" style="font:300 14px 'Lucida Console',monospace" fill="#547000">untp.EmissionsPerformance</text><text x="385.097" y="263.429" style="font:300 14px 'Lucida Console',monospace" fill="#000000">traceabilityInformation:</text><text x="591.386" y="263.429" style="font:300 14px 'Lucida Console',monospace" fill="#2ECB70">TraceabilityPerformance[]</text><text x="385.097" y="277.429" style="font:300 14px 'Lucida Console',monospace" fill="#000000">circularityScorecard:</text><text x="566.1" y="277.429" style="font:300 14px 'Lucida Console',monospace" fill="#547000">untp.CircularityPerformance</text><text x="385.097" y="291.429" style="font:300 14px 'Lucida Console',monospace" fill="#000000">dueDiligenceDeclaration:</text><text x="591.386" y="291.429" style="font:300 14px 'Lucida Console',monospace" fill="#547000">untp.Link</text><text x="385.097" y="305.429" style="font:300 14px 'Lucida Console',monospace" fill="#000000">materialsProvenance:</text><text x="557.671" y="305.429" style="font:300 14px 'Lucida Console',monospace" fill="#547000">untp.Material[]</text><path fill="#FFFFFF" stroke="#2ECB70" stroke-width="3" d="M-375.434 446.26h329.005v78h-329.005z"/><path fill="#2ecb70" stroke="#2ecb70" d="M-374.434 471.26h329.005"/><path fill="none" stroke="#2ECB70" stroke-width="3" d="M-375.434 446.26h329.005v78h-329.005z"/><text x="-365.434" y="464.26" style="font:700 16px 'Lucida Console',monospace" fill="#000000">TraceabilityPerformance</text><text x="-365.434" y="488.26" style="font:300 14px 'Lucida Console',monospace" fill="#000000">valueChainProcess:</text><text x="-209.717" y="488.26" style="font:300 14px 'Lucida Console',monospace" fill="#02b57b">Text</text><text x="-365.434" y="502.26" style="font:300 14px 'Lucida Console',monospace" fill="#000000">verifiedRatio:</text><text x="-243.432" y="502.26" style="font:300 14px 'Lucida Console',monospace" fill="#02b57b">Numeric</text><text x="-365.434" y="516.26" style="font:300 14px 'Lucida Console',monospace" fill="#000000">traceabilityEvent:</text><text x="-209.717" y="516.26" style="font:300 14px 'Lucida Console',monospace" fill="#547000">untp.SecureLink[]</text><path fill="#FFFFFF" stroke="#aabbccdd" stroke-width="3" d="M119.106 437.039h370.72v260h-370.72z"/><path fill="#aabbccdd" stroke="#aabbccdd" d="M120.106 462.039h370.72"/><path fill="none" stroke="#aabbccdd" stroke-width="3" d="M119.106 437.039h370.72v260h-370.72z"/><text x="129.106" y="455.039" style="font:700 16px 'Lucida Console',monospace" fill="#000000">untp.Product</text><text x="129.106" y="479.039" style="font:700 14px 'Lucida Console',monospace" fill="#000000">* id:</text><text x="175.25" y="479.039" style="font:300 14px 'Lucida Console',monospace" fill="#C9A30B">URI</text><text x="129.106" y="493.039" style="font:700 14px 'Lucida Console',monospace" fill="#000000">* name:</text><text x="192.107" y="493.039" style="font:300 14px 'Lucida Console',monospace" fill="#547000">Text</text><text x="145.964" y="507.039" style="font:300 14px 'Lucida Console',monospace" fill="#000000">registeredId:</text><text x="259.537" y="507.039" style="font:300 14px 'Lucida Console',monospace" fill="#02b57b">Text</text><text x="145.964" y="521.039" style="font:300 14px 'Lucida Console',monospace" fill="#000000">idScheme:</text><text x="225.822" y="521.039" style="font:300 14px 'Lucida Console',monospace" fill="#02b57b">IdentifierScheme</text><text x="145.964" y="535.039" style="font:300 14px 'Lucida Console',monospace" fill="#000000">batchNumber:</text><text x="251.108" y="535.039" style="font:300 14px 'Lucida Console',monospace" fill="#02b57b">Text</text><text x="145.964" y="549.039" style="font:300 14px 'Lucida Console',monospace" fill="#000000">productImage:</text><text x="259.537" y="549.039" style="font:300 14px 'Lucida Console',monospace" fill="#02b57b">Link</text><text x="145.964" y="563.039" style="font:300 14px 'Lucida Console',monospace" fill="#000000">description:</text><text x="251.108" y="563.039" style="font:300 14px 'Lucida Console',monospace" fill="#547000">Text</text><text x="145.964" y="577.039" style="font:300 14px 'Lucida Console',monospace" fill="#000000">characteristics:</text><text x="284.823" y="577.039" style="font:300 14px 'Lucida Console',monospace" fill="#02b57b">Characteristics</text><text x="145.964" y="591.039" style="font:300 14px 'Lucida Console',monospace" fill="#000000">productCategory:</text><text x="284.823" y="591.039" style="font:300 14px 'Lucida Console',monospace" fill="#02b57b">Classification[]</text><text x="145.964" y="605.039" style="font:300 14px 'Lucida Console',monospace" fill="#000000">furtherInformation:</text><text x="310.109" y="605.039" style="font:300 14px 'Lucida Console',monospace" fill="#02b57b">Link[]</text><text x="145.964" y="619.039" style="font:300 14px 'Lucida Console',monospace" fill="#000000">producedByParty:</text><text x="284.823" y="619.039" style="font:300 14px 'Lucida Console',monospace" fill="#02b57b">Party</text><text x="145.964" y="633.039" style="font:300 14px 'Lucida Console',monospace" fill="#000000">producedAtFacility:</text><text x="310.109" y="633.039" style="font:300 14px 'Lucida Console',monospace" fill="#02b57b">Facility</text><text x="145.964" y="647.039" style="font:300 14px 'Lucida Console',monospace" fill="#000000">productionDate:</text><text x="276.394" y="647.039" style="font:300 14px 'Lucida Console',monospace" fill="#02b57b">Date</text><text x="145.964" y="661.039" style="font:300 14px 'Lucida Console',monospace" fill="#000000">countryOfProduction:</text><text x="318.538" y="661.039" style="font:300 14px 'Lucida Console',monospace" fill="#530abb">Code(countryCode)</text><text x="145.964" y="675.039" style="font:300 14px 'Lucida Console',monospace" fill="#000000">serialNumber:</text><text x="259.537" y="675.039" style="font:300 14px 'Lucida Console',monospace" fill="#02b57b">Text</text><text x="145.964" y="689.039" style="font:300 14px 'Lucida Console',monospace" fill="#000000">dimensions:</text><text x="242.68" y="689.039" style="font:300 14px 'Lucida Console',monospace" fill="#02b57b">Dimension</text><path fill="#FFFFFF" stroke="#aabbccdd" stroke-width="3" d="M-197.809 778.006h374.72v162h-374.72z"/><path fill="#aabbccdd" stroke="#aabbccdd" d="M-196.809 803.006h374.72"/><path fill="none" stroke="#aabbccdd" stroke-width="3" d="M-197.809 778.006h374.72v162h-374.72z"/><text x="-187.809" y="796.006" style="font:700 16px 'Lucida Console',monospace" fill="#000000">untp.Party</text><text x="-187.809" y="820.006" style="font:700 14px 'Lucida Console',monospace" fill="#000000">* id:</text><text x="-141.665" y="820.006" style="font:300 14px 'Lucida Console',monospace" fill="#C9A30B">URI</text><text x="-187.809" y="834.006" style="font:700 14px 'Lucida Console',monospace" fill="#000000">* name:</text><text x="-124.808" y="834.006" style="font:300 14px 'Lucida Console',monospace" fill="#547000">Text</text><text x="-170.952" y="848.006" style="font:300 14px 'Lucida Console',monospace" fill="#000000">registeredId:</text><text x="-57.378" y="848.006" style="font:300 14px 'Lucida Console',monospace" fill="#02b57b">Text</text><text x="-170.952" y="862.006" style="font:300 14px 'Lucida Console',monospace" fill="#000000">idScheme:</text><text x="-91.093" y="862.006" style="font:300 14px 'Lucida Console',monospace" fill="#02b57b">IdentifierScheme</text><text x="-170.952" y="876.006" style="font:300 14px 'Lucida Console',monospace" fill="#000000">description:</text><text x="-65.807" y="876.006" style="font:300 14px 'Lucida Console',monospace" fill="#547000">Text</text><text x="-170.952" y="890.006" style="font:300 14px 'Lucida Console',monospace" fill="#000000">registrationCountry:</text><text x="1.623" y="890.006" style="font:300 14px 'Lucida Console',monospace" fill="#530abb">Code(countryCode)</text><text x="-170.952" y="904.006" style="font:300 14px 'Lucida Console',monospace" fill="#000000">organisationWebsite:</text><text x="1.623" y="904.006" style="font:300 14px 'Lucida Console',monospace" fill="#02b57b">URI</text><text x="-170.952" y="918.006" style="font:300 14px 'Lucida Console',monospace" fill="#000000">industryCategory:</text><text x="-23.663" y="918.006" style="font:300 14px 'Lucida Console',monospace" fill="#02b57b">Classification[]</text><text x="-170.952" y="932.006" style="font:300 14px 'Lucida Console',monospace" fill="#000000">partyAlsoKnownAs:</text><text x="-23.663" y="932.006" style="font:300 14px 'Lucida Console',monospace" fill="#02b57b">Party[]</text><path fill="#FFFFFF" stroke="#aabbccdd" stroke-width="3" d="M369.585 771.942h374.291v190H369.585z"/><path fill="#aabbccdd" stroke="#aabbccdd" d="M370.585 796.942h374.291"/><path fill="none" stroke="#aabbccdd" stroke-width="3" d="M369.585 771.942h374.291v190H369.585z"/><text x="379.585" y="789.942" style="font:700 16px 'Lucida Console',monospace" fill="#000000">untp.Facility</text><text x="379.585" y="813.942" style="font:700 14px 'Lucida Console',monospace" fill="#000000">* id:</text><text x="425.729" y="813.942" style="font:300 14px 'Lucida Console',monospace" fill="#C9A30B">URI</text><text x="379.585" y="827.942" style="font:700 14px 'Lucida Console',monospace" fill="#000000">* name:</text><text x="442.586" y="827.942" style="font:300 14px 'Lucida Console',monospace" fill="#547000">Text</text><text x="396.443" y="841.942" style="font:300 14px 'Lucida Console',monospace" fill="#000000">registeredId:</text><text x="510.016" y="841.942" style="font:300 14px 'Lucida Console',monospace" fill="#02b57b">Text</text><text x="396.443" y="855.942" style="font:300 14px 'Lucida Console',monospace" fill="#000000">idScheme:</text><text x="476.301" y="855.942" style="font:300 14px 'Lucida Console',monospace" fill="#02b57b">IdentifierScheme</text><text x="396.443" y="869.942" style="font:300 14px 'Lucida Console',monospace" fill="#000000">description:</text><text x="501.587" y="869.942" style="font:300 14px 'Lucida Console',monospace" fill="#547000">Text</text><text x="396.443" y="883.942" style="font:300 14px 'Lucida Console',monospace" fill="#000000">countryOfOperation:</text><text x="560.588" y="883.942" style="font:300 14px 'Lucida Console',monospace" fill="#530abb">Code(countryCode)</text><text x="396.443" y="897.942" style="font:300 14px 'Lucida Console',monospace" fill="#000000">processCategory:</text><text x="535.302" y="897.942" style="font:300 14px 'Lucida Console',monospace" fill="#02b57b">Classification[]</text><text x="396.443" y="911.942" style="font:300 14px 'Lucida Console',monospace" fill="#000000">operatedByParty:</text><text x="535.302" y="911.942" style="font:300 14px 'Lucida Console',monospace" fill="#02b57b">Party</text><text x="396.443" y="925.942" style="font:300 14px 'Lucida Console',monospace" fill="#000000">facilityAlsoKnownAs:</text><text x="569.017" y="925.942" style="font:300 14px 'Lucida Console',monospace" fill="#02b57b">Facility[]</text><text x="396.443" y="939.942" style="font:300 14px 'Lucida Console',monospace" fill="#000000">locationInformation:</text><text x="569.017" y="939.942" style="font:300 14px 'Lucida Console',monospace" fill="#02b57b">Location</text><text x="396.443" y="953.942" style="font:300 14px 'Lucida Console',monospace" fill="#000000">address:</text><text x="467.872" y="953.942" style="font:300 14px 'Lucida Console',monospace" fill="#02b57b">Address</text><path fill="#FFFFFF" stroke="#aabbccdd" stroke-width="3" d="M1089.009 571.902h400.435v162h-400.435z"/><path fill="#aabbccdd" stroke="#aabbccdd" d="M1090.009 596.902h400.434"/><path fill="none" stroke="#aabbccdd" stroke-width="3" d="M1089.009 571.902h400.435v162h-400.435z"/><text x="1099.009" y="589.902" style="font:700 16px 'Lucida Console',monospace" fill="#000000">untp.Claim</text><text x="1099.009" y="613.902" style="font:700 14px 'Lucida Console',monospace" fill="#666">* id:</text><text x="1145.152" y="613.902" style="font:300 14px 'Lucida Console',monospace" fill="#C9A30B">URI</text><text x="1115.866" y="627.902" style="font:300 14px 'Lucida Console',monospace" fill="#666">description:</text><text x="1221.011" y="627.902" style="font:300 14px 'Lucida Console',monospace" fill="#547000">Text</text><text x="1115.866" y="641.902" style="font:300 14px 'Lucida Console',monospace" fill="#666">referenceStandard:</text><text x="1271.583" y="641.902" style="font:300 14px 'Lucida Console',monospace" fill="#02b57b">Standard</text><text x="1115.866" y="655.902" style="font:300 14px 'Lucida Console',monospace" fill="#666">referenceRegulation:</text><text x="1288.44" y="655.902" style="font:300 14px 'Lucida Console',monospace" fill="#02b57b">Regulation</text><text x="1115.866" y="669.902" style="font:300 14px 'Lucida Console',monospace" fill="#666">assessmentCriteria:</text><text x="1280.011" y="669.902" style="font:300 14px 'Lucida Console',monospace" fill="#02b57b">Criterion[]</text><text x="1115.866" y="683.902" style="font:300 14px 'Lucida Console',monospace" fill="#666">assessmentDate:</text><text x="1246.297" y="683.902" style="font:300 14px 'Lucida Console',monospace" fill="#02b57b">Date</text><text x="1115.866" y="697.902" style="font:300 14px 'Lucida Console',monospace" fill="#666">declaredValue:</text><text x="1237.868" y="697.902" style="font:300 14px 'Lucida Console',monospace" fill="#02b57b">Metric[]</text><text x="1099.009" y="711.902" style="font:700 14px 'Lucida Console',monospace" fill="#666">* conformityTopic:</text><text x="1254.725" y="711.902" style="font:300 14px 'Lucida Console',monospace" fill="#530abb">Code(conformityTopicCode)</text><text x="1115.866" y="725.902" style="font:300 14px 'Lucida Console',monospace" fill="#000000">conformityEvidence:</text><text x="1280.011" y="725.902" style="font:300 14px 'Lucida Console',monospace" fill="#02b57b">SecureLink</text><path fill="#FFFFFF" stroke="#aabbccdd" stroke-width="3" d="M1350 250h212.857v92H1350z"/><path fill="#aabbccdd" stroke="#aabbccdd" d="M1351 275h212.857"/><path fill="none" stroke="#aabbccdd" stroke-width="3" d="M1350 250h212.857v92H1350z"/><text x="1360" y="268" style="font:700 16px 'Lucida Console',monospace" fill="#000000">untp.Standard</text><text x="1376.857" y="292" style="font:300 14px 'Lucida Console',monospace" fill="#000000">id:</text><text x="1406.144" y="292" style="font:300 14px 'Lucida Console',monospace" fill="#C9A30B">URI</text><text x="1376.857" y="306" style="font:300 14px 'Lucida Console',monospace" fill="#000000">name:</text><text x="1423.001" y="306" style="font:300 14px 'Lucida Console',monospace" fill="#547000">Text</text><text x="1360" y="320" style="font:700 14px 'Lucida Console',monospace" fill="#000000">* issuingParty:</text><text x="1490.431" y="320" style="font:300 14px 'Lucida Console',monospace" fill="#02b57b">Party</text><text x="1376.857" y="334" style="font:300 14px 'Lucida Console',monospace" fill="#000000">issueDate:</text><text x="1465.145" y="334" style="font:300 14px 'Lucida Console',monospace" fill="#02b57b">Date</text><path fill="#FFFFFF" stroke="#aabbccdd" stroke-width="3" d="M1325.977 803.045h370.72v106h-370.72z"/><path fill="#aabbccdd" stroke="#aabbccdd" d="M1326.977 828.045h370.72"/><path fill="none" stroke="#aabbccdd" stroke-width="3" d="M1325.977 803.045h370.72v106h-370.72z"/><text x="1335.977" y="821.045" style="font:700 16px 'Lucida Console',monospace" fill="#000000">untp.Regulation</text><text x="1352.835" y="845.045" style="font:300 14px 'Lucida Console',monospace" fill="#000000">id:</text><text x="1382.121" y="845.045" style="font:300 14px 'Lucida Console',monospace" fill="#C9A30B">URI</text><text x="1352.835" y="859.045" style="font:300 14px 'Lucida Console',monospace" fill="#000000">name:</text><text x="1398.978" y="859.045" style="font:300 14px 'Lucida Console',monospace" fill="#547000">Text</text><text x="1352.835" y="873.045" style="font:300 14px 'Lucida Console',monospace" fill="#000000">jurisdictionCountry:</text><text x="1525.409" y="873.045" style="font:300 14px 'Lucida Console',monospace" fill="#530abb">Code(countryCode)</text><text x="1335.977" y="887.045" style="font:700 14px 'Lucida Console',monospace" fill="#000000">* administeredBy:</text><text x="1483.265" y="887.045" style="font:300 14px 'Lucida Console',monospace" fill="#02b57b">Party</text><text x="1352.835" y="901.045" style="font:300 14px 'Lucida Console',monospace" fill="#000000">effectiveDate:</text><text x="1474.837" y="901.045" style="font:300 14px 'Lucida Console',monospace" fill="#02b57b">Date</text><path fill="#FFFFFF" stroke="#aabbccdd" stroke-width="3" d="M823.337 785.32h420.435v176H823.337z"/><path fill="#aabbccdd" stroke="#aabbccdd" d="M824.337 810.32h420.435"/><path fill="none" stroke="#aabbccdd" stroke-width="3" d="M823.337 785.32h420.435v176H823.337z"/><text x="833.337" y="803.32" style="font:700 16px 'Lucida Console',monospace" fill="#000000">untp.Criterion</text><text x="833.337" y="827.32" style="font:700 14px 'Lucida Console',monospace" fill="#000000">* id:</text><text x="879.481" y="827.32" style="font:300 14px 'Lucida Console',monospace" fill="#C9A30B">URI</text><text x="833.337" y="841.32" style="font:700 14px 'Lucida Console',monospace" fill="#000000">* name:</text><text x="896.338" y="841.32" style="font:300 14px 'Lucida Console',monospace" fill="#547000">Text</text><text x="833.337" y="855.32" style="font:700 14px 'Lucida Console',monospace" fill="#000000">* description:</text><text x="955.339" y="855.32" style="font:300 14px 'Lucida Console',monospace" fill="#547000">Text</text><text x="833.337" y="869.32" style="font:700 14px 'Lucida Console',monospace" fill="#000000">* conformityTopic:</text><text x="989.054" y="869.32" style="font:300 14px 'Lucida Console',monospace" fill="#530abb">Code(conformityTopicCode)</text><text x="833.337" y="883.32" style="font:700 14px 'Lucida Console',monospace" fill="#000000">* status:</text><text x="913.196" y="883.32" style="font:300 14px 'Lucida Console',monospace" fill="#530abb">Code(statusCode)</text><text x="850.195" y="897.32" style="font:300 14px 'Lucida Console',monospace" fill="#000000">subCriterion:</text><text x="963.768" y="897.32" style="font:300 14px 'Lucida Console',monospace" fill="#02b57b">Criterion[]</text><text x="850.195" y="911.32" style="font:300 14px 'Lucida Console',monospace" fill="#000000">thresholdValue:</text><text x="980.626" y="911.32" style="font:300 14px 'Lucida Console',monospace" fill="#02b57b">Metric</text><text x="850.195" y="925.32" style="font:300 14px 'Lucida Console',monospace" fill="#000000">performanceLevel:</text><text x="997.483" y="925.32" style="font:300 14px 'Lucida Console',monospace" fill="#02b57b">Text</text><text x="850.195" y="939.32" style="font:300 14px 'Lucida Console',monospace" fill="#000000">category:</text><text x="930.053" y="939.32" style="font:300 14px 'Lucida Console',monospace" fill="#02b57b">Classification[]</text><text x="850.195" y="953.32" style="font:300 14px 'Lucida Console',monospace" fill="#000000">tag:</text><text x="887.91" y="953.32" style="font:300 14px 'Lucida Console',monospace" fill="#02b57b">Text[]</text><path fill="#FFFFFF" stroke="#aabbccdd" stroke-width="3" d="M1355.152 417.264h219.003v92h-219.003z"/><path fill="#aabbccdd" stroke="#aabbccdd" d="M1356.152 442.264h219.003"/><path fill="none" stroke="#aabbccdd" stroke-width="3" d="M1355.152 417.264h219.003v92h-219.003z"/><text x="1365.152" y="435.264" style="font:700 16px 'Lucida Console',monospace" fill="#000000">untp.Metric</text><text x="1365.152" y="459.264" style="font:700 14px 'Lucida Console',monospace" fill="#000000">* metricName:</text><text x="1478.725" y="459.264" style="font:300 14px 'Lucida Console',monospace" fill="#02b57b">Text</text><text x="1365.152" y="473.264" style="font:700 14px 'Lucida Console',monospace" fill="#000000">* metricValue:</text><text x="1487.154" y="473.264" style="font:300 14px 'Lucida Console',monospace" fill="#02b57b">Measure</text><text x="1382.009" y="487.264" style="font:300 14px 'Lucida Console',monospace" fill="#000000">score:</text><text x="1436.582" y="487.264" style="font:300 14px 'Lucida Console',monospace" fill="#02b57b">Text</text><text x="1382.009" y="501.264" style="font:300 14px 'Lucida Console',monospace" fill="#000000">accuracy:</text><text x="1461.868" y="501.264" style="font:300 14px 'Lucida Console',monospace" fill="#02b57b">Numeric</text><path fill="#FFFFFF" stroke="#aabbccdd" stroke-width="3" d="M-373.478 604.216H47.814v106h-421.292z"/><path fill="#aabbccdd" stroke="#aabbccdd" d="M-372.478 629.216H48.814"/><path fill="none" stroke="#aabbccdd" stroke-width="3" d="M-373.478 604.216H47.814v106h-421.292z"/><text x="-363.478" y="622.216" style="font:700 16px 'Lucida Console',monospace" fill="#000000">untp.EmissionsPerformance</text><text x="-363.478" y="646.216" style="font:700 14px 'Lucida Console',monospace" fill="#000000">* carbonFootprint:</text><text x="-207.762" y="646.216" style="font:300 14px 'Lucida Console',monospace" fill="#02b57b">Decimal</text><text x="-363.478" y="660.216" style="font:700 14px 'Lucida Console',monospace" fill="#000000">* declaredUnit:</text><text x="-233.048" y="660.216" style="font:300 14px 'Lucida Console',monospace" fill="#530abb">Code(unitOfMeasure)</text><text x="-363.478" y="674.216" style="font:700 14px 'Lucida Console',monospace" fill="#000000">* operationalScope:</text><text x="-199.333" y="674.216" style="font:300 14px 'Lucida Console',monospace" fill="#530abb">Code(operationalScopeCode)</text><text x="-363.478" y="688.216" style="font:700 14px 'Lucida Console',monospace" fill="#000000">* primarySourcedRatio:</text><text x="-174.047" y="688.216" style="font:300 14px 'Lucida Console',monospace" fill="#02b57b">Decimal</text><text x="-346.621" y="702.216" style="font:300 14px 'Lucida Console',monospace" fill="#000000">reportingStandard:</text><text x="-190.904" y="702.216" style="font:300 14px 'Lucida Console',monospace" fill="#02b57b">Standard</text><path fill="#FFFFFF" stroke="#aabbccdd" stroke-width="3" d="M-120.234 268.675H217.2v120h-337.434z"/><path fill="#aabbccdd" stroke="#aabbccdd" d="M-119.234 293.675h337.433"/><path fill="none" stroke="#aabbccdd" stroke-width="3" d="M-120.234 268.675H217.2v120h-337.434z"/><text x="-110.234" y="286.675" style="font:700 16px 'Lucida Console',monospace" fill="#000000">untp.CircularityPerformance</text><text x="-110.234" y="310.675" style="font:300 14px 'Lucida Console',monospace" fill="#000000">recyclingInformation:</text><text x="70.769" y="310.675" style="font:300 14px 'Lucida Console',monospace" fill="#02b57b">Link</text><text x="-110.234" y="324.675" style="font:300 14px 'Lucida Console',monospace" fill="#000000">repairInformation:</text><text x="45.483" y="324.675" style="font:300 14px 'Lucida Console',monospace" fill="#02b57b">Link</text><text x="-110.234" y="338.675" style="font:300 14px 'Lucida Console',monospace" fill="#000000">recyclableContent:</text><text x="45.483" y="338.675" style="font:300 14px 'Lucida Console',monospace" fill="#02b57b">Decimal</text><text x="-110.234" y="352.675" style="font:300 14px 'Lucida Console',monospace" fill="#000000">recycledContent:</text><text x="28.625" y="352.675" style="font:300 14px 'Lucida Console',monospace" fill="#02b57b">Decimal</text><text x="-110.234" y="366.675" style="font:300 14px 'Lucida Console',monospace" fill="#000000">utilityFactor:</text><text x="11.768" y="366.675" style="font:300 14px 'Lucida Console',monospace" fill="#02b57b">Decimal</text><text x="-110.234" y="380.675" style="font:300 14px 'Lucida Console',monospace" fill="#000000">materialCircularityIndicator:</text><text x="138.198" y="380.675" style="font:300 14px 'Lucida Console',monospace" fill="#02b57b">Decimal</text><path fill="#FFFFFF" stroke="#aabbccdd" stroke-width="3" d="M825.66 342.564h340.147v162H825.66z"/><path fill="#aabbccdd" stroke="#aabbccdd" d="M826.66 367.564h340.148"/><path fill="none" stroke="#aabbccdd" stroke-width="3" d="M825.66 342.564h340.147v162H825.66z"/><text x="835.66" y="360.564" style="font:700 16px 'Lucida Console',monospace" fill="#000000">untp.Material</text><text x="835.66" y="384.564" style="font:700 14px 'Lucida Console',monospace" fill="#000000">* name:</text><text x="898.661" y="384.564" style="font:300 14px 'Lucida Console',monospace" fill="#547000">Text</text><text x="852.518" y="398.564" style="font:300 14px 'Lucida Console',monospace" fill="#000000">originCountry:</text><text x="974.52" y="398.564" style="font:300 14px 'Lucida Console',monospace" fill="#530abb">Code(countryCode)</text><text x="852.518" y="412.564" style="font:300 14px 'Lucida Console',monospace" fill="#000000">materialType:</text><text x="966.091" y="412.564" style="font:300 14px 'Lucida Console',monospace" fill="#02b57b">Classification</text><text x="852.518" y="426.564" style="font:300 14px 'Lucida Console',monospace" fill="#000000">massFraction:</text><text x="966.091" y="426.564" style="font:300 14px 'Lucida Console',monospace" fill="#02b57b">Numeric</text><text x="852.518" y="440.564" style="font:300 14px 'Lucida Console',monospace" fill="#000000">mass:</text><text x="898.661" y="440.564" style="font:300 14px 'Lucida Console',monospace" fill="#02b57b">Measure</text><text x="852.518" y="454.564" style="font:300 14px 'Lucida Console',monospace" fill="#000000">recycledMassFraction:</text><text x="1033.521" y="454.564" style="font:300 14px 'Lucida Console',monospace" fill="#02b57b">Numeric</text><text x="852.518" y="468.564" style="font:300 14px 'Lucida Console',monospace" fill="#000000">hazardous:</text><text x="940.805" y="468.564" style="font:300 14px 'Lucida Console',monospace" fill="#02b57b">Indicator</text><text x="852.518" y="482.564" style="font:300 14px 'Lucida Console',monospace" fill="#000000">symbol:</text><text x="915.519" y="482.564" style="font:300 14px 'Lucida Console',monospace" fill="#02b57b">Binary</text><text x="852.518" y="496.564" style="font:300 14px 'Lucida Console',monospace" fill="#000000">materialSafetyInformation:</text><text x="1075.664" y="496.564" style="font:300 14px 'Lucida Console',monospace" fill="#02b57b">Link</text><path fill="#FFFFFF" stroke="#aabbccdd" stroke-width="3" d="M600 550h249.881v106H600z"/><path fill="#aabbccdd" stroke="#aabbccdd" d="M601 575h249.88"/><path fill="none" stroke="#aabbccdd" stroke-width="3" d="M600 550h249.881v106H600z"/><text x="610" y="568" style="font:700 16px 'Lucida Console',monospace" fill="#000000">untp.Classification</text><text x="610" y="592" style="font:700 14px 'Lucida Console',monospace" fill="#000000">* id:</text><text x="656.144" y="592" style="font:300 14px 'Lucida Console',monospace" fill="#C9A30B">URI</text><text x="626.857" y="606" style="font:300 14px 'Lucida Console',monospace" fill="#000000">code:</text><text x="673.001" y="606" style="font:300 14px 'Lucida Console',monospace" fill="#02b57b">Text</text><text x="610" y="620" style="font:700 14px 'Lucida Console',monospace" fill="#000000">* name:</text><text x="673.001" y="620" style="font:300 14px 'Lucida Console',monospace" fill="#547000">Text</text><text x="626.857" y="634" style="font:300 14px 'Lucida Console',monospace" fill="#000000">schemeID:</text><text x="706.716" y="634" style="font:300 14px 'Lucida Console',monospace" fill="#02b57b">URI</text><text x="626.857" y="648" style="font:300 14px 'Lucida Console',monospace" fill="#000000">schemeName:</text><text x="723.573" y="648" style="font:300 14px 'Lucida Console',monospace" fill="#02b57b">Text</text></svg>