<?xml version="1.0" encoding="UTF-8"?>
<svg width="41.6147595px" height="33.6042359px" viewBox="0 0 41.6147595 33.6042359" version="1.1" xmlns="http://www.w3.org/2000/svg" xmlns:xlink="http://www.w3.org/1999/xlink">
    <title>ESG Standard</title>
    <g id="Page-1" stroke="none" stroke-width="1" fill="none" fill-rule="evenodd" stroke-linecap="round" stroke-linejoin="round">
        <g id="UN-CRM---Home" transform="translate(-674.199983, -619.195763)" stroke="#009EDB" stroke-width="1.6">
            <g id="ESG-Standard" transform="translate(675.000000, 620.000000)">
                <path d="M26.741969,29.3421927 C23.7414633,31.0313099 20.3605608,31.9452793 16.9103627,32 C11.1263665,31.9925765 5.99925234,28.3091349 4.19213428,22.8629202 C2.38501623,17.4167055 4.3053578,11.4357137 8.9556995,8.02657807 C8.9556995,8.02657807 13.3352332,3.65005537 24.0606218,3.65005537 C29.0138836,3.89570874 33.9274132,2.66113508 38.1645078,0.106312292 C38.4326425,-0.0354374308 38.7544042,-0.0354374308 39.0225389,0.106312292 C39.2988607,0.220272271 39.49531,0.468714021 39.5409327,0.761904762 C40.3632125,5.45736434 41.757513,21.1561462 26.741969,29.3421927 Z" id="Path"></path>
                <path d="M22.273057,15.1672204 C16.7224973,16.6872861 11.5206334,19.2563594 6.95362695,22.7331118 L0,28.6157254" id="Path"></path>
            </g>
        </g>
    </g>
</svg>