<?xml version="1.0" encoding="UTF-8"?>
<svg width="32.8902033px" height="32.8902033px" viewBox="0 0 32.8902033 32.8902033" version="1.1" xmlns="http://www.w3.org/2000/svg" xmlns:xlink="http://www.w3.org/1999/xlink">
    <title>Industry</title>
    <g id="Page-1" stroke="none" stroke-width="1" fill="none" fill-rule="evenodd" stroke-linecap="round" stroke-linejoin="round">
        <g id="UN-CRM---Home-Copy" transform="translate(-777.200778, -902.200000)" stroke="#009EDB" stroke-width="1.6">
            <g id="Industry" transform="translate(778.000778, 903.000000)">
                <line x1="0" y1="31.2902033" x2="31.2902033" y2="31.2902033" id="Path"></line>
                <path d="M9.52310536,31.2902033 L9.52310536,6.80221811 C9.52310536,6.05086585 10.1321967,5.44177449 10.883549,5.44177449 L20.4066543,5.44177449 C21.1580066,5.44177449 21.767098,6.05086585 21.767098,6.80221811 L21.767098,31.2902033" id="Path"></path>
                <path d="M29.9297597,31.2902033 L29.9297597,18.3659889 C29.9297597,18.1855829 29.8580937,18.0125658 29.7305273,17.8849995 C29.602961,17.7574331 29.4299439,17.6857671 29.2495379,17.6857671 L25.168207,17.6857671 C24.7925309,17.6857671 24.4879852,17.9903128 24.4879852,18.3659889 L24.4879852,31.2902033" id="Path"></path>
                <path d="M6.80221811,31.2902033 L6.80221811,18.3659889 C6.80221811,17.9903128 6.49767244,17.6857671 6.1219963,17.6857671 L2.04066543,17.6857671 C1.6649893,17.6857671 1.36044362,17.9903128 1.36044362,18.3659889 L1.36044362,31.2902033" id="Path"></path>
                <line x1="5.44177449" y1="17.6857671" x2="5.44177449" y2="16.3253235" id="Path"></line>
                <line x1="25.8484288" y1="17.6857671" x2="25.8484288" y2="16.3253235" id="Path"></line>
                <path d="M17.6857671,5.44177449 L17.6857671,3.40110906 C17.6857671,3.02543292 17.3812214,2.72088725 17.0055453,2.72088725 L14.284658,2.72088725 C13.9089819,2.72088725 13.6044362,3.02543292 13.6044362,3.40110906 L13.6044362,5.44177449" id="Path"></path>
                <line x1="16.3253235" y1="2.72088725" x2="16.3253235" y2="0" id="Path"></line>
                <line x1="12.2439926" y1="9.52310536" x2="19.0462107" y2="9.52310536" id="Path"></line>
                <line x1="12.2439926" y1="13.6044362" x2="19.0462107" y2="13.6044362" id="Path"></line>
                <line x1="12.2439926" y1="17.6857671" x2="19.0462107" y2="17.6857671" id="Path"></line>
                <line x1="12.2439926" y1="21.767098" x2="19.0462107" y2="21.767098" id="Path"></line>
                <line x1="12.2439926" y1="25.8484288" x2="19.0462107" y2="25.8484288" id="Path"></line>
            </g>
        </g>
    </g>
</svg>