<svg width="0" height="0" class="hidden">
    <symbol xmlns="http://www.w3.org/2000/svg" fill="currentColor" viewBox="0 0 24 24" id="github">
        <path d="M12.04 0a12.035 12.035 0 0 0-3.731 23.479h.28c.257.012.508-.074.703-.241.237-.207.37-.508.36-.822v-1.304a.491.491 0 0 0-.19-.331.501.501 0 0 0-.41-.1c-2.699.581-3.27-1.104-3.3-1.214a4.654 4.654 0 0 0-1.736-2.197l-.15-.11a.732.732 0 0 1 .381-.07c.508.076.94.41 1.143.883a3.009 3.009 0 0 0 4.012 1.163c.151-.067.262-.2.301-.361.04-.46.24-.893.562-1.224a.501.501 0 0 0 .15-.531.491.491 0 0 0-.421-.351c-2.377-.271-4.814-1.103-4.814-5.205a4.012 4.012 0 0 1 1.063-2.789.491.491 0 0 0 .09-.521 3.57 3.57 0 0 1 .01-2.417A5.586 5.586 0 0 1 8.871 6.89c.123.085.279.107.42.06.897-.239 1.821-.36 2.749-.36a10.34 10.34 0 0 1 2.758.36.461.461 0 0 0 .411-.06c.731-.593 1.6-.99 2.527-1.153a3.55 3.55 0 0 1 0 2.387.481.481 0 0 0 .1.521 4.012 4.012 0 0 1 1.054 2.758c0 4.112-2.437 4.935-4.824 5.196a.491.491 0 0 0-.421.35c-.06.189 0 .394.15.522.449.469.672 1.11.612 1.755v3.19c-.005.315.131.616.37.822.304.23.7.302 1.064.19A12.035 12.035 0 0 0 12.04 0Z"/>
    </symbol>
    <symbol xmlns="http://www.w3.org/2000/svg" viewBox="0 0 33.057 33.057" id="search">
        <g fill="none" fill-rule="evenodd" stroke="currentColor" stroke-width="1.5">
            <path d="M21.723 7.934a9.75 9.721-45 0 1-.02 13.769 9.75 9.721-45 0 1-13.769.02 9.75 9.721-45 0 1 .021-13.768 9.75 9.721-45 0 1 13.768-.02z"/>
            <path d="M10.481 20.942V25" transform="rotate(-45 17.925 7.425)"/>
        </g>
    </symbol>
    <symbol xmlns="http://www.w3.org/2000/svg" fill="currentColor" viewBox="0 0 24 24" id="slack">
        <g fill-rule="nonzero">
            <path d="M22.17 16.701h-7.34c-1.01 0-1.83-.815-1.83-1.82 0-1.005.82-1.82 1.83-1.82h7.34c1.01 0 1.83.815 1.83 1.82 0 1.005-.82 1.82-1.83 1.82ZM14.83 11.073c-1.01 0-1.83-.815-1.83-1.82V1.954c-.05-.68.286-1.332.871-1.687a1.839 1.839 0 0 1 1.908 0c.585.355.922 1.007.871 1.687v7.3a1.825 1.825 0 0 1-1.82 1.819ZM9.17 11.073H1.83c-1.01 0-1.83-.815-1.83-1.82 0-1.005.82-1.82 1.83-1.82h7.34c1.01 0 1.83.815 1.83 1.82 0 1.005-.82 1.82-1.83 1.82ZM9.17 24c-1.01 0-1.83-.815-1.83-1.82v-7.299c-.05-.68.286-1.332.871-1.687a1.839 1.839 0 0 1 1.908 0c.585.355.922 1.007.871 1.687v7.3A1.825 1.825 0 0 1 9.17 24ZM2.22 17.517A2.214 2.214 0 0 1 0 15.319a2.264 2.264 0 0 1 2.27-2.257h1.48c.405.005.73.333.73.735v1.472a2.254 2.254 0 0 1-2.26 2.248ZM10.27 4.59H8.78a2.254 2.254 0 0 1-2.26-2.248c-.003-.586.23-1.15.647-1.564A2.216 2.216 0 0 1 8.74.134 2.264 2.264 0 0 1 11 2.392v1.471c0 .401-.327.726-.73.726ZM15.26 24A2.264 2.264 0 0 1 13 21.743V20.27c0-.4.327-.726.73-.726h1.49a2.254 2.254 0 0 1 2.26 2.247c.003.587-.23 1.15-.647 1.564A2.216 2.216 0 0 1 15.26 24ZM21.73 11.073h-1.48a.738.738 0 0 1-.73-.736V8.865a2.254 2.254 0 0 1 2.26-2.247c1.222 0 2.214.982 2.22 2.198a2.264 2.264 0 0 1-2.27 2.257Z"/>
        </g>
    </symbol>
</svg>
