<?xml version="1.0" encoding="UTF-8"?>
<svg width="42.4916984px" height="33.5996705px" viewBox="0 0 42.4916984 33.5996705" version="1.1" xmlns="http://www.w3.org/2000/svg" xmlns:xlink="http://www.w3.org/1999/xlink">
    <title>Regulators</title>
    <g id="Page-1" stroke="none" stroke-width="1" fill="none" fill-rule="evenodd" stroke-linecap="round" stroke-linejoin="round">
        <g id="UN-CRM---Home-Copy" transform="translate(-897.199997, -902.596136)" stroke="#009EDB" stroke-width="1.6">
            <g id="Regulators" transform="translate(898.000000, 903.395806)">
                <path d="M37.3347168,19.5555752 L40.7498225,14.2720281 C40.8927287,14.0504474 40.9298895,13.7768588 40.8512639,13.5251881 C40.7726383,13.2735174 40.5863413,13.0697403 40.3427121,12.968919 C36.7763853,11.2043679 33.8964136,8.30626342 32.1542806,4.72893204 C32.0538723,4.54444876 31.8913801,4.40148086 31.6956146,4.32537712 L20.7658542,0.0587172082 C20.5597039,-0.0195724027 20.3320054,-0.0195724027 20.1258552,0.0587172082 L9.19609469,4.32537712 C9.0003292,4.40148086 8.83783706,4.54444876 8.73742875,4.72893204 C6.99688989,8.3095777 4.11674541,11.2109825 0.548997266,12.9778079 C0.305368023,13.0786291 0.119071072,13.2824063 0.0404454366,13.534077 C-0.0381801994,13.7857477 -0.00101935277,14.0593363 0.141886799,14.2809169 L3.55699251,19.5555752" id="Path"></path>
                <path d="M37.3347168,24.0000127 C31.9053842,22.1262006 26.1883943,21.223518 20.4458547,21.3333502 C14.7033151,21.223518 8.98632512,22.1262006 3.55699251,24.0000127" id="Path"></path>
                <path d="M37.3347168,19.5555752 L37.3347168,24.0000127 C37.3347168,24.0000127 34.6680544,32 20.4458547,32 C6.22365495,32 3.55699251,24.0000127 3.55699251,24.0000127 L3.55699251,19.5555752" id="Path"></path>
                <path d="M3.55699251,19.5555752 C4.90276816,18.222244 8.49387358,17.0311348 13.3347548,16.4249135" id="Path"></path>
                <path d="M37.3347168,19.5555752 C35.9889412,18.222244 32.3978358,17.0311348 27.5569545,16.4249135" id="Path"></path>
                <polygon id="Path" points="20.4458547 4.60271002 22.2236296 8.88892546 26.668067 8.88892546 23.1125171 12.0515871 24.4458483 16.8889128 20.4458547 13.75114 16.445861 16.8515795 17.7791922 12.0586982 14.2236423 8.88892546 18.6680797 8.88892546 20.4458547 4.60271002"></polygon>
            </g>
        </g>
    </g>
</svg>