<svg xmlns="http://www.w3.org/2000/svg" width="24" height="24" fill="currentColor">
    <g fill-rule="nonzero">
        <path d="M22.17 16.701h-7.34c-1.01 0-1.83-.815-1.83-1.82 0-1.005.82-1.82 1.83-1.82h7.34c1.01 0 1.83.815 1.83 1.82 0 1.005-.82 1.82-1.83 1.82ZM14.83 11.073c-1.01 0-1.83-.815-1.83-1.82V1.954c-.05-.68.286-1.332.871-1.687a1.839 1.839 0 0 1 1.908 0c.585.355.922 1.007.871 1.687v7.3a1.825 1.825 0 0 1-1.82 1.819ZM9.17 11.073H1.83c-1.01 0-1.83-.815-1.83-1.82 0-1.005.82-1.82 1.83-1.82h7.34c1.01 0 1.83.815 1.83 1.82 0 1.005-.82 1.82-1.83 1.82ZM9.17 24c-1.01 0-1.83-.815-1.83-1.82v-7.299c-.05-.68.286-1.332.871-1.687a1.839 1.839 0 0 1 1.908 0c.585.355.922 1.007.871 1.687v7.3A1.825 1.825 0 0 1 9.17 24ZM2.22 17.517A2.214 2.214 0 0 1 0 15.319a2.264 2.264 0 0 1 2.27-2.257h1.48c.405.005.73.333.73.735v1.472a2.254 2.254 0 0 1-2.26 2.248ZM10.27 4.59H8.78a2.254 2.254 0 0 1-2.26-2.248c-.003-.586.23-1.15.647-1.564A2.216 2.216 0 0 1 8.74.134 2.264 2.264 0 0 1 11 2.392v1.471c0 .401-.327.726-.73.726ZM15.26 24A2.264 2.264 0 0 1 13 21.743V20.27c0-.4.327-.726.73-.726h1.49a2.254 2.254 0 0 1 2.26 2.247c.003.587-.23 1.15-.647 1.564A2.216 2.216 0 0 1 15.26 24ZM21.73 11.073h-1.48a.738.738 0 0 1-.73-.736V8.865a2.254 2.254 0 0 1 2.26-2.247c1.222 0 2.214.982 2.22 2.198a2.264 2.264 0 0 1-2.27 2.257Z"/>
    </g>
</svg>
