<?xml version="1.0" encoding="UTF-8"?>
<svg width="33.4870441px" height="32.8609272px" viewBox="0 0 33.4870441 32.8609272" version="1.1" xmlns="http://www.w3.org/2000/svg" xmlns:xlink="http://www.w3.org/1999/xlink">
    <title>Software Providers</title>
    <g id="Page-1" stroke="none" stroke-width="1" fill="none" fill-rule="evenodd">
        <g id="UN-CRM---Home-Copy" transform="translate(-665.481997, -902.487502)" stroke="#009EDB" stroke-width="1.6">
            <g id="Software-Providers" transform="translate(666.288324, 903.287502)">
                <polyline id="Path" stroke-linecap="round" stroke-linejoin="round" points="15.7003697 17.6051965 13.5749934 19.7305727 15.7003697 21.8559489"></polyline>
                <polyline id="Path" stroke-linecap="round" stroke-linejoin="round" points="26.0438673 17.6051965 28.1692435 19.7305727 26.0438673 21.8559489"></polyline>
                <line x1="19.2426634" y1="21.8559489" x2="22.0764983" y2="16.188279" id="Path" stroke-linecap="round" stroke-linejoin="round"></line>
                <path d="M8.61583895,1.16895373 L9.18260594,2.86926888 C9.32429769,3.43603587 10.0327564,3.86111111 10.5995234,3.71941937 L12.2998244,3.29432995 C13.8583769,3.01094646 14.8502192,4.7112616 13.8583769,5.84479558 L12.5832079,7.12002132 C12.1581326,7.54509656 12.1581326,8.2535553 12.5832079,8.67863054 L13.8583769,9.95385628 C14.8502192,11.0873903 13.8583769,12.9293688 12.2998244,12.5042936 L10.5995234,12.0792325 C10.0327564,11.9375407 9.32429769,12.2209242 9.18260594,12.929383 L8.61583895,14.6296698 C8.1907637,16.188279 6.06538748,16.188279 5.64031224,14.6296698 L5.07354525,12.929383 C4.9318535,12.362616 4.22339476,11.9375407 3.65662777,12.0792325 L1.95632679,12.5042936 C0.397717565,12.7876771 -0.594121837,11.0873903 0.397717565,9.95385628 L1.6729433,8.67863054 C2.09801854,8.2535553 2.09801854,7.54509656 1.6729433,7.12002132 L0.397717565,5.84479558 C-0.594121837,4.7112616 0.397717565,2.86925471 1.95632679,3.29432995 L3.65662777,3.71941937 C4.22339476,3.86111111 4.9318535,3.57772762 5.07354525,2.86926888 L5.64031224,1.16895373 C6.06538748,-0.389651244 8.1907637,-0.389651244 8.61583895,1.16895373 Z" id="Path" stroke-linecap="round" stroke-linejoin="round"></path>
                <line x1="13.1064188" y1="25.5647304" x2="11.6895722" y2="31.2607387" id="Path" stroke-linecap="round" stroke-linejoin="round"></line>
                <line x1="18.7740888" y1="25.5647304" x2="20.1910062" y2="31.2607387" id="Path" stroke-linecap="round" stroke-linejoin="round"></line>
                <line x1="7.43881977" y1="31.2607387" x2="24.4417587" y2="31.2607387" id="Path" stroke-linecap="round" stroke-linejoin="round"></line>
                <path d="M19.3231443,2.78071153 L29.0468822,2.78071153 C30.6054914,2.78071153 31.8807171,4.0623134 31.8807171,5.62871567 L31.8807171,22.7167263 C31.8807171,24.2831286 30.6054914,25.5647304 29.0468822,25.5647304 L2.83383796,25.5647304 C1.27522873,25.5647304 1.58022976e-06,24.2831286 1.58022976e-06,22.7167263 L1.58022976e-06,18.0834061" id="Path" stroke-linecap="round" stroke-linejoin="round"></path>
                <path d="M5.00306777,7.89931176 C5.00306777,8.65863556 5.40816217,9.36027969 6.06575587,9.7399416 C6.72334957,10.1196035 7.53353842,10.1196035 8.19113211,9.7399416 C8.84872581,9.36027969 9.25382021,8.65863556 9.25382021,7.89931176 C9.25382021,6.72549889 8.30225686,5.77393554 7.12844399,5.77393554 C5.95463112,5.77393554 5.00306777,6.72549889 5.00306777,7.89931176" id="Path"></path>
            </g>
        </g>
    </g>
</svg>